<svg xmlns="http://www.w3.org/2000/svg" viewBox="0 0 170.79 195.4"><defs><style>.cls-1{fill:#fff;}</style></defs><title>Asset 2</title><g id="Layer_2" data-name="Layer 2"><g id="Layer_1-2" data-name="Layer 1"><path class="cls-1" d="M102.68,30.27a1.93,1.93,0,0,0,.81-.17l3.63-1.61V53.3c0,4.38,1.77,6.49,3.25,7.49a7.18,7.18,0,0,0,4,1.15,10.79,10.79,0,0,0,4-.84c.93-.36,5.63-2.58,5.63-11.24V27.11c0-6.28,2.89-7.45,3-7.47l.17-.06c.91-.37,2.61-.87,3.81-.06s2,3.16,2,6.48V41.82c0,4.38,1.77,6.49,3.26,7.49a7.18,7.18,0,0,0,4,1.15,10.79,10.79,0,0,0,4-.84c.69-.27,3.41-1.55,4.8-5.64A8.07,8.07,0,0,0,153,45a8.51,8.51,0,0,0,3.31-.69,13.7,13.7,0,0,0,8.57-13.44A2,2,0,0,0,162.77,29,2,2,0,0,0,160.84,31a9.67,9.67,0,0,1-6,9.56l-.12,0a4.28,4.28,0,0,1-4.19-.38c-2.06-1.35-3.38-4.21-3.38-7.29v-6.1a8.59,8.59,0,0,0,4.08,1,7.71,7.71,0,0,0,5.32-1.66c2.36-1.85,3.76-5,4.17-9.29v0c.49-4.9-1.36-7.37-3-8.59-2.73-2-6.6-1.81-9.22-.7-.89.36-5.36,2.57-5.36,10.7V33a13.67,13.67,0,0,0,2.52,8c-.66,4-2.72,4.85-2.76,4.87l-.17.06c-1.73.7-3.35.73-4.32.08-1.23-.83-1.49-2.72-1.49-4.17V26c0-4.83-1.26-8.12-3.75-9.8-2-1.36-4.71-1.48-7.54-.33a6.24,6.24,0,0,0-1.63,1V2a2,2,0,0,0-4,0V49.86c0,6.27-2.89,7.44-3,7.47l-.16.06c-1.74.7-3.35.73-4.33.08-1.22-.83-1.48-2.73-1.48-4.17V26.72L117,24.13a2,2,0,1,0-1.62-3.66l-4.21,1.87V8a2,2,0,1,0-4,0V24.11l-5.25,2.33a2,2,0,0,0,.81,3.83Zm44.51-12c0-5.78,2.7-6.93,2.76-6.95l.15-.06c1.58-.67,3.9-.8,5.29.23,1.18.87,1.65,2.56,1.39,5v.06c-.3,3.08-1.2,5.3-2.59,6.44a3.77,3.77,0,0,1-2.52.88,1.42,1.42,0,0,0-.29,0,4.18,4.18,0,0,1-4.19-2.79Z"/><path class="cls-1" d="M163.72,47.24l-74.43,33a2,2,0,0,0,.81,3.83,2.14,2.14,0,0,0,.81-.17l74.44-33a2,2,0,0,0-1.63-3.66Z"/><path class="cls-1" d="M68.85,91.51a2,2,0,0,0-2.63-1L30.34,106.4c-1.33.6-2.85,1.23-4.49,1.91l-1.28.53V65.08l8.88-3.94V83.65c0,4.82,1.26,8.12,3.76,9.79A6.67,6.67,0,0,0,41,94.56a10,10,0,0,0,3.72-.78c.7-.27,3.57-1.62,4.92-6a7.13,7.13,0,0,0,4,1.13,10.79,10.79,0,0,0,4-.84c.72-.28,3.69-1.69,5-6.33.13.1.25.22.38.31a6.72,6.72,0,0,0,3.82,1.12,9.94,9.94,0,0,0,3.72-.78c.93-.36,5.63-2.58,5.63-11.24a2,2,0,0,0-4,0c0,6.27-2.89,7.44-3,7.47a.85.85,0,0,0-.17.06c-.91.37-2.61.87-3.81,0s-2-3.16-2-6.47V54.08c0-6.28,2.89-7.44,3-7.47l.17-.06c.9-.37,2.6-.87,3.81-.06s2,3.17,2,6.48a2,2,0,0,0,4,0c0-4.82-1.26-8.12-3.76-9.8-2-1.36-4.71-1.48-7.54-.33-.89.34-5.21,2.4-5.59,10.15a2.33,2.33,0,0,0,0,.37V76.8c0,6.27-2.88,7.44-2.95,7.47l-.17.06c-1.73.7-3.34.73-4.32.08-1.23-.83-1.48-2.73-1.48-4.17V52.33a2,2,0,0,0-4,0V82.54c0,6.27-2.89,7.44-3,7.47l-.16.06c-.91.37-2.61.87-3.82.05s-2-3.16-2-6.47V58.06a2,2,0,0,0-2.81-1.82L24.57,60.7V47.43l12.52-5.55c3.26-1.48,12.73-4.56,17.24-1.1a2,2,0,0,0,2.44-3.17C49.45,32,36,38,35.45,38.23L21.76,44.3a2,2,0,0,0-1.19,1.82V63.81h0v46.73C12.15,114.22,3,119,.85,125.72c-2.8,8.63,2,13.74,4.83,15.21a11,11,0,0,0,5.37,1.51,8.72,8.72,0,0,0,4.5-1.25c6.2-3.67,9-14.91,9-23.79v-4.22L27.39,112c1.66-.69,3.21-1.34,4.57-1.94L67.84,94.15A2,2,0,0,0,68.85,91.51ZM20.57,117.4c0,7.84-2.47,17.63-7.06,20.35-1.72,1-3.65.91-6-.35-.06,0-5.36-2.85-2.89-10.44,1.54-4.76,8.87-8.85,15.91-12Z"/><path class="cls-1" d="M82.09,77a2,2,0,0,0,2-2V44.8c0-6.27,2.89-7.44,3-7.47a.58.58,0,0,0,.17-.06c.9-.36,2.6-.86,3.81-.05s2,3.16,2,6.48c0,.1-.13,9.87-5.43,11.18a2,2,0,0,0-1.47,2.4c.08.33,1.94,8.06,7.55,10.85a9.33,9.33,0,0,0,4.23,1A12.45,12.45,0,0,0,103,68a2,2,0,0,0-1.62-3.65c-2.27,1-4.18,1.08-5.87.25C92.82,63.25,91.27,60,90.54,58,97,54.63,97,44.18,97,43.69c0-4.82-1.26-8.11-3.76-9.79-2-1.37-4.7-1.49-7.54-.34a6.71,6.71,0,0,0-1.63,1V19.72a2,2,0,0,0-4,0V75A2,2,0,0,0,82.09,77Z"/><path class="cls-1" d="M168.72,102.9a2,2,0,0,0-1.94,2.06,9.67,9.67,0,0,1-6,9.56l-.12,0a4.26,4.26,0,0,1-4.19-.37c-2-1.35-3.38-4.21-3.38-7.29v-6.1a8.51,8.51,0,0,0,4.08,1,3.91,3.91,0,0,0,.55,0,7.79,7.79,0,0,0,4.78-1.68c2.35-1.85,3.75-5,4.17-9.29v0c.5-4.91-1.35-7.39-3-8.61-2.73-2-6.59-1.81-9.21-.7-.9.36-5.37,2.57-5.37,10.7V106.9a13.55,13.55,0,0,0,2.79,8.39c-1.43,3.9-3.82,4.9-3.89,4.93l-.14.06c-2.26,1-4.18,1.08-5.86.25-2.65-1.31-4.2-4.56-4.93-6.55,6.43-3.38,6.49-13.84,6.49-14.32,0-4.82-1.27-8.11-3.76-9.79-2-1.37-4.71-1.49-7.54-.34a6.71,6.71,0,0,0-1.63,1V76.92l34.69-15.39a2,2,0,0,0-1.63-3.66l-35.83,15.9h0l0,0a.33.33,0,0,0-.1.06,1.67,1.67,0,0,0-.23.12l-.14.12-.15.13-.13.15a.91.91,0,0,0-.11.16.83.83,0,0,0-.09.16,1.51,1.51,0,0,0-.09.18,1.27,1.27,0,0,0-.06.18,1.8,1.8,0,0,0,0,.19,2.13,2.13,0,0,0,0,.25s0,.08,0,.13v0h0v48c0,6.27-2.89,7.44-3,7.47l-.17.06c-1.73.7-3.35.73-4.32.08-1.23-.83-1.49-2.73-1.49-4.17V98.48a2,2,0,0,0-4,0v30.79c0,6.28-2.89,7.45-3,7.47l-.17.06c-1.73.71-3.35.74-4.32.08-1.23-.82-1.49-2.72-1.49-4.16V101.6a2,2,0,0,0-2.24-2,68.08,68.08,0,0,1-12.26.59c0-4.07-.64-14.93-7.85-17.38C79,81.64,75.91,82.28,74,84.58c-2.29,2.74-2.46,7.41-.41,11.09s5.14,7,12.68,8.14V141.9c0,6.28-2.89,7.45-3,7.47l-.17.06c-1.73.71-3.34.74-4.32.08-1.22-.82-1.48-2.72-1.48-4.16V118l5.77-2.56a2,2,0,0,0-1.63-3.66l-4.14,1.84V106a2,2,0,0,0-4,0v9.44L68,117.79a2,2,0,0,0,.81,3.83,1.93,1.93,0,0,0,.81-.17l3.7-1.64v25.54c0,4.37,1.77,6.48,3.25,7.48a7.1,7.1,0,0,0,4,1.15,10.59,10.59,0,0,0,4-.84c.93-.35,5.63-2.57,5.63-11.24V104.21a69.61,69.61,0,0,0,10.53-.37v29.57a2.32,2.32,0,0,0,.06.46c.29,3.59,1.85,5.43,3.2,6.33a7.1,7.1,0,0,0,4,1.15,10.54,10.54,0,0,0,4-.84c.7-.26,3.55-1.6,4.9-5.95a7.14,7.14,0,0,0,4,1.15,10.74,10.74,0,0,0,4-.84c.93-.36,5.63-2.58,5.63-11.24V100.77c0-6.27,2.89-7.44,3-7.47a.52.52,0,0,0,.16-.06c.91-.37,2.61-.86,3.82,0s2,3.16,2,6.48c0,.09-.16,9.87-5.43,11.18a2,2,0,0,0-1.47,2.4c.07.33,1.94,8.06,7.55,10.85a9.3,9.3,0,0,0,4.23,1,12.44,12.44,0,0,0,5-1.15,11.66,11.66,0,0,0,5.63-6,8.11,8.11,0,0,0,3.79,1,8.44,8.44,0,0,0,3.3-.68,13.69,13.69,0,0,0,8.57-13.44A2,2,0,0,0,168.72,102.9ZM153.13,92.24c0-5.78,2.7-6.93,2.76-6.95l.16-.06c1.57-.67,3.89-.8,5.28.23,1.18.87,1.65,2.55,1.4,5h0c-.3,3.1-1.2,5.34-2.6,6.48a3.75,3.75,0,0,1-2.52.88,1.36,1.36,0,0,0-.29,0A4.17,4.17,0,0,1,153.13,95Zm-76,1.49c-1.22-2.19-1.23-5.15,0-6.59a2.58,2.58,0,0,1,2.11-.91,6.26,6.26,0,0,1,2,.37c4.12,1.4,5.08,8.89,5.14,13.15C79.78,98.56,78.14,95.62,77.09,93.73Z"/><path class="cls-1" d="M48.13,134.59c-3.48-.62-6-2-7.43-4.17a10.64,10.64,0,0,1-1.38-7.31,1.7,1.7,0,0,0,0-.22c.88-8.41,10-10,10.38-10.09,4.29-.59,7.24,0,8.77,1.8,2.4,2.81.91,8,.88,8a2,2,0,0,0,3.83,1.16c.09-.29,2.17-7.28-1.66-11.78-2.46-2.9-6.62-4-12.41-3.18-4.33.7-12.75,4.42-13.76,13.54a14.52,14.52,0,0,0,2,10.23c2.08,3.11,5.47,5.1,10.09,5.91,7,1.24,11.28,4,12.48,8,1.3,4.34-1.1,9.59-4,12.33-4.61,4.35-10.17,6.33-13.51,4.82-2.8-1.27-3.31-4.76-3.23-7.5.13-1,1.18-7.48,8.25-7.61a2,2,0,1,0-.08-4c-8.75.17-11.78,7.44-12.15,11.27a.53.53,0,0,0,0,.13c-.25,7.57,3.38,10.36,5.57,11.35a10.21,10.21,0,0,0,4.22.86c4.3,0,9.29-2.26,13.69-6.4,3.87-3.66,6.88-10.46,5.1-16.4C62.59,141.53,58.94,136.5,48.13,134.59Z"/><path class="cls-1" d="M113.36,81.37A2.37,2.37,0,1,0,115.73,79,2.37,2.37,0,0,0,113.36,81.37Z"/><polygon class="cls-1" points="54.8 191.93 54.78 191.94 54.14 185 52.88 185.56 52.27 193 52.24 193.01 51.55 186.15 50.28 186.72 51.21 195.4 53 194.6 53.47 189.55 53.49 189.54 53.95 194.18 55.69 193.41 56.61 183.9 55.47 184.41 54.8 191.93"/><path class="cls-1" d="M59.52,182.61l-1.33,9.68,1.2-.53.22-1.75,1.6-.72.23,1.55,1.32-.58-1.33-8.5Zm.26,6.09.61-4.87h0l.62,4.32Z"/><polygon class="cls-1" points="64.81 189.34 66.11 188.76 66.11 179.67 64.81 180.25 64.81 189.34"/><polygon class="cls-1" points="68.13 180.07 69.49 179.46 69.49 187.26 70.8 186.68 70.8 178.88 72.16 178.28 72.16 176.98 68.13 178.77 68.13 180.07"/><polygon class="cls-1" points="81.69 179.96 81.67 179.97 81.03 173.03 79.77 173.59 79.15 181.03 79.13 181.04 78.44 174.18 77.17 174.75 78.1 183.43 79.89 182.63 80.35 177.58 80.37 177.57 80.84 182.21 82.57 181.44 83.5 171.93 82.36 172.44 81.69 179.96"/><polygon class="cls-1" points="88.38 173.65 86.9 174.31 86.9 170.41 85.6 171 85.6 180.09 86.9 179.51 86.9 175.61 88.38 174.95 88.38 178.85 89.71 178.25 89.71 169.16 88.38 169.75 88.38 173.65"/><path class="cls-1" d="M93.09,167.66l-1.33,9.68,1.2-.53.23-1.75,1.6-.72.23,1.55,1.31-.58L95,166.81Zm.26,6.09.62-4.87h0l.61,4.32Z"/><polygon class="cls-1" points="97.55 166.97 98.92 166.36 98.92 174.16 100.22 173.57 100.22 165.78 101.59 165.17 101.59 163.88 97.55 165.67 97.55 166.97"/><polygon class="cls-1" points="103.6 164.35 104.1 164.13 103.76 165.58 104.29 165.35 104.86 163.65 104.86 162.42 103.6 162.98 103.6 164.35"/><path class="cls-1" d="M109.45,164.44c-.85-.44-1.11-.82-1.11-1.48a1.15,1.15,0,0,1,.65-1.19c.42-.18.65,0,.65.61v.38l1.24-.55v-.29c0-1.45-.65-2-1.92-1.43a3.22,3.22,0,0,0-1.93,3.14,2.2,2.2,0,0,0,1.44,2.21c.85.44,1.12.81,1.12,1.48a1.17,1.17,0,0,1-.68,1.18c-.42.18-.68.07-.68-.58v-.65l-1.23.55v.56c0,1.45.66,2,2,1.42a3.24,3.24,0,0,0,1.94-3.16A2.16,2.16,0,0,0,109.45,164.44Z"/><path class="cls-1" d="M118.63,160.35c-.86-.43-1.12-.81-1.12-1.47a1.15,1.15,0,0,1,.65-1.19c.42-.18.66,0,.66.61v.37l1.23-.55v-.28c0-1.46-.65-2-1.92-1.43a3.21,3.21,0,0,0-1.92,3.14,2.17,2.17,0,0,0,1.43,2.2c.86.44,1.12.82,1.12,1.48a1.16,1.16,0,0,1-.68,1.19c-.41.18-.67.06-.67-.59v-.65l-1.24.55v.56c0,1.46.67,2,2,1.42a3.23,3.23,0,0,0,1.94-3.15A2.19,2.19,0,0,0,118.63,160.35Z"/><path class="cls-1" d="M124.1,153.75a3.24,3.24,0,0,0-1.95,3.15v4.73c0,1.45.67,2,1.95,1.42A3.23,3.23,0,0,0,126,159.9v-1.21l-1.23.55v1.3a1.14,1.14,0,0,1-.68,1.18c-.41.19-.67.07-.67-.58v-4.91a1.18,1.18,0,0,1,.67-1.2c.42-.18.68-.05.68.6v1l1.23-.55v-.88C126,153.72,125.38,153.18,124.1,153.75Z"/><polygon class="cls-1" points="131.07 154.64 129.59 155.3 129.59 151.41 128.28 151.99 128.28 161.08 129.59 160.5 129.59 156.6 131.07 155.94 131.07 159.84 132.4 159.25 132.4 150.16 131.07 150.75 131.07 154.64"/><path class="cls-1" d="M136.67,148.15a3.28,3.28,0,0,0-2,3.17v4.73c0,1.45.7,2,2,1.4a3.27,3.27,0,0,0,2-3.17v-4.73C138.65,148.1,138,147.58,136.67,148.15Zm.68,6.8a1.16,1.16,0,0,1-.68,1.2c-.41.19-.67,0-.67-.59v-4.91a1.17,1.17,0,0,1,.67-1.2c.42-.19.68-.06.68.59Z"/><path class="cls-1" d="M142.82,145.41a3.3,3.3,0,0,0-2,3.17v4.73c0,1.45.7,2,2,1.4a3.28,3.28,0,0,0,2-3.16v-4.73C144.8,145.36,144.1,144.84,142.82,145.41Zm.68,6.81a1.15,1.15,0,0,1-.68,1.19c-.41.19-.68.06-.68-.59v-4.91a1.19,1.19,0,0,1,.68-1.2c.42-.18.68-.05.68.6Z"/><polygon class="cls-1" points="148.4 143.03 147.09 143.62 147.09 152.71 150.54 151.17 150.54 149.87 148.4 150.83 148.4 143.03"/><path class="cls-1" d="M153.89,140.49a3.2,3.2,0,0,0-1.92,3.14v.89l1.23-.55v-1a1.15,1.15,0,0,1,.65-1.19c.42-.18.66,0,.66.61a5.52,5.52,0,0,1-.75,2.71,4.84,4.84,0,0,0-.68,2.35,1.71,1.71,0,0,0,.07.52l1.17-.51a2,2,0,0,1,0-.49,4.24,4.24,0,0,1,.66-2.07,6,6,0,0,0,.88-3C155.81,140.46,155.16,139.92,153.89,140.49Z"/><polygon class="cls-1" points="153.09 150.03 154.35 149.47 154.35 148.1 153.09 148.66 153.09 150.03"/></g></g></svg>