<svg xmlns="http://www.w3.org/2000/svg" viewBox="0 0 79.1 57.59"><defs><style>.cls-1,.cls-2,.cls-3{fill:none;stroke:#db4c28;stroke-width:0.5px;}.cls-1,.cls-2{stroke-miterlimit:10;}.cls-2{stroke-linecap:square;}.cls-3{stroke-miterlimit:5;}</style></defs><title>Asset 6</title><g id="Layer_2" data-name="Layer 2"><g id="Layer_1-2" data-name="Layer 1"><rect class="cls-1" x="24.22" y="14.32" width="22.93" height="14.59"/><line class="cls-1" x1="24.22" y1="25.97" x2="47.15" y2="25.97"/><polyline class="cls-1" points="33.73 28.91 31.77 32.3 39.59 32.3 37.63 28.91"/><path class="cls-1" d="M41.56,32.3h4a2,2,0,0,0-4,0Z"/><rect class="cls-1" x="4.16" y="29.78" width="8.54" height="2.52"/><rect class="cls-1" x="14.66" y="21.62" width="7.6" height="10.68" transform="translate(36.92 53.91) rotate(180)"/><circle class="cls-1" cx="18.46" cy="26.1" r="2.39"/><circle class="cls-1" cx="20.46" cy="30.5" r="0.57"/><circle class="cls-1" cx="18.46" cy="26.1" r="1.38"/><rect class="cls-1" x="49.1" y="21.62" width="7.6" height="10.68" transform="translate(105.8 53.91) rotate(180)"/><circle class="cls-1" cx="52.9" cy="26.1" r="2.39"/><circle class="cls-1" cx="54.9" cy="30.5" r="0.57"/><circle class="cls-1" cx="52.9" cy="26.1" r="1.38"/><rect class="cls-1" x="58.66" y="26.15" width="9.84" height="6.15"/><line class="cls-1" x1="64.47" y1="28" x2="68.5" y2="28"/><line class="cls-1" x1="58.66" y1="28" x2="60.78" y2="28"/><circle class="cls-1" cx="62.63" cy="29.22" r="2.21"/><circle class="cls-1" cx="62.63" cy="29.22" r="1.31"/><rect class="cls-1" x="65.88" y="25.24" width="1.74" height="0.91"/><line class="cls-1" x1="66.75" y1="28" x2="66.75" y2="32.3"/><rect class="cls-1" x="71.14" y="31.4" width="3.11" height="0.89"/><rect class="cls-1" x="70.73" y="30.51" width="3.95" height="0.89"/><rect class="cls-1" x="70.46" y="26.14" width="4.48" height="1.79"/><rect class="cls-1" x="70.46" y="25.24" width="4.48" height="0.89"/><rect class="cls-1" x="70.73" y="27.92" width="3.95" height="2.59"/><rect class="cls-1" x="0.25" y="32.3" width="78.6" height="1.82"/><rect class="cls-1" x="64.24" y="44.82" width="23.22" height="1.82" transform="translate(30.12 121.58) rotate(-90)"/><rect class="cls-1" x="-8.36" y="44.82" width="23.22" height="1.82" transform="translate(-42.47 48.98) rotate(-90)"/><circle class="cls-1" cx="59.52" cy="11.79" r="6.62"/><line class="cls-1" x1="59.52" y1="17.01" x2="59.52" y2="18.41"/><line class="cls-1" x1="59.52" y1="5.17" x2="59.52" y2="6.57"/><line class="cls-1" x1="64.74" y1="11.79" x2="66.14" y2="11.79"/><line class="cls-1" x1="52.9" y1="11.79" x2="54.3" y2="11.79"/><line class="cls-1" x1="62.13" y1="16.31" x2="62.83" y2="17.52"/><line class="cls-1" x1="56.21" y1="6.06" x2="56.91" y2="7.27"/><line class="cls-1" x1="64.04" y1="9.18" x2="65.25" y2="8.48"/><line class="cls-1" x1="53.79" y1="15.1" x2="55" y2="14.4"/><line class="cls-1" x1="65.25" y1="15.1" x2="64.04" y2="14.4"/><line class="cls-1" x1="53.79" y1="8.48" x2="55" y2="9.18"/><line class="cls-1" x1="62.11" y1="7.32" x2="62.83" y2="6.06"/><line class="cls-1" x1="56.21" y1="17.52" x2="56.91" y2="16.31"/><polyline class="cls-1" points="61.3 12.82 59.52 11.79 59.52 8.12"/><rect class="cls-1" x="33.78" y="-2.44" width="10.68" height="16.06" transform="translate(44.7 -33.53) rotate(90)"/><rect class="cls-1" x="32.08" y="1.25" width="14.06" height="8.68"/><circle class="cls-1" cx="5.51" cy="31.04" r="0.44"/><circle class="cls-1" cx="7.22" cy="31.04" r="0.44"/><rect class="cls-1" x="5.12" y="28.89" width="6.62" height="0.89"/><rect class="cls-1" x="6.12" y="38.54" width="7.82" height="18.79"/><line class="cls-1" x1="6.12" y1="48.13" x2="13.94" y2="48.13"/><line class="cls-1" x1="13.94" y1="39.5" x2="6.12" y2="39.5"/><line class="cls-2" x1="7.33" y1="40.69" x2="10.63" y2="40.69"/><line class="cls-2" x1="7.33" y1="41.64" x2="10.63" y2="41.64"/><line class="cls-2" x1="7.33" y1="42.83" x2="12.73" y2="42.83"/><rect class="cls-1" x="7.33" y="44.02" width="5.4" height="0.98"/><rect class="cls-1" x="7.33" y="45.96" width="5.4" height="0.98"/><circle class="cls-1" cx="12.26" cy="41.17" r="0.47"/><rect class="cls-1" x="4.16" y="34.12" width="52.69" height="2.47"/><rect class="cls-1" x="56.86" y="34.12" width="18.08" height="11.02"/><line class="cls-1" x1="56.86" y1="39.63" x2="74.94" y2="39.63"/><line class="cls-1" x1="64.37" y1="36.87" x2="67.43" y2="36.87"/><line class="cls-1" x1="64.37" y1="42.38" x2="67.43" y2="42.38"/><path class="cls-3" d="M32.08,7.44s.56,0,1.21,1a1.21,1.21,0,0,1,.06,1.51"/><path class="cls-3" d="M35,9.93a3.44,3.44,0,0,0-.52-2.86,5.69,5.69,0,0,0-2.43-2.25"/><path class="cls-3" d="M36.72,9.93s.5-3.87-4.64-8.68"/><path class="cls-3" d="M38.21,9.93s1-1.28-.27-3.41a21.55,21.55,0,0,1-2.26-5.27"/><path class="cls-3" d="M39.69,9.93a3.65,3.65,0,0,0,0-4c-1.83-2.67-.42-3.3,1-4.67"/><path class="cls-3" d="M41.17,9.93s1.77-2.36.42-4.45c-2-3.13,4.56-4.23,4.56-4.23"/><path class="cls-3" d="M43,9.93a4.94,4.94,0,0,0,.49-3.87c-.81-2.86,1.76-2.29,2.66-1.87"/><path class="cls-3" d="M44.57,9.93A2.29,2.29,0,0,0,45,7.65c-.41-1.38.38-1.76,1.17-1.16"/></g></g></svg>