<svg xmlns="http://www.w3.org/2000/svg" viewBox="0 0 118.58 73.04"><defs><style>.cls-1{fill:none;stroke:#000;stroke-miterlimit:10;stroke-width:0.5px;}</style></defs><title>Asset 5</title><g id="Layer_2" data-name="Layer 2"><g id="Layer_1-2" data-name="Layer 1"><rect class="cls-1" x="36.25" y="21.39" width="34.45" height="21.92"/><line class="cls-1" x1="36.25" y1="38.89" x2="70.7" y2="38.89"/><polyline class="cls-1" points="50.54 43.31 47.6 48.39 59.34 48.39 56.41 43.31"/><path class="cls-1" d="M62.31,48.39h5.94a3,3,0,0,0-5.94,0Z"/><rect class="cls-1" x="6.13" y="44.6" width="12.83" height="3.79"/><rect class="cls-1" x="21.89" y="32.35" width="11.42" height="16.04" transform="translate(55.21 80.74) rotate(180)"/><circle class="cls-1" cx="27.6" cy="39.09" r="3.6"/><circle class="cls-1" cx="30.6" cy="45.68" r="0.85"/><circle class="cls-1" cx="27.6" cy="39.09" r="2.07"/><rect class="cls-1" x="73.63" y="32.35" width="11.42" height="16.04" transform="translate(158.69 80.74) rotate(180)"/><circle class="cls-1" cx="79.34" cy="39.09" r="3.6"/><circle class="cls-1" cx="82.35" cy="45.68" r="0.85"/><circle class="cls-1" cx="79.34" cy="39.09" r="2.07"/><rect class="cls-1" x="87.99" y="39.15" width="14.79" height="9.24"/><line class="cls-1" x1="96.72" y1="41.94" x2="102.78" y2="41.94"/><line class="cls-1" x1="87.99" y1="41.94" x2="91.17" y2="41.94"/><circle class="cls-1" cx="93.95" cy="43.77" r="3.33"/><circle class="cls-1" cx="93.95" cy="43.77" r="1.97"/><rect class="cls-1" x="98.84" y="37.79" width="2.61" height="1.36"/><line class="cls-1" x1="100.14" y1="41.94" x2="100.14" y2="48.39"/><rect class="cls-1" x="106.75" y="47.05" width="4.67" height="1.34"/><rect class="cls-1" x="106.12" y="45.71" width="5.93" height="1.34"/><rect class="cls-1" x="105.72" y="39.13" width="6.73" height="2.68"/><rect class="cls-1" x="105.72" y="37.79" width="6.73" height="1.34"/><rect class="cls-1" x="106.12" y="41.82" width="5.93" height="3.89"/><rect class="cls-1" x="0.25" y="48.39" width="118.08" height="2.73"/><rect class="cls-1" x="106.13" y="60.59" width="21.67" height="2.73" transform="translate(55 178.92) rotate(-90)"/><rect class="cls-1" x="-6.07" y="60.59" width="21.67" height="2.73" transform="translate(-57.2 66.72) rotate(-90)"/><circle class="cls-1" cx="89.29" cy="17.59" r="9.94"/><line class="cls-1" x1="89.29" y1="25.43" x2="89.29" y2="27.53"/><line class="cls-1" x1="89.29" y1="7.65" x2="89.29" y2="9.75"/><line class="cls-1" x1="97.13" y1="17.59" x2="99.23" y2="17.59"/><line class="cls-1" x1="79.34" y1="17.59" x2="81.44" y2="17.59"/><line class="cls-1" x1="93.21" y1="24.38" x2="94.26" y2="26.2"/><line class="cls-1" x1="84.31" y1="8.98" x2="85.36" y2="10.8"/><line class="cls-1" x1="96.08" y1="13.67" x2="97.9" y2="12.62"/><line class="cls-1" x1="80.68" y1="22.56" x2="82.49" y2="21.51"/><line class="cls-1" x1="97.9" y1="22.56" x2="96.08" y2="21.51"/><line class="cls-1" x1="80.68" y1="12.62" x2="82.49" y2="13.67"/><line class="cls-1" x1="93.17" y1="10.86" x2="94.26" y2="8.98"/><line class="cls-1" x1="84.31" y1="26.2" x2="85.36" y2="24.38"/><polyline class="cls-1" points="91.96 19.13 89.29 17.59 89.29 12.07"/><rect class="cls-1" x="50.61" y="-3.79" width="16.04" height="24.13" transform="translate(66.9 -50.36) rotate(90)"/><rect class="cls-1" x="48.07" y="1.75" width="21.12" height="13.04"/><circle class="cls-1" cx="8.15" cy="46.5" r="0.67"/><circle class="cls-1" cx="10.71" cy="46.5" r="0.67"/><rect class="cls-1" x="7.57" y="43.27" width="9.95" height="1.33"/><path class="cls-1" d="M48.07,7.55s5.2-2.93,9.13-.21,7.66,4.16,11.89,2.35"/><path class="cls-1" d="M69.19,4.53c-6,7.14-12,2.81-12,2.81S53,4.13,48.07,12"/></g></g></svg>