<?xml version="1.0" encoding="utf-8"?>
<!-- Generator: Adobe Illustrator 21.0.2, SVG Export Plug-In . SVG Version: 6.00 Build 0)  -->
<svg version="1.1" id="Layer_1" xmlns="http://www.w3.org/2000/svg" xmlns:xlink="http://www.w3.org/1999/xlink" x="0px" y="0px"
	 viewBox="0 0 2000 2000" style="enable-background:new 0 0 2000 2000;" xml:space="preserve">
<style type="text/css">
	.st0{fill:#333333;}
	.st1{fill:#AFCFDB;}
</style>
<g>
	<path class="st0" d="M1000,2000C448.6,2000,0,1551.4,0,1000S448.6,0,1000,0s1000,448.6,1000,1000S1551.4,2000,1000,2000z
		 M1000,31.7C466.1,31.7,31.7,466.1,31.7,1000s434.4,968.3,968.3,968.3s968.3-434.4,968.3-968.3S1533.9,31.7,1000,31.7z"/>
</g>
<path class="st1" d="M1000,169.6c-457.9,0-830.4,372.5-830.4,830.4s372.5,830.4,830.4,830.4s830.4-372.5,830.4-830.4
	S1457.9,169.6,1000,169.6z"/>
</svg>
