<svg xmlns="http://www.w3.org/2000/svg" viewBox="0 0 2948.23 2948.23"><defs><style>.cls-1{fill:#efe8e4;}.cls-2{fill:#7a625e;}.cls-3{fill:#634e4b;}.cls-4{fill:#99817f;}.cls-5{fill:#e8e8e8;}.cls-6{fill:#cecece;}.cls-7{fill:#c6afb6;}.cls-19,.cls-8,.cls-9{fill:#333;}.cls-8{opacity:0.7;}.cls-9{opacity:0.25;}.cls-10{fill:#423836;}.cls-11,.cls-18{fill:#fff;}.cls-12{opacity:0.15;}.cls-13{fill:#f9e26e;}.cls-14{fill:#a38f47;}.cls-15{fill:#ccb554;}.cls-16{fill:#e2c759;}.cls-17{fill:#efbdd2;}.cls-18{opacity:0.3;}</style></defs><title>cowlick</title><g id="Layer_2" data-name="Layer 2"><g id="Title"><rect class="cls-1" width="2948.23" height="2948.23"/><path id="Outline_stroke_" data-name="Outline (stroke)" class="cls-2" d="M1210.23,1430.32l86,104.12,40.24,89.67,46.45-23.93c-34.65,64.08-70.08,159.52-79.45,220.39a5.77,5.77,0,0,1-1,2.57c-1.39,1.88-4,2.78-7.67,2.78-19.22,0-67.64-24.58-124.56-63.07a30,30,0,0,1-48.3-34.58c-41.85-31.61-77.08-62.65-99.76-87h0c-.69-.73-1.36-1.46-2-2.19l0,0c-.66-.71-1.3-1.43-1.94-2.13l0,0-1.84-2.07-.07-.07-1.74-2-.09-.11c-.56-.64-1.11-1.29-1.65-1.92a1.34,1.34,0,0,0-.11-.14c-.53-.62-1.05-1.24-1.55-1.85l-.13-.17c-.5-.6-1-1.19-1.46-1.78l-.15-.19c-.46-.58-.92-1.15-1.36-1.72a1.84,1.84,0,0,1-.17-.22c-.43-.55-.86-1.09-1.27-1.63l-.19-.26-1.17-1.56-.2-.28c-.37-.5-.73-1-1.08-1.49l-.21-.31c-.34-.47-.67-.95-1-1.41l-.23-.34-.89-1.34-.23-.35c-.28-.43-.55-.85-.81-1.27l-.23-.38c-.25-.4-.5-.8-.73-1.19l-.23-.41c-.22-.37-.44-.75-.64-1.12l-.22-.41c-.2-.36-.39-.71-.57-1.06l-.21-.43-.49-1-.2-.45-.41-.92c-.07-.15-.13-.3-.19-.45l-.34-.85c-.06-.16-.11-.31-.16-.46s-.19-.53-.27-.79-.1-.31-.14-.47-.15-.49-.21-.72-.07-.31-.1-.47-.11-.45-.15-.66,0-.31-.07-.47-.07-.41-.09-.6,0-.31,0-.47,0-.36,0-.54,0-.31,0-.46,0-.33,0-.48,0-.31.06-.46,0-.29.07-.43.08-.3.12-.45.06-.25.1-.36.14-.32.21-.48l.12-.27a7.57,7.57,0,0,1,.42-.67h0a5.15,5.15,0,0,1,.53-.61,6,6,0,0,1,1.4-1c88.85-44.64,154-107.36,212.35-164.1m2.42-44.2-23.33,22.7c-25.85,25.14-58,56.43-92.8,84.86-37.64,30.76-74.31,54.94-112.11,73.93l-.34.17-.34.18a36.16,36.16,0,0,0-8.35,6.14c-.53.52-1,1.07-1.55,1.63l-.71.72-.67.91-1.24,1.45-1,1.71c-.44.71-.86,1.44-1.25,2.17s-.7,1.4-1,2.11-.67,1.51-1,2.57l0,.1,0,.1c-.3.84-.51,1.57-.67,2.12s-.39,1.44-.6,2.43-.31,1.66-.39,2.24-.19,1.32-.27,2.22-.1,1.53-.11,2.09,0,1.09,0,1.82v.28c0,.74.06,1.33.09,1.81s.07,1.09.15,1.83.18,1.41.24,1.75.14.94.23,1.42l0,.1v.09c.14.74.28,1.34.37,1.71s.19.86.3,1.29h0c.19.74.37,1.34.48,1.7s.22.77.34,1.15c.18.54.36,1.08.55,1.61l0,.08c.12.35.23.66.35,1q.28.75.6,1.5l0,.1,0,.13v0c.1.26.2.49.3.72v0l0,0q.35.8.72,1.62.18.4.39.84l.75,1.53,0,0c.11.23.23.46.35.69.29.56.58,1.11.88,1.66l.36.66c.3.53.61,1.08.93,1.63l.34.59,1,1.59c.11.18.21.36.33.54l0,0,0,0,1,1.63c.13.2.24.36.35.54l1.16,1.73,0,0,.23.34,0,0,0,0c.38.56.78,1.13,1.19,1.7l.33.48c.42.59.85,1.19,1.3,1.79l.25.35h0c.44.6.9,1.21,1.36,1.82l.31.42,1.46,1.88,0,0,.2.26c.51.65,1,1.31,1.57,2l0,.06.09.11.05.06,1.65,2,0,0,0,0,.13.16c.55.66,1.11,1.34,1.69,2l0,0,.16.19c.6.7,1.2,1.41,1.82,2.12l0,0,.08.09.07.09,2,2.23.11.12,0,0c.61.7,1.24,1.4,1.88,2.11a2.85,2.85,0,0,0,.23.26c.66.74,1.33,1.48,2,2.22l0,0,0,0,.06.07.4.44,0,0,1.66,1.79c21.69,23.27,52.63,50.83,88.29,78.69a60.35,60.35,0,0,0,2.38,18.56,59.92,59.92,0,0,0,78.62,39.38c23,15,44.77,27.69,63.58,37.22,36,18.23,52.44,20.34,61.7,20.34,18,0,27.64-9.34,31.77-14.91a35.71,35.71,0,0,0,6.55-15.64v-.12l0-.12c8.43-54.72,41.89-147.26,76.19-210.68l46.19-85.4-86.32,44.46-18.3,9.43-27.28-60.78-1.66-3.7-2.58-3.12-86-104.12-20.72-25.1Z"/><g id="Brown"><path class="cls-2" d="M1234.89,625.48l5.18-.35Z"/><path class="cls-2" d="M1248.4,624.62q10.69-.61,22.19-1.07Q1259.09,624,1248.4,624.62Z"/><path class="cls-2" d="M1241.66,625l5.71-.35Z"/><path class="cls-2" d="M1227.29,626l6.08-.45Z"/><path class="cls-2" d="M1271.08,623.53q3.74-.15,7.54-.27Q1274.81,623.38,1271.08,623.53Z"/><path class="cls-2" d="M1481.74,593.53a177.6,177.6,0,0,0-36.61,25l.29-.19a177.35,177.35,0,0,1,36.4-24.77,90.13,90.13,0,0,0-10.17.27A91.09,91.09,0,0,1,1481.74,593.53Z"/><path class="cls-2" d="M1330.36,622.58s32.34,1.51,56.83-.39c-24.48,1.89-56.76.38-56.76.38-18.34-.1-35.53.16-51.61.68Q1302.91,622.47,1330.36,622.58Z"/><path class="cls-2" d="M1220.86,626.56l6.11-.5Z"/><path class="cls-2" d="M1512.8,611.84a104.87,104.87,0,0,0-32.72,16.08h.08a105.13,105.13,0,0,1,32.72-16.08,74.65,74.65,0,0,0-32.46-4.84A74.61,74.61,0,0,1,1512.8,611.84Z"/><path class="cls-2" d="M1215,627.07l3.76-.33Z"/><path class="cls-2" d="M1186.25,630.08l1.17-.14Z"/><path class="cls-2" d="M1926.68,1161.89l0,.07c-13.57-26.94-41-46.53-73.64-50.65h0c-115.36-18.16-110.66-91.29-110.66-91.29,127.54,16.06,198.51-46.93,198.51-46.93,156.85-129.68,77.81-208.72,77.81-208.72-219.41-71.49-284.16,38-284.41,38.39-15.26-49.93-46.74-70.31-46.74-70.31q-5.94-.29-11.47-.85S1808.49,630,1755.33,444.36c0,0-5.37-29.42-24.56-11.74S1724.59,598,1576.66,656.2c0,0-24.4.56-44.37-16.08-16.27-13.56-40.63-13.13-49.1-12.5,8.54-.62,32.81-1,49,12.5a64.63,64.63,0,0,0,10,6.86,136,136,0,0,0,12.88,38.2c9.59,18.63,21.56,33.94,35.39,45.44-14.82,10-29.13,28.76-33,64.06,0,0,8.32-19,35.8-23.81,0,0-41.8,58.62,29.33,145.19,0,0,28.78,33.63,24.56,77.3,0,0,13.83-7,12.9-19,0,0,26.45,37.34,84.26,61.64,5.76,22.58,27.49,62.54,108.57,75.33h0a102.38,102.38,0,0,0-41.25,3.24A529.06,529.06,0,0,1,1669.09,1134c-43.86,0-83.77-4.43-124.29-14.41a153.28,153.28,0,0,0-42.37-5.63,169.25,169.25,0,0,0-26.83,2.13l-1.59.27c42.31-32.93,26.79-77.13,26.79-77.13,12.63,1.2,15.54,20.4,16.2,30a239.72,239.72,0,0,0-8.17-54.09c-3.21-12.05-4.53-14.06-4.53-14.06-5.57-15.84-18.18-25.56-23.37-29-.78-.46-1.55-.94-2.3-1.44,0,0,.87.48,2.3,1.44,21.69,12.83,54.28,12.19,54.28,12.19s-67.45-27.9-117.61-65.31c-31.67-23.61-79.46-66.77-79.46-66.77,18.76-4.41,51.32,7.8,51.32,7.8-12.14-23.66-61.8-36.49-61.8-36.49,19.86-3.31,58.32,9.93,58.32,9.93s-23-23.18-54.46-26.49-44.33-25.15-44.33-25.15c-39.86-49.19-74.63-52.58-114.49-51s-28-31.27-28-31.27c-22,20.35-23.75,31.27-23.75,31.27-4.24-39.12,26.29-56.72,27.14-68.59s-16.62-23.14-16.86-23.3c-22.59,4.63-33.52,8.44-33.52,8.44C914.15,630.33,911.85,393.69,872,394c-17.48.14-18.13,17.16-18.13,17.16-37.85,304.18,182.23,353.7,182.23,353.7l2.94,33.41c3,33.41-9.35,42.76-9.35,42.76-19.8-33.68-64.67-75-163-112.39C773.34,693.1,711.83,686,672.19,689.31c-51,4.21-65.85,25.58-65.85,25.58a75.83,75.83,0,0,0-5.84,12.92h.06c-11.41,31.55-25.44,116.83,100.9,211.59,0,0,108.7,85.91,206.61,85.39,0,0,139.87-6.66,187.76,45.67,0,0,33.06,32.11,35.81,163s79.89,198.67,79.89,198.67,39.83,33.23,82.65,63.36c39.61,27.88,46.83,55.1,46.83,55.1s34.5,111.12,267.87,91.81c302.88-25.06,293.95-172.21,293.95-172.21h0c46.83-38.47,76.4-95,76.4-158a202.34,202.34,0,0,0-22.45-91.77Z"/><path class="cls-2" d="M1181.93,630.62l.54-.07Z"/><path class="cls-2" d="M1191.08,629.51l1.29-.15Z"/><path class="cls-2" d="M1209.29,627.59l3.09-.29Z"/><path class="cls-2" d="M1203.83,628.13l2.68-.27Z"/></g><g id="Shadows"><path class="cls-3" d="M1132.27,1237.23c-.07-1.27-.15-2.52-.21-3.8C1132.06,1233.43,1132.06,1234.75,1132.27,1237.23Z"/><path class="cls-3" d="M1903.25,1470.16a227.65,227.65,0,0,1-81.12,42.56l0-.09a637.53,637.53,0,0,1-420.93-21.91h0c-244.46-90.77-266.85-228.93-268.9-253.48,7.28,128.25,79.68,194.88,79.68,194.88s39.83,33.23,82.65,63.37c39.61,27.88,46.83,55.09,46.83,55.09s34.5,111.12,267.87,91.81C1911.66,1617.37,1903.28,1470.67,1903.25,1470.16Z"/><polygon class="cls-3" points="1903.25 1470.16 1903.25 1470.16 1903.25 1470.16 1903.25 1470.16"/><path class="cls-3" d="M1028.31,845.56c-2.73.58-2.13,14.67-.81,29.22,10.26,113.56-119.43,150-119.43,150s139.86-6.66,187.76,45.67c-13.29-56.18-14.43-104.28-24.46-138.62C1060.41,894.31,1033.58,844.44,1028.31,845.56Z"/></g><g id="Ear_Highlights" data-name="Ear Highlights"><path class="cls-4" d="M1999.7,759.23c-141-40.94-213.69-4.48-245.3,22.16,4.27,17.47,6.15,62,6.35,82.34C1783.5,718,1944.39,745.32,1999.7,759.23Z"/><path class="cls-4" d="M2019.76,766.28c-9.77,19.21-36.65,53.19-91.35,59.53,0,0-51.54,5.23-66.77,71.23,0,0-15.16-15-4.32-37.61,0,0-30.82,42.57-22.34,79.17,0,0-27.23-26.34-22.26-46.55,0,0-27.17,8.62-22.13,77.17,0,0,.84,31.5,28.5,53.4-7.2.58-14.68,1.16-22.48,1.48,99.47.05,144.24-50.32,144.24-50.32C2086.42,853.42,2028.8,776.69,2019.76,766.28Z"/><path class="cls-4" d="M600.5,727.81h0v0Z"/><path class="cls-4" d="M600.51,727.78c.12-.35.25-.69.38-1C600.76,727.09,600.63,727.43,600.51,727.78Z"/><path class="cls-4" d="M856.4,954.4s13.42-79.64-13.85-103.19c0,0,4.66,26.53-15.77,50.32,0,0,8.4-49-51.33-94.13-93-70.17-138.34-71.74-175-79.59C589.09,759.33,575,844.63,701.38,939.41c0,0,38.81,31.55,93.58,56.49,32.23,8.91,60.42,12.92,85,13.34,16.29-27.06,35.2-86.31.23-125.71C880.23,883.53,882.51,929.56,856.4,954.4Z"/><path class="cls-4" d="M601.06,726.28l.55-1.41Z"/><path class="cls-4" d="M600.89,726.75c.05-.15.11-.32.17-.47C601,726.43,600.94,726.6,600.89,726.75Z"/></g><path id="White" class="cls-1" d="M1744.35,1036c-57.81-24.3-84.26-61.64-84.26-61.64.93,12-12.9,19-12.9,19,4.22-43.67-24.56-77.3-24.56-77.3-71.13-86.57-29.33-145.19-29.33-145.19-27.48,4.76-35.8,23.81-35.8,23.81,3.89-35.3,18.2-54.08,33-64.06-13.83-11.5-25.8-26.81-35.39-45.44a136,136,0,0,1-12.88-38.2,64.63,64.63,0,0,1-10-6.86c-20-16.64-52.13-12.2-52.13-12.2a104.87,104.87,0,0,1,32.72-16.08c-37.72-14.43-67.67,6.65-67.67,6.65a177.6,177.6,0,0,1,36.61-25c-36.61-1.11-67.84,21.38-67.84,21.38-4.82,11.35-83.54,7.67-83.54,7.67-97.8-.52-163.19,8.9-199.13,16.26h0s17.72,11.44,16.87,23.31-31.38,29.47-27.14,68.59c0,0,1.7-10.92,23.75-31.27,0,0-11.88,32.86,28,31.27s74.63,1.8,114.49,51c0,0,12.87,21.84,44.33,25.15S1386,833.37,1386,833.37s-38.46-13.24-58.32-9.93c0,0,49.66,12.83,61.8,36.49,0,0-32.56-12.21-51.32-7.8,0,0,47.79,43.16,79.46,66.77,50.16,37.41,117.61,65.31,117.61,65.31s-32.59.64-54.28-12.19c5.19,3.46,17.8,13.18,23.37,29,0,0,1.32,2,4.53,14.06a239.72,239.72,0,0,1,8.17,54.09c-.66-9.59-3.57-28.79-16.2-30,0,0,15.52,44.2-26.79,77.13l1.59-.27a169.25,169.25,0,0,1,26.83-2.13,153.28,153.28,0,0,1,42.37,5.63c40.52,10,80.43,14.41,124.29,14.41a529.06,529.06,0,0,0,142.58-19.42,102.38,102.38,0,0,1,41.25-3.24C1771.84,1098.52,1750.11,1058.56,1744.35,1036Z"/><path class="cls-5" d="M1036,764.89S816,715.37,853.81,411.19c0,0,.65-17,18.13-17.16,39.83-.33,42.13,236.31,225.7,253.27C1097.64,647.3,1097.91,716.85,1036,764.89Z"/><path class="cls-5" d="M1755.25,444.36s-5.36-29.41-24.55-11.73-6.21,165.12-153.8,223.45c7.55,20,23.46,49.17,55,64.72,12,5.15,26.48,9.06,44.1,10.8C1676,731.6,1808.41,630,1755.25,444.36Z"/><path class="cls-6" d="M860.74,389.57s-40.32,229,216.55,327.57c0,0-5.34,10.79-18.56,26.34-8.57,10.27-22.62,21.4-22.62,21.4l-93.79-5.45L853.1,585.29,835.18,446.14l9.43-38.67Z"/><path class="cls-6" d="M1730.77,432.62l-2.34-5.65-15.84,10-7.92,21.6-19.08,68L1651,590.34,1576.87,656c5.1,13.51,14,31.26,29.06,46.15C1731.38,632.84,1730.77,432.62,1730.77,432.62Z"/><path class="cls-7" d="M1362.72,1473.49l-.16-.08c-.08-.05-.16-.08-.24-.12Z"/><path class="cls-7" d="M1956.73,1220.45l-30.1-58.52.13.3c-15.27-30.54-48.3-51.69-86.61-51.69a101.27,101.27,0,0,0-28.46,4A529,529,0,0,1,1669.12,1134c-43.86,0-83.77-4.43-124.29-14.41a153.33,153.33,0,0,0-42.37-5.63c-73.16,0-134.7,46.74-152.57,110.15l-42.14,132.71a97.36,97.36,0,0,0-3.43,25.67c0,39.4,23.59,73.63,58.24,90.92,83.45,41.47,178.6,65,279.6,65a634.44,634.44,0,0,0,179.46-25.7l0,.09c91.23-26.43,157.52-106.22,157.52-200.55A202.3,202.3,0,0,0,1956.73,1220.45Z"/><g id="Nostrils"><path class="cls-8" d="M1528.42,1206.94l-48.46-22.7h0a9.33,9.33,0,0,0-4-.92c-4.85,0-8.78,3.66-8.78,8.18a8,8,0,0,0,3.19,6.3l39.05,24.71a23.11,23.11,0,0,1,9.87,19.4,19.92,19.92,0,0,1-1.91,9.3c-12.26,23.32-38,39.37-67.76,39.37-1.77,0-3.53,0-5.26-.15l-.87,0c-9.68,0-17.52,7.31-17.52,16.31A14.46,14.46,0,0,0,1429,1316c14.36,17.5,37,28.79,62.49,28.79,43.41,0,78.59-32.76,78.59-73.18C1570.1,1243.57,1553.22,1219.25,1528.42,1206.94Z"/><path class="cls-8" d="M1899.64,1272.53c-.5-8.1-8-14.3-16.66-13.84l-.78.06c-1.56.18-3.14.3-4.73.38-26.78,1.41-50.83-11.81-63.14-32.22a18.06,18.06,0,0,1-2.23-8.28,20.63,20.63,0,0,1,7.82-17.92l33.79-24.1a7.07,7.07,0,0,0,2.53-5.82,7.72,7.72,0,0,0-8.35-6.94,8.27,8.27,0,0,0-3.59,1h0l-42.37,22.73c-21.65,12.26-35.52,35-34,60.14,2.21,36.38,35.67,64.2,74.74,62.14,22.93-1.21,42.7-12.45,54.67-28.88A13.05,13.05,0,0,0,1899.64,1272.53Z"/></g><path id="Divide" class="cls-9" d="M1654.46,1194.82s12.18-7.51,22.76,5.25c10.86,13.12,14.65,31.45,15.37,42.89.79,12.43,12.45,113.85-2.06,137.71-22.66,37.27-5.87-9-5.87-9s13.73-66.93-7.12-113.81c0,0-7-11.63-16.54-15.91C1654.52,1239.05,1625.32,1215.57,1654.46,1194.82Z"/><path class="cls-10" d="M1729.5,857.16s8.15-1.32,10-12.72c2.29-14.3-21.82-17.47-21.82-17.47-68.85-8.81-100.77,34-100.77,34s38.45-26.54,112.58-3.84"/><path id="White-2" data-name="White" class="cls-11" d="M1701.55,932c19.61-18.58,32.4-47,28-74.82-73.92-22.65-112.37,3.67-112.59,3.82C1645.58,872.08,1680.12,897.85,1701.55,932Z"/><path id="Left" class="cls-10" d="M1281.64,896.11h0l-.16-.12,0,0h0c-22.93-17-51.32-25.24-80.55-21-41.09,6-73.56,35.17-88.08,73.86a9.65,9.65,0,0,0-.65,4.8c.86,5.88,4.49,5.73,6.83,5.6,4-.23,7-4.62,7-4.62h0c26-37.61,71.51-56.79,108.27-47.28h0c-18.39,9.39-36.22,27.22-32.36,53.5,15.52-24.89,36.26-33.5,36.26-33.5a87.53,87.53,0,0,1,37-7.47l0-.07,0,.07a12.69,12.69,0,0,0,1.62-.1c6.54-1,11-7.52,10-14.66A13.75,13.75,0,0,0,1281.64,896.11Z"/><path class="cls-12" d="M1135.54,1500.67h0q8.76-7.93,17.25-15.91Q1144.32,1492.73,1135.54,1500.67Z"/><path id="Outline" class="cls-2" d="M2027.81,1600.77v-.19a239.51,239.51,0,0,0-28.66-104.93,222.48,222.48,0,0,0-57-67.63c-.14.21-6.08,8.94-19,23.2h0c44.15,34.59,72.24,88.76,74.73,150.57q.23,6.63.22,13.3c0,132.44-59.34,257.23-151.53,316.75-40.76,25.6-79.12,34.26-127.26,34.26-91.75,0-169.25-60.78-194.56-144.26a106,106,0,0,1-4.26-29.83c0-24.07,6.5-46.61,20-64.4,25.69-34.47,56-62.86,89.29-87.32-17.59,1.59-38.28,3.26-52.7,4a420.1,420.1,0,0,0-60.56,65.3c-17,22.48-26.06,51-26.06,82.44a136.07,136.07,0,0,0,5.47,38.27l0,.13,0,.14a233,233,0,0,0,223.27,165.55c57,0,99.85-11.62,143.22-38.85l.16-.1.15-.11c49.84-32.18,91.73-81.73,121.14-143.3,28.86-60.45,44.12-129.14,44.12-198.65C2028.05,1610.34,2028,1605.52,2027.81,1600.77Z"/><path id="Outline-2" data-name="Outline" class="cls-2" d="M872.09,394c39.75,0,42.19,236.32,225.62,253.27,0,0,70.92-24.74,225-24.74l7.77,0s12.17.57,27.24.57c23.24,0,53.38-1.35,56.3-8.24,0,0,29.75-21.42,65.21-21.41.87,0,1.75,0,2.63,0a177.12,177.12,0,0,0-36.61,25,76.51,76.51,0,0,1,40.71-11.71,74.94,74.94,0,0,1,27,5.05,105.13,105.13,0,0,0-32.72,16.08,80.31,80.31,0,0,1,9.81-.53c11.09,0,29.3,1.89,42.33,12.74,18.72,15.6,41.34,16.08,44.09,16.08h.28c147.93-58.25,134.91-205.9,154.11-223.58,4.43-4.08,8.13-5.65,11.19-5.65,10.19,0,13.36,17.39,13.36,17.39,53.16,185.6-79.21,287.24-79.21,287.24q5.52.55,11.47.85s31.48,20.38,46.73,70.31c.19-.32,37-62.62,149.2-62.62,36.6,0,81.23,6.64,135.21,24.23,0,0,79,79-77.8,208.72,0,0-55.83,49.55-157.45,49.55a327.48,327.48,0,0,1-41.06-2.62s-4.7,73.13,110.65,91.29h0c32.65,4.12,60.07,23.71,73.64,50.64l0-.06,30.11,58.52a202.3,202.3,0,0,1,22.45,91.77c0,63-29.58,119.52-76.41,158h0s8.93,147.16-293.94,172.22c-18.66,1.55-36,2.26-52.24,2.26-186.42,0-215.64-94.07-215.64-94.07s-7.22-27.21-46.83-55.09c-42.82-30.14-82.64-63.37-82.64-63.37s-77.14-67.82-79.89-198.67-35.81-163-35.81-163c-38.17-41.71-134.75-45.94-172.4-45.94-9.6,0-15.36.27-15.36.27h-.88c-97.68,0-205.73-85.41-205.73-85.41-159.78-119.83-95.05-224.51-95.05-224.51s18.25-26.3,83.89-26.3c39.52,0,96.21,9.53,176.44,40.07,98.28,37.41,143.15,78.71,163,112.39,0,0,12.3-9.35,9.35-42.76l-3-33.41S816,715.36,853.88,411.18c0,0,.65-17,18.13-17.16h.08m0-30h-.37c-18.09.15-33.28,9-41.64,24.19A51.27,51.27,0,0,0,824,408.27c-9,73.44-4.4,139.29,13.82,195.72,12.69,39.31,31.9,74.07,57.21,103.6q-8.62-3.54-17.62-7c-73.28-27.89-136.23-42-187.12-42-77.42,0-104,32.65-108.53,39.2l-.46.65-.41.67c-2.2,3.55-21.33,36.14-16.76,85.85,2.63,28.53,12.55,57,29.5,84.52,20.08,32.65,50.21,64.18,89.55,93.73a548.14,548.14,0,0,0,70.16,45.25c56.5,30.75,108.26,46.35,153.84,46.35h1.67l.64,0s5.3-.24,13.93-.24c16.41,0,48.68.89,80.5,6.82,33.35,6.22,58.12,16.65,69.76,29.37l.24.26c.91,1.18,6.76,9.28,12.83,29s13.66,55.8,14.88,114c3,142.4,86.52,217.45,90.08,220.57l.29.26.3.25c1.67,1.39,41.27,34.36,84.6,64.86,26.64,18.75,34,35.62,35.18,38.66l.22,1.11,0-.31c1,3.34,11.2,33.43,48.29,61.92,20.64,15.86,45.84,28.39,74.92,37.25,34.86,10.61,75.6,16,121.08,16,17.41,0,35.82-.8,54.71-2.36,72.19-6,133.67-19.32,182.73-39.67,41.14-17.06,74-39.19,97.73-65.76,28.9-32.38,37.58-63.73,40.08-82.18a239.14,239.14,0,0,0,53.59-71,227.21,227.21,0,0,0,23.75-101.49,232.28,232.28,0,0,0-25.76-105.46l-30.12-58.55h0a122.07,122.07,0,0,0-39.19-44.73,129.16,129.16,0,0,0-57-21.85c-31.24-5-54.85-14.91-69.26-29,44.33-.6,87.46-10.09,125-27.54,27.91-13,44-26.19,47.38-29.1,69.17-57.26,105.57-114.22,108.17-169.28,2.42-51-25.38-80.36-28.55-83.53l-5.09-5.09-6.83-2.22c-52.34-17.06-101-25.7-144.51-25.71-28.55,0-55.24,3.71-79.33,11a201.79,201.79,0,0,0-54,25.24q-3.37,2.26-6.43,4.52a165.28,165.28,0,0,0-19-25.32,303.84,303.84,0,0,0,37.42-54,293.26,293.26,0,0,0,33-100.2c6-43.17,2.38-88.35-10.64-134.3a70,70,0,0,0-4.91-14.39,49.75,49.75,0,0,0-10.64-14.93A39.25,39.25,0,0,0,1742,397c-11.12,0-21.73,4.57-31.52,13.58-11.78,10.85-15.22,26.51-20.43,50.2-5.35,24.36-12.69,57.72-30.77,89a172.8,172.8,0,0,1-60.89,62.41l-48.44-18.39,54.73-26.58-121.92-3.68c-1.18,0-2.37,0-3.54,0-43.87,0-78.89,24.29-82.74,27.06l-.6.43c-4.47.82-15.31,2.16-38.17,2.16-14.12,0-25.73-.53-25.85-.54l-.61,0h-.62l-7.93,0c-132.26,0-205.93,17.91-227.88,24.26-22.5-2.78-42.26-9.5-60.24-20.47-17-10.36-31.91-24.22-45.64-42.37-26.38-34.88-42-77.72-54.63-112.15-6.5-17.81-12.13-33.19-18.39-45.23-4.34-8.33-8.67-14.52-13.64-19.48C891.39,366.3,879.86,364,872.11,364Z"/><path id="Highlights" class="cls-13" d="M1178.4,1703.92l4.57-8q-5.12-4-10.38-7.9l-1-.74-5.48,9.61-9.41,16.5a30,30,0,0,0-34.33,14c-.17.3-.33.61-.5.92a30,30,0,1,0,47.14-7.88Z"/><g id="Shadow_2" data-name="Shadow 2"><path class="cls-14" d="M1167.92,1684.51l-.08-.06,0,0-.08,0c-75.34-55.82-148.34-92.24-169.86-90-.18.1-.34.21-.51.32a5.61,5.61,0,0,0-.89.7,5.15,5.15,0,0,0-.53.61h0a5.79,5.79,0,0,0-.42.67l-.12.27c-.07.16-.15.31-.21.48s-.06.24-.1.36-.09.3-.12.45-.05.29-.07.43,0,.3-.06.45,0,.33,0,.49,0,.3,0,.46,0,.36,0,.55,0,.3,0,.46.06.4.09.6,0,.31.07.47.09.44.15.66.06.31.1.47.14.48.21.72.09.31.14.47.17.52.27.78.1.31.16.47l.34.85c.06.15.12.3.19.45l.41.92.2.45c.15.32.32.65.49,1l.21.43c.18.35.37.7.56,1.05l.23.42c.21.37.42.75.65,1.13.07.13.14.26.22.39.24.4.48.8.73,1.2l.23.38c.26.42.53.84.81,1.27l.23.35.9,1.35.22.33c.32.46.65.94,1,1.41l.21.31c.35.49.71,1,1.08,1.49l.2.28,1.17,1.56.19.25c.41.55.84,1.09,1.27,1.65l.17.21c.44.57.9,1.14,1.36,1.72l.15.19c.47.59,1,1.18,1.45,1.78l.14.17,1.55,1.86.11.12,1.65,1.93.09.11,1.74,2,.06.07,1.85,2.07,0,0,1.94,2.13,0,0,2,2.18h0l2.1,2.24,1.39,1.46.78.81c30.64,4.78,79.61,17.52,139.72,51.08l5.48-9.61-3.36-2.52Z"/><path class="cls-14" d="M1258.91,1760.36l-3.6-3.45-.51-.48q-2.07-2-4.23-4l-1.1-1-3.4-3.13-1.23-1.12-4.55-4.1-.17-.16q-2.26-2-4.61-4.08l-1-.89-3.64-3.17-1.73-1.5-.05,0c-1.41-1.22-2.85-2.45-4.29-3.68l-1.4-1.19c-1.62-1.37-3.24-2.74-4.89-4.12h0l-.16-.14-.55-.46-4.51-3.73-1.54-1.28-4.62-3.77-.12-.1h0l-.08-.06-1.78-1.44-3.74-3-2.16-1.72-.82-.65c-1-.77-1.94-1.55-2.93-2.32-.65-.51-1.29-1-2-1.54-1.67-1.32-3.36-2.63-5.06-4l-1.32-1-.56-.44-3.59-2.76,0,0-4.57,8a648.16,648.16,0,0,1,71.61,49.37q4.66,3.68,9.37,7.52Z"/><path class="cls-14" d="M1217.75,1495.37c7.65-13.21,15.84-26.33,24.26-39.19-17.91-14-29.91-24-29.91-24s-.42-.39-1.16-1.12l-.71-.71c-2.54,2.53-5.59,2.47-8.19,5,0,0-.81,1.33-.82,1.34-8,7.86-15.06,13.66-23.54,21.62l-1.48,2.11c-5.65,5.31-9.93,12-15.77,17.31l1.64.18C1179.06,1479.88,1198.53,1486.47,1217.75,1495.37Z"/></g><path id="Outline_expanded_" data-name="Outline (expanded)" class="cls-2" d="M1382.89,1600.18c-34.65,64.08-70.07,159.52-79.45,220.39a5.77,5.77,0,0,1-1,2.57c-1.39,1.88-4,2.78-7.68,2.78-19.21,0-67.63-24.58-124.55-63.07a30,30,0,0,1-48.3-34.58c-41.85-31.61-77.08-62.65-99.76-87h0c-.69-.73-1.36-1.46-2-2.19l0,0c-.66-.71-1.3-1.43-1.94-2.13l0,0-1.84-2.07-.07-.07-1.74-2-.09-.11c-.56-.64-1.11-1.29-1.65-1.92a1.34,1.34,0,0,0-.11-.14c-.53-.62-1-1.24-1.55-1.85l-.13-.17c-.5-.6-1-1.19-1.46-1.78l-.15-.19c-.46-.58-.92-1.15-1.36-1.72a1.84,1.84,0,0,1-.17-.22c-.43-.55-.86-1.09-1.27-1.63l-.19-.26-1.17-1.56-.2-.28c-.37-.5-.73-1-1.08-1.49l-.21-.31c-.34-.47-.67-.95-1-1.41l-.23-.34-.89-1.34-.23-.35c-.28-.43-.55-.85-.81-1.27l-.23-.38c-.25-.4-.5-.8-.73-1.19l-.23-.41c-.22-.37-.44-.75-.64-1.12l-.22-.41c-.2-.36-.39-.71-.57-1.06l-.21-.43-.49-1-.2-.45-.41-.92c-.07-.15-.13-.3-.19-.45l-.34-.85c-.06-.16-.11-.31-.16-.46s-.19-.53-.27-.79-.1-.31-.14-.47-.15-.49-.21-.72-.07-.31-.1-.47-.11-.45-.15-.66,0-.31-.07-.47-.07-.41-.09-.6,0-.31,0-.47,0-.36,0-.54,0-.31,0-.46,0-.33,0-.48,0-.31.06-.46,0-.29.07-.43.08-.3.12-.45.06-.25.1-.36.14-.32.21-.48l.12-.27a7.57,7.57,0,0,1,.42-.67h0a5.15,5.15,0,0,1,.53-.61,6,6,0,0,1,1.4-1c88.85-44.64,154-107.36,212.35-164.1-4-3.93-33,9.78-41.62-1.27-68.51,65.71-131.61,113.27-183.73,138.33l-.58.28-.57.3a36.09,36.09,0,0,0-8.35,6.14c-.53.52-1,1.07-1.55,1.64l-.71.71-.8,1.08-1.24,1.49-.86,1.55c-.43.69-.83,1.4-1.21,2.12l0,0,0,0c-.35.67-.67,1.33-1,2s-.67,1.51-1,2.57l0,.11,0,.11c-.3.84-.5,1.55-.65,2.1s-.39,1.4-.6,2.36-.32,1.72-.4,2.31-.19,1.33-.27,2.22-.1,1.54-.11,2.09,0,1.09,0,1.82v.28c0,.81.07,1.48.09,1.81,0,.48.07,1.08.15,1.82s.18,1.42.24,1.76.14.94.23,1.43l0,.09v.1c.14.73.28,1.33.37,1.7s.2.9.32,1.35.29,1.08.46,1.65h0c.11.39.22.75.34,1.13.18.55.36,1.09.56,1.62l0,.09.35,1c.19.51.39,1,.59,1.49l0,.11.06.14,0,0,.29.71v0l0,0c.22.53.46,1.07.71,1.6l.4.88c.24.5.49,1,.74,1.51l0,.05.35.69c.28.55.58,1.1.88,1.65l.32.6c.31.56.64,1.12,1,1.69.12.23.23.41.35.6.3.53.63,1.06,1,1.59.1.18.21.35.31.52l0,0,0,0,1,1.64c.12.18.24.35.35.54l1.16,1.73,0,0,.22.33,0,0,0,0,1.19,1.72.35.49,1.24,1.72,0,0h0l.25.35,0,0,0,0c.44.6.89,1.2,1.35,1.81l.29.38,1.44,1.88,0,.05.23.3c.5.63,1,1.28,1.53,1.92l.05.06,0,.07.08.11,1.65,2,0,.05,0,0,.1.12h0l1.71,2.05,0,0,.16.19,1.8,2.11,0,0,.09.1.37.43v.32l8,8.58,0,0c21.69,23.28,52.63,50.83,88.29,78.69a60.35,60.35,0,0,0,2.38,18.56,59.92,59.92,0,0,0,78.62,39.38c23,15,44.77,27.69,63.58,37.22,36,18.23,52.44,20.34,61.69,20.34,18,0,27.66-9.35,31.78-14.92a35.5,35.5,0,0,0,6.55-15.64v-.11l0-.12c7.62-49.44,29-111.63,62.35-182.28C1386.18,1638.27,1391,1605.71,1382.89,1600.18Z"/><g id="Shadow_1" data-name="Shadow 1"><path class="cls-15" d="M1259.38,1760.81q-4.71-3.84-9.37-7.52h0a648.16,648.16,0,0,0-71.61-49.37l-9.38,16.47a30,30,0,0,1,1.16,42.46c67.82,45.87,123.58,72,132.23,60.29a5.77,5.77,0,0,0,1-2.57C1305,1810.79,1288.17,1788.63,1259.38,1760.81Z"/><path class="cls-15" d="M1121.88,1728.27c.17-.31.33-.62.5-.92a30,30,0,0,1,34.33-14l9.41-16.5c-60.11-33.56-109.08-46.3-139.72-51.08C1049.11,1669.39,1082.57,1698.58,1121.88,1728.27Z"/><path class="cls-15" d="M1167.74,1684.38l-.2-.15.14.1Z"/><path class="cls-15" d="M1160.43,1477.72c-50.85,46.06-108.07,90.5-162.56,116.69h0c21.5-2.27,94.39,34.08,169.66,89.82l-.07-.06-1.43-1.05-2-1.45-.29-.21a2.83,2.83,0,0,0,.28.2l0,0h0l3.19,2.35.36.26a1.09,1.09,0,0,0,.17.13l0,0,0,0c1.25.92,2.49,1.85,3.72,2.77l.49.37.6.45,1.13.84.14.11,1,.71,1.42,1.07,1.21.91,1.06.81,1.94,1.48.5.37.17.13.84.65.94.72.06,0,.1.08,1.62,1.25,1.42,1.09,1.36,1.05.39.3.65.5.48.38,1.17.91,2.32,1.82.81.63.33.26.06,0,.38.3.1.07,2.8,2.21,1,.76,1.57,1.25.33.26.83.66,1.72,1.37.14.12h0l.22.18,3.47,2.8.3.24.4.32h0l.09.08.19.15a107.08,107.08,0,0,1-21.47-24,95.21,95.21,0,0,1-7.83-14.86c-21.46-51.13,2.94-117.06,39.79-180.73-19.22-8.9-38.69-15.49-55.68-17.47Zm-158.79,115.64h0a11,11,0,0,0-3,.7,11,11,0,0,1,3-.7h0Zm1.12-.08-.37,0c-.24,0-.48,0-.7,0h0l.71,0,.37,0h0Zm1.19,0h0Zm6.22.71h0l-.27,0-.34-.07-.92-.15-.61-.09-.85-.12-.59-.06-.4,0-.4,0-.55,0,.55,0,.4,0,.4,0,.59.06.37,0,.48.08.36,0,.25,0,.92.16.34.06.27,0,.2,0,.85.18Zm6.81,1.69-.7-.2-.55-.16-.57-.16-1.73-.45-.21,0,.19,0h0l1.73.45.58.16.54.16.7.2h0Zm9.68,3.33-.87-.34-.84-.31h0l-.83-.31-.42-.15-.85-.31-1-.33-.24-.08h0l-.29-.09-.54-.19-.07,0-1.08-.36-.81-.26-1.15-.35h0l-.68-.21.16,0,.54.17,1.16.35.79.26.05,0,.62.2.48.16h0l.08,0,.76.26,1.18.41.86.31.92.34.34.12.41.15.43.16.3.11,1,.4Zm23.88,10.75-2-1h0l-.22-.11-.72-.35h0l-1.68-.83-.5-.24-.54-.25h0l-.22-.11-1.32-.62-.09,0-1-.45-1.44-.67-.06,0-1-.49-1.45-.66-.47-.21-.55-.25-1.48-.65-.92-.41-1.67-.71-.67-.29-2.28-.94-.4-.17-1.82-.72-.78-.3,0,0,.06,0,.76.3h0l1.77.7.46.19,2.27.94.71.3,1.63.7.94.41,1,.47.41.18h0l.88.4.12.06,1.46.66h0l.41.19.62.29h0l.7.32.77.36,1,.46.09,0h0l.54.26c.33.15.66.32,1,.48l.77.37.28.13h0l1.65.8h0l.52.26.4.19,0,0h0l.23.11,1.78.89,0,0h0l0,0,.42.2Zm.65.32h0l.51.26Zm2.73,1.39-1.32-.67,1.32.68.69.35Zm6.8,3.58-1.15-.62-1.79-1h0l-.25-.13-.79-.42h0l-1.25-.65-.78-.41h0l0,0,.06,0,.59.3.34.18,1,.53h0l.33.17.74.39,1.31.69.45.24h0l1.14.61,0,0,.42.23Zm1.73.92-.41-.21.39.2,0,0,.12.06Zm7.21,4-1.23-.69-1.77-1-.29-.15-.95-.53,0,0-.06,0-1.65-.9-.53-.29.54.3,1.71.93,0,0,1.19.66h0l.67.37,1.07.59,0,0,0,0,.21.11,1,.55.25.13Zm3,1.72h0l-.08-.05-1.06-.6-.47-.26-.87-.49,1.27.71,0,0,.07,0,.56.32.55.31h0l2.1,1.19,0,0Zm10.49,6.08c-.37-.23-.75-.45-1.13-.67l-2.45-1.44-.06,0-.17-.09-.49-.29-2.12-1.23-1-.57-.8-.45.06,0,.45.26.28.16h0l2.45,1.41.64.38.85.49,2,1.2.26.15,1.13.67h0l.11.06.57.34Zm3.42,2-.06,0,0,0-.84-.5-.44-.27-.68-.4-.27-.16.8.47.16.1.81.48.51.31,1.29.77.25.16Zm3.59,2.17-.32-.2-.53-.32-.83-.5,0,0-.31-.18.32.19,1.22.74.12.07,0,0,.36.21h0Zm1.59,1-1.34-.81,1.32.8.75.46Zm3.47,2.13-.13-.08-1.52-.93-.41-.25,0,0-.57-.35.56.34,0,0,1.12.69.78.48,0,0,0,0,.45.28Zm4.61,2.87-1.3-.81-1.63-1-.41-.25,0,0h0l-.15-.1.19.12,2,1.25,1,.64.28.17,0,0h0l2.19,1.38.06,0Zm17.21,11-2.08-1.37-.43-.28-1-.65-1.29-.84-.94-.61-1.24-.8-2.77-1.78-.68-.43c-.92-.6-1.85-1.18-2.77-1.77l-.36-.22-.25-.16h0l-.65-.41-.36-.23,0,0,.94.59h0l.57.37,2.81,1.78h0l.41.26.2.13a1.37,1.37,0,0,1,.2.13l.09,0,2.29,1.47.25.17,1.2.77,0,0,.08,0,0,0,2.12,1.38h0l1.36.89,0,0,0,0,.92.6,1.12.73,1,.68Zm2.8,1.84-1.27-.84,0,0,0,0-.21-.14.26.17,1.09.72.36.24Zm.73.49-.34-.23.32.21.05,0,.11.08.36.24Zm5.11,3.4h0l-.34-.23-1.12-.75-2.1-1.41-.85-.56.83.55,0,0h0l1.64,1.1.4.26,0,0,.21.14,1.25.84h0a3.62,3.62,0,0,0,.32.22Zm3.57,2.42-1.11-.75-.3-.21-.08-.05-.77-.52.83.56,1.18.8.27.18h0Zm2.52,1.71-.1-.07-.78-.52-1.6-1.09h0l2,1.39.28.19.1.06.58.4Zm4.7,3.23c-1.2-.83-2.4-1.66-3.6-2.47l-.4-.28.4.27,0,0,3.54,2.43,0,0h0l.06,0Zm5,3.47-.83-.58-.51-.36-1.55-1.07-1.42-1-.4-.27.24.16.32.22,2.78,1.93,0,0,0,0,1.21.85.09.06.33.23Zm2.33,1.63-1.1-.77,1.09.77h0l.83.59Zm18.92,13.58.28.2-.34-.25-2.36-1.72,0,0-1.2-.88-.3-.22-2.22-1.61h0l-.21-.15-1.37-1-2.14-1.54c-.23-.16-.46-.32-.68-.49l-.94-.66-1.5-1.07-.65-.47-1.54-1.09-1.36-1-.82-.58-.27-.19.24.17.07,0,2.1,1.48h0l0,0,1.5,1.07.06,0,0,0,1.11.79,1,.71.5.36.66.47.44.32.41.3,1.68,1.2,0,0,1.61,1.17,2.19,1.58.06,0,.19.13.1.08,1.2.87,0,0,1.89,1.38C1162.42,1680.45,1162.59,1680.58,1162.76,1680.71Z"/><path class="cls-15" d="M1345.41,1559.11h0a53.82,53.82,0,0,1-3.83-8.5s-7.22-27.22-46.83-55.1c-19.32-13.59-38-27.82-52.74-39.33-8.42,12.86-16.61,26-24.26,39.19,39.4,18.26,77.73,46.24,91.41,64.23,5.6,7.36,13.16,14.66,21.19,21.38h0a419.11,419.11,0,0,0,45.55,32.54c1.1-2.25,2.95-5.25,4.06-7.48l.22-.45c.9-1.81,1.8-3.62,2.71-5.41C1361.39,1584.56,1350.47,1568.56,1345.41,1559.11Z"/></g><path id="Default" class="cls-16" d="M1330.35,1581c-8-6.72-15.59-14-21.19-21.38-13.68-18-52-46-91.41-64.23C1180.9,1559,1156.5,1625,1178,1676.1a95.21,95.21,0,0,0,7.83,14.86,107.08,107.08,0,0,0,21.47,24l-.19-.15,3.24,2.63.63.52,3.3,2.72.53.44c1.1.91,2.2,1.82,3.28,2.73l.39.32,0,0q2.44,2,4.83,4.07l.53.44.41.35c1.65,1.4,3.28,2.8,4.88,4.18l.57.49,3.65,3.17h0l1.15,1,1,.89q2.34,2.06,4.61,4.08l.17.16,4.55,4.1,1.23,1.12,3.4,3.13,1.1,1q2.16,2,4.23,4l.51.48,3.6,3.45.51.48,0,0c28.79,27.82,45.65,50,44.06,59.76v0c10.12-65.72,40.39-141,73.18-207.83C1376.51,1612.7,1351.75,1598.89,1330.35,1581Z"/><path class="cls-17" d="M1997.83,1601.79c-3.59-89.18-60.46-162.52-142-184a272.82,272.82,0,0,0-215.18,38L1553,1519.45h0s-30.87,21,17.72,41.69c56.47,24,99.6,3.69,127.41-21.15h0l0-2.22h0l0,2.22c3.82-4,9.05-5.45,14.46-5.45,14.43,0,26.26,10.47,26.26,24.89a26.11,26.11,0,0,1-12.42,22.24c-70.74,36.39-136.84,80.08-185.93,145.94-13.53,17.79-20,40.33-20,64.4a106,106,0,0,0,4.26,29.83c25.31,83.48,102.82,144.26,194.56,144.26,48.14,0,86.5-8.66,127.26-34.26,92.19-59.53,151.53-184.31,151.53-316.75Q1998.05,1608.42,1997.83,1601.79Z"/><path class="cls-18" d="M1846.52,1931.84c92.19-59.53,151.53-184.31,151.53-316.75q0-6.67-.22-13.3c-3.59-89.18-60.46-162.52-142-184a272.82,272.82,0,0,0-215.18,38l-81.92,59.41-5,3.66h0s-15,9.72-8.81,23c5.41-4.4,185.64-160.19,305.13-93.14s113.2,214.93,62.5,331.66c-46.42,106.87-91.63,172.16-220.74,183.82a206.23,206.23,0,0,0,27.51,1.85C1767.4,1966.1,1805.76,1957.44,1846.52,1931.84Z"/><path class="cls-9" d="M1857.32,1587.82s22.46,275.69-141.66,275.66c0,0-24.17,1.35-25.15-12.62-1.91-27.08,38.23-20,38.23-20h0C1732.36,1831.1,1830.38,1852.64,1857.32,1587.82Z"/><path class="cls-9" d="M1540.47,1727.61c-13.53,17.79-20,40.33-20,64.4a106,106,0,0,0,4.26,29.83,203.9,203.9,0,0,0,110,125.87c-20.87-20.39-46.36-61.39-54.57-127-11.93-95.28,146.31-239.06,146.31-239.06C1655.66,1618.06,1589.56,1661.75,1540.47,1727.61Z"/><path class="cls-10" d="M1692.42,918.92c5.82-4.54,10.65-12.41,12.76-22,3.69-16.73-2.32-32.28-13.43-34.73s-23.11,9.12-26.8,25.85c-.14.66-.27,1.31-.38,2A188.62,188.62,0,0,1,1692.42,918.92Z"/><path class="cls-19" d="M1446.55,2364a246.16,246.16,0,0,0,37.89-38.43q16.14-20.61,25.6-35.09,21.74-32.85,21.46-52.63t-17-25.89a19.57,19.57,0,0,0-6.12-1.12,37.6,37.6,0,0,0-6.13.56,18.08,18.08,0,0,0-7.24,3.35,3.48,3.48,0,0,0-1.66,1.66,5,5,0,0,0,0,5.59,54.73,54.73,0,0,1,2.22,8.06,38,38,0,0,1,0,13.09,91.85,91.85,0,0,1-5,18.37q-3.9,10.59-12.81,24a33.69,33.69,0,0,1-3.34,4.73,35.85,35.85,0,0,0-3.34,4.74,41.22,41.22,0,0,0-3.89,5.28,116.81,116.81,0,0,1-7.25,9.48q-4.45,5.28-9.75,11.14a80.85,80.85,0,0,1-10.3,9.74h-.56a8.53,8.53,0,0,1-2.23,1.67,8.72,8.72,0,0,0-2.22,1.67,46.25,46.25,0,0,1-13.93,5.84q-7.79,2-14.47-4.17a14.69,14.69,0,0,0,5.57,1.12,16.37,16.37,0,0,0,11.69-2.23c-3.34-2.59-4.1-8-2.22-16.16a175,175,0,0,1,8.63-26.72q5.85-14.47,12.8-28.13t10.86-20.33a10,10,0,0,0,.57-7.24,7.4,7.4,0,0,0-1.67-2.79,36.07,36.07,0,0,0-10.6-7.24,63,63,0,0,0-10.56-3.88c-3.36-.38-6,0-7.81,1.09a6.37,6.37,0,0,0-2.22,2.23q-5.58,7.82-16.44,26.74a310.15,310.15,0,0,0-19.76,41.77l-.57,1.12c-2.6,4.09-5.65,8.81-9.18,14.2a133.19,133.19,0,0,1-11.14,14.75,53,53,0,0,1-11.7,10.31c-3.89,2.42-7.34,2.51-10.3.28q-5-3.34-2.52-15.6a157.65,157.65,0,0,1,8.37-26.74q5.85-14.46,12.82-28.4t10.86-20.6a10,10,0,0,0,.54-7.24,6.92,6.92,0,0,0-1.67-2.79,35.89,35.89,0,0,0-10.59-7.24,56.34,56.34,0,0,0-11.13-3.88,11.24,11.24,0,0,0-7.24,1.09,6.37,6.37,0,0,0-2.22,2.23q-3.92,6.15-11.42,18.11a281.08,281.08,0,0,0-15,27.56c-.13.28-.26.57-.4.84a57,57,0,0,1-16.58,4.74,140,140,0,0,1-17.27,1.1,128.6,128.6,0,0,1-15.32-.83,97,97,0,0,0-10.85-.84h-.56a6.19,6.19,0,0,1-2.79-.55c-.37,0-.56.37-.56,1.12-.75-.75-1.31-1.12-1.67-1.12q-8.36-2.79-12-6.69c-2.41-2.58-3.81-4.45-4.17-5.57-1.87-2.58-1.3-5.19,1.67-7.79a43.32,43.32,0,0,1,10.59-6.69,26.9,26.9,0,0,1,7.24-1.67q6.1.57,5.56,7a51.31,51.31,0,0,1-3.33,13.65,15.12,15.12,0,0,0,8.9,5,28.74,28.74,0,0,0,10.58.29,23.52,23.52,0,0,0,8.92-3.35,11.54,11.54,0,0,0,5-5.85q3.87-16.14-1.4-25.34t-12.53-13.65a31.17,31.17,0,0,0-11.41-5.56,49.21,49.21,0,0,0-6.41-1.12q-13.92-2.77-34.54,2.79t-44,26.74a179.11,179.11,0,0,0-26.18,32.29,1.67,1.67,0,0,1-.56,1.12,13,13,0,0,0-2.23,3.35c-1.19,2.19-2.59,5-4.17,8.22a25.29,25.29,0,0,0-1.39,2.36q-17.83,27.86-39.26,46.78a201.18,201.18,0,0,1-44,30.07,166.34,166.34,0,0,1-44.84,15,125.71,125.71,0,0,1-42.32.55,67.68,67.68,0,0,1-29.25-11.15q-13.08-8.89-15.59-26.45t8.35-45.67q10.86-28.11,42.61-69.91,28.41-36.73,57.36-56.5t53.48-29.26a199.86,199.86,0,0,1,54.57-12.79h3.62a64.41,64.41,0,0,1,7.53.54c3,.37,6.21.83,9.74,1.4a33.52,33.52,0,0,1,9.76,3,105.16,105.16,0,0,0-11.15-.54,77,77,0,0,0-10.87.83,60.3,60.3,0,0,0-12,3.06q-9.48,19.5-20.89,32.31a156.13,156.13,0,0,1-20.88,20c-2.61,2.22-4.28,4.28-5,6.14a3.82,3.82,0,0,0,1.12,4.72q2.22,2,10.57,3.06,27.27,2.8,43.74-5t25.88-19a76.76,76.76,0,0,0,15-29.51q2.77-21.15-6.4-34a57.57,57.57,0,0,0-22-18.93q-14.47-7.24-34.54-10-28.39-2.22-60.15,8.91-27.27,9.48-61.54,33.7t-71,73.23q-35.1,49.58-46.78,90.78a147.27,147.27,0,0,0-5.58,35.38,68.59,68.59,0,0,0,6.7,32.58q7.2,15,23.94,26.18t46.21,16.14q28.41,5,53.21.84a188,188,0,0,0,45.37-13.37,177.52,177.52,0,0,0,37.6-22.56,240.54,240.54,0,0,0,29.79-27.56c2.34-2.6,4.56-5.16,6.71-7.71a54,54,0,0,0,1.92,11.87,40.76,40.76,0,0,0,9.75,16.72q6.12,7.23,17.27,12.81t29,7.8h.53a127.88,127.88,0,0,0,20.06.56,78.92,78.92,0,0,0,16.71-2.79,108.24,108.24,0,0,0,10.59-3.35,60.26,60.26,0,0,0,12.8-6.68,31.74,31.74,0,0,0,6.7-5,64.24,64.24,0,0,0,14.46-16.14,86.41,86.41,0,0,0,7.23-14.49l1.13-2.22v-1.12a1.67,1.67,0,0,1,.56-1.12,24.3,24.3,0,0,0,1.11-3.9v-1.66c.37-2.23.64-4.83.83-7.81s.29-5.93.29-8.91a6,6,0,0,1-.57-2.78v-.57l-1.66-7.79c4.08,0,9.36-.17,15.88-.55,1.63-.09,3.28-.25,4.92-.47-.16.45-.33.87-.49,1.3a141.52,141.52,0,0,0-8.08,34.26,54.58,54.58,0,0,0-.55,7.23,41.08,41.08,0,0,0,0,13.38c.74,5.2,3.26,10.68,7.52,16.42s11.78,8.63,22.56,8.63a45.86,45.86,0,0,0,28.13-8.35,114,114,0,0,0,23.66-21.71,63.55,63.55,0,0,0,4.45,14.48c2.24,5.2,6.49,9.28,12.82,12.24a8.65,8.65,0,0,0,3.35,1.39,9.6,9.6,0,0,1,2.78.85,9.6,9.6,0,0,0,2.78.54,41.84,41.84,0,0,0,17.55-1.39,64.45,64.45,0,0,0,15.86-7.52,48,48,0,0,0,7.24-5C1441.55,2367.72,1444,2365.87,1446.55,2364Zm-192.69-36.19a32.59,32.59,0,0,1-1.66,5.56,12.35,12.35,0,0,1-2.24,5,19.33,19.33,0,0,1-3.61,4.74,64.29,64.29,0,0,1-5.29,4.72,31.79,31.79,0,0,1-11.71,6.14q-7.24,2.21-17.81.54a42.19,42.19,0,0,1-15-5.56c-6.67-4.07-10.66-8.92-12-14.48a86.75,86.75,0,0,1-2-9.47q-.55-10.58,6.69-22.55a217,217,0,0,1,16.14-23.12c1.86,2.61,3.16,3.9,3.91,3.9a52.29,52.29,0,0,0,13.92,13.36c5.21,3.35,12.61,5.57,22.28,6.69a17.54,17.54,0,0,1,5,6.68c1.1,2.61,2,4.82,2.77,6.68a18.23,18.23,0,0,1,1.12,5.58A28.6,28.6,0,0,1,1253.86,2327.81Z"/><path class="cls-19" d="M1677.13,2194.13a18.8,18.8,0,0,0-1.66,5.58,39.55,39.55,0,0,0-.57,6.68,15,15,0,0,0,1.4,6.4,9.47,9.47,0,0,0,5.28,4.73,16.3,16.3,0,0,0,9.46.57,33.25,33.25,0,0,0,9.76-3.9,59.8,59.8,0,0,0,8.91-6.41,63.5,63.5,0,0,0,7-7c1.1-1.1,2.12-2.22,3.06-3.33s1.75-2.22,2.5-3.35a21.62,21.62,0,0,0,2.78-3.33q2.79-3.33,4.74-6.13t3.06-4.45c1.48-1.86,2.24-3.44,2.24-4.75a4.14,4.14,0,0,0-1.13-3.06,7.2,7.2,0,0,0-2.77-1.66,44.21,44.21,0,0,0-13.09-2.52,102,102,0,0,0-13.11.29c-4.82.38-8.34,1.48-10.56,3.33a35.86,35.86,0,0,0-3.9,3.35,27.66,27.66,0,0,0-3.35,4.18,71.5,71.5,0,0,1-4.45,5.85,16.9,16.9,0,0,0-2.23,2.79A64.86,64.86,0,0,0,1677.13,2194.13Z"/><path class="cls-19" d="M2060.87,2285.47a7.1,7.1,0,0,0-5.86.29,38.94,38.94,0,0,0-4.72,3.06,54.65,54.65,0,0,0-4.45,5q-3.36,5-8.08,12a115,115,0,0,1-10.32,13.09,40.69,40.69,0,0,1-5.84,5.84,75.69,75.69,0,0,1-10,7.25,53.38,53.38,0,0,1-13.65,5.84,48.87,48.87,0,0,1-16.7,1.69,60.77,60.77,0,0,1-16.71-3.35c-5.19-1.85-10-3.71-14.48-5.58a90.28,90.28,0,0,1-12.25-6.12l-4.46-3.34a96.15,96.15,0,0,0,21.16-3.34,119.89,119.89,0,0,0,28.41-10,95.58,95.58,0,0,0,19.49-13.08,77.17,77.17,0,0,0,12.53-13.92,68.09,68.09,0,0,0,7-12.55c2.22-4.45,3.33-7.77,3.33-10q2.77-12.83,0-20.05a25.27,25.27,0,0,0-7.79-11.15,36.65,36.65,0,0,0-13.94-6.12,66.43,66.43,0,0,0-28.4,1.66,101.57,101.57,0,0,0-25,11.15,11.64,11.64,0,0,1-2,1.4c-.94.55-2,1.21-3.07,1.93a149.14,149.14,0,0,0-16.43,13.1,127,127,0,0,0-13.65,14.77c3-5.94,7.7-13.09,14.22-21.45s15.86-15.32,28.12-20.9q19.48-30,37-54.57t26.44-36.2c1.85-3,2.8-5.19,2.8-6.68a6.85,6.85,0,0,0-1.12-3.9,15.08,15.08,0,0,0-3.9-2.78,63.81,63.81,0,0,0-18.38-3.06q-10-.28-17.83.27c-6.68.75-11.87,2.22-15.58,4.46a59.69,59.69,0,0,0-5,4.45q-10,11.7-26.46,36.47t-33.41,54.59q-17,29.82-32,60.16-7.11,14.34-12.33,27.12c-1.83,2.93-3.85,5.87-6,8.79q-2.81,4.45-13.08,16.43c-6.9,8-15.88,14.57-27,19.78a59.83,59.83,0,0,1-28.95,7.23,50.58,50.58,0,0,1-19.48-3.89c-5.57-1.85-9.86-4.45-12.82-7.8a22.83,22.83,0,0,1-6.4-18.1,64.68,64.68,0,0,1,4.74-19.77,77,77,0,0,1,8.62-15.88,174.29,174.29,0,0,1,10.85-13.91c3.73-4.27,7.25-8,10.6-11.15s6.11-5.65,8.35-7.51a28.09,28.09,0,0,1,3.62-3.07,23.1,23.1,0,0,0,3.06-2.52,51,51,0,0,1-5.57.84,14.82,14.82,0,0,0-5,1.39l-5,1.69q11.14-8.37,18.39-8.64c4.81-.18,7.79.09,8.91.84q5.57,1.11,3.62,9.73a67.85,67.85,0,0,1-5.28,15.31,9.77,9.77,0,0,1-1.13,2.8l-2.22,3.34a1.62,1.62,0,0,0-.56,1.11c-.38.75-.75,1.6-1.11,2.52s-.74,1.76-1.12,2.5a5,5,0,0,0,0,3.34c.38,1.13,1.48,2,3.35,2.79a41.37,41.37,0,0,0,10,1.1,28.44,28.44,0,0,0,11.7-2.76,27.05,27.05,0,0,0,7.79-5.87,35.19,35.19,0,0,0,6.13-10.3c1.85-3.71,2.79-6.87,2.79-9.47q2.77-16.14-2-25.34t-12-13.65a31.48,31.48,0,0,0-11.43-5.56c-3.54-.74-5.49-1.12-5.85-1.12q-14.49-2.77-35.09,2.79t-43.45,26.74a180.88,180.88,0,0,0-26.17,32.29,1.65,1.65,0,0,1-.55,1.12,12.82,12.82,0,0,0-2.22,3.35c-1.87,3.33-4.18,7.88-7,13.63-.45.93-.87,1.9-1.29,2.87l-5.38,8.28a132.36,132.36,0,0,1-11.16,14.75,52.48,52.48,0,0,1-11.69,10.31c-3.9,2.43-7.35,2.5-10.3.29q-5-3.36-1.67-15.61a158.77,158.77,0,0,1,10.3-26.74q7-14.45,15-28.4t11.42-20.6a9.89,9.89,0,0,0,.56-7.24,7.09,7.09,0,0,0-1.66-2.78,36.18,36.18,0,0,0-10.59-7.25,65.51,65.51,0,0,0-10.59-3.89c-3.33-.37-5.93,0-7.78,1.11a6.27,6.27,0,0,0-2.24,2.22c-2.59,4.1-6.69,10.14-12.24,18.11a312.83,312.83,0,0,0-17,27.56,316.68,316.68,0,0,0-14.37,29.63q-3,3.63-7.06,7.7a179.73,179.73,0,0,1-16.45,14.48,89.53,89.53,0,0,1-17,10.57q-8.33,3.9-13.36,2.23l-.56-.56c-2.6-1.48-3.33-4.35-2.23-8.62a57.48,57.48,0,0,1,3.91-10.87q13.35-26.73,30.9-54.86t34.54-53.47q17-25.33,31.19-45.38t22-30.08c1.85-3,2.79-5.19,2.79-6.68a6.77,6.77,0,0,0-1.12-3.9,15,15,0,0,0-3.89-2.78,58,58,0,0,0-17.81-3.06c-6.71-.19-12.63-.1-17.84.27q-10,.55-15.6,4.46a62.38,62.38,0,0,0-5,4.45q-5.6,6.67-13.38,17.54t-17,24.8q-9.2,13.91-18.94,30.34t-19.22,33.13q-5,8.37-11.42,20.33t-12.53,25.91q-6.13,13.92-11.13,28.67a141.82,141.82,0,0,0-6.7,28.69,146.13,146.13,0,0,0-1.1,17.83,34.19,34.19,0,0,0,3.35,15.59v1.12h.54v1.1a.5.5,0,0,1,.56.57l.56.55v.55a.51.51,0,0,1,.56.56l.55.55a.5.5,0,0,0,.56.57,22.58,22.58,0,0,0,5.57,5,37,37,0,0,0,5.58,2.76,16.15,16.15,0,0,0,6.12,1.13q16.13,2.22,32.58-6.41a145.45,145.45,0,0,0,30.91-22c1.88-1.74,3.68-3.52,5.47-5.29,0,1.46-.06,2.91-.17,4.45a14.18,14.18,0,0,0,.83,6.41q1.11,7.8,7.23,16.42t22.28,8.63a46.9,46.9,0,0,0,29-8.63,115.15,115.15,0,0,0,24.22-22.56l.2-.25a44.81,44.81,0,0,0,3.42,8.06q5.58,10,18.1,17.27t34.27,10a9.51,9.51,0,0,1,2.22.28,8.84,8.84,0,0,0,2.23.27c4.81.38,10,.57,15.58.57a145.52,145.52,0,0,0,16.71-1.12,168.36,168.36,0,0,0,20.62-3.9q5-1.65,10.3-3.62a109.74,109.74,0,0,0,10.86-4.72,106,106,0,0,0,23.69-16.29,60.93,60.93,0,0,0,1.92,16.29,3.91,3.91,0,0,1,.83,1.11,5.42,5.42,0,0,0,.86,1.12c1.1,1.47,3.33,3,6.68,4.72s8.53,2.51,15.58,2.51c3-.36,4.94-1.39,5.85-3.07s1.58-2.87,2-3.62a199,199,0,0,1,6.14-20.6q3.87-11.15,9.47-23.38,3.33-7.24,11.7-22a253.55,253.55,0,0,1,19.19-29A148,148,0,0,1,1947,2259q12.52-10.31,24.8-8.64a67.57,67.57,0,0,1,7.77,2.23c3.36,1.1,5,4.08,5,8.91a9.13,9.13,0,0,0-1.66-2.23,21.09,21.09,0,0,0-5-3.89l.57.54a14.5,14.5,0,0,1-1.13,11.15,34,34,0,0,1-10.3,10.3,121.4,121.4,0,0,1-15.58,8.9q-8.65,4.18-17.28,7.8a115.85,115.85,0,0,0-14.2,7c-5.21,3-8.45,7-9.75,12a41.92,41.92,0,0,0-1.38,14.2,54.31,54.31,0,0,0,3.88,16.71q6.69,17.26,17.83,25.35a74.69,74.69,0,0,0,22.28,11.39,79.62,79.62,0,0,0,26.72,3.35,51.62,51.62,0,0,0,28.42-10,128.55,128.55,0,0,0,24.5-22.82,243.79,243.79,0,0,0,19.78-27.3q8.63-13.92,13.63-23.38c1.13-1.85,1.68-4.54,1.68-8.08S2065.33,2286.59,2060.87,2285.47Z"/><path class="cls-19" d="M1096.44,2533.2c-23.53-6-29.36-8.95-29.36-17.89v-.39c0-6.61,6-11.86,17.5-11.86s23.34,5.06,35.39,13.42l15.55-22.56c-13.8-11.08-30.71-17.3-50.55-17.3-27.82,0-47.65,16.33-47.65,41v.4c0,27,17.7,34.61,45.11,41.61,22.75,5.84,27.43,9.73,27.43,17.31v.39c0,8-7.39,12.83-19.65,12.83-15.55,0-28.38-6.41-40.65-16.52l-17.69,21.2a86.66,86.66,0,0,0,57.76,21.77c29.37,0,50-15.16,50-42.2V2574C1139.62,2550.32,1124.06,2540.4,1096.44,2533.2Z"/><polygon class="cls-19" points="1153.1 2506.17 1194.52 2506.17 1194.52 2614.68 1224.47 2614.68 1224.47 2506.17 1265.89 2506.17 1265.89 2478.55 1153.1 2478.55 1153.1 2506.17"/><path class="cls-19" d="M1375.45,2556.54c0,21.59-11.09,32.67-29.36,32.67s-29.37-11.48-29.37-33.65v-77h-30v77.78c0,40.06,22.36,60.49,58.91,60.49s59.72-20.23,59.72-61.46v-76.81h-30Z"/><path class="cls-19" d="M1489.1,2478.55H1436v136.13h53.1c42.79,0,72.34-29.75,72.34-68.06v-.38C1561.44,2507.93,1531.89,2478.55,1489.1,2478.55Zm41,68.46c0,24.11-16.53,40.65-41,40.65H1466v-82.07h23.15c24.5,0,41,16.92,41,41Z"/><rect class="cls-19" x="1589.52" y="2478.56" width="29.95" height="136.13"/><path class="cls-19" d="M1720.05,2476.23c-42,0-72.54,31.7-72.54,70.39v.39c0,38.7,30.14,70,72.15,70s72.53-31.7,72.53-70.4v-.38C1792.19,2507.53,1762.05,2476.23,1720.05,2476.23Zm40.83,70.78c0,23.34-16.73,42.4-40.83,42.4s-41.24-19.44-41.24-42.79v-.38c0-23.35,16.73-42.41,40.85-42.41s41.22,19.46,41.22,42.79Z"/><path class="cls-19" d="M1873.18,2533.2c-23.53-6-29.36-8.95-29.36-17.89v-.39c0-6.61,6-11.86,17.5-11.86s23.34,5.06,35.4,13.42l15.55-22.56c-13.81-11.08-30.72-17.3-50.56-17.3-27.81,0-47.65,16.33-47.65,41v.4c0,27,17.7,34.61,45.11,41.61,22.76,5.84,27.43,9.73,27.43,17.31v.39c0,8-7.39,12.83-19.64,12.83-15.55,0-28.39-6.41-40.65-16.52l-17.69,21.2a86.62,86.62,0,0,0,57.76,21.77c29.36,0,50-15.16,50-42.2V2574C1916.36,2550.32,1900.8,2540.4,1873.18,2533.2Z"/></g></g></svg>