<svg xmlns="http://www.w3.org/2000/svg" xmlns:xlink="http://www.w3.org/1999/xlink" viewBox="0 0 4794.44 4693"><defs><style>.cls-1{isolation:isolate;}.cls-2{mask:url(#mask);}.cls-3{fill:none;}.cls-4{fill:#777a85;}.cls-5{fill:#181b29;}</style><mask id="mask" x="-1015.16" y="-1169.89" width="6817" height="6817" maskUnits="userSpaceOnUse"><g id="SVGID"><image class="cls-1" width="5000" height="5000" transform="matrix(0.87, -0.49, 0.49, 0.87, -1015.16, 1299.61)" xlink:href="../../../../../../../office@umei.ca%20Creative%20Cloud%20Files/Graphic%20Design/UMEI/UMEI%20T-shirts/Final%20Wheel%20Tshirt/Distressed/7619D16.jpg"/></g></mask></defs><title>umei</title><g id="Layer_2" data-name="Layer 2"><g id="Layer_1-2" data-name="Layer 1"><g class="cls-2"><polygon class="cls-3" points="2009.89 2929.67 1693.12 4306.07 1739.87 4220.32 2049.73 2929.67 2009.89 2929.67"/><rect class="cls-3" x="199.19" y="2280.88" width="4399.11" height="55.97"/><path class="cls-3" d="M3077.81,1858.54h-14.59c-14.27,0-20.92,6.65-20.92,20.92v132.16h56.44V1879.46C3098.74,1865.19,3092.09,1858.54,3077.81,1858.54Z"/><path class="cls-3" d="M1221.59,3035.89c-107.86-129.5-175.24-258.47-212.77-343.85-23.23-52.86-38.15-95.65-46.81-123.22H616.48c160.21,483.88,514.11,879.52,969.85,1095.07l64.81-284.61C1485.83,3295.15,1341.32,3179.66,1221.59,3035.89Z"/><path class="cls-3" d="M2379.05,3841.2c822.84,0,1520.62-535.38,1764-1276.79H3812c-89.87,229.61-216.49,423.5-376.83,576.86-136.75,130.78-298.06,232.41-479.43,302.06-161.17,61.88-308.7,86.51-404.1,96.28-32.59,3.34-61.37,5.23-85.6,6.25l-166.92,293.63Q2338.85,3841.17,2379.05,3841.2Z"/><path class="cls-3" d="M825.12,1482.69A1721.91,1721.91,0,0,1,998.79,1110.3c102.12-163.85,229.33-304.86,378.09-419.13,185.93-142.81,406.19-244,654.66-300.67.9-.22,99.35-23.51,250-33a2027.5,2027.5,0,0,1,264.37.49c108.78,7.39,214.78,23.85,315.07,48.9C3116.48,470.7,3336.86,590,3516,761.58,3622.35,863.4,3715.13,985,3791.76,1122.9c83.57,150.42,150,324,197.39,516h214c-100.88-535-431.31-988.94-885.06-1255.56l-5.56-3.23c-6.59-3.73-40.9-23.08-45.66-25.77l-2.4-1.32c-263.16-143.08-564.79-224.36-885.4-224.36-906.81,0-1661.74,650.22-1824,1509.86H784.17C787.34,1621.13,798.82,1563.52,825.12,1482.69Z"/><path class="cls-3" d="M1450.81,752.07c174.13-133.76,380.29-228.47,612.77-281.51,14.19-3.41,348.82-81.46,739.92,6.68h0l.68.15q17.58,4,35.31,8.39,24.35,6.09,48.25,12.89a1446.8,1446.8,0,0,1,172.72,61c72.1,30.37,113.21,54.62,114,55.12a1297.64,1297.64,0,0,1,279.27,203.7c205.31,196.58,357.33,483.08,443.3,820.33h75.78C3767.36,812.62,3253.09,521.13,2857.17,422.21,2632,366,2420.43,364.55,2282.55,373.26c-149.32,9.43-246.44,32.41-247.4,32.64-557.62,127.24-864.05,457.84-1022.93,712.77a1705.51,1705.51,0,0,0-172.06,368.91c-24.79,76.22-36.22,131.24-39.9,150.91h97.22c12.83-65.36,61.73-273.34,199.13-493.79C1192.25,991.23,1311.42,859.13,1450.81,752.07Z"/><path class="cls-4" d="M3576.64,1172.31a1449.85,1449.85,0,0,0-386.2-392.63Q3177.81,771,3165,762.61L2866.7,1659.55h918.23a1461.25,1461.25,0,0,0-208.29-487.24ZM3158.3,883.85,3156,882.1l-6.17-4.45-18.64-13.4a227.64,227.64,0,0,0,9.53-27.75c2.18,1.52,4.41,3.09,6.61,4.72L3166.51,855l6.3,4.56,2.34,1.8Zm77.26,63.29-7.84-6.95-8-7.13c-3-2.57-6.25-5.19-9.46-7.88l-17.77-14.69c-2.43-2-4.42-3.7-5.87-4.82l-2.28-1.76,17.47-22,2.34,1.8c1.48,1.15,3.52,2.89,6,4.93l18.18,15c3.3,2.75,6.64,5.44,9.69,8.07s5.82,5.15,8.22,7.29l8,7.11Zm72,69.27L3284,992.48c-1.48-1.48-2.91-3-4.42-4.43l-4.39-4.17-7.79-7.4-7.6-7.22,19.23-20.5,7.78,7.39,8,7.56,4.5,4.27c1.53,1.44,3,3,4.51,4.53,12,12.24,24,24.47,24,24.47Zm64.43,72.65-2.06-2.59-2.79-3.27c-4.1-4.78-9.55-11.16-15-17.53l-8-9.37-3.69-4.31c-1.22-1.32-2.37-2.58-3.43-3.74l-7.1-7.73,20.81-18.9,7.24,7.9,3.51,3.82,3.78,4.4,8.19,9.56,15.33,17.91,2.85,3.33c.82,1,1.53,1.91,2.11,2.65l1.84,2.3-21.75,17.81Zm56.29,73.3c-1.74-2.62-4-5.5-6.36-8.68l-7.37-9.9-13.79-18.53c-1.85-2.54-3.51-4.58-4.66-6l-1.8-2.26,22.17-17.28s.68.84,1.84,2.3,2.87,3.54,4.75,6.15L3437.1,1127l7.51,10.1c2.37,3.24,4.71,6.18,6.49,8.85l6.1,8.8-23,16.2Zm55.45,83.35c-.82-1.36-1.7-2.82-2.64-4.36s-2-3.12-3.08-4.77c-2.13-3.31-4.42-6.84-6.69-10.37l-12.54-19.42-4.14-6.4L3453,1198l23.33-15.68,1.67,2.43,4.21,6.51,12.77,19.78,6.82,10.57,3.14,4.86,2.68,4.44,5.51,9.17-24,14.63Zm50,86.81c-3-5.56-7.14-12.87-11.22-20.23l-11.26-20.2-3.71-6.66-1.48-2.48,24.31-14.12,1.51,2.53c.9,1.63,2.2,4,3.77,6.77,3.12,5.6,7.29,13.07,11.45,20.55s8.37,14.91,11.4,20.57,4.91,9.49,4.91,9.49l-24.86,13.12Zm48,96.64c-.75-1.68-1.91-4-3.27-6.89l-10-20.89-10-20.89c-1.33-2.86-2.63-5.15-3.45-6.8l-1.33-2.57,25.11-12.64,1.35,2.61c.84,1.67,2.14,4,3.5,6.91,2.77,5.79,6.46,13.5,10.14,21.21s7.38,15.43,10.14,21.22c1.38,2.9,2.56,5.3,3.32,7l1.19,2.69-25.56,11.69S3582.42,1430.85,3581.67,1429.16Zm27.72,63.81c-1.58-3.91-3.17-7.81-4.66-11.46s-3.06-7-4.32-9.89c-2.55-5.78-4.26-9.63-4.26-9.63l25.77-11.24,4.32,9.77c1.28,2.94,2.83,6.34,4.39,10l4.72,11.62c6.43,15.83,12.87,31.66,12.87,31.66l-26.14,10.35S3615.74,1508.57,3609.39,1493Zm47.32,125.43s-1.35-4-3.4-10c-1-3-2.21-6.48-3.49-10.22s-2.6-7.74-4.12-11.67c-5.89-15.79-11.79-31.58-11.79-31.58l26.3-9.94s6,16,11.94,32c1.54,4,2.89,8,4.19,11.82l3.53,10.36c2.07,6.06,3.44,10.09,3.44,10.09Z"/><path class="cls-4" d="M3731.31,2492.36h-1.09L3717,2529.88Q3724.39,2511.19,3731.31,2492.36Z"/><path class="cls-4" d="M3612.79,2588.91c-1.89,4.07-3.64,7.87-5.16,11.12-3,6.51-5,10.86-5,10.86L3577.14,2599l4.94-10.65,4.73-10.17-644.89-6.89-491.83,866.12a1398.46,1398.46,0,0,0,497.47-113,1423.23,1423.23,0,0,0,242.88-134,1449.85,1449.85,0,0,0,386.2-392.63,1462.44,1462.44,0,0,0,119.59-218.4l-78.9-.85C3615.8,2582,3614.31,2585.59,3612.79,2588.91Zm-1023.71,751c-3.56.49-7.72,1-12.18,1.5s-9.22,1.12-14,1.6c-19,2.13-38.15,3.6-38.15,3.6l-2.24-28s18.71-1.44,37.36-3.51c4.67-.47,9.33-1.07,13.7-1.57s8.45-1,11.94-1.46l11.63-1.52,3.8,27.85S2596.21,3339,2589.08,3339.92Zm121-20.74c-2,.46-5,1.11-8.48,1.81-7,1.41-16.41,3.45-25.83,5.16l-13.82,2.6-12.09,2.1-8.55,1.47c-2.07.32-3.25.52-3.25.52l-4.53-27.75,3.19-.51,8.39-1.45,11.85-2.05,13.55-2.55c9.23-1.68,18.41-3.68,25.31-5.06,3.46-.69,6.32-1.32,8.32-1.77l3.15-.7,6,27.47Zm110.46-28.52-8.33,2.44-11.77,3.45c-4.3,1.28-8.93,2.48-13.55,3.77l-13.57,3.71-11.88,3-8.41,2.15c-2,.53-3.19.8-3.19.8l-6.72-27.3s1.13-.26,3.13-.78l8.24-2.11,11.64-3,13.3-3.64c4.52-1.26,9.06-2.44,13.27-3.69l11.54-3.39,8.16-2.39c2-.57,3.08-.94,3.08-.94l8.2,26.89S2822.5,3290.08,2820.5,3290.66Zm99.67-34.36-24.65,9.31-24.82,8.83-11.36,3.79-8.92-26.66,11.12-3.71,24.31-8.65,24.14-9.11,10.89-4.36,10.42,26.11S2926.85,3253.63,2920.17,3256.3Zm104.54-46-23.77,11.4c-8.68,4.06-17.45,7.92-24,10.91l-4.48,2c-1.34.58-2.51,1.07-3.48,1.48l-3,1.3-11.17-25.8,3-1.27,3.4-1.45,4.38-2c6.39-2.92,15-6.7,23.47-10.68l23.24-11.15,10.46-5.3,12.67,25.09Zm107.39-59.72-3.2,2-4.2,2.54-22.61,13.56-22.93,13c-3.11,1.8-5.78,3.16-7.62,4.17l-2.9,1.56-13.42-24.7,2.84-1.52c1.8-1,4.4-2.32,7.44-4.08l22.41-12.73,22.11-13.27,4.1-2.47,3.12-2L3120,3125l14.92,23.82Zm87.11-59.68-9.84,7.38-2.73,2.06-2.86,2-5.84,4.15-11.49,8.16-5.28,3.75-4.81,3.25-10,6.69-15.65-23.36,9.73-6.53,4.7-3.17,5.17-3.67,11.22-8,5.7-4,2.79-2,2.67-2,9.6-7.21c5.61-4.22,9.37-7,9.37-7l17.09,22.32Zm94.43-78.73c-1.54,1.43-3.7,3.52-6.36,5.93l-19.73,17.53c-1.8,1.58-3.56,3.21-5.37,4.72s-3.59,3-5.31,4.47l-9.42,7.9-9.19,7.72-17.78-21.78,9-7.53,9.19-7.72,5.19-4.35c1.76-1.48,3.49-3.07,5.25-4.62l19.26-17.11,8.55-8L3316,3010Zm74.24-75c-2.43,2.65-5.14,5.85-8.25,9.1l-9.7,10.23c-6.61,6.95-13.14,14-18.32,19l-8.5,8.46-19.78-20,8.3-8.26c5.06-4.88,11.44-11.75,17.89-18.54l9.48-10c3-3.17,5.69-6.31,8.05-8.9l7.82-8.73,21,18.67Zm72.66-88.15c-2.15,2.88-4.66,6.25-7.35,9.84-1.32,1.82-2.75,3.65-4.23,5.49l-4.45,5.6-16.39,20.65-7.73,9.17-21.57-18,7.55-9,16-20.18,4.34-5.48c1.45-1.79,2.85-3.58,4.14-5.36l7.18-9.62c4.2-5.64,7-9.39,7-9.39l22.65,16.65S3464.85,2843.27,3460.54,2849Zm64.36-94.3-6.44,10.46-1.8,2.91-1.92,2.93-3.93,6-14.48,22c-2,3-3.76,5.42-4.95,7.14l-1.89,2.71-23.13-16s.67-1,1.85-2.64,2.9-4.06,4.84-7l14.17-21.55,3.84-5.85L3493,2753l1.76-2.85,6.3-10.24,6.14-10,24,14.6Zm56-99.42c-.8,1.61-1.68,3.35-2.59,5.19s-1.9,3.78-3,5.74l-6.66,12.39c-4.56,8.42-9,16.91-12.52,23.17l-6,10.38-24.42-13.93,5.85-10.16c3.46-6.13,7.8-14.45,12.27-22.7l6.52-12.14c1.07-1.93,2-3.82,2.92-5.63l2.54-5.09c3.15-6.29,5.24-10.49,5.24-10.49l25.15,12.57Z"/><path class="cls-4" d="M1198.22,2592.8s-1-2.46-2.52-6.48l-106.36,1a1456.46,1456.46,0,0,0,290.59,425.5,1445.37,1445.37,0,0,0,211.61,177.5A1424.34,1424.34,0,0,0,1736,3277.44l17.18-75-1-.5c-1.87-.92-2.94-1.47-2.94-1.47l7.9-15.35,25.5-111.34H1630.76l87.57-492.53-503.11,4.91Zm467.36,526.74,9.85,6.33,4.78,3.06,5.42,3.27,11.77,7.12,6,3.62c2,1.2,3.91,2.36,5.83,3.43l10.44,5.93,10.19,5.78-13.65,24.58-10.45-5.92-10.69-6.08c-2-1.09-4-2.27-6-3.51l-6.12-3.71-12.06-7.29-5.55-3.36-4.89-3.13-10.1-6.49Zm-90.66-65,2.51,2c1.62,1.26,3.84,3.16,6.66,5.26l20.5,15.59c7.59,5.48,15.18,11,20.88,15.07l3.88,2.8,3.06,2.08,2.66,1.81-16,23.12-2.73-1.85-3.13-2.13-4-2.87L1587.84,3100l-21-16c-2.89-2.15-5.17-4.1-6.82-5.39l-2.58-2.06ZM1491.17,2981s.84.81,2.3,2.25,3.52,3.51,6.11,5.89l18.85,17.54c7,6.22,14,12.44,19.26,17.1l8.92,7.57-18.19,21.43-9.15-7.76-19.74-17.53-19.32-18c-2.66-2.43-4.74-4.59-6.26-6s-2.36-2.31-2.36-2.31ZM1415,2899.41l7.6,8.91,3.68,4.31,4.22,4.73,9.15,10.27c3.09,3.52,6.31,6.92,9.31,10.13l8.18,8.78,3.27,3.5c1,1,1.86,1.91,2.58,2.65l2.25,2.3L1445,2974.52l-2.31-2.36c-.73-.76-1.63-1.66-2.65-2.71s-2.12-2.28-3.34-3.6l-8.39-9c-3.06-3.3-6.37-6.78-9.53-10.39l-9.38-10.52-4.31-4.84-3.78-4.42-7.78-9.13Zm-66-85.9c1.18,1.67,2.8,4.11,4.86,7s4.44,6.18,7,9.74,5.27,7.39,8.11,11.11c5.64,7.48,11.19,15,15.58,20.51s7.22,9.22,7.22,9.22l-22,17.47-7.39-9.45c-4.5-5.62-10.18-13.35-16-21-2.91-3.81-5.68-7.73-8.31-11.38s-5.08-7-7.18-10-3.77-5.41-5-7.13l-1.87-2.72,23.11-16S1347.82,2811.83,1349,2813.51Zm-55.19-87.11c1.72,3.07,3.8,6.6,6,10.37s4.62,7.81,7,11.85c4.92,8,9.73,16,13.57,21.9l6.3,9.87-23.6,15.28-6.45-10.11c-3.93-6-8.85-14.27-13.89-22.43l-7.18-12.13c-2.29-3.87-4.43-7.48-6.18-10.63-3.54-6.26-5.91-10.43-5.91-10.43l24.53-13.73Zm-39.88-76c4.09,8.43,8.18,16.86,11.39,23.11l3.83,7.57,1.49,2.85-25,12.94-1.52-2.92c-1-1.87-2.31-4.55-3.93-7.76-3.29-6.41-7.48-15-11.67-23.68-8.29-17.32-15.92-35-15.92-35l25.77-11.22S1245.84,2633.52,1253.92,2650.41Z"/><path class="cls-4" d="M1834.42,645.66a1422.49,1422.49,0,0,0-242.88,134,1449.85,1449.85,0,0,0-386.2,392.63,1461.25,1461.25,0,0,0-208.29,487.24h885.14l178-1001.32A223,223,0,0,0,2055,686l-7.69,2.05L2039.88,661l10.34-2.76,10.49-2.8,15.79-88.8A1401.68,1401.68,0,0,0,1834.42,645.66Zm-691.88,939.93c-.47,1.77-1.13,4.3-1.93,7.33-1.59,6.07-3.6,14.19-5.51,22.31s-3.64,16.25-4.85,22.33c-.61,3-1.07,5.55-1.39,7.29l-.47,2.75-27.71-4.71.52-3c.34-1.9.84-4.6,1.48-7.8,1.27-6.4,3.08-14.86,5-23.25s4-16.75,5.69-23c.82-3.11,1.5-5.71,2-7.53l.78-2.85,27.14,7.34S1143,1583.82,1142.54,1585.59Zm30-95.23c-.65,1.72-1.52,4.19-2.55,7.17s-2.26,6.43-3.57,10.14-2.59,7.69-3.94,11.67c-5.31,15.91-10.17,32-10.17,32l-26.91-8.15s5-16.43,10.41-32.7c1.37-4.07,2.74-8.13,4-11.94s2.58-7.33,3.64-10.37,2-5.56,2.61-7.32l1-2.77,26.42,9.59Zm34.4-85.73c-2.6,5.74-5.84,13.49-9.18,21.19-3.19,7.76-6.45,15.5-8.76,21.35l-3.87,9.75L1159,1446.66l4-10c2.36-6,5.69-13.88,9-21.81s6.71-15.78,9.37-21.63l4.37-9.78,25.62,11.57Zm43.83-89.89c-2.92,5.58-6.88,13-10.71,20.45s-7.63,15-10.35,20.63l-4.58,9.44-25.33-12.2,4.67-9.64c2.79-5.79,6.73-13.4,10.57-21.06s8-15.19,10.94-20.88l5.12-9.42,24.68,13.47Zm50.49-86.29c-1.73,2.63-3.67,5.75-5.73,9.1s-4.28,6.91-6.5,10.47-4.38,7.16-6.38,10.55l-5.5,9.25c-3.24,5.39-5.29,9.06-5.29,9.06l-24.34-14.07s2.09-3.74,5.41-9.26c1.64-2.76,3.56-6,5.61-9.44s4.24-7.14,6.52-10.77l6.63-10.7c2.1-3.43,4.09-6.61,5.85-9.3l5.82-9,23.59,15.29Zm56.94-82.17c-3.83,5-8.71,11.82-13.69,18.57l-3.7,5.05-3.49,5-6.18,8.8-4.36,6.23c-1.06,1.5-1.63,2.38-1.63,2.38l-23.19-15.9s.59-.9,1.66-2.43,2.62-3.73,4.47-6.36l6.31-9,3.57-5.07,3.77-5.16c5.1-6.9,10.09-13.87,14-19s6.51-8.51,6.51-8.51L1364.6,1138Zm68.26-83c-1.25,1.34-3,3.31-5,5.68l-15.17,17.38-14.79,17.7c-2,2.4-3.67,4.45-4.8,5.89l-1.8,2.25L1363,1094.47l1.84-2.3c1.16-1.47,2.84-3.56,4.92-6l15.11-18.1c5.65-6.45,11.29-12.92,15.52-17.76,2.11-2.43,3.87-4.44,5.16-5.82l2-2.17,20.88,18.82S1427.73,1061.9,1426.49,1063.24Zm64.24-66.3c-2.27,2.17-5,4.67-7.77,7.41l-8.73,8.7c-5.93,5.93-11.91,11.81-16.2,16.41l-7.25,7.58-20.37-19.38,7.41-7.75c4.4-4.7,10.51-10.72,16.58-16.78l8.93-8.9c2.87-2.8,5.62-5.37,7.94-7.59,4.67-4.43,7.77-7.39,7.77-7.39l19.28,20.46Zm74.89-66.09c-4.85,4-11.4,9.25-17.8,14.66l-17.47,15.06c-1.2,1-2.29,2-3.26,2.8l-2.45,2.22-2.14,1.93-18.71-21,2.19-2,2.51-2.27,3.32-2.87,17.88-15.4c6.55-5.54,13.25-10.9,18.21-15l8.31-6.79,17.52,22Zm86.32-64c-1.55,1-3.71,2.47-6.28,4.28l-18.92,13.2c-3.47,2.36-6.81,4.9-10,7.22l-8.65,6.38-8.43,6.21-16.94-22.43,8.64-6.37,8.85-6.52c3.25-2.37,6.67-5,10.21-7.38l19.35-13.5c2.63-1.85,4.84-3.37,6.42-4.39l2.46-1.61,15.68,23.33Zm85-52.49c-1.61.87-3.91,2.14-6.61,3.75l-19.9,11.65-5.41,3.16-5.15,3.2-9.12,5.67c-5.35,3.32-8.9,5.54-8.9,5.54l-15-23.75,9.1-5.67,9.33-5.79,5.27-3.27,5.53-3.23,20.35-11.92c2.76-1.65,5.1-2.94,6.75-3.83l2.59-1.42,13.75,24.52S1738.56,813.44,1737,814.33Zm88.9-45.67L1819,772l-20.79,10c-3.81,1.77-7.52,3.75-11,5.54l-9.56,4.92-9.32,4.81-13.11-24.87,9.53-4.91,9.76-5c3.58-1.84,7.37-3.85,11.25-5.67L1807,746.54l7-3.37,2.69-1.21,11.8,25.51Zm85.14-36-10,3.87c-3.66,1.44-7.62,2.84-11.47,4.51l-31,12.92-11.17-25.79L1879,715c3.94-1.7,8-3.14,11.71-4.61l10.25-3.95,10-3.85,9.88,26.32Zm94.59-32.57c-6.07,1.69-14,4.42-22,7s-16,5.15-22,7.17l-9.9,3.51-9.26-26.55,10.09-3.58c6.09-2.06,14.25-4.64,22.39-7.3s16.26-5.39,22.44-7.12l10.27-3,8,26.95Z"/><path class="cls-5" d="M1642.09,3689.15l-.18-.08-26.37,115-54.93-27.28,25.72-113c-455.74-215.55-809.64-611.19-969.86-1095.07H962c8.66,27.57,23.58,70.36,46.81,123.22,37.53,85.38,104.91,214.35,212.77,343.86,119.73,143.76,264.24,259.25,429.55,343.39,2.24,1.13,4.46,2.29,6.7,3.41q24.08,12.09,48.73,23.29l10.37-45.28,1.88-8.21c-208.51-96.92-355.46-229.18-455.23-348.56-104.13-124.6-169.29-248.83-205.62-331.1-19.35-43.85-32.81-80.76-41.51-107.08l-19.08-67.58-922-1.36V2176.91H3.31v391.91H512.6a1979.68,1979.68,0,0,0,251.84,526,1991,1991,0,0,0,851.23,709.66Z"/><polygon class="cls-5" points="21.09 1608.16 396.78 1608.16 396.78 1587.07 21.09 1587.07 10.54 1587.07 0 1587.07 0 2084.93 21.09 2084.93 21.09 1608.16"/><polygon class="cls-5" points="4783.9 1585.09 4773.35 1585.09 4397.65 1585.09 4397.65 1606.18 4773.35 1606.18 4773.35 2082.95 4794.44 2082.95 4794.44 1585.09 4783.9 1585.09"/><path class="cls-5" d="M1657.84,3382.7c-2.24-1.12-4.46-2.28-6.7-3.42l-64.81,284.61-25.72,113,54.93,27.28,26.37-115,75.26-328.31-.23-.05L1706.57,3406Q1681.91,3394.79,1657.84,3382.7Z"/><path class="cls-5" d="M2236,3950.46l63.09-111L2466,3545.86c-19.11.81-35.39,1.07-48.49,1.07-12.66,0-22.32-.25-28.7-.48L2225.17,3834.9l-64.38,113.5Z"/><path class="cls-5" d="M4713.34,2492.36H3779L3760.57,2551c-202.08,510.82-556.16,739.91-821.73,842.34-155.64,60-298.29,84-390.55,93.63a1285.93,1285.93,0,0,1-130.45,7.22l-29.68,52.26.64,0c6.38.23,16,.48,28.7.48,13.09,0,29.38-.26,48.49-1.07,24.23-1,53-2.91,85.6-6.24,95.4-9.78,242.93-34.41,404.1-96.29,181.37-69.64,342.68-171.27,479.43-302.06,160.34-153.36,287-347.25,376.83-576.86h331.14c-243.42,741.41-941.2,1276.79-1764,1276.79q-40.18,0-80-1.71l-63.09,111-75.2-2.06,64.38-113.49-.18,0-67.71,119.24A2011.09,2011.09,0,0,0,2410.44,3970c268,0,527.94-52.49,772.67-156A1986.91,1986.91,0,0,0,4309.63,2564.41H4785.4V2172.5h-72.06v319.86Z"/><path class="cls-5" d="M125.38,2410.66H4672.12V1694.3H125.38Zm73.81-642.55H4598.31v486.41H199.19Zm0,512.77H4598.31v56H199.19Z"/><polygon class="cls-3" points="2009.89 2929.67 1693.12 4306.07 1739.87 4220.32 2049.73 2929.67 2009.89 2929.67"/><path class="cls-5" d="M1195.7,2586.32c-2.63-6.84-6.89-18.18-10.83-29.68-3.14-9.12-6.1-18.34-8.19-25.35-1.06-3.49-1.9-6.45-2.48-8.55l-.88-3.27,27.16-7.23.82,3c.52,1.9,1.3,4.66,2.3,8,2,6.62,4.83,15.47,7.86,24.28,6,17.63,12.93,35,12.93,35l-9.17,3.6,503.11-4.91,168.28-1.64-59.76,334.6-2.77,15.5h158.76L1646,4393.6,1577,4693,2788.36,2569.62l153.56,1.64,644.89,6.89c.11-.25.23-.49.34-.73,1.82-4,3.61-8.35,5.49-12.66,3.7-8.63,7.41-17.26,10.19-23.73.69-1.62,1.33-3.1,1.9-4.42s1-2.49,1.36-3.44l1.19-3,26,10.61-1.21,3.06c-.39,1-.86,2.15-1.39,3.51l-1.94,4.5L3618.38,2576l-1.05,2.45,78.89.85h1.36l1.88,0,17.49-49.47,13.27-37.52,1.85-5.26H2835.76l-47.44,82.49H2434.5l21.81-82.49H2322L2286.39,2596h338.9l-837,1535.49,294.85-1228.13H1935.3l75.49-416.21H1984l-75.49,416.21h-52.94l57.87-324h.11l16.36-92.21h-26.78l0,.16-853.58-.16,36,100.29m607.56,1718.68,316.77-1376.4h39.84L1739.87,4220.33Z"/><path class="cls-5" d="M1211.46,2547.51c-3-8.81-5.87-17.66-7.86-24.28-1-3.31-1.78-6.06-2.3-8l-.82-3-27.16,7.23.88,3.27c.58,2.11,1.42,5.06,2.48,8.56,2.09,7,5.06,16.22,8.19,25.35,3.94,11.49,8.2,22.83,10.83,29.67,1.54,4,2.52,6.48,2.52,6.48l17-6.67,9.17-3.6S1217.5,2565.14,1211.46,2547.51Z"/><path class="cls-5" d="M1228.55,2662.52c4.19,8.64,8.38,17.27,11.67,23.68,1.62,3.21,3,5.89,3.93,7.76l1.52,2.92,25-12.94s-.55-1-1.5-2.85l-3.83-7.57c-3.21-6.25-7.3-14.68-11.39-23.11-8.08-16.89-15.52-34.07-15.52-34.07l-25.77,11.22S1220.26,2645.2,1228.55,2662.52Z"/><path class="cls-5" d="M1269.41,2740.37c1.75,3.15,3.89,6.76,6.18,10.63l7.18,12.13c5,8.16,10,16.4,13.89,22.43l6.45,10.11,23.6-15.28-6.3-9.87c-3.84-5.89-8.64-13.93-13.57-21.9-2.38-4-4.77-8.07-7-11.84s-4.32-7.31-6-10.38l-5.77-10.19-24.53,13.73S1265.87,2734.11,1269.41,2740.37Z"/><path class="cls-5" d="M1325.92,2829.58c1.21,1.72,2.88,4.21,5,7.13s4.55,6.33,7.18,10,5.4,7.57,8.31,11.38c5.78,7.66,11.46,15.39,16,21l7.4,9.45,22-17.47s-2.89-3.68-7.22-9.22-9.94-13-15.58-20.51c-2.85-3.72-5.55-7.55-8.12-11.11l-7-9.74c-2.06-2.85-3.68-5.29-4.86-7s-1.83-2.65-1.83-2.65l-23.11,16S1324.74,2827.85,1325.92,2829.58Z"/><path class="cls-5" d="M1405.12,2931.11l4.31,4.84,9.38,10.52c3.16,3.61,6.47,7.09,9.53,10.39l8.39,9,3.35,3.6c1,1.05,1.91,2,2.64,2.71l2.31,2.36,20.23-19.53-2.25-2.3-2.58-2.65-3.27-3.5-8.18-8.78c-3-3.21-6.22-6.61-9.31-10.13l-9.15-10.27-4.22-4.73-3.68-4.31-7.6-8.91-21.46,18.15,7.78,9.13Z"/><path class="cls-5" d="M1480.21,3009.47l19.32,18,19.74,17.52c5.48,4.66,9.15,7.76,9.15,7.76l18.19-21.42-8.93-7.57-19.25-17.1-18.86-17.54c-2.58-2.38-4.62-4.48-6.1-5.9l-2.3-2.25-19.58,20.17,2.36,2.31C1475.46,3004.88,1477.55,3007,1480.21,3009.47Z"/><path class="cls-5" d="M1566.83,3084l21,16,21.39,15.45,4,2.87,3.13,2.13,2.73,1.85,16-23.12-2.66-1.81-3.06-2.08-3.88-2.8c-5.7-4.1-13.29-9.59-20.88-15.07l-20.5-15.59c-2.82-2.1-5-4-6.66-5.26l-2.51-2-17.49,22,2.58,2.06C1561.66,3079.94,1563.94,3081.89,1566.83,3084Z"/><path class="cls-5" d="M1665.34,3152.79l5.55,3.36,12.06,7.29,6.12,3.71c2,1.24,4,2.42,6,3.51l10.69,6.08,10.45,5.92,13.64-24.58-10.18-5.78-10.44-5.93c-1.92-1.07-3.87-2.23-5.83-3.43l-6-3.62-11.78-7.12-5.41-3.27-4.78-3.06-9.85-6.33-15.23,23.63,10.09,6.49Z"/><path class="cls-5" d="M1752.21,3201.9l1,.5s0,0,.06,0q2.23-10.29,5.44-20.31l-1.53,3-7.9,15.34S1750.34,3201,1752.21,3201.9Z"/><path class="cls-5" d="M2585.53,3312c-3.49.48-7.56,1-11.94,1.47s-9,1.1-13.7,1.57c-18.65,2.07-37.36,3.51-37.36,3.51l2.24,28s19.11-1.46,38.15-3.59c4.76-.48,9.52-1.09,14-1.6s8.62-1,12.18-1.5l11.88-1.54-3.8-27.86Z"/><path class="cls-5" d="M2704.1,3291.7c-2,.45-4.87,1.08-8.32,1.77-6.9,1.38-16.08,3.38-25.32,5.06l-13.55,2.55-11.85,2.05-8.38,1.45-3.19.51,4.53,27.75s1.18-.2,3.25-.52l8.55-1.47,12.09-2.1,13.82-2.6c9.42-1.71,18.78-3.75,25.82-5.16,3.53-.7,6.45-1.35,8.49-1.81l3.21-.71-6-27.47Z"/><path class="cls-5" d="M2812.36,3263.74l-8.16,2.39-11.54,3.39c-4.21,1.25-8.75,2.43-13.27,3.69s-9,2.47-13.29,3.64l-11.65,3c-3.41.86-6.25,1.6-8.24,2.11s-3.13.78-3.13.78l6.72,27.3s1.17-.27,3.19-.8l8.41-2.15,11.89-3,13.56-3.71c4.62-1.29,9.25-2.49,13.55-3.77l11.78-3.45,8.32-2.44c2-.58,3.14-1,3.14-1l-8.19-26.89S2814.33,3263.17,2812.36,3263.74Z"/><path class="cls-5" d="M2910,3230.1l-24.14,9.11-24.31,8.65-11.12,3.71,8.92,26.66,11.36-3.79,24.82-8.83,24.65-9.31,11.13-4.44-10.42-26.11S2916.52,3227.48,2910,3230.1Z"/><path class="cls-5" d="M3012.26,3185.13,2989,3196.28c-8.5,4-17.08,7.76-23.48,10.68l-4.37,2-3.4,1.45-3,1.27,11.16,25.8,3-1.29,3.48-1.49,4.47-2c6.54-3,15.32-6.85,24-10.91l23.76-11.4,10.69-5.42-12.67-25.1Z"/><path class="cls-5" d="M3117.23,3126.77l-3.11,2-4.11,2.47-22.1,13.27-22.41,12.73c-3,1.76-5.64,3.1-7.44,4.08l-2.84,1.52,13.42,24.7s1.06-.56,2.9-1.56,4.51-2.37,7.62-4.17l22.92-13,22.61-13.56,4.21-2.54,3.19-2,2.78-1.76L3120,3125Z"/><path class="cls-5" d="M3202.33,3068.47l-9.6,7.21-2.68,2-2.78,2-5.7,4-11.23,8-5.16,3.67-4.7,3.17-9.73,6.53,15.65,23.36,9.95-6.69,4.82-3.25,5.28-3.76,11.49-8.15,5.84-4.15,2.86-2,2.73-2.06,9.84-7.38,9.58-7.19-17.09-22.32S3207.94,3064.25,3202.33,3068.47Z"/><path class="cls-5" d="M3288.34,2997.38l-19.26,17.11c-1.76,1.55-3.49,3.14-5.25,4.62l-5.19,4.35-9.19,7.72-9,7.53,17.78,21.78,9.19-7.72,9.42-7.9c1.72-1.46,3.5-2.94,5.31-4.47s3.57-3.14,5.37-4.72l19.73-17.53c2.66-2.41,4.82-4.5,6.36-5.93l2.4-2.25-19.14-20.58Z"/><path class="cls-5" d="M3367.05,2918.3c-2.36,2.6-5,5.73-8.05,8.9s-6.25,6.59-9.48,10c-6.45,6.79-12.83,13.66-17.89,18.54l-8.3,8.26,19.78,20,8.5-8.46c5.18-5,11.71-12,18.32-19l9.69-10.23c3.12-3.25,5.83-6.45,8.26-9.1l8-8.94-21-18.67Z"/><path class="cls-5" d="M3438.06,2832.16l-7.18,9.62c-1.29,1.78-2.69,3.57-4.14,5.37l-4.35,5.47-16,20.18-7.55,9,21.57,18,7.72-9.17c4.48-5.63,10.44-13.14,16.4-20.65,1.5-1.88,3-3.75,4.45-5.6s2.91-3.67,4.23-5.49c2.69-3.59,5.19-7,7.34-9.84l7.18-9.61-22.64-16.65S3442.26,2826.52,3438.06,2832.16Z"/><path class="cls-5" d="M3501,2739.91l-6.3,10.24L3493,2753l-1.89,2.87-3.84,5.85-14.17,21.55c-1.94,2.94-3.68,5.3-4.84,7s-1.85,2.64-1.85,2.64l23.13,16,1.89-2.7c1.19-1.73,3-4.15,4.95-7.14l14.48-22,3.93-6,1.92-2.93,1.8-2.91,6.44-10.46,6.28-10.2-24-14.6Z"/><path class="cls-5" d="M3555.89,2642.53l-2.54,5.09c-.89,1.81-1.85,3.7-2.91,5.63-2.09,3.87-4.31,8-6.53,12.14-4.47,8.25-8.81,16.57-12.27,22.7l-5.85,10.16,24.42,13.93,6-10.38c3.53-6.26,8-14.75,12.52-23.17,2.27-4.22,4.54-8.43,6.66-12.39,1.08-2,2.07-3.9,3-5.74s1.79-3.58,2.59-5.19l5.35-10.7L3561.14,2632Z"/><path class="cls-5" d="M3577.14,2599l25.46,11.92s2-4.35,5-10.86l5.16-11.12c1.52-3.32,3-6.87,4.54-10.44l1.05-2.45,10.39-24.17,1.94-4.5c.53-1.35,1-2.54,1.39-3.51l1.21-3.06-26-10.61s-.44,1.09-1.19,3c-.38.95-.84,2.11-1.36,3.44l-1.9,4.42c-2.78,6.47-6.49,15.1-10.19,23.73-1.88,4.31-3.67,8.65-5.49,12.66-.11.24-.23.48-.34.73l-4.73,10.17Z"/><path class="cls-5" d="M1115.39,1578.32l-2,7.53c-1.64,6.24-3.71,14.59-5.69,23s-3.77,16.85-5,23.25c-.64,3.2-1.14,5.89-1.48,7.8l-.52,3,27.71,4.72.47-2.75c.32-1.74.78-4.25,1.39-7.3,1.21-6.07,2.94-14.2,4.85-22.32s3.92-16.24,5.51-22.31c.8-3,1.46-5.56,1.93-7.33s.76-2.78.76-2.78l-27.13-7.34S1115.88,1576.5,1115.39,1578.32Z"/><path class="cls-5" d="M1146.12,1480.82c-.65,1.75-1.54,4.28-2.61,7.32s-2.3,6.57-3.64,10.37-2.66,7.87-4,11.94c-5.44,16.27-10.41,32.7-10.41,32.7l26.91,8.15s4.86-16,10.17-32c1.35-4,2.69-7.95,3.94-11.67s2.52-7.18,3.57-10.15,1.9-5.44,2.55-7.16l1-2.72-26.42-9.59Z"/><path class="cls-5" d="M1181.26,1393.26c-2.65,5.85-6,13.76-9.37,21.63s-6.59,15.83-9,21.81l-4,10,26.17,10.26,3.87-9.75c2.31-5.85,5.57-13.59,8.76-21.35,3.34-7.7,6.58-15.45,9.18-21.19l4.28-9.58-25.62-11.57Z"/><path class="cls-5" d="M1226,1301.48c-3,5.69-7,13.26-10.94,20.88s-7.78,15.27-10.57,21.06-4.67,9.64-4.67,9.64l25.33,12.2,4.58-9.44c2.72-5.68,6.59-13.13,10.35-20.63s7.79-14.87,10.71-20.45l5-9.21-24.68-13.46Z"/><path class="cls-5" d="M1277.57,1213.34c-1.76,2.69-3.75,5.87-5.85,9.3l-6.63,10.7c-2.28,3.63-4.48,7.31-6.52,10.77l-5.61,9.44c-3.32,5.52-5.41,9.26-5.41,9.26l24.34,14.07s2-3.67,5.29-9.06l5.5-9.25c2-3.39,4.14-7,6.38-10.55s4.43-7.13,6.5-10.47,4-6.47,5.73-9.1l5.69-8.82-23.59-15.29Z"/><path class="cls-5" d="M1335.77,1129.38c-3.91,5.11-8.9,12.08-14,19l-3.77,5.16-3.57,5.07-6.31,9c-1.85,2.63-3.38,4.82-4.47,6.36s-1.66,2.43-1.66,2.43l23.19,15.9s.57-.88,1.63-2.38l4.36-6.23,6.18-8.8,3.49-5,3.7-5.05c5-6.75,9.86-13.58,13.69-18.57l6.37-8.32-22.32-17.09S1339.67,1124.27,1335.77,1129.38Z"/><path class="cls-5" d="M1405.57,1044.47c-1.29,1.38-3,3.39-5.16,5.82-4.23,4.84-9.87,11.31-15.52,17.76l-15.11,18.1c-2.08,2.46-3.76,4.55-4.92,6l-1.84,2.3,21.87,17.67,1.8-2.25c1.13-1.44,2.77-3.49,4.8-5.89l14.79-17.7,15.17-17.38c2.06-2.38,3.79-4.34,5-5.68l2-2.12-20.88-18.82Z"/><path class="cls-5" d="M1471.27,976.64c-2.32,2.22-5.07,4.79-7.94,7.59l-8.93,8.9c-6.07,6.06-12.18,12.08-16.58,16.78l-7.41,7.75,20.37,19.38,7.25-7.58c4.29-4.6,10.27-10.48,16.2-16.41l8.73-8.7c2.81-2.74,5.5-5.24,7.77-7.41l7.59-7.23-19.27-20.46Z"/><path class="cls-5" d="M1547.9,909c-5,4.1-11.66,9.46-18.21,15l-17.88,15.4-3.32,2.87-2.51,2.27-2.19,2,18.71,21,2.14-1.93,2.45-2.22,3.26-2.81,17.47-15c6.4-5.41,13-10.65,17.8-14.66l8.11-6.63-17.52-22Z"/><path class="cls-5" d="M1636.21,843.52c-1.58,1-3.79,2.53-6.42,4.39l-19.35,13.5c-3.55,2.41-7,5-10.21,7.38l-8.85,6.52-8.64,6.36,16.93,22.44,8.44-6.21,8.65-6.38c3.17-2.32,6.51-4.86,10-7.22l18.92-13.2c2.57-1.81,4.73-3.29,6.27-4.28l2.41-1.58-15.67-23.34Z"/><path class="cls-5" d="M1723.15,789.84c-1.65.89-4,2.18-6.76,3.83L1696,805.59l-5.52,3.23-5.27,3.27-9.33,5.8-9.1,5.66,15,23.75,8.91-5.54,9.12-5.67,5.15-3.19,5.4-3.16,19.91-11.66c2.7-1.61,5-2.88,6.61-3.75l2.52-1.39-13.75-24.52Z"/><path class="cls-5" d="M1814,743.17l-7,3.37-21.24,10.23c-3.88,1.82-7.67,3.83-11.25,5.67l-9.76,5-9.53,4.91,13.11,24.86,9.32-4.8,9.56-4.93c3.49-1.79,7.2-3.76,11-5.54L1819,772l6.85-3.3,2.63-1.2-11.8-25.5Z"/><path class="cls-5" d="M1900.92,706.46l-10.24,3.95c-3.74,1.47-7.78,2.91-11.72,4.6l-31.64,13.19,11.17,25.8,31-12.92c3.85-1.67,7.81-3.07,11.47-4.51l10-3.87,9.79-3.77-9.88-26.32Z"/><path class="cls-5" d="M1997.38,673.24c-6.19,1.73-14.3,4.51-22.45,7.12s-16.3,5.24-22.39,7.3l-10.08,3.58,9.26,26.55,9.89-3.51c6-2,14-4.56,22-7.17s16-5.29,22-7l10.07-3-8-26.94Z"/><path class="cls-5" d="M2039.88,661l7.42,27.12L2055,686a223,223,0,0,1,5.23-27.81c.24-1,.45-1.92.71-2.87l-.11,0-.1,0-10.5,2.8Z"/><path class="cls-5" d="M3166.51,855l-19.16-13.78c-2.2-1.63-4.43-3.2-6.61-4.72a224.29,224.29,0,0,1-9.53,27.75l18.64,13.4,6.17,4.45,2.28,1.75,16.85-22.49-2.33-1.81Z"/><path class="cls-5" d="M3238,911.73c-3-2.64-6.39-5.32-9.69-8.07l-18.18-15c-2.49-2-4.53-3.78-6-4.93l-2.34-1.8-17.47,22,2.28,1.76c1.45,1.12,3.44,2.83,5.87,4.82l17.77,14.69c3.21,2.68,6.49,5.31,9.46,7.88l8,7.12,7.84,7,18.68-21-8-7.11Z"/><path class="cls-5" d="M3299.27,968l-4.5-4.27-8-7.56-7.78-7.39-19.23,20.5,7.6,7.22,7.79,7.4,4.39,4.17c1.51,1.41,2.94,3,4.42,4.43l23.52,23.93L3327.83,997l-24-24.47C3302.27,971,3300.81,969.42,3299.27,968Z"/><path class="cls-5" d="M3393.66,1071.19c-.58-.74-1.29-1.62-2.11-2.65l-2.85-3.33-15.33-17.91-8.19-9.56-3.78-4.4-3.5-3.82-7.25-7.9-20.8,18.9s2.83,3.1,7.09,7.73c1.06,1.16,2.21,2.42,3.43,3.74s2.41,2.82,3.7,4.31l8,9.37c5.47,6.37,10.92,12.75,15,17.53l2.79,3.27,2.06,2.59,1.81,2.24,21.74-17.81Z"/><path class="cls-5" d="M3451.1,1146c-1.79-2.67-4.12-5.61-6.49-8.85s-5-6.66-7.51-10.1L3423,1108.15c-1.88-2.61-3.57-4.69-4.75-6.15l-1.84-2.3L3394.26,1117l1.8,2.26c1.15,1.43,2.81,3.47,4.66,6l13.79,18.53,7.37,9.89c2.33,3.18,4.62,6.06,6.36,8.68l6,8.63,23-16.2Z"/><path class="cls-5" d="M3507.59,1230.92l-2.68-4.44-3.14-4.86-6.82-10.57-12.77-19.78-4.21-6.51-1.67-2.43L3453,1198l1.63,2.38,4.14,6.4,12.54,19.42,6.69,10.37c1.07,1.65,2.11,3.25,3.08,4.77s1.82,3,2.64,4.36l5.4,9,24-14.63Z"/><path class="cls-5" d="M3558.49,1319.25c-3-5.66-7.26-13.09-11.4-20.57s-8.33-14.94-11.45-20.55c-1.57-2.8-2.87-5.14-3.77-6.77l-1.51-2.53L3506.05,1283l1.48,2.48c.9,1.6,2.18,3.9,3.71,6.65l11.26,20.21c4.08,7.35,8.24,14.66,11.22,20.23l4.82,9.34,24.86-13.13Z"/><path class="cls-5" d="M3607.22,1417.43c-.77-1.7-1.94-4.1-3.32-7-2.76-5.79-6.45-13.5-10.14-21.22L3583.62,1368c-1.36-2.9-2.67-5.24-3.5-6.91l-1.35-2.61-25.11,12.64s.48.94,1.33,2.57,2.11,3.94,3.45,6.8l10,20.89,10,20.89c1.36,2.85,2.52,5.21,3.27,6.89l1.17,2.65,25.57-11.69Z"/><path class="cls-5" d="M3635.35,1482.17c-1.61-4-3.21-7.91-4.73-11.62s-3.1-7.09-4.39-10c-2.58-5.86-4.31-9.77-4.31-9.77L3596.15,1462s1.71,3.85,4.26,9.63c1.26,2.9,2.79,6.25,4.32,9.89s3.08,7.56,4.66,11.46c6.35,15.6,12.69,31.21,12.69,31.21l26.14-10.35S3641.78,1498,3635.35,1482.17Z"/><path class="cls-5" d="M3676.34,1588.84c-1.3-3.78-2.65-7.83-4.19-11.82l-11.94-32-26.3,9.94s5.9,15.79,11.79,31.58c1.52,3.93,2.85,7.93,4.12,11.67s2.47,7.22,3.49,10.22l3.4,10,26.6-9.1s-1.37-4-3.44-10.1Z"/><path class="cls-5" d="M96.13,1638.25H75v417.87H96.13V1659.58h833.6l-36-.29c.24-1.51,1.38-8.72,3.75-20.8H800.25c3.69-19.67,15.11-74.69,39.91-150.91a1705.51,1705.51,0,0,1,172.06-368.91C1171.1,863.73,1477.53,533.14,2035.15,405.9c1-.23,98.08-23.21,247.4-32.64,137.88-8.72,349.49-7.29,574.61,48.95,395.93,98.92,910.2,390.4,1115.69,1216.65h-75.78q2.67,10.52,5.28,21.09h801.44v396.81h21.09V1638.89h-20.76v0H4365.49a1976.2,1976.2,0,0,0-309-763.69A1990.87,1990.87,0,0,0,3183.11,156C2938.38,52.48,2678.42,0,2410.44,0s-527.93,52.48-772.66,156A1984.92,1984.92,0,0,0,455.46,1638.49H96.13ZM2379.05,128.62c320.62,0,622.25,81.28,885.41,224.37.8.43,1.59.88,2.4,1.31,4.76,2.69,39.07,22,45.66,25.77,1.85,1.08,3.71,2.15,5.56,3.24,453.75,266.61,784.17,720.54,885.05,1255.55h-214c-47.42-192-113.82-365.54-197.39-516C3715.13,985,3622.35,863.4,3516,761.58,3336.86,590,3116.48,470.7,2861,406.87c-100.29-25.06-206.29-41.51-315.07-48.91a2027.65,2027.65,0,0,0-264.38-.49c-150.67,9.52-249.11,32.82-250,33-248.47,56.7-468.73,157.86-654.66,300.67-148.76,114.27-276,255.29-378.09,419.13a1721.64,1721.64,0,0,0-173.67,372.39c-26.3,80.84-37.79,138.44-41,155.8H555C717.31,778.84,1472.25,128.62,2379.05,128.62Z"/><path class="cls-5" d="M2839.48,485.78q-17.71-4.42-35.3-8.39a1567,1567,0,0,1,256.28,82.32,1446.33,1446.33,0,0,0-172.73-61Q2863.84,491.86,2839.48,485.78Z"/><path class="cls-5" d="M3453.77,818.53a1297.46,1297.46,0,0,0-279.28-203.7l0,0-22.92,47h0c345.8,187.89,579.66,523.67,696,998.25h54.77a.94.94,0,0,0,0-.16q-2.59-10.59-5.28-21.09C3811.1,1301.61,3659.07,1015.11,3453.77,818.53Z"/><path class="cls-5" d="M2791.21,528.52l12.29-51.28c-391.1-88.14-725.73-10.09-739.92-6.68-232.48,53-438.64,147.75-612.77,281.51-139.39,107.06-258.56,239.16-354.21,392.63-137.39,220.45-186.29,428.43-199.12,493.79-2.37,12.08-3.51,19.29-3.75,20.8l36,.29,15.66.12c.36-2.27,39.34-236.6,197.12-489,145-232,424.6-532.82,933.09-648.85,3.46-.82,342.79-79.74,725.93,9q13.5,3.12,27.05,6.53,12.25,3.08,24.37,6.33h1.9C2814.46,532.6,2791.21,528.52,2791.21,528.52Z"/><path class="cls-5" d="M3174.53,614.85l0,0c-.83-.5-41.93-24.75-114-55.12a1567,1567,0,0,0-256.28-82.32l-.68-.15h0l-12.28,51.28s23.24,4.08,63.62,15.21h-604.6l-199.4,1116.38h26.78l194.69-1090h59.39l-197.7,1090h26.79l197.7-1090h580.59c2.83,1,5.69,2,8.59,3l-355.35,1087h138L3076.13,625.16c24.21,11,49.44,23.23,75.47,36.7h0Z"/><polyline class="cls-5" points="3699.47 2579.35 2788.33 2569.59 2835.76 2487.1 3732.08 2487.1"/><polyline class="cls-5" points="1886.61 2579.57 1085.56 2587.39 1049.52 2487.1 1577.49 2487.2 1596.25 2579.35"/><path class="cls-5" d="M2743.37,464.88s264.92,40.34,498.87,189.37l-33.42,40.68s-254.51-142.31-470.57-177.31"/><path class="cls-5" d="M1615.54,3804.12s-78.59-35.75-101.63-47.62l-23-11.88,37.64-109.32,57.82,28.59,64.81-284.6,3.68-18.58,55.82,27.49Z"/><path class="cls-5" d="M2417.84,3494.17l-260.56,460s75.94,8.19,84.43,8.88l74.5-122.87-18.1,1.06L2466,3545.86l4.65-16.35Z"/><polygon class="cls-5" points="945.38 1659.7 850.86 1659.7 852.19 1638.48 949.44 1638.86 945.38 1659.7"/><polygon class="cls-5" points="3906.52 1638.86 3880.19 1638.86 3882.86 1659.55 3914.52 1659.55 3906.52 1638.86"/><path class="cls-5" d="M293.49,2201.43h42.23c41.88,0,63.12-24.74,63.12-73.54V1821.81H343.51v307.12c0,14.92-5.62,21.87-17.7,21.87H305.48c-13.14,0-19.26-7-19.26-21.87V1821.81H230.89v305.56C230.89,2176.51,252,2201.43,293.49,2201.43Z"/><polygon class="cls-5" points="491.19 1981.77 523.36 2133.65 566.22 2133.65 598.38 1981.77 593.71 2201.43 649.1 2201.43 649.1 1821.81 589.05 1821.81 544.79 2031.67 500.53 1821.81 440.48 1821.81 440.48 2201.43 495.87 2201.43 491.19 1981.77"/><polygon class="cls-5" points="820.1 2150.79 746.07 2150.79 746.07 2031.47 811.76 2031.47 811.76 1980.83 746.07 1980.83 746.07 1872.44 820.1 1872.44 820.1 1821.81 690.74 1821.81 690.74 2201.43 820.1 2201.43 820.1 2150.79"/><rect class="cls-5" x="850.79" y="1821.81" width="55.33" height="379.63"/><path class="cls-5" d="M1091.17,2201.43h32.33c41.53,0,62.59-22.28,62.59-66.24v-26.63h-55.33v23c0,13.14-5.46,19.26-17.17,19.26h-12.51c-11.72,0-17.18-6.12-17.18-19.26V1891.7c0-13.13,5.46-19.25,17.18-19.25h9.9c13.5,0,19.78,6.12,19.78,19.25v41.23h55.33v-44.87c0-44-21.06-66.25-62.6-66.25h-32.32c-41.54,0-62.6,22.29-62.6,66.25v247.12C1028.57,2179.15,1049.63,2201.43,1091.17,2201.43Z"/><polygon class="cls-5" points="1275.25 2031.47 1331.49 2031.47 1331.49 2201.43 1386.82 2201.43 1386.82 1821.81 1331.49 1821.81 1331.49 1980.83 1275.25 1980.83 1275.25 1821.81 1219.92 1821.81 1219.92 2201.43 1275.25 2201.43 1275.25 2031.47"/><path class="cls-5" d="M1483.8,2050.23h25.47l32.84,151.2H1595l-35.18-157c19.45-9.6,29.31-31,29.31-63.54v-92.29c0-44.3-20.18-66.77-60-66.77H1428.46v379.63h55.34v-151.2Zm0-177.78H1514c13.5,0,19.78,7.77,19.78,24.47v80.81c0,16.7-6.29,24.47-19.78,24.47h-30.2Z"/><rect class="cls-5" x="1625.54" y="1821.81" width="55.33" height="379.63"/><path class="cls-5" d="M1731.56,2005.84c4.81,3.93,12.58,8.76,23.06,14.34l47.35,26.54a104.31,104.31,0,0,1,13.2,9.12c2.14,1.87,3.27,6,3.27,12.09v63.6c0,13.14-5.46,19.26-17.17,19.26h-8.87c-13.49,0-19.78-6.12-19.78-19.26v-23h-55.33V2130c0,47.42,21.06,71.46,62.6,71.46h30.76c41.89,0,63.12-22.11,63.12-65.72v-79.78c0-13.75-1.29-22.93-3.94-28.06a38.31,38.31,0,0,0-10.92-12.88c-4.43-3.36-12-8.08-22.5-14L1789,1975.44a103.16,103.16,0,0,1-13.14-9.09c-2.13-1.85-3.26-6-3.26-12.08v-62c0-13.49,5.95-19.77,18.73-19.77h7.82c13.14,0,19.26,6.28,19.26,19.77v35.49h55.33v-39.14c0-44.3-21.06-66.77-62.6-66.77h-31.28c-41.53,0-62.6,22.47-62.6,66.77v76.65c0,10,1.1,18.25,3.27,24.57A34.9,34.9,0,0,0,1731.56,2005.84Z"/><polygon class="cls-5" points="1939.92 2201.43 1995.25 2201.43 1995.25 1872.44 2043.21 1872.44 2043.21 1821.81 1891.95 1821.81 1891.95 1872.44 1939.92 1872.44 1939.92 2201.43"/><rect class="cls-5" x="2066.6" y="1821.81" width="55.33" height="379.63"/><path class="cls-5" d="M2216.3,2064.31h52.07v137.12h55.33V1888.57c0-44.3-21.06-66.76-62.6-66.76h-37.54c-41.54,0-62.6,22.46-62.6,66.76v312.86h55.34V2064.31Zm0-172.61c0-13.14,6.11-19.25,19.25-19.25h13.56c13.14,0,19.26,6.11,19.26,19.25v122h-52.08v-122Z"/><polygon class="cls-5" points="2418.06 1970.91 2466.49 2124.64 2466.49 2201.43 2521.82 2201.43 2521.82 1821.81 2466.49 1821.81 2466.49 1987.19 2417.39 1821.81 2362.73 1821.81 2362.73 2201.43 2418.06 2201.43 2418.06 1970.91"/><polygon class="cls-5" points="2702.21 2031.47 2758.45 2031.47 2758.45 2201.43 2813.78 2201.43 2813.78 1821.81 2758.45 1821.81 2758.45 1980.83 2702.21 1980.83 2702.21 1821.81 2646.87 1821.81 2646.87 2201.43 2702.21 2201.43 2702.21 2031.47"/><rect class="cls-5" x="2855.42" y="1821.81" width="55.33" height="379.63"/><path class="cls-5" d="M3010.29,2201.43H3111V2013.67h-81.4v50.64h26.07v86.49h-31.25c-8.27,0-19.25-2.54-19.25-24.48v-229.4c0-21.94,11-24.47,19.25-24.47h12.52c8,0,18.73,2.53,18.73,24.47v36H3111v-43.3c0-45-22.28-67.82-66.24-67.82H3010.3c-40.16,0-60.52,22.47-60.52,66.77v247.14C2949.79,2179.32,2970.14,2201.43,3010.29,2201.43Z"/><polygon class="cls-5" points="3201.67 2031.47 3257.91 2031.47 3257.91 2201.43 3313.25 2201.43 3313.25 1821.81 3257.91 1821.81 3257.91 1980.83 3201.67 1980.83 3201.67 1821.81 3146.34 1821.81 3146.34 2201.43 3201.67 2201.43 3201.67 2031.47"/><path class="cls-5" d="M3495.68,2201.43h30.77c41.88,0,63.11-22.11,63.11-65.72v-79.77c0-13.75-1.29-22.94-3.94-28.07A38.27,38.27,0,0,0,3574.7,2015c-4.43-3.36-12-8.07-22.5-14l-47.38-25.51a104.38,104.38,0,0,1-13.14-9.08c-2.13-1.86-3.26-6-3.26-12.09v-62c0-13.5,5.95-19.78,18.73-19.78H3515c13.14,0,19.26,6.28,19.26,19.78v35.48h55.33v-39.13c0-44.31-21.06-66.77-62.59-66.77h-31.29c-41.53,0-62.6,22.46-62.6,66.77v76.64c0,10,1.11,18.25,3.28,24.58a34.81,34.81,0,0,0,11,16c4.8,3.92,12.58,8.75,23.06,14.33l47.36,26.54a104.79,104.79,0,0,1,13.19,9.12c2.14,1.87,3.27,6.06,3.27,12.09v63.6c0,13.14-5.45,19.26-17.17,19.26h-8.86c-13.5,0-19.78-6.12-19.78-19.26v-23h-55.33V2130C3433.09,2177.39,3454.15,2201.43,3495.68,2201.43Z"/><path class="cls-5" d="M3686,2201.43h32.33c41.53,0,62.59-22.28,62.59-66.24v-26.63h-55.33v23c0,13.14-5.45,19.26-17.17,19.26h-12.51c-11.72,0-17.18-6.12-17.18-19.26V1891.7c0-13.13,5.46-19.25,17.18-19.25h9.9c13.5,0,19.78,6.12,19.78,19.25v41.23h55.33v-44.87c0-44-21.06-66.25-62.59-66.25H3686c-41.54,0-62.6,22.29-62.6,66.25v247.12C3623.38,2179.15,3644.44,2201.43,3686,2201.43Z"/><polygon class="cls-5" points="3870.06 2031.47 3926.3 2031.47 3926.3 2201.43 3981.63 2201.43 3981.63 1821.81 3926.3 1821.81 3926.3 1980.83 3870.06 1980.83 3870.06 1821.81 3814.73 1821.81 3814.73 2201.43 3870.06 2201.43 3870.06 2031.47"/><path class="cls-5" d="M4083.79,2201.43h46.92c41.89,0,63.13-22.28,63.13-66.24V1888.57c0-44.3-21.07-66.76-62.61-66.76h-48c-41.54,0-62.6,22.46-62.6,66.76v246.62C4020.67,2179.15,4041.9,2201.43,4083.79,2201.43ZM4076,1891.7c0-13.14,6.12-19.25,19.26-19.25h23.46c13.5,0,19.78,6.11,19.78,19.25v239.84c0,13.14-5.46,19.25-17.17,19.25h-25.55c-6.73,0-11.76-1.58-15-4.72s-4.81-8-4.81-14.54V1891.7Z"/><path class="cls-5" d="M4293.38,2201.43h46.92c41.88,0,63.12-22.28,63.12-66.24V1888.57c0-44.3-21.06-66.76-62.6-66.76h-48c-41.54,0-62.6,22.46-62.6,66.76v246.62C4230.26,2179.15,4251.49,2201.43,4293.38,2201.43Zm-7.79-309.73c0-13.14,6.12-19.25,19.26-19.25h23.46c13.5,0,19.78,6.11,19.78,19.25v239.84c0,13.14-5.46,19.25-17.18,19.25h-25.54c-6.73,0-11.76-1.58-15-4.72s-4.81-8-4.81-14.54V1891.7Z"/><polygon class="cls-5" points="4566.61 2150.79 4497.79 2150.79 4497.79 1821.81 4442.46 1821.81 4442.46 2201.43 4566.61 2201.43 4566.61 2150.79"/></g></g></g></svg>