<svg xmlns="http://www.w3.org/2000/svg" viewBox="0 0 243.85 87.92"><defs><style>.cls-1{fill:#3f465e;}.cls-2{opacity:0.5;}</style></defs><title>abstract_2</title><g id="Layer_2" data-name="Layer 2"><g id="Layer_1-2" data-name="Layer 1"><polygon class="cls-1" points="46.23 0 0 87.92 51.09 13.19 69.1 62.04 37.24 58.56 17.17 87.92 78.63 87.92 94.17 64.78 60.11 0 46.23 0"/><polygon class="cls-1" points="42.68 50.62 56.88 52.17 51.74 37.37 42.68 50.62"/><path class="cls-1" d="M118.22,40.86l-8.14-18.21h-4.16L97.81,40.86h4.32l1.61-3.9h8.45l1.61,3.9Zm-13.13-7.1,2.89-7,2.88,7Z"/><path class="cls-1" d="M136.81,35.89a4.49,4.49,0,0,0-3.33-4.5,4.37,4.37,0,0,0,2.42-4c0-2.84-2.34-4.74-6.89-4.74h-8.89V40.86h9.41C134.31,40.86,136.81,39,136.81,35.89ZM124.3,25.83h4.19c2,0,3.17.7,3.17,2.13s-1.12,2.16-3.17,2.16H124.3Zm0,11.85V33.19h4.92c2.18,0,3.35.72,3.35,2.26s-1.17,2.23-3.35,2.23Z"/><path class="cls-1" d="M146,37.79a10.67,10.67,0,0,1-6-1.9l-1.43,3.17A12.94,12.94,0,0,0,146,41.17c5.2,0,7.72-2.6,7.72-5.64,0-6.69-10.58-4.37-10.58-7.73,0-1.14,1-2.08,3.46-2.08a10.29,10.29,0,0,1,5,1.43l1.3-3.19a12.18,12.18,0,0,0-6.32-1.62c-5.17,0-7.67,2.58-7.67,5.67,0,6.76,10.58,4.42,10.58,7.83C149.52,37,148.51,37.79,146,37.79Z"/><polygon class="cls-1" points="170.14 22.66 154.28 22.66 154.28 26.09 160.1 26.09 160.1 40.85 164.32 40.85 164.32 26.09 170.14 26.09 170.14 22.66"/><path class="cls-1" d="M184.44,35a5.93,5.93,0,0,0,3.75-5.75c0-4.08-3.05-6.61-7.91-6.61H172.4V40.86h4.22V35.79h3.87L184,40.86h4.52Zm-4.39-2.58h-3.43V26.09h3.43c2.57,0,3.87,1.17,3.87,3.17S182.62,32.43,180.05,32.43Z"/><path class="cls-1" d="M203.5,37l1.61,3.9h4.42l-8.14-18.21h-4.16l-8.11,18.21h4.32l1.61-3.9Zm-4.21-10.17,2.88,7H196.4Z"/><path class="cls-1" d="M227.39,37.92l-2.7-2.5a5.81,5.81,0,0,1-4.58,2.16,5.58,5.58,0,0,1-5.82-5.83,5.58,5.58,0,0,1,5.82-5.82,5.87,5.87,0,0,1,4.58,2.13l2.7-2.49a9.38,9.38,0,0,0-7.48-3.23c-5.67,0-9.88,3.93-9.88,9.41s4.21,9.42,9.85,9.42A9.36,9.36,0,0,0,227.39,37.92Z"/><polygon class="cls-1" points="227.99 22.66 227.99 26.09 233.81 26.09 233.81 40.85 238.03 40.85 238.03 26.09 243.85 26.09 243.85 22.66 227.99 22.66"/><path class="cls-1" d="M115.55,54.44c0-1.82,1.49-3.3,4.81-3.3a9.33,9.33,0,0,1,5,1.51l.65-1.54a10.33,10.33,0,0,0-5.65-1.61c-4.62,0-6.7,2.31-6.7,5,0,6.74,11.2,3.67,11.2,8.66,0,1.79-1.48,3.22-4.89,3.22a8.9,8.9,0,0,1-6-2.21l-.76,1.49A9.9,9.9,0,0,0,120,68c4.66,0,6.79-2.29,6.79-5C126.76,56.42,115.55,59.43,115.55,54.44Z"/><polygon class="cls-1" points="127.83 51.32 134.22 51.32 134.22 67.86 136.15 67.86 136.15 51.32 142.54 51.32 142.54 49.66 127.83 49.66 127.83 51.32"/><path class="cls-1" d="M158.17,60c0,4.32-2,6.3-5.59,6.3S147,64.32,147,60V49.65h-1.93V60.08c0,5.23,2.83,7.93,7.49,7.93s7.46-2.7,7.46-7.93V49.65h-1.87Z"/><path class="cls-1" d="M173.25,49.65h-7.41V67.86h7.41c5.82,0,9.75-3.75,9.75-9.11S179.07,49.65,173.25,49.65Zm-.11,16.54h-5.38V51.32h5.38c4.84,0,8,3.07,8,7.43S178,66.19,173.14,66.19Z"/><rect class="cls-1" x="187.31" y="49.65" width="1.92" height="18.2"/><path class="cls-1" d="M203.12,49.5c-5.51,0-9.57,4-9.57,9.25S197.61,68,203.12,68s9.54-3.92,9.54-9.26S208.58,49.5,203.12,49.5Zm0,16.8a7.55,7.55,0,1,1,7.62-7.55A7.41,7.41,0,0,1,203.12,66.3Z"/><path class="cls-1" d="M217.58,54.44c0-1.82,1.48-3.3,4.81-3.3a9.32,9.32,0,0,1,5,1.51l.65-1.54a10.32,10.32,0,0,0-5.64-1.61c-4.63,0-6.71,2.31-6.71,5,0,6.74,11.21,3.67,11.21,8.66,0,1.79-1.49,3.22-4.89,3.22a8.92,8.92,0,0,1-6-2.21l-.75,1.49c1.35,1.4,4,2.36,6.76,2.36,4.65,0,6.78-2.29,6.78-5C228.78,56.42,217.58,59.43,217.58,54.44Z"/><polygon class="cls-2" points="69.1 62.04 70.2 87.92 78.63 87.92 69.1 62.04"/><polygon class="cls-2" points="55.35 24.74 60.11 0 51.09 13.19 55.35 24.74"/><polygon class="cls-2" points="69.1 62.04 70.2 87.92 78.63 87.92 69.1 62.04"/></g></g></svg>