<svg xmlns="http://www.w3.org/2000/svg" viewBox="0 0 2611.86 1632.09"><defs><style>.cls-1{fill:#7a625e;}.cls-2{fill:#634e4b;}.cls-3{fill:#99817f;}.cls-4{fill:#efe8e4;}.cls-5{fill:#e8e8e8;}.cls-6{fill:#c6afb6;}.cls-18,.cls-7,.cls-8{fill:#333;}.cls-7{opacity:0.7;}.cls-11,.cls-17,.cls-7,.cls-8{isolation:isolate;}.cls-8{opacity:0.25;}.cls-9{fill:#423836;}.cls-10,.cls-17{fill:#fff;}.cls-11{opacity:0.15;}.cls-12{fill:#f9e26e;}.cls-13{fill:#a38f47;}.cls-14{fill:#ccb554;}.cls-15{fill:#e2c759;}.cls-16{fill:#efbdd2;}.cls-17{opacity:0.3;}.cls-19{fill:#cecece;}</style></defs><title>cowlick</title><g id="Layer_2" data-name="Layer 2"><g id="Layer_1-2" data-name="Layer 1"><path class="cls-1" d="M707.19,259.53Q695.7,260,685,260.6,695.67,260,707.19,259.53Z"/><path class="cls-1" d="M908.21,229.82a88.18,88.18,0,0,1,10-.27l.07,0A91.92,91.92,0,0,0,908.21,229.82Z"/><path class="cls-1" d="M917,243a74.57,74.57,0,0,1,32.36,4.82,105,105,0,0,0-32.72,16.08h.08a105.19,105.19,0,0,1,32.72-16.08A74.63,74.63,0,0,0,917,243Z"/><path class="cls-1" d="M1396.82,631.93C1466,574.67,1502.39,517.71,1505,462.65c2.42-51-25.37-80.36-28.55-83.53l-5.08-5.09-6.84-2.22c-52.34-17.06-101-25.71-144.51-25.71-28.55,0-55.24,3.71-79.33,11a202.14,202.14,0,0,0-54,25.25c-2.24,1.51-4.39,3-6.43,4.52a164.45,164.45,0,0,0-19-25.32,303.32,303.32,0,0,0,37.42-54,293.12,293.12,0,0,0,33-100.2c6-43.17,2.38-88.35-10.64-134.3a69,69,0,0,0-4.91-14.39,49.25,49.25,0,0,0-10.64-14.93,39.29,39.29,0,0,0-27-10.89c-11.12,0-21.73,4.58-31.52,13.59-11.78,10.85-15.22,26.51-20.43,50.2-5.35,24.36-12.69,57.72-30.77,89a172.74,172.74,0,0,1-60.89,62.42l-48.44-18.39,54.73-26.58L919.24,199.4c-1.18,0-2.37-.05-3.54-.05-43.87,0-78.89,24.29-82.74,27.06l-.6.43c-4.47.82-15.31,2.16-38.17,2.16-14.12,0-25.73-.53-25.84-.54h-9.17c-132.26,0-205.93,17.91-227.88,24.26-22.5-2.78-42.26-9.5-60.24-20.47-17-10.36-31.91-24.22-45.64-42.37C399,155,383.42,112.16,370.8,77.73,364.33,60,358.7,44.61,352.44,32.57c-4.34-8.33-8.67-14.52-13.64-19.48C328,2.28,316.42,0,308.67,0h-.39C290.21.15,275,9,266.66,24.19a51.54,51.54,0,0,0-6.09,20.06c-9,73.44-4.4,139.29,13.82,195.72,12.69,39.31,31.9,74.07,57.21,103.6q-8.6-3.57-17.6-7c-73.28-27.89-136.23-42-187.12-42-77.42,0-104,32.65-108.53,39.19l-.45.65-.42.68C15.26,338.64-3.87,371.23.7,420.94c2.63,28.53,12.56,57,29.5,84.52,20.08,32.65,50.21,64.18,89.55,93.73a547.81,547.81,0,0,0,70.16,45.24c56.5,30.76,108.26,46.36,153.84,46.36h2.31s5.3-.24,13.93-.24c16.41,0,48.68.89,80.5,6.82,33.35,6.22,58.12,16.65,69.77,29.37l.24.26c.9,1.18,6.75,9.28,12.82,29S537,811.8,538.21,870c3,142.4,86.51,217.45,90.07,220.57l.29.26.3.25c1.67,1.39,41.27,34.36,84.6,64.86,26.64,18.75,34,35.62,35.18,38.66l.22,1.11v-.31c1,3.34,11.19,33.43,48.28,61.92,20.64,15.86,45.85,28.39,74.92,37.25,34.86,10.61,75.6,16,121.08,16,17.41,0,35.82-.8,54.71-2.36,72.19-6,133.67-19.32,182.73-39.67,41.14-17.06,74-39.19,97.73-65.76,28.9-32.38,37.58-63.73,40.08-82.18a239,239,0,0,0,53.59-71,227.07,227.07,0,0,0,23.75-101.49A232.31,232.31,0,0,0,1420,842.7l-30.12-58.55a121.94,121.94,0,0,0-39.19-44.73,129.11,129.11,0,0,0-57-21.85c-31.24-5-54.85-14.91-69.25-29,44.32-.6,87.45-10.09,125-27.54C1377.35,648,1393.44,634.84,1396.82,631.93ZM290.44,47.16a20.66,20.66,0,0,1,4.72-11.66,20.69,20.69,0,0,0-4.71,11.66c-8.36,67.19-4.13,121.94,7.52,166.49C286.31,169.1,282.08,114.35,290.44,47.16ZM308.57,30h.08l.37,0Zm905.52,370.83c-1.61.91-3.16,1.82-4.67,2.73C1210.93,402.65,1212.48,401.74,1214.09,400.83ZM1191.92,80.34S1188.7,62.67,1178.31,63l.3,0c10.19,0,13.37,17.4,13.37,17.4,53.15,185.6-79.22,287.23-79.22,287.24q3.18.31,6.5.55h0c-2.23-.16-4.42-.33-6.56-.55C1107.17,367,1245.08,265.94,1191.92,80.34ZM759.27,258.53h0ZM981.36,755.59A153.47,153.47,0,0,0,939,749.91,168.68,168.68,0,0,0,912.17,752l-1.6.27c42.31-32.93,26.79-77.13,26.79-77.13,12.63,1.2,15.54,20.4,16.2,30a239.63,239.63,0,0,0-8.17-54.09c-3.21-12-4.53-14-4.53-14-5.57-15.85-18.18-25.56-23.37-29-.78-.46-1.55-.94-2.3-1.44,0,0,.87.48,2.3,1.44,21.69,12.83,54.28,12.19,54.28,12.19s-67.45-27.9-117.61-65.31c-31.67-23.61-79.46-66.77-79.46-66.77,18.76-4.41,51.32,7.8,51.32,7.8-12.14-23.66-61.8-36.49-61.8-36.49,19.86-3.31,58.32,9.93,58.32,9.93s-23-23.18-54.46-26.49-44.33-25.15-44.33-25.15c-39.86-49.19-74.63-52.58-114.49-51s-28-31.27-28-31.27c-22,20.35-23.75,31.27-23.75,31.27-4.24-39.12,26.29-56.72,27.14-68.59S568,275,567.8,274.83c-22.59,4.63-33.52,8.44-33.52,8.44h0c.09,0,57.66-20.08,181.63-24.06q23.87-.75,51-.65s32.34,1.51,56.83-.39c-24.48,1.89-56.76.38-56.76.38l-6.54,0H767s12.17.57,27.24.57c23.25,0,53.38-1.35,56.3-8.24,0,0,29.75-21.42,65.21-21.41h2.63l-.18.1h0a177.5,177.5,0,0,0-36.54,25l.26-.17-.13.11a76.53,76.53,0,0,1,40.7-11.7,75.06,75.06,0,0,1,27,5.05,105.19,105.19,0,0,0-32.72,16.08,80.51,80.51,0,0,1,9.81-.53c11.09,0,29.3,1.88,42.33,12.74,18.72,15.6,41.34,16.08,44.09,16.08h.22s-24.4.56-44.37-16.08c-16.27-13.56-40.63-13.13-49.1-12.5,8.54-.62,32.81-1,49,12.5a64.41,64.41,0,0,0,10,6.86,136.19,136.19,0,0,0,12.89,38.2c9.58,18.63,21.55,33.94,35.38,45.44-14.82,10-29.13,28.76-33,64.06,0,0,8.32-19.05,35.8-23.81,0,0-41.8,58.62,29.33,145.19,0,0,28.79,33.63,24.56,77.3,0,0,13.83-7,12.9-19,0,0,26.45,37.34,84.26,61.64,5.76,22.58,27.49,62.54,108.57,75.33a102.31,102.31,0,0,0-41.25,3.24A528.83,528.83,0,0,1,1105.65,770C1061.79,770,1021.88,765.57,981.36,755.59Zm308.29-8.3c32.65,4.12,60.07,23.7,73.64,50.64v-.06l30.11,58.52a202.26,202.26,0,0,1,22.45,91.77c0,63-29.58,119.52-76.4,158,0,0,8.38,138.13-266.52,169.53,274.83-31.42,266.49-169.52,266.49-169.52,46.83-38.47,76.4-95,76.4-158a202.26,202.26,0,0,0-22.45-91.77l-30.13-58.53v.07c-13.57-26.94-41-46.53-73.64-50.65-113.53-17.88-110.72-89-110.6-91.24C1178.89,658.27,1176.11,729.41,1289.65,747.29Zm165.67-346.94c-111.54-36.35-183.11-25.91-226.56-6.82,22.42-9.86,52.33-17.42,91.4-17.42,36.6,0,81.23,6.64,135.22,24.23,0,0,79,79-77.81,208.72,0,0-29.12,25.84-83.57,40.2,54.41-14.36,83.51-40.19,83.51-40.19C1534.36,479.39,1455.32,400.35,1455.32,400.35Z"/><path id="Outline_stroke_" data-name="Outline stroke " class="cls-1" d="M646.79,1066.3l86,104.12L773,1260.09l46.45-23.93c-34.65,64.07-70.07,159.52-79.45,220.39a5.72,5.72,0,0,1-1,2.57c-1.39,1.88-4,2.78-7.67,2.78-19.22,0-67.64-24.58-124.56-63.07a30,30,0,0,1-48.3-34.58c-41.85-31.61-77.08-62.65-99.76-87h0c-.69-.73-1.36-1.46-2-2.19h0c-.66-.71-1.3-1.43-1.94-2.13h0l-1.84-2.07-.07-.07-1.74-2-.09-.11c-.56-.64-1.11-1.29-1.65-1.92a.76.76,0,0,0-.11-.14c-.53-.62-1-1.24-1.55-1.85l-.13-.17-1.46-1.78-.15-.19c-.46-.58-.92-1.15-1.36-1.72a1.84,1.84,0,0,1-.17-.22c-.43-.55-.86-1.09-1.27-1.63l-.19-.26-1.17-1.56a1.79,1.79,0,0,0-.2-.28c-.37-.5-.73-1-1.08-1.49l-.21-.31-1-1.41c-.08-.11-.15-.23-.22-.34-.31-.45-.61-.9-.9-1.34l-.23-.35c-.28-.43-.55-.85-.81-1.27l-.23-.38-.73-1.19-.23-.41c-.22-.37-.44-.75-.64-1.12l-.22-.41c-.2-.36-.39-.71-.57-1.06l-.21-.43-.49-1-.2-.45-.41-.92c-.07-.15-.12-.3-.19-.45s-.23-.58-.34-.85a4.4,4.4,0,0,1-.16-.46c-.05-.15-.19-.53-.27-.79l-.14-.47c-.07-.24-.15-.49-.21-.72s-.07-.31-.1-.47-.11-.45-.15-.66a2,2,0,0,0-.07-.47,2.28,2.28,0,0,1-.09-.6,3.68,3.68,0,0,1,0-.47v-1.49a1.14,1.14,0,0,1,.06-.45c.06-.15,0-.29.07-.43a2.3,2.3,0,0,0,.12-.45c0-.15.06-.25.1-.36s.14-.32.21-.48l.12-.27c.13-.23.27-.45.42-.67h0a5.15,5.15,0,0,1,.53-.61,6,6,0,0,1,1.4-1c88.85-44.64,154-107.36,212.35-164.1m2.42-44.2L626,1044.86c-25.85,25.14-58,56.43-92.8,84.86-37.64,30.76-74.31,54.94-112.11,73.93l-.34.17-.34.18a35.92,35.92,0,0,0-8.35,6.14c-.53.52-1,1.07-1.55,1.63l-.71.72-.67.91-1.24,1.45-1,1.71c-.44.71-.86,1.44-1.25,2.17s-.7,1.4-1,2.11-.67,1.51-1.05,2.57v.2c-.3.84-.51,1.57-.66,2.12s-.4,1.44-.61,2.43-.31,1.66-.39,2.23-.19,1.33-.27,2.23-.1,1.53-.11,2.09,0,1.09,0,1.82v.28c0,.74.06,1.33.09,1.81s.07,1.08.15,1.83.19,1.41.24,1.75.14.94.23,1.42v.19c.14.73.28,1.34.37,1.71s.19.86.3,1.29h0c.19.74.37,1.33.48,1.7s.22.77.34,1.15c.18.54.36,1.07.55,1.61v.08l.35,1,.6,1.5v.1l.05.13h0c.1.26.2.49.3.72h0q.36.79.72,1.62.18.4.39.84l.75,1.53h0c.11.23.23.46.35.69.29.56.58,1.11.88,1.66l.36.66c.3.53.61,1.08.93,1.63l.34.59,1,1.59.33.54h0l1,1.64.35.53,1.16,1.74h0l.23.34h0c.38.56.78,1.13,1.19,1.7l.33.48c.42.59.86,1.19,1.3,1.79l.25.35h0c.44.6.9,1.21,1.36,1.82.11.14.21.28.32.41.47.63.95,1.25,1.45,1.89h0c.07.09.14.17.2.26.51.65,1,1.31,1.57,2l0,.06.08.1,0,.07,1.65,2h0l.13.16,1.69,2h0l.16.19c.6.7,1.2,1.41,1.82,2.12h-.05l.08.09.08.09,1.94,2.23.11.12h0c.61.7,1.24,1.4,1.88,2.11a2.85,2.85,0,0,0,.23.26l2,2.22h0l.06.07.4.44h0l1.66,1.78c21.69,23.28,52.63,50.84,88.29,78.7A60.56,60.56,0,0,0,527.4,1395a59.93,59.93,0,0,0,74.29,40.78c1.45-.43,2.89-.91,4.31-1.44a699.14,699.14,0,0,0,63.58,37.22c36,18.23,52.44,20.34,61.7,20.34,18,0,27.65-9.34,31.77-14.91a35.49,35.49,0,0,0,6.55-15.65v-.23c8.43-54.72,41.9-147.26,76.19-210.68L892,1165l-86.32,44.46-18.3,9.43-27.28-60.78-1.66-3.7-2.57-3.12-86-104.12-20.72-25.1Z"/><g id="Shadows"><path class="cls-2" d="M568.83,873.21c-.07-1.27-.15-2.53-.21-3.8C568.62,869.41,568.63,870.73,568.83,873.21Z"/><path class="cls-2" d="M1339.81,1106.14a227.44,227.44,0,0,1-81.12,42.56v-.09a637.49,637.49,0,0,1-420.92-21.91h0c-244.46-90.77-266.85-228.93-268.9-253.48,7.28,128.25,79.68,194.88,79.68,194.88s39.83,33.23,82.65,63.36c39.61,27.89,46.83,55.1,46.83,55.1s34.5,111.12,267.87,91.81C1348.22,1253.35,1339.84,1106.65,1339.81,1106.14Z"/><path class="cls-2" d="M464.87,481.54c-2.73.58-2.12,14.67-.81,29.22,10.26,113.56-119.43,150-119.43,150s139.86-6.66,187.76,45.67C519.1,650.26,518,602.17,507.93,567.83,497,530.29,470.14,480.42,464.87,481.54Z"/></g><g id="Ear_Highlights" data-name="Ear Highlights"><path class="cls-3" d="M1436.26,395.21c-141-40.94-213.69-4.48-245.3,22.16,4.27,17.47,6.15,62,6.35,82.34C1220.06,354,1381,381.3,1436.26,395.21Z"/><path class="cls-3" d="M1456.32,402.26c-9.77,19.21-36.65,53.19-91.35,59.53,0,0-51.53,5.23-66.77,71.23,0,0-15.16-15-4.31-37.61,0,0-30.83,42.57-22.35,79.17,0,0-27.23-26.34-22.25-46.56,0,0-27.18,8.63-22.14,77.17,0,0,.84,31.51,28.5,53.41-7.2.58-14.67,1.16-22.48,1.48,99.47,0,144.24-50.32,144.24-50.32C1523,489.4,1465.36,412.67,1456.32,402.26Z"/><path class="cls-3" d="M37.07,363.76c.12-.35.25-.69.38-1C37.32,363.07,37.19,363.41,37.07,363.76Z"/><path class="cls-3" d="M293,590.38s13.42-79.64-13.84-103.19c0,0,4.65,26.53-15.78,50.32,0,0,8.4-49.05-51.33-94.13-93-70.17-138.34-71.74-175-79.59C25.69,395.31,11.61,480.61,138,575.39c0,0,38.81,31.55,93.58,56.49,32.23,8.91,60.42,12.92,85,13.34,16.29-27.06,35.2-86.31.23-125.71C316.79,519.51,319.07,565.54,293,590.38Z"/><path class="cls-3" d="M37.62,362.26l.55-1.41C38,361.3,37.81,361.78,37.62,362.26Z"/><path class="cls-3" d="M37.45,362.73a1.48,1.48,0,0,1,.17-.47C37.56,362.41,37.5,362.58,37.45,362.73Z"/></g><path id="White" class="cls-4" d="M1180.91,672c-57.81-24.3-84.26-61.64-84.26-61.64.93,12-12.9,19-12.9,19,4.23-43.67-24.56-77.3-24.56-77.3-71.13-86.57-29.33-145.19-29.33-145.19-27.48,4.76-35.8,23.81-35.8,23.81,3.89-35.3,18.2-54.08,33-64.06-13.83-11.5-25.8-26.81-35.38-45.44A136,136,0,0,1,978.81,283a64.41,64.41,0,0,1-10-6.86c-20-16.64-52.14-12.2-52.14-12.2a105,105,0,0,1,32.72-16.08c-37.71-14.43-67.67,6.65-67.67,6.65a177.48,177.48,0,0,1,36.61-25c-36.61-1.11-67.84,21.38-67.84,21.38-4.82,11.35-83.54,7.67-83.54,7.67-97.8-.52-163.19,8.9-199.13,16.26h0s17.72,11.44,16.87,23.31-31.38,29.47-27.14,68.59c0,0,1.7-10.92,23.75-31.27,0,0-11.87,32.86,28,31.27s74.63,1.8,114.49,51c0,0,12.88,21.84,44.33,25.15s54.46,26.49,54.46,26.49-38.46-13.24-58.32-9.93c0,0,49.66,12.83,61.8,36.49,0,0-32.56-12.21-51.32-7.8,0,0,47.79,43.16,79.46,66.77,50.16,37.41,117.61,65.31,117.61,65.31s-32.59.64-54.28-12.19c5.19,3.46,17.8,13.17,23.37,29,0,0,1.32,2,4.53,14.06a239.63,239.63,0,0,1,8.17,54.09c-.66-9.59-3.57-28.79-16.2-30,0,0,15.52,44.2-26.79,77.13l1.6-.27A169.28,169.28,0,0,1,939,749.91a153.17,153.17,0,0,1,42.37,5.63c40.52,10,80.43,14.41,124.29,14.41a528.93,528.93,0,0,0,142.58-19.42,102.31,102.31,0,0,1,41.25-3.24C1208.4,734.5,1186.67,694.54,1180.91,672Z"/><path class="cls-5" d="M472.59,400.87S252.51,351.35,290.37,47.17c0,0,.65-17,18.13-17.16,39.83-.33,42.13,236.31,225.7,253.27C534.2,283.28,534.47,352.83,472.59,400.87Z"/><path class="cls-5" d="M1191.81,80.34s-5.36-29.41-24.55-11.73-6.2,165.12-153.8,223.45c7.55,20,23.46,49.17,55,64.72,12,5.15,26.48,9.06,44.11,10.8C1112.6,367.58,1245,266,1191.81,80.34Z"/><path class="cls-6" d="M799.28,1109.47l-.16-.09-.24-.11Z"/><path class="cls-6" d="M1393.29,856.43l-30.1-58.52.13.3c-15.27-30.54-48.3-51.69-86.61-51.69a101.12,101.12,0,0,0-28.46,4A528.86,528.86,0,0,1,1105.68,770c-43.86,0-83.77-4.43-124.29-14.41A153.28,153.28,0,0,0,939,749.94c-73.16,0-134.7,46.74-152.57,110.15L744.32,992.8a97.19,97.19,0,0,0-3.44,25.67c0,39.4,23.59,73.63,58.24,90.91,83.45,41.48,178.61,65,279.6,65a634.5,634.5,0,0,0,179.46-25.7v.09c91.23-26.43,157.52-106.23,157.52-200.55A202.3,202.3,0,0,0,1393.29,856.43Z"/><g id="Nostrils"><path class="cls-7" d="M965,842.92l-48.46-22.7h0a9.37,9.37,0,0,0-4-.92c-4.85,0-8.78,3.66-8.78,8.18a8,8,0,0,0,3.19,6.3l39,24.71a23.12,23.12,0,0,1,9.87,19.4,19.9,19.9,0,0,1-1.91,9.3c-12.26,23.32-38,39.37-67.76,39.37-1.77,0-3.52,0-5.26-.15h-.87c-9.68,0-17.52,7.3-17.52,16.31a14.46,14.46,0,0,0,3.09,9.24c14.36,17.5,37,28.79,62.49,28.79,43.41,0,78.6-32.76,78.6-73.18C1006.67,879.55,989.78,855.23,965,842.92Z"/><path class="cls-7" d="M1336.2,908.51c-.5-8.1-8-14.3-16.66-13.84l-.78.06c-1.56.18-3.14.3-4.73.38-26.78,1.41-50.82-11.81-63.14-32.22a18.3,18.3,0,0,1-2.23-8.28,20.65,20.65,0,0,1,7.82-17.92l33.79-24.1a7,7,0,0,0,2.53-5.82,7.72,7.72,0,0,0-8.34-6.94,8.27,8.27,0,0,0-3.6,1h0l-42.37,22.73c-21.65,12.26-35.51,35-34,60.14,2.21,36.38,35.67,64.2,74.74,62.13,22.93-1.2,42.7-12.44,54.67-28.87A13,13,0,0,0,1336.2,908.51Z"/></g><path id="Divide" class="cls-8" d="M1091,830.8s12.18-7.51,22.76,5.25c10.86,13.12,14.65,31.45,15.37,42.89.79,12.43,12.45,113.85-2.05,137.71-22.67,37.27-5.88-9-5.88-9s13.73-66.93-7.12-113.81c0,0-7-11.63-16.53-15.91C1091.08,875,1061.88,851.55,1091,830.8Z"/><path class="cls-9" d="M1166.06,493.14s8.16-1.32,10-12.72c2.29-14.3-21.82-17.47-21.82-17.47-68.85-8.81-100.77,34-100.77,34s38.45-26.55,112.58-3.84"/><path id="White-2" class="cls-10" d="M1138.11,568c19.61-18.58,32.4-47,28-74.82-73.92-22.65-112.37,3.67-112.59,3.82C1082.14,508.06,1116.68,533.83,1138.11,568Z"/><path id="Left" class="cls-9" d="M718.2,532.09h0L718,532h0c-22.93-17-51.32-25.24-80.55-21-41.09,6-73.56,35.17-88.08,73.86a9.84,9.84,0,0,0-.65,4.8c.86,5.88,4.49,5.73,6.84,5.6,4-.23,7-4.62,7-4.62h0c26-37.61,71.5-56.79,108.26-47.28h0c-18.39,9.39-36.22,27.22-32.36,53.5,15.52-24.89,36.26-33.5,36.26-33.5a87.58,87.58,0,0,1,37-7.47v0a12.32,12.32,0,0,0,1.61-.1c6.54-1,11-7.52,10-14.66A13.67,13.67,0,0,0,718.2,532.09Z"/><path class="cls-11" d="M572.1,1136.65h0q8.76-7.94,17.25-15.91Q580.89,1128.71,572.1,1136.65Z"/><path id="Outline" class="cls-1" d="M1464.37,1236.75v-.19a239.51,239.51,0,0,0-28.66-104.94,222.33,222.33,0,0,0-57-67.62c-.15.21-6.09,8.94-19,23.2h0c44.15,34.58,72.24,88.76,74.73,150.57q.22,6.63.22,13.3c0,132.44-59.34,257.22-151.53,316.75-40.76,25.6-79.12,34.26-127.26,34.26-91.74,0-169.25-60.78-194.56-144.26A106,106,0,0,1,957,1428c0-24.07,6.5-46.61,20-64.4,25.69-34.47,56-62.86,89.29-87.32-17.59,1.59-38.27,3.26-52.7,4a420.53,420.53,0,0,0-60.56,65.3c-17,22.42-26,51-26,82.42a136.54,136.54,0,0,0,5.47,38.27v.27a233.07,233.07,0,0,0,223.27,165.55c57,0,99.85-11.62,143.22-38.85l.16-.1.16-.11c49.84-32.18,91.72-81.73,121.13-143.3,28.87-60.45,44.12-129.14,44.12-198.65C1464.61,1246.32,1464.53,1241.5,1464.37,1236.75Z"/><path id="Highlights" class="cls-12" d="M615,1339.9l4.57-8q-5.12-4-10.37-7.9l-1-.74-5.48,9.61-9.4,16.5a30,30,0,0,0-34.34,14c-.17.3-.33.61-.5.92a30,30,0,1,0,47.14-7.89Z"/><g id="Shadow_2" data-name="Shadow 2"><path class="cls-13" d="M604.48,1320.49l-.08-.06h0l-.08,0c-75.34-55.82-148.34-92.24-169.86-90-.18.1-.34.21-.51.32a6,6,0,0,0-.89.7,5.15,5.15,0,0,0-.53.61h0c-.15.22-.29.44-.42.67a.64.64,0,0,1-.12.27,4.14,4.14,0,0,0-.2.48c-.06.17-.07.24-.11.36a4.15,4.15,0,0,0-.12.45,1.55,1.55,0,0,1-.07.43c-.07.14,0,.3-.06.45a1.34,1.34,0,0,0,0,.49v1.47a5.16,5.16,0,0,0,.09.6,1.66,1.66,0,0,0,.07.47,6.6,6.6,0,0,1,.15.66c.06.22.06.31.1.47s.14.48.21.72l.14.47c.08.25.17.52.27.78s.1.31.16.47.23.56.34.85a4.3,4.3,0,0,0,.19.45l.41.92.2.44c.15.33.32.66.49,1l.21.43c.18.35.37.69.57,1,.07.14.14.28.22.42.21.37.42.75.65,1.13.07.13.14.26.22.39.24.4.48.8.73,1.2l.23.38.81,1.27c.08.11.15.23.23.35l.9,1.35.22.33,1,1.41.21.31c.35.49.71,1,1.08,1.49l.2.28,1.17,1.56.19.25,1.27,1.65.17.21c.44.57.9,1.14,1.36,1.72l.15.19,1.46,1.78.13.17,1.56,1.86.1.12,1.65,1.93.09.11c.57.66,1.15,1.33,1.75,2l.05.07,1.85,2.07h0l1.94,2.13h0l2,2.18h0l2.1,2.24,1.39,1.46.78.81c30.64,4.78,79.61,17.52,139.72,51.08l5.48-9.61-3.36-2.52Z"/><path class="cls-13" d="M695.47,1396.33l-3.6-3.44-.51-.48c-1.38-1.33-2.79-2.67-4.23-4l-1.1-1-3.4-3.13-1.23-1.12c-1.5-1.36-3-2.73-4.55-4.1l-.17-.16-4.61-4.08-1-.89-3.64-3.17-1.72-1.5h-.06q-2.1-1.83-4.29-3.68l-1.4-1.19c-1.62-1.37-3.24-2.74-4.89-4.12h0l-.16-.13-.55-.46-4.51-3.73-1.54-1.28-4.62-3.77-.12-.1h0l-.08-.06-1.78-1.44-3.74-3-2.15-1.72-.83-.65-2.92-2.32-2-1.54c-1.67-1.32-3.36-2.63-5.05-4l-1.33-1-.56-.44-3.59-2.76h0l-4.57,8a646.87,646.87,0,0,1,71.61,49.37q4.67,3.67,9.37,7.52Z"/><path class="cls-13" d="M654.31,1131.35c7.65-13.21,15.84-26.33,24.26-39.19-17.91-14-29.91-24-29.91-24s-.42-.39-1.15-1.12l-.72-.71c-2.54,2.53-5.59,2.46-8.19,5l-.82,1.34c-8,7.86-15,13.66-23.54,21.62l-1.48,2.11c-5.65,5.31-9.93,12-15.77,17.31l1.64.18C615.62,1115.86,635.09,1122.45,654.31,1131.35Z"/></g><path id="Outline_expanded_" data-name="Outline expanded " class="cls-1" d="M819.45,1236.16c-34.65,64.07-70.07,159.52-79.45,220.39a5.72,5.72,0,0,1-1,2.57c-1.39,1.88-4,2.78-7.67,2.78-19.22,0-67.64-24.58-124.56-63.07a30,30,0,0,1-48.3-34.58c-41.85-31.61-77.08-62.65-99.76-87h0c-.69-.73-1.36-1.46-2-2.19h0c-.66-.71-1.3-1.43-1.94-2.13h0l-1.84-2.07-.07-.07-1.74-2-.09-.11c-.56-.64-1.11-1.29-1.65-1.92a.76.76,0,0,0-.11-.14c-.53-.62-1-1.24-1.55-1.85l-.13-.17-1.46-1.78-.15-.19c-.46-.58-.92-1.15-1.36-1.72a1.84,1.84,0,0,1-.17-.22c-.43-.55-.86-1.09-1.27-1.63l-.19-.26-1.17-1.56a1.79,1.79,0,0,0-.2-.28c-.37-.5-.73-1-1.08-1.49l-.21-.31-1-1.41c-.08-.11-.15-.23-.22-.34-.31-.45-.61-.9-.9-1.34l-.23-.35c-.28-.43-.55-.85-.81-1.27l-.23-.38-.73-1.19-.23-.41c-.22-.37-.44-.75-.64-1.12l-.22-.41c-.2-.36-.39-.71-.57-1.06l-.21-.43-.49-1-.2-.45-.41-.92c-.07-.15-.12-.3-.19-.45s-.23-.58-.34-.85a4.4,4.4,0,0,1-.16-.46c-.05-.15-.19-.53-.27-.79l-.14-.47c-.07-.24-.15-.49-.21-.72s-.07-.31-.1-.47-.11-.45-.15-.66a2,2,0,0,0-.07-.47,2.28,2.28,0,0,1-.09-.6,3.68,3.68,0,0,1,0-.47v-1.49a1.14,1.14,0,0,1,.06-.45c.06-.15,0-.29.07-.43a2.3,2.3,0,0,0,.12-.45c0-.15.06-.25.1-.36s.14-.32.21-.48l.12-.27c.13-.23.27-.45.42-.67h0a5.15,5.15,0,0,1,.53-.61,6,6,0,0,1,1.4-1c88.85-44.64,154-107.36,212.35-164.1-4-3.93-33,9.78-41.61-1.27-68.52,65.71-131.61,113.27-183.74,138.33l-.58.28-.57.3a36.42,36.42,0,0,0-8.35,6.14c-.53.52-1,1.07-1.55,1.64l-.71.71-.8,1.08-1.24,1.49-.86,1.55c-.43.69-.83,1.4-1.21,2.12h0c-.35.66-.67,1.33-1,2a17.78,17.78,0,0,0-1,2.57v.22c-.29.84-.5,1.55-.65,2.1s-.39,1.4-.6,2.36-.32,1.72-.4,2.31-.19,1.33-.27,2.22-.1,1.54-.11,2.09,0,1.09,0,1.82v.28c0,.81.07,1.48.09,1.81,0,.48.07,1.08.15,1.82s.19,1.42.24,1.76.14.94.23,1.42v.2c.14.73.28,1.33.37,1.7s.2.9.32,1.35.29,1.08.46,1.65h0c.11.39.22.75.34,1.13.18.55.36,1.09.56,1.62v.09c.11.32.22.63.34,1,.19.52.39,1,.59,1.5v.11l.06.14h0l.29.71h0c.22.53.46,1.06.71,1.6l.4.88c.24.5.49,1,.74,1.5v.06l.35.69c.28.55.58,1.1.88,1.65l.32.6c.31.56.64,1.12,1,1.69.12.22.23.41.35.6.31.53.64,1.06,1,1.59.1.18.21.35.32.52h0l1,1.64c.12.18.24.35.35.54l1.16,1.73h0l.22.33h0c.39.57.79,1.14,1.2,1.72l.34.49,1.24,1.71h0l.25.35h0c.44.6.89,1.2,1.35,1.81l.29.38c.47.62.95,1.24,1.45,1.88v0l.23.3c.5.63,1,1.28,1.53,1.92l.05.06v.07l.09.11c.53.66,1.08,1.33,1.64,2v0h0l.1.12h0l1.71,2h0l.17.19c.58.7,1.19,1.4,1.8,2.11h0l.09.1.37.43v.32l8,8.58h0c21.69,23.28,52.63,50.84,88.29,78.7a61,61,0,0,0,77,60c1.45-.43,2.89-.91,4.31-1.44a699.14,699.14,0,0,0,63.58,37.22c36,18.23,52.44,20.34,61.7,20.34,18,0,27.65-9.35,31.78-14.92a35.6,35.6,0,0,0,6.54-15.64v-.23c7.62-49.45,29-111.63,62.35-182.28C822.74,1274.25,827.53,1241.69,819.45,1236.16Z"/><g id="Shadow_1" data-name="Shadow 1"><path class="cls-14" d="M695.94,1396.79q-4.71-3.84-9.37-7.52h0A647.74,647.74,0,0,0,615,1339.9l-9.38,16.46a30,30,0,0,1,1.22,42.41l-.06.06c67.82,45.87,123.58,72,132.23,60.29a5.72,5.72,0,0,0,1-2.57C741.59,1446.77,724.73,1424.61,695.94,1396.79Z"/><path class="cls-14" d="M558.44,1364.25c.17-.31.33-.62.5-.92a30,30,0,0,1,34.34-14l9.4-16.5c-60.11-33.56-109.08-46.3-139.72-51.08C485.67,1305.37,519.13,1334.56,558.44,1364.25Z"/><path class="cls-14" d="M604.3,1320.36l-.2-.16.14.11Z"/><path class="cls-14" d="M597,1113.7c-50.85,46.06-108.07,90.5-162.56,116.69h0c21.5-2.27,94.39,34.08,169.66,89.81H604l-1.43-1-2-1.45-.29-.21.28.2h0l3.19,2.35.36.26.17.13h0c1.25.92,2.49,1.85,3.72,2.77l.49.37.6.45,1.13.84.14.11,1,.71,1.42,1.07,1.21.91,1.06.81L617,1330l.5.37.17.13.84.65.94.72h.06l.1.08,1.62,1.25,1.42,1.09,1.36,1,.39.3.65.5.48.38,1.17.91,2.32,1.82.81.63.33.25.06.06.38.3.1.07,2.8,2.21,1,.76,1.57,1.25.33.26.83.66,1.72,1.37.14.12h0l.22.18q1.74,1.39,3.47,2.8l.3.24.4.32h0l.1.08.18.14a107,107,0,0,1-21.47-24,95.74,95.74,0,0,1-7.83-14.86c-21.46-51.13,2.94-117.07,39.79-180.73-19.22-8.9-38.69-15.49-55.68-17.47ZM438.2,1229.34h0a11.57,11.57,0,0,0-3,.69,11.57,11.57,0,0,1,3-.69Zm1.12-.08h0Zm7.41.71h-.27l-.34-.07-.92-.15a4.28,4.28,0,0,1-.61-.09l-.85-.12-.59-.07h0l.59.07h.37l.48.08h.61l.92.15.34.07h.47l.85.18Zm6.81,1.69-.7-.2-.55-.16-.56-.16-1.74-.45h0l1.73.45.59.16.53.16.7.2h0Zm9.68,3.33-.87-.34-.83-.31h0l-.83-.31-.42-.15-.85-.31-.95-.33-.24-.08h0l-.29-.09-.54-.19h-.06l-1.09-.36-.81-.26-1.15-.35h0l-.68-.21h.16l.54.16,1.16.36.79.26h.05l.62.2.49.16h.08l.76.26,1.18.41.86.31.92.33.34.13.41.15.44.16.29.11,1,.4Zm23.88,10.75-2-1h0l-.22-.11-.72-.35h0l-1.68-.83-.5-.24-.54-.25h0l-.22-.11-1.32-.62-.09,0-1-.45-1.44-.67h-.05l-1.06-.49-1.45-.66-.46-.21-.55-.25-1.49-.66-.91-.4-1.68-.71-.66-.29-2.29-.94-.4-.17-1.81-.72-.78-.31h0l.76.29h0l1.76.7.46.19c.75.3,1.5.62,2.27.94l.71.3,1.63.7.94.41,1,.47.41.18h0l.88.4.12.06,1.46.66h0l.41.19.63.29h0l.7.32.77.36,1,.46h.09l.54.26,1,.48.77.37.28.13h0l1.65.8h0l.52.26.4.19h0l.23.11,1.78.89h0l.42.21Zm.65.32h0l.51.26Zm2.73,1.39c-.44-.22-.88-.44-1.31-.67l1.32.68.68.35Zm6.81,3.58-1.16-.62-1.79-1h0l-.25-.13-.79-.42h0l-1.25-.65-.77-.41h.06l.59.3.34.18,1,.53h0l.33.17.74.39,1.31.69.45.24h0l1.14.61h0l.42.23Zm1.72.92-.4-.21.38.2h0l.12.06Zm7.21,4-1.23-.69-1.77-1-.28-.15-1-.53h-.06l-1.65-.9-.53-.29.54.3,1.72.93h0l1.19.66h0l.67.37,1.07.59h.05l.21.11,1,.55.24.13Zm3,1.71h-.08l-1.06-.6-.47-.26-.87-.49,1.27.71h.07l.56.32.55.31h0l2.09,1.19h0Zm10.49,6.09c-.37-.23-.75-.45-1.13-.67l-2.45-1.44h-.06l-.17-.09-.49-.29-2.12-1.23-1-.57-.79-.45h.05l.45.26.28.16h0l2.45,1.41.64.38.85.49,2,1.2.26.15,1.13.67h0l.1.06.58.34Zm3.42,2h-.06l-.84-.5-.44-.27-.68-.4-.27-.16.8.47.16.1.81.48.51.31,1.29.77.25.16Zm3.59,2.17-.32-.2-.53-.32-.83-.5h0l-.31-.18.32.19,1.22.74.12.07h0l.36.22h0Zm1.59,1-1.34-.81,1.32.8.75.46Zm3.47,2.13-.13-.08-1.52-.93c-.13-.09-.27-.17-.41-.25h0l-.57-.35.56.34h0l1.12.69.78.48h0l.45.28Zm4.61,2.87-1.29-.81-1.64-1-.4-.25h0l-.16-.1.19.11,2,1.26,1,.64.28.17h0l2.19,1.38h.06Zm17.22,11-2.09-1.37-.43-.28-1-.66-1.29-.83-.94-.61c-.41-.27-.82-.54-1.24-.8l-2.77-1.78-.68-.44-2.77-1.76-.36-.22-.25-.16h0l-.65-.41-.36-.23h.05c.32.19.63.39.94.59h0l.57.36,2.81,1.79h0l.41.26.2.13.21.13h.08l2.29,1.47.25.16,1.2.78h.08l2.12,1.37h0l1.37.89h0l.92.6,1.12.73,1,.68Zm2.79,1.84-1.27-.84h0l-.21-.14.26.17,1.09.72.36.24Zm.73.49-.34-.23.32.21h0l.11.08.36.24Zm5.11,3.4h0l-.34-.23-1.12-.75-2.1-1.41-.85-.56.83.55h0l1.64,1.1.4.26h0l.21.14,1.25.84h0l.32.22Zm3.58,2.42-1.12-.75-.3-.21h-.07l-.78-.52.83.56,1.18.8.27.18h0Zm2.51,1.71-.1-.07-.78-.52-1.6-1.09h0l2,1.39.28.19.1.06.58.4Zm4.7,3.23-3.59-2.47-.4-.28.39.27h0L573,1298H573Zm5,3.47-.83-.58-.51-.36-1.54-1.07-1.43-1-.4-.27.24.16.32.22,2.78,1.93h0l1.21.85.1.07.32.23Zm2.33,1.63-1.1-.77,1.09.76h0l.84.59Zm18.92,13.58.28.2-.34-.25-2.36-1.72h0l-1.2-.88-.3-.22-2.22-1.61h0l-.2-.15-1.38-1-2.14-1.54c-.23-.16-.46-.32-.68-.49l-.94-.66-1.49-1.07-.66-.47-1.54-1.09-1.36-1-.82-.58-.26-.19.23.17H582l2.1,1.48h0l1.5,1.06h.06l1.11.79,1,.71.5.36.66.47.44.32.41.3,1.68,1.2h0l1.62,1.17,2.18,1.58h.06l.19.13.1.08,1.2.87h0l1.89,1.38a5.43,5.43,0,0,0,.65.6Z"/><path class="cls-14" d="M782,1195.09h0a55.93,55.93,0,0,1-3.83-8.5s-7.22-27.22-46.83-55.1c-19.32-13.59-38-27.82-52.74-39.33-8.42,12.86-16.61,26-24.26,39.19,39.4,18.26,77.73,46.24,91.41,64.23,5.6,7.36,13.16,14.66,21.19,21.38h0a419.18,419.18,0,0,0,45.55,32.54c1.1-2.25,3-5.25,4.06-7.48l.22-.45c.9-1.81,1.8-3.62,2.71-5.41C798,1220.53,787,1204.54,782,1195.09Z"/></g><path id="Default" class="cls-15" d="M766.91,1217c-8-6.72-15.59-14-21.19-21.38-13.68-18-52-46-91.41-64.23-36.85,63.66-61.25,129.6-39.79,180.73a95.74,95.74,0,0,0,7.83,14.86,107,107,0,0,0,21.47,24l-.18-.14,3.23,2.63.63.52,3.3,2.72.53.44q1.68,1.36,3.28,2.73l.4.32h0q2.44,2,4.83,4.07l.53.44.41.35c1.65,1.4,3.28,2.8,4.89,4.18.18.17.37.33.56.49l3.65,3.17h0l1.15,1,1,.89q2.34,2.06,4.61,4.08l.17.16,4.55,4.1,1.23,1.12,3.4,3.13,1.1,1c1.44,1.33,2.85,2.67,4.23,4l.51.48,3.6,3.44.51.49h0c28.79,27.82,45.65,50,44.06,59.76h0c10.12-65.72,40.39-141,73.19-207.83C813.07,1248.68,788.31,1234.87,766.91,1217Z"/><path class="cls-16" d="M1434.39,1237.77c-3.59-89.18-60.45-162.52-142-184a272.83,272.83,0,0,0-215.17,38l-87.68,63.57h0s-30.87,21,17.72,41.7c56.47,24,99.6,3.69,127.41-21.16h0v-2.21h0v2.21c3.82-4,9-5.44,14.46-5.44,14.43,0,26.26,10.47,26.26,24.89a26.12,26.12,0,0,1-12.41,22.24c-70.75,36.39-136.85,80.08-185.94,145.94-13.53,17.79-20,40.33-20,64.4a106,106,0,0,0,4.26,29.83c25.32,83.48,102.82,144.26,194.56,144.26,48.14,0,86.5-8.66,127.26-34.26,92.19-59.53,151.53-184.31,151.53-316.75Q1434.62,1244.4,1434.39,1237.77Z"/><path class="cls-17" d="M1283.08,1567.82c92.19-59.53,151.53-184.31,151.53-316.75q0-6.67-.22-13.3c-3.59-89.18-60.45-162.52-142-184a272.83,272.83,0,0,0-215.17,38l-81.93,59.4-5,3.67h0s-15,9.72-8.81,23c5.41-4.4,185.64-160.2,305.14-93.14s113.2,214.93,62.49,331.66c-46.42,106.87-91.63,172.16-220.74,183.81a204.18,204.18,0,0,0,27.51,1.86C1204,1602.08,1242.32,1593.42,1283.08,1567.82Z"/><path class="cls-8" d="M1293.89,1223.8s22.45,275.69-141.67,275.66c0,0-24.16,1.35-25.15-12.62-1.91-27.08,38.23-20,38.23-20h0C1168.92,1467.08,1266.94,1488.62,1293.89,1223.8Z"/><path class="cls-8" d="M977,1363.59c-13.53,17.79-20,40.33-20,64.4a106.38,106.38,0,0,0,4.26,29.83,203.93,203.93,0,0,0,110,125.87c-20.87-20.39-46.36-61.39-54.57-127-11.93-95.28,146.32-239.06,146.32-239.06C1092.22,1254,1026.12,1297.73,977,1363.59Z"/><path class="cls-9" d="M1129,554.9c5.82-4.54,10.65-12.41,12.76-22,3.69-16.73-2.32-32.28-13.43-34.73s-23.11,9.12-26.8,25.85c-.14.66-.26,1.31-.38,2A188.32,188.32,0,0,1,1129,554.9Z"/><path class="cls-18" d="M2284,858.45a16,16,0,0,0-1.39,4.69,32.94,32.94,0,0,0-.48,5.61,12.61,12.61,0,0,0,1.17,5.37,8,8,0,0,0,4.44,4,13.54,13.54,0,0,0,7.94.47,27.58,27.58,0,0,0,8.2-3.26,50.88,50.88,0,0,0,7.48-5.39,53.52,53.52,0,0,0,5.88-5.88c.92-.92,1.78-1.86,2.57-2.79a30.59,30.59,0,0,0,2.1-2.81,17.85,17.85,0,0,0,2.33-2.8c1.56-1.87,2.89-3.58,4-5.15s1.95-2.81,2.57-3.74a7,7,0,0,0,1.88-4,3.45,3.45,0,0,0-.95-2.57,6,6,0,0,0-2.32-1.4,36.79,36.79,0,0,0-11-2.11,84.29,84.29,0,0,0-11,.24c-4.05.32-7,1.24-8.87,2.8a31.36,31.36,0,0,0-3.28,2.81,23.13,23.13,0,0,0-2.81,3.51,59.38,59.38,0,0,1-3.74,4.91,14.12,14.12,0,0,0-1.92,2.37A52.9,52.9,0,0,0,2284,858.45Z"/><path class="cls-18" d="M2090.41,1001.12a207.18,207.18,0,0,0,31.82-32.29q13.55-17.31,21.5-29.47,18.26-27.58,18-44.2t-14.28-21.74a16.39,16.39,0,0,0-5.14-.94,33,33,0,0,0-5.15.47,15.33,15.33,0,0,0-6.08,2.82,2.93,2.93,0,0,0-1.39,1.39,4.18,4.18,0,0,0,0,4.69,45.54,45.54,0,0,1,1.86,6.77,31.75,31.75,0,0,1,0,11,77.65,77.65,0,0,1-4.19,15.42,101.51,101.51,0,0,1-10.77,20.16,29.7,29.7,0,0,1-2.8,4,29.77,29.77,0,0,0-2.81,4,35.39,35.39,0,0,0-3.27,4.43,97.84,97.84,0,0,1-6.08,8q-3.75,4.44-8.19,9.36a68.3,68.3,0,0,1-8.65,8.18h-.47a7.32,7.32,0,0,1-1.87,1.4,7.5,7.5,0,0,0-1.87,1.4,38.81,38.81,0,0,1-11.69,4.9c-4.36,1.1-8.39,0-12.16-3.51a11.94,11.94,0,0,0,4.68,1,13.77,13.77,0,0,0,9.82-1.87c-2.81-2.17-3.45-6.72-1.87-13.57a147.15,147.15,0,0,1,7.25-22.44q4.92-12.17,10.76-23.62t9.11-17.07a8.42,8.42,0,0,0,.48-6.08,6.21,6.21,0,0,0-1.41-2.35,30.2,30.2,0,0,0-8.9-6.08,53.73,53.73,0,0,0-8.86-3.25c-2.83-.32-5,0-6.56.91a5.4,5.4,0,0,0-1.87,1.87q-4.68,6.55-13.8,22.46a260.79,260.79,0,0,0-16.6,35.08l-.47.94c-2.19,3.43-4.75,7.39-7.71,11.92a113.33,113.33,0,0,1-9.34,12.35,44.33,44.33,0,0,1-9.83,8.65c-3.26,2-6.16,2.11-8.65.24q-4.2-2.82-2.1-13.1a130.82,130.82,0,0,1,7-22.46q4.9-12.13,10.76-23.85t9.12-17.29a8.47,8.47,0,0,0,.46-6.08,6.06,6.06,0,0,0-1.4-2.35,30.33,30.33,0,0,0-8.9-6.08,47.53,47.53,0,0,0-9.35-3.26,9.43,9.43,0,0,0-6.08.92,5.37,5.37,0,0,0-1.86,1.87q-3.29,5.18-9.59,15.21a236.3,236.3,0,0,0-12.6,23.14l-.33.71a48,48,0,0,1-13.93,4,115.22,115.22,0,0,1-14.5.92,106.25,106.25,0,0,1-12.86-.7,84.43,84.43,0,0,0-9.12-.7h-.47a5.26,5.26,0,0,1-2.34-.46c-.31,0-.47.31-.47.94-.63-.63-1.1-.94-1.4-.94q-7-2.34-10.08-5.62c-2-2.17-3.2-3.74-3.5-4.68-1.57-2.16-1.09-4.35,1.4-6.54a36.67,36.67,0,0,1,8.9-5.62,23,23,0,0,1,6.08-1.4c3.41.32,5,2.28,4.66,5.88a43.07,43.07,0,0,1-2.79,11.46,12.66,12.66,0,0,0,7.47,4.2,24.38,24.38,0,0,0,8.89.25,19.82,19.82,0,0,0,7.49-2.82,9.71,9.71,0,0,0,4.2-4.91q3.24-13.56-1.18-21.28a31.22,31.22,0,0,0-10.52-11.46,26.08,26.08,0,0,0-9.58-4.67,41.06,41.06,0,0,0-5.39-.94q-11.68-2.33-29,2.34t-36.95,22.46a150.49,150.49,0,0,0-22,27.11,1.38,1.38,0,0,1-.47.94,11.34,11.34,0,0,0-1.87,2.82c-1,1.83-2.17,4.19-3.5,6.9q-.63,1-1.17,2-15,23.39-33,39.28a168.77,168.77,0,0,1-36.94,25.25,139.77,139.77,0,0,1-37.67,12.6,105.49,105.49,0,0,1-35.54.46,56.87,56.87,0,0,1-24.56-9.36q-11-7.47-13.09-22.21t7-38.35q9.12-23.61,35.78-58.71,23.83-30.83,48.18-47.43t44.91-24.57A167.69,167.69,0,0,1,1835,809.36h3a55.79,55.79,0,0,1,6.33.45c2.52.31,5.21.7,8.18,1.18a28.08,28.08,0,0,1,8.19,2.56,86,86,0,0,0-9.36-.45,63.34,63.34,0,0,0-9.13.69,50.72,50.72,0,0,0-10.08,2.57q-8,16.38-17.54,27.13a130.72,130.72,0,0,1-17.53,16.8,13.88,13.88,0,0,0-4.2,5.16,3.2,3.2,0,0,0,.94,4c1.24,1.1,4.2,2,8.87,2.57q22.9,2.35,36.74-4.2t21.73-15.95A64.43,64.43,0,0,0,1873.8,827q2.34-17.76-5.37-28.55A48.31,48.31,0,0,0,1850,782.6q-12.17-6.09-29-8.4-23.85-1.86-50.51,7.48-22.9,8-51.68,28.3t-59.62,61.5q-29.48,41.63-39.29,76.23a124,124,0,0,0-4.68,29.71,57.49,57.49,0,0,0,5.63,27.36q6,12.6,20.1,22t38.8,13.56q23.86,4.2,44.69.7a157.41,157.41,0,0,0,38.1-11.23,149.15,149.15,0,0,0,31.57-18.94,203.09,203.09,0,0,0,25-23.14c2-2.19,3.82-4.34,5.62-6.48a46.09,46.09,0,0,0,1.61,10,34.42,34.42,0,0,0,8.19,14q5.15,6.07,14.5,10.76t24.36,6.55h.45a108.32,108.32,0,0,0,16.8.47,66.16,66.16,0,0,0,14-2.35,89,89,0,0,0,8.89-2.81,50,50,0,0,0,10.75-5.61,26.22,26.22,0,0,0,5.63-4.2,54,54,0,0,0,12.14-13.56,72.67,72.67,0,0,0,6.08-12.16l.94-1.86v-.94a1.4,1.4,0,0,1,.47-.94,20.77,20.77,0,0,0,.93-3.28v-1.39c.31-1.88.54-4.06.7-6.56s.24-5,.24-7.48a5.1,5.1,0,0,1-.48-2.34v-.48l-1.39-6.54c3.43,0,7.86-.14,13.34-.46,1.37-.08,2.75-.21,4.13-.4-.14.38-.28.74-.41,1.1a118.54,118.54,0,0,0-6.79,28.77,45.67,45.67,0,0,0-.46,6.07,34.13,34.13,0,0,0,0,11.23c.62,4.37,2.74,9,6.31,13.79s9.9,7.25,18.95,7.25a38.52,38.52,0,0,0,23.62-7,96,96,0,0,0,20-18.14,52.81,52.81,0,0,0,3.73,12.16c1.88,4.37,5.45,7.79,10.76,10.28a7.28,7.28,0,0,0,2.82,1.16,8,8,0,0,1,2.33.72,8.09,8.09,0,0,0,2.33.45,35.15,35.15,0,0,0,14.74-1.17,53.86,53.86,0,0,0,13.32-6.31,40.34,40.34,0,0,0,6.08-4.2C2086.22,1004.22,2088.23,1002.67,2090.41,1001.12ZM1928.6,970.71v0a27.16,27.16,0,0,1-1.4,4.66,10.18,10.18,0,0,1-1.88,4.2,16.13,16.13,0,0,1-3,4,53.78,53.78,0,0,1-4.44,4,26.66,26.66,0,0,1-9.83,5.15q-6.09,1.86-15,.46a35.35,35.35,0,0,1-12.6-4.67q-8.39-5.15-10.07-12.16a72,72,0,0,1-1.68-8q-.46-8.88,5.61-18.94A182.9,182.9,0,0,1,1887.94,930c1.56,2.19,2.65,3.28,3.29,3.28a43.76,43.76,0,0,0,11.68,11.22c4.38,2.8,10.59,4.68,18.71,5.62a14.72,14.72,0,0,1,4.2,5.61c.92,2.19,1.68,4,2.32,5.61a15.29,15.29,0,0,1,.95,4.68A24.54,24.54,0,0,1,1928.6,970.71Z"/><path class="cls-18" d="M2606.3,935.15a6,6,0,0,0-4.93.25,32.44,32.44,0,0,0-4,2.57,43.72,43.72,0,0,0-3.73,4.2q-2.84,4.19-6.79,10.07a94.75,94.75,0,0,1-8.67,11,33.94,33.94,0,0,1-4.9,4.91,64.41,64.41,0,0,1-8.4,6.09,44.68,44.68,0,0,1-11.46,4.9,41,41,0,0,1-14,1.42,50.91,50.91,0,0,1-14-2.81c-4.36-1.56-8.4-3.12-12.16-4.69a75.39,75.39,0,0,1-10.29-5.14l-3.74-2.8A80.2,80.2,0,0,0,2517,962.3a100.43,100.43,0,0,0,23.86-8.39,80.58,80.58,0,0,0,16.37-11,64.58,64.58,0,0,0,10.52-11.69,56.65,56.65,0,0,0,5.88-10.54q2.79-5.6,2.79-8.39,2.34-10.78,0-16.84a21.17,21.17,0,0,0-6.56-9.39,30.93,30.93,0,0,0-11.71-5.14,55.86,55.86,0,0,0-23.85,1.39,85.28,85.28,0,0,0-21,9.37,9.8,9.8,0,0,1-1.64,1.17c-.79.47-1.68,1-2.58,1.62a122.89,122.89,0,0,0-13.8,11,106.78,106.78,0,0,0-11.46,12.4,114.65,114.65,0,0,1,11.94-18c5.48-7,13.32-12.87,23.62-17.56q16.35-25.19,31.07-45.82t22.2-30.41c1.56-2.52,2.35-4.35,2.35-5.6a5.67,5.67,0,0,0-.94-3.27,12.78,12.78,0,0,0-3.27-2.34,53.7,53.7,0,0,0-15.44-2.57q-8.4-.24-15,.23c-5.61.63-10,1.86-13.09,3.74A51.3,51.3,0,0,0,2523,800q-8.4,9.83-22.22,30.63t-28.06,45.84q-14.28,25-26.87,50.52-6,12-10.36,22.77c-1.53,2.46-3.22,4.93-5,7.38q-2.35,3.74-11,13.8a66.42,66.42,0,0,1-22.67,16.6,50.13,50.13,0,0,1-24.35,6.08,42.31,42.31,0,0,1-16.36-3.26c-4.68-1.57-8.28-3.74-10.77-6.55a19.16,19.16,0,0,1-5.37-15.2,54.08,54.08,0,0,1,4-16.61,64.68,64.68,0,0,1,7.24-13.33,142.4,142.4,0,0,1,9.11-11.68q4.7-5.38,8.9-9.37c2.81-2.64,5.13-4.74,7-6.3a23.64,23.64,0,0,1,3-2.6,19.56,19.56,0,0,0,2.52-2.11,42.92,42.92,0,0,1-4.68.7,12.54,12.54,0,0,0-4.19,1.17l-4.2,1.42q9.36-7,15.44-7.26c4-.15,6.54.08,7.48.71q4.68.93,3,8.17a57.39,57.39,0,0,1-4.43,12.86,8.06,8.06,0,0,1-1,2.34l-1.86,2.81a1.36,1.36,0,0,0-.47.93c-.32.63-.63,1.35-.94,2.11a22.4,22.4,0,0,1-.94,2.11,4.2,4.2,0,0,0,0,2.8c.32,1,1.25,1.68,2.82,2.35a34.37,34.37,0,0,0,8.39.92,23.72,23.72,0,0,0,9.83-2.32,22.55,22.55,0,0,0,6.54-4.93,29.4,29.4,0,0,0,5.15-8.65,18.63,18.63,0,0,0,2.34-8q2.33-13.54-1.68-21.28a28.15,28.15,0,0,0-10.08-11.46,26.29,26.29,0,0,0-9.59-4.67c-3-.62-4.61-.94-4.92-.94q-12.17-2.33-29.46,2.34T2328,903.36a151.28,151.28,0,0,0-22,27.12,1.37,1.37,0,0,1-.46.94,10.57,10.57,0,0,0-1.86,2.81c-1.57,2.8-3.51,6.62-5.88,11.45-.38.78-.73,1.59-1.09,2.41l-4.51,6.95a112.88,112.88,0,0,1-9.38,12.39,44.23,44.23,0,0,1-9.81,8.65c-3.28,2-6.17,2.1-8.65.25q-4.2-2.82-1.4-13.11a132.89,132.89,0,0,1,8.65-22.46q5.87-12.13,12.59-23.85t9.59-17.29a8.22,8.22,0,0,0,.47-6.08,5.93,5.93,0,0,0-1.39-2.34,30.55,30.55,0,0,0-8.9-6.09,55,55,0,0,0-8.89-3.26c-2.79-.31-5,0-6.53.93a5.32,5.32,0,0,0-1.88,1.86q-3.26,5.18-10.28,15.21a269.75,269.75,0,0,0-26.34,48q-2.52,3-5.93,6.46a151.94,151.94,0,0,1-13.82,12.16,75.64,75.64,0,0,1-14.27,8.88q-7,3.27-11.23,1.87l-.47-.47c-2.18-1.25-2.8-3.65-1.86-7.24a47.34,47.34,0,0,1,3.27-9.13q11.2-22.44,25.95-46.07t29-44.9q14.28-21.27,26.2-38.11t18.47-25.26c1.55-2.52,2.34-4.35,2.34-5.6a5.68,5.68,0,0,0-.94-3.28,12.29,12.29,0,0,0-3.26-2.33,48.51,48.51,0,0,0-15-2.57c-5.63-.16-10.61-.09-15,.22-5.6.32-10,1.56-13.1,3.75a51.43,51.43,0,0,0-4.2,3.74q-4.7,5.6-11.24,14.72t-14.27,20.83q-7.72,11.67-15.9,25.47t-16.15,27.83q-4.2,7-9.59,17.07t-10.52,21.76q-5.14,11.69-9.35,24.08a119.1,119.1,0,0,0-5.62,24.09,125,125,0,0,0-.93,15,28.7,28.7,0,0,0,2.82,13.08v1h.45v.93a.42.42,0,0,1,.47.36.24.24,0,0,1,0,.12l.47.46v.46a.42.42,0,0,1,.47.38.14.14,0,0,1,0,.09l.46.46a.43.43,0,0,0,.36.48h.11a19.12,19.12,0,0,0,4.68,4.2,31.45,31.45,0,0,0,4.69,2.32,13.66,13.66,0,0,0,5.14.94q13.54,1.88,27.36-5.38a122.39,122.39,0,0,0,26-18.47c1.58-1.46,3.09-3,4.6-4.44-.05,1.22-.05,2.44-.15,3.73a12.06,12.06,0,0,0,.7,5.39q.93,6.54,6.07,13.78t18.71,7.25a39.37,39.37,0,0,0,24.35-7.25,96.52,96.52,0,0,0,20.34-18.94l.17-.21a38.75,38.75,0,0,0,2.87,6.77q4.7,8.4,15.21,14.5t28.77,8.4a7.85,7.85,0,0,1,1.87.23,7.37,7.37,0,0,0,1.87.23q6.06.48,13.08.48a124.11,124.11,0,0,0,14-.94,141.36,141.36,0,0,0,17.32-3.28q4.2-1.38,8.65-3a92,92,0,0,0,9.12-4,88.76,88.76,0,0,0,19.89-13.69,51.35,51.35,0,0,0,1.61,13.69,3.16,3.16,0,0,1,.7.93,4.69,4.69,0,0,0,.72.94c.94,1.24,2.8,2.52,5.61,4s7.17,2.1,13.09,2.1c2.52-.31,4.14-1.16,4.91-2.57s1.33-2.41,1.68-3a170.12,170.12,0,0,1,5.15-17.3q3.25-9.36,8-19.64,2.79-6.07,9.82-18.47A211.14,211.14,0,0,1,2491,933.47a123.84,123.84,0,0,1,19.65-20.57q10.52-8.65,20.82-7.26a57.22,57.22,0,0,1,6.53,1.88c2.82.92,4.2,3.42,4.2,7.48a7.8,7.8,0,0,0-1.4-1.88,17.74,17.74,0,0,0-4.2-3.26l.48.45a12.19,12.19,0,0,1-1,9.37,28.55,28.55,0,0,1-8.65,8.65,101.26,101.26,0,0,1-13.08,7.47q-7.26,3.51-14.5,6.55a95.67,95.67,0,0,0-11.93,5.88q-6.57,3.78-8.18,10.08a34.73,34.73,0,0,0-1.17,11.92,45.2,45.2,0,0,0,3.27,14q5.6,14.5,15,21.29a62.53,62.53,0,0,0,18.71,9.56,66.83,66.83,0,0,0,22.44,2.82,43.38,43.38,0,0,0,23.86-8.4,108.11,108.11,0,0,0,20.58-19.16A204.21,204.21,0,0,0,2599,967.44q7.24-11.69,11.44-19.63,1.42-2.32,1.42-6.79T2606.3,935.15Z"/><path class="cls-18" d="M1796.4,1143.19c-19.76-5-24.65-7.52-24.65-15v-.32c0-5.56,5-10,14.69-10s19.6,4.24,29.72,11.26l13.06-18.94c-11.59-9.3-25.79-14.53-42.45-14.53-23.36,0-40,13.72-40,34.43v.34c0,22.67,14.86,29.06,37.88,34.94,19.1,4.9,23,8.17,23,14.54v.32c0,6.71-6.2,10.78-16.5,10.78-13.06,0-23.83-5.38-34.13-13.88L1742.18,1195a72.76,72.76,0,0,0,48.51,18.28c24.66,0,42-12.73,42-35.44v-.33C1832.66,1157.56,1819.6,1149.22,1796.4,1143.19Z"/><polygon class="cls-18" points="1843.98 1120.49 1878.77 1120.49 1878.77 1211.61 1903.92 1211.61 1903.92 1120.49 1938.7 1120.49 1938.7 1097.29 1843.98 1097.29 1843.98 1120.49"/><path class="cls-18" d="M2030.7,1162.79c0,18.13-9.32,27.43-24.66,27.43s-24.66-9.64-24.66-28.26V1097.3h-25.15v65.32c0,33.64,18.78,50.79,49.47,50.79s50.19-17,50.19-51.61v-64.5H2030.7Z"/><path class="cls-18" d="M2126.14,1097.29h-44.59v114.32h44.59c35.93,0,60.75-25,60.75-57.15v-.32C2186.89,1122,2162.07,1097.29,2126.14,1097.29Zm34.43,57.49c0,20.25-13.88,34.14-34.43,34.14H2106.7V1120h19.44c20.58,0,34.43,14.21,34.43,34.43Z"/><rect class="cls-18" x="2210.47" y="1097.3" width="25.15" height="114.32"/><path class="cls-18" d="M2320.08,1095.34c-35.27,0-60.91,26.63-60.91,59.12v.32c0,32.5,25.31,58.79,60.59,58.79s60.9-26.62,60.9-59.12v-.32C2380.66,1121.63,2355.35,1095.34,2320.08,1095.34Zm34.29,59.44c0,19.6-14,35.6-34.29,35.6s-34.62-16.32-34.62-35.92v-.32c0-19.61,14-35.62,34.3-35.62s34.61,16.34,34.61,35.94Z"/><path class="cls-18" d="M2448.67,1143.19c-19.76-5-24.65-7.52-24.65-15v-.32c0-5.56,5-10,14.69-10s19.6,4.24,29.73,11.26l13.06-18.94c-11.6-9.3-25.8-14.53-42.46-14.53-23.35,0-40,13.72-40,34.43v.34c0,22.67,14.86,29.06,37.88,34.94,19.11,4.9,23,8.17,23,14.54v.32c0,6.71-6.2,10.78-16.49,10.78-13.06,0-23.84-5.38-34.14-13.88L2394.46,1195a72.76,72.76,0,0,0,48.5,18.28c24.66,0,42-12.73,42-35.44v-.33C2484.93,1157.56,2471.87,1149.22,2448.67,1143.19Z"/><path class="cls-19" d="M290.44,47.16C252.91,348.68,468.91,400,472.69,400.85c.33-.27,14.14-11.24,22.6-21.39,13.22-15.55,18.56-26.34,18.56-26.34-226.66-87-221.92-275.54-217.67-318.66C290.74,39.54,290.44,47.16,290.44,47.16Z"/><path class="cls-19" d="M1167.33,68.68c-19,18.06-6.33,165.22-153.86,223.43,5.11,13.5,14,31.2,29,46.05C1166.58,269.57,1167.33,72.94,1167.33,68.68Z"/></g></g></svg>