<?xml version="1.0" encoding="utf-8"?>
<!-- Generator: Adobe Illustrator 23.0.1, SVG Export Plug-In . SVG Version: 6.00 Build 0)  -->
<svg version="1.1" id="Layer_1" xmlns="http://www.w3.org/2000/svg" xmlns:xlink="http://www.w3.org/1999/xlink" x="0px" y="0px"
	 viewBox="0 0 801.9 579.9" style="enable-background:new 0 0 801.9 579.9;" xml:space="preserve">
<style type="text/css">
	.st0{fill:#232323;}
	.st1{opacity:0.5;}
</style>
<title>gilliane-gignac</title>
<path class="st0" d="M217.5,512.6c-4.2-0.8-8.4-1.6-12.6-2.4c-6.3-1.3-12.5,2.8-13.9,9.1c-1.8,8.9-3.7,17.7-5.5,26.6
	c-1.3,6.3,3.1,12.5,9.8,13.8c4.4,0.9,8.8,1.7,13.2,2.5c6.7,1.2,13-3,14.1-9.3c0.8-4.8,1.6-9.6,2.5-14.4c-6.1-1-12.2-2.1-18.3-3.3
	l-1,5.1c4.4,0.8,8.8,1.6,13.1,2.4c-0.5,3.1-1.1,6.2-1.6,9.3c-0.7,3.6-4.2,5.9-7.8,5.2c0,0,0,0,0,0c-4.4-0.8-8.8-1.6-13.2-2.5
	c-3.6-0.6-6.1-4.1-5.4-7.7c0,0,0,0,0,0c1.8-8.9,3.6-17.8,5.4-26.6c0.8-3.5,4.2-5.8,7.8-5.1c4.2,0.8,8.5,1.6,12.7,2.4
	c3.6,0.6,6,4,5.4,7.6l-0.7,3.8l5.2,0.9c0.2-1.2,0.4-2.5,0.6-3.8C228.2,519.7,223.9,513.7,217.5,512.6z"/>
<path class="st0" d="M576.8,539.5c-6.1,1-12.2,2-18.4,2.9l0.8,5.1c4.4-0.7,8.8-1.3,13.2-2c0.5,3.1,1,6.2,1.5,9.4
	c0.5,3.6-2.1,7-5.7,7.5c0,0,0,0,0,0c-4.4,0.7-8.8,1.3-13.2,1.9c-3.6,0.6-7.1-1.9-7.6-5.5c0,0,0,0,0,0l-3.6-26.9
	c-0.4-3.6,2.1-6.9,5.7-7.3c4.3-0.6,8.5-1.2,12.8-1.9c3.6-0.6,6.9,1.8,7.5,5.4c0.2,1.2,0.4,2.5,0.6,3.8l5.2-0.8
	c-0.2-1.2-0.4-2.5-0.6-3.7c-1.1-6.4-7.1-10.7-13.5-9.7c-4.2,0.7-8.5,1.3-12.7,1.9c-6.4,0.9-10.9,6.7-10.2,13.1c1.2,9,2.3,18,3.5,27
	c0.8,6.4,7,10.9,13.7,9.9c4.4-0.6,8.9-1.3,13.3-2c6.7-1,11.3-7.1,10.3-13.4C578.4,549.2,577.6,544.4,576.8,539.5z"/>
<path class="st0" d="M265.2,520.1c-4.2-0.6-8.5-1.2-12.7-1.8c-6.4-1-12.4,3.4-13.4,9.7c-0.7,4.1-1.3,8.2-2,12.4l-0.8,5.1
	c-1.1,7-2.2,13.9-3.3,20.9l5.4,0.8c1.1-7,2.2-13.9,3.2-20.9c8.8,1.3,17.6,2.6,26.4,3.7l-2.7,21l5.4,0.7c0.9-7,1.7-14,2.6-21l0.6-5.1
	c0.5-4.2,1-8.3,1.5-12.4C276.2,526.8,271.6,521,265.2,520.1z M270.2,532.5c-0.5,4.1-1.1,8.3-1.6,12.4c-8.8-1.1-17.5-2.4-26.3-3.7
	c0.7-4.1,1.3-8.2,1.9-12.4c0.6-3.6,3.9-6,7.5-5.5c4.2,0.6,8.5,1.2,12.8,1.8C268.1,525.7,270.7,529,270.2,532.5L270.2,532.5z"/>
<path class="st0" d="M519.9,523c1.9,16.7,3.8,33.4,5.6,50.2l5.4-0.6l-5.9-50.1L519.9,523z"/>
<path class="st0" d="M330.4,538.7c-0.3,3.8-0.5,7.6-0.8,11.3c0,0.2,0,0.5,0,0.7c-0.1,1.4-0.2,2.8-0.3,4.3l-0.1,0.9
	c-0.2,3.2-0.5,6.4-0.7,9.6c-0.4,6.6,4.7,12.2,11.3,12.6c0.1,0,0.1,0,0.2,0c5.4,0.3,10.7,0.6,16.1,0.8c0.1-1.7,0.1-3.5,0.2-5.2
	c-5.3-0.2-10.7-0.5-16-0.8c-3.7-0.2-6.5-3.3-6.4-7c0,0,0,0,0,0c0.2-3.2,0.4-6.4,0.6-9.6c7.5,0.5,15,0.9,22.5,1.2
	c0.1-1.7,0.2-3.5,0.2-5.2c-7.5-0.3-14.9-0.7-22.4-1.2c0-0.2,0-0.5,0-0.7c0.3-3.8,0.5-7.6,0.7-11.4c0.3-3.6,3.4-6.4,7-6.2
	c5.1,0.3,10.3,0.6,15.5,0.8c0.1-1.7,0.1-3.5,0.2-5.2c-5.1-0.2-10.3-0.5-15.4-0.8C336.5,527.2,330.9,532.2,330.4,538.7z"/>
<path class="st0" d="M446.4,573.9c-3.7,0.2-6.8-2.7-7-6.3c-0.1-3.2-0.2-6.4-0.3-9.6c7.5-0.2,15-0.6,22.5-1c-0.1-1.7-0.2-3.5-0.3-5.2
	c-7.5,0.4-14.9,0.7-22.4,1c0-0.2,0-0.5,0-0.7c-0.1-3.8-0.2-7.6-0.4-11.4c-0.1-3.6,2.7-6.7,6.4-6.8c5.1-0.2,10.3-0.4,15.5-0.7
	c-0.1-1.7-0.2-3.5-0.3-5.2c-5.1,0.3-10.2,0.5-15.4,0.7c-6.5,0.3-11.5,5.7-11.4,12.2c0.1,3.8,0.2,7.6,0.3,11.4c0,0.2,0,0.5,0,0.7
	l0.1,4.3c0,0.3,0,0.6,0,0.9l0.3,9.6c0.3,6.6,5.9,11.7,12.5,11.4c0.1,0,0.1,0,0.2,0c5.4-0.2,10.8-0.5,16.1-0.8
	c-0.1-1.7-0.2-3.5-0.3-5.2C457.1,573.4,451.8,573.7,446.4,573.9z"/>
<path class="st0" d="M409.3,529.4c-5.1,0-10.3,0-15.4,0c-0.2,16.8-0.3,33.7-0.5,50.5c5.4,0.1,10.8,0.1,16.1,0
	c6.6,0.1,12-5.2,12.1-11.8c0-0.1,0-0.1,0-0.2c-0.2-9-0.3-17.9-0.4-26.9C421.1,534.6,415.8,529.4,409.3,529.4z M409.5,574.7
	c-3.5,0-7.1,0-10.6,0c0.1-13.3,0.1-26.7,0.2-40h10.3c3.6,0,6.6,2.9,6.6,6.5c0.1,9,0.2,17.9,0.3,26.9
	C416.3,571.8,413.3,574.7,409.5,574.7C409.6,574.7,409.5,574.7,409.5,574.7z"/>
<path class="st0" d="M609.9,508.9l7.5,37.3c-9.8-11-19.4-22-28.7-33.2l-4.1,0.7c2.9,16.6,5.8,33.1,8.8,49.7c1.8-0.3,3.6-0.6,5.4-1
	c-2.3-12.5-4.5-24.9-6.8-37.4c9.4,11.2,19.1,22.2,29,33.2l4.2-0.9c-3.4-16.5-6.8-33-10.2-49.5L609.9,508.9z"/>
<path class="st0" d="M302.1,544.5c-3.2-7-6.3-14-9.3-21l-4.1-0.5c-1.9,16.7-3.7,33.5-5.6,50.2l5.4,0.6c1.3-12.6,2.7-25.2,4-37.8
	c2.8,6.4,5.6,12.7,8.5,19c4.1-5.7,8.1-11.3,12-17c-1.1,12.7-2.2,25.3-3.3,37.9c1.8,0.2,3.6,0.3,5.4,0.5c1.4-16.8,2.7-33.5,4.1-50.3
	l-4.1-0.3C310.9,532,306.6,538.2,302.1,544.5z"/>
<path class="st0" d="M504.4,553.2c-7.6-3-15.1-6.1-22.6-9.3c-2.2-1-3.6-3-3.8-5.4c-0.2-3.6,2.5-6.7,6.1-7c4.3-0.3,8.6-0.7,12.9-1.1
	c3.6-0.3,6.8,2.3,7.2,5.9l0.2,2.6l5.2-0.5c-0.1-0.9-0.2-1.7-0.2-2.6c-0.7-6.4-6.4-11.1-12.8-10.5c-4.3,0.4-8.5,0.7-12.8,1.1
	c-6.4,0.5-11.3,6-10.9,12.5c0.3,4.3,2.9,8,6.9,9.8l0,0l0.2,0.1l0,0c7.5,3.2,15.1,6.3,22.8,9.4c2.2,0.9,3.8,2.9,4,5.3
	c0.3,3.6-2.5,6.8-6.1,7.1c0,0,0,0-0.1,0c-4.5,0.4-8.9,0.8-13.4,1.1c-3.6,0.4-6.9-2.3-7.2-5.9c0,0,0,0,0-0.1l-0.2-2.6l-5.4,0.4
	c0,0.8,0.1,1.7,0.2,2.6c0.4,6.4,6.2,11.3,13,10.8c4.5-0.3,8.9-0.7,13.4-1.1c6.8-0.6,11.7-6.4,11.1-12.8
	C511.4,558.4,508.5,554.7,504.4,553.2z"/>
<rect x="244.8" y="481" class="st0" width="319.7" height="3"/>
<path class="st0" d="M247.5,304.6c20,0,38.5-11,48-28.6l0,0l18.3-33.1c17.2-31.9,50.4-51.9,86.7-52c36.4,0.1,69.8,19.8,87.4,51.6
	l0,0l18.5,33.5l0,0c14.3,26.5,47.4,36.4,73.9,22c17.6-9.5,28.6-27.9,28.6-48V94.7c0-52.3-42.5-94.7-94.8-94.6
	c-9.4,0-18.8,1.4-27.8,4.2c-0.1,0-0.2,0.1-0.4,0.1c-27.5,8.5-56.2,12.8-85,12.8c-29.3,0-58.4-4.4-86.3-13.1h0
	c-50.1-14.9-102.8,13.6-117.7,63.7c-2.6,8.8-3.9,17.8-3.9,27v155.4C193,280.2,217.4,304.6,247.5,304.6z M580.1,250.1
	c0,14.2-11.5,25.7-25.7,25.7c-9.5,0-18.2-5.2-22.7-13.6c0,0,0-0.1,0-0.1c0,0,0-0.1,0-0.1l-18.5-33.5l0,0l0,0L489.6,186
	c32.2,8.7,66.6-0.2,90.5-23.4V250.1z M287.6,28.8c6.2,0,12.4,0.9,18.4,2.6h0.1l0.7,0.2c0.5,0.2,1.1,0.3,1.6,0.5l0.3,0.1
	c29.9,9.1,61,13.8,92.3,13.8c31.8,0,63.5-4.8,93.9-14.2l0.3-0.1c34.8-10.6,71.6,9.1,82.1,43.9s-9.1,71.6-43.9,82.1
	c-34.8,10.6-71.6-9.1-82.1-43.9c-0.5-1.6-0.9-3.1-1.2-4.7h47.6c8,0,14.4-6.5,14.4-14.4c0-8-6.5-14.4-14.4-14.4h-63.6
	c-8,0-14.4,6.5-14.4,14.4c0,16.5,4.3,32.7,12.6,47c0.1,0.1,0.1,0.2,0.2,0.3l16.2,29.3c-15.3-6.2-31.6-9.4-48.1-9.4
	c-16.1,0-32.1,3.1-47,9.1l18-32.5c0.1-0.3,0.3-0.6,0.4-0.8c6.9-13.3,10.4-28.1,10.4-43.1c0-8-6.5-14.4-14.4-14.4l0,0h-71.1
	c-8,0-14.4,6.4-14.4,14.4c0,8,6.4,14.4,14.4,14.4c0,0,0,0,0,0h55.1c-8,35.5-43.2,57.8-78.6,49.8s-57.8-43.2-49.8-78.6
	C230.1,50.2,256.8,28.8,287.6,28.8L287.6,28.8z M221.8,162.6c23.9,23.2,58.3,32.1,90.5,23.4l-42,76v0.1l-0.1,0.1
	c-6.7,12.5-22.3,17.2-34.8,10.6c-8.4-4.5-13.6-13.2-13.6-22.7L221.8,162.6z"/>
<g class="st1">
	<path class="st0" d="M221.8,162.6v0.9c24.9,24.1,48.3,37.3,63,37.8c-12.5,25.9-24.4,55-31.8,74c7.4-1.6,13.7-6.4,17.2-13l0.1-0.1
		v-0.1l42-76C280.1,194.8,245.7,185.8,221.8,162.6L221.8,162.6z"/>
	<path class="st0" d="M432.3,141.7c-8.3-14.3-12.6-30.5-12.6-47.1c0-0.8,0.1-1.6,0.2-2.4c-0.7,3.6-3.7,26.1,11.9,73.6
		c5.7,1.4,11.4,3.3,16.9,5.5l-16.2-29.3C432.3,141.9,432.3,141.8,432.3,141.7z"/>
	<path class="st0" d="M294.4,108.8L294.4,108.8l36.8,7.8c-4.6,37.7-43.5,43.8-43.5,43.8c30.8-0.1,57.4-21.4,64.2-51.4h-55.1
		C296,109,295.2,109,294.4,108.8z"/>
	<path class="st0" d="M558.7,275.4c12.4-2.1,21.5-12.8,21.5-25.4v-87.5c-6.3,6.1-13.3,11.2-21,15.4L558.7,275.4z"/>
	<path class="st0" d="M559.4,142.6c26.5-24.8,27.8-66.5,3-93c-12-12.8-28.7-20.3-46.2-20.8c26.7,13.8,43.5,41.3,43.5,71.3
		L559.4,142.6z"/>
</g>
<g>
	<path class="st0" d="M342,356.4c0-0.2-0.1-0.3-0.3-0.3c-0.2,0-0.4,0-0.6,0c-4.4,0-8.8,0-13.2,0c-0.4,0-0.7,0-1.1,0
		c-0.1,0-0.3,0-0.4,0.1c-2.2,1.6-4.6,3-6.8,4.7c-0.7,0.2-0.7,0.7-0.7,1.2c0,6.3,0,12.5,0,18.8c0,0.3,0,0.6,0,0.9
		c-0.1-0.1-0.2-0.1-0.2-0.2c-0.7-1.1-1.3-2.3-2-3.4c-0.5-0.8-1-1.7-1.5-2.5c-0.8-1.3-1.5-2.5-2.2-3.8c-0.3-0.4-0.5-0.9-0.8-1.4
		c-0.8-1.2-1.5-2.5-2.3-3.8c-0.5-0.8-0.9-1.5-1.3-2.3c-0.7-1.2-1.4-2.3-2.1-3.5c-0.5-0.9-1-1.7-1.5-2.6c-0.5-0.9-1-1.7-1.5-2.5
		c-4,0-8.1,0-12.1,0c0,0.4-0.4,0.4-0.6,0.5c-0.5,0.4-1.1,0.7-1.6,1.1c-0.6,0.3-1.1,0.7-1.6,1.1c-1,0.6-1.9,1.4-2.9,2
		c-0.6,0.3-0.8,0.7-0.8,1.4c0,24.3,0,48.6,0,72.9c0,0.2,0,0.5,0,0.7c0,0.1,0.1,0.2,0.2,0.2c0.2,0,0.4,0,0.6,0c3.4,0,6.8,0,10.2,0
		c1.3,0,2.7,0,4,0c0.2,0,0.4,0,0.6-0.2c1-0.7,2.1-1.4,3.1-2.1c1.2-0.9,2.4-1.7,3.6-2.4c0.5-0.3,0.7-0.7,0.7-1.2c0-6.3,0-12.7,0-19
		c0-0.2,0-0.4,0.1-0.6c0.1,0.2,0.2,0.4,0.3,0.5c0.3,0.5,0.6,1,0.9,1.5c0.5,0.9,0.9,1.8,1.5,2.6c0.8,1.2,1.5,2.6,2.3,3.8
		c0.3,0.5,0.7,1.1,1,1.6c0.4,0.7,0.9,1.4,1.3,2.2c0.2,0.5,0.6,1,0.9,1.5c0.7,1.2,1.5,2.4,2.2,3.6c0.5,0.8,0.9,1.6,1.3,2.4
		c0.7,1.2,1.5,2.5,2.3,3.7c0.3,0.6,0.6,1.2,1,1.7c0.2,0.2,0.2,0.3,0.5,0.3c2.4,0,4.8,0,7.1,0c1.5,0,2.9,0,4.4,0
		c0.3,0,0.5-0.1,0.7-0.2c2.2-1.5,4.5-3,6.7-4.6c0.7-0.2,0.7-0.7,0.7-1.2c0-24.3,0-48.6,0-72.9C342,356.8,342,356.6,342,356.4z
		 M337.7,360.8c0,0.2,0,0.4,0,0.6c0,21.4,0,42.8,0,64.1c0,0.3,0,0.6,0,0.9c-0.3,0-0.6,0.1-1,0.1c-1.4,0-2.9,0-4.3,0
		c-0.2,0-0.3,0-0.5-0.3c-0.4-0.6-0.7-1.2-1-1.8c-0.7-1.2-1.5-2.4-2.2-3.6c-0.5-0.8-0.8-1.6-1.3-2.4c-0.8-1.2-1.4-2.5-2.2-3.7
		c-0.5-0.8-0.9-1.6-1.3-2.4c-0.7-1.2-1.5-2.4-2.2-3.6c-0.5-0.9-1-1.7-1.5-2.6c-0.7-1.1-1.3-2.4-2.1-3.5c-0.5-0.7-0.9-1.5-1.3-2.3
		c-0.8-1.3-1.4-2.6-2.3-3.8c-0.3-0.5-0.5-1-0.8-1.5c-0.9-1.5-1.9-3-2.8-4.6c-0.4-0.8-0.9-1.5-1.3-2.3c-0.8-1.3-1.4-2.6-2.3-3.8
		c-0.5-0.8-0.9-1.6-1.3-2.4c-0.7-1.2-1.5-2.4-2.2-3.6c-0.3-0.5-0.6-1.1-0.9-1.6c0,0-0.1,0-0.1,0.1c0,0.3,0,0.6,0,0.9
		c0,16,0,31.9,0,47.9c0,0.3,0.1,0.7-0.1,0.8c-0.1,0.2-0.5,0.1-0.8,0.1c-1.8,0-3.7,0-5.5,0c-0.3,0-0.4,0-0.4-0.3c0-0.2,0-0.4,0-0.6
		c0-21.4,0-42.9,0-64.3c0-0.3-0.1-0.7,0.1-0.8c0.1-0.2,0.6-0.1,0.8-0.1c1.3,0,2.6,0,3.8,0c0.4,0,0.6,0.1,0.8,0.5
		c0.6,1.2,1.4,2.4,2.1,3.5c0.5,0.8,0.9,1.5,1.3,2.3c0.8,1.3,1.5,2.5,2.3,3.8c0.5,0.8,1,1.7,1.5,2.5c0.7,1.2,1.4,2.4,2.1,3.5
		c0.5,0.8,0.9,1.5,1.3,2.3c0.6,1,1.1,2,1.8,2.9c0.3,0.4,0.5,1,0.8,1.5c0.7,1.2,1.5,2.4,2.2,3.6c0.5,0.8,0.8,1.6,1.3,2.4
		c0.8,1.2,1.4,2.5,2.2,3.7c0.5,0.8,0.9,1.6,1.3,2.4c0.7,1.2,1.5,2.4,2.2,3.6c0.5,0.9,1,1.7,1.5,2.6c0.7,1.1,1.3,2.4,2.1,3.5
		c0.5,0.8,0.9,1.6,1.3,2.4c0.6,1.1,1.3,2.1,1.9,3.1c0,0.1,0.1,0.1,0.2,0.1c0-0.1,0-0.1,0-0.2c0-0.2,0-0.5,0-0.7
		c0-16.1,0-32.2,0-48.3c0-0.2,0-0.5,0-0.7c0-0.2,0.1-0.3,0.3-0.3c2.1,0,4.2,0,6.2,0C337.7,360.5,337.8,360.5,337.7,360.8z"/>
	<path class="st0" d="M660.4,356.3c-0.8,0-1.5-0.1-2.3-0.1c-4.2,0-8.4,0-12.6,0c-0.4,0-0.7,0.1-1,0.3c-2.2,1.5-4.5,3-6.7,4.5
		c-0.3,0.2-0.5,0.4-0.5,0.9c0,6.5,0,13.1,0,19.6c0,0.2,0,0.4,0,0.7c-0.3-0.4-0.5-0.8-0.7-1.1c-0.5-0.8-0.9-1.6-1.3-2.4
		c-0.9-1.5-1.9-3-2.8-4.6c-0.3-0.5-0.5-1-0.8-1.5c-0.4-0.8-1-1.5-1.4-2.3c-0.5-1-1.1-1.9-1.6-2.8c-0.9-1.6-1.8-3.2-2.8-4.7
		c-0.3-0.5-0.6-1.1-1-1.7c-0.6-0.8-1-1.7-1.5-2.5c-0.2-0.4-0.5-0.9-0.8-1.3c-0.2-0.4-0.6-0.8-0.7-1.3c-4,0-8.1,0-12.1,0
		c-0.2,0.2-0.5,0.4-0.7,0.5c-0.9,0.6-1.9,1.2-2.8,1.8c-1,0.8-2.2,1.5-3.3,2.3c-0.2,0.2-0.6,0.2-0.7,0.5c-0.1,0.2,0,0.5,0,0.8
		c0,24.4,0,48.8,0,73.1c0,0.1,0,0.3,0,0.4c0,0.5,0,0.5,0.5,0.5c4.8,0,9.5,0,14.3,0c0.4,0,0.7-0.1,1-0.3c1.3-0.9,2.6-1.7,3.8-2.6
		c1-0.7,2-1.4,3.1-2.1c0.2-0.1,0.4-0.3,0.3-0.5c0-0.2,0-0.4,0-0.5c0-6.2,0-12.4,0-18.6c0-0.2,0-0.4,0.1-0.8c0.1,0.2,0.1,0.3,0.1,0.3
		c0.8,1.3,1.5,2.6,2.3,3.9c0.4,0.7,0.8,1.5,1.3,2.2c0.8,1.2,1.5,2.5,2.3,3.8c0.5,0.7,0.8,1.6,1.3,2.3c0.8,1.2,1.4,2.5,2.2,3.7
		c0.5,0.8,0.9,1.6,1.4,2.4c0.7,1.1,1.3,2.4,2.1,3.5c0.6,0.9,1,2,1.8,2.8c0,0.5,0.4,0.4,0.7,0.4c3.7,0,7.5,0,11.2,0
		c0.4,0,0.7-0.1,0.9-0.3c2.2-1.5,4.4-2.9,6.6-4.4c0.7-0.5,0.7-0.5,0.7-1.4c0-23.8,0-47.6,0-71.4C660.4,357.7,660.4,357,660.4,356.3z
		 M656.1,426.4c-0.1,0.1-0.5,0-0.8,0.1c-1.4,0-2.9,0-4.3,0c-0.4,0-0.7,0-0.8-0.5c-0.7-0.9-1.2-1.9-1.7-2.8c-0.7-1.2-1.3-2.4-2.1-3.5
		c-0.5-0.8-0.9-1.6-1.3-2.4c-0.5-0.9-1.2-1.8-1.7-2.8c-0.4-0.8-0.9-1.5-1.3-2.3c-0.8-1.3-1.4-2.6-2.3-3.8c-0.3-0.5-0.5-1-0.8-1.5
		c-0.9-1.5-1.9-3-2.8-4.6c-0.3-0.5-0.5-1-0.8-1.5c-0.7-1.2-1.5-2.4-2.2-3.6c-0.5-0.8-0.8-1.6-1.3-2.4c-0.8-1.2-1.4-2.5-2.2-3.7
		c-0.5-0.8-0.9-1.6-1.3-2.4c-0.7-1.2-1.5-2.4-2.2-3.6c-0.5-0.8-0.9-1.6-1.3-2.4c-0.7-1.2-1.5-2.5-2.2-3.7c-0.4-0.6-0.7-1.3-1-1.9
		c0-0.1-0.2-0.1-0.2-0.2c0,0.1,0,0.2,0,0.2c0,0.2,0,0.4,0,0.6c0,15.9,0,31.8,0,47.7c0,0.2,0,0.4,0,0.6c0,0.3-0.1,0.3-0.3,0.3
		c-1.8,0-3.7,0-5.5,0c-0.3,0-0.6,0-0.9,0c-0.1,0-0.2-0.1-0.2-0.2c0-0.2,0-0.4,0-0.6c0-21.5,0-43,0-64.5c0-0.2,0-0.4,0-0.6
		c0-0.2,0.1-0.2,0.3-0.2c1.6,0,3.2,0,4.7,0c0.3,0,0.4,0.1,0.6,0.3c0.4,0.7,0.8,1.4,1.2,2.1c0.7,1.2,1.3,2.4,2.1,3.5
		c0.5,0.7,0.9,1.5,1.3,2.3c0.8,1.3,1.4,2.6,2.3,3.8c0.5,0.8,0.9,1.6,1.3,2.4c0.7,1.2,1.5,2.4,2.2,3.6c0.5,0.8,0.8,1.6,1.3,2.4
		c0.8,1.2,1.4,2.5,2.2,3.7c0.5,0.8,0.9,1.6,1.3,2.4c0.7,1.2,1.5,2.4,2.2,3.6c0.5,0.8,0.9,1.6,1.3,2.4c0.7,1.2,1.5,2.4,2.2,3.7
		c0.4,0.8,0.9,1.5,1.3,2.3c0.8,1.3,1.5,2.5,2.3,3.8c0.5,0.8,1,1.7,1.5,2.5c0.7,1.2,1.3,2.4,2.1,3.5c0.4,0.6,0.7,1.3,1.2,2.1
		c0-0.5,0-0.8,0-1.1c0-16.1,0-32.2,0-48.3c0-0.3-0.1-0.7,0.1-0.8c0.2-0.2,0.6-0.1,0.8-0.1c1.8,0,3.6,0,5.4,0c0.6,0,0.6,0,0.6,0.6
		c0,0.1,0,0.2,0,0.3c0,21.4,0,42.8,0,64.2C656.2,425.9,656.2,426.2,656.1,426.4z"/>
	<path class="st0" d="M63,374.9c0.1-1.2-0.2-2.4-0.4-3.6c-0.1-0.4-0.2-0.7-0.3-1c-0.2-0.7-0.5-1.4-0.8-2.1c-0.4-1.2-1.1-2.3-1.7-3.4
		c-0.5-0.9-1.2-1.7-1.9-2.4c-0.9-1-1.9-1.8-2.9-2.6c-0.9-0.7-1.9-1.2-2.8-1.8c-0.5-0.3-1.1-0.5-1.6-0.7c-0.6-0.3-2.7-0.9-3.4-0.9
		c-0.2,0-0.5-0.1-0.7-0.2c-0.3,0-0.5,0-0.8,0c0,0,0-0.1-0.1-0.1c-6.9,0-13.8,0-20.7,0c0,0.1,0,0.1-0.1,0.1c-0.3,0-0.5,0-0.8,0
		c-0.3,0-0.5,0.1-0.8,0.2c-0.7,0.1-1.3,0.3-1.9,0.5c-0.5,0.2-1,0.4-1.5,0.6c-0.9,0.3-1.7,0.7-2.5,1.2c-1.4,0.8-2.6,1.7-3.9,2.6
		c-1.1,0.7-2.1,1.4-3.2,2.2c-1.1,0.7-2.3,1.4-3.2,2.3c-1,1-2.1,1.9-2.9,3.1c-0.6,0.8-1.2,1.7-1.7,2.6c-0.5,1-1.1,2-1.4,3.2
		c-0.2,0.7-0.5,1.3-0.5,2c-0.3,0.4-0.1,0.9-0.3,1.3c-0.2,0.4,0,0.9-0.2,1.4c-0.2,0.4,0,0.9,0,1.4c0,9.3,0,18.7,0,28c0,1.7,0,3.3,0,5
		c0,1.6-0.2,3.3,0.2,4.9c-0.1,0.6,0.2,1.1,0.2,1.7c0.3,0.3,0.1,0.7,0.2,1c0.7,1.8,1.2,3.6,2.3,5.2c0.7,1.1,1.4,2.2,2.3,3.1
		c0.7,0.7,1.4,1.5,2.2,2.1c0.7,0.6,1.4,1.1,2.2,1.5c2.5,1.3,3.7,1.9,6.4,2.3c0.5,0.3,1.1,0,1.5,0.2c0.5,0.2,1,0.1,1.5,0.1
		c5.7,0,11.5,0,17.2,0c0.8,0,1.7,0,2.5-0.2c0.4-0.1,0.9-0.1,1.3-0.2c0.9-0.3,1.8-0.5,2.7-0.8c1-0.4,1.9-0.8,2.8-1.3
		c1.2-0.7,2.2-1.5,3.4-2.2c1.5-1,3-2,4.5-3c1.3-0.9,2.6-1.8,3.7-2.9c0.7-0.7,1.3-1.5,2-2.3c1.1-1.3,1.8-2.9,2.5-4.4
		c0.4-0.7,0.5-1.6,0.7-2.4c0.3-0.8,0.4-1.7,0.5-2.5c0.1-0.9,0.2-1.8,0.2-2.7c0-7.4,0-14.8,0-22.2c0-0.2,0-0.4,0-0.6
		c0-0.3-0.2-0.4-0.4-0.5c-0.1,0-0.2,0-0.4,0c-8.8,0-17.7,0-26.5,0c-0.4,0-0.8,0.1-1.1,0.4c-0.1,0.1-0.2,0.2-0.3,0.3
		c-2.1,1.4-4.2,2.9-6.4,4.2c-0.4,0.3-0.5,0.5-0.5,0.9c0,4.8,0,9.5,0,14.3c0,0.1,0,0.2,0,0.4c0,0.2,0,0.3,0.2,0.3c0.2,0,0.4,0,0.6,0
		c3.6,0,7.2,0,10.8,0c0.2,0,0.4,0,0.6,0c0.1,0,0.2,0.1,0.2,0.2c0,0,0,0.1,0,0.2c0,2.1,0,4.2,0,6.2c0,0.3-0.1,0.4-0.3,0.3
		c-0.2,0-0.4,0-0.5,0c-4,0-8.1,0-12.1,0c-0.9,0-1.7-0.2-2.4-0.7c-1.1-0.8-1.7-1.9-1.7-3.3c0-5.2,0-10.5,0-15.7c0-6.1,0-12.2,0-18.3
		c0-0.6,0-0.6,0.5-0.6c4.1,0,8.3,0,12.4,0c0.7,0,1.4,0.2,2,0.5c0.9,0.5,1.6,1.2,1.8,2.2c0.1,0.3,0.1,0.6,0.2,0.8
		c0.1,0.3,0.2,0.5,0.2,0.8c0,1.4,0,2.9,0,4.3c0,0.4,0,0.4,0.4,0.4c4.8,0,9.6,0,14.4,0c0.2,0,0.4,0,0.6-0.2c0.6-0.5,1.3-0.9,2-1.4
		c1.7-1.2,3.4-2.3,5.2-3.5c0.3-0.2,0.4-0.3,0.4-0.7C63.1,378.4,63.4,376.6,63,374.9z M58.6,376.3c-1.8,0-3.5,0-5.3,0
		c-0.4,0-0.8,0-1.2,0c-0.1,0-0.2-0.1-0.2-0.2c0-0.3,0-0.7,0-1c0-1-0.3-2-0.7-2.9c-0.5-1.3-1.4-2.3-2.4-3.2c-0.9-0.7-1.8-1.2-2.9-1.5
		c-0.9-0.2-1.7-0.3-2.6-0.3c-5.5,0-11,0-16.5,0c-1.1,0-2.1,0.3-3.1,0.7c-1.1,0.5-2.1,1.2-2.9,2.2c-0.5,0.7-1,1.4-1.3,2.2
		c-0.2,0.7-0.4,1.4-0.5,2.1c-0.1,0.6-0.1,1.3-0.1,1.9c0,11.7,0,23.3,0,35c0,1.5,0.5,3,1.3,4.3c0.7,1,1.6,1.9,2.6,2.6
		c0.9,0.6,2,0.9,3.1,1.2c0.2,0.1,0.4,0,0.6,0c6,0,12,0,18,0c1.4,0,2.6-0.5,3.8-1.2c1.2-0.8,2.2-1.9,2.9-3.1c0.4-0.6,0.6-1.4,0.8-2.2
		c0.1-0.6,0.2-1.2,0.2-1.8c0-3.9,0-7.8,0-11.8c0-0.5,0-0.5-0.6-0.5c-3.6,0-7.3,0-10.9,0c-0.2,0-0.4,0-0.6,0c-0.2,0-0.2-0.1-0.2-0.3
		c0-2.1,0-4.3,0-6.4c0-0.2,0-0.3,0.2-0.3c0.2,0,0.4,0,0.5,0c5.9,0,11.7,0,17.6,0c0.1,0,0.1,0,0.2,0c0.7,0,0.8,0,0.8,0.7
		c0,4.2,0,8.4,0,12.7c0,1.6,0,3.2,0,4.7c0,1.2-0.1,2.3-0.2,3.5c-0.1,1.1-0.4,2.2-0.9,3.2c-0.5,1.2-1.1,2.3-1.8,3.4
		c-0.3,0.4-0.5,0.8-0.8,1.1c-0.9,0.9-1.7,1.8-2.8,2.5c-0.8,0.5-1.6,1.1-2.4,1.5c-0.5,0.3-1.1,0.4-1.7,0.7c-0.5,0.2-1.1,0.4-1.7,0.5
		c-0.5,0.2-1.1,0.2-1.7,0.2c-6.3,0-12.7,0-19,0c-0.3,0-0.7,0-1-0.2c-0.3-0.1-0.6,0.1-0.9-0.2c-0.8,0-1.5-0.3-2.2-0.6
		c-0.6-0.2-1.2-0.5-1.7-0.8c-0.6-0.4-1.3-0.7-1.8-1.1c-1.2-0.9-1.8-1.5-2.8-2.6c-1.1-1.2-1.7-2.6-2.4-3.9c-0.4-0.7-0.6-1.6-0.7-2.4
		c-0.1-0.4-0.1-0.8-0.2-1.2c-0.2-0.4-0.1-0.9-0.1-1.3c0-0.4,0-0.8,0-1.2c0-5.9,0-11.8,0-17.7c0-6.3,0-12.7,0-19
		c0-0.9,0.2-1.8,0.4-2.6c0.3-1.3,0.8-2.6,1.6-3.7c0.5-0.8,1-1.7,1.6-2.4c0.3-0.3,0.6-0.7,0.9-1.1c1.4-1.3,3-2.5,4.8-3.2
		c0.9-0.4,1.8-0.7,2.8-0.8c0.4,0,0.8,0,1.1-0.2c0.4-0.1,0.7-0.1,1.1-0.2c0.4,0,0.8,0,1.2,0c5.6,0,11.2,0,16.9,0
		c0.4,0,0.8-0.1,1.2,0.1c0.3,0.2,0.8-0.1,1.1,0.2c1.8,0.1,3.3,1,4.9,1.8c0.6,0.3,1.1,0.7,1.7,1.2c0.6,0.5,1.1,0.9,1.6,1.5
		c1.2,1.3,2.2,2.7,2.9,4.3c0.5,1.1,0.9,2.3,1,3.5c0.3,0.5,0,1.1,0.2,1.5c0.2,0.5,0.1,1,0.1,1.5C59,376.3,58.9,376.3,58.6,376.3z"/>
	<path class="st0" d="M493.3,373.1c-0.1-0.5-0.1-1.1-0.2-1.6c-0.1-0.6-0.3-1.2-0.5-1.7c-0.2-0.6-0.3-1.2-0.6-1.7
		c-0.8-1.7-1.7-3.5-3-4.9c-1.1-1.3-2.3-2.5-3.6-3.5c-1.4-1-3-1.9-4.7-2.4c-1-0.3-2-0.8-3.1-0.8c-0.4-0.3-0.8-0.1-1.2-0.2
		c-0.1,0-0.2-0.1-0.2-0.2c-7,0-13.9,0-20.9,0c-0.1,0.1-0.2,0.2-0.2,0.2c-0.3,0-0.6-0.1-0.9,0c-0.8,0.3-1.7,0.4-2.6,0.7
		c-1.2,0.4-3.3,1.4-4.4,2.1c-0.8,0.5-1.6,1.1-2.4,1.6c-1.4,1-3,1.9-4.4,2.9c-1.2,0.8-2.5,1.7-3.6,2.7c-1,0.9-1.9,2-2.7,3.1
		c-1.1,1.4-1.9,3-2.5,4.7c-0.2,0.4-0.4,0.9-0.4,1.4c-0.1,0.6-0.4,1.2-0.4,1.8c-0.3,0.3,0,0.7-0.2,1c-0.2,0.3-0.2,0.7-0.2,1
		c0,11.9,0,23.9,0,35.8c0,1.3-0.2,2.6,0.2,3.9c0.1,0.3-0.1,0.7,0.1,1c0.2,0.2,0.1,0.6,0.2,1c0.2,1,1,3.1,1.4,4
		c0.2,0.5,0.5,0.9,0.7,1.4c0.6,1.1,1.3,2.1,2.2,3c0.4,0.4,0.7,0.9,1.2,1.3c0.4,0.3,0.8,0.6,1.1,1c0.1,0.1,0.2,0.2,0.3,0.2
		c0.8,0.5,1.6,1.1,2.4,1.5c0.9,0.5,1.9,1,2.8,1.3c0.9,0.3,1.7,0.6,2.6,0.8c1.1,0.2,2.1,0.4,3.2,0.4c4.9,0.1,9.8,0,14.7,0
		c0.4,0,0.8,0,1.2,0c0.4,0,0.9,0,1.3,0c0.4,0,0.8,0,1.2,0c0.4,0,0.8-0.2,1.3-0.2c0.4,0,0.8-0.1,1.2-0.2c0.7-0.1,1.3-0.3,1.9-0.5
		c0.8-0.3,1.6-0.6,2.4-0.9c0.9-0.3,1.6-0.8,2.4-1.3c0.9-0.5,1.7-1.1,2.6-1.8c1.2-0.9,2.6-1.7,3.9-2.6c0.9-0.6,1.8-1.1,2.6-1.8
		c0.3-0.3,0.7-0.7,1-0.9c1.1-0.6,1.7-1.7,2.5-2.6c0.6-0.7,1.1-1.6,1.6-2.4c0.5-0.9,0.9-1.8,1.3-2.8c0.3-0.9,0.6-1.8,0.8-2.7
		c0.2-1,0.4-2,0.5-3c0-8,0-16.1,0-24.1c0-0.2,0-0.4,0-0.5c0-0.2,0-0.3-0.2-0.3c-0.2,0-0.5,0-0.7,0c-8.6,0-17.1,0-25.7,0
		c-0.6,0-1.3-0.2-1.7,0.5c-2.2,1.4-4.3,2.9-6.5,4.3c-0.4,0.3-0.5,0.6-0.5,1c0,4.7,0,9.4,0,14.1c0,0.1,0,0.3,0,0.4
		c0,0.2,0,0.3,0.2,0.3c0.2,0,0.4,0,0.6,0c3.7,0,7.4,0,11.1,0c0.3,0,0.4,0.1,0.4,0.4c0,2.1,0,4.1,0,6.2c0,0.4,0.1,0.4-0.4,0.4
		c-4.3,0-8.6,0-12.9,0c-0.2,0-0.4-0.1-0.6-0.1c-0.8-0.2-1.4-0.7-2-1.3c-0.7-0.7-1-1.5-1-2.5c0-11.3,0-22.5,0-33.8c0-0.1,0-0.3,0-0.4
		c0-0.3,0-0.4,0.4-0.4c4.4,0,8.7,0,13.1,0c0.2,0,0.3,0.1,0.5,0.1c0.8,0.1,1.4,0.7,2,1.3c0.7,0.7,1,1.5,1,2.4c0,1.5,0,3,0,4.5
		c0,0.7,0.1,0.7,0.7,0.7c4.7,0,9.5,0,14.2,0c0.3,0,0.6-0.1,0.8-0.3c0.6-0.4,1.2-0.8,1.7-1.2c1.7-1.2,3.4-2.4,5.2-3.5
		c0.3-0.2,0.5-0.4,0.5-0.8c0-1.2,0-2.3,0-3.5C493.4,375.4,493.6,374.3,493.3,373.1z M489.2,376.1c0,0.1-0.1,0.2-0.2,0.2
		c-0.4,0-0.9,0-1.3,0c-1.6,0-3.2,0-4.7,0c-0.5,0-0.5,0-0.5-0.5c0-0.7,0-1.4-0.2-2c-0.3-1-0.6-2.1-1.3-3c-0.2-0.2-0.4-0.5-0.6-0.7
		c-0.6-0.7-1.4-1.2-2.1-1.7c-0.6-0.4-1.4-0.6-2.1-0.9c-0.5-0.2-1.1-0.2-1.6-0.2c-5.8,0-11.7,0-17.5,0c-0.5,0-1.8,0.3-2.5,0.6
		c-1.4,0.5-2.4,1.5-3.4,2.5c-0.4,0.4-0.7,0.9-0.9,1.4c-0.3,0.5-0.5,1.1-0.7,1.7c-0.1,0.5-0.2,1.1-0.2,1.7c0,6.1,0,12.2,0,18.3
		c0,6.1,0,12.1,0,18.2c0,1.9,0.7,3.6,2,5c0.6,0.6,1.1,1.2,1.8,1.6c0.8,0.5,1.6,0.8,2.5,1.1c0.3,0.1,0.7,0.1,1,0.2c0.3,0,0.7,0,1,0
		c5.7,0,11.4,0,17.1,0c0.9,0,1.7-0.2,2.4-0.6c1.8-0.8,2.3-1.2,3.2-2.3c0.6-0.7,1.1-1.4,1.4-2.4c0.2-0.7,0.4-1.3,0.5-2
		c0.2-0.7,0.1-1.4,0.1-2.1c0-3.5,0-7,0-10.4c0-0.1,0-0.2,0-0.3c0-0.7,0-0.7-0.6-0.7c-1.3,0-2.7,0-4,0c-2.4,0-4.8,0-7.2,0
		c-0.4,0-0.4,0-0.4-0.4c0-2,0-4,0-6.1c0-0.5-0.1-0.5,0.5-0.5c4.5,0,9,0,13.6,0c1.6,0,3.2,0,4.7,0c0.3,0,0.4,0.1,0.3,0.3
		c0,0.7,0,1.4,0,2.1c0,6,0,12.1,0,18.1c0,0.9-0.3,1.8-0.5,2.7c-0.3,1.2-0.8,2.3-1.3,3.4c-0.5,0.9-1,1.7-1.7,2.4
		c-0.3,0.3-0.4,0.6-0.7,0.9c-1.4,1.4-3.1,2.6-4.9,3.4c-0.9,0.4-1.8,0.6-2.7,0.9c-1.1,0.3-2.3,0.4-3.5,0.4c-5.7,0-11.5,0-17.2,0
		c-1.4,0-2.8-0.4-4.1-0.8c-1.3-0.4-2.5-1.1-3.7-1.9c-0.3-0.2-0.7-0.4-1-0.7c-0.8-0.8-1.7-1.6-2.4-2.5c-0.7-0.9-1.3-1.9-1.8-3
		c-0.5-1.1-1-2.3-1.1-3.6c-0.4-0.5-0.1-1.2-0.3-1.7c-0.2-0.5-0.1-1.2-0.1-1.8c0-11.8,0-23.5,0-35.3c0-1.6,0.3-3.3,0.9-4.8
		c0.2-0.6,0.4-1.1,0.7-1.7c0.3-0.5,0.6-1.1,0.9-1.6c0.9-1.3,1.8-2.4,3-3.4c1.1-0.9,2.4-1.6,3.7-2.2c0.9-0.4,1.8-0.7,2.7-0.9
		c0.4-0.1,0.7-0.1,1.1-0.2c0.4-0.1,0.8-0.1,1.2-0.2c0.4,0,0.8,0,1.2,0c5.7,0,11.5,0,17.2,0c0.4,0,0.7-0.1,1.1,0.1
		c0.3,0.2,0.8-0.1,1.1,0.2c2,0.4,2.7,0.6,4.2,1.4c0.9,0.5,1.9,1.1,2.6,1.8c0.3,0.3,0.7,0.5,0.9,0.8c0.7,0.9,1.5,1.7,2.1,2.7
		c1,1.6,1.3,2.3,2,4.9c0.4,0.3,0.1,0.8,0.3,1.2c0.2,0.4,0.1,0.9,0.1,1.3C489.2,375.3,489.2,375.7,489.2,376.1z"/>
	<path class="st0" d="M594.6,373.2c-0.2-0.2-0.1-0.5-0.2-0.7c-0.1-0.3-0.1-0.5-0.2-0.8c-0.2-0.6-0.3-1.3-0.5-1.9
		c-0.4-1.4-1.1-2.8-1.8-4.1c-0.8-1.3-1.7-2.5-2.7-3.7c-0.7-0.8-1.5-1.3-2.3-2c-1.1-0.9-2.3-1.6-3.5-2.2c-0.4-0.2-0.8-0.3-1.1-0.5
		c-0.6-0.3-2.7-0.9-3.4-0.9c-0.2,0-0.5-0.1-0.7-0.2c-0.3,0-0.5,0-0.8,0c0,0,0-0.1-0.1-0.1c-6.9,0-13.8,0-20.7,0c0,0.1,0,0.1-0.1,0.1
		c-0.3,0-0.5,0-0.8,0c-0.3,0-0.5,0.1-0.8,0.2c-0.7,0.1-1.3,0.3-1.9,0.5c-0.5,0.2-1,0.4-1.5,0.6c-0.9,0.4-1.8,0.8-2.7,1.3
		c-0.7,0.4-1.3,0.8-1.9,1.2c-1.2,0.7-2.3,1.5-3.4,2.3c-1.1,0.7-2.1,1.4-3.2,2.1c-1.1,0.7-2,1.7-3,2.5c-0.3,0.2-0.4,0.6-0.6,0.8
		c-0.9,0.9-1.6,2-2.3,3.1c-0.6,1-1.1,2.2-1.5,3.3c-0.2,0.5-0.5,1.1-0.5,1.7c-0.4,0.6-0.4,1.3-0.5,2c-0.2,0.7-0.2,1.5-0.2,2.2
		c0,11.4,0,22.8,0,34.2c0,1.9-0.2,3.8,0.4,5.6c0,1,0.4,1.9,0.6,2.8c0.2,0.8,0.6,1.6,1,2.4c0.7,1.5,1.6,2.9,2.7,4.1
		c0.9,1,1.8,2,2.9,2.7c0.7,0.5,1.4,1,2.2,1.5c1.6,0.8,3.1,1.6,4.9,2c1.3,0.3,2.6,0.6,3.9,0.6c4.9,0.1,9.8,0,14.7,0
		c0.5,0,1.1,0,1.6,0c0.5,0,1.1,0,1.6,0c0.5,0,1-0.1,1.5-0.1c0.5-0.1,1-0.1,1.5-0.2c0.6-0.1,1.2-0.2,1.8-0.4c0.3-0.1,0.6-0.2,0.9-0.3
		c1.2-0.4,2.3-0.9,3.4-1.5c1.7-1,3.3-2.2,5-3.3c0.7-0.5,1.4-1,2.1-1.4c1.6-1,3.1-2,4.4-3.3c0.5-0.5,0.9-1,1.4-1.5
		c0.8-0.9,1.4-1.9,2-2.9c0.4-0.8,0.8-1.6,1.2-2.4c0.6-1.2,0.7-2.6,1.2-3.8c-0.1-0.8,0.2-1.7,0.2-2.5c0-4.4,0-8.8,0-13.2
		c0-3.6,0-7.3,0-10.9c0-0.5,0-0.5-0.5-0.5c-8.9,0-17.7,0-26.6,0c-0.4,0-0.7,0.1-0.9,0.3c-0.9,0.6-1.9,1.3-2.8,1.9
		c-1.3,0.9-2.6,1.8-4,2.7c-0.4,0.3-0.5,0.5-0.5,0.9c0,4.7,0,9.5,0,14.2c0,0.1,0,0.3,0,0.4c0,0.2,0.1,0.2,0.3,0.2c0.2,0,0.4,0,0.5,0
		c3.7,0,7.5,0,11.2,0c0.4,0,0.4,0,0.4,0.4c0,2.1,0,4.1,0,6.2c0,0.4,0,0.4-0.5,0.4c-4.4,0-8.7,0-13.1,0c-0.1,0-0.3,0-0.4,0
		c-1.7-0.6-3.1-2.1-3.1-4c0-11.2,0-22.5,0-33.7c0-0.2,0-0.4,0-0.6c0-0.1,0.1-0.2,0.2-0.2c0.1,0,0.2,0,0.3,0c4.3,0,8.7,0,13,0
		c0.2,0,0.4,0,0.5,0c0.6,0.3,1.1,0.6,1.7,1c0.3,0.2,0.5,0.5,0.6,0.8c0.2,0.4,0.6,0.8,0.6,1.3c0,0.6,0.2,1.2,0.2,1.9
		c0,1.3,0,2.6,0,3.8c0,0.3,0.1,0.4,0.3,0.3c0.1,0,0.3,0,0.4,0c4.3,0,8.6,0,12.9,0c0.5,0,1,0.1,1.5,0c0.4-0.1,0.7-0.6,1.1-0.8
		c2-1.3,4-2.6,6-4c0.3-0.2,0.5-0.5,0.5-0.9c0-2.1,0-4.2,0-6.3C594.6,373.6,594.7,373.3,594.6,373.2z M590,376.3c-2.1,0-4.1,0-6.2,0
		c-0.2,0-0.3-0.1-0.2-0.3c0-0.1,0-0.3,0-0.4c0-0.3,0.1-0.7,0-1c-0.3-0.6-0.1-1.2-0.4-1.7c-0.3-0.6-0.5-1.2-0.8-1.8
		c-0.4-0.8-1.1-1.5-1.8-2.1c-0.7-0.6-1.5-1-2.3-1.3c-0.2-0.4-0.7,0-0.9-0.3c-0.5,0-1-0.2-1.5-0.2c-5.8,0-11.7,0-17.5,0
		c-1,0-1.9,0.3-2.8,0.7c-1,0.5-1.9,1.1-2.7,1.9c-0.9,1-1.6,2.1-1.9,3.4c-0.2,0.7-0.4,1.4-0.4,2.2c0,6,0,12,0,18c0,6,0,12,0,18
		c0,1.6,0.5,3,1.4,4.3c0.9,1.4,2.1,2.4,3.6,3.1c0.9,0.4,1.8,0.7,2.8,0.7c5.8,0,11.6,0,17.4,0c1.6,0,3-0.5,4.3-1.4
		c1.4-1,2.5-2.3,3.1-3.9c0.2-0.5,0.3-1.1,0.5-1.6c0.2-0.8,0.1-1.7,0.1-2.5c0-3.5,0-7,0-10.5c0-0.1,0-0.3,0-0.4c0-0.3,0-0.4-0.4-0.4
		c-1.2,0-2.5,0-3.7,0c-2.6,0-5.2,0-7.8,0c-0.4,0-0.4,0-0.4-0.4c0-2.1,0-4.1,0-6.2c0-0.3,0.1-0.4,0.4-0.4c4.2,0,8.4,0,12.7,0
		c1.8,0,3.7,0,5.5,0c0.6,0,0.7,0.1,0.7,0.7c0,6.1,0,12.2,0,18.4c0,0.4-0.1,0.8-0.2,1.2c0,0.4,0.1,0.9,0,1.2
		c-0.2,0.6-0.2,1.3-0.5,1.9c-0.3,0.6-0.4,1.2-0.6,1.8c-0.6,1.5-1.4,2.8-2.4,4c-0.9,1.1-2,2.1-3.3,2.9c-0.6,0.3-1.1,0.8-1.7,1
		c-0.9,0.4-1.9,0.8-2.9,1.1c-0.4,0.1-0.9,0.1-1.3,0.2c-2,0.4-4,0.1-6,0.2c-2.1,0-4.1,0-6.2,0c-2,0-4,0-6.1,0c-0.7,0-1.3,0-2,0
		c-0.6,0-1.2-0.2-1.8-0.3c-0.7-0.1-1.4-0.4-2.1-0.6c-1-0.3-2-0.8-2.9-1.4c-1.1-0.7-2.1-1.5-3-2.4c-0.7-0.8-1.3-1.7-1.9-2.5
		c-0.8-1.1-1.5-3-1.8-4.5c-0.4-0.3-0.1-0.8-0.3-1.1c-0.2-0.4,0-0.8-0.1-1.2c-0.3-2-0.1-4.1-0.2-6.1c0-2.1,0-4.1,0-6.2
		c0-2.1,0-4.1,0-6.2s0-4.1,0-6.2c0-2.1,0-4.1,0-6.2s0-4.1,0-6.2c0-0.6,0.2-1.2,0.2-1.9c0-0.6,0.2-1.3,0.3-1.9
		c0.2-0.6,0.4-1.2,0.6-1.7c0.2-0.6,1.7-3.2,2-3.6c0.6-0.7,1.2-1.5,2-2.1c1.3-1.2,2.7-2.1,4.4-2.8c0.9-0.4,1.9-0.7,2.9-0.9
		c1.1-0.2,2.1-0.3,3.2-0.3c5.7,0,11.5,0,17.2,0c0.3,0,0.7-0.1,1,0.2c0.3,0.2,0.7-0.1,1,0.2c0.9,0,1.7,0.5,2.6,0.7
		c0.8,0.2,1.4,0.6,2.1,1c1.1,0.6,2.2,1.4,3.1,2.4c1.3,1.4,2.4,2.9,3.2,4.7c0.5,1.2,1,2.4,1.1,3.7c0.3,0.6,0.1,1.2,0.2,1.8
		c0,0.3,0.1,0.6,0.2,0.9C590.5,376.2,590.4,376.3,590,376.3z"/>
	<path class="st0" d="M762.3,376.7c0.1,0,0.3,0,0.4,0c4.1,0,8.3,0,12.4,0c0.9,0,1.7,0.3,2.4,1c0.6,0.6,1.2,1.2,1.3,2
		c0,0.2,0.1,0.4,0.1,0.7c0,1.6,0,3.2,0,4.7c0,0.6,0.1,0.7,0.7,0.7c4.7,0,9.4,0,14.1,0c0.4,0,0.7-0.1,0.9-0.3c1.5-1,3.1-2,4.6-3.1
		c0.7-0.5,1.3-0.9,2-1.4c0.2-0.1,0.4-0.3,0.6-0.4c0-2.4,0-4.8,0-7.1c-0.1,0-0.1,0-0.1-0.1c0-0.3,0-0.5,0-0.8c0-0.2-0.1-0.5-0.2-0.7
		c-0.1-0.6-0.6-2.7-0.9-3.4c-0.4-0.8-0.8-1.7-1.2-2.5c-0.4-0.8-0.9-1.6-1.5-2.3c-0.8-1.2-1.9-2.1-2.9-3.1c-0.8-0.8-1.7-1.4-2.7-2
		c-0.5-0.3-1-0.5-1.5-0.8c-0.7-0.4-1.5-0.8-2.3-1c-0.8-0.2-1.6-0.6-2.4-0.6c-0.2,0-0.5-0.1-0.7-0.2c-0.3,0-0.5,0-0.8,0
		c0,0,0-0.1-0.1-0.1c-7,0-13.9,0-20.9,0c0,0.1-0.1,0.2-0.1,0.2c-0.8,0-1.5,0.2-2.3,0.4c-1,0.3-2,0.6-3,1c-0.8,0.4-1.7,0.7-2.4,1.2
		c-1.2,0.8-2.4,1.6-3.5,2.4c-1.6,1.1-3.2,2.1-4.8,3.2c-1,0.7-1.9,1.4-2.8,2.3c-0.7,0.7-1.2,1.4-1.8,2.2c-0.7,0.9-1.3,1.8-1.8,2.8
		c-0.5,0.8-0.8,1.7-1.1,2.6c-0.3,0.9-0.7,1.8-0.7,2.8c-0.3,0.4,0,0.9-0.2,1.2c-0.2,0.4-0.1,0.9-0.1,1.3c0,12.5,0,25,0,37.5
		c0,0.8,0.1,1.6,0.2,2.3c0,0,0,0.1,0,0.1c0.4,0.3,0.1,0.7,0.2,1c0.2,0.3,0.2,0.7,0.3,1c0.2,0.8,0.4,1.6,0.7,2.3
		c0.3,0.6,0.6,1.3,1,1.9c0.8,1.3,1.6,2.6,2.6,3.6c1,1,2,2.1,3.2,2.9c0.9,0.7,1.9,1.3,2.9,1.7c1.1,0.5,2.2,0.9,3.4,1.2
		c1.2,0.3,2.4,0.5,3.7,0.6c2.2,0.1,4.5,0,6.7,0c2.2,0,4.4,0,6.6,0c2.2,0,4.4,0.2,6.6-0.2c0.4-0.1,0.8,0.1,1.1-0.2c1,0,2-0.4,3-0.7
		c1.5-0.5,2.8-1.1,4.1-2c0.5-0.3,0.9-0.6,1.4-0.9c0.5-0.3,0.9-0.8,1.5-1c0.5-0.3,1-0.6,1.4-0.9c1.3-1,2.8-1.8,4.1-2.8
		c0.8-0.6,1.6-1.2,2.3-1.9c0.9-0.8,1.6-1.7,2.3-2.7c1-1.4,1.9-3,2.4-4.7c0.3-1.1,0.7-2.1,0.9-3.2c0.1-0.5,0.1-0.9,0.2-1.4
		c0,0,0.1-0.1,0.2-0.1c0-2.6,0-5.1,0-7.7c-4.8,0-9.7,0-14.5,0c-0.5,0-0.9,0.1-1.3,0.4c-2.3,1.6-4.6,3.1-6.8,4.6
		c-0.2,0.1-0.3,0.3-0.3,0.6c0,1.2,0,2.4,0,3.7c0,0.3,0,0.4-0.4,0.4c-0.7,0-1.5,0-2.2,0c-3.5,0-7.1,0-10.6,0c-0.9,0-1.6-0.4-2.3-1
		c-0.6-0.6-1.1-1.2-1.4-2c-0.1-0.3-0.1-0.5-0.1-0.8c0-3.8,0-7.6,0-11.3c0-7.6,0-15.1,0-22.7c0-0.2,0-0.4,0-0.5
		C761.9,376.7,762,376.7,762.3,376.7z M757.7,393.4c0,6.2,0,12.4,0,18.5c0,1.3,0.5,2.6,1.2,3.7c0.3,0.5,0.7,1,1.1,1.5
		c0.9,0.9,2,1.5,3.1,2c0.8,0,1.5,0.4,2.3,0.4c6,0,11.9,0,17.9,0c0.8,0,1.5-0.3,2.2-0.5c1.3-0.5,2.4-1.3,3.3-2.3
		c0.7-0.8,1.3-1.7,1.5-2.7c0.2-0.6,0.4-1.2,0.4-1.8c0-0.2,0.1-0.5,0.2-0.7c0-0.5,0.1-1,0.1-1.5c0.5,0,1,0,1.5,0c1.6,0,3.2,0,4.8,0
		c0.3,0,0.4,0.1,0.4,0.4c0,0.8,0,1.7,0,2.5c-0.1,0.9-0.2,1.8-0.5,2.7c-0.2,0.5-0.3,1-0.5,1.6c-0.2,0.5-0.4,0.9-0.7,1.4
		c-0.5,0.9-1,1.8-1.8,2.6c-0.2,0.2-0.3,0.5-0.5,0.7c-0.6,0.6-1.3,1.2-2,1.7c-1,0.8-2.1,1.3-3.2,1.8c-0.8,0.4-1.7,0.6-2.6,0.9
		c-1.2,0.3-2.4,0.4-3.7,0.4c-5.6,0-11.2,0-16.9,0c-1.5,0-2.9-0.3-4.3-0.8c-0.8-0.3-1.5-0.6-2.2-1c-1.1-0.6-2.2-1.3-3.1-2.2
		c-0.7-0.7-1.4-1.3-2-2.1c-0.6-0.9-1.2-1.8-1.6-2.8c-0.5-1.1-0.8-2.2-1.1-3.3c-0.1-0.5-0.1-0.9-0.2-1.4c-0.3-1.3-0.1-2.7-0.2-4
		c0-11.1,0-22.3,0-33.4c0-0.4-0.1-0.9,0.1-1.4c0.2-0.4-0.1-0.9,0.2-1.2c0-1,0.4-2,0.7-2.9c0.4-1,0.9-2,1.6-2.9
		c0.8-1.2,1.8-2.2,2.8-3.1c0.8-0.7,1.6-1.3,2.6-1.7c0.9-0.5,1.8-1,2.8-1.2c0.7-0.2,1.4-0.4,2.2-0.5c2.2-0.3,4.4-0.1,6.5-0.1
		c2.2,0,4.4,0,6.6,0c2.2,0,4.4,0,6.6,0c0.8,0,1.6,0.2,2.3,0.4c1.3,0.3,2.5,0.7,3.6,1.4c1.2,0.7,2.3,1.3,3.2,2.3
		c0.4,0.4,0.8,0.8,1.2,1.2c0.6,0.6,1.1,1.4,1.6,2.2c0.7,1.2,1.3,2.5,1.6,3.9c0.4,0.3,0,0.8,0.4,1.1c0.1,0.6,0.1,1.1,0.2,1.7
		c0,0.6,0,1.1,0,1.7c0,0.2-0.1,0.2-0.3,0.2c-2.1,0-4.2,0-6.2,0c-0.2,0-0.3,0-0.3-0.2c0-0.7-0.1-1.3-0.2-2c-0.1-0.5-0.2-1-0.4-1.4
		c-0.5-1.1-1.1-2.2-2-3.1c-1.1-1-2.3-1.7-3.8-2.1c-0.5-0.2-1.1-0.2-1.6-0.2c-5.7,0-11.5,0-17.2,0c-1.5,0-2.9,0.4-4.1,1.2
		c-1.4,1-2.5,2.1-3.2,3.7c-0.4,0.9-0.7,1.8-0.7,2.8C757.7,381.1,757.7,387.3,757.7,393.4z"/>
	<path class="st0" d="M401.1,416.1c0-0.2,0-0.4,0-0.6c0-0.1-0.1-0.2-0.2-0.2c-0.2,0-0.5,0-0.7,0c-7.8,0-15.6,0-23.5,0
		c-0.4,0-0.7,0-1.1-0.2c-0.8-0.3-1.5-0.7-2-1.4c-0.6-0.8-0.9-2.2-0.9-2.9c0-0.5,0-1.1,0-1.6c0-0.3-0.1-0.7,0.1-0.8
		c0.2-0.2,0.6-0.1,0.8-0.1c4.1,0,8.2,0,12.3,0c0.5,0,1,0,1.4-0.5c0.1-0.1,0.2-0.1,0.3-0.1c2.1-1.5,4.3-2.8,6.3-4.3
		c0.5-0.1,0.5-0.4,0.5-0.8c0-4.8,0-9.6,0-14.4c0-0.1,0-0.1,0-0.2c0.1-0.4-0.1-0.4-0.4-0.4c-0.2,0-0.4,0-0.5,0c-6.6,0-13.3,0-19.9,0
		c-0.2,0-0.4,0-0.6,0c-0.3,0-0.3-0.1-0.3-0.4c0-1.5,0-3.1,0-4.6c0-1.8,0-3.7,0-5.5c0-0.2,0-0.4,0.3-0.4c0.2,0,0.4,0,0.6,0
		c3.2,0,6.4,0,9.5,0c3.2,0,6.4,0,9.5,0c0.4,0,0.7,0,1-0.3c1.2-1,2.5-1.7,3.7-2.6c1.1-0.8,2.2-1.4,3.2-2.2c0.3-0.2,0.4-0.3,0.4-0.7
		c0-5,0-10,0-15c-8.8,0-17.6,0-26.4,0c0,0.2-0.2,0.2-0.3,0.2c-0.6-0.1-1.2,0.1-1.8,0.3c-0.7,0.1-1.4,0.4-2,0.6
		c-1.5,0.5-2.9,1.1-4.2,2c-0.5,0.4-1,0.7-1.5,1c-0.8,0.5-1.6,1.1-2.4,1.6c-1.1,0.7-2.2,1.4-3.2,2.2c-1.2,0.8-2.4,1.7-3.4,2.7
		c-0.8,0.8-1.4,1.6-2.1,2.4c-1.1,1.3-1.8,2.9-2.5,4.4c-0.4,0.7-0.5,1.6-0.7,2.4c-0.3,0.8-0.3,1.7-0.5,2.5c-0.1,0.4,0,0.9,0,1.4
		c0,0.5-0.2,1-0.2,1.4c0,2,0,4,0,6c0,2,0,3.9,0,5.9c0,2,0,4,0,6c0,2,0,4,0,6c0,2,0,3.9,0,5.9c0,2-0.2,3.9,0.2,5.9
		c0.1,0.8,0,1.6,0.2,2.4c0.2,0.6,0.3,1.3,0.4,1.9c0.2,1.2,0.7,2.3,1.2,3.3c0.5,1.1,1.1,2.2,1.8,3.2c0.6,0.8,1.2,1.6,1.9,2.4
		c0.7,0.7,1.5,1.3,2.2,1.9c0.8,0.6,1.7,1.1,2.5,1.6c1.4,0.8,3.2,1.4,5,1.8c0.5,0.1,1,0.3,1.5,0.3c0.6,0,1.1,0.2,1.6,0.2
		c8.3,0,16.5,0,24.8,0c0.3,0,0.6-0.1,0.9-0.3c0.4-0.3,0.9-0.6,1.3-0.9c1.7-1.2,3.5-2.4,5.3-3.5c0.6-0.3,0.7-0.7,0.7-1.3
		C401.1,425.3,401.1,420.7,401.1,416.1z M396.8,426.2c0,0.2,0,0.3-0.2,0.3c-0.2,0-0.4,0-0.6,0c-6.7,0-13.5,0-20.2,0
		c-0.9,0-1.8-0.3-2.7-0.5c-1.2-0.3-2.3-0.8-3.4-1.3c-0.9-0.5-1.8-1-2.6-1.8c-0.3-0.3-0.7-0.5-0.9-0.8c-1.4-1.5-2.6-3.1-3.3-5
		c-0.4-0.9-0.7-1.8-0.8-2.8c-0.1-0.7-0.3-1.3-0.3-2c0-0.7,0-1.4,0-2.1c0-5.7,0-11.4,0-17c0-6.2,0-12.4,0-18.6c0-0.4-0.1-0.7,0.1-1
		c0.2-0.4,0-0.8,0.1-1c0.3-0.3,0-0.7,0.3-0.9c0.1-1.3,0.7-2.4,1.3-3.5c0.6-1.2,1.4-2.3,2.4-3.2c0.4-0.4,0.8-0.8,1.1-1.1
		c0.6-0.6,1.3-1.1,2.1-1.5c1.1-0.7,2.2-1.2,3.5-1.5c0.7-0.2,1.5-0.4,2.2-0.5c1.8-0.3,3.6-0.1,5.4-0.1c1.8,0,3.6,0,5.4,0
		c1.8,0,3.6,0,5.4,0c1.8,0,3.6,0,5.4,0c0.5,0,0.5-0.1,0.5,0.5c0,2.1,0,4.1,0,6.2c0,0.3-0.1,0.3-0.4,0.3c-1.6,0-3.3,0-4.9,0
		c-5.1,0-10.1,0-15.2,0c-1.7,0-3.2,0.7-4.6,1.7c-0.7,0.5-1.2,1.1-1.7,1.8c-0.6,0.8-1.1,1.7-1.2,2.7c-0.1,0.4-0.2,0.7-0.2,1.1
		c0,0.4-0.1,0.8-0.2,1.2c0,0.4,0,0.8,0,1.2c0,4.8,0,9.6,0,14.4c0,0.6,0,0.6,0.6,0.6c4.8,0,9.7,0,14.5,0c2.1,0,4.2,0,6.2,0
		c0.3,0,0.4,0,0.4,0.4c0,2.1,0,4.2,0,6.2c0,0.3-0.1,0.4-0.3,0.3c-0.5,0-1,0-1.4,0c-6.4,0-12.7,0-19.1,0c-0.2,0-0.5,0-0.7,0
		c-0.1,0-0.2,0.1-0.2,0.2c0,0.2,0,0.4,0,0.6c0,3.7,0,7.4,0,11.1c0,0.8,0.4,3.1,0.7,3.8c0.2,0.5,0.5,0.9,0.8,1.3
		c0.8,1,1.6,1.9,2.8,2.6c0.8,0.5,1.7,0.7,2.6,1c0.2,0.1,0.5,0,0.7,0c6.6,0,13.2,0,19.8,0c0.2,0,0.4,0,0.6,0c0.2,0,0.3,0,0.3,0.3
		C396.8,421.9,396.8,424.1,396.8,426.2z"/>
	<path class="st0" d="M276.4,379.2c0-0.9,0-1.8,0-2.7c0-0.9,0-1.8-0.1-2.7c-0.1-0.9-0.2-1.8-0.4-2.7c-0.2-0.9-0.4-1.8-0.8-2.6
		c-0.4-0.9-0.8-1.9-1.3-2.8c-0.7-1.1-1.3-2.2-2.2-3.1c-1.2-1.3-2.5-2.5-4-3.5c-1.1-0.7-2.4-1.3-3.6-1.9c-0.7-0.4-1.5-0.6-2.3-0.7
		c-0.8-0.1-1.6-0.5-2.4-0.4c0,0-0.1-0.1-0.1-0.2c-7,0-13.9,0-20.9,0c0,0.2-0.2,0.2-0.3,0.2c-0.6-0.1-1.2,0.1-1.8,0.3
		c-0.9,0.2-1.8,0.5-2.6,0.8c-1.2,0.5-2.4,1-3.5,1.8c-1,0.6-1.9,1.3-2.9,2c-1.1,0.7-2.2,1.4-3.2,2.2c-1.2,0.9-2.5,1.6-3.7,2.6
		c-1.2,1.1-2.4,2.3-3.3,3.7c-0.6,0.8-1.2,1.7-1.6,2.7c-0.4,0.9-0.8,1.8-1.1,2.8c-0.3,1.1-0.6,2.2-0.8,3.3c-0.1,0.9-0.2,1.8-0.2,2.7
		c0,18,0,36.1,0,54.1c0,0.2,0,0.4,0,0.6c0,0.3,0.1,0.3,0.3,0.3c0.1,0,0.3,0,0.4,0c3.7,0,7.4,0,11.1,0c1.1,0,2.1,0,3.2,0
		c0.2,0,0.4,0,0.6-0.1c1.8-1.3,3.6-2.5,5.5-3.7c0.6-0.4,1.1-0.9,1.8-1.1c0.1,0,0.1-0.2,0.2-0.2c0-0.2,0-0.4,0-0.6c0-7,0-13.9,0-20.9
		c0-0.2,0-0.5,0-0.7c0-0.1,0.1-0.2,0.2-0.2c0.1,0,0.3,0,0.4,0c5.3,0,10.5,0,15.8,0c0.1,0,0.3,0,0.4,0c0.2,0,0.2,0.1,0.2,0.3
		c0,0.2,0,0.4,0,0.6c0,8.6,0,17.2,0,25.9c0,0.2,0,0.4,0,0.6c0,0.2,0,0.3,0.2,0.3c0.1,0,0.2,0,0.3,0c4.8,0,9.5,0,14.3,0
		c0.4,0,0.7-0.1,1-0.3c1.1-0.8,2.3-1.6,3.5-2.3c1.2-0.8,2.4-1.6,3.5-2.4c0.1-0.1,0.2-0.2,0.2-0.4c0-0.2,0-0.4,0-0.6
		C276.4,413,276.4,396.1,276.4,379.2z M272,426.4c-0.2,0.2-0.6,0.1-0.8,0.1c-1.8,0-3.5,0-5.3,0c-0.8,0-0.8,0-0.8-0.8
		c0-8.6,0-17.2,0-25.8c0-0.3,0-0.7-0.1-1c-0.3,0-0.6,0-1,0c-10.4,0-20.8,0-31.2,0c-0.2,0-0.5,0-0.7,0c-0.2,0-0.2,0.1-0.2,0.3
		c0,0.2,0,0.4,0,0.6c0,8.6,0,17.2,0,25.9c0,0.3,0.1,0.6-0.1,0.8c-0.1,0.1-0.5,0.1-0.8,0.1c-1.1,0-2.3,0-3.4,0c-0.7,0-1.3,0-2,0
		c-0.6,0-0.6,0-0.6-0.5c0-1.5,0-2.9,0-4.4c0-7.2,0-14.3,0-21.5c0-8.3,0-16.6,0-25c0-0.6,0-1.1,0.1-1.7c0.1-0.5,0.3-1.1,0.4-1.6
		c0.2-1.1,0.6-2.1,1.1-3c0.4-0.8,0.9-1.6,1.5-2.3c0.7-1,1.7-1.8,2.6-2.7c0.5-0.5,1.2-0.9,1.8-1.3c0.6-0.3,1.2-0.8,1.9-0.9
		c0.9-0.6,2.1-0.6,3-1.1c0,0,0.1,0,0.1,0c0.7-0.1,1.4-0.2,2.1-0.2c6,0,12,0,18,0c1,0,1.9,0.2,2.8,0.5c1,0.2,2,0.7,3,1.1
		c0.6,0.3,1.2,0.7,1.8,1.1c1.2,0.8,2.3,1.8,3.2,2.9c0.9,1,1.6,2.2,2.1,3.4c0.5,1.1,0.8,2.2,1.1,3.3c0.1,0.3,0.2,0.6,0.2,1
		c0,0.4,0.1,0.7,0.2,1.1c0,0.4,0,0.7,0,1.1c0,16.6,0,33.3,0,49.9C272.1,425.9,272.2,426.3,272,426.4z"/>
	<path class="st0" d="M731.1,374.8c0-1.1-0.1-2.2-0.4-3.2c-0.1-0.6-0.3-1.2-0.5-1.9c-0.4-1.4-1.1-2.8-1.8-4.1
		c-0.8-1.3-1.7-2.5-2.7-3.7c-0.7-0.8-1.5-1.3-2.3-2c-1.1-0.9-2.3-1.6-3.6-2.2c-0.4-0.2-0.8-0.3-1.1-0.5c-0.6-0.3-2.7-0.9-3.4-0.9
		c-0.2,0-0.5-0.1-0.7-0.2c-0.3,0-0.5,0-0.8,0c0,0,0-0.1-0.1-0.1c-6.9,0-13.8,0-20.7,0c0,0.1,0,0.1-0.1,0.1c-0.3,0-0.5,0-0.8,0
		c-0.3,0-0.5,0.1-0.8,0.2c-0.7,0.1-1.3,0.3-1.9,0.5c-0.5,0.2-1,0.4-1.5,0.5c-1.3,0.4-2.4,1.1-3.5,1.7c-1,0.6-2,1.4-3,2.1
		c-1.1,0.7-2.2,1.4-3.2,2.2c-1.1,0.8-2.3,1.4-3.2,2.3c-1,1-2.1,1.9-2.9,3.1c-0.6,0.8-1.2,1.7-1.7,2.6c-0.5,1-1.1,2-1.4,3.2
		c-0.2,0.9-0.7,1.8-0.7,2.8c-0.3,0.4-0.1,0.9-0.2,1.3c-0.2,0.5-0.1,0.9-0.1,1.4c0,18.3,0,36.7,0,55c0,0.1,0,0.3,0,0.4
		c0,0.4,0,0.5,0.4,0.5c4.9,0,9.8,0,14.6,0c0.2,0,0.4,0,0.6-0.2c0.4-0.4,0.9-0.7,1.4-1c1.7-1.2,3.4-2.3,5.2-3.4
		c0.6-0.4,0.7-0.7,0.7-1.4c0-7,0-14,0-21c0-0.5,0-0.5,0.5-0.5c5.4,0,10.8,0,16.1,0c0.5,0,0.5-0.1,0.5,0.5c0,4.6,0,9.3,0,13.9
		c0,4.3,0,8.6,0,12.8c0,0.4-0.1,0.4,0.4,0.4c4.8,0,9.6,0,14.4,0c0.4,0,0.7-0.1,0.9-0.3c0.8-0.6,1.7-1.2,2.6-1.8
		c1.2-0.9,2.5-1.7,3.8-2.5c0.6-0.3,0.8-0.7,0.8-1.3C731.1,411.6,731.1,393.2,731.1,374.8z M727,381.9c0,2.4,0,4.8,0,7.2
		c0,2.4,0,4.9,0,7.3c0,2.4,0,4.9,0,7.3s0,4.9,0,7.3c0,2.4,0,4.8,0,7.2c0,2.4,0,4.9,0,7.3c0,0.3,0.1,0.7-0.1,0.8
		c-0.2,0.2-0.6,0.1-0.8,0.1c-1.7,0-3.4,0-5.1,0c-0.3,0-0.7,0.1-0.9-0.1c-0.2-0.1-0.1-0.5-0.1-0.8c0-8.6,0-17.2,0-25.9
		c0,0,0-0.1,0-0.1c0-0.8,0-0.8-0.8-0.8c-10.6,0-21.1,0-31.7,0c-0.2,0-0.4,0-0.5,0c-0.2,0-0.2,0.1-0.2,0.3c0,0.2,0,0.4,0,0.6
		c0,8.6,0,17.2,0,25.9c0,0.1,0,0.2,0,0.4c0,0.5,0,0.5-0.5,0.5c-1.3,0-2.6,0-3.9,0c-0.7,0-1.5,0-2.2,0c-0.2,0-0.3,0-0.3-0.3
		c0-0.2,0-0.4,0-0.6c0-8.3,0-16.6,0-24.9s0-16.6,0-24.9c0-0.8,0.3-1.7,0.2-2.5c0.3-0.7,0.3-1.4,0.5-2.1c0.3-0.7,0.5-1.4,0.8-2
		c0.6-1.2,1.2-2.2,2.1-3.3c0.4-0.5,0.9-1.1,1.4-1.5c1.3-1.2,2.8-2.2,4.5-2.9c0.9-0.4,1.8-0.7,2.8-0.8c0.4,0,0.8,0,1.1-0.2
		c0.4-0.1,0.7-0.1,1.1-0.2c0.4,0,0.8,0,1.2,0c5.6,0,11.2,0,16.9,0c0.4,0,0.8-0.1,1.2,0.1c0.3,0.2,0.8-0.1,1.1,0.2
		c1.9,0.4,2.5,0.6,4.1,1.4c0.9,0.5,1.8,1,2.5,1.7c0.3,0.3,0.6,0.4,0.9,0.7c1.4,1.4,2.6,3.1,3.4,4.9c0.5,1,0.8,2,1,3
		c0.2,0.7,0.3,1.5,0.2,2.2C727.2,377,726.9,379.5,727,381.9z"/>
	<path class="st0" d="M134.4,415.7c0-0.4,0-0.4-0.4-0.4c-2.5,0-4.9,0-7.4,0c-0.7,0-1.3-0.3-1.7-1c-0.2-0.4-0.3-0.8-0.3-1.2
		c0-19,0-38,0-57c-5.2,0-10.3,0-15.5,0c-0.6,0.6-1.3,0.9-1.9,1.4c-1.6,1.2-3.3,2.2-5,3.3c-0.6,0.4-0.6,0.4-0.6,1.2
		c0,18.7,0,37.4,0,56.2c0,1.4,0.1,2.8,0.4,4.1c0.1,0.3,0.1,0.6,0.2,0.9c0.5,1.5,1,3,1.9,4.3c0.6,1,1.4,2,2.2,2.9
		c0.6,0.7,1.4,1.3,2.1,2c0.3,0.2,0.6,0.4,0.9,0.6c1,0.6,2.1,1.3,3.2,1.7c1.2,0.5,2.5,0.9,3.8,1.1c0.8,0.2,1.7,0.2,2.5,0.2
		c2.3,0,4.6,0,7,0c0.6,0,1.3,0.1,1.7-0.5c2.2-1.4,4.3-2.9,6.5-4.3c0.3-0.2,0.5-0.5,0.5-0.9C134.4,425.4,134.4,420.5,134.4,415.7z
		 M129.7,426.5c-1.5,0-3,0-4.5,0c-0.7,0-1.4-0.2-2-0.4c-0.8-0.3-1.7-0.6-2.5-1c-1.1-0.6-2-1.2-2.9-2c-0.5-0.5-1-1-1.5-1.5
		c-0.4-0.4-0.8-0.9-1.1-1.4c-0.7-1.4-1.4-2.8-1.6-4.3c-0.1-0.4-0.1-0.8-0.2-1.2c-0.3-1.7-0.1-3.5-0.2-5.2c0-1.7,0-3.4,0-5.2
		c0-14.4,0-28.7,0-43.1c0-0.3-0.1-0.7,0.1-0.8c0.2-0.2,0.6-0.1,0.8-0.1c1.7,0,3.4,0,5.2,0c0.3,0,0.7-0.1,0.8,0.1
		c0.1,0.2,0.1,0.6,0.1,0.8c0,8.7,0,17.4,0,26.1c0,8.7,0,17.4,0,26c0,1.4,0.5,2.5,1.3,3.7c0.7,0.9,1.5,1.6,2.6,2
		c0.7,0.3,1.3,0.5,2.1,0.5c1.2,0,2.3,0,3.5,0c0.2,0,0.4,0,0.4,0.3c0,2.1,0,4.2,0,6.3C130.1,426.5,130,426.5,129.7,426.5z"/>
	<path class="st0" d="M174.6,415.2c-0.1,0-0.3,0-0.4,0c-2.3,0-4.7,0-7,0c-0.8,0-1.4-0.3-1.8-1.1c-0.2-0.4-0.2-0.7-0.2-1.2
		c0-19,0-38,0-57c-5.2,0-10.3,0-15.5,0c-0.1,0.1-0.1,0.2-0.2,0.3c-2.2,1.5-4.5,2.9-6.6,4.5c-0.6,0.2-0.7,0.6-0.7,1.2
		c0,18.5,0,37,0,55.5c0,1-0.1,1.9,0.1,2.9c0.2,0.7,0.3,1.4,0.4,2.1c0.2,1.1,0.6,2.2,1.1,3.2c0.8,1.8,1.9,3.4,3.3,4.9
		c0.6,0.7,1.3,1.2,1.9,1.8c0,0,0,0,0.1,0.1c1.3,0.7,2.4,1.6,3.7,2.1c0.9,0.3,1.8,0.7,2.7,0.9c1,0.3,2,0.3,3,0.5c2.8,0,5.6,0,8.5,0
		c0.3,0,0.5-0.1,0.7-0.3c1-0.7,2-1.3,2.9-2c1.2-0.9,2.5-1.6,3.8-2.5c0.6-0.1,0.6-0.6,0.6-1.1c0-4.5,0-9.1,0-13.6c0-0.3,0-0.6,0-0.9
		C174.9,415.3,174.8,415.2,174.6,415.2z M170.2,426.5c-1.5,0-3,0.1-4.5,0c-0.9-0.1-1.7-0.3-2.6-0.6c-1.5-0.4-2.8-1.3-4-2.1
		c-0.6-0.4-1-1-1.5-1.4c-1.2-1.1-2-2.5-2.6-3.9c-0.4-0.9-0.8-1.8-0.8-2.8c-0.3-0.5-0.1-1-0.2-1.5c-0.4-2.5-0.1-5-0.2-7.5
		c0-2.5,0-5,0-7.5c0-2.5,0-5.1,0-7.6c0-2.5,0-5.1,0-7.6c0-2.5,0-5.1,0-7.6c0-2.5,0-5,0-7.5c0-2.5,0-5.1,0-7.6c0-1,0-1,1-1
		c1.8,0,3.6,0,5.3,0c0.6,0,0.6,0,0.6,0.6c0,1.5,0,3,0,4.5c0,7.2,0,14.4,0,21.7c0,8.6,0,17.3,0,25.9c0,1,0.3,1.9,0.6,2.8
		c0.1,0.3,0.3,0.6,0.5,0.9c1.1,1.4,1.8,2,3.6,2.6c0.4,0.1,0.8,0.2,1.2,0.2c1.2,0,2.4,0,3.7,0c0.2,0,0.3,0.1,0.3,0.3
		c0,2.1,0,4.2,0,6.3C170.6,426.4,170.5,426.5,170.2,426.5z"/>
	<path class="st0" d="M190,356c0,0.1-0.1,0.2-0.1,0.2c-1.1,0.7-2.1,1.4-3.2,2.1c-1.1,0.8-2.2,1.6-3.4,2.3c-0.6,0.4-0.7,0.7-0.7,1.4
		c0,24.3,0,48.6,0,73c0,0.2,0,0.4,0,0.5c-0.1,0.4,0.1,0.4,0.4,0.4c4.9,0,9.8,0,14.6,0c0.2,0,0.4-0.1,0.6-0.2c1-0.7,2.1-1.4,3.2-2.2
		c1.1-0.8,2.2-1.6,3.4-2.3c0.6-0.4,0.7-0.7,0.7-1.4c0-24.6,0-49.2,0-73.8C200.4,356,195.2,356,190,356z M201.3,361.2
		c0,21.5,0,42.9,0,64.4c0,0.3,0.1,0.6-0.1,0.8c-0.1,0.1-0.5,0.1-0.8,0.1c-1.8,0-3.7,0-5.5,0c-0.3,0-0.5,0-0.4-0.4c0-0.2,0-0.4,0-0.5
		c0-10.8,0-21.5,0-32.3s0-21.5,0-32.3c0-0.7,0-0.7,0.7-0.7c1.9,0,3.8,0,5.7,0c0.3,0,0.5,0,0.4,0.4
		C201.2,360.8,201.3,361,201.3,361.2z"/>
	<path class="st0" d="M504.7,358.7c-0.9,0.7-1.9,1.3-2.8,2c-0.2,0.2-0.6,0.2-0.7,0.4c-0.1,0.2,0,0.5,0,0.8c0,24.4,0,48.8,0,73.2
		c0,0.1,0,0.3,0,0.4c0,0.4,0,0.4,0.4,0.4c4.8,0,9.6,0,14.4,0c0.4,0,0.7-0.1,0.9-0.3c0.7-0.5,1.4-1,2.1-1.5c1.5-1,3-2,4.5-3
		c0.7-0.5,0.7-0.5,0.7-1.4c0-24.6,0-49.2,0-73.8c-5.2,0-10.3,0-15.5,0C507.4,357,506,357.8,504.7,358.7z M512.9,393.4
		c0-10.8,0-21.5,0-32.3c0-0.8,0-0.8,0.8-0.8c1.9,0,3.7,0,5.6,0c0.5,0,0.5,0,0.5,0.5c0,0.1,0,0.2,0,0.4c0,21.5,0,42.9,0,64.4
		c0,0.3,0.1,0.7-0.1,0.8c-0.2,0.2-0.6,0.1-0.8,0.1c-1.8,0-3.7,0-5.5,0c-0.5,0-0.5,0-0.5-0.5c0-0.1,0-0.2,0-0.4
		C512.9,414.8,512.9,404.1,512.9,393.4z"/>
	<path class="st0" d="M75.9,357.8c-1.4,1-2.9,1.9-4.2,2.9c-0.7,0.2-0.8,0.6-0.8,1.3c0,24.3,0,48.7,0,73c0,0.2,0,0.4,0,0.5
		c0,0.4,0,0.4,0.4,0.4c4.8,0,9.6,0,14.4,0c0.4,0,0.7-0.1,0.9-0.3c2.2-1.5,4.4-2.9,6.6-4.4c0.7-0.5,0.7-0.5,0.7-1.4
		c0-24.6,0-49.2,0-73.8c-5.2,0-10.3,0-15.5,0C77.6,356.7,76.7,357.2,75.9,357.8z M82.6,393.4c0-10.8,0-21.5,0-32.3
		c0-0.8,0-0.8,0.8-0.8c1.8,0,3.7,0,5.5,0c0.6,0,0.6,0,0.6,0.6c0,0.1,0,0.2,0,0.3c0,21.5,0,42.9,0,64.4c0,0.3,0.1,0.7-0.1,0.8
		c-0.2,0.2-0.6,0.1-0.8,0.1c-1.8,0-3.7,0-5.5,0c-0.5,0-0.5,0-0.5-0.5c0-0.1,0-0.2,0-0.4C82.6,414.8,82.6,404.1,82.6,393.4z"/>
	<path class="st0" d="M264.8,373c-0.3-0.9-0.6-1.8-1.3-2.4c-0.8-0.8-1.5-1.6-2.5-2.2c-1.2-0.7-2.3-1.1-3.6-1.1c-5.8,0-11.5,0-17.3,0
		c-0.8,0-1.5,0.1-2.3,0.4c-1.9,0.6-3.4,1.7-4.5,3.3c-0.8,1.2-1.3,2.6-1.4,4.2c0,0.3-0.1,0.5-0.1,0.8c0,5.1,0,10.2,0,15.2
		c0,0.2,0,0.4,0,0.5c0,0.2,0.1,0.2,0.3,0.2c0.2,0,0.4,0,0.6,0c5.2,0,10.4,0,15.6,0c5.3,0,10.5,0,15.8,0c0.2,0,0.5,0,0.7,0
		c0.1,0,0.2-0.1,0.2-0.2c0-0.2,0-0.5,0-0.7c0-5.2,0-10.4,0-15.6C265.1,374.5,265,373.7,264.8,373z M253.4,387.2
		c0,0.4-0.2,0.4-0.4,0.4c-2.7,0-5.5,0-8.2,0c-2.7,0-5.3,0-8,0c-0.5,0-0.5,0-0.5-0.4c0-3.3,0-6.7,0-10c0-0.4,0-0.4,0.5-0.4
		c1.8,0,3.6,0,5.4,0c2.4,0,4.8,0,7.2,0c0.9,0,1.7,0.3,2.3,0.8c0.4,0.3,0.7,0.6,0.9,1c0.3,0.5,0.5,1,0.7,1.6c0,0.1,0,0.2,0,0.4
		C253.4,382.7,253.3,384.9,253.4,387.2z"/>
	<path class="st0" d="M720,391.2c0-5.3,0-10.6,0-16c0-0.7-0.1-1.4-0.4-2.1c-0.4-1.3-1.1-2.4-2-3.4c-0.8-0.8-1.6-1.4-2.6-1.8
		c-0.9-0.4-1.8-0.7-2.8-0.7c-5.6,0-11.3,0-16.9,0c-0.6,0-1.3,0-1.9,0.2c-1.2,0.3-2.4,0.8-3.3,1.6c-1.1,0.8-1.9,1.9-2.5,3.2
		c-0.3,0.7-0.7,2.4-0.7,3c0,5.3,0,10.6,0,16c0,0.2,0,0.4,0,0.5c0,0.1,0.1,0.2,0.2,0.2c0.2,0,0.4,0,0.6,0c5.3,0,10.5,0,15.8,0
		c5.2,0,10.5,0,15.7,0c0.2,0,0.4,0,0.6,0c0.2,0,0.3,0,0.3-0.2C720,391.5,720,391.3,720,391.2z M708.2,387.2c0,0.4,0,0.4-0.5,0.4
		c-2.7,0-5.4,0-8.1,0c-2.7,0-5.4,0-8.1,0c-0.4,0-0.4,0-0.4-0.4c0-3.4,0-6.7,0-10.1c0-0.4,0-0.4,0.4-0.4c4.4,0,8.7,0,13.1,0
		c0.6,0,1.1,0.3,1.5,0.6c0.9,0.5,1.5,1.2,1.8,2.3c0.1,0.5,0.3,0.9,0.3,1.4C708.3,383,708.2,385.1,708.2,387.2z"/>
</g>
</svg>
