<svg xmlns="http://www.w3.org/2000/svg" viewBox="0 0 865.6 242.7"><defs><style>.cls-1{fill:#d5cda6;}</style></defs><title>hunter-trembley</title><g id="Layer_2" data-name="Layer 2"><g id="Layer_1-2" data-name="Layer 1"><path class="cls-1" d="M228.9,119.9V107.7h20.9v12.2c0,.8-.5,1.2-1.4,1.2v1.2h10v-1.2a1.14,1.14,0,0,1-.8-.3,1.27,1.27,0,0,1-.4-.9V90.4a1,1,0,0,1,.4-.9,1.14,1.14,0,0,1,.8-.3V88h-10v1.2c1,0,1.4.4,1.4,1.2v11H228.9v-11a1,1,0,0,1,.4-.9,1.14,1.14,0,0,1,.8-.3V88h-9.8v1.2a1.06,1.06,0,0,1,1.2,1.2v29.5a1.06,1.06,0,0,1-1.2,1.2v1.2h9.8v-1.2a1.14,1.14,0,0,1-.8-.3A1,1,0,0,1,228.9,119.9Z"/><path class="cls-1" d="M270.8,90.4v19.2a15.83,15.83,0,0,0,1.1,6.3,8.63,8.63,0,0,0,3.3,4,12.86,12.86,0,0,0,5.5,2,58,58,0,0,0,15.2,0,12.86,12.86,0,0,0,5.5-2,8.63,8.63,0,0,0,3.3-4,16.54,16.54,0,0,0,1.1-6.3V90.4c0-.8.5-1.2,1.6-1.2V88H297v1.2c1.3,0,2,.4,2,1.2v19.5c0,2.7-.9,4.6-2.6,5.6s-4.3,1.5-7.7,1.5-6-.5-7.7-1.5-2.6-2.9-2.6-5.6V90.4c0-.8.5-1.2,1.4-1.2V88H269.1v1.2C270.2,89.2,270.8,89.6,270.8,90.4Z"/><path class="cls-1" d="M327.2,121.1q-1.5,0-1.5-1.2V98.3L345.5,119c.7.7,1,1.2,1,1.5s-.3.6-.8.6v1.2h10.5v-1.2a1.06,1.06,0,0,1-1.2-1.2V90.4a1.06,1.06,0,0,1,1.2-1.2V88h-9.8v1.2c1.1,0,1.7.4,1.7,1.2v20.7L329.4,91.7c-.9-.9-1.3-1.5-1.3-1.8s.2-.7.5-.7V88H317.5v1.2a1.06,1.06,0,0,1,1.2,1.2v29.5a1.06,1.06,0,0,1-1.2,1.2v1.2h9.6v-1.2Z"/><path class="cls-1" d="M366.5,94.3a2.28,2.28,0,0,1,1.1-.3h10.7v25.9a1,1,0,0,1-.4.9,1.14,1.14,0,0,1-.8.3v1.2h10v-1.2c-1,0-1.4-.4-1.4-1.2V94h10.7a2,2,0,0,1,1.1.3,1.21,1.21,0,0,1,.6,1.2h1.2V86.4h-1.2a1.21,1.21,0,0,1-.6,1.2,2.28,2.28,0,0,1-1.1.3H367.5a2,2,0,0,1-1.1-.3,1.21,1.21,0,0,1-.6-1.2h-1v9.1H366A1.15,1.15,0,0,1,366.5,94.3Z"/><path class="cls-1" d="M439.5,122.4c.4.1.6.5.6,1.1h1.2v-8.9h-1.2a1.43,1.43,0,0,1-.6,1.2,2.54,2.54,0,0,1-1.6.5H416.2v-9H429a3.74,3.74,0,0,1,2,.4c.5.3.7.9.7,1.9h1.2V99.5h-1.2c0,1-.2,1.6-.7,1.9a5,5,0,0,1-2,.4H416.2V93.7h21.1a3,3,0,0,1,1.9.4,1.15,1.15,0,0,1,.6,1.1H441V86.6h-1.2a1.15,1.15,0,0,1-.6,1.1,3.16,3.16,0,0,1-1.9.4H407.6v1.2a1.14,1.14,0,0,1,.8.3,1.27,1.27,0,0,1,.4.9V120a1,1,0,0,1-.4.9,1.14,1.14,0,0,1-.8.3v1.2h30.3A2.88,2.88,0,0,1,439.5,122.4Z"/><path class="cls-1" d="M461.8,121.1a2.81,2.81,0,0,1-1.5-.3,1,1,0,0,1-.4-.9V108.3h9.3l7.2,10.1a6.29,6.29,0,0,0,.8,1.1,1.33,1.33,0,0,1,.3.7.51.51,0,0,1-.4.5,3,3,0,0,1-1,.2v1.2h12.2v-1.2a4.48,4.48,0,0,1-1.1-.1,1.67,1.67,0,0,1-1.1-.8l-8.7-12.4a12.65,12.65,0,0,0,6.8-3.1c1.7-1.5,2.5-3.7,2.5-6.6a9.62,9.62,0,0,0-1-4.7,8.37,8.37,0,0,0-2.8-3.1,13.54,13.54,0,0,0-4.4-1.8,24.93,24.93,0,0,0-5.7-.6H450.6v1.2c1.3,0,1.9.4,1.9,1.2v29.5c0,.8-.6,1.2-1.9,1.2V122h11.2Zm-1.9-27.5h11.3a14.15,14.15,0,0,1,3.9.4,7.24,7.24,0,0,1,2.5,1,3.74,3.74,0,0,1,1.3,1.5,4.71,4.71,0,0,1,0,3.8,3.74,3.74,0,0,1-1.3,1.5,6.5,6.5,0,0,1-2.5,1,19.5,19.5,0,0,1-3.9.4H459.9Z"/><path class="cls-1" d="M516.4,94.3a2.28,2.28,0,0,1,1.1-.3h10.7v25.9a1,1,0,0,1-.4.9,1.14,1.14,0,0,1-.8.3v1.2h10v-1.2c-1,0-1.4-.4-1.4-1.2V94h10.7a2,2,0,0,1,1.1.3,1.21,1.21,0,0,1,.6,1.2h1.2V86.4H548a1.21,1.21,0,0,1-.6,1.2,2.28,2.28,0,0,1-1.1.3H517.4a2,2,0,0,1-1.1-.3,1.21,1.21,0,0,1-.6-1.2h-1.2v9.1h1.2A3.46,3.46,0,0,1,516.4,94.3Z"/><path class="cls-1" d="M568.4,121.1a2.81,2.81,0,0,1-1.5-.3,1,1,0,0,1-.4-.9V108.3h9.3l7.2,10.1a6.29,6.29,0,0,0,.8,1.1,1.33,1.33,0,0,1,.3.7.51.51,0,0,1-.4.5,3,3,0,0,1-1,.2v1.2h12.2v-1.2a4.48,4.48,0,0,1-1.1-.1,1.67,1.67,0,0,1-1.1-.8L584,107.6a12.65,12.65,0,0,0,6.8-3.1c1.7-1.5,2.5-3.7,2.5-6.6a9.62,9.62,0,0,0-1-4.7,8.37,8.37,0,0,0-2.8-3.1,13.54,13.54,0,0,0-4.4-1.8,24.93,24.93,0,0,0-5.7-.6H557.2v1.2c1.3,0,1.9.4,1.9,1.2v29.5c0,.8-.6,1.2-1.9,1.2V122h11.3v-.9Zm-2-27.5h11.3a14.15,14.15,0,0,1,3.9.4,7.24,7.24,0,0,1,2.5,1,3.74,3.74,0,0,1,1.3,1.5,4.71,4.71,0,0,1,0,3.8,3.74,3.74,0,0,1-1.3,1.5,6.5,6.5,0,0,1-2.5,1,19.5,19.5,0,0,1-3.9.4H566.4Z"/><path class="cls-1" d="M636.4,122.4c.4.1.6.5.6,1.1h1.2v-8.9H637a1.43,1.43,0,0,1-.6,1.2,2.54,2.54,0,0,1-1.6.5H613.1v-9h12.7a3.74,3.74,0,0,1,2,.4c.5.3.7.9.7,1.9h1.2V99.5h-1.2c0,1-.2,1.6-.7,1.9a5,5,0,0,1-2,.4H613V93.7h21.1a3,3,0,0,1,1.9.4,1.15,1.15,0,0,1,.6,1.1h1.2V86.6h-1.2a1.15,1.15,0,0,1-.6,1.1,3.16,3.16,0,0,1-1.9.4H604.4v1.2a1.14,1.14,0,0,1,.8.3,1.27,1.27,0,0,1,.4.9V120a1,1,0,0,1-.4.9,1.14,1.14,0,0,1-.8.3v1.2h30.4A2.85,2.85,0,0,1,636.4,122.4Z"/><path class="cls-1" d="M657.8,121.1q-1.8,0-1.8-1.2V98.2h.1l12.8,24h.2l13.1-23.9h.1v21.6q0,1.2-1.8,1.2v1.2h10.3v-1.2a1.4,1.4,0,0,1-.9-.3,1,1,0,0,1-.4-.9V90.2c0-.4.1-.7.4-.8a1.49,1.49,0,0,1,.9-.2V88h-12v1.2c.6,0,.8.2.8.7a2.92,2.92,0,0,1-.2.9c-.2.3-.4.8-.7,1.3l-9.4,16.7L660,91.9a10.91,10.91,0,0,0-.6-1.1,1.6,1.6,0,0,1-.3-.8.55.55,0,0,1,.4-.6,1.85,1.85,0,0,1,.7-.2V88H648v1.2a2.39,2.39,0,0,1,.9.2.81.81,0,0,1,.4.8v29.7a1,1,0,0,1-.4.9,1.61,1.61,0,0,1-.9.3v1.2h9.8Z"/><path class="cls-1" d="M731.2,121.6a14.16,14.16,0,0,0,4.1-1.9,8.61,8.61,0,0,0,2.5-2.9,7.32,7.32,0,0,0,.8-3.6,7.4,7.4,0,0,0-2.1-5.7,12.57,12.57,0,0,0-5.2-2.9v-.2a14.34,14.34,0,0,0,4.5-2.6,5.83,5.83,0,0,0,1.9-4.7,6.87,6.87,0,0,0-1.3-4.3A10.43,10.43,0,0,0,733,90a21.68,21.68,0,0,0-4.9-1.6,36.79,36.79,0,0,0-5.8-.5H701.9v1.2q1.8,0,1.8,1.2v29.5q0,1.2-1.8,1.2v1.2h23.9A22.31,22.31,0,0,0,731.2,121.6Zm-20.1-28h12.4a12.81,12.81,0,0,1,4.8.7,3.64,3.64,0,0,1,0,6.4,13.51,13.51,0,0,1-4.8.7H711.1Zm0,22.7v-9.2h12.4c2.7,0,4.7.4,5.9,1.3a3.93,3.93,0,0,1,1.8,3.4,4.05,4.05,0,0,1-1.8,3.4,11,11,0,0,1-5.9,1.3H711.1Z"/><path class="cls-1" d="M780.2,122.4c.4.1.6.5.6,1.1H782v-8.9h-1.2a1.43,1.43,0,0,1-.6,1.2,2.54,2.54,0,0,1-1.6.5H757V90.4q0-1.2,1.8-1.2V88H747.6v1.2c1.3,0,2,.4,2,1.2v29.5c0,.8-.7,1.2-2,1.2v1.2h31A4,4,0,0,1,780.2,122.4Z"/><path class="cls-1" d="M820.7,122.4c.4.1.6.5.6,1.1h1.2v-8.9h-1.2a1.43,1.43,0,0,1-.6,1.2,2.54,2.54,0,0,1-1.6.5H797.4v-9h12.8a3.74,3.74,0,0,1,2,.4c.5.3.7.9.7,1.9h1.2V99.5h-1.2c0,1-.2,1.6-.7,1.9a5,5,0,0,1-2,.4H797.4V93.7h21.1a3.16,3.16,0,0,1,1.9.4,1.15,1.15,0,0,1,.6,1.1h1.2V86.6H821a1.15,1.15,0,0,1-.6,1.1,3.16,3.16,0,0,1-1.9.4H788.8v1.2a1.14,1.14,0,0,1,.8.3,1.27,1.27,0,0,1,.4.9V120a1,1,0,0,1-.4.9,1.14,1.14,0,0,1-.8.3v1.2h30.3A2.85,2.85,0,0,1,820.7,122.4Z"/><path class="cls-1" d="M854.2,88v1.2a4.48,4.48,0,0,1,1.1.1q.6.15.6.6a1.33,1.33,0,0,1-.3.8c-.2.3-.5.7-.8,1.2l-7.6,10.5c-.6-.9-1.3-2-2.2-3.3s-1.8-2.6-2.6-3.8-1.6-2.3-2.2-3.3a5.52,5.52,0,0,1-.9-1.9.79.79,0,0,1,.5-.8,3.59,3.59,0,0,1,1.1-.2V87.9H827.4v1.2a4.11,4.11,0,0,1,1.6.5,4,4,0,0,1,1.4,1.1L843,108.3v11.6a1,1,0,0,1-.4.9,1.69,1.69,0,0,1-1,.3v1.2h10.2v-1.2q-1.5,0-1.5-1.2V108.3l11.1-15.7c.5-.8,1-1.4,1.3-1.9a4.64,4.64,0,0,1,1-1,4.05,4.05,0,0,1,.9-.5,3.08,3.08,0,0,1,1-.1V87.9H854.2Z"/><rect class="cls-1" x="234" y="146.8" width="617.8" height="2.9"/><path class="cls-1" d="M318.4,195.8a3.42,3.42,0,0,1-1.3-.2c-.7-.2-1.7-.7-2.9-3.8-2.1-5.2-7.4-19.2-7.9-20.5-.4-1.1-.5-1.2-.7-1.2s-.3.2-.7,1.3l-7.7,21.1c-.6,1.7-1.3,3-2.9,3.2-.3,0-.6.1-.8.1s-.5.1-.5.2.2.3.6.3c1.6,0,3.5-.1,3.8-.1s1.7.1,2.5.1c.3,0,.6-.1.6-.3s-.1-.2-.4-.2h-.3c-.6,0-1.2-.3-1.2-1a8,8,0,0,1,.5-2.3l2-6q.15-.3.3-.3h7.3c.2,0,.2.1.3.2l3.2,8.4c.2.5,0,.8-.2.9a.22.22,0,0,0-.2.2c0,.2.4.2,1,.2,2.3.1,4.8.1,5.3.1s.7-.1.7-.3A1,1,0,0,0,318.4,195.8Zm-10.1-10.7h-6.5c-.1,0-.2-.1-.1-.2l3-9.2c.2-.5.3-.5.5,0l3.2,9.2C308.5,185,308.5,185.1,308.3,185.1Z"/><path class="cls-1" d="M340,190.9c-.2,0-.3.2-.4.5a4.47,4.47,0,0,1-1.1,2.4c-1.2,1.2-2.9,1.4-5.2,1.4a10.67,10.67,0,0,1-10.6-10.6c0-3,.5-5.4,2.7-7.4,1-.9,2.8-2,6.5-2,2.6,0,5,.8,6,1.7a4.16,4.16,0,0,1,1.3,3c0,.4,0,.6.3.6s.2-.2.3-.6,0-2.2.1-3.1c.1-1.1.2-1.4.2-1.7s0-.3-.3-.3a19.16,19.16,0,0,1-3-.4,35.76,35.76,0,0,0-4.5-.4c-4.6,0-7.3,1.3-9.1,3a11.46,11.46,0,0,0,.2,16.5c2.4,2.1,5.5,3.1,10,3.1a16.85,16.85,0,0,0,5.4-.7,1.09,1.09,0,0,0,.8-.8c.2-.7.7-3.5.7-3.8C340.1,191.1,340.1,190.9,340,190.9Z"/><path class="cls-1" d="M364.1,190.9c-.2,0-.3.2-.4.5a4.47,4.47,0,0,1-1.1,2.4c-1.2,1.2-2.9,1.4-5.2,1.4a10.67,10.67,0,0,1-10.6-10.6c0-3,.5-5.4,2.7-7.4,1-.9,2.8-2,6.5-2,2.6,0,5,.8,6,1.7a4.16,4.16,0,0,1,1.3,3c0,.4,0,.6.3.6s.2-.2.3-.6,0-2.2.1-3.1c.1-1.1.2-1.4.2-1.7s0-.3-.3-.3a19.16,19.16,0,0,1-3-.4,35.76,35.76,0,0,0-4.5-.4c-4.6,0-7.3,1.3-9.1,3a11.46,11.46,0,0,0,.2,16.5c2.4,2.1,5.5,3.1,10,3.1a16.85,16.85,0,0,0,5.4-.7,1.09,1.09,0,0,0,.8-.8c.2-.7.7-3.5.7-3.8C364.2,191.1,364.2,190.9,364.1,190.9Z"/><path class="cls-1" d="M379.8,174.1a11.49,11.49,0,0,0-11.9,11.3c0,5.2,3.4,11.3,11.7,11.3a11.56,11.56,0,0,0,12-11.8C391.7,178.1,386.5,174.1,379.8,174.1Zm.7,21.4c-5.7,0-9.4-4.4-9.4-11.1,0-6.4,3.8-9.3,8.5-9.3s8.9,3.8,8.9,10.6C388.5,194.4,382.8,195.5,380.5,195.5Z"/><path class="cls-1" d="M417.4,174.5c-1,0-2.4.1-2.6.1s-1.8-.1-3.3-.1c-.3,0-.5.1-.5.3s.1.2.3.2a3.4,3.4,0,0,1,1,.1c1.1.2,1.2.7,1.3,1.7s.1,1.7.1,6.1v3.6c0,3-.3,5.5-1.7,7.1a5.81,5.81,0,0,1-4.7,2,6.56,6.56,0,0,1-4.5-1.6c-1.3-1.2-2.1-2.9-2.1-7.1V176.7c.1-1,.2-1.5,1-1.6.3,0,.5-.1.7-.1s.4-.1.4-.2-.1-.2-.5-.2c-.9,0-2.9.1-3.2.1s-2.1-.1-3.5-.1c-.4,0-.5.1-.5.3s.1.2.4.2a2.48,2.48,0,0,1,.9.1c1.1.1,1.2.7,1.3,1.6s.1,1.7.1,6.2v4.2c0,4.2,1.1,6.3,2.5,7.6,2.2,2,5.4,2,6.4,2a9.1,9.1,0,0,0,6.2-2c2.4-2.1,2.8-5.7,2.8-8.8v-9.1c.1-1,.2-1.6,1.2-1.7h.6c.2,0,.3-.1.3-.2C417.9,174.5,417.8,174.5,417.4,174.5Z"/><path class="cls-1" d="M469.2,174.3a2.14,2.14,0,0,0-.6.1,14.36,14.36,0,0,1-2.4.2H455.1a14.94,14.94,0,0,1-2.2-.2c-.6-.1-1.3-.4-1.5-.4s-.2.1-.3.5c-.2.9-.7,3.2-.7,3.4s0,.3.2.3.2,0,.3-.3a8,8,0,0,1,.5-1.1c.5-.7,1-1.1,3.1-1.1h4.3v12.1c0,2.5,0,5-.1,6.2s-.2,1.6-.9,1.7h-.7c-.3,0-.4.1-.4.2s.1.2.5.2c.9,0,2.9-.1,3-.1s2.1.1,3.9.1c.3,0,.4-.1.4-.3s-.1-.2-.4-.2a6.15,6.15,0,0,1-1.3-.1c-.8-.2-.9-.7-1-1.5-.1-1.3-.2-3.7-.2-6.3V175.6h3.3c3.4,0,3.9.4,4,1.7v.5c0,.3.1.4.2.4s.2-.1.2-.4.1-2.5.1-3.5C469.4,174.4,469.3,174.3,469.2,174.3Z"/><path class="cls-1" d="M480.9,195.8a7.77,7.77,0,0,1-1.3-.1c-.9-.2-1-.6-1.2-1.6a56,56,0,0,1-.1-6.2V176.6c.1-1,.2-1.5,1.2-1.6a1.27,1.27,0,0,0,.6-.1c.3,0,.4-.1.4-.2s-.2-.2-.5-.2c-1,0-2.9.1-3.1.1s-2-.1-3.1-.1c-.4,0-.5.1-.5.2s.1.2.4.2a2.81,2.81,0,0,1,.8.1c.7.1.9.6,1,1.6s.1,1.7.1,6.2v5.1a51.8,51.8,0,0,1-.2,6.2c-.1.8-.2,1.5-.8,1.6a2.49,2.49,0,0,1-.8.1c-.3,0-.4.1-.4.2s.2.2.5.2c1,0,3-.1,3.1-.1s2.1.1,3.9.1c.3,0,.5-.1.5-.2A2.57,2.57,0,0,0,480.9,195.8Z"/><path class="cls-1" d="M509.3,174.5c-1.3,0-2.4.1-2.7.1s-1.7-.1-3.2-.1c-.3,0-.6,0-.6.2s.1.3.4.3a7.77,7.77,0,0,1,1.3.1c.9.2,1.1.8,1.2,2.7l.4,14.1c-.9-.8-4.3-4.3-6.9-6.9l-9.8-10c-.2-.2-.8-.9-1.1-.9s-.4.3-.4,1.4v16.6c0,2.5-.2,3.4-.9,3.6a4.48,4.48,0,0,1-1.1.1c-.3,0-.5.1-.5.2s.2.2.5.2c1.5,0,2.7-.1,3-.1s1.5.1,3.3.1c.4,0,.5-.1.5-.2s-.1-.2-.4-.2a8.17,8.17,0,0,1-1.4-.1c-.8-.2-1.1-1.1-1.1-3.4l-.4-13.3c.8.9,4.2,4.4,7.8,8.1,3,2.9,7.7,7.6,7.8,7.6,1.7,1.6,2,1.8,2.2,1.8s.3-.2.3-1.9l.1-17.1c0-2,.2-2.4,1-2.5a2.81,2.81,0,0,1,.8-.1.27.27,0,0,0,.3-.3C509.8,174.5,509.7,174.5,509.3,174.5Z"/><path class="cls-1" d="M445.8,174.5c-1.3,0-2.4.1-2.7.1s-1.7-.1-3.2-.1c-.3,0-.6,0-.6.2s.1.3.4.3a7.77,7.77,0,0,1,1.3.1c.9.2,1.1.8,1.2,2.7l.4,14.1c-.9-.8-4.3-4.3-6.9-6.9l-9.8-10c-.2-.2-.8-.9-1.1-.9s-.4.3-.4,1.4v16.6c0,2.5-.2,3.4-.9,3.6a4.48,4.48,0,0,1-1.1.1c-.3,0-.5.1-.5.2s.2.2.5.2c1.5,0,2.7-.1,3-.1s1.5.1,3.3.1c.4,0,.5-.1.5-.2s-.1-.2-.4-.2a8.17,8.17,0,0,1-1.4-.1c-.8-.2-1.1-1.1-1.1-3.4l-.4-13.3c.8.9,4.2,4.4,7.8,8.1,3,2.9,7.7,7.6,7.8,7.6,1.7,1.6,2,1.8,2.2,1.8s.3-.2.3-1.9l.1-17.1c0-2,.2-2.4,1-2.5a2.81,2.81,0,0,1,.8-.1.27.27,0,0,0,.3-.3C446.3,174.5,446.2,174.5,445.8,174.5Z"/><path class="cls-1" d="M535.9,185.5c-.9,0-2.9.1-3.1.1s-2.1-.1-3.5-.1c-.4,0-.5.1-.5.2s.1.2.4.2a2,2,0,0,1,.8.1c1.2.2,1.4.6,1.4,2.9v4.9a1,1,0,0,1-.6,1,8.66,8.66,0,0,1-3.2.6,10.35,10.35,0,0,1-7.7-3.2,11.49,11.49,0,0,1-3.1-7.9c0-3.4,1.1-5.9,2.9-7.3a9.59,9.59,0,0,1,6.3-1.8c3.8,0,6.3,1.3,7,2.4a4.22,4.22,0,0,1,.6,2.1c0,.2.1.4.2.4s.3-.1.3-.6c0-3,.2-4,.2-4.4,0-.1,0-.3-.3-.3a20.61,20.61,0,0,1-2.6-.3,26.38,26.38,0,0,0-4.9-.5,15.09,15.09,0,0,0-7.6,1.7,10.93,10.93,0,0,0-5.1,9.6,10.69,10.69,0,0,0,3.7,8.3c3.5,2.9,7.7,3.1,10,3.1a14.84,14.84,0,0,0,6.3-1.3c.4-.2.4-.2.4-1.6v-3.1a30.09,30.09,0,0,1,.1-3.1c.1-1,.3-1.6,1.1-1.7h.6c.3,0,.4-.1.4-.2S536.2,185.5,535.9,185.5Z"/><path class="cls-1" d="M573.9,190.2c-.2,0-.3.1-.3.5a6.08,6.08,0,0,1-1.3,2.9c-1.4,1.4-3.4,1.7-5.9,1.7a12.24,12.24,0,0,1-12.3-12.4c0-3.5.6-6.5,3.1-8.9,1.2-1.2,3.3-2.5,7.8-2.5a11.49,11.49,0,0,1,6.8,1.9,4.51,4.51,0,0,1,1.4,3.5c0,.5,0,.7.3.7s.3-.2.3-.7,0-2.4.1-3.5.2-1.6.2-1.9-.1-.3-.3-.4c-1.3-.2-2.3-.3-3.6-.5a30.16,30.16,0,0,0-4.9-.4c-5.2,0-8.3,1.6-10.4,3.6a13.64,13.64,0,0,0-3.8,9.3,13.17,13.17,0,0,0,4.1,10.1c2.7,2.4,6.1,3.7,11.2,3.7a17.68,17.68,0,0,0,6.1-.8c.6-.3.7-.3.9-1,.3-1.2.7-4.1.7-4.3C574.2,190.4,574.1,190.2,573.9,190.2Z"/><path class="cls-1" d="M590,174.1a11.49,11.49,0,0,0-11.9,11.3c0,5.2,3.4,11.3,11.7,11.3a11.56,11.56,0,0,0,12-11.8C601.9,178.1,596.8,174.1,590,174.1Zm.7,21.4c-5.7,0-9.4-4.4-9.4-11.1,0-6.4,3.8-9.3,8.5-9.3s8.9,3.8,8.9,10.6C598.7,194.4,593,195.5,590.7,195.5Z"/><path class="cls-1" d="M629.6,174.5c-1.3,0-2.4.1-2.7.1s-1.7-.1-3.2-.1c-.3,0-.6,0-.6.2s.1.3.4.3a7.77,7.77,0,0,1,1.3.1c.9.2,1.1.8,1.2,2.7l.4,14.1c-.9-.8-4.3-4.3-6.9-6.9l-9.8-10c-.2-.2-.8-.9-1.1-.9s-.4.3-.4,1.4v16.6c0,2.5-.2,3.4-.9,3.6a4.48,4.48,0,0,1-1.1.1c-.3,0-.5.1-.5.2s.2.2.5.2c1.5,0,2.7-.1,3-.1s1.5.1,3.3.1c.4,0,.5-.1.5-.2s-.1-.2-.4-.2a8.17,8.17,0,0,1-1.4-.1c-.8-.2-1.1-1.1-1.1-3.4l-.4-13.3c.8.9,4.2,4.4,7.8,8.1,3,2.9,7.7,7.6,7.8,7.6,1.7,1.6,2,1.8,2.2,1.8s.3-.2.3-1.9l.1-17.1c0-2,.2-2.4,1-2.5a2.81,2.81,0,0,1,.8-.1.27.27,0,0,0,.3-.3C630,174.5,629.9,174.5,629.6,174.5Z"/><path class="cls-1" d="M641.2,183.7l-.8-.6c-2.8-2.1-3.6-3.1-3.6-4.7a3.29,3.29,0,0,1,3.6-3.3c2.9,0,3.6,1.3,3.8,1.6a4.08,4.08,0,0,1,.4,1.6c0,.2.1.4.2.4s.2-.2.2-.7c0-2,.1-3.2.1-3.3s-.1-.2-.3-.2a3.86,3.86,0,0,1-1.2-.2,10.36,10.36,0,0,0-2.8-.3c-3.8,0-6.3,2.1-6.3,5.2,0,2,.7,3.8,3.9,6.4l1.4,1.1c2.5,2,3.4,3.2,3.4,5.1,0,1.7-1.4,3.6-4.2,3.6-2,0-4-.8-4.4-3.1a4.14,4.14,0,0,1-.1-1c0-.2-.1-.3-.2-.3s-.2.2-.3.5c0,.5-.1,1.6-.1,3.2,0,.8,0,1,.4,1.2a9.15,9.15,0,0,0,4,.7,8.14,8.14,0,0,0,4.6-1.2,5.87,5.87,0,0,0,2.6-4.8C645.7,188.3,644.7,186.5,641.2,183.7Z"/><path class="cls-1" d="M671.2,174.5c-1,0-2.4.1-2.6.1s-1.8-.1-3.3-.1c-.3,0-.5.1-.5.3s.1.2.3.2a3.4,3.4,0,0,1,1,.1c1.1.2,1.2.7,1.3,1.7s.1,1.7.1,6.1v3.6c0,3-.3,5.5-1.7,7.1a5.81,5.81,0,0,1-4.7,2,6.56,6.56,0,0,1-4.5-1.6c-1.3-1.2-2.1-2.9-2.1-7.1V176.7c.1-1,.2-1.5,1-1.6.3,0,.5-.1.7-.1s.4-.1.4-.2-.1-.2-.5-.2c-.9,0-2.9.1-3.2.1s-2.1-.1-3.5-.1c-.4,0-.5.1-.5.3s.1.2.4.2a2.48,2.48,0,0,1,.9.1c1.1.1,1.2.7,1.3,1.6s.1,1.7.1,6.2v4.2c0,4.2,1.1,6.3,2.5,7.6,2.2,2,5.4,2,6.4,2a9.1,9.1,0,0,0,6.2-2c2.4-2.1,2.8-5.7,2.8-8.8v-9.1c.1-1,.2-1.6,1.2-1.7h.6c.2,0,.3-.1.3-.2C671.7,174.5,671.6,174.5,671.2,174.5Z"/><path class="cls-1" d="M689.8,192c-.2,0-.2.1-.3.4a5.78,5.78,0,0,1-.6,1.7c-.7,1-2.1,1-3.6,1-2.3,0-3-.2-3.6-.7s-.7-2.5-.7-6.4V176.7c.1-1,.3-1.5,1.2-1.7.3,0,.7-.1.9-.1s.4-.1.4-.2-.1-.2-.4-.2c-1,0-3,.1-3.5.1-.1,0-2.1-.1-3.5-.1-.3,0-.5.1-.5.2s.1.2.4.2h.8c1.2.1,1.3.7,1.4,1.7s.1,1.7.1,6.1v5.1a58.6,58.6,0,0,1-.1,6.3c-.1.8-.3,1.5-.9,1.6a2.2,2.2,0,0,1-.8.1c-.3,0-.4.1-.4.2s.2.3.5.3c1.2,0,1.9-.1,3-.1,3.4,0,5.9.2,8.3.2,1.6,0,1.6-.2,1.8-.8a21.93,21.93,0,0,0,.4-3.1C690,192.1,690,192,689.8,192Z"/><path class="cls-1" d="M704.4,175.8c3.4,0,3.9.4,4,1.7v.5c0,.3.1.4.2.4s.2-.1.2-.4.1-2.5.1-3.5c0-.1-.1-.3-.2-.3a2.14,2.14,0,0,0-.6.1,14.36,14.36,0,0,1-2.4.2H694.6a14.94,14.94,0,0,1-2.2-.2c-.6-.1-1.3-.4-1.5-.4s-.2.1-.3.5c-.2.9-.7,3.2-.7,3.4s0,.3.2.3.2,0,.3-.3a8,8,0,0,1,.5-1.1c.5-.7,1-1.1,3.1-1.1h4.3v12.1c0,2.5,0,5-.1,6.2s-.2,1.6-.9,1.7h-.7c-.2,0-.4.1-.4.2s.1.2.5.2c.9,0,2.9-.1,3-.1s2.1.1,3.9.1c.3,0,.4-.1.4-.3s-.1-.2-.4-.2a6.15,6.15,0,0,1-1.3-.1c-.8-.2-.9-.7-1-1.5-.1-1.3-.2-3.7-.2-6.3V175.5A10.91,10.91,0,0,0,704.4,175.8Z"/><path class="cls-1" d="M729.8,195.8a3.23,3.23,0,0,1-1.2-.2c-.5-.2-1.5-.6-2.6-3.3-1.8-4.2-6.4-16.1-6.9-17.2s-.5-1.1-.7-1.1-.3.2-.7,1.2l-6.8,17.9c-.6,1.4-1.2,2.5-2.6,2.7h-.7c-.3,0-.4.1-.4.2s.2.2.5.2c1.4,0,2.9-.1,3.3-.1s1.9.1,2.7.1c.2,0,.5-.1.5-.2s-.1-.2-.4-.2h-.2c-.7,0-1.1-.3-1.1-.9a6.91,6.91,0,0,1,.6-2.4l1.5-4.2q.15-.3.3-.3h6.2c.1,0,.2.1.3.2l2.7,6.8c.2.5,0,.7-.1.7a.22.22,0,0,0-.2.2c0,.2.2.2.8.2,2.3.1,4.8.1,5.2.1s.5-.1.5-.2A.59.59,0,0,0,729.8,195.8Zm-9.1-9h-5.4c-.1,0-.1-.1-.1-.2l2.5-7.5c.2-.5.2-.5.4,0l2.7,7.5C720.8,186.7,720.8,186.8,720.7,186.8Z"/><path class="cls-1" d="M754.9,174.5c-1.3,0-2.4.1-2.7.1s-1.7-.1-3.2-.1c-.3,0-.6,0-.6.2s.1.3.4.3a7.77,7.77,0,0,1,1.3.1c.9.2,1.1.8,1.2,2.7l.4,14.1c-.9-.8-4.3-4.3-6.9-6.9L735,175c-.2-.2-.8-.9-1.1-.9s-.4.3-.4,1.4v16.6c0,2.5-.2,3.4-.9,3.6a4.48,4.48,0,0,1-1.1.1c-.3,0-.5.1-.5.2s.2.2.5.2c1.5,0,2.7-.1,3-.1s1.5.1,3.3.1c.4,0,.5-.1.5-.2s-.1-.2-.4-.2a8.17,8.17,0,0,1-1.4-.1c-.8-.2-1.1-1.1-1.1-3.4L735,179c.8.9,4.2,4.4,7.8,8.1,3,2.9,7.7,7.6,7.8,7.6,1.7,1.6,2,1.8,2.2,1.8s.3-.2.3-1.9l.1-17.1c0-2,.2-2.4,1-2.5a2.81,2.81,0,0,1,.8-.1.27.27,0,0,0,.3-.3C755.3,174.5,755.2,174.5,754.9,174.5Z"/><path class="cls-1" d="M777.2,174.3a2.14,2.14,0,0,0-.6.1,14.36,14.36,0,0,1-2.4.2H763.1a14.94,14.94,0,0,1-2.2-.2c-.6-.1-1.3-.4-1.5-.4s-.2.1-.3.5c-.2.9-.7,3.2-.7,3.4s0,.3.2.3.2,0,.3-.3a8,8,0,0,1,.5-1.1c.5-.7,1-1.1,3.1-1.1h4.3v12.1c0,2.5,0,5-.1,6.2s-.2,1.6-.9,1.7h-.7c-.2,0-.4.1-.4.2s.1.2.5.2c.9,0,2.9-.1,3-.1s2.1.1,3.9.1c.3,0,.4-.1.4-.3s-.1-.2-.4-.2a6.15,6.15,0,0,1-1.3-.1c-.8-.2-.9-.7-1-1.5-.1-1.3-.2-3.7-.2-6.3V175.6h3.3c3.4,0,3.9.4,4,1.7v.5c0,.3.1.4.2.4s.2-.1.2-.4.1-2.5.1-3.5C777.4,174.4,777.3,174.3,777.2,174.3Z"/><path class="cls-1" d="M788.5,183.7l-.8-.6c-2.8-2.1-3.6-3.1-3.6-4.7a3.29,3.29,0,0,1,3.6-3.3c2.9,0,3.6,1.3,3.8,1.6a4.08,4.08,0,0,1,.4,1.6c0,.2.1.4.2.4s.2-.2.2-.7c0-2,.1-3.2.1-3.3s-.1-.2-.3-.2a3.86,3.86,0,0,1-1.2-.2,10.36,10.36,0,0,0-2.8-.3c-3.8,0-6.3,2.1-6.3,5.2,0,2,.7,3.8,3.9,6.4l1.4,1.1c2.5,2,3.4,3.2,3.4,5.1,0,1.7-1.4,3.6-4.2,3.6-2,0-4-.8-4.4-3.1a4.14,4.14,0,0,1-.1-1c0-.2-.1-.3-.2-.3s-.2.2-.3.5c0,.5-.1,1.6-.1,3.2,0,.8,0,1,.4,1.2a9.15,9.15,0,0,0,4,.7,8.14,8.14,0,0,0,4.6-1.2,5.87,5.87,0,0,0,2.6-4.8C792.9,188.3,792,186.5,788.5,183.7Z"/><path class="cls-1" d="M47.2,220.1h0a3.69,3.69,0,0,1-3.7-3.7h0V170H65.4V155.9H43.5V109.4h0a3.69,3.69,0,0,1,3.7-3.7h0V97.3H50V84.1H0V97.3H2.8v8.4h0a3.69,3.69,0,0,1,3.7,3.7h0V216.7a3.78,3.78,0,0,1-3.7,3.4h0v8.4H0v13.2H50V228.5H47.2Zm-27.7-4.8a2.4,2.4,0,0,1-4.8,0V112.6a2.4,2.4,0,0,1,4.8,0Zm14,0a2.4,2.4,0,0,1-4.8,0V112.6a2.4,2.4,0,0,1,4.8,0Z"/><path class="cls-1" d="M0,79.3H70.3V217.7a3.78,3.78,0,0,1-3.7,3.4h0v8.4H63.8v13.2h50V229.5H111v-8.4a3.69,3.69,0,0,1-3.7-3.7h0V79.3h70.3V74H0Zm93.3,2.4a2.4,2.4,0,1,1,4.8,0V214.3a2.4,2.4,0,1,1-4.8,0Zm-13.9,0a2.4,2.4,0,0,1,4.8,0V214.3a2.4,2.4,0,0,1-4.8,0Z"/><path class="cls-1" d="M127.4,98.3h2.8v8.4a3.69,3.69,0,0,1,3.7,3.7h0v45.4H112.3v14.1h21.6v47.8a3.78,3.78,0,0,1-3.7,3.4h0v8.4h-2.8v13.2h50V229.5h-2.8v-8.4a3.69,3.69,0,0,1-3.7-3.7h0v-107h0a3.69,3.69,0,0,1,3.7-3.7V98.3h2.8V85.1h-50ZM157,112.6a2.4,2.4,0,0,1,4.8,0V215.4a2.4,2.4,0,0,1-4.8,0Zm-13.9,0a2.4,2.4,0,0,1,4.8,0V215.4a2.4,2.4,0,1,1-4.8,0Z"/><polygon class="cls-1" points="144.7 62.7 142 62.7 137.8 62.7 135.2 62.7 43.1 62.7 40.5 62.7 36.3 62.7 33.7 62.7 27.8 62.7 0 62.7 0 62.7 0 71.4 29.3 71.4 29.4 71.6 29.7 71.4 177.4 71.4 177.4 62.7 149.6 62.7 144.7 62.7"/><polygon class="cls-1" points="40.5 56.9 43.1 56.9 88.7 27.1 135.2 56.9 137.8 56.9 89.1 25.7 88.7 25.5 40.5 56.9"/><polygon class="cls-1" points="144.7 56.9 89.1 21.3 88.7 21 33.7 56.9 36.3 56.9 88.7 22.7 142 56.9 144.7 56.9"/><polygon class="cls-1" points="0 56.9 27.8 56.9 88.8 17.9 149.6 56.9 177.4 56.9 88.9 0 0 56.9"/></g></g></svg>