<svg xmlns="http://www.w3.org/2000/svg" viewBox="0 0 569.3 800.3"><defs><style>.cls-1{fill:#353535;}.cls-2{fill:#a9762a;}</style></defs><title>maple-tree</title><g id="Layer_2" data-name="Layer 2"><g id="Layer_1-2" data-name="Layer 1"><path class="cls-1" d="M412.9,277.2a407.92,407.92,0,0,0,60.9-44.8c10.5,1.3,31.6,2.9,48.9-2.9,0,0-35.7,5.4-45.1-.6,19.9-18.3,39.2-40.7,49.9-65,0,0-19.4,33.8-60.1,67.5h-.1a289.93,289.93,0,0,1-112.7,57.9c-2,.1-4.1.2-6.4.4h-1.9c13.7-8.9,96.7-65.5,98.4-125.9,0,0-10.3,63.3-110.9,123.9a161.85,161.85,0,0,1-17.8-6.1h0c.4-5.9.8-11.7,1.1-17.4C460.4,151.3,439.7,37.3,438.3,35.6c8.1,104.1-93.2,193.1-120.5,215.1,1-24,1.2-46.4.7-67,23.7-4.7,43.3-22.8,43.3-22.8-16.6,12.8-36.9,17.2-43.4,18.3-.4-12.6-1-24.5-1.7-35.6,28.9-3.2,32.8-21.7,32.8-21.7-10.3,18.6-33.2,16-33.2,16-4.2-57.7-12.2-92.3-12.2-92.3s-.8-.7-.5,1c12.2,65.1,4,193.5,1.2,230.2-3.7-1.7-6-2.9-6-2.9-43.3-28.1-60-110.6-74.4-168.2-7.1-28.6-6-60.1-6-60.1-4.4,16.1-4.2,57.4-2.2,77.7,1.1,11.6,2.6,23.3,4.4,34.9v-.1s-44-14.8-67.6-40.4A293.69,293.69,0,0,0,182.5,146s-10.2,3.5-39.8-4.9c0,0,28,10.6,46.2,10.1h0c10.3,8.1,22,15.8,34.1,21.2v-.1a1229.87,1229.87,0,0,0,28,123.5c-27.3-1.8-52.1-23.1-52.1-23.1,11.8,17,41.2,27,54.3,30.7,5.4,20.8,9.6,39.9,12.8,57.3,0,0-77.4-7.4-91.3-84,0,0-12.9-79.6-57.7-108.5,0,0,39.6,29.6,48.9,110.5a138.74,138.74,0,0,0,4.7,24.8c-20.7-1.8-92.1-10-147.1-41.1,0,0,22.3,16.7,65.6,30.8-3.2,2.7-12,9.6-22.1,13.7,6.8-2.5,20.5-7.7,28.2-11.8a392.07,392.07,0,0,0,77.6,15.4c10.4,31.9,36,77.1,98.3,83.9C294.6,562.2,156.4,563.5,155,565.1s-2.9,3.4-4.1,5a34.8,34.8,0,0,1,9,6.3c4.5,4.4,9.2,8.6,14,12.7a30.29,30.29,0,0,1,5.9-.6c10.2,0,17.5,4.3,25.1,10.4,3.2,2.5,6.3,5,9.5,7.5,16.6,12.7,33.6,24.9,50.5,37.2,26.7,1.6,50.9,1.5,64.7,1.2,25.2-28.4,65.1-38.9,95.7-60.7a75,75,0,0,0,7.1-6.7c.2-.3.3-.5.5-.8v-.8a31,31,0,0,1,6.2-20.2c-81.9.2-109-44.2-109-44.2-27.8-45.3-16.4-119.5-6.3-162.1.5-2.2,4.8-20.6,5.6-22.6,7.8-19.5,30.9-22.8,30.9-22.8,91.9-15.3,130.5,18.8,133.2,21.5-20.9-21.3-41.8-25.7-41.8-25.7,41.8-12.1,62.9-29.9,62.9-29.9C467.9,297,440,293.5,440,293.5c-14-1.3-24.7-2.3-33.3-3C401.2,289,397.6,285.5,412.9,277.2Z"/><path class="cls-2" d="M153,117.7c-1.4-1.5-2.2-2.5-2.5-2.8Z"/><path class="cls-2" d="M150.4,114.8l-.1-.1A.1.1,0,0,1,150.4,114.8Z"/><path class="cls-2" d="M229.2,224.5l-.3-.9c-.9-2.3-3.7-7.6-11.6-6.6,0,0-15.4,1.5-20,9.3,0,0,13.1,7.4,24.5,5.6,4.6-.7,8-4,7.4-7.2C229.3,224.7,229.3,224.6,229.2,224.5Z"/><path class="cls-2" d="M254.6,193.1l.1.1.8.8c2.2,1.9,8,5.6,14.2.7,0,0,12.4-9.1,11.6-19.1,0,0-16.1-.8-24.9,6.7C252.9,185.3,252,190.1,254.6,193.1Z"/><path class="cls-2" d="M224.3,327.4s8.2,13.7,19.3,16.8c4.5,1.2,8.9-.7,10-4.5v-.1a5.16,5.16,0,0,0,.2-1.1c.3-2.9.2-9.7-7.3-12.2C246.5,326.4,232.1,321.1,224.3,327.4Z"/><path class="cls-2" d="M390.9,203a3.13,3.13,0,0,0,.5,1c1.4,2.5,5.6,8,13.1,5.5,0,0,14.7-4.3,17.3-14,0,0-14.8-6.2-25.5-2.1-4.3,1.6-6.8,5.9-5.4,9.5C390.8,202.9,390.9,202.9,390.9,203Z"/><path class="cls-2" d="M365,159.1c8.5.3,10.2-8.8,10.2-8.8,2.4-14.9-6.2-26.6-6.2-26.6-10.6,5.7-16.9,18.2-16.9,18.2C345.6,157,365,159.1,365,159.1Z"/><path class="cls-2" d="M406.8,118.9h.2a6.75,6.75,0,0,0,1.4-.2c3.4-.5,11.3-2.6,11.7-11.3,0,0,1.4-16.8-8.3-23.2,0,0-13.2,12.7-13.2,25.4C398.4,114.7,402.2,118.9,406.8,118.9Z"/><path class="cls-2" d="M327.4,123.9a.31.31,0,0,1,.2.1,4.53,4.53,0,0,0,1.6.3c4.1.6,14,.6,17.5-11,0,0,7.5-22.3-1.4-34.6,0,0-19.7,12.4-24.2,29.6C319.3,115.2,322.1,122.2,327.4,123.9Z"/><path class="cls-2" d="M381.8,352.7c.3-14-14-32.2-14-32.2h0a13,13,0,0,0-21.2,14.9,16.32,16.32,0,0,0,1.7,2h0C357.3,346.9,381.8,352.7,381.8,352.7Z"/><path class="cls-2" d="M447.3,105s9.8,10.1,30.1-25.8c0,0-24.1-4.7-32.5,7.6C444.9,86.8,438.7,97.7,447.3,105Z"/><path class="cls-2" d="M447.6,239.3h1.3c2.9-.1,9.7-1.2,10.9-9,0,0,3-15-4.3-21.8,0,0-12.4,10.2-13.8,21.6C441.1,234.7,443.8,238.8,447.6,239.3Z"/><path class="cls-2" d="M460.7,64.6s15.9,2.7,12.3-35.2c0,0-26.2,8.8-26.4,22.5C446.6,51.9,447.6,63.4,460.7,64.6Z"/><path class="cls-2" d="M464.2,151.1c-6.8,1-7.7,1.6-7.7,1.6-4.7,1.8-6.8,7.5-4.6,12.8s7.7,8,12.5,6.2a4.67,4.67,0,0,0,1-.5c13.3-6.5,16.6-20.7,16.6-20.7C475,149.6,464.2,151.1,464.2,151.1Z"/><path class="cls-2" d="M475.9,253.4a10.7,10.7,0,0,0,1.6,1.4h0c7.8,6.3,28.6,9.3,28.6,9.3-.5-10.1-13.3-22.5-13.3-22.5h0c-3.7-3.9-10.4-4.5-15-1.4C472.9,243.5,472.1,249.4,475.9,253.4Z"/><path class="cls-2" d="M140.3,223.9c-.1-.4-.2-.7-.3-1.1-1-2.7-4.1-8.8-12-7.6,0,0-15.2,1.7-19.4,10.8,0,0,13.5,8.7,24.8,6.5,4.6-.9,7.7-4.6,7-8.4C140.3,224,140.3,224,140.3,223.9Z"/><path class="cls-2" d="M430.2,289.3a10.87,10.87,0,0,0,1.8-.1h0c8.9-.8,22.6-11.7,22.6-11.7-7.5-6.2-23.5-6.2-23.5-6.2h0a8.91,8.91,0,0,0-9.3,8.4A9.05,9.05,0,0,0,430.2,289.3Z"/><path class="cls-2" d="M270.4,142.5c5.9,9.3,22.9,14.2,22.9,14.2h0A10.21,10.21,0,0,0,306,150c1.9-5.5-.7-11.5-5.8-13.3a14.62,14.62,0,0,0-2-.5h0C288.5,134.4,270.4,142.5,270.4,142.5Z"/><path class="cls-2" d="M349.6,205c-2.6-8.8-10.9-15.6-10.9-15.6-10.3-7.3-14.8,6.7-14.8,6.7-1.5,6.3,5,9,5,9C339.6,209.4,349.6,205,349.6,205Z"/><path class="cls-2" d="M155.3,294.3l.1-.1a10,10,0,0,0,1-1.1c2.5-3,7.8-10.6,2.3-17.4,0,0-10.2-13.7-22.8-11.1,0,0-2.6,19.7,6,29.2A9.66,9.66,0,0,0,155.3,294.3Z"/><path class="cls-2" d="M303.8,39.6a3.08,3.08,0,0,0,1,.1h.1c3.4.1,6.2-3.1,6.3-7.2.3-10-9.1-20.4-9.1-20.4-7.2,4.9-6.5,18.2-6.5,18.2C295.6,37.3,301.3,39.1,303.8,39.6Z"/><path class="cls-2" d="M101.1,308.1c-12.7,8.1-15.8,22.3-15.8,22.3,11.3,4.1,24.8.6,24.8.6,15.6-5.3,4.3-21.2,4.3-21.2C109,303.3,101.1,308.1,101.1,308.1Z"/><path class="cls-2" d="M19.9,296.1s18.9,16.8,33.7,11.2c0,0,12-5.6,8.5-16.3C62.1,291.1,59.2,277.6,19.9,296.1Z"/><path class="cls-2" d="M97.5,194.7s7.7,13,15.9,13.4c0,0,6.5.9,10.5-10.5,0,0,5.8-14.9-17.3-17.1,0,0-12.7-.9-23.3,1.5A33.75,33.75,0,0,1,97.5,194.7Z"/><path class="cls-2" d="M94,282.2l.1-.1a5.5,5.5,0,0,0,.9-.7c2.2-1.8,7.1-6.8,4.3-14,0,0-4.8-14.3-13.8-15.6,0,0-4.9,15.8-.6,26.2C86.7,282.2,90.8,284.1,94,282.2Z"/><path class="cls-2" d="M493.5,325.5a.35.35,0,0,1-.1-.2A.35.35,0,0,0,493.5,325.5Z"/><path class="cls-2" d="M501.9,291.5c-5.7-2.4-12-.4-13.9,4.5a.31.31,0,0,1-.1.2,8.33,8.33,0,0,0-.4,1.5c-.9,3.9-1.8,13.4,7.8,17.9,0,0,18.3,9.5,29.5,2.1C524.9,317.7,516.1,297.5,501.9,291.5Z"/><path class="cls-2" d="M512.5,202.2a10.06,10.06,0,0,0-6.2,11.6.31.31,0,0,0,.1.2,5,5,0,0,0,.5,1.3c1.3,3.3,5.2,10.6,13.1,8.1,0,0,15.5-4.2,18.8-16.3C538.6,207.1,523.9,198,512.5,202.2Z"/><path class="cls-2" d="M155.4,197.6a9.1,9.1,0,0,0,12.7.5,5.26,5.26,0,0,0,1.2-1.4h0c5.5-7,7.1-24.4,7.1-24.4-9.6,1.2-20.7,12.8-20.7,12.8h0A8.84,8.84,0,0,0,155.4,197.6Z"/><path class="cls-2" d="M195.3,137.8h.2a6.75,6.75,0,0,0,1.4-.2c3.5-.6,11.6-3,12-12.7,0,0,1.4-18.8-8.6-26,0,0-13.6,14.3-13.6,28.5C186.7,133.1,190.5,137.8,195.3,137.8Z"/><path class="cls-2" d="M227.7,36.9c8.6.3,10.2-9.2,10.2-9.2C240.3,12.2,231.7,0,231.7,0,221,5.9,214.6,18.9,214.6,18.9,208.2,34.7,227.7,36.9,227.7,36.9Z"/><path class="cls-2" d="M234,97s-5.3,3.9-.2,14.8c0,0,6.2,14.8,24.3.2,0,0,9.8-8.2,15.7-17.3a31.78,31.78,0,0,1-19.1.9S240.1,91.6,234,97Z"/><path class="cls-2" d="M224,61.4s-1.9,12.8,9.2,16.7c0,0,13.2,6.1,19.5-36.2C252.7,41.9,227.6,46.4,224,61.4Z"/><path class="cls-2" d="M202.7,198.9s14.6-3.9,17.2-11.6c0,0,2.6-6-7.3-12.9,0,0-12.8-9.6-21.1,12.1,0,0-4.3,12-4.8,22.9A30.75,30.75,0,0,1,202.7,198.9Z"/><path class="cls-2" d="M283.8,71s4.4,10.3,10.3,11.6c0,0,4.6,1.5,8.4-6.1,0,0,5.4-9.9-11-14.4,0,0-9.1-2.3-16.9-2A28.25,28.25,0,0,1,283.8,71Z"/><path class="cls-2" d="M43.2,266.2s11.6,4.7,17.7-4.8c0,0,8.7-11-29.5-26.5C31.5,235,30,259.5,43.2,266.2Z"/><path class="cls-2" d="M0,234.2s.3,14.1,7.4,21.3c2.9,2.9,7.1,3.3,9.6,1l.1-.1a5.55,5.55,0,0,0,.6-.8c1.5-2,4.4-7.3-.2-12.5C17.4,243.1,8.7,232.8,0,234.2Z"/><path class="cls-2" d="M128.2,139s15.1,2.7,20.8-3c0,0,5-4.1-1-14.2,0,0-7.5-13.6-24.6,1.8,0,0-9.2,8.6-14.4,17.8A34.14,34.14,0,0,1,128.2,139Z"/><path class="cls-2" d="M148.7,105.7c7.9-3,5.9-12.1,5.9-12.1C151,79,138.5,71.5,138.5,71.5,131,80.8,130,94.8,130,94.8,130.1,111.2,148.7,105.7,148.7,105.7Z"/><path class="cls-1" d="M214.9,296a74.26,74.26,0,0,1-19-14.9l-10.8,6.6a91,91,0,0,0,9.3,20.8Z"/><path class="cls-1" d="M340.9,254.2c-5.3,4.6-10.8,9.2-16.4,13.8-.1.9-.1,1.7-.2,2.6l11.6,7.1c7.4-4.6,14.3-9.3,20.7-13.9Z"/><path class="cls-1" d="M233.9,284.4l5.2-3.2c-1.8-6.6-3.8-14.3-5.9-22.9l-22.6,13.9A112.73,112.73,0,0,0,233.9,284.4Z"/><path class="cls-1" d="M428.7,308.8a207.42,207.42,0,0,0-23.4-1.4c-6.2,0-12.5.3-19.1.8L408.9,322a29.62,29.62,0,0,1,14.2,25.3V546.6a29.84,29.84,0,0,1-14.2,25.3l-103,62.7a29.43,29.43,0,0,1-30.8,0l-103-62.7a29.62,29.62,0,0,1-14.2-25.3V347.3a30,30,0,0,1,11.6-23.5c-.8-2.1-1.6-4.1-2.4-6.3-6.9-.8-13.6-1.7-20.3-2.8a52.06,52.06,0,0,0-11.4,32.5V546.5a52.45,52.45,0,0,0,25.1,44.6l103,62.7a52.47,52.47,0,0,0,54.4,0l103-62.7A52.45,52.45,0,0,0,446,546.5V347.2A54.35,54.35,0,0,0,428.7,308.8Z"/><path class="cls-1" d="M288.6,255.1a30.46,30.46,0,0,1,10,1.1c.4-6.8.9-14.5,1.3-22.9a51.79,51.79,0,0,0-25.6,1.7A124.09,124.09,0,0,0,288.6,255.1Z"/><path class="cls-2" d="M361,233.6c-6,7-7.2,17.7-7.2,17.7-.6,12.6,13.6,8.8,13.6,8.8,6.1-2.1,4.9-9.1,4.9-9.1A29,29,0,0,0,361,233.6Z"/><path class="cls-2" d="M482.4,335.6s-2-15.5-9.4-19.6c0,0-5.6-3.7-13.6,5,0,0-11.1,11.2,9.3,23.6,0,0,11.3,6.6,21.9,9.1A35.07,35.07,0,0,1,482.4,335.6Z"/><path class="cls-2" d="M260.4,404c12.3,108.7-48.7,139.5-91.9,147.9a18.9,18.9,0,0,1-.8-5.3V347.3a18.25,18.25,0,0,1,3.2-10.4,131.62,131.62,0,0,0,24.6,34.4C213,388.7,234.8,399.6,260.4,404Z"/><path class="cls-2" d="M213.8,326.6a10.42,10.42,0,0,1,3.9-7.2c4.5-3.6,10.3-5.5,17.2-5.5a49.24,49.24,0,0,1,10.2,1.2c-.2-.9-.5-1.9-.7-2.8a174.63,174.63,0,0,1-21.7-8.4,8.34,8.34,0,0,1-2.1,1.6l-17.1,10.4A80.73,80.73,0,0,0,213.8,326.6Z"/><path class="cls-2" d="M406.3,335.4l-22.7-13.8a10.39,10.39,0,0,1-4.3-5c-.3,0-.7.1-1,.1.3.4.6.7.9,1.1.1.1.1.2.2.3,1.7,2.2,16.6,21.7,16.2,39a10.92,10.92,0,0,1-4.2,8.3,10.5,10.5,0,0,1-6.6,2.2,10.68,10.68,0,0,1-2.5-.3c-4.6-1.1-28-7.1-38.6-18.1a22.75,22.75,0,0,1-2.9-3.4l-.9-1.5c-.7,2.8-1.5,6.3-2.6,10.8l-.2.7c-21.6,91.6-6.1,135.8,5,154,.1.1,5.5,8.5,18.3,17.4,17.7,12.2,38.2,17.7,54.8,20V351.6A18.65,18.65,0,0,0,406.3,335.4Z"/><path class="cls-1" d="M544.3,800.3c-15.5,0-22.5-9-22.5-17.8,0-10.4,8.3-17.7,20.3-17.7,7.9,0,11.3,3,12.2,4l4.6,4.9v-7.9h3.7v11.1h-5.5c-1.7-5.5-6-8.6-12.2-8.6-5.7,0-12.5,2.4-12.5,13.6,0,12.8,8.2,14.7,13.1,14.7a12.45,12.45,0,0,0,9.8-4.4l.5-.7v-3.8h-6.1v-3.4h19.6v3.4h-4.8v11.6h-2.4l-2.6-6.6-2.8,2.9C554,798.3,551.5,800.3,544.3,800.3Zm-403.5,0c-11.5,0-23.1-6.1-23.1-17.8,0-10.1,9.9-17.7,23-17.7,11.5,0,23.2,6.1,23.2,17.8S152.2,800.3,140.8,800.3Zm-.2-31.9c-6.2,0-12.5,4.4-12.5,14.1,0,8.5,5,14.1,12.5,14.1s12.6-5.8,12.6-14.1C153.2,775.7,148.8,768.4,140.6,768.4ZM84.9,800.3c-11.5,0-23.1-6.1-23.1-17.8,0-10.1,9.9-17.7,23-17.7,11.5,0,23.2,6.1,23.2,17.8S96.4,800.3,84.9,800.3Zm-.1-31.9c-6.2,0-12.5,4.4-12.5,14.1,0,8.5,5,14.1,12.5,14.1s12.6-5.8,12.6-14.1C97.4,775.7,93,768.4,84.8,768.4Zm416.7,30.9-20.1-22.6h-3.9v18.6h6.4v4H464.6v-4h6.5V769.7h-6.5v-4h17l15.5,17.8h4V769.7H496v-4h18.1v4h-6.5v29.6Zm-67.3,0v-4h6.5V769.7h-6.5v-4H456v4h-6.5v25.6H456v4Zm-48.9,0v-4h6.5V769.7h-6.5v-4h26.3c13.3,0,14.8,5.5,14.8,9.6,0,9.5-11.1,10.2-14.5,10.2H400.6v9.7h6.9v4H385.3Zm15.3-17.6h7.5c2.1,0,8.4,0,8.4-6.3,0-1.7-.7-5.7-7.3-5.7h-8.6Zm-68.5,17.6v-4h6.5V769.7h-6.5v-4h43.2V778H369v-8.3H347.5v12.2h8.4v-4.3H360v9.8h-4.1v-4.3h-8.4v12.3h22.1V786h6.5v13.4h-44Zm-53.2,0v-4h6.5V769.7h-6.5v-4h43.2V778h-6.3v-8.3H294.3v12.2h8.4v-4.3h4.1v9.8h-4.2v-4.3h-8.4v12.3h22.2V786h6.5v13.4h-44Zm-27.6,0v-4h6.3l-12.1-12.6-4.6,2.8v9.8h2.7v4H225.9v-4h6.5V769.7h-6.5v-4h18.6v4H241v12h3.7l16-12h-8.4v-4h16.3v4h-3.2l-12.8,10.4,14.8,15.2h3.2v4Zm-53,0v-4h6.3l-12.1-12.6-4.6,2.8v9.8h2.7v4H172.9v-4h6.5V769.7h-6.5v-4h18.6v4H188v12h3.7l16-12h-8.4v-4h16.3v4h-3.2l-12.8,10.4,14.8,15.2h3.2v4Zm-186.1,0v-4h6.5V769.7H12.2v-4h26c4.8,0,12.9.9,12.9,7.1,0,1.8-.6,3.7-5,5.3l-1.7.6v4.1l2.1.4c7.2,1.5,7.2,5.1,7.2,6.3q0,9.6-16.5,9.6h-25Zm15.2-3.9h9.3c5.2,0,7.1-3,7.1-5.8,0-2.2-1-5.9-7.5-5.9H27.5v11.7Zm0-15.6h7.8c5.3,0,6.1-3.3,6.1-5.3,0-1.1-.4-4.8-6.1-4.8H27.5v10.1Zm408-36.3c-9,0-11.8-5.9-12.6-10.8-.9-5.8-4.2-7-6.7-7h-7.7v12.1h5.3v5H391v-5h7.2V709.9H391v-5h29.7c15.7,0,17.8,4.4,17.8,9.2,0,3.8-3.6,6.9-9.2,7.9l-2.2.4V727l2.1.4c2.5.5,3.4,1.4,3.9,3.5.8,4.1,1.5,8,6,8,2.3,0,4.8-1.8,4.8-5.7,0-1-.1-2-.2-3l2-.2a34.21,34.21,0,0,1,.4,4.6C445.8,740.4,442.1,743.5,435.4,743.5Zm-27-21.9h9.1c2.5,0,9.1,0,9.1-5.9s-6-5.8-8.6-5.8h-9.6Zm104.2,21.2v-5h7.2V709.9h-7.2v-5h48.5v14.3h-7.6v-9.3H530.2v12.9H539v-4.7h5.2v11.4H539v-4.8h-8.8v13.1h24.1V727.4h7.8v15.4Zm-59.1,0v-5h7.2V709.9h-7.2v-5H502v14.3h-7.6v-9.3H471.1v12.9h8.8v-4.7h5.2v11.4h-5.2v-4.8h-8.8v13.1h24.1V727.4H503v15.4Zm-108.1,0v-5h7.4V709.9H341v9.3h-7.6V704.9h49.2v14.3h-7.7v-9.3H363.3v27.9h7.5v5Zm-90.3,0v-5h7.2V709.9h-7.2v-5h48.5v14.3H296v-9.3H272.6v12.9h8.8v-4.7h5.2v11.4h-5.2v-4.8h-8.8v13.1h24.1V727.4h7.8v15.4Zm-51.4,0v-5h7.2V709.9h-7.2v-5h25.2V710h-7.7v27.9h17.9V727.4h7.7v15.5H203.7Zm-54.3,0v-5h7.2V709.9h-7.2v-5h29.5c15,0,16.8,6.3,16.8,11,0,10.8-12.6,11.7-16.4,11.7H167v10.2h7.6v5Zm17.5-20.2h7.9c2.2,0,9.1,0,9.1-6.7,0-1.8-.8-6.1-7.9-6.1h-9.2v12.8Zm-50,20.2v-5h5.9l-2.3-7.7h-15l-2.5,7.7h5.4v5H89v-5h6.1l14.5-32.9h11l14.7,32.9h6.1v5Zm-10.8-14.5H120l-5.1-14.7h-4ZM59.6,742.8v-5h3.7V719.5H58.9L48.2,742.8H42.8L31.6,719.3H27.1v18.5h4.1v5h-19v-5h7.2V709.9H12.2v-5H33.4l14.1,27.6,13.6-27.6H80.9V710H73.6v27.9h7.2v5H59.6Z"/></g></g></svg>