<svg xmlns="http://www.w3.org/2000/svg" viewBox="0 0 147.53 91.17"><defs><style>.cls-1{fill:#343434;}.cls-2{fill:#4b8789;}.cls-3{fill:#94d7e2;}</style></defs><title>surf-turf</title><g id="Layer_2" data-name="Layer 2"><g id="Layer_1-2" data-name="Layer 1"><path class="cls-1" d="M79.11,72.55a10.47,10.47,0,0,0,5.64,1.78l0,0s0,.07.05,0a.67.67,0,0,1,.15-.06c.39,0,.79,0,1.2,0,2.77-.26,4.75-1.77,7-3.29a.07.07,0,1,0-.07-.12c-2.12,1.24-4,2.77-6.55,3.08l-.4,0,.08-.06-.24.07a11.53,11.53,0,0,1-3.28-.19s0,0,0,0a3.06,3.06,0,0,1-1.09-.37L81,73.14a.29.29,0,0,1,0,.09l.65.29.19.09a12.45,12.45,0,0,1-2.67-1.15C79.1,72.43,79.06,72.51,79.11,72.55Z"/><path class="cls-1" d="M94.61,70.05l.39-.2s0,0,0,0l-.28.15a4.09,4.09,0,0,0,.84-.77c.48-.54.78-1.15,1.22-1.71.09-.11-.07-.27-.16-.16-.39.48-.64,1-1,1.52a5.25,5.25,0,0,1-1.44,1.3c-.05,0,0,.11,0,.1l.18-.08a3.52,3.52,0,0,0-.56.39h0a3.82,3.82,0,0,1,.68-.45Z"/><path class="cls-1" d="M99,65.65a0,0,0,0,0,0-.09S98.94,65.65,99,65.65Z"/><path class="cls-1" d="M101.08,59.28c-.37,1.08-.42,2.2-.88,3.26l-.57,1.29c0,.09-.37,1-.52,1s0,0,0,0l.1,0a0,0,0,0,0,0,0c.31-.91.93-1.72,1.3-2.61a26,26,0,0,0,.73-2.92C101.3,59.21,101.12,59.17,101.08,59.28Z"/><path class="cls-1" d="M101.69,70.28l-.06-.14-.06.13Z"/><path class="cls-1" d="M103.72,57.58a12.24,12.24,0,0,0-2-4.66c-.26-.36-.55-.72-.63-.81l-.56-.67-.21.84c-.31,1.23-.6,2.06-.67,2.33a19.48,19.48,0,0,1-1.41,3.44,16.67,16.67,0,0,1-1.9,3,10,10,0,0,1-2.6,2.29l-.29,0a5,5,0,0,0-1.08.07l.14.51,0,0,.09.31h0l.13.51A8.65,8.65,0,0,0,94,64.15a4,4,0,0,1,.48.08,4.69,4.69,0,0,1,1.08.39,5,5,0,0,1,.89.66,21.11,21.11,0,0,1-3.66,4.22,12.51,12.51,0,0,1-5,2.75h0a8.66,8.66,0,0,1-3.36.58,5.13,5.13,0,0,1-2.8-.91,5,5,0,0,1-1-.92A5.71,5.71,0,0,1,80,70a8.91,8.91,0,0,1-.68-2.09C79,61.51,79,58.51,79,55.26c0-5-.07-7.92-.38-13.32,0-1.13-.1-2.22-.14-3.07s0-1.47,0-1.64a5,5,0,0,1,.19-1.29A7.86,7.86,0,0,0,79,34.35l.11-1.21c0-.25,0-.53.06-.85s.06-.5.09-.77c1.54-.09,3.06-.19,4.79-.36l.21,0a1.09,1.09,0,0,0,.26-.05l.36-.09.74-.18,1.56-.37a32.65,32.65,0,0,1,3.5-.65l.61-.07v-.55c0-1.8,0-3.84,0-6.18v-.36L91,22.58l-2.51-.46c-1.56-.32-3.09-.61-4.11-.94h0c-3.35.15-5.7.28-6.32.33.41-.26-.07-.3-.9-.16a8.68,8.68,0,1,0-7.38-1.44h-.14a10,10,0,0,1-.88-.84L68.59,19l0,.13c.12.13.25.26.38.38l.5.44L66,19.79h-.34l-.16.07c-.33.12-.77.24-1.13.34l-1.07.27-1.77.44c-1,.25-1.79.46-2.46.67l-.56.17.06.48.08.57c.11.77.28,2.75.39,4.4l.07,1.19,0,.35.35,0a14.89,14.89,0,0,1,1.89.25c.51.1.94.2,1.47.35l1.49.38.87.21.46.12a1.64,1.64,0,0,0,.32.05l.26,0c1.35.13,3,.22,4.91.31.05.41.1.76.12,1.11s0,.9,0,1.39c0,1,0,2.16-.1,4.19-.13,2.51-.27,5.29-.32,6.18s-.15,4.82-.28,8.74c-.23,6.23-.28,8-.39,13.88,0,.48,0,.92,0,1.08-.41,2.22-1.33,3.52-2.62,4.16a5.06,5.06,0,0,1-2.25.49,8.3,8.3,0,0,1-2.89-.54h0l0,0-.88-.27a12.19,12.19,0,0,1-2.77-1.49,16.23,16.23,0,0,1-2-1.67,19.41,19.41,0,0,1-2.48-3.07,3.59,3.59,0,0,1,1.57-.67,4.07,4.07,0,0,1,.85-.07,3.41,3.41,0,0,1,.76.08l.37-1.35a9,9,0,0,1-4-3.14,23,23,0,0,1-2.65-4.53,26,26,0,0,1-1.31-3.43l-.3-1-.56.8-.1.14a13,13,0,0,0-3.21,7,15.31,15.31,0,0,0,0,4.25c0,.14,0,.37.1.67a.28.28,0,0,1,.5,0,2.6,2.6,0,0,1-.11,1.87,20.92,20.92,0,0,0,.69,2.33,22.63,22.63,0,0,0,1,2.33l.7,1.38.5-1.46a2.93,2.93,0,0,1,.72-1.16,2.21,2.21,0,0,1,.54-.36l.2-.07a20.74,20.74,0,0,0,4.85,6.62A28.57,28.57,0,0,0,61,78.84a37.41,37.41,0,0,0,3.83,1.87c.61.26,1.19.46,1.65.68s.83.44,1.09.59a20.42,20.42,0,0,1,2.17,1.59c.86.71,1.77,1.56,2.54,2.34S73.5,87.17,74,87.74c0,.14,0,.26,0,.41l.21-.08c0,.26,0,.54,0,.86l.06,2.24,1.44-1.65c.72-.82,1.8-2,2.82-3a32.75,32.75,0,0,1,2.62-2.37,17.63,17.63,0,0,1,2.25-1.54l.46-.23a4.84,4.84,0,0,1,.6-.29c.47-.2,1-.46,1.55-.74a34.93,34.93,0,0,0,8.44-6.24c.4-.42.82-.83,1.21-1.32l.61-.73c.21-.24.38-.53.59-.8s.4-.57.6-.87l.55-1,.3-.5.24-.55.51-1.15,0-.06h0a2.06,2.06,0,0,1,.35,0,2.71,2.71,0,0,1,1.46.87,4.5,4.5,0,0,1,.28.37l-.24.55.54,0a.42.42,0,0,1,0,.1.47.47,0,0,0,.05-.1l.56,0a5.62,5.62,0,0,0-.29-.61c.22-.48.42-1,.62-1.5a27.3,27.3,0,0,0,.91-2.95A16.7,16.7,0,0,0,103.72,57.58Zm-43.26,15c.14.07.28.15.43.21.4.19.82.31,1.23.47l0,.06-.54-.2a10.24,10.24,0,0,1-1.12-.49Zm-3.52-.87c.28.21.54.43.81.65l-.07,0-.17-.15c-.39-.32-.82-.61-1.23-.92h0a1.71,1.71,0,0,0-.21-.26ZM54.33,67.6a9.39,9.39,0,0,0,.71,1H55a24.83,24.83,0,0,1-1.56-2.37s0-.06.06,0C53.75,66.63,54,67.12,54.33,67.6Zm-.89,1.63c.35.43.64.91,1,1.36h-.06l-.18-.23a16.37,16.37,0,0,0-1-1.36,4.87,4.87,0,0,1-.81-1.2s0-.07,0,0A6.7,6.7,0,0,0,53.44,69.23ZM52.94,67s.05,0,.06,0a1.32,1.32,0,0,0,.21.45l.18.34c.13.25.27.48.42.71l0,.06-.05,0a3.87,3.87,0,0,1-.27-.43c-.15-.24-.27-.48-.4-.73A1.34,1.34,0,0,1,52.94,67Zm-4-13.48,0,0,0-.07c-.18-.46.55-.65.73-.2,1.28,3.16,2.17,6.5,4.95,8.72.21.16.1.46-.07.59a4.91,4.91,0,0,1-.95.52,4.37,4.37,0,0,0,.48.37,10.12,10.12,0,0,0,.93.47s0,.06,0,.06a1.44,1.44,0,0,0-.79.12,2.09,2.09,0,0,1-.54.21s-.06,0,0-.06a3.16,3.16,0,0,0,.66-.27,1.24,1.24,0,0,1,.54-.07,6.5,6.5,0,0,1-.94-.5L53.54,63l-.4.16a.36.36,0,0,1-.34-.08.37.37,0,0,1-.64,0q-.15-.24-.27-.48a.18.18,0,0,1,0-.07C50.06,60.07,48.11,56.63,48.94,53.47Zm3,9.82a12.61,12.61,0,0,1-1.79-2.06s0-.09,0-.14A11.49,11.49,0,0,0,52,63.24S51.94,63.32,51.91,63.29ZM48.53,57a7,7,0,0,0,.86,3V60l-.25-.41A7,7,0,0,1,48.46,57S48.52,56.92,48.53,57Zm-2.05,3.9c0,.21.05.41.08.62a.59.59,0,0,0,0,.08,7.75,7.75,0,0,1-.13-1.18,8.21,8.21,0,0,1,.15-1.64.41.41,0,0,1,.05.09A7.65,7.65,0,0,0,46.48,60.86Zm.61,3.9a1.59,1.59,0,0,0-.13-.61,2.09,2.09,0,0,1-.08-.5,7.83,7.83,0,0,0-.17-1.08.2.2,0,0,0,0-.09c0,.15.07.3.09.46.06.32.07.65.12,1a3.15,3.15,0,0,1,.18.85S47.08,64.8,47.09,64.76Zm0-8c-.12.42-.24.85-.34,1.27l0-.07c.14-.58.31-1.15.48-1.72a4,4,0,0,1,.71-1.61,0,0,0,1,1,0,0,2.9,2.9,0,0,0-.5,1C47.32,56.06,47.21,56.42,47.1,56.78Zm8.39,17.59a13.91,13.91,0,0,1-1.24-1.29l-.63-.72a9.81,9.81,0,0,1-.6-.8c-.2-.28-.42-.56-.62-.87l-.57-1-.3-.51-.25-.55-.49-1.11-.26,0a2.71,2.71,0,0,0-1.38.81,4,4,0,0,0-.67,1.14l-.06.14-.06-.13a16.24,16.24,0,0,1-.81-2.18,16.63,16.63,0,0,0,.87,2.15,2.77,2.77,0,0,1,2.42-2,19.82,19.82,0,0,0,5.08,7.29C55.78,74.63,55.63,74.51,55.49,74.37Zm2.38-.49c-.45-.38-.93-.72-1.37-1.1s-.66-.56-1-.85l.21.1a15.3,15.3,0,0,0,1.24,1l.31.25c.22.22.45.42.69.63ZM62,76.22c-.47-.2-.93-.43-1.4-.63a9.31,9.31,0,0,1-1.31-.73s0,0,0,0l.35.21a13,13,0,0,0,1.45.72c.31.15.62.28.94.42A.18.18,0,0,0,62,76.22Zm.07-1.38c-.27-.1-.54-.2-.8-.32-.94-.4-1.79-.93-2.68-1.41a3.11,3.11,0,0,1-.38-.25h.08c.32.21.66.37,1,.57A15.92,15.92,0,0,0,62,74.73l.25.08Zm1-1.17.46.14c.2.06.41.11.61.15a.79.79,0,0,1,.37.14s0,.07,0,0a1.91,1.91,0,0,0-.68-.19l-.56-.17Zm2.76,4c-.15-.07-.31-.11-.46-.18s-.28-.13-.42-.2A8.34,8.34,0,0,0,64,77l-.41-.14-.3-.18h0l1.09.38a5.74,5.74,0,0,1,.72.3c.24.12.5.2.74.31C65.94,77.66,65.9,77.72,65.87,77.7Zm3.63,2.6c-.39-.25-.73-.57-1.1-.84a9,9,0,0,0-1.16-.68s0-.07,0-.06a9,9,0,0,1,1.16.68c.33.24.64.52,1,.75-.43-.63-.81-1.29-1.21-1.93a5.13,5.13,0,0,1-.88-1.86s.06-.06.06,0a5.37,5.37,0,0,0,.92,1.91c.41.67.8,1.35,1.25,2A0,0,0,0,1,69.5,80.3ZM69.59,78c-1.49-1.32-3-2.65-4.53-3.91-.29-.23,0-.73.35-.63h.07a6.77,6.77,0,0,0,3.72-1.2.38.38,0,0,1,.57.33c.14,1.68.17,3.38.45,5.05A.38.38,0,0,1,69.59,78Zm.7-4.72v.15c0-.06,0-.12,0-.18a6.94,6.94,0,0,0,0-1.29c0-.11,0-.15-.09-.1a1.37,1.37,0,0,0-.23.19l0,0h-.11a3.76,3.76,0,0,1,.46-.32,0,0,0,0,1,0,0A5.52,5.52,0,0,1,70.29,73.3Zm.23,5.45a3.2,3.2,0,0,0-.1-.67c0-.18,0-.36,0-.54s0-.27,0-.4a.23.23,0,0,0,.07-.07c0,.27,0,.55,0,.82a5,5,0,0,1,.13.86S70.52,78.79,70.52,78.75ZM70.84,58a.23.23,0,0,1-.07-.07c0-.24,0-.49,0-.73,0-.49,0-1,0-1.46l0,.11c0,.56,0,1.12,0,1.69Zm7.73-28.86a.15.15,0,0,0,0-.07h0Zm0-.14h0a1.14,1.14,0,0,1,.06-.53c-.09-.16-.08-.26,0-.32a.73.73,0,0,0,0,.29A1.69,1.69,0,0,0,78.57,29Zm.25,1.18c0-.13-.07-.26-.11-.39a.67.67,0,0,0,.38.36Zm2.91-2.3-.06,0,.13,0Zm1.44,1.93-.18,0v-.06h.34Zm.27-2.14-.07,0-.84,0,1.07-.17Zm2.42-.48,0,0h.09ZM88.51,27h0l-.08,0h.1Zm1.51.28a.64.64,0,0,0-.22-.41l.21,0A.74.74,0,0,1,90,27.27Zm.22.66c0,.33,0,.63,0,.85h-.12a1,1,0,0,0,.08-.62l-.06-.25.13-.18Zm-9.6-9.1-.38.38a7.69,7.69,0,0,1-1.68,1.26c-.33.17-.67.33-1,.51a4,4,0,0,1-.67.3v-.07a5.22,5.22,0,0,0,.83-.39c.34-.19.7-.34,1-.53a8.06,8.06,0,0,0,1.78-1.46l.11-.13Zm-4,1.54a0,0,0,0,1,0,0v-.05s0-.06.06,0,.35-.11.4-.12.34-.1.5-.18.57-.33.87-.48a5.18,5.18,0,0,0,1.22-.81l.16-.08-.1.11a5.75,5.75,0,0,1-.68.54c-.28.17-.59.31-.89.46a4.94,4.94,0,0,1-.79.41,2.82,2.82,0,0,0-.48.19A.6.6,0,0,1,76.65,20.37Zm.19.86v.07h-.06s-.06,0,0-.06Zm0-2.25.31-.14a1.39,1.39,0,0,0,.38-.25,2.77,2.77,0,0,1,.54-.28,2.32,2.32,0,0,0,.5-.43l.19-.18a.28.28,0,0,0,0,.13l-.24.22a1.45,1.45,0,0,1-.44.34l-.32.13a2.48,2.48,0,0,0-.3.25,2.37,2.37,0,0,1-.56.26S76.83,19,76.87,19ZM75.58,7.29c-.27,0-.16-.46.11-.41l.43.11a2.84,2.84,0,0,1,.88.22c.32.13.62.27.93.41l.24.1-.13,0-.21-.1-.91-.39a3,3,0,0,0-.48-.15,9.69,9.69,0,0,1,3.66,3c.17.21-.13.52-.31.31C78.64,9.09,77.39,7.65,75.58,7.29Zm2.86,1.82h0a4.87,4.87,0,0,0-.76-.55c-.19-.1-.36-.23-.55-.33s-.59-.31-.66-.22-.07,0,0,0l0,0,0,0a4.53,4.53,0,0,1,1.38.67l.51.38Zm1.72,3.09c0,.24.1.48.15.72l-.08,0c0-.12,0-.24-.08-.37s-.07-.43-.12-.65-.08-.35-.13-.52l.09,0C80.06,11.69,80.11,11.94,80.16,12.2Zm-.5,3.91a10.45,10.45,0,0,0,.43-1.34,5.89,5.89,0,0,0,.17-1.19l.07,0v.05a6.47,6.47,0,0,1-.25,1.46c-.13.5-.32,1-.48,1.45a4.46,4.46,0,0,1-.28.63l0-.06A6.88,6.88,0,0,0,79.66,16.11Zm.94,1.13a6.28,6.28,0,0,0-.27.59l-.09,0,.15-.36a7.78,7.78,0,0,1,.42-.74A6.15,6.15,0,0,0,81.4,15a6.55,6.55,0,0,0,0-1c0-.26,0-.51,0-.77h.07c0,.14,0,.28,0,.41a8.58,8.58,0,0,1-.12,1.83,6.43,6.43,0,0,1-.35.92A6.92,6.92,0,0,1,80.6,17.24Zm.28-6.08.05-.07v0c.07.14.13.28.21.42a2.06,2.06,0,0,1,.12.35,1.74,1.74,0,0,1,.14.38c0,.15,0,.29.06.44H81.4A3.17,3.17,0,0,0,81,11.47,3,3,0,0,1,80.88,11.16Zm1.52.37a7.63,7.63,0,0,1-.19,4.08.06.06,0,0,1,0,0,4.52,4.52,0,0,1-.16.73l-.1.11a.43.43,0,0,0,0,0c-.09.28-.2.55-.3.83s-.51.14-.41-.12A9,9,0,0,0,82,11.64.21.21,0,0,1,82.4,11.53ZM74.65,5.25c3.25,0,5.85,2.26,7.46,4.91.26.42-.4.79-.65.38a9.28,9.28,0,0,0-5.14-4.3,2.44,2.44,0,0,0-.59-.07,0,0,0,0,1,0-.06s0,0,0,0a5.7,5.7,0,0,0-1.1-.1A.38.38,0,0,1,74.65,5.25Zm-4.39,15,.28.16h-.19l-.25-.15Zm-.25,0,.22.15H66.9Zm-9.07,2.07c3-.1,5.65-1.49,8.67-1.1.47.06.48.82,0,.76-3-.38-5.64,1-8.55,1.09l-.14.05,0,0-.06,0,.07,0A.38.38,0,0,1,60.94,22.37Zm4,.66H64.7a7.14,7.14,0,0,0-1.28.28s0,0,0-.06l.16,0A6.56,6.56,0,0,1,64.7,23h.23Zm-2.51,5.7a3.51,3.51,0,0,0-1-.29c-.31,0-.61.1-.92.1a0,0,0,1,1,0-.06,8.16,8.16,0,0,1,1.1-.09,1.15,1.15,0,0,1,.37.12,4.59,4.59,0,0,0,.48.17l0,.07Zm-.7-4.38c-.27,0-.39-.37-.12-.41,3-.47,6-1.19,9.06-1.13.27,0,.27.43,0,.42A52.79,52.79,0,0,0,61.73,24.35Zm4-.24v-.06c.28,0,.56,0,.85,0l.7,0a.21.21,0,0,1,0,.06A10.73,10.73,0,0,0,65.77,24.11Zm2.31,5.67-.8-.1-.74-.12v-.07l1.55.23S68.08,29.76,68.08,29.78Zm2.25-1-.71-.09v-.06l.87.1.5.08v.06Zm.84,35.9a18.53,18.53,0,0,0-.15-2.1l.07,0a20.78,20.78,0,0,1,.15,2.08S71.17,64.72,71.17,64.68Zm.17,6a9.49,9.49,0,0,1,0-1.07,6.21,6.21,0,0,1,.21-.85s.07,0,.07,0-.13.33-.17.51a1.78,1.78,0,0,0,0,.61c0,.43,0,.85.06,1.28.12,1.59.33,3.17.36,4.76v.55l-.07-.07c0-1.1-.06-2.2-.17-3.3C71.47,72.27,71.38,71.45,71.34,70.64Zm.43,10.1a0,0,0,0,1-.06,0c0-.92,0-1.85,0-2.77v-.44l.06.06C71.79,78.64,71.77,79.69,71.77,80.74Zm.31-15.15c0-.92,0-1.83,0-2.75l.06,0c0,.91,0,1.82,0,2.73A0,0,0,0,1,72.08,65.59Zm.33-17c-.1,6.09-.48,12.15-.4,18.25a.38.38,0,0,1-.75,0c-.09-6.1.29-12.16.39-18.25,0-3,0-6.08.14-9.12.06-1.5.15-3,.24-4.49a29,29,0,0,1,.29-3.69.36.36,0,0,1-.21-.43l0-.2a.39.39,0,0,1,.47-.26h0a.39.39,0,0,1,.28.37C72.89,36.7,72.5,42.64,72.41,48.58Zm-.28-18.77c0-.14,0-.27,0-.4l.06.09a2.27,2.27,0,0,1-.13,1.27s-.07,0,0,0A1.64,1.64,0,0,0,72.13,29.81Zm.23-8.35c0-.17,0-.35,0-.53s.07,0,.07,0v.55Zm.07.09c0,.32,0,.63,0,.95h-.07c0-.32,0-.65,0-1ZM73,26.77h-.07a2.16,2.16,0,0,0,0-.36,6.55,6.55,0,0,1,0-1A3.12,3.12,0,0,1,73,25l.06,0a3.19,3.19,0,0,0-.1.68c0,.34,0,.67,0,1Zm.19-4.17v-.36c0-.33-.16-.63-.13-1a0,0,0,0,1,.06,0,2.17,2.17,0,0,0,.1.62,1.89,1.89,0,0,1,0,.53v.16Zm0,32.13.06.7c0,1.56,0,3.13,0,4.69a.19.19,0,0,0-.06-.07h0c0-1.15,0-2.3,0-3.44C73.19,56,73.2,55.35,73.2,54.73Zm-.14-22.34c0-.65,0-1.3,0-1.95a.22.22,0,0,0,.07-.09v2A0,0,0,0,1,73.06,32.39Zm.12,29.4.07,0v4.38h-.06V66C73.19,64.59,73.18,63.19,73.18,61.79Zm.07,6.49v3a0,0,0,0,1-.06,0V68.26Zm.08,8.5,0-.08c-.07-1.24-.11-2.48-.11-3.72a0,0,0,1,1,.06,0c0,.13,0,.27,0,.41s0,0,0,0,0,.21,0,.31c0,.65,0,1.3,0,2,0,.22,0,.44,0,.66S73.34,76.63,73.33,76.78Zm.6,8.4c0-.91-.05-1.82-.13-2.72-.13-1.52-.33-3-.44-4.54l.07,0c.06.84.14,1.68.23,2.52A40,40,0,0,1,74,85.18,0,0,0,0,1,73.93,85.18Zm-.28-11.72c0-7.64-.26-15.28-.27-22.92v0a.32.32,0,0,0,0,.17l-.06,1.57-.06,0c0-.14,0-.28,0-.42,0-.78.06-1.55.1-2.32s0-1.54,0-2.31l0,0c0-3.92.16-7.83.44-11.75,0-.27.44-.27.42,0-.88,12.63-.18,25.3-.18,37.94A.21.21,0,0,1,73.65,73.46Zm0-42.91c0,.16,0,.32,0,.48,0,.42.1.83.11,1.25s0,.81,0,1.22a.76.76,0,0,1-.14.67s-.07,0,0,0,.13-.39.12-.58,0-.36,0-.54c0-.48,0-.95-.06-1.43a9.45,9.45,0,0,1-.07-1.07ZM73.64,28v-.33c0-.33.08-.66.11-1l0,0a1.51,1.51,0,0,1,0,.3c0,.36-.06.72-.07,1.09A.12.12,0,0,0,73.64,28ZM74,21.4a0,0,0,1,1,.06,0V23h0C74,22.47,74,21.93,74,21.4Zm.3,15.44s-.07,0-.07,0a4.41,4.41,0,0,1,.08-.73,4.14,4.14,0,0,0,0-.86c0-.56,0-1.12,0-1.68s0-1,0-1.51c0-.23,0-.46-.06-.69l.07.05c0,.34.07.67.07,1,0,.51,0,1,0,1.52s0,1,0,1.5S74.29,36.37,74.29,36.84Zm.14-8.58-.06,0v-.43c0-.39,0-.77,0-1.16l.05,0c0,.5,0,1,0,1.49Zm.16-4a.1.1,0,0,1,0-.05l0-.23s0,.08,0,.12A.92.92,0,0,0,74.59,24.29Zm0-.47v-.07l0-.31Zm.11-1.57c0,.37,0,.77-.08,1.17,0-.48,0-1,0-1.44,0,0,0,0,.06,0ZM70.57,13a4.34,4.34,0,1,1,4.34,4.34A4.34,4.34,0,0,1,70.57,13Zm5.57,8.58h0c-.27.07-.54.14-.82.23v-.15A7.34,7.34,0,0,0,76.14,21.54ZM75,49.81c0-.78,0-1.52-.05-2.24C75,48.12,75,48.81,75,49.81Zm-.08,21.32c0,.14,0,.3,0,.48l0-1c0-1.57.07-3.08.1-4.12C75,68.45,75,70,74.93,71.13Zm25.31-3.25h0l.08,0,0,.09Zm1,.61a.36.36,0,0,1,0-.11l0,0v.12a.08.08,0,0,0,0,0Zm.34.35-.1-.11h.14A.49.49,0,0,0,101.53,68.84Zm.15-.92,0,0,0-.11A1,1,0,0,0,101.68,67.92Zm.27-7.24a12,12,0,0,1-.85,3.62A25.49,25.49,0,0,1,100,67.55a.23.23,0,0,0,0,.24l-.23-.07a2.11,2.11,0,0,0-.55-.07h-.41l-.15.39A19.89,19.89,0,0,1,94.12,75a31.08,31.08,0,0,1-5.3,4.3,33.29,33.29,0,0,1-3.68,2.08c-.59.29-1.16.51-1.62.75s-.82.47-1.08.62c-.51.31-1.34.84-2.25,1.5s-1.89,1.43-2.74,2.14S76.11,87.49,75.54,88a45.21,45.21,0,0,0-.1-5.16c0-.05,0-.11,0-.17.13-1.51.33-3,.44-4.53l-.07,0c-.06.84-.14,1.68-.23,2.52-.06.62-.13,1.25-.19,1.87-.08-.78-.18-2.4-.24-3.74l-.11-2.57.1-4.84c.06-2.67.13-5.14.16-5.49s.07-2.38.1-4.51c.06-3.61,0-4.14-.09-8.05-.19-5.2-.2-8.34,0-13.34.09-2.37.12-3.68.13-5.82a.41.41,0,0,0,.13.25s.07,0,0-.05-.13-.38-.12-.57,0-.36,0-.54a13.69,13.69,0,0,1,.07-1.43c0-.35.05-.71.06-1.07l-.07,0c0,.16,0,.32,0,.48,0,.42-.1.83-.11,1.25v.74c0-.69,0-1.48,0-2.42,0-3.93,0-5.59.06-6.68,0-.55.05-1.1.06-1.62l.46-.17c0,.1,0,.2,0,.3v.15l.06,0v-.36s0-.09,0-.14l.75-.29c0,.23,0,.46,0,.69h.07c0-.24,0-.48,0-.72a10.2,10.2,0,0,0,.93-.42c.51.09,2.81.2,6.26.28h.09c.45.18.8.29,1.16.4l.47.14a27.06,27.06,0,0,0-4.59,0,.1.1,0,0,0,0,.19c1.32.1,2.7.21,4,.45a6,6,0,0,0-.85,0,21.37,21.37,0,0,1-3.2,0s0,.06,0,.07a16.36,16.36,0,0,0,2.62.1c.32,0,.62,0,.93,0a9.77,9.77,0,0,1,1.07.25s0,0,0-.06l-.16,0-.44-.12a14.4,14.4,0,0,1,2,.29s.06,0,.07,0l.51.16a7.83,7.83,0,0,0-2.56.11c-.1,0-.06.17,0,.15a8,8,0,0,1,3.61.25s0,0,.06,0a8.52,8.52,0,0,1,.84.46.7.7,0,0,0,.44.12v.2a13.57,13.57,0,0,0-3.37-.32c-1.32.1-2.62.33-3.94.41a0,0,0,1,0,0,0,32.9,32.9,0,0,0,3.44-.2,12.93,12.93,0,0,1,3.87.38c0,.34,0,.7,0,1.07h0c0-.1,0-.23-.16-.25a21.3,21.3,0,0,0-5.35-.27c-2,.25-4.08.34-6.13.4a.06.06,0,0,0,0,.12,37.28,37.28,0,0,0,5.49-.1,20.51,20.51,0,0,1,5.2.14c-.35,0-.71.08-1.06.08a12.23,12.23,0,0,0-2.18.14L84.29,27l-1.8.06s0,.05,0,.05h1.19c-.89.16-1.77.3-2.66.38l-1.11.08a.84.84,0,0,0-.9,0,1.07,1.07,0,0,0-.16.14h0c-.18,0-.54.1-.66.29s0,.55,0,.83a1.87,1.87,0,0,0,0,.25v0h0c0,.37.11.74.18,1.1h0l-.44,0,0,.39c0,.62-.12,1.14-.14,1.62s0,.92-.08,1.42c-.05,1-.13,2.19-.21,4.23-.12,2.52-.16,5.32-.15,6.22s.1,4.84.25,8.76c.19,4.61.3,6.76.53,10h0A18,18,0,0,0,78,64.93s.06,0,.06,0a15.37,15.37,0,0,1,.12-1.79c.07,1.06.17,2.24.28,3.65,0,.51.08,1,.1,1.12V68a8.51,8.51,0,0,0,1.32,3.09,5.44,5.44,0,0,0,2.13,1.8,6.36,6.36,0,0,0,2.7.54A9.58,9.58,0,0,0,88,72.81l1-.29a13.14,13.14,0,0,0,3-1.61A17.8,17.8,0,0,0,94,69.17a23.3,23.3,0,0,0,3.07-3.6l.26-.39L97,64.85c-.13-.12-.26-.26-.41-.39a4.63,4.63,0,0,0-1.38-.82,1,1,0,0,0,.13-.09,8.55,8.55,0,0,0,.9-.81A14.59,14.59,0,0,0,97.8,61a9.4,9.4,0,0,0,1.09-1.93l.24-.6-.09.06c-.08.2-.15.39-.24.57a8.58,8.58,0,0,1-1.12,2,17.13,17.13,0,0,1-1.58,1.72,6.29,6.29,0,0,1-.92.79h0L95,63.54l.45-.33a12.73,12.73,0,0,0,2-2.11,18.57,18.57,0,0,0,1.94-3.29h0a1.21,1.21,0,0,0,0-.18c.22-.48.43-1,.62-1.46a27.27,27.27,0,0,0,.86-2.6,10.33,10.33,0,0,1,.55,1,1.69,1.69,0,0,1,.08.24.15.15,0,0,0-.1.12l-.06-.07a0,0,0,1,0,0,0,.71.71,0,0,1,.1.14h0l.15.47c0,.25,0,.53,0,.74.06.55.17,1.09.24,1.64a18.6,18.6,0,0,1,.12,2Zm.08,6.68h0l0,0,.14-.22h0C102.08,67.19,102.05,67.28,102,67.36Zm.79-4.33h-.08l.09-1.23v-.1c0-.12,0-.23,0-.34C102.87,62,102.85,62.53,102.82,63Z"/><path class="cls-1" d="M87.71,73.42a10.24,10.24,0,0,0,1.12-.49l0-.05c-.14.07-.28.15-.43.21-.4.18-.82.31-1.23.46l0,.07Z"/><path class="cls-1" d="M95.73,68.37c.15-.24.27-.49.4-.73a1.16,1.16,0,0,0,.19-.44s0,0-.06,0a1.32,1.32,0,0,1-.21.45l-.18.34c-.13.25-.27.48-.42.71l0,.06.06,0Z"/><path class="cls-1" d="M91.51,72.66l.07,0,.17-.15c.39-.32.82-.61,1.23-.92h0a1.71,1.71,0,0,1,.21-.26l-.88.67C92,72.22,91.78,72.44,91.51,72.66Z"/><path class="cls-1" d="M87.28,75l-.25.08.14,0,.8-.32c.94-.4,1.79-.93,2.68-1.41a3.11,3.11,0,0,0,.38-.25H91c-.32.21-.66.37-1,.57A15.92,15.92,0,0,1,87.28,75Z"/><path class="cls-1" d="M96.85,68a6.22,6.22,0,0,1-1,1.46c-.35.43-.64.91-1,1.36h.06l.18-.23a16.37,16.37,0,0,1,1-1.36,4.87,4.87,0,0,0,.81-1.2S96.86,68,96.85,68Z"/><path class="cls-1" d="M84.1,77.58c-.24.12-.5.2-.74.31,0,0,0,.08,0,.06s.31-.11.46-.18.28-.13.42-.2a10,10,0,0,1,1-.36l.4-.13.3-.18h0l-1.09.38A5.74,5.74,0,0,0,84.1,77.58Z"/><path class="cls-1" d="M83.49,24.36V24.3c-.28,0-.56,0-.85,0s-.47,0-.7,0a.21.21,0,0,0,0,.06A10.73,10.73,0,0,1,83.49,24.36Z"/><path class="cls-1" d="M75.52,26.9l-.06,0a1.51,1.51,0,0,0,0,.3c0,.36.06.72.07,1.08l.07,0v-.33C75.6,27.56,75.54,27.23,75.52,26.9Z"/><path class="cls-1" d="M76.26,26.93V27h.07c0-.12,0-.24,0-.36a6.55,6.55,0,0,0,0-1,3.12,3.12,0,0,0-.09-.44l-.06,0a3.1,3.1,0,0,1,.1.68C76.3,26.27,76.26,26.6,76.26,26.93Z"/><path class="cls-1" d="M76.21,32.64V30.69a.22.22,0,0,1-.07-.09v2S76.21,32.68,76.21,32.64Z"/><path class="cls-1" d="M77.25,31a1.66,1.66,0,0,1-.12-.94c0-.13,0-.26,0-.39l-.06.09A2.27,2.27,0,0,0,77.2,31S77.27,31,77.25,31Z"/><path class="cls-1" d="M76,62.12v4.32h.06v-.18c0-1.41,0-2.81,0-4.21l-.07,0Z"/><path class="cls-1" d="M76,71.56s.06,0,.06,0v-3l-.06,0Z"/><path class="cls-1" d="M76,60.37s0,0,.06-.07h0c0-1.15,0-2.3,0-3.44,0-.63,0-1.25,0-1.87l-.06.7C76,57.24,76,58.81,76,60.37Z"/><path class="cls-1" d="M76,52.59c0-.14,0-.28,0-.42,0-.78-.06-1.55-.1-2.32s0-1.54,0-2.31c0,0-.07,0-.07,0,0,.87,0,1.73,0,2.6,0,.23,0,.46,0,.69a.32.32,0,0,1,0,.17L76,52.57Z"/><path class="cls-1" d="M77.37,44.4s-.07,0-.07,0v1.87l.06-.71C77.36,45.18,77.37,44.79,77.37,44.4Z"/><path class="cls-1" d="M77.34,51.61l0,.48c0,.48,0,1,0,1.45l0,0v-.72c0-.4,0-.8,0-1.19Z"/><path class="cls-1" d="M77.12,65.84a0,0,0,0,0,.06,0c0-.92,0-1.83,0-2.75l-.06,0C77.14,64,77.12,64.93,77.12,65.84Z"/><path class="cls-1" d="M75.52,37.38a0,0,0,1,0-.06,0c0,.82,0,1.64.06,2.46l.07,0C75.55,39,75.52,38.19,75.52,37.38Z"/><path class="cls-1" d="M75.63,41.07h0c0,1,.08,2,.06,3a0,0,0,1,0,.06,0c0-1,0-2,0-3Z"/><path class="cls-1" d="M76,73.23v.45c0,.1,0,.21,0,.31,0,.65,0,1.3,0,2,0,.22,0,.44,0,.66s0,.28,0,.43L76,77c.07-1.24.11-2.48.11-3.72A0,0,0,1,0,76,73.23Z"/><path class="cls-1" d="M77.71,73.33c.08-.81.17-1.63.21-2.44a9.49,9.49,0,0,0,0-1.07,6.21,6.21,0,0,0-.21-.85s-.07,0-.07,0,.13.33.17.5a1.86,1.86,0,0,1,0,.62c0,.43,0,.85-.06,1.28-.12,1.59-.33,3.16-.36,4.76v.55l.07-.07C77.55,75.53,77.6,74.43,77.71,73.33Z"/><path class="cls-1" d="M77.55,81c0-.93,0-1.85,0-2.78v-.43l-.06.06c0,1,0,2.1,0,3.15A0,0,0,1,0,77.55,81Z"/><path class="cls-1" d="M79,73.7a1.16,1.16,0,0,0,0-.18,6.94,6.94,0,0,1,0-1.29c0-.11,0-.15.09-.1a2,2,0,0,1,.23.18l0,0h.11A4.6,4.6,0,0,0,79,72S79,72,79,72a5.94,5.94,0,0,0,0,1.52Z"/><path class="cls-1" d="M78.74,79a3.1,3.1,0,0,1,.1-.67c0-.18,0-.36,0-.54s0-.27,0-.4a.23.23,0,0,1-.07-.07c0,.27,0,.54,0,.82a5,5,0,0,0-.13.86S78.74,79,78.74,79Z"/><path class="cls-1" d="M81.94,76.61s-.06-.06-.06,0A5.37,5.37,0,0,1,81,78.5c-.41.67-.8,1.35-1.25,2a0,0,0,0,0,.05,0c.39-.24.73-.56,1.1-.83A9,9,0,0,1,82,79,0,0,0,1,0,82,79a9,9,0,0,0-1.16.68c-.33.24-.64.52-1,.75.42-.63.8-1.29,1.2-1.94A5,5,0,0,0,81.94,76.61Z"/><path class="cls-1" d="M100.8,57.21s-.06,0-.07,0a7,7,0,0,1-.86,3v.06c.08-.14.17-.28.26-.41A7.19,7.19,0,0,0,100.8,57.21Z"/><path class="cls-1" d="M99.16,61.34a12.28,12.28,0,0,1-1.86,2.15s0,.08,0,0a12.61,12.61,0,0,0,1.79-2.06A.68.68,0,0,1,99.16,61.34Z"/><path class="cls-1" d="M76.91,66.15h0c.08-2.47-.12-4.86-.17-7.32,0-2.22.23-4.28,0-6.51-.48-4.92-.07-10,.13-14.92,0-.46-.69-.46-.72,0-.33,4.88.23,9.76.17,14.64C76.3,56.73,76.77,61.45,76.91,66.15Z"/><path class="cls-1" d="M93.74,72.18l-.1,0h0a11.27,11.27,0,0,0-3,2.25c-.23.2-.48.4-.72.59h0l-.35.21a13,13,0,0,1-1.45.72l-.94.42a.18.18,0,0,1,.07,0c.47-.2.93-.43,1.4-.63a8.71,8.71,0,0,0,.91-.48,31.07,31.07,0,0,1-4.27,2.55C82.17,79.5,79.1,81.29,76.85,84c0-2.31,0-4.65-.09-7a.1.1,0,0,0-.19,0c0,2.39.05,4.74.15,7.12-.19.23-.37.47-.55.72s.23.58.44.34a28.61,28.61,0,0,1,4.09-4.07,39,39,0,0,1,5.4-3.09,25.57,25.57,0,0,0,4.37-2.8c1.08-.88,2.08-2,3.23-2.79a.14.14,0,0,0,0-.24Z"/><path class="cls-1" d="M83.93,22.27c.14,0,.14-.21,0-.21-1.61-.06-3.27,0-4.87-.17,0,0,0,.06,0,.07C80.66,22.15,82.32,22.18,83.93,22.27Z"/><path class="cls-1" d="M80.8,24.21q-.61,0-1.23-.12c-.15,0-.21.21-.06.23.43.06.86.11,1.29.13C81,24.46,81,24.21,80.8,24.21Z"/><path class="cls-1" d="M81,25.16a5.87,5.87,0,0,0-.84,0c-.17,0-.17.29,0,.28a5.89,5.89,0,0,1,.84,0C81.2,25.42,81.2,25.18,81,25.16Z"/><path class="cls-1" d="M74.53,3.53c-.13.19.16.41.32.24a1.85,1.85,0,0,0,.38-1.37A8.12,8.12,0,0,0,75.05.25c-.1-.38-.73-.31-.7.09,0,.59.19,1.17.25,1.76S74.81,3.13,74.53,3.53Z"/><path class="cls-1" d="M84,7.14c.67-1,2.31-1.56,3.33-2.11s1.95-.7,2.83-1.21c.5-.29,0-1.1-.45-.76a12.23,12.23,0,0,1-1.68.78c-.72.37-1.38.83-2.06,1.27s-2.21,1.1-2.1,2A.07.07,0,0,0,84,7.14Z"/><path class="cls-1" d="M85.29,17.59c-.2-.17-.49.11-.29.29a7.73,7.73,0,0,0,2.17,1.22,14,14,0,0,1,3.12,1.8.37.37,0,1,0,.45-.59,13,13,0,0,0-2.85-1.47A9.61,9.61,0,0,1,85.29,17.59Z"/><path class="cls-1" d="M61.69,8.47c.83.19,2,.95,2.81.68a.11.11,0,0,0,0-.22c-.82-.28-1.56-.73-2.38-1a5.15,5.15,0,0,1-2.41-1.09c-.34-.35-.87.18-.54.54A4.54,4.54,0,0,0,61.69,8.47Z"/><path class="cls-1" d="M64.28,17a6.3,6.3,0,0,1-1.29.86,7.07,7.07,0,0,1-1.45.4c-.06,0-.09.13,0,.16.94.41,2.46-.42,3.13-1.05C64.91,17.11,64.54,16.75,64.28,17Z"/><path class="cls-1" d="M67.48,5.25a.27.27,0,1,0,.08-.54c-.56,0-1-.64-1.44-.88-.25-.12-.46.23-.22.37C66.46,4.53,66.81,5.14,67.48,5.25Z"/><path class="cls-1" d="M81.16,3.82c0-.29-.48-.37-.53-.07a1.65,1.65,0,0,1-.74,1,.07.07,0,0,0,0,.13C80.42,5.05,81.15,4.32,81.16,3.82Z"/><path class="cls-1" d="M85,12.34a.18.18,0,0,0,0,.35,58.42,58.42,0,0,0,8.12.7.29.29,0,0,0,0-.58C90.38,12.69,87.64,12.21,85,12.34Z"/><path class="cls-1" d="M63.5,13.35a.26.26,0,0,0,0-.51l-1.16,0a.22.22,0,0,0,0,.43C62.73,13.33,63.11,13.35,63.5,13.35Z"/><path class="cls-2" d="M119.92,57.67h0a1.88,1.88,0,0,1,1.32,0l.16.08a5.81,5.81,0,0,1,3.33,1.07h0a.49.49,0,0,0,.15-.27,1.12,1.12,0,0,1,.3-.44c.08-.07.14-.16.22-.23l.28-.26c.19-.2.36-.33.36-.62a2.78,2.78,0,0,0-.07-.91,1.46,1.46,0,0,0-.76-.82,2.82,2.82,0,0,0-.49-.25c-.12,0-.25,0-.37-.09a2.47,2.47,0,0,0-.46-.15c-.5-.08-1-.11-1.51-.23s-.71-.15-1.06-.23a4.66,4.66,0,0,0-.82-.13c-.32,0-.64,0-1-.07s-.89-.11-1.34-.14a10.52,10.52,0,0,1-1.11-.14,8.15,8.15,0,0,0-.83-.17,4.21,4.21,0,0,1-.86-.16c-.28-.06-.54-.15-.82-.21a3.77,3.77,0,0,0-.82-.05c-.16,0-.6,0-.55.21,0,.09.07.18.09.27a.75.75,0,0,1,0,.3,6.29,6.29,0,0,0,.18,1.07c0,.17.07.34.12.51s.07.21.09.32a1.31,1.31,0,0,0,0,.28h0l0,0v0c0-.06.16-.14.21-.15s.19,0,.29,0,.41,0,.62,0a4.81,4.81,0,0,1,.73.17,4,4,0,0,1,.47.21,3.28,3.28,0,0,0,.61.18c.54.15,1.11.23,1.65.4.3.1.6.23.89.35Z"/><path class="cls-2" d="M23.16,56.86c.05-.25.39-.26.58-.3a4.64,4.64,0,0,0,.64-.17,2,2,0,0,0,.51-.31,2,2,0,0,1,.56-.33,3.93,3.93,0,0,0,.43-.18,2.58,2.58,0,0,1,.54-.23c.27-.09.56-.14.84-.23a6.39,6.39,0,0,1,.78-.22,1.76,1.76,0,0,0,.31,0l.26-.08a3.29,3.29,0,0,1,.43-.09,5.83,5.83,0,0,0,.93-.16l.49-.14a5.64,5.64,0,0,1,.64-.25c.9-.21,1.75-.59,2.67-.71a7.11,7.11,0,0,1,.92-.06c.32,0,.56,0,.76.25a3,3,0,0,1,.18.41.89.89,0,0,0,.09.26.93.93,0,0,1,.13.15c0,.06,0,.15.09.22a1.82,1.82,0,0,0,.16.31,2.63,2.63,0,0,1,.29.61,2.06,2.06,0,0,1,.18.72c0,.21,0,.43,0,.63s-.27.33-.49.22a2,2,0,0,1-.23-.18c-.08-.06-.17-.09-.26-.15a.8.8,0,0,0-.25-.11c-.19-.05-.3-.15-.51-.14a3.3,3.3,0,0,0-1.42.27c-.18.08-.38.13-.56.22a5,5,0,0,1-.81.38c-.23.08-.46.18-.68.27s-.45.23-.69.33l-.38.13c-.1,0-.19.09-.28.11a1.85,1.85,0,0,1-.23,0c-.12,0-.23,0-.35.07l-.58.16-.42.11a1.61,1.61,0,0,1-.29.09.86.86,0,0,0-.36.07l-.26.07c-.22.06-.44.09-.66.14a3.62,3.62,0,0,1-.8.08,2.91,2.91,0,0,1-.78-.07,1,1,0,0,1-.37-.12l-.26-.15a1.92,1.92,0,0,1-.73-.47,2.94,2.94,0,0,1-.3-.42,2.83,2.83,0,0,0-.17-.4,2.88,2.88,0,0,0-.3-.61"/><path class="cls-3" d="M68,31.64s12.93.18,15,.14L84,49.5s-14.3-.11-15-.25Z"/><path class="cls-3" d="M146.84,53.86a7,7,0,0,1-2-.65,7.21,7.21,0,0,0-1.37-.41,1,1,0,0,1-.41-.17,5.09,5.09,0,0,0-.54-.22,8.44,8.44,0,0,1-1-.54,8.89,8.89,0,0,0-1-.38c-.21-.09-.4-.2-.61-.27a8.33,8.33,0,0,1-.84-.29c-.43-.2-.84-.38-1.28-.55-.62-.23-1.25-.42-1.89-.59a2.7,2.7,0,0,1-.94,0c-.47-.1-1-.2-1.42-.35a2.23,2.23,0,0,1-.56-.27c-.68-.1-1.37-.19-2-.35a4.35,4.35,0,0,0-1.12-.32.42.42,0,0,0-.16,0,1.32,1.32,0,0,0-.18-.33.46.46,0,0,0-.45-.13.5.5,0,0,0-.53.22,79.66,79.66,0,0,0-.77-9.7l-1.4-.43c-2-.67-19.71-4.22-19.71-4.22-7.85-1.29-33.29-2.77-33.29-2.77-23.75.81-51.63,7.5-51.63,7.5a169.62,169.62,0,0,0,3.43,16.79l2-.64c37.69-8.75,62-5.24,62-5.24,11.93.18,36.48,5.29,36.48,5.29,1.18,1.07,1.91-.29,2.33-1.74l0,.25a5.89,5.89,0,0,1-.36.94,5.52,5.52,0,0,0-.29,1.34,3.11,3.11,0,0,0-.1.46c-.11.23-.22.47-.36.72a6.65,6.65,0,0,1-.8,1.36,2.06,2.06,0,0,1-1.56.82,2.66,2.66,0,0,0-1.5-.43c-.49-.19-1-.33-1.47-.48-1.38-.48-2.76-.93-4.11-1.47a.38.38,0,0,0-.48.12l-.12-.06c-.51-.29-1.17-.65-1.7-.32a1,1,0,0,0-1,.57,1,1,0,0,0-.12.52.8.8,0,0,0,0,.61,3,3,0,0,0-.48,1.1,1.22,1.22,0,0,0,.08.92,5.67,5.67,0,0,0,1.17,1c.43.32.79.67,1.19,1a2.32,2.32,0,0,0,.85.41c.48.16.94.36,1.43.51,1.47.43,3,.8,4.49,1.1.91.18,1.86.3,2.76.54s2,.61,3,1,1.71.7,2.62.94c.54.14,1.08.28,1.62.44s1.15.22,1.72.35,1.07.33,1.62.48l1.36.34c.51.13,1,.25,1.54.36s1,.3,1.5.45c.68.2,1.4.29,2.1.47a2.74,2.74,0,0,1,.54.21,2.2,2.2,0,0,1,.25.17,1.77,1.77,0,0,0-.15-.38,2.69,2.69,0,0,0-.19-.38,5.38,5.38,0,0,1-.2-.51,5.45,5.45,0,0,0-.29-.53,3,3,0,0,0-.2-.4,3.9,3.9,0,0,1-.31-.4c-.09-.16-.12-.33-.21-.49l-.44-.79c-.3-.52-.63-1-.94-1.56-.1-.16-.25-.28-.35-.45s-.17-.36-.27-.53-.36-.61-.53-.93-.38-.92-.58-1.38a2.33,2.33,0,0,1-1.29-2,2.18,2.18,0,0,1,1.18-2,2.28,2.28,0,0,1,1.3-.44,4.93,4.93,0,0,1,.66.07l.12,0,1.22-.25a5.51,5.51,0,0,1,2.69-1.21l.12-.09a4.68,4.68,0,0,1,2.49-.69,2.3,2.3,0,0,1,.47-.65Z"/><path class="cls-3" d="M7.42,69.39h0a1.34,1.34,0,0,1-.23.16Z"/><path class="cls-3" d="M35.88,57.26a1.28,1.28,0,0,0-1-.42,3.22,3.22,0,0,0-1.26.19c-.24.08-.48.11-.71.2a8.76,8.76,0,0,1-.84.35c-.83.24-1.67.43-2.51.67-.24.06-.47.14-.7.22a8.6,8.6,0,0,1-.88.19c-.63.15-1.25.36-1.88.51A2.68,2.68,0,0,1,25.06,59a1.57,1.57,0,0,1-.86-.54,6.49,6.49,0,0,0-.36-.55c-.14-.16-.28-.33-.41-.5a2.63,2.63,0,0,1-.59-1c-.08-.32.31-.45.28-.78A3.55,3.55,0,0,0,23,55a6.09,6.09,0,0,0-.29-1.36,7.69,7.69,0,0,1-.37-1c-.05-.14-.05-.3-.1-.44a2.08,2.08,0,0,1-.13-.3c-.06-.31-.17-.61-.24-.91s-.12-.57-.21-.86a7.89,7.89,0,0,0-.56-1.59c-.15-.25-.31-.75-.66-.77a3.91,3.91,0,0,0-1.09.33c-.69.17-1.43.27-2.14.38a8.46,8.46,0,0,1-.85.16,3,3,0,0,0-.77.17,20.38,20.38,0,0,0-2.88.88c-.43.17-.83.36-1.24.56a8,8,0,0,1-.82.29c-.21.08-.39.18-.59.27a8.48,8.48,0,0,0-1,.39,6.9,6.9,0,0,1-1,.55,3,3,0,0,0-.52.23,1.13,1.13,0,0,1-.41.16,7,7,0,0,0-1.32.42,6.46,6.46,0,0,1-1.94.66,4.49,4.49,0,0,0-1.1.07c-.43.14-.16.56.16.65.6.17,1.16.43,1.75.64s1,.4,1.53.6.87.47,1.32.7a8.5,8.5,0,0,0,1.81.77l.72.16c.24.07.48.07.72.12a2.81,2.81,0,0,1,.7.2,5.27,5.27,0,0,1,.72.52c.23.17.61.27.61.58a2.38,2.38,0,0,1-.24.74,5.25,5.25,0,0,1-.33.77,6.67,6.67,0,0,0-.31.78c-.22.48-.36,1-.6,1.48-.16.32-.33.62-.51.94s-.17.36-.27.54-.24.29-.34.45c-.3.53-.62,1-.91,1.59-.14.26-.28.53-.43.79s-.11.34-.2.5-.2.27-.3.41a3.73,3.73,0,0,0-.2.4A4,4,0,0,0,8,68.1c-.07.16-.13.34-.2.51a1.73,1.73,0,0,0-.18.39,3.08,3.08,0,0,0-.16.38,2.2,2.2,0,0,1,.25-.17A2.44,2.44,0,0,1,8.2,69c.67-.18,1.37-.28,2-.48.5-.16,1-.34,1.47-.46s1-.23,1.49-.36l1.32-.35c.53-.15,1-.36,1.57-.49s1.12-.19,1.67-.35,1.05-.3,1.57-.45c.89-.24,1.69-.65,2.55-1s2-.68,2.95-1,1.8-.37,2.68-.55c1.46-.31,2.94-.68,4.36-1.12.48-.15.92-.35,1.39-.52a2.18,2.18,0,0,0,.83-.42c.38-.35.73-.71,1.15-1a5.55,5.55,0,0,0,1.14-1,1.27,1.27,0,0,0,.07-.94A2.93,2.93,0,0,0,35.88,57.26Z"/><path class="cls-3" d="M113.55,58.39a.5.5,0,0,0,0-1,.5.5,0,0,0,0,1Z"/><path class="cls-1" d="M29.82,42.43l.88-.17.47-.09a1.1,1.1,0,0,1,0-.18l-.5.09-.87.17A.53.53,0,0,1,29.82,42.43Z"/><path class="cls-1" d="M30.94,43.9c0-.06,0-.11,0-.18l-1.7.34a1.08,1.08,0,0,1,0,.18Z"/><path class="cls-1" d="M31.73,47c-.7.1-1.39.22-2.09.34a.85.85,0,0,1,0,.17l2.07-.33A1.1,1.1,0,0,1,31.73,47Z"/><path class="cls-1" d="M30,49.08l1.44-.29a.48.48,0,0,1-.05-.17L30,48.9A1.16,1.16,0,0,1,30,49.08Z"/><path class="cls-1" d="M32.63,45.47l0-.18q-1.68.26-3.33.6a1.13,1.13,0,0,1,0,.18Q30.95,45.73,32.63,45.47Z"/><path class="cls-1" d="M34.59,48.15l-1.44.19a1.08,1.08,0,0,1,0,.18l1.5-.19A1.27,1.27,0,0,1,34.59,48.15Z"/><path class="cls-1" d="M33.45,47c.33,0,.67-.11,1-.15l.58-.09,0-.07a.49.49,0,0,1,0-.11l-.56.09-1,.15A.84.84,0,0,1,33.45,47Z"/><path class="cls-1" d="M28.81,40.7c.59-.13,1.17-.23,1.76-.34a1.1,1.1,0,0,1,0-.18l-1.77.34A1,1,0,0,1,28.81,40.7Z"/><path class="cls-1" d="M32.24,50c.37-.08.75-.14,1.12-.21a1,1,0,0,1,0-.18l-1.13.21L31.7,50a.47.47,0,0,1,0,.17Z"/><path class="cls-1" d="M36.24,49.13l-.37.06-.79.13s0,.06,0,.09v.05s0,0,0,0l.83-.14.38-.06Z"/><path class="cls-1" d="M32.7,43.61l1.26-.2v-.18c-.43.06-.86.14-1.28.21A.88.88,0,0,1,32.7,43.61Z"/><path class="cls-1" d="M34,41.63c0-.06,0-.12,0-.18l-.41.06-.7.14a1.13,1.13,0,0,1,0,.18l.72-.14C33.73,41.66,33.86,41.65,34,41.63Z"/><path class="cls-1" d="M36.12,51.1a1.08,1.08,0,0,1,0-.18c-.72.1-1.45.22-2.17.34l0,.18C34.69,51.32,35.4,51.2,36.12,51.1Z"/><path class="cls-1" d="M37.8,50.69a1.13,1.13,0,0,1,0,.18l.47-.07.62,0a1.3,1.3,0,0,1-.08-.17l-.54,0Z"/><path class="cls-1" d="M30.49,38.64c-.45.06-.89.15-1.33.24a1,1,0,0,1,0,.17c.45-.08.89-.18,1.34-.24C30.65,38.8,30.6,38.62,30.49,38.64Z"/><path class="cls-1" d="M73.74,48.48a7.31,7.31,0,0,0-1.27-.25s-.33,0-.55,0a4.91,4.91,0,0,0-1.36-.13c-.15,0-.1.09-.31.07a8.92,8.92,0,0,0-1.27,0c-1,.11-2.23.14-2.86.2s-1,0-1.58.1-.83.1-1.34.21a13,13,0,0,0-1.34.15c-.29,0-.69,0-1.19.08-.27,0-.3.07-.55.08a10.08,10.08,0,0,0-1.19.06c-.24.09-.34,0-.54.13-.93,0-1.81.23-2.84.3-.85.12-1.9.26-2.52.3s-1,.13-1.48.27a11.21,11.21,0,0,0-1.41.21.82.82,0,0,0-.55,0,2,2,0,0,0-.71.09c-.17,0-.23,0-.48,0a11.06,11.06,0,0,1-1.17.2,8.05,8.05,0,0,1-1.26.15c-.24,0-.21.13-.54.15,0,0-.09,0-.16,0-.23.06-.11-.1-.4,0-.84.13-1.91.3-2.41.42a8.38,8.38,0,0,0-1.34.17,96.4,96.4,0,0,0-10.57,2.11,6.92,6.92,0,0,0-1,.2c-.27,0-.07.15-.36.18s-.27,0-.54.14-.21.27-.56.37a4.2,4.2,0,0,1-1,.31,1.12,1.12,0,0,1-.44.21,3.34,3.34,0,0,1-.94.17c0,.11-.29.19-.58.26s-.4.42-.81.61c0-.1.07-.2.11-.3s-.11-.2-.16-.09a4,4,0,0,0-.16.45,1.91,1.91,0,0,1-.41.11c-.08,0-.14,0-.21,0s0-.06,0-.08.05-.05,0-.09-.13,0-.1,0,0,0,0,0-.21,0-.23,0-.08,0-.07-.08a.14.14,0,0,1-.1,0s0-.07.05-.09c-.11,0-.1,0-.09-.05a3,3,0,0,1-.32-.06.06.06,0,0,0-.07,0s0,0,0-.06-.09,0-.06,0a3.49,3.49,0,0,1-.35,0,.51.51,0,0,1-.1,0s-.12,0-.09,0,0,0,0,.07a.89.89,0,0,0,.08.17c-.19.05-.39.08-.58.15h0a1,1,0,0,1,.12.16l.49-.13c0,.06,0,.12-.07.18s.14,0,.13,0a5.13,5.13,0,0,0,.25,1.06s0,.11,0,.15.2.23.28.34l0,0a3.89,3.89,0,0,1-1.39.34,4.8,4.8,0,0,0-.63.15.62.62,0,0,1,0,.19,8,8,0,0,1,1-.21,3.29,3.29,0,0,0,1-.3l0,0c0,.07.11.11.15.17s.07.17.21.15c0,0,0,.07,0,.09a.31.31,0,0,1,.2.11s.08,0,.09,0a2.18,2.18,0,0,0,.52.29l.08,0c0,.17.26.08.29.27.05,0,.09,0,.14,0s0,0,.06,0,.07-.1,0,0,.19-.08.24,0,0-.12.06-.08.07,0,.11,0L25,59l-.28.08a7.69,7.69,0,0,1-1.08.24.48.48,0,0,1,.08.16c.26,0,.52-.08.77-.14.73-.17,1.44-.46,2.16-.66s1.41-.32,2.11-.53l.12,0a3.48,3.48,0,0,1-.82.4c-.6.14-.66.21-1.09.27S26.51,59,26,59c-.06.16.12.21-.21.4.2,0,.44,0,.58,0,.51-.15.25.07.72-.06a7.62,7.62,0,0,0,1.1-.31,34.15,34.15,0,0,0,4-1.36l1.07-.43a6.87,6.87,0,0,0,.86-.3h0l.11,0-.09,0a1,1,0,0,1,1,.44.31.31,0,0,0,.1,0l-.08,0c-.39.14-.79.19-1.18.33-.84.3-1.67.53-2.52.77s-1.57.56-2.37.79-1.71.44-2.56.63a7.5,7.5,0,0,0-1.13.29,10.18,10.18,0,0,1-1.2.45c-.33.07-.68.11-1,.16a.79.79,0,0,1,.06.22l.8-.17c.81-.14,1.52-.57,2.33-.73a47.27,47.27,0,0,0,4.82-1.37c.81-.26,1.63-.41,2.43-.71.42-.15.82-.26,1.25-.38a4.76,4.76,0,0,0,.53-.19.45.45,0,0,1,.1.17,2.5,2.5,0,0,1,.25,1.19,3.4,3.4,0,0,1-.74.25c-.36.09-.72.15-1.08.25l-2.2.64c-1.4.4-2.81.8-4.23,1.13l-1.9.44a1.36,1.36,0,0,1,0,.2c.74-.18,1.49-.35,2.24-.55,1.45-.39,2.91-.76,4.37-1.17.73-.21,1.45-.46,2.19-.63a6.21,6.21,0,0,0,1.33-.35,2.78,2.78,0,0,1-.08.49,1.76,1.76,0,0,1-1,1.25l.08,0-.08,0h0l-6.06,1.52c-2,.53-4,.93-5.94,1.58l-2.15.63L14,66.7l-1.84.66c-.25.09-.31.08-.54.16l-1.06.38-2.65,1c.06-.13.13-.27.18-.4a8.3,8.3,0,0,0,.58-1c.42-.88.86-1.78,1.45-2.86.22-.39.15-.46.41-.9l2.86-5.52.32-.6-.63-.23-2.81-1c-.3-.1-.55-.16-.8-.23C8,55.51,5.45,54.74,3.91,54a5.72,5.72,0,0,1-.59-.17c-.12,0-.32.2-.6.28s-.45.16-.6.23v-.88l.19,0c.32.09.69.22,1,.32h0c1.13-.45,2.34-1,3.36-1.34.25-.11.07-.16.5-.28s1.1-.45,1.82-.68a27.93,27.93,0,0,0,5.18-1.65c.21-.11-.41-.05.06-.25a10.42,10.42,0,0,1,1.45-.52c.25-.09-.25,0,.38-.19a33.88,33.88,0,0,0,3.36-.9c.51-.18-.55,0,0-.15s.66-.32,1.06-.34c0-.08.25-.17.45-.25,0,0,.05,0,.07.24a6.05,6.05,0,0,1,.12.73c.08.32.19.2.28.68a4.75,4.75,0,0,1,.15.56,2.41,2.41,0,0,0-1,.2,11.31,11.31,0,0,1-1.63.48c-.83.21-1.65.44-2.48.67a.47.47,0,0,1,0,.17c.68-.19,1.36-.39,2.05-.56.51-.13,1-.24,1.55-.4a5.05,5.05,0,0,1,1.53-.38c0,.19.07.38.11.6a2.13,2.13,0,0,1,.19.58,9.26,9.26,0,0,1,.17,1.07,13.93,13.93,0,0,0-2.27.56c-.57.15-1.15.31-1.72.49a.57.57,0,0,1,0,.18c.5-.16,1-.3,1.53-.44a13.83,13.83,0,0,1,2.44-.61v.07c.1-.05.17.4.24.81s.27.45.4.69l-.11,0a.09.09,0,0,0,0,.18.58.58,0,0,0,.19,0,2.85,2.85,0,0,1,.13.33c.07.49.14.54.16.88s.17.39.21.76c.15,0,.21-.1.38.16,0-.16,0-.35,0-.47-.11-.42.08-.21,0-.59a5.53,5.53,0,0,0-.21-.91l-.09-.4a6,6,0,0,1,1-.26c.94-.19,1.86-.45,2.8-.67,1.66-.39,3.36-.65,5-.93a1.13,1.13,0,0,1,0-.18c-1.62.27-3.25.52-4.86.89-.86.19-1.71.44-2.57.62-.4.09-.79.15-1.18.26l-.25.1c-.08-.37-.16-.74-.25-1.1.27-.1.53-.2.8-.28.59-.15,1.17-.32,1.76-.49,1.1-.31,2.21-.54,3.33-.79l1-.23a.87.87,0,0,1-.07-.17l-1,.22c-1.11.25-2.23.49-3.33.8-.58.16-1.17.34-1.75.49a8.46,8.46,0,0,0-.8.28c-.1-.46-.21-.91-.32-1.35a3.33,3.33,0,0,1,.52-.21c.43-.1.85-.2,1.27-.32.9-.25,1.81-.44,2.73-.62l1.09-.22a.57.57,0,0,1,0-.18l-1.11.23c-.92.18-1.83.37-2.73.62-.39.11-.78.2-1.18.3a3.69,3.69,0,0,0-.6.23v0l-.2-.92c0-.15,0-.34-.07-.53a10.24,10.24,0,0,1,2.25-.6c1.09-.24,2.17-.49,3.27-.69H28a1.09,1.09,0,0,1,0-.18l-.35.06c-1.08.21-2.17.46-3.25.69a9.77,9.77,0,0,0-2,.54c-.06-.33-.14-.68-.22-1a34.44,34.44,0,0,1,5.37-1.48l.09,0a.47.47,0,0,1,0-.17l-.34.07a34,34,0,0,0-5.13,1.43c-.06-.28-.12-.54-.17-.79a.75.75,0,0,1-.21-.47l-.1-.37a9.32,9.32,0,0,1,1.83-.59c.84-.19,1.67-.42,2.51-.61.51-.12,1-.22,1.53-.32a1.27,1.27,0,0,1-.06-.18c-.58.12-1.17.24-1.75.38-.83.19-1.65.42-2.48.61a6.55,6.55,0,0,0-1.62.53c-.12-.46-.23-.91-.34-1.37a4.89,4.89,0,0,1,1.36-.43c.6-.15,1.19-.34,1.78-.52a28.78,28.78,0,0,1,3.54-.81l.12,0a.48.48,0,0,1,0-.18l-.14,0a33.35,33.35,0,0,0-3.95.94c-.63.2-1.26.35-1.9.52a4.3,4.3,0,0,0-.82.31c-.14-.54-.27-1.08-.4-1.6a16.61,16.61,0,0,0,1.71-.47c.67-.18,1.34-.38,2-.55l2.59-.67a1.13,1.13,0,0,1,0-.18l-2.38.62c-.65.16-1.29.34-1.94.52a15.64,15.64,0,0,1-2,.56c-.13-.5-.25-1-.37-1.5,2.36-.49,4.68-1.18,7-1.72a.8.8,0,0,1,0-.18c-2.35.54-4.67,1.24-7,1.73-.08-.31-.15-.63-.23-.93l-.12,0-.23-1.38-.15,0,.18,1.1c.31,2.08.61,4.09.87,5.87.09.67.07.7.18,1.39v0a10.58,10.58,0,0,0-1.44.33,21,21,0,0,0-2.22.39s-.55.2-.94.28a15.81,15.81,0,0,0-2.32.56c-.26.09-.14.14-.51.23s-1.47.46-2.14.67c-1.67.65-3.7,1.32-4.73,1.73-1.21.43-1.71.63-2.62,1s-1.36.56-2.18,1l-.08,0L0,53.76l1.71.78c.66.3,1.3.39,2.17.73.49.15,1.13.42,2,.73.44.2.52.15.92.31.78.4,1.06.36,2,.76.45.09.58.2.95.25.83.34,1.67.63,2.53.93-.18.35-.36.69-.56,1-.67,1.36-1.54,3-2.06,4s-.78,1.52-1.16,2.39c-.37.72-.94,1.68-1.16,2.23a2.35,2.35,0,0,0-.48.84,3.32,3.32,0,0,0-.42.74l-.14.29,0,.08c-.08.11-.13.2-.19.29L5.5,71l1-.31.44-.12.25-.12c.53-.22,1.56-.51,1.73-.62.5-.19,1.51-.57,2.11-.73a8.23,8.23,0,0,1,.89-.39s.16,0,.27-.09c.39-.17.19,0,.67-.18,1.41-.54,3.23-1.06,4.09-1.36.7-.16,1.18-.31,2.28-.64,4.68-1.47,10.84-2.88,15.86-4.22h.06A3.07,3.07,0,0,0,37,60a3.9,3.9,0,0,0,.17-1,3.22,3.22,0,0,0,0-.44l.19,0,.09,0s.11,0,.09-.06-.05,0,0-.06a.92.92,0,0,0-.13-.24V58c.11-.07,0-.14.1-.21s-.15,0-.14,0c-.08-.36,0-.73-.11-1.06,0-.05,0-.1,0-.14a3.39,3.39,0,0,1-.15-.41s0-.1,0-.12l0,0s0,0,0-.07a1.29,1.29,0,0,0-.06-.21c0-.08,0-.17-.09-.22s.06,0,.05-.08a.23.23,0,0,1-.09-.18s-.09,0-.07-.05c0-.19-.12-.35-.17-.55l-.07,0c.1-.12-.1-.26,0-.38-.07,0-.07-.06-.11-.09s0,0,0-.05-.11,0,0,0-.16-.14-.13-.21-.12,0-.1,0,0,0,0-.08l2.93-.58L40.34,53c1.29-.26,2.55-.55,3.79-.75l1.08-.18c.15,0,.18,0,.32,0l.62-.1,2-.31a15.89,15.89,0,0,0,2.1-.34,2.8,2.8,0,0,0,.63,0A11.63,11.63,0,0,1,52.62,51c.25,0,.25-.11.54-.13,1.71-.22,3.31-.41,5.16-.61a4.24,4.24,0,0,0,.47-.1c.91,0,2.41-.25,3.38-.16.23-.08.64-.09.94-.15a1.73,1.73,0,0,1,.47-.06c.19,0,.34-.13.4-.05a15.11,15.11,0,0,1,2-.2c.15,0,.06-.13.31-.11s.67-.08,1.1-.08a8.41,8.41,0,0,0,3.08,0c.13-.05-.21-.16.08-.22a3.84,3.84,0,0,1,.86-.09c.16,0-.13-.08.24-.06a9.85,9.85,0,0,0,2,.08c.3,0-.31-.12,0-.16s.41-.12.63,0c0-.11.36-.11.47-.19C74.68,48.49,74.24,48.47,73.74,48.48ZM23.79,57.39s-.05,0,0,0,0,0,0,0,.08-.07,0-.06-.07-.14-.12-.16,0-.07,0-.12a2.08,2.08,0,0,0,0-.23c.06,0,.07.08.23,0h.06C23.88,57,23.84,57.19,23.79,57.39Zm.65.52a.11.11,0,0,1-.08,0,.17.17,0,0,1-.16-.1c-.08,0-.07,0-.15,0s0-.09-.1-.07.05-.08,0-.05,0,0,0,0c.06-.28.12-.56.19-.84a1.44,1.44,0,0,1,.35-.14l.21-.06-.06.28A5.56,5.56,0,0,0,24.44,57.91Zm.57,0s-.06,0-.11.1-.08.06-.11,0,0,0-.06,0,0,0-.05,0-.05,0-.05-.06h0a6,6,0,0,1,.17-1,3.61,3.61,0,0,0,.08-.38l.49-.15c0,.15-.07.3-.1.44-.09.36-.16.72-.22,1.08Zm1.51.65c-.41.11-.82.24-1.22.37a.31.31,0,0,1,0-.11s0-.09.08-.07,0-.09,0-.06.12.2.18.08,0-.12,0-.16,0-.12.05,0c0-.11,0-.11,0-.19s-.06-.18-.1-.18a1.28,1.28,0,0,0-.1-.25s0,0,0,0a.27.27,0,0,0-.06-.16s0,.09,0,.07,0,0-.06,0l0,0c.05-.33.13-.64.2-1s.08-.36.12-.55l.7-.22c-.06.3-.12.59-.16.88a8,8,0,0,1-.23,1.28c0,.11.14.15.18,0a9.15,9.15,0,0,0,.25-1.48c0-.26.1-.52.15-.77l.29-.09.22-.06a9.9,9.9,0,0,0-.22,1.21A13.87,13.87,0,0,0,26.52,58.52ZM28.64,58c-.6.17-1.2.3-1.81.46l-.13,0c0-.38.13-.78.18-1.17a9.08,9.08,0,0,1,.28-1.47l.18,0a2.73,2.73,0,0,0,.65-.08,8.15,8.15,0,0,0-.4,2.14.09.09,0,1,0,.18,0,8.56,8.56,0,0,1,.42-2.18l.51-.11a13.23,13.23,0,0,1-.5,2.31c0,.11.14.16.17,0a13.17,13.17,0,0,0,.52-2.4l.23,0,.07-.06c-.1.35-.2.7-.28,1a6.8,6.8,0,0,1-.28,1.44A.07.07,0,0,0,28.64,58Zm1-.3h0l0,0-.51.17-.25.07a6.52,6.52,0,0,0,.26-1.33c.1-.46.23-.9.36-1.35h.06l.57-.14c-.1.31-.19.63-.26.93A8.24,8.24,0,0,0,29.61,57.67Zm.22-.07,0,0A7.6,7.6,0,0,1,30,56c.08-.28.16-.61.26-.92l.45-.1a11.31,11.31,0,0,0-.45,2.51h0Zm.8-.35s-.07.09-.19.14a11.36,11.36,0,0,1,.46-2.49l.61-.14a14.69,14.69,0,0,1-.5,2.16c-.05.11.13.15.17,0a9.1,9.1,0,0,0,.41-1.53c0-.06.07-.41.13-.73l.54-.12a7,7,0,0,0-.3,1c-.07.42-.16.87-.19,1.31A5.84,5.84,0,0,1,30.63,57.25Zm1.59-.5-.26.1a10.14,10.14,0,0,1,.25-1.59,5.93,5.93,0,0,1,.24-.71l.48-.11c-.18.75-.5,1.49-.66,2.24,0,0,0,0,0,0Zm1.1-.57-.36.17a3.24,3.24,0,0,1-.49.28c.18-.75.48-1.48.66-2.23l.46-.1C33.49,54.93,33.4,55.55,33.32,56.18Zm.78-.29-.19,0h0l-.37.17q.12-.93.27-1.83l.63-.14A10.83,10.83,0,0,0,34.1,55.89Zm.18,0a11.18,11.18,0,0,1,.32-1.77l.52-.1a0,0,0,0,0,0,0,.42.42,0,0,0,0,.17l0,0a7.66,7.66,0,0,0-.49,1.63A2.16,2.16,0,0,0,34.28,55.86Zm1.08.1h0l-.47-.11a7.17,7.17,0,0,1,.44-1.5s.09,0,.08.09,0,.07,0,.13,0,0,0,.05,0,.07,0,.13,0,0,.11.05.08.19.07.3,0,.09,0,.14,0,0,0,0A4,4,0,0,1,35.36,56Zm.55.23a1.35,1.35,0,0,0-.38-.17c.09-.19.16-.37.23-.56a.17.17,0,0,0,.06.07s0,.12,0,.14-.08.06,0,.07,0,.06,0,.07,0,0-.06.06c.1,0,0,.12.05.13a.12.12,0,0,1,0,.14s.1,0,.07,0Z"/><path class="cls-1" d="M19.75,38.42l0,.25h0Z"/><path class="cls-1" d="M25.48,38.63l1.7-.39c1.77-.44,3.5-.91,5.2-1.28l1.5-.31c.2,0,.24,0,.43-.06l.86-.17,2.68-.54c1-.19,2-.32,2.89-.58a6.49,6.49,0,0,0,.87-.08c.75-.16,1.51-.34,2.47-.46.34,0,.35-.14.75-.18,2.36-.37,4.57-.72,7.14-1,.25,0,.44-.09.64-.13,1.26,0,3.34-.39,4.69-.37a12.4,12.4,0,0,1,1.3-.2,2.53,2.53,0,0,1,.65-.08c.26,0,.47-.15.55-.08.94-.11,2-.27,2.83-.28.21,0,.08-.13.43-.12s.93-.12,1.53-.12a17.1,17.1,0,0,0,4.27-.1c.19,0-.29-.16.1-.23a9,9,0,0,1,1.21-.09c.21,0-.18-.09.33-.07a22.23,22.23,0,0,0,2.74.06c.42,0-.43-.12,0-.16s.56-.12.87,0c.07-.11.5-.12.66-.2-.12-.16-.74-.18-1.43-.17a12.3,12.3,0,0,0-1.76-.24c0-.06-.46,0-.77,0a10.06,10.06,0,0,0-1.87-.11c-.22,0-.14.09-.44.08a13.51,13.51,0,0,0-1.77,0c-1.4.15-3.08.18-4,.29s-1.43.09-2.2.16-1.15.13-1.85.27c-.6,0-1.1.17-1.86.22-.4.07-.95.1-1.64.15-.38,0-.42.09-.77.11a14.34,14.34,0,0,0-1.64.14c-.34.11-.47.06-.75.18-1.29.09-2.51.34-3.93.5-1.18.19-2.63.42-3.48.52s-1.32.22-2,.42-1.5.21-1.95.35a1.51,1.51,0,0,0-.76.09,4,4,0,0,0-1,.18c-.23,0-.31,0-.66,0s-1.43.24-1.61.33c-.41.08-1.24.27-1.73.31-.34.06-.29.16-.74.21,0,0-.13,0-.22,0-.33.09-.15-.08-.55,0-1.16.24-2.63.56-3.32.75a15.16,15.16,0,0,0-1.84.36c-2.54.51-5.55,1.26-8.45,2L20.14,40Z"/><path class="cls-1" d="M140.4,57.11c1.54-.45,4-1.55,5.65-2,.31-.17.84-.38,1.3-.57l-.08,0c-.63-.17-1.11-.35-1.64-.52l-.39.15c-.47.21-1.13.43-2,.73-.46.14-.48.23-.9.37-.85.2-1,.42-2,.7-.4.22-.57.22-.88.42-1,.36-2,.75-3.05,1.16l-.52.21.26.49.83,1.55c.76,1.31,1.64,3,2.13,3.92s.82,1.49,1.33,2.29.87,1.72,1.2,2.2a2.72,2.72,0,0,0,.43.88,2.36,2.36,0,0,0,.25.54c-.55-.19-1.29-.51-1.47-.54-.5-.17-1.52-.52-2.09-.78a7.21,7.21,0,0,1-.94-.27s-.14-.07-.26-.1c-.42-.12-.13-.16-.64-.29-1.41-.55-3.24-1.08-4.13-1.32-.66-.26-1.15-.41-2.25-.75-4.62-1.65-10.79-3.17-15.85-4.42h0l-.06,0h.05a2.08,2.08,0,0,1-1.21-1.44,3.27,3.27,0,0,1,0-1l.18,0,.1,0s.12,0,.1,0,0,0,0-.07a.66.66,0,0,0-.06-.27v-.07c.13,0,.09-.12.15-.18s-.13,0-.11-.06a2.26,2.26,0,0,1,.08-.51c.24.06.47.18.71.24.43.12.83.23,1.25.38.79.3,1.62.45,2.42.71a47.45,47.45,0,0,0,4.83,1.37c.8.16,1.52.59,2.33.73l.79.17a.57.57,0,0,1,.07-.22c-.35,0-.69-.09-1-.16a10,10,0,0,1-1.19-.45A7.32,7.32,0,0,0,123,60c-.85-.19-1.71-.39-2.55-.63s-1.57-.56-2.37-.79-1.69-.47-2.53-.77c-.38-.14-.79-.19-1.17-.33a3.56,3.56,0,0,0-.39-.13,2.51,2.51,0,0,0,0-.27l.15-.16c.24-.25.2-.43.63-.58a10.62,10.62,0,0,1,1.69.5l1.18.34a.07.07,0,0,0,.08,0l.93.26.17.06h0l.93.3v.07c0,.11.19.11.19,0h0l.81.26c.7.21,1.42.33,2.11.53.33.09.65.2,1,.3l0,.09c0,.16,0,.19.09.2a.49.49,0,0,0,.13.26c0,.06,0,0,.07,0a.18.18,0,0,0,.17.16s0-.08,0-.06.12,0,.17,0,.28-.1.36-.15a.43.43,0,0,0,.18-.08l.07-.08.74.13a1.11,1.11,0,0,1,.07-.16c-.23,0-.45-.1-.67-.15,0,0,0,0,0,0s.06,0,.12-.06,0,0,0,0,0-.07.14,0,0,0,0-.12.14-.15.24-.2a.43.43,0,0,1,.18-.21c0-.09.06-.09,0-.17s.1-.06.07-.13.09,0,.06,0,0,0,0-.05,0,0,.09,0,.07-.08,0-.12a.11.11,0,0,1,.1-.09s-.07-.07,0-.08h0a2.26,2.26,0,0,0,1.41.58,7.84,7.84,0,0,1,1,.21,1.23,1.23,0,0,1,0-.19,4.44,4.44,0,0,0-.63-.15,2.62,2.62,0,0,1-1.67-.57.21.21,0,0,0,0-.12c.07,0,.08,0,.11-.1a1.39,1.39,0,0,0,.4-1s.07,0,0-.09-.12,0-.09-.06,0,0,0-.05-.2-.06-.21-.09a.09.09,0,0,1-.06-.11c-.05,0-.08,0-.08-.05s0-.07.06-.08c-.11,0-.09,0-.09-.07s-.3-.06-.38-.1,0,0,0,0h0a.63.63,0,0,1,.23,0c.09-.12,0-.22.25-.29a2.29,2.29,0,0,1-.28-.17c-.29-.05-.09-.15-.36-.2s-.29,0-.62-.13c-.81-.2-1.58-.38-2.33-.52l-.61-.16a15.56,15.56,0,0,0-1.74-.56c-.13,0-.15.1-.42,0-3.33-.76-6.55-1.53-9.69-2.11l-1.24-.26c-1.3-.23-2.6-.37-3.85-.57l-1.1-.17c-.15,0-.17-.06-.31-.08l-.63-.1-2-.25a11.69,11.69,0,0,0-2.14-.22,2.49,2.49,0,0,0-.62-.14c-.55,0-1.12-.07-1.82-.16-.25,0-.27,0-.56,0-1.72-.19-3.34-.28-5.21-.43a3.43,3.43,0,0,0-.48,0c-.9-.18-2.43-.14-3.39-.35a9.34,9.34,0,0,1-1,0,1.45,1.45,0,0,1-.47,0c-.19,0-.35.09-.4,0-.69,0-1.45.06-2.06,0-.16,0-.07.12-.32.08s-.68,0-1.11,0a7.7,7.7,0,0,0-3.08-.16c-.14.05.2.18-.09.22a3.28,3.28,0,0,1-.87,0c-.15,0,.13.1-.24.07a9.62,9.62,0,0,0-2-.12c-.3,0,.3.13,0,.16s-.41.12-.63,0c0,.11-.36.11-.48.18.09.17.53.2,1,.2a6.27,6.27,0,0,0,1.26.27s.32,0,.55,0a6,6,0,0,0,1.33.19c.16,0,.1-.09.32-.06a9.09,9.09,0,0,0,1.25.07c1-.09,2.21,0,2.84,0s1,0,1.57,0,.83,0,1.34-.05c.43.1.8,0,1.35,0a8,8,0,0,1,1.17.08,5.32,5.32,0,0,0,.56,0c.48.14.63,0,1.17.13.26-.06.35,0,.56-.06.92.13,1.81.12,2.83.24.86,0,1.9.15,2.51.23s1,.08,1.5.08,1.07.17,1.41.15a.85.85,0,0,0,.55.1,2,2,0,0,0,.7.09c.16.06.23,0,.46.12s1,.18,1.18.14a8.78,8.78,0,0,1,1.24.22c.24,0,.24-.07.56,0,0,0,.08,0,.15,0,.25,0,.08.12.38.12.84.14,1.9.32,2.42.36a9,9,0,0,0,1.31.3l4.48,1s0,.08,0,.11,0,.25.06.32a.37.37,0,0,0,0,.18c0,.06,0,.09.11.16-.08,0,.07.1,0,.15s0,.08,0,.13,0,0,0,.06,0,.07-.05.13,0,0,.09.07,0,.2,0,.31a.36.36,0,0,1,0,.27c.06.08,0,.11.07.18s0,.11,0,.15-.09,0,0,.06,0,.06,0,.08,0,0-.07,0,0,.11,0,.13a.1.1,0,0,1,0,.13s.1,0,.06.07,0,0,0,0-.11,0-.07,0a.81.81,0,0,0,0,.22.59.59,0,0,0,0,.08.3.3,0,0,0,0,.1,0,0,0,0,1,0,0,3.46,3.46,0,0,1-.22.44,4.45,4.45,0,0,0-.26,3,3.4,3.4,0,0,0,2.06,2.37h0l.07,0L120.5,64c2,.55,4,1,5.88,1.59l2.12.68,6.53,1.9,1.83.66c.24.08.28.13.51.22l1,.37,3.28,1.15,1.24.45,1.93.71-1-1.82a22.25,22.25,0,0,0-1.21-2.12,8.21,8.21,0,0,0-.47-1c-.49-.84-1-1.7-1.56-2.8-.2-.39-.29-.37-.51-.83l-2.66-4.87,2.14-.83A8,8,0,0,0,140.4,57.11Zm-24.32-.58c-.28-.08-.57-.2-.86-.3l.32,0h0l.8.36Zm4.41,1.33-.28-.09h.48a1,1,0,0,0,0,.16Zm2.22.57c-.6-.16-1.21-.29-1.81-.46a.1.1,0,0,0,0-.09.36.36,0,0,1,0-.11h.26l0,.12c0,.11.22.06.18,0s0,0,0-.05l.3,0,.17,0a.08.08,0,0,0,.1,0c.35.09.48.09.81.2l.09,0a1.86,1.86,0,0,1,0,.33Zm1.68-2.89a2.21,2.21,0,0,1,1.62,0h-.11l-.1,0s-.12,0-.1,0,0,0,0,0a.7.7,0,0,0,.09.17v0c-.13,0-.09.08-.14.11s.13,0,.12,0a2.16,2.16,0,0,1-.21.65,5.28,5.28,0,0,0-.33-1c0-.11-.2,0-.15.09a7.23,7.23,0,0,1,.38,1.28h0s0,0,0,.07,0,0,0,0l0,0a.69.69,0,0,0,0,.13c0,.05-.11,0,0,.15s-.07,0-.08,0,0,.11,0,.13,0,.07,0,.07l-.1.15a7.4,7.4,0,0,0-.17-.94,5.52,5.52,0,0,0-.32-1.16.09.09,0,0,0-.16.09,4.67,4.67,0,0,1,.3,1.11,5.35,5.35,0,0,1,.18,1.11c-.06,0-.09.11-.19,0s0,.07,0,.11,0,0,0,0,0,.11,0,0-.07.17-.12.13,0,0,0,.07a7.53,7.53,0,0,0-.28-1.62,4.73,4.73,0,0,0-.42-1.37A2.85,2.85,0,0,1,124.39,55.54Zm-3-.58a4.52,4.52,0,0,1,1,.19,1.15,1.15,0,0,1,.48,0,3.55,3.55,0,0,1,.85.27s0,0,0,.05a4.5,4.5,0,0,1,.41,1.35,8,8,0,0,1,.27,1.52s-.1,0-.14.09,0,.17,0,.22,0,.09-.07.06,0,.09,0,.06-.09-.22-.17-.11,0,.07,0,.11c-.31-.1-.61-.19-.92-.27,0-.11,0-.23,0-.34.14,0,.31,0,.51,0a.07.07,0,0,0,0,.05c0,.11.21.07.17,0h0c.07-.11,0-.21.31-.26l-.4-.16c0-.28-.09-.56-.13-.85a12,12,0,0,1-.24-1.46c0-.11-.19-.11-.18,0a9.51,9.51,0,0,0,.21,1.3c.06.32.09.63.14,1-.34-.07-.15-.14-.5-.22,0-.14,0-.3-.07-.44a7.89,7.89,0,0,0-.31-1.52c0-.11-.21-.06-.17,0a9.58,9.58,0,0,1,.32,1.68l0,.18c-.27-.09-.41-.07-.78-.16a9.14,9.14,0,0,0-.52-2.12c0-.11-.21-.06-.17.05a9.89,9.89,0,0,1,.51,2l-.6-.16c-.16-.69-.24-1.4-.38-2.09C121,55,121,54.89,121.36,55Zm-.8,0c.14.69.22,1.38.37,2.07l-.21-.06c0-.2,0-.39-.08-.56-.12-.52-.29-1-.43-1.55A1.18,1.18,0,0,1,120.56,55Zm-.81-.1c.19.06.17,0,.26,0,.15.58.35,1.15.47,1.74,0,.11,0,.23.06.35l-.67-.17a6.17,6.17,0,0,0-.12-.75,10.42,10.42,0,0,0-.35-1.21Zm-.56-.13a10.47,10.47,0,0,1,.36,1.21,4.91,4.91,0,0,1,.13.75l-.47-.14a18.38,18.38,0,0,0-.45-1.95Zm-.63-.18a18.2,18.2,0,0,1,.45,1.94l-.66-.21c-.15-.61-.24-1.24-.4-1.86Zm-.79-.16c.07.36.17.95.19,1,.05.27.1.54.17.8l-.28-.09-.18-.07c0-.16-.06-.32-.08-.47-.08-.45-.28-.88-.4-1.32Zm-.77-.17c.1.34.25.67.33,1s.11.49.16.75l-.45-.18a13.23,13.23,0,0,1-.5-1.67Zm-.64-.13s0,0,0,0a14.78,14.78,0,0,0,.46,1.57c-.19-.11-.42-.24-.7-.38-.06-.44-.12-.88-.19-1.33Zm-.63-.13q.1.63.18,1.26h-.09a3.43,3.43,0,0,0-.48-.08,11.74,11.74,0,0,0-.28-1.31Zm-1.91-.19c.12,0,.2-.1.2-.18l.85.18a12,12,0,0,1,.29,1.35,2.68,2.68,0,0,0-.49,0c-.12-.42-.27-.83-.43-1.25,0-.1-.22-.06-.18,0,.16.41.31.82.43,1.24a2,2,0,0,0-.32.1.45.45,0,0,0-.12.06c0-.17,0-.34,0-.54l-.06-.06c.13-.08,0-.27.15-.35-.06,0-.05-.08-.08-.11s0,0,0-.06-.1,0,0,0-.11-.17-.06-.23-.13,0-.09,0S113.79,53.84,113.82,53.8Z"/><path class="cls-1" d="M147.16,53.24c-.29-.14-.6-.11-.66-.22-1.15-.4-2.44-.77-3.44-1.17-.26-.08-.14.08-.56-.1s-1.14-.35-1.85-.62a22.88,22.88,0,0,0-5.14-1.77c-.24,0,.3.27-.2.17a15.14,15.14,0,0,1-1.49-.4c-.26-.07.19.15-.41-.06A25.34,25.34,0,0,0,130.09,48c-.52-.12.49.27,0,.15s-.73-.09-1.08-.28c0,0-.12,0-.23,0a.11.11,0,0,0,0-.06c.3-2.57.61-5.17,1-7.73l.26-1.63c-1.87-.52-3.69-1-5.51-1.46-.56-.14-1.13-.33-1.7-.46-1.78-.41-3.56-.74-5.28-1.1-.54-.11-1.24-.27-1.51-.31s-.23-.08-.42-.12l-.87-.17c-.92-.19-1.82-.34-2.7-.49a20.7,20.7,0,0,0-2.94-.46,6,6,0,0,0-.86-.21c-.76-.07-1.55-.18-2.51-.34a7.6,7.6,0,0,1-.77,0c-2.38-.33-4.62-.58-7.21-.84a4.94,4.94,0,0,0-.66,0c-1.24-.28-3.37-.28-4.69-.57-.33.05-.9,0-1.33,0a4,4,0,0,1-.66,0c-.25-.05-.48.07-.55,0-1-.06-2,0-2.85-.1-.22,0-.1.12-.45.07s-.94,0-1.53-.05a14.72,14.72,0,0,0-4.28-.23c-.19,0,.29.18-.12.22a7.33,7.33,0,0,1-1.2,0c-.22,0,.17.1-.33.06a16.16,16.16,0,0,0-2.74-.14c-.42,0,.42.13,0,.16s-.57.11-.88,0c-.06.1-.5.1-.66.18.13.17.74.2,1.42.2a12,12,0,0,0,1.75.27s.46,0,.76,0a9.64,9.64,0,0,0,1.86.2c.21,0,.14-.08.43,0s1.2,0,1.75.09c1.4,0,3.06.08,3.93.1s1.42.08,2.18.1,1.15,0,1.86,0c.59.12,1.1,0,1.86.09.4,0,.94.08,1.63.15.38.06.42,0,.77,0,.66.17.87.05,1.62.2.36,0,.48,0,.77,0,1.27.18,2.51.24,3.92.45,1.18.09,2.63.31,3.47.45s1.32.17,2.07.22,1.48.28,2,.29a1.58,1.58,0,0,0,.75.16,3.22,3.22,0,0,0,1,.17c.22.08.31.07.63.18s1.43.28,1.62.27a15.57,15.57,0,0,1,1.71.37c.34.07.33,0,.77.09,0,0,.11,0,.21,0,.34,0,.11.13.52.17,1.16.24,2.62.57,3.33.68a18.55,18.55,0,0,0,1.8.48c2.53.64,5.54,1.48,8.46,2.28l.24-1.09-.18,1.1h-.06c-.1.41-.18.8-.28,1.21,0,0,0,0,0,0-2.38-.49-4.71-1.19-7.08-1.74q0,.11,0,.18c2.36.54,4.68,1.24,7.06,1.73a.08.08,0,0,0,.07,0c-.12.53-.24,1.07-.36,1.58,0,0,0-.07-.07-.07a14.86,14.86,0,0,1-2-.57c-.64-.18-1.28-.36-1.93-.52l-2.38-.62a1.16,1.16,0,0,1,0,.18l2.59.67c.68.17,1.34.37,2,.55a13.94,13.94,0,0,0,1.79.49l.05,0c-.13.58-.25,1.14-.37,1.69a3.27,3.27,0,0,0-1-.4c-.63-.17-1.27-.32-1.89-.52a33.35,33.35,0,0,0-4-.94l-.14,0q0,.1,0,.18l.12,0a28.62,28.62,0,0,1,3.53.81c.59.18,1.18.37,1.78.52a3.78,3.78,0,0,1,1.52.56v.05c-.15.61-.18.63-.32,1.28a6.22,6.22,0,0,0-1.79-.62c-.83-.19-1.65-.42-2.47-.61-.59-.14-1.17-.26-1.76-.38a1.21,1.21,0,0,1,0,.18c.51.1,1,.2,1.53.32.84.19,1.66.42,2.5.61a7.71,7.71,0,0,1,2,.69c-.06.26,0,.21-.06.57a6.67,6.67,0,0,1-.17.77,1.41,1.41,0,0,0,0,.35,30.36,30.36,0,0,0-5.55-1.59l-.33-.07a.85.85,0,0,1,0,.17l.1,0a32,32,0,0,1,5.78,1.64h0a2.19,2.19,0,0,1,0,.53,10.42,10.42,0,0,1-.23,1.46,2.71,2.71,0,0,1,0,.71,5.65,5.65,0,0,1-.3,1.27c.1.06,0,.5-.08.91s.14.76.13,1.28a.09.09,0,0,0,0,.17,7.07,7.07,0,0,1-.15.81c-.1.14,0,.31-.05.53l0,0c-.1-.06-.19.09-.09.16l.12.06a0,0,0,0,1,0,0c.13.09.23,0,.31.27l.06-.16c.18.06.37.09.55.15a.61.61,0,0,1,.12-.16h0c-.19-.07-.39-.1-.57-.15l0-.06c0-.39.14-.14.18-.49s0-.38.12-.82v0c.67.16,1.33.49,2,.67a2.22,2.22,0,0,0,.76.18.09.09,0,0,0,0-.18,2,2,0,0,1-.71-.18c-.66-.18-1.31-.5-2-.67.05-.29.09-.57.13-.85.36.1.72.25,1,.36.55.16,1.08.36,1.62.55a3.21,3.21,0,0,0,1.28.34.09.09,0,0,0,0-.18,3.31,3.31,0,0,1-1.23-.33c-.62-.22-1.22-.44-1.84-.63-.27-.08-.56-.2-.84-.29.05-.36.09-.72.14-1.08.6.13,1.19.34,1.77.5s1,.28,1.52.44a1.13,1.13,0,0,1,0-.18c-.56-.18-1.15-.34-1.71-.49s-1-.32-1.59-.44c0-.19.05-.39.07-.57l.06-.39a13.69,13.69,0,0,1,2.44.56.51.51,0,0,1,.07-.17l-.11,0a13.78,13.78,0,0,0-2.37-.54l0-.24a5.92,5.92,0,0,0,.19-.91c.31.08.6.2.92.3.52.16,1,.27,1.56.4,1,.26,2.05.56,3.07.84s1.68.74,2.58,1,2,.72,3,1a4.81,4.81,0,0,0,1.47.45c.12,0,.12-.17,0-.18a4.84,4.84,0,0,1-1.43-.44c-1-.34-2.05-.8-3.1-1.08s-1.76-.78-2.7-1c-1.11-.28-2.2-.61-3.31-.89a11.18,11.18,0,0,1-1.62-.48,2.93,2.93,0,0,0-.43-.13c.06-.39.12-.8.17-1.14a2.48,2.48,0,0,0,0-.27c.3.11.67.22,1.07.34.57.28,1.26.57,2.06.87,0,0,.57.13.93.28a16.47,16.47,0,0,0,2.21.85c.26.09.19,0,.55.11s1.44.48,2.1.72c1.72.46,3.7,1.2,4.75,1.54l2.62.92.61.2c.63-.26,1.11-.52,1.66-.69Z"/><path class="cls-1" d="M118.4,42a1.1,1.1,0,0,1,0,.18l.47.09.88.17a1,1,0,0,1,0-.18l-.86-.17Z"/><path class="cls-1" d="M118.61,43.9l1.74.34a.54.54,0,0,1,0-.18l-1.71-.34A1,1,0,0,1,118.61,43.9Z"/><path class="cls-1" d="M119.9,47.38c-.69-.12-1.38-.24-2.08-.34a1.1,1.1,0,0,1,0,.18l2.07.33A.86.86,0,0,1,119.9,47.38Z"/><path class="cls-1" d="M119.56,48.9l-1.42-.28a.84.84,0,0,1,0,.17l1.44.29A.57.57,0,0,1,119.56,48.9Z"/><path class="cls-1" d="M116.92,45.47q1.67.26,3.33.6a.57.57,0,0,1,0-.18q-1.66-.35-3.33-.6Z"/><path class="cls-1" d="M116.39,48.34,115,48.15a1.21,1.21,0,0,1,0,.18l1.5.19A1.09,1.09,0,0,1,116.39,48.34Z"/><path class="cls-1" d="M114.58,46.55s0,.07,0,.11l0,.07.59.09,1,.15a1,1,0,0,1,0-.18l-1-.15Z"/><path class="cls-1" d="M119,40.36c.58.11,1.17.21,1.75.34a1,1,0,0,1,0-.18L119,40.18A1.09,1.09,0,0,1,119,40.36Z"/><path class="cls-1" d="M116.19,49.8l1.11.21.51.11a.85.85,0,0,1,0-.17l-.5-.12c-.37-.08-.75-.14-1.13-.21A1,1,0,0,1,116.19,49.8Z"/><path class="cls-1" d="M114.46,49.32l-.79-.13-.37-.06a.49.49,0,0,1-.06.17l.38.06.83.14v-.09S114.46,49.35,114.46,49.32Z"/><path class="cls-1" d="M115.58,43.41l1.26.2,0-.17c-.43-.07-.85-.15-1.28-.21A1.09,1.09,0,0,1,115.58,43.41Z"/><path class="cls-1" d="M115.58,41.45a1.1,1.1,0,0,0,0,.18l.38.06.71.14a1.16,1.16,0,0,1,0-.18l-.7-.14Z"/><path class="cls-1" d="M121.21,49.43l1.09.22c.92.18,1.83.37,2.73.62.42.12.84.22,1.26.32s.66.33,1,.38c.12,0,.17-.15,0-.17-.37-.06-.72-.31-1.1-.4l-1.17-.3c-.9-.25-1.82-.44-2.73-.62l-1.11-.23Z"/><path class="cls-1" d="M124.88,48.54a7.05,7.05,0,0,1,2.66.82c.09.06.18-.09.09-.16a6.63,6.63,0,0,0-2.47-.79c-1.09-.23-2.17-.48-3.26-.69l-.34-.06a.54.54,0,0,1,0,.18h.06C122.71,48.05,123.8,48.3,124.88,48.54Z"/><path class="cls-1" d="M113.43,51.1c.71.1,1.43.22,2.14.34a1.13,1.13,0,0,1,0-.18c-.73-.12-1.45-.24-2.18-.34A1.09,1.09,0,0,1,113.43,51.1Z"/><path class="cls-1" d="M117.32,51.73c1.69.28,3.38.54,5.05.93.93.22,1.85.48,2.8.67a5.09,5.09,0,0,1,1.16.31,1.27,1.27,0,0,0,.61.23.09.09,0,0,0,0-.18c-.27,0-.71-.29-1-.37s-.78-.17-1.17-.26c-.87-.18-1.71-.43-2.58-.62-1.6-.37-3.23-.62-4.85-.89A1.13,1.13,0,0,1,117.32,51.73Z"/><path class="cls-1" d="M111.72,50.87a1.13,1.13,0,0,1,0-.18l-.5-.07-.54,0a1.3,1.3,0,0,1-.08.17l.62,0Z"/><path class="cls-1" d="M119.64,50.36a.49.49,0,0,1-.06.17l1,.23c1.11.25,2.23.48,3.33.79.58.17,1.16.34,1.75.49s1,.39,1.46.48c.11,0,.16-.16,0-.18-.49-.08-1-.34-1.46-.47s-1.17-.33-1.75-.49c-1.1-.31-2.22-.55-3.33-.8Z"/><path class="cls-1" d="M119,38.81c.45.06.9.16,1.34.24a1,1,0,0,1,0-.17c-.44-.09-.88-.18-1.33-.24C119,38.62,118.9,38.8,119,38.81Z"/><path class="cls-1" d="M133.67,53.76h.11c.12,0,.11-.17,0-.18a6.91,6.91,0,0,1-1-.22.87.87,0,0,1-.07.17A9.39,9.39,0,0,0,133.67,53.76Z"/><path class="cls-1" d="M20.24,60.11a1.22,1.22,0,0,1,0,.17l.12,0c.49-.11,1-.25,1.47-.39a.54.54,0,0,1,0-.18c-.43.12-.87.25-1.31.35Z"/><path class="cls-1" d="M132.07,61.14a6,6,0,0,0,2.06.42.09.09,0,0,0,0-.18,5.67,5.67,0,0,1-2-.41A.85.85,0,0,1,132.07,61.14Z"/><path class="cls-1" d="M19.93,56.72a.55.55,0,0,1,0-.18,2,2,0,0,1-.61.11.09.09,0,1,0,0,.18A2.12,2.12,0,0,0,19.93,56.72Z"/><path class="cls-1" d="M18.15,59.25a4.61,4.61,0,0,0,1.38-.31.83.83,0,0,1-.09-.16,4.32,4.32,0,0,1-1.29.29A.09.09,0,0,0,18.15,59.25Z"/><path class="cls-1" d="M16,52.15a6,6,0,0,0-1,.28.83.83,0,0,1,.09.16,6.9,6.9,0,0,1,1-.27c.26,0,.52-.13.78-.19,0-.06,0-.11,0-.17Z"/><path class="cls-1" d="M14.91,51.28a20.44,20.44,0,0,1-2,.79l-.12,0a.46.46,0,0,1,.07.16c.73-.2,1.4-.56,2.09-.82A.47.47,0,0,1,14.91,51.28Z"/><path class="cls-1" d="M130.24,56.65a2,2,0,0,1-.62-.11.54.54,0,0,1,0,.18,2.12,2.12,0,0,0,.62.11A.09.09,0,0,0,130.24,56.65Z"/><path class="cls-1" d="M131.39,59.07a4.47,4.47,0,0,1-1.29-.29.51.51,0,0,1-.09.16,4.76,4.76,0,0,0,1.38.31A.09.09,0,0,0,131.39,59.07Z"/><path class="cls-1" d="M127.78,61.25s0,0,0,.06v0l0,.08.29.06c.67.14,1.32.33,2,.52l.22.08a.74.74,0,0,1,.12-.13c-.81-.25-1.62-.5-2.46-.68Z"/><path class="cls-1" d="M126.34,62.48c.81.23,1.62.42,2.43.65a.53.53,0,0,1,0-.18l-2.43-.64A.47.47,0,0,1,126.34,62.48Z"/><path class="cls-1" d="M127.69,59.69v.18c.48.14,1,.28,1.47.39l.11,0a1.36,1.36,0,0,1,0-.17L129,60C128.55,59.94,128.12,59.81,127.69,59.69Z"/><path class="cls-1" d="M15.41,61.56a6.11,6.11,0,0,0,2.07-.42.49.49,0,0,1-.06-.17,5.77,5.77,0,0,1-2,.41A.09.09,0,0,0,15.41,61.56Z"/><path class="cls-1" d="M18,64.08a7,7,0,0,1,1.48-.53,1.16,1.16,0,0,1,0-.18,8.41,8.41,0,0,0-1.53.55C17.8,64,17.89,64.14,18,64.08Z"/><path class="cls-1" d="M12.47,53.56a2.12,2.12,0,0,0,1.07-.32.58.58,0,0,1,0-.19,2,2,0,0,1-1,.33A.09.09,0,0,0,12.47,53.56Z"/><path class="cls-1" d="M15.76,53.6c-.11,0-.12.18,0,.18h.12a9.22,9.22,0,0,0,1-.21.49.49,0,0,1-.06-.17A7,7,0,0,1,15.76,53.6Z"/><path class="cls-1" d="M15.2,63.25a3,3,0,0,0,.89-.24c.4-.14.83-.22,1.24-.33l.53-.11a.81.81,0,0,1,0-.22c-.19,0-.38.11-.58.15s-.69.17-1,.27a3.93,3.93,0,0,1-1.05.3A.09.09,0,0,0,15.2,63.25Z"/><path class="cls-1" d="M8.36,53.59c-.11,0-.11.19,0,.18a4.87,4.87,0,0,0,1.48-.45c.46-.15.92-.33,1.38-.5a.87.87,0,0,1-.07-.17c-.45.17-.9.35-1.36.5A4.84,4.84,0,0,1,8.36,53.59Z"/><path class="cls-1" d="M135.8,53.13a2.51,2.51,0,0,0,1.28.43.09.09,0,0,0,0-.18,2.43,2.43,0,0,1-1.19-.41h0a11.11,11.11,0,0,0-2.35-.82l-.81-.19a.5.5,0,0,1,0,.17c.26.06.52.14.78.19A12.14,12.14,0,0,1,135.8,53.13Z"/><path class="cls-1" d="M131.68,62.57l.54.11c.41.11.83.19,1.23.33a3.09,3.09,0,0,0,.89.24.09.09,0,0,0,0-.18,3.86,3.86,0,0,1-1-.3c-.34-.1-.69-.18-1-.27l-.57-.15A.83.83,0,0,1,131.68,62.57Z"/><path class="cls-1" d="M130.12,63.37a1.16,1.16,0,0,1,0,.18,7.22,7.22,0,0,1,1.48.53c.1.06.19-.1.09-.16A8.41,8.41,0,0,0,130.12,63.37Z"/><path class="cls-1" d="M117.77,60.06l-2.2-.64c-.35-.1-.72-.16-1.07-.25a2.56,2.56,0,0,1-.83-.29c-.09-.07-.22.06-.13.13a4.12,4.12,0,0,0,1.54.47c.74.17,1.47.42,2.2.63,1.45.41,2.91.78,4.37,1.17.74.2,1.49.37,2.24.55a1.36,1.36,0,0,1,0-.2l-1.9-.44C120.59,60.86,119.18,60.46,117.77,60.06Z"/><path class="cls-1" d="M23.2,62.48a.8.8,0,0,1,0-.18c-.8.23-1.62.43-2.42.65a1,1,0,0,1,0,.18C21.58,62.9,22.4,62.71,23.2,62.48Z"/><path class="cls-1" d="M21.52,61.49l.28-.06s0,0,0-.08v0s0,0,0-.06l-.11,0c-.84.18-1.65.43-2.46.68a.8.8,0,0,1,.13.13l.22-.08C20.2,61.82,20.85,61.63,21.52,61.49Z"/><path class="cls-1" d="M21.63,50.86a11.47,11.47,0,0,0-2.78.58l-.11,0a.87.87,0,0,1,.07.17,11.82,11.82,0,0,1,2.82-.6C21.74,51,21.74,50.85,21.63,50.86Z"/><path class="cls-1" d="M20.52,53.83a7.41,7.41,0,0,1,1.63-.48.09.09,0,0,0,0-.18,6.14,6.14,0,0,0-1.45.41c-.62.19-1.23.41-1.84.63a3.36,3.36,0,0,1-1.23.33.09.09,0,0,0,0,.18,3.25,3.25,0,0,0,1.28-.34C19.44,54.19,20,54,20.52,53.83Z"/><path class="cls-1" d="M22.26,54.23A13.67,13.67,0,0,0,19.7,55a2,2,0,0,1-.71.18.09.09,0,0,0,0,.18,2.22,2.22,0,0,0,.76-.18,13.41,13.41,0,0,1,2.51-.76C22.37,54.4,22.37,54.22,22.26,54.23Z"/><path class="cls-1" d="M46.82,44.54a1.11,1.11,0,0,1-.32,0,1.75,1.75,0,0,1-.29-.13,4.27,4.27,0,0,1-.6-.45,7.74,7.74,0,0,0-.62-.47h0l-.05,0,0,0-.09.07-.11.1-.1.09-.06.05-.11.1-.15.16-.15.15-.1.1s0,0-.08.1l-.06.09v.13a.3.3,0,0,1,.09.1l.08.1.05.12a.52.52,0,0,0,.07.11s0,0,.06.06l.13.11.14.11.11.09c.24.19.47.35.7.5a1.91,1.91,0,0,0,.81.29l.36,0a2,2,0,0,0,.35,0h.07l.2-.06.25-.09.25-.08.14,0,.14-.09.19-.13.11-.09.12-.1.1-.11c.06-.06.12-.11.18-.18l.18-.18a.66.66,0,0,1,.12-.12,1.25,1.25,0,0,0,.21-.35,1.59,1.59,0,0,0,.1-.39l0-.37a2.22,2.22,0,0,0-.11-.54,1.77,1.77,0,0,0-.19-.39,3.75,3.75,0,0,0-.24-.36c-.09-.12-.19-.26-.29-.42a7.84,7.84,0,0,0-.67-.63,5.43,5.43,0,0,0-.76-.54l-.08,0-.13-.08-.13-.08-.08,0-.8-.6L45.51,40a.3.3,0,0,1-.11-.18v0a2.26,2.26,0,0,1,0-.27.39.39,0,0,1,.06-.19.44.44,0,0,1,.15-.12l.29-.06h.3a.51.51,0,0,1,.28.08.31.31,0,0,1,.1.08l.14.1.12.1.08.06,0,0,.09.12.09.11s0,.06.05.06,0,0,.06,0h.09l.11,0,.15-.15a2.61,2.61,0,0,0,.22-.24l.23-.23.15-.15a.69.69,0,0,0,.1-.12l.07-.09V38.9a.41.41,0,0,0-.09-.22,1.12,1.12,0,0,0-.19-.17,7.29,7.29,0,0,0-.61-.45,3,3,0,0,0-.59-.31,3.22,3.22,0,0,0-.63-.15,3.29,3.29,0,0,0-.76,0,2.07,2.07,0,0,0-.93.33,3.22,3.22,0,0,0-.75.63l-.06.08-.06.06a5.62,5.62,0,0,0-.29.62,1.26,1.26,0,0,0-.07.65,1.9,1.9,0,0,0,.18.57,2.37,2.37,0,0,0,.32.5,4.47,4.47,0,0,0,.42.45,5.45,5.45,0,0,0,.47.37l.16.1.28.19.34.23.34.23.28.19.16.11a2,2,0,0,1,.56.53,1.53,1.53,0,0,1,.29.71l0,.2a.19.19,0,0,1-.14.12Z"/><path class="cls-1" d="M56.36,40c0-.42,0-.85-.06-1.28l0-.35s0-.12,0-.24,0-.23,0-.36,0-.23,0-.34,0-.17,0-.21,0-.09,0-.17,0-.14,0-.16,0,0,0,0l0,0-.14,0-.1,0-1.6.14-.09.05V37s0,.09,0,.12,0,.1,0,.18,0,.13,0,.15,0,.13.06.3.07.33.11.51.07.35.1.51a2.84,2.84,0,0,1,.05.29c.06.3.1.6.13.89l.09.89c0,.2,0,.41,0,.63a4.56,4.56,0,0,1,0,.64,2.55,2.55,0,0,1-.13.61,1.57,1.57,0,0,1-.33.53,1,1,0,0,1-.18.18.4.4,0,0,1-.23.08.43.43,0,0,1-.37-.14,1.21,1.21,0,0,1-.25-.32.79.79,0,0,0,0-.12,1.18,1.18,0,0,1-.07-.2c0-.07-.05-.14-.08-.2s0-.12,0-.15c-.2-.63-.37-1.25-.51-1.87a16.54,16.54,0,0,1-.31-1.91c0-.21,0-.43,0-.64s0-.43,0-.64a.45.45,0,0,0-.05-.17.26.26,0,0,0-.11-.14.87.87,0,0,1-.22,0l-.31,0-.32,0H50.5l-.15,0-.16,0a.33.33,0,0,0-.11.18l0,.28c0,.11,0,.22,0,.33l.06.33c0,.08,0,.19.06.34s0,.31.08.47,0,.31.08.44,0,.22,0,.26a.51.51,0,0,0,0,.09l0,.14,0,.13a.28.28,0,0,1,0,.08s0,.16.06.35l.09.6q.06.31.09.6c0,.19,0,.3.06.35l0,.08a.5.5,0,0,0,0,.12.31.31,0,0,1,0,.13.51.51,0,0,1,0,.09.11.11,0,0,0,0,0s0,.06,0,.08l0,.08a.06.06,0,0,0,0,0s0,.05,0,.11,0,.14,0,.22a2.25,2.25,0,0,1,0,.22.62.62,0,0,1,0,.11,3,3,0,0,0,.41.8,2.63,2.63,0,0,0,.6.6,2.19,2.19,0,0,0,.75.37,2.39,2.39,0,0,0,.89.08,3.45,3.45,0,0,0,.67-.14,4.24,4.24,0,0,0,.62-.28,2.58,2.58,0,0,0,.92-.87,2.3,2.3,0,0,0,.34-1.22,2,2,0,0,1,0-.3v-1a1.88,1.88,0,0,1,0-.29C56.38,40.81,56.37,40.38,56.36,40Z"/><path class="cls-1" d="M60.91,42.24,62,44.06a1.21,1.21,0,0,0,.11.18l.13.19.1.14a.18.18,0,0,0,.15.07h.11l.09,0,.11,0,.26,0,.4-.06.4-.06.27,0,.09-.09h0a1.16,1.16,0,0,0-.16-.5l-.24-.46,0-.06a.26.26,0,0,1,0-.07l-.06,0-.07-.07-.1-.12-.09-.12a4.84,4.84,0,0,1-.29-.52,2.67,2.67,0,0,0-.32-.48,2.83,2.83,0,0,1-.26-.31l-.23-.31,0-.08c0-.05,0-.08,0-.09v0a1.52,1.52,0,0,0,.51-.37,2.63,2.63,0,0,0,.38-.56,2.56,2.56,0,0,0,.22-.64,2.25,2.25,0,0,0,.06-.62,2.85,2.85,0,0,0-.16-.79,2.33,2.33,0,0,0-.39-.73,1.9,1.9,0,0,0-.61-.55,1.71,1.71,0,0,0-.81-.25h-.53l-.87,0-.87.06-.18,0-.17,0-.18,0-.25,0-.25,0H58l0,.06c0,.11,0,.22,0,.33a1.53,1.53,0,0,0,0,.18c0,.09,0,.2,0,.31s0,.23,0,.33,0,.2,0,.25v.35c0,.15,0,.3,0,.44s0,.28,0,.39,0,.18.07.2,0,.14,0,.29,0,.33.08.52l.09.51a1.78,1.78,0,0,1,0,.29c0,.09,0,.23,0,.41s0,.4.07.63,0,.49.07.75,0,.5.07.74,0,.45.06.64,0,.33,0,.41a.2.2,0,0,1,0,0,.08.08,0,0,0,0,0l.12,0,.13,0,.11,0,.13,0h.2l.21,0,.39,0,.38-.06.16-.05a.13.13,0,0,0,.09-.15c0-.55-.07-1.1-.11-1.65a1.47,1.47,0,0,1-.08-.3,2.91,2.91,0,0,0,0-.31c0-.14,0-.27-.08-.41a2.7,2.7,0,0,1-.06-.41v-.06a1.56,1.56,0,0,1,.35.33A4.68,4.68,0,0,1,60.91,42.24Zm-.57-2.66h-.08l-.06-.08c0-.13,0-.23,0-.32a2.51,2.51,0,0,0,0-.27c0-.09,0-.17,0-.23l0-.26a.32.32,0,0,1,0-.06l0,0v0s0,0,.06-.06l.15,0,.17,0,.11,0a1.23,1.23,0,0,1,.28,0,2.36,2.36,0,0,1,.38.1,1.19,1.19,0,0,1,.34.16.29.29,0,0,1,.17.19v.1a.08.08,0,0,1,0,0,.53.53,0,0,0,0,.13.2.2,0,0,1,0,.13,1.39,1.39,0,0,1-.53.41,2.34,2.34,0,0,1-.66.13Z"/><path class="cls-1" d="M68.43,38l.48,0,.3,0h.19l.2,0,.33-.07a.83.83,0,0,0,.25-.12.5.5,0,0,0,.17-.21.93.93,0,0,0,.05-.32c0-.15,0-.31,0-.48a.87.87,0,0,0-.17-.44H68.42a1.76,1.76,0,0,0-.23,0h-.76l-.51,0-.6.06-.5.06-.21,0,0,0v.93c0,.14,0,.26,0,.35,0,.4,0,.8.05,1.2,0,.64,0,1.26.07,1.89s.07,1.25.12,1.87c0,0,0,0,0,.1l0,.16a.78.78,0,0,0,0,.16.51.51,0,0,1,0,.1c0,.37,0,.74.05,1.11a.16.16,0,0,0,.11.09.42.42,0,0,0,.15,0l.16,0h.14a.06.06,0,0,1,0,0h.16a.17.17,0,0,0,.06-.06l.86,0,0,0,.07-.07a.42.42,0,0,0,.12-.25,1.59,1.59,0,0,0,0-.17,1.13,1.13,0,0,0,0-.14L67.79,41l2-.06a.45.45,0,0,0,.28-.12.3.3,0,0,0,.14-.26c0-.37,0-.74,0-1.12a.13.13,0,0,0,0-.06.44.44,0,0,1,0-.1.27.27,0,0,0-.18-.19l-.3,0c-.25,0-.5,0-.74,0l-.74,0h-.38l-.06,0c0-.1,0-.2,0-.28a1.94,1.94,0,0,0,0-.24c0-.08,0-.15,0-.2s0-.23,0-.34L68,38Z"/><path class="cls-1" d="M75.78,38.76a.18.18,0,0,0,0-.07l0-.06,0,0,.08-.1.09-.13.09-.12,0-.06.11-.23a.66.66,0,0,0,.08-.25v-.44a.56.56,0,0,0-.06-.2,1,1,0,0,0-.13-.2,2.28,2.28,0,0,0-.22-.22l-.26-.17a.63.63,0,0,0-.25-.07h-.67a.49.49,0,0,0-.23.06,1,1,0,0,0-.21.1,1.12,1.12,0,0,0-.4.35.91.91,0,0,0-.15.5,1.61,1.61,0,0,0,.14.64,5.34,5.34,0,0,0,.28.59l-.11.1L74,38.9c0,.06-.11.11-.16.16l-.1.11a1.32,1.32,0,0,0-.29.5,2.38,2.38,0,0,0-.08.58v.24a.84.84,0,0,0,.08.2,1.28,1.28,0,0,0,.11.2.87.87,0,0,0,.16.17.45.45,0,0,0,.19.11,1.42,1.42,0,0,0,.44.11,3.44,3.44,0,0,0,.46,0,2.88,2.88,0,0,0,.59-.06,3.3,3.3,0,0,0,.56-.18l0,0L76,41l.07,0h.12l.18.26.19.24a.24.24,0,0,0,.17,0l.15-.1.08-.05.08,0,.05,0,.07-.05.06,0s0,0,0,0a.36.36,0,0,1,.09-.09l.07-.07,0-.06a.1.1,0,0,0,0,0,.09.09,0,0,0,0,0l0-.06-.08-.09-.11-.13-.1-.14a.34.34,0,0,1,0-.1.15.15,0,0,1,0-.09l.08-.07L77.3,40a.24.24,0,0,0,0-.12v-.07A1.79,1.79,0,0,0,77,39.4h-.08l-.38.38h0l0,0,0,0-.13-.15-.15-.17L76,39.25c-.05,0-.07-.07-.07-.08s0,0,0-.07L75.83,39a.41.41,0,0,1,0-.09s0,0,0,0V38.8Zm-.86-1.14a.24.24,0,0,1,.27-.27.19.19,0,0,1,.17.08v.13a.93.93,0,0,1,0,.29.56.56,0,0,1-.17.24s0,0,0,0l0,0s0,0,0,0,0,0,0,0a.41.41,0,0,0,0-.08.36.36,0,0,1,0-.09.59.59,0,0,1,0-.08l0,0Zm.5,2.61-.06,0-.09,0-.1.05-.06,0H75a.63.63,0,0,1-.19,0,.61.61,0,0,1-.18-.09.41.41,0,0,1-.12-.14.41.41,0,0,1,0-.19.29.29,0,0,1,0-.16.45.45,0,0,1,.1-.13.71.71,0,0,1,.14-.1l.15-.08a.2.2,0,0,1,.08,0,.17.17,0,0,1,.06.06l.07.09.11.16.11.16.09.12s0,0,0,0v0A.06.06,0,0,1,75.42,40.23Z"/><path class="cls-1" d="M82.83,38.67c0-.1,0-.2,0-.29v-.2h.05l0,0a.4.4,0,0,1,.15,0h1a.25.25,0,0,0,.15,0,.33.33,0,0,0,.07-.13,1,1,0,0,0,0-.17v-.14s0-.14,0-.27a2.67,2.67,0,0,0,0-.4,2.38,2.38,0,0,0,0-.39c0-.12-.06-.19-.11-.21l-.77,0-.76,0H79.3l0,0,0,1.5c0,.17.07.26.23.26h.73l.21,0h.15a.21.21,0,0,1,.15.07.8.8,0,0,1,.08.16c0,.06,0,.12,0,.18a1.15,1.15,0,0,1,0,.16c0,.06,0,.15,0,.28s0,.27,0,.41,0,.27,0,.39,0,.21,0,.26v.24c0,.12,0,.25,0,.39v.4c0,.13,0,.23,0,.29v.3a2.17,2.17,0,0,1,0,.26c0,.09,0,.17,0,.26s0,.14,0,.16v.11a5.25,5.25,0,0,1,0,.57,5.09,5.09,0,0,0,0,.56v.21c0,.09,0,.14,0,.14v.41a1,1,0,0,0,0,.19c0,.06,0,.08,0,.08l.09.1h.29l.47,0h1l0,0c0-.09,0-.16,0-.22s0-.12,0-.18a1,1,0,0,0,0-.15c0-.21,0-.42,0-.63,0-.73,0-1.45,0-2.17s0-1.43,0-2.15V39C82.82,38.87,82.82,38.77,82.83,38.67Z"/><path class="cls-1" d="M88,37.51c0-.22,0-.43.06-.64a.35.35,0,0,0,0-.17.28.28,0,0,0-.09-.16h-.54l-.31,0-.22,0h-.07l-.11,0-.11,0h-.37a.39.39,0,0,0-.14.17c0,.09,0,.18,0,.28s0,.22,0,.33,0,.22,0,.34a1.87,1.87,0,0,0,0,.34v.48c0,.16,0,.31,0,.45a2.1,2.1,0,0,1,0,.26v.09a24.77,24.77,0,0,0,0,.27v1.05c0,.21,0,.41,0,.6v.44a.53.53,0,0,1,0,.13.53.53,0,0,1,0,.13v.14s0,.06,0,.09a.22.22,0,0,0,0,.08s0,0,0,0v.12a1.62,1.62,0,0,1,0,.23,1.5,1.5,0,0,0,0,.22.45.45,0,0,1,0,.12,3.32,3.32,0,0,0,.28.84,2.51,2.51,0,0,0,.49.7,2.38,2.38,0,0,0,.69.48,2.23,2.23,0,0,0,.86.22,3.74,3.74,0,0,0,.68,0,3.94,3.94,0,0,0,.65-.18,2.69,2.69,0,0,0,1.06-.7A2.38,2.38,0,0,0,91.42,43s0-.14,0-.3.05-.32.08-.49,0-.34.08-.49,0-.25,0-.29c.07-.42.14-.85.2-1.27s.1-.85.14-1.28c0-.11,0-.23,0-.35s0-.12,0-.24,0-.24,0-.36,0-.24,0-.35a1.4,1.4,0,0,0,0-.21V37l0,0,0,0-.13-.06-.09,0-1.61-.12-.09,0,0,.1c0,.05,0,.09,0,.12a1.36,1.36,0,0,1,0,.18v.15s0,.14,0,.3,0,.34,0,.53,0,.35,0,.51V39c0,.3,0,.6,0,.89l-.06.9c0,.2,0,.4,0,.62a2.59,2.59,0,0,1-.1.63,2.25,2.25,0,0,1-.22.58,1.43,1.43,0,0,1-.4.48l-.22.15a.41.41,0,0,1-.23,0,.48.48,0,0,1-.35-.19,1.58,1.58,0,0,1-.19-.36s0-.06,0-.13a1.12,1.12,0,0,1,0-.21c0-.07,0-.14,0-.21a1,1,0,0,0,0-.15c-.09-.66-.16-1.3-.2-1.93a15.69,15.69,0,0,1,0-1.94C88,37.93,88,37.72,88,37.51Z"/><path class="cls-1" d="M93.61,42.06c0,.19,0,.4,0,.63s0,.49,0,.75,0,.51,0,.74,0,.45,0,.64,0,.33,0,.42a.1.1,0,0,1,0,0,0,0,0,0,0,0,0l.11.05.13,0,.1,0,.13,0,.12,0,.07,0,.21,0,.39,0h.39l.17,0a.12.12,0,0,0,.1-.12c.06-.55.11-1.11.16-1.66a1.48,1.48,0,0,1,0-.31c0-.11,0-.21,0-.3s0-.28,0-.42a2,2,0,0,1,0-.42v-.06a1.42,1.42,0,0,1,.29.39,4.25,4.25,0,0,1,.21.43c.25.66.51,1.31.76,2,0,0,0,.09.08.2s.08.17.1.2,0,.11.08.16a.16.16,0,0,0,.14.09h1.38a2.31,2.31,0,0,0,.27,0l.1-.07h0a1.25,1.25,0,0,0-.08-.52c-.07-.19-.12-.35-.17-.49a.26.26,0,0,0,0-.07.21.21,0,0,1,0-.06l-.06-.07,0-.08a.39.39,0,0,1-.08-.14l-.07-.12c-.07-.17-.14-.35-.21-.56a2.17,2.17,0,0,0-.24-.53,2.77,2.77,0,0,1-.2-.34,3.51,3.51,0,0,0-.18-.34.84.84,0,0,0,0-.1s0-.08,0-.09v0a1.4,1.4,0,0,0,.57-.29,2.69,2.69,0,0,0,.46-.49,2.59,2.59,0,0,0,.32-.59,2.44,2.44,0,0,0,.16-.6,2.78,2.78,0,0,0,0-.81,2.64,2.64,0,0,0-.27-.79,2.22,2.22,0,0,0-.51-.64,1.86,1.86,0,0,0-.76-.37l-.11,0-.17,0-.16,0H96.9L96,37.35l-.87-.09a.62.62,0,0,1-.18,0h-.35l-.25,0-.26,0-.16,0-.06,0c0,.11,0,.22-.07.33s0,.08,0,.18a1.89,1.89,0,0,1,0,.31l0,.33c0,.11,0,.19,0,.24s0,.2-.06.35l-.06.44c0,.14,0,.27,0,.39a.3.3,0,0,0,0,.2,2.73,2.73,0,0,0,0,.3c0,.16,0,.34,0,.52v.52a1.37,1.37,0,0,1,0,.3C93.62,41.74,93.62,41.87,93.61,42.06ZM95.74,40c0-.08,0-.17,0-.27s0-.17,0-.23l0-.26,0-.06a.18.18,0,0,1,0-.06v0s0,0,.07,0L96,39h.28a1,1,0,0,1,.28.07l.36.16a1.89,1.89,0,0,1,.31.22.31.31,0,0,1,.13.22v.06a.08.08,0,0,0,0,0v0s0,.09,0,.13a.14.14,0,0,1-.06.11,1.33,1.33,0,0,1-.59.32,2.12,2.12,0,0,1-.68,0l-.14,0h-.08l0-.09Z"/><path class="cls-1" d="M103.26,40.57a1,1,0,0,1,0-.2c0-.12,0-.23,0-.34l.31,0,.47.05.46,0a2.16,2.16,0,0,0,.31,0l.19,0h.2a1.87,1.87,0,0,0,.34,0,.77.77,0,0,0,.27-.07.47.47,0,0,0,.19-.18.8.8,0,0,0,.11-.31c0-.15,0-.31,0-.48a1,1,0,0,0-.1-.46l-.29-.05-.44-.08-.44-.07-.27,0-.11,0-.2,0-.23,0-.18,0-.15,0-.19,0h-.24l-.5,0-.6,0-.51,0h-.22l-.05,0-.08.49c0,.14,0,.28-.07.42s0,.26,0,.35c-.05.4-.09.8-.14,1.2-.08.63-.15,1.25-.23,1.87s-.13,1.24-.18,1.87v.1a.86.86,0,0,1,0,.16v.26c0,.37-.09.74-.14,1.1a.29.29,0,0,0,.1.12l.15.06.15,0,.13,0,0,0,0,0h.11s0,0,.07,0l.85.11.06,0,.08-.05a.51.51,0,0,0,.16-.23s0-.09,0-.17a.87.87,0,0,0,0-.14l.36-2.82,2,.27a.52.52,0,0,0,.3-.08.35.35,0,0,0,.18-.23l.15-1.11a.06.06,0,0,0,0-.06.17.17,0,0,1,0-.1.25.25,0,0,0-.15-.22,1.77,1.77,0,0,0-.29-.07c-.25,0-.5-.06-.74-.07l-.74-.08-.38,0,0,0c0-.1,0-.2,0-.28A1.94,1.94,0,0,1,103.26,40.57Z"/><path class="cls-1" d="M101.54,57.65s0-.07,0-.07A0,0,0,1,0,101.54,57.65Z"/><path class="cls-1" d="M79.69,30.52l5.81-.09a.42.42,0,0,0,0-.84l-5.81.09A.42.42,0,0,0,79.69,30.52Z"/><path class="cls-1" d="M44.47,32.31a.75.75,0,0,0,.17.41c.09.07.16.1.22.08a.31.31,0,0,1-.21-.13A1,1,0,0,1,44.47,32.31Z"/><path class="cls-1" d="M41.88,32.42s0,0,0,0h0s0,0,0,0Z"/><path class="cls-1" d="M41.83,32.38s0,0,0,0a0,0,0,0,0,0,0s0,0,0,0A0,0,0,0,0,41.83,32.38Z"/><path class="cls-1" d="M47.29,31.9s0,0,.05,0,0,0,0,0h-.06Z"/><path class="cls-1" d="M49.72,31.6s0,0,0,0,0,0,0,0h-.07Z"/><path class="cls-1" d="M51.79,28.58a0,0,0,0,0,0,0s0,0,0,0,0,0,0,0Z"/><path class="cls-1" d="M54.14,30.62s0,0,0,0h0S54.15,30.63,54.14,30.62Z"/><path class="cls-1" d="M54.1,30.53a.56.56,0,0,1-.07.13l-.13.13a.78.78,0,0,1-.18.11.71.71,0,0,1-.26.07.2.2,0,0,0,.11,0l.19-.06a1,1,0,0,0,.19-.12.4.4,0,0,0,.15-.19h0S54.12,30.57,54.1,30.53Z"/><path class="cls-1" d="M54.13,30.67l0,0a.07.07,0,0,0,0,.05s0,0,0,0S54.13,30.68,54.13,30.67Z"/><path class="cls-1" d="M41.12,31.23a1.34,1.34,0,0,0-.12.58,1,1,0,0,0,.15.53.89.89,0,0,0,.46.34,1.16,1.16,0,0,0,1-.13,3.64,3.64,0,0,0,1-1.1l.43.13.43.11a2,2,0,0,0,0,.51,1.22,1.22,0,0,0,.15.36.57.57,0,0,0,.21.2.58.58,0,0,0,.23.08L45,32.75l-.08-.11,0-.11a.15.15,0,0,1,0-.08.67.67,0,0,0,.06.12.69.69,0,0,0,.11.13l.14.11a.59.59,0,0,0,.19,0,.28.28,0,0,1-.12-.08.53.53,0,0,1-.13-.13,1.29,1.29,0,0,1-.09-.16.38.38,0,0,1,0-.17,1.13,1.13,0,0,0,.09.2.86.86,0,0,0,.15.17.42.42,0,0,0,.39.11.38.38,0,0,0,.13-.09.24.24,0,0,0,.05-.14.2.2,0,0,1-.15.11.26.26,0,0,1-.19-.09.81.81,0,0,1-.15-.31,1.81,1.81,0,0,1-.05-.56,1.17,1.17,0,0,0,.24-.09h0s0,0,0,0a.71.71,0,0,0,.12.13l.13.09a.12.12,0,0,0,.12,0l.06-.17a10,10,0,0,1,.39-.93,4.72,4.72,0,0,1,.43-.72A2.05,2.05,0,0,1,47,29.8a.66.66,0,0,1,.19-.12s0,0-.1,0a.42.42,0,0,1,.14-.09l-.09.24a1.52,1.52,0,0,0-.09.25,2.09,2.09,0,0,0-.08.23.94.94,0,0,0-.06.18c0,.07,0,.18-.08.33a2,2,0,0,0,0,.43.87.87,0,0,0,.09.4.43.43,0,0,0,.36.21.47.47,0,0,1-.2-.1l0,0,.06,0a.46.46,0,0,0,.3,0,1.26,1.26,0,0,0,.28-.25,2,2,0,0,0,.18-.23l0,.07.11.12a.42.42,0,0,0,.14.09.11.11,0,0,0,.12,0,1.38,1.38,0,0,0,.06-.16,8.14,8.14,0,0,1,.39-.93,4.73,4.73,0,0,1,.42-.72,2.11,2.11,0,0,1,.25-.26.47.47,0,0,1,.19-.12s0,0-.11,0a.6.6,0,0,1,.15-.09c0,.07-.07.15-.1.24l-.09.24c0,.08-.05.16-.08.23s0,.14-.05.19,0,.18-.08.32a1.65,1.65,0,0,0,0,.44.87.87,0,0,0,.09.4.41.41,0,0,0,.35.21.58.58,0,0,1-.19-.1l0,0,0,0a.41.41,0,0,0,.3-.06.9.9,0,0,0,.29-.24,2.36,2.36,0,0,0,.26-.36,4,4,0,0,0,.22-.4s0,.09,0,.13a1,1,0,0,0,.15.45.4.4,0,0,0,.36.18.53.53,0,0,0,.36-.11,1.4,1.4,0,0,0,.35-.44.5.5,0,0,0,.09.26.27.27,0,0,0,.2.14.42.42,0,0,0,.29,0,.94.94,0,0,0,.28-.22,1.76,1.76,0,0,0,.24-.33,1.09,1.09,0,0,0,.08-.15v0a.94.94,0,0,0,.11.43.31.31,0,0,0,.32.15.67.67,0,0,0,.42-.17,1,1,0,0,0,.25-.33.51.51,0,0,0,.11.22.34.34,0,0,0,.2.13.45.45,0,0,0,.3,0,1.31,1.31,0,0,0,.27-.22,2.3,2.3,0,0,0,.25-.34l0-.05v.06a.52.52,0,0,0,.42.44.42.42,0,0,0,.29,0,1,1,0,0,0,.28-.23,2.8,2.8,0,0,0,.24-.33,3.72,3.72,0,0,0,.21-.39l.16-.37c0-.11.08-.21.1-.28a.22.22,0,0,0,0-.15s0-.06-.06-.07a.15.15,0,0,0-.09,0,.15.15,0,0,0-.07.1,1.18,1.18,0,0,0-.08.18c0,.09-.09.2-.14.33s-.11.25-.18.38a3.59,3.59,0,0,1-.21.35.94.94,0,0,1-.2.23.16.16,0,0,1-.19,0c-.09-.06-.11-.17-.07-.36a4,4,0,0,1,.27-.82,3.17,3.17,0,0,0,.52-.62,3,3,0,0,0,.28-.57,1.61,1.61,0,0,0,.09-.5,1.35,1.35,0,0,0,0-.37.54.54,0,0,0-.14-.24,1.21,1.21,0,0,0-.24-.21l-.24-.12c-.08,0-.13,0-.15,0a.13.13,0,0,1,0,.06.17.17,0,0,0,0,.07s-.05-.07-.08-.08l0,0a.58.58,0,0,1,.1.49,7.31,7.31,0,0,1-.19.79c0,.18-.12.37-.19.58s-.14.45-.23.7c0,.05,0,.1,0,.15s0,.13-.09.2l-.17.35a3,3,0,0,1-.2.32,1.12,1.12,0,0,1-.21.22.16.16,0,0,1-.18,0c-.05,0-.07-.07-.06-.16a1.1,1.1,0,0,1,.06-.32c0-.12.08-.26.14-.41s.12-.3.19-.45.13-.3.19-.44l.17-.35a.08.08,0,0,0,0-.12.59.59,0,0,0-.21-.05,1,1,0,0,0-.24,0q-.12,0-.12,0l0,.06a.19.19,0,0,0,0,.07.68.68,0,0,0-.41-.1,1.1,1.1,0,0,0-.55.19.69.69,0,0,0-.18.26,3.46,3.46,0,0,0-.2.5c0,.1-.05.21-.08.32l0,0a1.82,1.82,0,0,1-.13.3c0,.11-.11.22-.17.34a2,2,0,0,1-.2.32,1.11,1.11,0,0,1-.2.22.2.2,0,0,1-.19,0,.19.19,0,0,1-.06-.17,3,3,0,0,1,.06-.33c0-.13.08-.27.14-.43s.11-.29.17-.44.13-.27.18-.39l.15-.26a.07.07,0,0,0,0-.12.53.53,0,0,0-.2-.05h-.24l-.13,0a2.62,2.62,0,0,0-.17.42,7.72,7.72,0,0,0-.22.77,4.56,4.56,0,0,1-.38.86c-.13.2-.22.28-.29.25s-.09-.07-.1-.16a.91.91,0,0,1,0-.33,2.65,2.65,0,0,1,.08-.43c.05-.16.1-.32.16-.49a4.62,4.62,0,0,1,.19-.47c.07-.15.14-.28.21-.4a.38.38,0,0,0-.14.16,1.56,1.56,0,0,0-.16.28.64.64,0,0,1,.06-.18,1,1,0,0,1,.08-.15.36.36,0,0,1,.08-.12l0,0s0,0-.07,0h-.17l-.22,0a1,1,0,0,0-.21.08.67.67,0,0,0-.17.26,2.56,2.56,0,0,0-.16.49,2.65,2.65,0,0,0-.06.3l-.06.15-.14.32c-.06.12-.12.25-.2.38a3.59,3.59,0,0,1-.21.35,1,1,0,0,1-.21.24c-.08.06-.14.08-.2.05s0-.18,0-.46a11.68,11.68,0,0,1,.46-1.18s0-.1,0-.18a1.8,1.8,0,0,0-.07-.27,1.47,1.47,0,0,0-.14-.28.67.67,0,0,0-.2-.21.85.85,0,0,0-.43.3,3.6,3.6,0,0,0-.43.59c0-.12.07-.23.1-.33s.06-.21.09-.3H49l-.17,0-.18.07a.41.41,0,0,0-.13.08c-.07.3-.15.63-.25,1a.83.83,0,0,1,0,.15c0,.09-.08.19-.13.3l-.19.38a2.33,2.33,0,0,1-.22.35,1.1,1.1,0,0,1-.21.25.19.19,0,0,1-.2,0c-.05,0,0-.18,0-.46a11.68,11.68,0,0,1,.46-1.18.92.92,0,0,0,0-.18,1.8,1.8,0,0,0-.07-.27,1.22,1.22,0,0,0-.14-.28.55.55,0,0,0-.2-.2.76.76,0,0,0-.43.29,4.71,4.71,0,0,0-.42.59l.09-.33q0-.16.09-.3a.16.16,0,0,0-.1,0,.51.51,0,0,0-.17,0l-.18.06a.37.37,0,0,0-.14.08q-.09.46-.24,1c-.06.22-.14.47-.21.73,0,0-.06,0-.1,0a.75.75,0,0,1-.21,0c0-.22.08-.46.14-.71s.11-.5.17-.75.11-.5.17-.73.1-.44.14-.63a4,4,0,0,0,.08-.48.58.58,0,0,0,0-.25.45.45,0,0,0-.16-.09l-.23-.08-.24-.05c-.07,0-.12,0-.13,0a.67.67,0,0,1,0,.19l-.42.89c-.13.3-.27.59-.4.88s-.26.55-.39.81-.26.5-.38.71l-.3-.09-.28-.1a1.83,1.83,0,0,0-.89-.12,1.31,1.31,0,0,0-1.05.73ZM56.63,28l0,.13c0,.05,0,.09-.05.13a.54.54,0,0,1-.06.11.19.19,0,0,0,0-.1l0-.13c0-.05,0-.09.05-.13s0-.08,0-.09A.17.17,0,0,1,56.63,28Zm-.15.24a2.09,2.09,0,0,1-.35.59c.13-.33.3-.72.5-1.19A2,2,0,0,1,56.48,28.27Zm-.31-1.37a.35.35,0,0,1,0,.18,1.64,1.64,0,0,1,0,.23v0a.9.9,0,0,0,0-.22C56.17,27,56.17,26.92,56.17,26.9Zm0,.54a.29.29,0,0,1,0,.09c0,.06,0,.11,0,.13A2.25,2.25,0,0,0,56.14,27.44Zm-.09,1.37a2.75,2.75,0,0,1,.11-.29q.06-.15.12-.33l.13-.31a2.26,2.26,0,0,1,.11-.26.89.89,0,0,1,.07-.16l-.27.67-.1.27c0,.09-.07.18-.1.26a1.65,1.65,0,0,0-.09.21L56,29C56,29,56,28.9,56.05,28.81Zm-.39,1.55a.19.19,0,0,0,.11.12.25.25,0,0,0,.17,0,.59.59,0,0,0,.19-.13.39.39,0,0,1-.17.14.39.39,0,0,1-.18,0,.22.22,0,0,1-.14-.13.56.56,0,0,1,0-.3A.72.72,0,0,0,55.66,30.36Zm-1.59-.2-.09.22a1.4,1.4,0,0,1-.12.18.12.12,0,0,1,0,.05.15.15,0,0,0,0-.06,2,2,0,0,0,.12-.21,2.14,2.14,0,0,0,.1-.22,1.32,1.32,0,0,0,0-.18A1,1,0,0,1,54.07,30.16ZM53.87,29,54,28.8a.31.31,0,0,1,0-.09.15.15,0,0,1,.11-.08.34.34,0,0,1,.14,0,.34.34,0,0,1,.12,0s0,.05,0,.07A9.51,9.51,0,0,1,54,30.16q-.21.46-.33.42a.19.19,0,0,1-.06-.17.88.88,0,0,1,0-.31c0-.11,0-.24.08-.37s.08-.26.12-.37.07-.22.11-.31.05-.14.06-.18a2.24,2.24,0,0,0-.13.29c-.06.15-.11.3-.16.47,0-.11.06-.22.1-.33S53.84,29.1,53.87,29Zm-.49,1.06a3.56,3.56,0,0,1,.1-.47c.05-.16.09-.29.14-.42a2,2,0,0,1,.12-.25,1.4,1.4,0,0,0-.1.25,3.14,3.14,0,0,0-.13.4c0,.15-.08.3-.11.46a2.39,2.39,0,0,0,0,.44A1.49,1.49,0,0,1,53.38,30.07Zm-1.11.73a.26.26,0,0,0,.11,0,.15.15,0,0,1-.13,0s0,0,0,0Zm-.58-.08,0,.08a.15.15,0,0,1,0,.06l0,0s0,0,.06-.08a1,1,0,0,0,.09-.15A.14.14,0,0,1,51.69,30.72Zm-.17,0c0-.07.09-.14.13-.22a2.12,2.12,0,0,0,.11-.21.91.91,0,0,1,.06-.16.36.36,0,0,1,0,.11,1.65,1.65,0,0,1-.09.21l-.14.25a1.11,1.11,0,0,1-.18.19A.86.86,0,0,0,51.52,30.72Zm-.22-1.28s0,.1,0,.16l-.06.18c0,.06,0,.11,0,.15a.44.44,0,0,1,0-.14,1.21,1.21,0,0,1,0-.18l.06-.16a.41.41,0,0,1,0-.09A.44.44,0,0,1,51.3,29.44Zm-.2-.14a1.72,1.72,0,0,1,.07-.21,1.26,1.26,0,0,1,.07-.16.31.31,0,0,1,0-.09l0,.12c0,.05,0,.11-.07.17s0,.12-.07.19a1.54,1.54,0,0,0-.05.17A.9.9,0,0,1,51.1,29.3Zm-2,0a3.25,3.25,0,0,1,.23-.29,1.79,1.79,0,0,1,.23-.24c.07-.07.13-.09.16-.07a.52.52,0,0,0-.22.14,3.27,3.27,0,0,0-.24.27,1.56,1.56,0,0,0-.2.27.67.67,0,0,1-.12.14S49,29.39,49.09,29.29Zm-.15.37.3-.37a2.81,2.81,0,0,1,.29-.3c.08-.08.14-.12.16-.1a.3.3,0,0,0-.11.07l-.17.17a2.19,2.19,0,0,0-.2.22l-.19.24a2.65,2.65,0,0,0-.17.22.77.77,0,0,0-.1.15A2.2,2.2,0,0,1,48.94,29.66Zm-.38,1.06.18-.4a3.44,3.44,0,0,1,.22-.38.79.79,0,0,1,.21-.25A1.13,1.13,0,0,0,49,30c-.08.12-.15.25-.22.38s-.13.27-.18.4a.36.36,0,0,0,0,.09Zm-1.9-1.13a3.25,3.25,0,0,1,.23-.29,1.79,1.79,0,0,1,.23-.24c.08-.07.13-.09.16-.07a.54.54,0,0,0-.21.14,2.16,2.16,0,0,0-.25.27l-.2.27-.11.15Zm-.14.38c.09-.13.19-.25.29-.37s.2-.22.29-.31.14-.11.17-.1a.26.26,0,0,0-.12.07l-.17.17-.2.22-.19.24-.16.22a.92.92,0,0,0-.11.15A1.92,1.92,0,0,1,46.52,30ZM46.14,31c0-.13.11-.26.18-.4l.21-.38a.73.73,0,0,1,.21-.24,1.33,1.33,0,0,0-.21.27,3.58,3.58,0,0,0-.21.39c-.07.13-.13.26-.19.39a.36.36,0,0,0,0,.09ZM45,29.43c0,.14,0,.28-.07.44s-.06.31-.09.44a1.37,1.37,0,0,1-.07.26s0-.12,0-.25,0-.28.07-.43.06-.3.08-.44l.06-.28A2.49,2.49,0,0,1,45,29.43Zm-.84.95.28-.59c.09-.21.19-.43.28-.65s.2-.45.31-.67c0,.19-.08.4-.12.62s-.09.45-.14.68-.09.46-.13.67-.08.41-.12.58l-.3-.06-.32-.07C44,30.74,44.11,30.57,44.2,30.38ZM42,30.73l.18,0a.63.63,0,0,1,.19,0,.48.48,0,0,1,.18.07.93.93,0,0,0-.42-.07l-.26.05Zm0,.12a1,1,0,0,1,.31,0,1.3,1.3,0,0,1,.33.07.63.63,0,0,1,.27.14,2.22,2.22,0,0,0-.38-.14l-.33,0a.9.9,0,0,0-.25,0c-.07,0-.12,0-.13.05S41.83,30.87,41.93,30.85Zm-.55.63a.74.74,0,0,1,.26-.32,1,1,0,0,1,.44-.16,1.27,1.27,0,0,1,.58.09l.29.12.36.13a4.86,4.86,0,0,1-.43.58,2.56,2.56,0,0,1-.41.4,1,1,0,0,1-.39.19.62.62,0,0,1-.38,0c-.06,0-.08-.07-.13-.1l.16.08a.28.28,0,0,0,.15,0v0s0,0,0,0h-.17s0,0,0,0a.07.07,0,0,0-.06,0h-.08q0-.08,0-.09l0,0h0v0s0,0,0-.05l-.06-.07a.36.36,0,0,0,.07.17.86.86,0,0,0,.14.13.9.9,0,0,1-.18-.15.79.79,0,0,1-.1-.37A.85.85,0,0,1,41.38,31.48Z"/><path class="cls-1" d="M78.15,42a.06.06,0,0,0-.07,0,5.51,5.51,0,0,1-2.79.2,4,4,0,0,0-2-.19c-.09,0,0,.18,0,.15.73-.25,1.7.18,2.45.26a5.36,5.36,0,0,0,2.38-.29.07.07,0,0,0,0-.14Z"/><path class="cls-1" d="M75.15,43.11c-.52-.09-1.37-.41-1.86-.07-.08.06,0,.19.08.13.37-.26,1-.05,1.4,0s.71.13,1.07.17a5.83,5.83,0,0,0,2.42-.22c.09,0,0-.17,0-.14A6.51,6.51,0,0,1,75.15,43.11Z"/><path class="cls-1" d="M37.47,33.83c.83-.18,1.23-1.36,1-2.21a1.16,1.16,0,0,0-1.25-.73,1.39,1.39,0,0,0-.71.61,2.32,2.32,0,0,1,.8-1.63c.19.06.37.26.59.36s.29-.34.29-.34a1.38,1.38,0,0,0-1.29-.52c-.79.16-1.46,1.79-1.17,3.17A1.47,1.47,0,0,0,37.47,33.83Zm-.85-1.67a.31.31,0,0,0,.17,0c.1,0,.23-.7.69-.8.11,0,.17,0,.19.19.12.62-.09,1.73-.58,1.84-.17,0-.32-.18-.4-.62A2.91,2.91,0,0,1,36.62,32.16Z"/><path class="cls-1" d="M38.61,29.35l.13-.06a4,4,0,0,0,0,.81.47.47,0,0,0,.56.42.71.71,0,0,0,.5-.4v0a.29.29,0,0,0,.36.18.15.15,0,0,0,.11-.06,3.23,3.23,0,0,1,.1-1.08h0a3.52,3.52,0,0,0,0,.59c0,.22.2.44.47.38a.5.5,0,0,0,.42-.53c0-.14-.2-.09-.2-.09,0,.17,0,.37-.14.39s-.15-.06-.17-.17c-.07-.33,0-1,0-1.11s-.22-.13-.4-.09-.24.81-.27,1h0a9,9,0,0,1-.06-1.08,2.05,2.05,0,0,0,0-.43c0-.07-.32-.09-.36,0a3,3,0,0,0,0,.9.47.47,0,0,0-.09-.1c-.06,0-.1,0-.13,0s-.1,0-.18,0l-.12,0,0-.21s-.26-.11-.32-.06a1,1,0,0,0-.09.42,1.1,1.1,0,0,0-.35.17C38.37,29.19,38.52,29.39,38.61,29.35Zm.53-.2c.18-.06.37-.12.51-.15l0,0c0,.29.05.59.08.82a.18.18,0,0,0-.16,0,.51.51,0,0,1-.33.49c-.06,0-.1,0-.12-.11A4.55,4.55,0,0,1,39.14,29.15Z"/></g></g></svg>