<svg xmlns="http://www.w3.org/2000/svg" viewBox="0 0 4794.44 4693"><defs><style>.cls-1{fill:#777a84;}.cls-2{fill:none;}.cls-3{fill:#181b29;}</style></defs><title>umei</title><g id="Layer_2" data-name="Layer 2"><g id="Layer_1-2" data-name="Layer 1"><path class="cls-1" d="M3708.46,1419.23a1457.33,1457.33,0,0,0-306.41-462.05,1445.37,1445.37,0,0,0-211.61-177.5Q3177.81,771,3165,762.61L2866.7,1659.55h918.23A1458.51,1458.51,0,0,0,3708.46,1419.23ZM3158.3,883.85,3156,882.1l-6.17-4.45-18.63-13.4a225.9,225.9,0,0,0,9.52-27.75c2.19,1.52,4.41,3.09,6.61,4.72L3166.51,855l6.31,4.56,2.33,1.8Zm77.26,63.29-7.84-6.95-8-7.13c-3-2.57-6.25-5.19-9.46-7.88l-17.77-14.69c-2.43-2-4.42-3.7-5.87-4.82l-2.28-1.76,17.47-22,2.34,1.8c1.48,1.15,3.52,2.89,6,4.93l18.18,15c3.3,2.75,6.65,5.44,9.69,8.07s5.82,5.15,8.22,7.29l8,7.11Zm72,69.27L3284,992.48c-1.48-1.48-2.91-3-4.42-4.43l-4.39-4.17-7.79-7.4-7.6-7.22,19.23-20.5,7.78,7.39,8,7.56,4.49,4.27c1.54,1.44,3,3,4.52,4.53l24,24.47Zm64.43,72.65-2.06-2.59-2.79-3.27c-4.1-4.78-9.55-11.16-15-17.53l-8-9.37-3.69-4.3-3.43-3.75-7.1-7.73,20.81-18.9,7.24,7.9,3.51,3.82,3.78,4.4,8.19,9.56,15.33,17.91,2.85,3.33c.82,1,1.53,1.91,2.11,2.65l1.84,2.3-21.75,17.81S3373.1,1090.48,3372,1089.06Zm56.29,73.3c-1.74-2.62-4-5.5-6.36-8.68l-7.37-9.9-13.79-18.53c-1.85-2.54-3.51-4.58-4.66-6l-1.79-2.26,22.16-17.28s.68.84,1.84,2.3,2.87,3.54,4.75,6.15L3437.1,1127l7.51,10.1c2.37,3.24,4.71,6.18,6.49,8.85l6.1,8.8-23,16.2Zm55.45,83.35c-.82-1.36-1.7-2.82-2.64-4.36s-2-3.12-3.08-4.77l-6.69-10.37-12.54-19.42-4.14-6.4L3453,1198l23.33-15.68,1.67,2.43,4.21,6.51,12.77,19.78,6.82,10.57,3.14,4.86,2.68,4.44,5.51,9.17-24,14.63Zm50,86.81c-3-5.56-7.14-12.87-11.22-20.23l-11.26-20.2-3.71-6.66-1.48-2.48,24.31-14.12,1.51,2.52c.9,1.64,2.21,4,3.77,6.78,3.12,5.6,7.29,13.07,11.45,20.55s8.37,14.91,11.4,20.57,4.91,9.49,4.91,9.49l-24.86,13.12Zm48,96.64c-.76-1.68-1.92-4-3.28-6.89l-10-20.89-10-20.89c-1.33-2.86-2.63-5.15-3.45-6.8s-1.32-2.57-1.32-2.57l25.1-12.64s.5,1,1.35,2.61,2.14,4,3.5,6.91c2.77,5.79,6.46,13.5,10.14,21.21s7.38,15.43,10.14,21.22c1.38,2.9,2.56,5.3,3.33,7l1.18,2.69-25.56,11.69S3582.42,1430.85,3581.68,1429.16Zm27.71,63.81c-1.58-3.91-3.17-7.81-4.65-11.46s-3.06-7-4.33-9.89l-4.25-9.63,25.77-11.24s1.72,3.91,4.31,9.77c1.28,2.94,2.83,6.34,4.39,10l4.72,11.62c6.44,15.83,12.87,31.66,12.87,31.66l-26.13,10.35S3615.74,1508.57,3609.39,1493Zm47.33,125.43s-1.36-4-3.41-10c-1-3-2.21-6.48-3.49-10.22s-2.6-7.74-4.12-11.67L3633.92,1555l26.3-9.94s6,16,11.93,32c1.55,4,2.9,8,4.19,11.82l3.53,10.36,3.45,10.09Z"/><path class="cls-1" d="M3612.79,2588.91c-1.89,4.07-3.64,7.87-5.16,11.12-3,6.51-5,10.86-5,10.86L3577.14,2599l4.94-10.65,4.73-10.17-644.89-6.89-491.84,866.12a1398.46,1398.46,0,0,0,497.48-113,1423.23,1423.23,0,0,0,242.88-134,1449.85,1449.85,0,0,0,386.2-392.63,1461.48,1461.48,0,0,0,119.58-218.4l-78.89-.85C3615.8,2582,3614.31,2585.59,3612.79,2588.91Zm-1023.71,751c-3.56.48-7.72,1-12.18,1.5s-9.22,1.12-14,1.6c-19,2.13-38.15,3.59-38.15,3.59l-2.24-28s18.71-1.44,37.36-3.51c4.67-.47,9.33-1.07,13.7-1.57s8.45-1,11.94-1.47l11.63-1.52,3.8,27.86Zm121-20.74c-2,.46-5,1.11-8.48,1.81-7,1.41-16.41,3.45-25.83,5.16l-13.82,2.6-12.09,2.1-8.55,1.47-3.25.52-4.53-27.75,3.19-.51,8.39-1.44,11.85-2.06,13.55-2.55c9.23-1.68,18.41-3.68,25.31-5.06,3.46-.69,6.32-1.32,8.32-1.77l3.15-.7,6,27.47Zm110.46-28.52-8.32,2.44-11.78,3.45c-4.3,1.28-8.93,2.48-13.55,3.77l-13.56,3.71-11.89,3-8.41,2.15c-2,.53-3.19.8-3.19.8l-6.72-27.3s1.14-.26,3.13-.78l8.24-2.11,11.64-3,13.3-3.63c4.52-1.26,9.06-2.44,13.27-3.69l11.54-3.39,8.16-2.39c2-.57,3.08-.94,3.08-.94l8.2,26.89S2822.51,3290.07,2820.5,3290.66Zm99.67-34.36-24.65,9.31-24.82,8.83-11.36,3.79-8.92-26.66,11.12-3.71,24.31-8.65,24.14-9.11,10.89-4.36,10.42,26.11S2926.85,3253.64,2920.17,3256.3Zm104.54-46-23.77,11.4c-8.68,4.06-17.45,7.93-24,10.91l-4.48,2-3.48,1.49-3,1.29-11.17-25.8,3-1.27,3.4-1.45,4.38-2c6.39-2.92,15-6.7,23.47-10.68l23.24-11.15,10.46-5.3,12.67,25.09Zm107.39-59.72-3.2,2-4.2,2.54-22.61,13.56-22.93,13c-3.11,1.8-5.78,3.16-7.62,4.17l-2.9,1.56-13.42-24.7,2.84-1.52c1.8-1,4.4-2.32,7.44-4.08l22.41-12.73,22.11-13.27,4.1-2.47,3.12-2L3120,3125l14.92,23.82Zm87.11-59.68-9.84,7.38-2.73,2.06-2.86,2-5.84,4.15-11.49,8.16-5.28,3.75c-1.71,1.15-3.32,2.25-4.82,3.25l-9.95,6.69-15.65-23.36,9.73-6.53,4.7-3.17,5.16-3.67,11.23-8,5.7-4,2.79-2,2.67-2,9.6-7.21c5.61-4.22,9.37-7,9.37-7l17.09,22.32Zm94.43-78.73c-1.54,1.43-3.7,3.52-6.36,5.93l-19.73,17.53c-1.8,1.58-3.56,3.21-5.37,4.73s-3.59,3-5.31,4.46l-9.42,7.9-9.19,7.72-17.78-21.78,9-7.53,9.2-7.72,5.18-4.35c1.76-1.48,3.49-3.07,5.25-4.62l19.26-17.1,8.56-8L3316,3010Zm74.24-75c-2.43,2.65-5.14,5.85-8.25,9.1l-9.7,10.23c-6.61,6.95-13.14,14-18.32,19l-8.5,8.46-19.78-20,8.3-8.26c5.06-4.88,11.44-11.75,17.9-18.54,3.23-3.4,6.44-6.8,9.47-10s5.69-6.31,8.05-8.9l7.82-8.73,21,18.67Zm72.66-88.15c-2.15,2.88-4.66,6.25-7.35,9.84-1.32,1.82-2.75,3.65-4.23,5.49l-4.45,5.6-16.39,20.65-7.73,9.17-21.57-18,7.55-9,16-20.18,4.34-5.48c1.45-1.79,2.85-3.58,4.14-5.36l7.18-9.62c4.2-5.64,7-9.39,7-9.39l22.65,16.65S3464.85,2843.27,3460.54,2849Zm64.36-94.3c-1.89,3.07-4.08,6.64-6.44,10.46l-1.8,2.91c-.63,1-1.27,2-1.92,2.93l-3.93,6-14.48,22c-2,3-3.76,5.42-4.95,7.14l-1.89,2.71-23.13-16s.67-1,1.85-2.64,2.9-4.06,4.84-7l14.17-21.55,3.84-5.85L3493,2753l1.76-2.85c2.31-3.74,4.46-7.25,6.3-10.24l6.14-10,24,14.6Zm56-99.42c-.8,1.61-1.68,3.35-2.59,5.19s-1.9,3.78-3,5.74c-2.12,4-4.39,8.18-6.66,12.39-4.55,8.42-9,16.91-12.52,23.17l-6,10.38-24.42-13.93,5.85-10.16c3.46-6.13,7.8-14.45,12.27-22.7,2.22-4.14,4.44-8.27,6.53-12.14,1.06-1.93,2-3.82,2.91-5.63l2.54-5.09,5.25-10.49,25.14,12.57Z"/><path class="cls-1" d="M1718.33,2581.21l-503.11,4.91-17,6.68s-1-2.46-2.52-6.48l-106.36,1a1456.46,1456.46,0,0,0,290.59,425.5,1445.9,1445.9,0,0,0,211.61,177.5A1425.44,1425.44,0,0,0,1736,3277.44l17.18-75-1-.5c-1.87-.92-2.94-1.47-2.94-1.47l7.9-15.35,25.51-111.34H1630.76ZM1244.15,2694c-1-1.87-2.31-4.55-3.93-7.76-3.29-6.41-7.48-15-11.67-23.69-8.29-17.32-15.92-35-15.92-35l25.77-11.22s7.44,17.18,15.52,34.07c4.09,8.43,8.18,16.86,11.39,23.1,1.58,3.14,2.9,5.75,3.83,7.58l1.5,2.85-25,12.94Zm52.51,91.6c-3.93-6-8.85-14.27-13.89-22.43l-7.18-12.13c-2.29-3.87-4.43-7.48-6.18-10.63-3.54-6.26-5.91-10.43-5.91-10.43l24.53-13.73,5.77,10.19c1.72,3.07,3.8,6.6,6,10.37s4.62,7.81,7,11.85c4.93,8,9.73,16,13.57,21.9l6.3,9.87-23.6,15.28Zm73.09,103-7.4-9.45c-4.5-5.62-10.18-13.35-16-21-2.91-3.81-5.68-7.73-8.31-11.38s-5.08-7-7.18-10-3.77-5.41-5-7.13-1.87-2.72-1.87-2.72l23.11-16,1.83,2.65c1.18,1.67,2.8,4.11,4.86,7l7,9.74c2.57,3.56,5.27,7.39,8.12,11.11,5.64,7.48,11.18,15,15.58,20.51l7.21,9.22Zm75.28,86-2.31-2.36c-.73-.76-1.63-1.66-2.64-2.71l-3.35-3.6-8.39-9c-3.06-3.3-6.37-6.78-9.53-10.39l-9.38-10.52-4.31-4.84-3.78-4.42-7.78-9.13,21.46-18.15,7.6,8.91,3.68,4.31,4.22,4.73,9.15,10.27c3.09,3.52,6.31,6.92,9.31,10.13l8.18,8.78,3.27,3.5,2.58,2.65,2.25,2.3Zm83.39,78.22-9.15-7.76-19.74-17.53-19.32-18c-2.66-2.44-4.74-4.59-6.26-6l-2.36-2.31,19.58-20.17,2.3,2.26c1.48,1.41,3.52,3.51,6.11,5.89l18.85,17.54c7,6.22,14,12.44,19.26,17.1l8.92,7.57Zm137.16,66.8,9.85,6.33,4.78,3.06,5.41,3.27,11.78,7.12,6,3.62c2,1.2,3.91,2.36,5.83,3.43l10.44,5.93,10.19,5.78-13.65,24.58-10.45-5.92-10.69-6.08c-2-1.09-4-2.27-6-3.51l-6.12-3.71-12.06-7.29-5.55-3.36-4.89-3.13-10.1-6.49Zm-33.17-22.15,2.66,1.81-16,23.12-2.73-1.85-3.13-2.13-4-2.87c-5.83-4.22-13.62-9.83-21.4-15.45l-21-16c-2.89-2.15-5.17-4.1-6.82-5.39l-2.58-2.06,17.49-22,2.51,2c1.62,1.26,3.85,3.16,6.66,5.26l20.5,15.59c7.59,5.48,15.18,11,20.88,15.07l3.88,2.8Z"/><path class="cls-1" d="M1591.54,779.68a1449.62,1449.62,0,0,0-386.19,392.63,1461,1461,0,0,0-208.3,487.24h885.14l178-1001.32A223,223,0,0,0,2055,686l-7.69,2.05L2039.88,661l10.34-2.76,10.49-2.8,15.79-88.8a1401.68,1401.68,0,0,0-242.08,79A1422.87,1422.87,0,0,0,1591.54,779.68Zm-449,805.91c-.47,1.77-1.13,4.3-1.93,7.33-1.59,6.07-3.6,14.18-5.51,22.31s-3.64,16.25-4.85,22.32c-.61,3-1.07,5.56-1.39,7.3l-.47,2.75-27.71-4.72.52-3c.34-1.91.84-4.6,1.48-7.8,1.27-6.4,3.08-14.86,5-23.25s4-16.75,5.69-23c.82-3.11,1.5-5.71,2-7.53l.78-2.85,27.14,7.34S1143,1583.82,1142.54,1585.59Zm30-95.23c-.65,1.72-1.52,4.19-2.55,7.16s-2.26,6.44-3.57,10.15-2.59,7.69-3.94,11.67c-5.31,15.91-10.17,32-10.17,32l-26.91-8.15s5-16.43,10.41-32.7c1.37-4.07,2.74-8.13,4-11.94s2.57-7.33,3.64-10.37,2-5.57,2.6-7.32l1-2.77,26.42,9.59Zm34.4-85.73c-2.6,5.74-5.83,13.48-9.18,21.19-3.19,7.76-6.45,15.5-8.76,21.35l-3.87,9.75L1159,1446.66l4-10c2.36-6,5.69-13.88,9-21.81s6.7-15.78,9.36-21.63l4.37-9.78,25.62,11.57S1209.54,1398.88,1207,1404.63Zm43.83-89.89c-2.91,5.58-6.87,13-10.71,20.45s-7.63,15-10.35,20.63l-4.58,9.44-25.33-12.2,4.68-9.64c2.78-5.79,6.72-13.4,10.56-21.06s8-15.19,10.94-20.88l5.12-9.42,24.69,13.46Zm50.49-86.29c-1.73,2.63-3.67,5.74-5.73,9.1l-6.5,10.47c-2.23,3.56-4.38,7.16-6.38,10.55l-5.5,9.25c-3.24,5.39-5.29,9.06-5.29,9.06l-24.34-14.07s2.09-3.74,5.41-9.26c1.64-2.76,3.56-6,5.61-9.44s4.24-7.14,6.52-10.77l6.63-10.7c2.1-3.43,4.09-6.61,5.85-9.3l5.82-9,23.59,15.29Zm56.94-82.17c-3.83,5-8.71,11.82-13.69,18.57l-3.7,5.05-3.49,5c-2.25,3.22-4.37,6.23-6.17,8.8l-4.37,6.22c-1.06,1.51-1.63,2.39-1.63,2.39l-23.19-15.9s.59-.9,1.67-2.43l4.46-6.36,6.32-9,3.56-5.07,3.78-5.16c5.09-6.9,10.08-13.87,14-19l6.51-8.52,22.32,17.1Zm68.26-83c-1.25,1.34-3,3.3-5,5.68l-15.17,17.38c-5.37,6.44-10.75,12.87-14.79,17.7-2,2.4-3.67,4.45-4.8,5.89l-1.8,2.25L1363,1094.47l1.84-2.3c1.16-1.47,2.84-3.56,4.92-6l15.12-18.1,15.51-17.76c2.11-2.43,3.87-4.44,5.16-5.82l2-2.17,20.88,18.82Zm64.24-66.3c-2.27,2.17-5,4.67-7.77,7.41l-8.73,8.7c-5.93,5.93-11.91,11.81-16.2,16.41l-7.25,7.58-20.37-19.38,7.41-7.75c4.4-4.7,10.51-10.72,16.58-16.78l8.93-8.9c2.87-2.8,5.62-5.37,7.94-7.59l7.78-7.39,19.27,20.46Zm74.89-66.09c-4.84,4-11.4,9.25-17.8,14.66l-17.47,15.06-3.26,2.8-2.45,2.22-2.13,1.93-18.72-21,2.19-2,2.51-2.27,3.32-2.87,17.88-15.4c6.55-5.54,13.25-10.9,18.21-15l8.31-6.79,17.52,22Zm86.32-64c-1.55,1-3.71,2.47-6.28,4.28l-18.92,13.2c-3.47,2.36-6.81,4.9-10,7.22l-8.65,6.38-8.43,6.21-16.93-22.44,8.63-6.36,8.85-6.52c3.25-2.37,6.67-5,10.21-7.38l19.35-13.5c2.63-1.86,4.84-3.37,6.42-4.39l2.47-1.62,15.67,23.34Zm85-52.49c-1.61.87-3.91,2.13-6.61,3.75l-19.9,11.65-5.4,3.16-5.15,3.19c-3.34,2.09-6.46,4-9.13,5.68l-8.9,5.54-15-23.75,9.1-5.67c2.74-1.69,5.92-3.68,9.33-5.8l5.27-3.26,5.53-3.24,20.35-11.91c2.76-1.65,5.11-2.94,6.75-3.83l2.59-1.42,13.75,24.52S1738.56,813.44,1737,814.33Zm88.9-45.67L1819,772l-20.79,10c-3.81,1.77-7.52,3.75-11,5.54l-9.56,4.92-9.32,4.81-13.11-24.87,9.53-4.91,9.76-5c3.58-1.84,7.37-3.85,11.25-5.67L1807,746.54l7-3.37,2.69-1.21,11.8,25.51Zm126.69-81c6.08-2.06,14.24-4.64,22.38-7.3s16.26-5.39,22.45-7.12l10.26-3,8,26.94-10.07,3c-6.07,1.69-14,4.42-22,7s-16,5.15-22,7.17l-9.89,3.51-9.26-26.55ZM1879,715c3.94-1.69,8-3.13,11.71-4.6l10.25-3.95,10-3.85,9.88,26.32L1911,732.7l-10,3.87c-3.66,1.44-7.62,2.84-11.47,4.51l-31,12.92-11.17-25.79Z"/><path class="cls-2" d="M3077.81,1858.54h-14.59c-14.27,0-20.92,6.65-20.92,20.92v132.16h56.44V1879.46C3098.74,1865.19,3092.09,1858.54,3077.81,1858.54Z"/><path class="cls-3" d="M1642.09,3689.15l-.18-.08-26.37,115-54.93-27.28h0l54.93,27.28,26.38-115,75.25-328.31-.23-.05,1.88-8.2c-208.51-96.93-355.46-229.19-455.23-348.56-104.13-124.6-169.29-248.84-205.61-331.11-19.36-43.85-32.82-80.76-41.52-107.08l-19.08-67.58-922-1.36V2176.91H3.31v391.91H512.6a1979.68,1979.68,0,0,0,251.84,526,1991,1991,0,0,0,851.23,709.66ZM616.48,2568.82H962c8.66,27.57,23.58,70.37,46.81,123.22,37.53,85.39,104.91,214.35,212.77,343.86,119.73,143.76,264.24,259.25,429.55,343.39l-64.81,284.6h0C1130.59,3448.34,776.69,3052.7,616.48,2568.82Z"/><path class="cls-3" d="M96.13,1638.25H75v417.87H96.13V1659.57h833.6l-36-.28h0l36,.28,15.65.13c.36-2.27,39.34-236.6,197.12-489,145-232,424.6-532.82,933.09-648.85,3.54-.84,358.9-83.49,753,15.51q12.25,3.08,24.37,6.33h-602.7l-199.4,1116.38h26.78l194.69-1090h59.39l-197.7,1090h26.79l197.7-1090H2940.2l7.61,2.57L2592.33,1660.11h138l346.1-1035.94c387.23,178.72,646.56,527.75,771.16,1035.94h54.78s0-.11-.05-.16q-2.59-10.59-5.28-21.09c-86-337.25-238-623.75-443.3-820.33C3285.68,657.58,3079,545.62,2839.49,485.78c-406.36-101.52-761.28-18.73-775.91-15.23-232.48,53.05-438.64,147.76-612.77,281.52-139.39,107.06-258.56,239.16-354.2,392.63-137.4,220.45-186.3,428.43-199.13,493.78H800.26c3.68-19.66,15.11-74.68,39.9-150.9a1705.51,1705.51,0,0,1,172.06-368.91C1171.1,863.73,1477.53,533.14,2035.15,405.9c1-.23,98.08-23.21,247.4-32.64,137.88-8.72,349.49-7.29,574.62,48.95,395.92,98.92,910.19,390.4,1115.68,1216.65h-75.78q2.67,10.52,5.28,21.09h801.44v396.81h21.09V1638.89h-20.76v0H4365.49a1976.2,1976.2,0,0,0-309-763.69A1990.87,1990.87,0,0,0,3183.11,156C2938.38,52.48,2678.42,0,2410.44,0s-527.93,52.48-772.66,156A1984.94,1984.94,0,0,0,455.46,1638.48H96.13ZM3305.36,353.36l-34.89,2.89,1.22.66-1.22-.66Zm-4.73,19.79h0l-2.14-1.23Zm-27.94-15.69-.17-.09ZM2379.06,128.62C3286,128.62,4041,779,4203.13,1638.86h-214c-47.42-192-113.82-365.54-197.39-516C3715.13,985,3622.35,863.4,3516,761.58,3336.86,590,3116.48,470.7,2861,406.86c-100.29-25.05-206.29-41.51-315.07-48.9a2027.65,2027.65,0,0,0-264.38-.49c-150.66,9.52-249.11,32.81-250,33-248.47,56.69-468.73,157.86-654.66,300.67-148.76,114.27-276,255.29-378.09,419.13a1721.91,1721.91,0,0,0-173.67,372.39c-26.3,80.83-37.79,138.44-41,155.8H555C717.31,778.84,1472.24,128.62,2379.06,128.62Z"/><polygon class="cls-3" points="21.09 1608.16 396.78 1608.16 396.78 1587.07 21.09 1587.07 10.54 1587.07 0 1587.07 0 2084.93 21.09 2084.93 21.09 1608.16"/><polygon class="cls-3" points="4783.9 1585.09 4773.35 1585.09 4397.66 1585.09 4397.66 1606.18 4773.35 1606.18 4773.35 2082.95 4794.44 2082.95 4794.44 1585.09 4783.9 1585.09"/><path class="cls-3" d="M4713.35,2492.36H3779L3760.57,2551c-202.08,510.82-556.16,739.91-821.73,842.34-155.64,60-298.29,84-390.55,93.63a1285.93,1285.93,0,0,1-130.45,7.22l-29.67,52.26.63,0L2225.17,3834.9h0l-.18,0-67.71,119.24A2011.09,2011.09,0,0,0,2410.44,3970c268,0,527.94-52.49,772.67-156A1987.11,1987.11,0,0,0,4309.64,2564.41H4785.4V2172.5h-72ZM2379.06,3841.2q-40.2,0-80-1.71l-63.09,111-75.2-2.06h0l75.2,2.06,63.09-111L2466,3545.86h0c24.23-1,53-2.91,85.6-6.24,95.4-9.78,242.94-34.41,404.1-96.29,181.38-69.64,342.68-171.27,479.43-302.06,160.34-153.35,287-347.25,376.83-576.86h331.14C3899.67,3305.82,3201.89,3841.2,2379.06,3841.2Z"/><path class="cls-3" d="M2941.92,2571.26l644.89,6.89c.11-.25.22-.49.34-.73,1.82-4,3.61-8.35,5.49-12.66,3.7-8.63,7.41-17.26,10.19-23.73.69-1.62,1.33-3.1,1.9-4.42s1-2.49,1.36-3.44l1.19-3h0s-.44,1.09-1.19,3c-.38.95-.84,2.11-1.36,3.44l-1.9,4.42c-2.78,6.47-6.49,15.1-10.19,23.73-1.88,4.31-3.67,8.65-5.49,12.66-.11.24-.23.48-.34.73l-4.73,10.17-4.94,10.65,25.46,11.92s2-4.35,5-10.86l5.16-11.12c1.52-3.32,3-6.87,4.54-10.44l78.89.85h1.36l1.88,0,17.49-49.47,13.27-37.52,1.85-5.26H2835.76l-47.44,82.49H2434.49l21.82-82.49H2322L2286.39,2596h338.9l-837,1535.49,294.85-1228.13H1935.3l75.49-416.21H1984l-75.49,416.21h-52.94l57.87-324h.11l16.36-92.21h-26.78l0,.16-852.42,5.1,34.88,95,3.78,0,106.36-1c-2.63-6.84-6.89-18.18-10.83-29.68-3.14-9.12-6.1-18.34-8.19-25.34-1.06-3.5-1.9-6.45-2.48-8.56s-.89-3.27-.89-3.27l27.17-7.23h0l-27.16,7.23.88,3.27c.58,2.11,1.42,5.06,2.48,8.56,2.09,7,5.06,16.22,8.19,25.35,3.94,11.49,8.2,22.83,10.83,29.67,1.54,4,2.52,6.48,2.52,6.48l17-6.68h0l503.1-4.91,168.28-1.64-59.76,334.6-2.77,15.5h158.76L1645.94,4393.6,1577,4693,2788.36,2569.62ZM1693.12,4306.07l316.77-1376.4h39.84L1739.87,4220.32Z"/><path class="cls-3" d="M125.38,2410.66H4672.12V1694.3H125.38Zm73.82-642.55H4598.31v486.41H199.2Zm0,512.77H4598.31v56H199.2Z"/><path class="cls-3" d="M1265.31,2673.52c-3.21-6.25-7.3-14.68-11.38-23.11-8.09-16.89-15.52-34.07-15.52-34.07l-25.78,11.22s7.63,17.64,15.92,35c4.19,8.64,8.38,17.27,11.67,23.68,1.62,3.21,3,5.89,3.93,7.76l1.53,2.92,25-12.94s-.55-1-1.5-2.85Z"/><path class="cls-3" d="M1306.84,2748.62c-2.38-4-4.77-8.07-7-11.85s-4.32-7.3-6-10.37l-5.77-10.19-24.53,13.73s2.37,4.17,5.91,10.43c1.75,3.15,3.89,6.76,6.18,10.63l7.18,12.13c5,8.16,10,16.4,13.89,22.43l6.45,10.11,23.6-15.28-6.3-9.87C1316.57,2764.63,1311.77,2756.59,1306.84,2748.62Z"/><path class="cls-3" d="M1330.9,2836.71c2.1,2.92,4.55,6.33,7.18,10s5.4,7.56,8.31,11.38c5.78,7.66,11.46,15.39,16,21l7.4,9.45,22-17.47-7.22-9.22c-4.4-5.48-9.94-13-15.58-20.51-2.84-3.72-5.55-7.55-8.12-11.11l-7-9.74c-2.06-2.85-3.68-5.29-4.86-7s-1.83-2.65-1.83-2.65l-23.11,16s.69,1,1.87,2.71S1328.8,2833.79,1330.9,2836.71Z"/><path class="cls-3" d="M1409.43,2936l9.38,10.52c3.16,3.61,6.47,7.09,9.53,10.39l8.39,9,3.35,3.6c1,1,1.91,2,2.64,2.71l2.31,2.35,20.23-19.52-2.25-2.3-2.58-2.65-3.27-3.51c-2.4-2.56-5.19-5.56-8.18-8.77s-6.22-6.61-9.31-10.13l-9.15-10.27-4.22-4.73-3.68-4.31-7.6-8.91-21.46,18.15,7.78,9.13,3.78,4.42Z"/><path class="cls-3" d="M1499.53,3027.45l19.74,17.52c5.48,4.66,9.15,7.76,9.15,7.76l18.19-21.42-8.93-7.57-19.25-17.1-18.86-17.54c-2.58-2.38-4.62-4.48-6.1-5.9l-2.3-2.25-19.58,20.17,2.36,2.31c1.51,1.45,3.6,3.6,6.26,6Z"/><path class="cls-3" d="M1587.84,3100l21.39,15.45,4,2.87,3.13,2.13,2.73,1.85,16-23.12-2.66-1.81-3.06-2.08-3.88-2.8c-5.7-4.1-13.29-9.59-20.88-15.07l-20.5-15.59c-2.82-2.1-5-4-6.66-5.26l-2.51-2-17.49,22,2.58,2.06c1.65,1.29,3.93,3.24,6.82,5.39Z"/><path class="cls-3" d="M1670.89,3156.15l12.06,7.29,6.12,3.71c2,1.23,4,2.42,6,3.51l10.69,6.08,10.45,5.92,13.64-24.58-10.18-5.78-10.44-5.93c-1.92-1.07-3.87-2.23-5.83-3.43l-6-3.62-11.78-7.12-5.41-3.27-4.78-3.06-9.85-6.33-15.23,23.63,10.1,6.49,4.89,3.13Z"/><path class="cls-3" d="M1753.26,3202.42q2.25-10.27,5.44-20.31l-1.53,3-7.9,15.34s1.07.55,2.94,1.48l1,.5Z"/><path class="cls-3" d="M2573.59,3313.51c-4.37.5-9,1.1-13.69,1.56-18.66,2.08-37.37,3.52-37.37,3.52l2.24,28s19.12-1.46,38.15-3.59c4.77-.48,9.52-1.09,14-1.6s8.62-1,12.18-1.5l11.88-1.54-3.8-27.86-11.63,1.52C2582.05,3312.52,2578,3313,2573.59,3313.51Z"/><path class="cls-3" d="M2695.78,3293.47c-6.9,1.38-16.08,3.38-25.31,5.05l-13.56,2.56-11.85,2.05-8.38,1.45-3.19.51,4.53,27.75s1.18-.2,3.25-.52l8.55-1.47,12.09-2.1,13.82-2.6c9.42-1.71,18.78-3.75,25.82-5.16,3.53-.7,6.45-1.35,8.49-1.81l3.21-.71-6-27.47-3.15.7C2702.1,3292.15,2699.23,3292.78,2695.78,3293.47Z"/><path class="cls-3" d="M2804.2,3266.13l-11.53,3.39c-4.21,1.25-8.76,2.43-13.28,3.69l-13.29,3.63-11.65,3c-3.41.86-6.25,1.6-8.24,2.11s-3.13.78-3.13.78l6.72,27.3s1.17-.27,3.19-.8l8.41-2.15,11.89-3,13.56-3.71c4.62-1.29,9.25-2.49,13.56-3.77l11.77-3.45,8.32-2.44c2-.59,3.14-1,3.14-1l-8.19-26.89s-1.12.37-3.09.94Z"/><path class="cls-3" d="M2885.85,3239.21l-24.31,8.65-11.12,3.71,8.92,26.66,11.36-3.79,24.82-8.83,24.65-9.31,11.13-4.44-10.42-26.11s-4.36,1.73-10.89,4.35Z"/><path class="cls-3" d="M2989,3196.28c-8.49,4-17.08,7.76-23.47,10.68l-4.38,2-3.4,1.45-3,1.27,11.17,25.8,3-1.29,3.48-1.49,4.48-2c6.54-3,15.31-6.85,24-10.91l23.77-11.4,10.68-5.42-12.67-25.1-10.46,5.3Z"/><path class="cls-3" d="M3114.12,3128.75l-4.1,2.47-22.11,13.27-22.41,12.73c-3,1.77-5.64,3.1-7.44,4.08l-2.84,1.52,13.42,24.7s1.06-.56,2.9-1.56,4.51-2.37,7.62-4.17l22.92-13,22.62-13.56,4.2-2.54,3.2-2,2.77-1.76L3120,3125l-2.71,1.73Z"/><path class="cls-3" d="M3192.73,3075.68l-2.68,2c-.91.65-1.85,1.31-2.78,2l-5.7,4-11.23,8-5.16,3.67-4.7,3.17-9.73,6.53,15.65,23.36,9.95-6.69c1.5-1,3.11-2.1,4.82-3.25l5.28-3.75,11.49-8.16,5.84-4.15,2.86-2,2.73-2.06,9.84-7.38,9.58-7.19-17.09-22.32-9.37,7Z"/><path class="cls-3" d="M3269.08,3014.49c-1.76,1.55-3.48,3.14-5.24,4.62l-5.19,4.35-9.2,7.72-9,7.53,17.79,21.77,9.18-7.71,9.42-7.9c1.72-1.46,3.5-2.94,5.31-4.47s3.57-3.14,5.37-4.72l19.73-17.53c2.67-2.41,4.82-4.5,6.36-5.93l2.4-2.25-19.14-20.58-8.56,8Z"/><path class="cls-3" d="M3359,2927.2c-3,3.18-6.24,6.58-9.48,10-6.45,6.79-12.83,13.66-17.89,18.54l-8.3,8.26,19.78,20,8.5-8.46c5.18-5,11.71-12,18.32-19l9.69-10.23c3.12-3.25,5.83-6.45,8.26-9.1l8-8.94-21-18.68s-3.12,3.49-7.81,8.74C3364.69,2920.9,3362,2924,3359,2927.2Z"/><path class="cls-3" d="M3438.06,2832.16l-7.18,9.62c-1.29,1.78-2.69,3.57-4.14,5.37l-4.35,5.47-16,20.18-7.55,9,21.57,18s3.1-3.67,7.72-9.17,10.44-13.14,16.4-20.65c1.5-1.88,3-3.75,4.45-5.6s2.91-3.67,4.23-5.49c2.69-3.59,5.2-7,7.34-9.84,4.32-5.76,7.18-9.61,7.18-9.61l-22.64-16.65S3442.26,2826.52,3438.06,2832.16Z"/><path class="cls-3" d="M3491.38,2806.18c1.19-1.73,3-4.15,4.95-7.14l14.48-22,3.93-6,1.92-2.93,1.8-2.91,6.44-10.46,6.28-10.2-24-14.6-6.14,10c-1.84,3-4,6.5-6.3,10.24L3493,2753l-1.89,2.87-3.84,5.85-14.17,21.55c-1.94,2.94-3.68,5.3-4.84,7s-1.85,2.64-1.85,2.64l23.13,16Z"/><path class="cls-3" d="M3556.18,2701.8c3.53-6.26,8-14.75,12.53-23.17,2.26-4.22,4.53-8.43,6.65-12.39,1.08-2,2.07-3.9,3-5.74l2.59-5.19,5.35-10.7L3561.14,2632l-5.25,10.49-2.54,5.08c-.89,1.82-1.85,3.71-2.91,5.64-2.09,3.87-4.31,8-6.52,12.14-4.48,8.25-8.82,16.57-12.28,22.7l-5.85,10.16,24.42,13.93Z"/><path class="cls-3" d="M1115.39,1578.32l-2,7.53c-1.64,6.24-3.71,14.59-5.69,23s-3.77,16.85-5,23.25c-.64,3.2-1.14,5.89-1.48,7.8l-.52,3,27.71,4.72s.18-1,.48-2.75.78-4.25,1.38-7.3c1.21-6.07,2.94-14.2,4.85-22.32s3.92-16.23,5.52-22.31c.79-3,1.45-5.56,1.92-7.33s.76-2.78.76-2.78l-27.13-7.34S1115.88,1576.5,1115.39,1578.32Z"/><path class="cls-3" d="M1146.12,1480.82c-.65,1.75-1.54,4.28-2.61,7.32s-2.3,6.57-3.64,10.36l-4,11.94c-5.44,16.28-10.41,32.71-10.41,32.71l26.91,8.14s4.86-16,10.17-32c1.35-4,2.69-7.95,3.94-11.67s2.52-7.18,3.57-10.15,1.9-5.44,2.55-7.16l1-2.72-26.42-9.59Z"/><path class="cls-3" d="M1181.26,1393.26c-2.65,5.85-6,13.76-9.36,21.63s-6.6,15.82-9,21.81l-4,10,26.17,10.26,3.87-9.75c2.31-5.85,5.57-13.59,8.76-21.35,3.35-7.7,6.58-15.45,9.18-21.19s4.29-9.58,4.29-9.58l-25.63-11.57Z"/><path class="cls-3" d="M1226,1301.48c-3,5.69-7,13.26-10.94,20.88s-7.78,15.27-10.57,21.06-4.67,9.64-4.67,9.64l25.33,12.2,4.58-9.44c2.72-5.68,6.59-13.13,10.35-20.63s7.8-14.87,10.71-20.45l5-9.21-24.68-13.46Z"/><path class="cls-3" d="M1277.57,1213.34c-1.76,2.69-3.75,5.87-5.85,9.29s-4.37,7.07-6.63,10.71-4.48,7.31-6.52,10.77l-5.61,9.44c-3.32,5.51-5.41,9.26-5.41,9.26l24.34,14.07s2-3.67,5.29-9.06l5.5-9.25c2-3.39,4.14-7,6.38-10.55s4.43-7.13,6.5-10.47,4-6.47,5.73-9.1l5.69-8.82-23.59-15.29Z"/><path class="cls-3" d="M1335.77,1129.38c-3.91,5.1-8.9,12.08-14,19l-3.78,5.16-3.56,5.07c-2.32,3.29-4.47,6.36-6.32,9l-4.46,6.36c-1.08,1.53-1.67,2.43-1.67,2.43l23.19,15.9s.57-.88,1.63-2.39l4.36-6.22c1.81-2.57,3.93-5.58,6.18-8.8l3.49-5,3.7-5.05c5-6.75,9.86-13.58,13.69-18.57l6.37-8.32-22.32-17.1Z"/><path class="cls-3" d="M1386.69,1109.89c1.13-1.44,2.77-3.49,4.8-5.89,4-4.83,9.42-11.26,14.79-17.7l15.17-17.38c2.06-2.37,3.79-4.34,5-5.68l2-2.12-20.88-18.82-2,2.18c-1.29,1.37-3,3.38-5.16,5.81l-15.51,17.76-15.12,18.1c-2.08,2.46-3.76,4.55-4.92,6l-1.84,2.3,21.87,17.67Z"/><path class="cls-3" d="M1474.23,1013.05l8.73-8.7c2.81-2.74,5.5-5.24,7.77-7.41l7.59-7.23-19.27-20.46-7.77,7.39c-2.33,2.22-5.08,4.79-8,7.59l-8.93,8.9c-6.07,6.06-12.18,12.08-16.57,16.79l-7.42,7.74,20.37,19.38,7.25-7.58C1462.32,1024.86,1468.3,1019,1474.23,1013.05Z"/><path class="cls-3" d="M1527.1,963.36l3.25-2.8,17.47-15c6.4-5.41,13-10.65,17.8-14.66l8.11-6.63-17.52-22L1547.9,909c-5,4.1-11.66,9.46-18.21,15l-17.88,15.4-3.32,2.87-2.51,2.27-2.19,2,18.72,21,2.13-1.94C1525.32,965,1526.15,964.23,1527.1,963.36Z"/><path class="cls-3" d="M1616.76,891.52c3.17-2.32,6.51-4.86,10-7.22l18.92-13.2c2.57-1.81,4.73-3.29,6.27-4.28l2.41-1.58-15.67-23.34-2.46,1.62c-1.58,1-3.79,2.53-6.42,4.39l-19.35,13.5c-3.55,2.41-7,5-10.21,7.38l-8.85,6.52-8.64,6.37,16.93,22.43,8.44-6.21Z"/><path class="cls-3" d="M1699.89,836.09l5.15-3.19,5.4-3.17,19.91-11.65c2.7-1.61,5-2.88,6.61-3.75l2.52-1.39-13.75-24.52-2.58,1.42c-1.65.89-4,2.18-6.76,3.83L1696,805.59l-5.52,3.23-5.27,3.27-9.33,5.8-9.1,5.66,15,23.75,8.91-5.54Z"/><path class="cls-3" d="M1787.21,787.51c3.49-1.79,7.2-3.76,11-5.54L1819,772l6.85-3.29,2.63-1.2-11.8-25.5-2.69,1.21-7,3.37-21.24,10.23c-3.88,1.82-7.67,3.83-11.25,5.67l-9.76,5-9.53,4.92,13.11,24.86,9.32-4.8Z"/><path class="cls-3" d="M1901,736.57l10-3.87,9.79-3.77-9.88-26.32-10,3.85-10.24,3.95c-3.74,1.47-7.78,2.9-11.72,4.6l-31.64,13.19,11.17,25.8,31-12.92C1893.34,739.41,1897.3,738,1901,736.57Z"/><path class="cls-3" d="M1983.57,707.11c8-2.56,16-5.29,22-7l10.07-3-8-26.94-10.26,3c-6.19,1.73-14.3,4.51-22.45,7.11s-16.3,5.25-22.39,7.31l-10.08,3.58,9.26,26.55,9.89-3.52C1967.58,712.26,1975.59,709.72,1983.57,707.11Z"/><path class="cls-3" d="M2060.22,658.23c.24-1,.45-1.92.71-2.87l-.11,0-.1,0-10.5,2.8L2039.88,661l7.42,27.11L2055,686A223,223,0,0,1,2060.22,658.23Z"/><path class="cls-3" d="M3158.3,883.85l16.85-22.5-2.33-1.8-6.31-4.55-19.16-13.78c-2.2-1.63-4.42-3.2-6.61-4.73a225.47,225.47,0,0,1-9.52,27.76l18.63,13.4,6.17,4.44Z"/><path class="cls-3" d="M3210.22,925.18c3.21,2.68,6.49,5.31,9.46,7.88l8,7.13,7.84,6.95,18.68-21-8-7.11c-2.4-2.14-5.22-4.63-8.22-7.29s-6.39-5.32-9.69-8.07l-18.18-15c-2.49-2-4.53-3.78-6-4.93l-2.34-1.8-17.47,22,2.28,1.76c1.45,1.12,3.44,2.83,5.87,4.82Z"/><path class="cls-3" d="M3279.59,988.05c1.5,1.41,2.93,3,4.41,4.43l23.52,23.93L3327.83,997l-24-24.47c-1.52-1.51-3-3.09-4.52-4.53s-3-2.88-4.49-4.27l-8-7.56-7.78-7.39-19.23,20.5,7.6,7.22,7.79,7.4Z"/><path class="cls-3" d="M3391.55,1068.54l-2.85-3.33-15.33-17.91-8.19-9.56-3.78-4.4-3.5-3.82-7.25-7.9-20.8,18.9s2.83,3.1,7.09,7.73c1.06,1.16,2.21,2.42,3.43,3.74s2.41,2.82,3.7,4.31l8,9.37c5.47,6.37,10.92,12.75,15,17.53l2.79,3.27,2.06,2.59,1.81,2.24,21.74-17.81-1.84-2.3C3393.08,1070.45,3392.37,1069.57,3391.55,1068.54Z"/><path class="cls-3" d="M3444.61,1137.14l-7.51-10.1L3423,1108.15c-1.88-2.61-3.57-4.69-4.75-6.15l-1.84-2.3L3394.26,1117l1.8,2.26c1.15,1.43,2.81,3.47,4.66,6l13.79,18.53,7.37,9.9c2.33,3.18,4.62,6.06,6.36,8.68l6,8.63,23-16.2-6.1-8.8C3449.32,1143.32,3447,1140.38,3444.61,1137.14Z"/><path class="cls-3" d="M3504.91,1226.48c-1-1.55-2-3.18-3.14-4.86-2.17-3.37-4.49-7-6.82-10.57l-12.77-19.78-4.21-6.51-1.66-2.43L3453,1198s.6.86,1.64,2.38l4.13,6.4,12.54,19.42,6.69,10.36c1.08,1.66,2.11,3.26,3.09,4.78l2.63,4.36,5.4,9,24-14.63-5.51-9.17Z"/><path class="cls-3" d="M3547.09,1298.68c-4.16-7.48-8.33-15-11.45-20.55-1.57-2.8-2.87-5.14-3.77-6.77l-1.51-2.53L3506.05,1283l1.48,2.48c.9,1.6,2.18,3.9,3.71,6.65l11.26,20.21c4.08,7.35,8.24,14.66,11.22,20.23l4.82,9.34,24.86-13.13s-2-3.8-4.91-9.49S3551.23,1306.16,3547.09,1298.68Z"/><path class="cls-3" d="M3603.9,1410.43l-10.14-21.22L3583.62,1368c-1.36-2.9-2.66-5.24-3.5-6.91l-1.35-2.61-25.11,12.64s.48.94,1.33,2.57,2.11,3.94,3.45,6.8l10,20.89,10,20.89c1.36,2.85,2.52,5.21,3.27,6.89l1.17,2.65,25.57-11.69-1.19-2.69C3606.46,1415.73,3605.28,1413.33,3603.9,1410.43Z"/><path class="cls-3" d="M3630.62,1470.55c-1.55-3.69-3.1-7.09-4.38-10l-4.32-9.77L3596.15,1462s1.71,3.85,4.26,9.63c1.27,2.9,2.79,6.25,4.32,9.89s3.08,7.55,4.66,11.46c6.35,15.6,12.69,31.21,12.69,31.21l26.14-10.35s-6.44-15.83-12.87-31.66C3633.74,1478.21,3632.14,1474.26,3630.62,1470.55Z"/><path class="cls-3" d="M3649.82,1598.21c1.28,3.74,2.47,7.22,3.49,10.22l3.4,10,26.6-9.1s-1.37-4-3.44-10.1l-3.53-10.36c-1.3-3.78-2.65-7.83-4.19-11.82l-11.94-32-26.3,9.94s5.9,15.79,11.79,31.58C3647.22,1590.47,3648.55,1594.47,3649.82,1598.21Z"/><path class="cls-3" d="M350.76,2136.2c0,16.25-6.12,23.82-19.27,23.82h-22c-14.27,0-20.92-7.57-20.92-23.82V1803.89H228.79v330.66c0,53.16,22.79,80.12,67.73,80.12h45.71c45.3,0,68.28-26.77,68.28-79.57V1803.89H350.76Z"/><polygon class="cls-3" points="568.54 2031.44 520.67 1803.89 455.8 1803.89 455.8 2214.67 515.6 2214.67 510.52 1975.89 545.52 2141.29 591.7 2141.29 626.7 1975.89 621.62 2214.67 681.42 2214.67 681.42 1803.89 616.55 1803.89 568.54 2031.44"/><polygon class="cls-3" points="726.71 2214.66 866.44 2214.81 866.44 2160.15 786.32 2160.15 786.32 2030.75 857.49 2030.75 857.49 1976.1 786.32 1976.1 786.32 1858.54 866.57 1858.54 866.57 1803.89 726.71 1803.89 726.71 2214.66"/><rect class="cls-3" x="899.89" y="1803.89" width="59.75" height="410.78"/><polygon class="cls-3" points="1245.28 1803.89 1185.53 1803.89 1185.53 2214.67 1319.75 2214.67 1319.75 2160.02 1245.28 2160.02 1245.28 1803.89"/><rect class="cls-3" x="1345.22" y="1803.89" width="59.74" height="410.78"/><path class="cls-3" d="M1550.06,1803.89h-37.31c-43.39,0-65.39,24.27-65.39,72.13V2143.5c0,47.13,22,71,65.39,71h108.89V2011.48h-88v54.65h28.22V2160H1528c-14.27,0-20.92-8.45-20.92-26.57V1885.11c0-18.13,6.65-26.57,20.92-26.57h13.49c8.75,0,20.38,2.75,20.38,26.57v39h59.74v-46.81C1621.64,1828.57,1597.56,1803.89,1550.06,1803.89Z"/><polygon class="cls-3" points="1780.91 1975.96 1719.79 1975.96 1719.79 1803.89 1660.05 1803.89 1660.05 2214.67 1719.79 2214.67 1719.79 2030.62 1780.91 2030.62 1780.91 2214.67 1840.66 2214.67 1840.66 1803.89 1780.91 1803.89 1780.91 1975.96"/><polygon class="cls-3" points="1866.13 1858.54 1918.02 1858.54 1918.02 2214.67 1977.77 2214.67 1977.77 1858.54 2029.67 1858.54 2029.67 1803.89 1866.13 1803.89 1866.13 1858.54"/><polygon class="cls-3" points="2167.6 1983.57 2114.9 1805.86 2114.32 1803.89 2055.27 1803.89 2055.27 2214.67 2115.02 2214.67 2115.02 1964.56 2167.6 2131.67 2167.6 2214.67 2227.35 2214.67 2227.35 1803.89 2167.6 1803.89 2167.6 1983.57"/><rect class="cls-3" x="2272.5" y="1803.89" width="59.75" height="410.78"/><polygon class="cls-3" points="2489.87 1983.57 2437.16 1805.86 2436.58 1803.89 2377.54 1803.89 2377.54 2214.67 2437.28 2214.67 2437.28 1964.56 2489.87 2131.67 2489.87 2214.67 2549.61 2214.67 2549.61 1803.89 2489.87 1803.89 2489.87 1983.57"/><path class="cls-3" d="M2694.7,1803.89h-37.3c-43.39,0-65.39,24.27-65.39,72.13V2143.5c0,47.13,22,71,65.39,71h108.89V2011.48h-88v54.65h28.21V2160h-33.86c-14.28,0-20.92-8.45-20.92-26.57V1885.11c0-18.13,6.64-26.57,20.92-26.57h13.49c8.75,0,20.37,2.75,20.37,26.57v39h59.75v-46.81C2766.29,1828.57,2742.2,1803.89,2694.7,1803.89Z"/><path class="cls-3" d="M3090.62,1804H3050c-44.85,0-67.6,24.27-67.6,72.14v338.51h59.75l-.27-148.4h56.57v148.4h59.75V1876.16C3158.21,1828.29,3135.47,1804,3090.62,1804Zm8.12,207.6H3042.3V1879.46c0-14.27,6.65-20.92,20.92-20.92h14.59c14.28,0,20.93,6.65,20.93,20.92Z"/><polygon class="cls-3" points="3181.2 1858.54 3233.1 1858.54 3233.1 2214.67 3292.84 2214.67 3292.84 1858.54 3344.74 1858.54 3344.74 1803.89 3181.2 1803.89 3181.2 1858.54"/><polygon class="cls-3" points="3491.07 1975.96 3429.95 1975.96 3429.95 1803.89 3370.21 1803.89 3370.21 2214.67 3429.95 2214.67 3429.95 2030.62 3491.07 2030.62 3491.07 2214.67 3550.82 2214.67 3550.82 1803.89 3491.07 1803.89 3491.07 1975.96"/><polygon class="cls-3" points="3655.71 1803.89 3595.97 1803.89 3595.97 2214.67 3730.19 2214.67 3730.19 2160.02 3655.71 2160.02 3655.71 1803.89"/><polygon class="cls-3" points="3755.79 2214.66 3895.66 2214.81 3895.66 2160.15 3815.54 2160.15 3815.54 2030.75 3886.71 2030.75 3886.71 1976.1 3815.54 1976.1 3815.54 1858.54 3895.66 1858.54 3895.66 1803.89 3755.79 1803.89 3755.79 2214.66"/><polygon class="cls-3" points="3909.15 1858.54 3961.04 1858.54 3961.04 2214.67 4020.79 2214.67 4020.79 1858.54 4072.69 1858.54 4072.69 1803.89 3909.15 1803.89 3909.15 1858.54"/><rect class="cls-3" x="4098.29" y="1803.89" width="59.74" height="410.78"/><path class="cls-3" d="M4311,2139.09c0,14.28-5.95,20.93-18.73,20.93h-13.49c-12.77,0-18.72-6.65-18.72-20.93V1879.46c0-14.27,5.95-20.92,18.72-20.92h10.74c14.65,0,21.48,6.65,21.48,20.92v44.47h59.74v-48.46c0-47.5-22.74-71.58-67.59-71.58h-35c-44.85,0-67.59,24.08-67.59,71.58v267.61c0,47.5,22.74,71.59,67.59,71.59h35c44.85,0,67.59-24.09,67.59-71.59v-28.77H4311Z"/><path class="cls-3" d="M4555.21,2013.15c-4.65-3.56-12.36-8.39-24.32-15.24l-51.24-27.61a106.93,106.93,0,0,1-14.35-9.91c-2.34-2-3.58-6.59-3.58-13.2V1880c0-14.65,6.47-21.47,20.37-21.47h8.4c14.27,0,20.92,6.82,20.92,21.47v38.28l59.75-.15v-42.26c0-47.86-22.75-72.13-67.6-72.13H4469.7c-44.85,0-67.59,24.27-67.59,72.13v83c0,10.53,1.2,19.48,3.58,26.62a37,37,0,0,0,11.89,17.37c5.29,4.29,13.69,9.53,24.89,15.55l51.28,28.72a106.93,106.93,0,0,1,14.35,9.91c2.35,2,3.59,6.59,3.59,13.2v68.83c0,14.27-5.95,20.92-18.73,20.92h-9.63c-14.65,0-21.48-6.64-21.48-20.92v-24.78h-59.74v23.13c0,51.24,22.74,77.23,67.59,77.23H4503c45.31,0,68.28-23.9,68.28-71v-86.31c0-14.76-1.4-24.67-4.29-30.3A41.12,41.12,0,0,0,4555.21,2013.15Z"/></g></g></svg>