<svg xmlns="http://www.w3.org/2000/svg" viewBox="0 0 856.8 270"><defs><style>.cls-1{fill:#fff;}</style></defs><title>witness</title><g id="Layer_2" data-name="Layer 2"><g id="Layer_1-2" data-name="Layer 1"><rect class="cls-1" x="74.4" y="216.9" width="782.4" height="3.2"/><polygon class="cls-1" points="260.9 262.3 256 255.2 254.3 255.2 254.3 269.9 256.4 269.9 256.4 259.5 260.3 265.3 261.5 265.3 265.3 259.5 265.3 269.9 267.4 269.9 267.4 255.2 265.7 255.2 260.9 262.3"/><path class="cls-1" d="M281.9,261.4c-1.6-.1-3.2-.3-3.4-1.9a2.3,2.3,0,0,1,.4-1.4,3.34,3.34,0,0,1,2.7-1.1c1.3,0,2.7.5,3,1.9l2.1-.1c-.4-2.7-2.7-3.9-5-3.9a5.77,5.77,0,0,0-4.5,2,4,4,0,0,0-.8,2.8c.2,3.1,2.9,3.6,5.2,3.8,1.5.1,3,.3,3.2,1.5a4.33,4.33,0,0,0,.1.5c0,1.5-1.7,2.4-3.3,2.4-1.4,0-3-.7-3.2-2.1v-.2h-2.1v.4c.3,2.6,3,4,5.3,4,2.7,0,5.5-1.6,5.5-4.5a3.4,3.4,0,0,0-.1-1C286.4,262.2,283.9,261.7,281.9,261.4Z"/><path class="cls-1" d="M302.6,267.9a4.84,4.84,0,0,1-3.6-1.6,5.56,5.56,0,0,1,0-7.6,5,5,0,0,1,8.4,1.7h2.1a6.88,6.88,0,0,0-6.9-5.4,7.26,7.26,0,0,0-5.1,2.2,7.61,7.61,0,0,0,0,10.5,7.12,7.12,0,0,0,12.1-3.4h-2.2A4.89,4.89,0,0,1,302.6,267.9Z"/><path class="cls-1" d="M339.8,267.9a4.84,4.84,0,0,1-3.6-1.6,5.56,5.56,0,0,1,0-7.6,5,5,0,0,1,8.4,1.7h2.1a6.88,6.88,0,0,0-6.9-5.4,7.26,7.26,0,0,0-5.1,2.2,7.61,7.61,0,0,0,0,10.5,7.12,7.12,0,0,0,12.1-3.4h-2.1A5.09,5.09,0,0,1,339.8,267.9Z"/><polygon class="cls-1" points="363.6 261.4 357.3 261.4 357.3 255.2 355.2 255.2 355.2 269.9 357.3 269.9 357.3 263.5 363.6 263.5 363.6 269.9 365.7 269.9 365.7 255.2 363.6 255.2 363.6 261.4"/><path class="cls-1" d="M381.6,255a7.56,7.56,0,0,0-5.3,2.2,7.74,7.74,0,0,0-2.2,5.3,7.56,7.56,0,0,0,2.2,5.3,7.48,7.48,0,0,0,10.6,0,7.74,7.74,0,0,0,2.2-5.3,7.56,7.56,0,0,0-2.2-5.3A7.16,7.16,0,0,0,381.6,255Zm3.8,11.4a5.46,5.46,0,0,1-3.8,1.6,5.4,5.4,0,1,1,3.8-9.2,5.73,5.73,0,0,1,1.6,3.8A5.29,5.29,0,0,1,385.4,266.4Z"/><path class="cls-1" d="M408.1,259.9a4.59,4.59,0,0,0-4.8-4.7h-5.4v14.7H400V257.3h3.3a2.55,2.55,0,1,1,0,5.1h-2.5v1l5.4,6.5H409l-4.7-5.5A4.55,4.55,0,0,0,408.1,259.9Z"/><path class="cls-1" d="M421.2,255l-5.9,14.9h2.3c.5-1.2,1.2-3,1.8-4.3h5.3l1.8,4.3h2.3L422.9,255Zm-1.1,8.6,1.9-5.2,1.8,5.2Z"/><polygon class="cls-1" points="438.5 255.2 436.4 255.2 436.4 269.9 445.5 269.9 445.5 267.8 438.5 267.8 438.5 255.2"/><polygon class="cls-1" points="468.5 269.9 470.7 269.9 470.7 263.6 476.6 263.6 476.6 261.5 470.7 261.5 470.7 257.3 477.3 257.3 477.3 255.2 468.5 255.2 468.5 269.9"/><polygon class="cls-1" points="487.6 263.6 494.2 263.6 494.2 261.5 487.6 261.5 487.6 257.3 494.4 257.3 494.4 255.2 485.4 255.2 485.4 269.9 494.4 269.9 494.4 267.8 487.6 267.8 487.6 263.6"/><path class="cls-1" d="M508.1,261.4c-1.6-.1-3.2-.3-3.4-1.9a2.3,2.3,0,0,1,.4-1.4,3.34,3.34,0,0,1,2.7-1.1c1.3,0,2.7.5,3,1.9l2.1-.1c-.4-2.7-2.7-3.9-5-3.9a5.77,5.77,0,0,0-4.5,2,4,4,0,0,0-.8,2.8c.2,3.1,2.9,3.6,5.2,3.8,1.5.1,3,.3,3.2,1.5a4.33,4.33,0,0,0,.1.5c0,1.5-1.7,2.4-3.3,2.4-1.4,0-3-.7-3.2-2.1v-.2h-2.1v.4c.3,2.6,3,4,5.3,4,2.7,0,5.5-1.6,5.5-4.5a3.4,3.4,0,0,0-.1-1C512.7,262.2,510.1,261.7,508.1,261.4Z"/><polygon class="cls-1" points="521.1 257.1 525.6 257.1 525.6 270 527.7 270 527.7 257.1 532.1 257.1 532.1 255.2 521.1 255.2 521.1 257.1"/><polygon class="cls-1" points="539.9 257.3 542.6 257.3 542.6 267.8 539.9 267.8 539.9 269.9 547.5 269.9 547.5 267.8 544.7 267.8 544.7 257.3 547.5 257.3 547.5 255.2 539.9 255.2 539.9 257.3"/><polygon class="cls-1" points="561.3 266.2 556.9 255.2 554.6 255.2 560.5 270 562.1 270 568 255.2 565.8 255.2 561.3 266.2"/><path class="cls-1" d="M580.6,255l-5.9,14.9H577c.5-1.2,1.2-3,1.8-4.3h5.3l1.8,4.3h2.3L582.3,255Zm-1,8.6,1.9-5.2,1.8,5.2Z"/><polygon class="cls-1" points="598 255.2 595.8 255.2 595.8 269.9 604.9 269.9 604.9 267.8 598 267.8 598 255.2"/><path class="cls-1" d="M634.7,255.1c-3.1,0-4.8,2.1-5.1,4.8l2.1.2c.3-1.6,1.2-2.8,3-2.8,3.4,0,4,3.5,1.7,5.2h0l-6.9,5.9V270h10.3v-2H633c2.1-1.8,2.7-2.1,4.8-3.9C641.8,261.2,640.3,255.1,634.7,255.1Z"/><path class="cls-1" d="M653.4,255.8c-3.6,0-5.4,3.6-5.4,7.1s1.8,7.1,5.4,7.1,5.4-3.5,5.4-7.1S657,255.8,653.4,255.8Zm0,12.1c-2.3,0-3.4-2.5-3.4-5s1.1-5.1,3.4-5.1,3.4,2.5,3.4,5.1S655.7,267.9,653.4,267.9Z"/><polygon class="cls-1" points="666 260.7 667.6 261.9 669.6 259.2 669.6 269.9 671.7 269.9 671.7 255.1 670 255.1 666 260.7"/><polygon class="cls-1" points="680.1 257.2 687.6 257.2 680.7 269.9 683.2 269.9 690.5 256.6 690.5 255.2 680.1 255.2 680.1 257.2"/><path class="cls-1" d="M111.4,43.3s-.9,3.6,2.2,5.4c0,0,3.2,1.9,5.2-.9,0,0,1.6-2.4-1.5-4.2a5.1,5.1,0,0,0-3.9-.6,2.19,2.19,0,0,1,1-2.8s2.1-1.7,6.2,0c0,0,6.3,2.5,3.4,12,0,0-1.2,5.3-8,7.7,0,0,9.2-1.3,11.5-9.6,0,0,1.9-7.6-6.6-11.2C120.8,39.1,113.4,36.2,111.4,43.3Z"/><ellipse class="cls-1" cx="132.89" cy="44.3" rx="1.8" ry="1.3" transform="translate(-5.39 21.93) rotate(-9.25)"/><ellipse class="cls-1" cx="133.38" cy="50.82" rx="1.8" ry="1.3" transform="translate(-6.43 22.09) rotate(-9.25)"/><polygon class="cls-1" points="648.5 163.8 602.5 163.8 602.5 118.7 636.1 118.7 636.1 93.7 602.5 93.7 602.5 48.6 648.5 48.6 648.5 23.5 577.6 23.5 577.6 188.8 648.5 188.8 648.5 163.8"/><path class="cls-1" d="M712.6,167.8c-3.9.2-7.3-1.4-10.3-4.6-4-4.3-6.6-11.3-7.6-20.9L671,144a64.89,64.89,0,0,0,5.5,23.4,41.45,41.45,0,0,0,12.7,16.2c6.4,4.8,14.5,7.3,24.3,7.3a47.14,47.14,0,0,0,13.8-1.8q11.1-3.45,17.1-11.7c6.2-8.2,9.1-18,9-29.5a44.75,44.75,0,0,0-3.7-15.8,68.77,68.77,0,0,0-3.8-7.8c-3.3-6-8.1-12-14.2-18.2-1.8-1.9-5.7-5.3-11.5-10.2a90.32,90.32,0,0,1-11.1-10.5c-6.5-7.8-9.8-15.5-9.8-23.1a23.56,23.56,0,0,1,2.9-12.1c2.4-4,5.8-6.1,10.4-6.1,4.3,0,7.6,1.4,9.9,4.1,3.2,3.8,5.1,9.1,5.8,15.8l23.9-4.4a46.32,46.32,0,0,0-5.5-19.1,34.51,34.51,0,0,0-11.9-12.9c-6.3-4-13.9-5.9-22.8-5.9-9.2,0-17,2.3-23.2,7-10.1,7.7-15.2,19.1-15.2,34.2a49.31,49.31,0,0,0,5.5,23.2c3.4,6.3,9.3,13.5,17.5,21.5,9.8,9.3,17.2,16.3,22.1,21,6.2,6.8,9.4,13.6,9.4,20.5,0,4.8-.8,8.4-2.5,11C722.4,165,718,167.6,712.6,167.8Z"/><path class="cls-1" d="M815.1,167.9c-3.9.2-7.3-1.4-10.3-4.6-4-4.3-6.6-11.3-7.6-20.9l-23.7,1.7a64.89,64.89,0,0,0,5.5,23.4,40.4,40.4,0,0,0,12.7,16.1c6.4,4.8,14.5,7.3,24.3,7.3a47.14,47.14,0,0,0,13.8-1.8q11.1-3.45,17.1-11.7c6.2-8.2,9.1-18,9-29.5a44.75,44.75,0,0,0-3.7-15.8,68.77,68.77,0,0,0-3.8-7.8c-3.3-6-8.1-12-14.2-18.2-1.8-1.9-5.7-5.3-11.5-10.2a90.32,90.32,0,0,1-11.1-10.5c-6.5-7.8-9.8-15.5-9.8-23.1a23.56,23.56,0,0,1,2.9-12.1c2.4-4,5.8-6.1,10.4-6.1,4.3,0,7.6,1.4,9.9,4.1,3.2,3.8,5.1,9.1,5.8,15.8l23.9-4.4a46.32,46.32,0,0,0-5.5-19.1,34.51,34.51,0,0,0-11.9-12.9c-6.3-4-13.9-5.9-22.8-5.9-9.2,0-17,2.3-23.2,7-10.1,7.7-15.2,19.1-15.2,34.2a49.31,49.31,0,0,0,5.5,23.2c3.4,6.3,9.3,13.5,17.5,21.5,9.8,9.3,17.2,16.3,22.1,21,6.2,6.8,9.4,13.6,9.4,20.5,0,4.8-.8,8.4-2.5,11C824.9,165,820.6,167.7,815.1,167.9Z"/><path class="cls-1" d="M396.2,189.7l.9-.6-8-23.7s-7.2,2.8-5.7,10.4a10.08,10.08,0,0,0,6.1,7.5,12.11,12.11,0,0,1-9.3-8.7s-3-10.5,6.5-16.1L382.6,147a51.22,51.22,0,0,0-6.3,9.3v26.5a10.7,10.7,0,0,0,1.4,1.6,30,30,0,0,0,8.1,5.2h10.4Z"/><path class="cls-1" d="M376.2,141a36.7,36.7,0,0,1,2.8-3.6,78.7,78.7,0,0,1-2.8-8.7Z"/><path class="cls-1" d="M401.1,189.7v-.5a4.05,4.05,0,0,1-.9.5Z"/><path class="cls-1" d="M401.1,169.6a11.67,11.67,0,0,0-10.6-4.6l8,23.3a14.71,14.71,0,0,0,2.6-2.3Z"/><path class="cls-1" d="M376.2,189.7H383a27.87,27.87,0,0,1-6.8-5Z"/><path class="cls-1" d="M384.5,106.6c-3.1-1.8-5,2-5,2-5.7,13.9.6,27.4.6,27.4C394.8,114.1,384.5,106.6,384.5,106.6Z"/><path class="cls-1" d="M376.2,101.6c2.1-3.8,4.7-4.8,4.7-4.8,7.9,5.2,9.3,20.7,9.3,20.7,1.5,19.9-6.6,28.5-6.6,28.5l4.7,12.1c5.6-1.5,9.8.8,12.8,4V70.8l-.1.2h0c-.7,2-3.2,3.6-6.2,3.9-3.7.3-6.9-1.7-7.1-4.3s2.7-5.1,6.4-5.4c3-.2,5.6,1,6.6,2.8l.4-.9V49.7H408l.5-1.3,1.2-5.2,1.9,1.1-2.1,5.3h18v-25H390.3l-.9,11.9a4.56,4.56,0,0,1-3.3,3.9,3.65,3.65,0,0,1-4.6-2.3c-.3-1.7,1.2-3.4,3.3-3.9,1.6-.3,2.7-.3,3.5.7.5-5.3.7-8.4.7-10.3H374.8l-1.2,15.2v.1h0a3.84,3.84,0,0,1-3.4,3.1c-2.2.4-4.2-.6-4.6-2.3s1.2-3.4,3.3-3.9a4.35,4.35,0,0,1,3.6.7h0c.7-7.4.8-12.9.8-12.9h0v-.2H349.6v25h26.5v52.2Z"/><path class="cls-1" d="M314.3,101.4a10.83,10.83,0,0,1-4.1-2.1h0a3.29,3.29,0,0,1-1.2-3.5c.6-1.6,2.7-2.2,4.7-1.4l.6.3V86.4l-.6-.6-.5.4c-7,6.1-15.9-.3-15.9-.3-10.6-7.7-5.9-22.9-5.9-22.9-.7-.7-1.4-1.4-2-2.1v39.9l1.2-.9h0l8.9-6.8.9,1.9,5.4,11.3s1.1,2.3-1.4,4.5c-1.7,1.5-4.2,1.7-5.2.7s-.4-3.1,1.4-4.5c1.3-1.1,2.3-1.6,3.5-1.3-4-8.9-4.9-9.7-4.9-9.7l-7.6,5.8h0l-2.1,1.6v6.2l3.4,7.2v.1h0c.5,1.1-.2,2.8-1.7,4a5.85,5.85,0,0,1-1.7,1v3.2l24.9-5.7v-18Z"/><path class="cls-1" d="M295.5,67s-4.8,15.8,6.5,20.4c0,0,8.3,2.7,11.1-2.3l-9.8-10.2a5.11,5.11,0,0,0-.4,6.7,5.79,5.79,0,0,0,4.9,2.4,7.12,7.12,0,0,1-6.9-2.2s-4-4.7-.6-9.8Z"/><path class="cls-1" d="M291.6,62c1.3-8.6-.5-12.6-2.3-14.5V59.6A17.21,17.21,0,0,0,291.6,62Z"/><polygon class="cls-1" points="314.3 134.4 304.3 136.8 314.3 152.8 314.3 134.4"/><path class="cls-1" d="M290.9,115.6c-.5-1.1-1-2.2-1.5-3.1v3.3a7.72,7.72,0,0,1,1.5-.2Z"/><path class="cls-1" d="M314.3,82.8V78.3a8.71,8.71,0,0,0-3.5-4,6.75,6.75,0,0,0-6.9,0l9.7,10A10.09,10.09,0,0,0,314.3,82.8Z"/><path class="cls-1" d="M314.3,188.4c-8.6,3-17.6-2.7-17.6-2.7a22.84,22.84,0,0,1-7.3-7.2v11.2h24.9Z"/><path class="cls-1" d="M314.3,166.9a9.62,9.62,0,0,0-9,1.1l9,8.1Z"/><path class="cls-1" d="M295.8,66.2l5.3,5.1c6-5,13.1,2.8,13.1,2.8s.1.1.1.2V62.5a4.54,4.54,0,0,1-1.8-.4c-2.1-.8-3.4-2.9-3-4.4s2.6-1.8,4.7-.8a.1.1,0,0,1,.1.1V46.3l-4.4-2.1L302,54.5l-.1.1h0c-.8,1-2.6,1.1-4.4.3-2.1-1-3.4-2.9-3-4.4s2.6-1.8,4.7-.8a6,6,0,0,1,2.8,2.6h0c4-4.9,6.6-8.8,6.6-8.8h0c.1-.3.5-1,.8-1.7l4.8,2.4V24.7H289.4V37.8a2,2,0,0,1,.6,1.4s.2.2,1-.3l16.2-10.6.1.4a5.87,5.87,0,0,0-1.9,2.9s-.7,4.4-3.5,6.6c0,0-.4.3-.6.2,0,0,3.8-3.2,2.4-7.2a3.23,3.23,0,0,0-2.2,2.4,26.16,26.16,0,0,1-2.1,5.5,8.27,8.27,0,0,1-6.3,4.2l-.1-.1s8.3-1.6,6.1-9l-9.8,6.2v5.9a29.17,29.17,0,0,1,3,4C297.9,59.9,295.8,66.2,295.8,66.2Z"/><path class="cls-1" d="M292.1,158.1s-5.6,23.8,11.6,29.5c0,0,5.8,1.5,10.6,0v-9.7l-9.8-9s-4.2,5,0,9.9a8.45,8.45,0,0,0,7.5,3,10.29,10.29,0,0,1-10.4-2.6s-6.4-6.5-1.8-14.4Z"/><path class="cls-1" d="M314.3,157.8c-.1.1-.1.2-.2.3-1.3,2.2-3.7,3.1-5.2,2.1s-1.7-3.5-.4-5.7c1.1-1.7,2.8-2.7,4.2-2.5l-7.6-12.2-2.2-2.6-13.3,3.1c4.6,10.2,3,16.8,3,16.8l8.3,6.9c4.4-4.2,9.6-3.2,13.5-1.3v-4.9Z"/><path class="cls-1" d="M515.8,55.9l10.9-32.4H514.1V57.1a1.38,1.38,0,0,1,.3.4C514.3,57.5,515.1,57.9,515.8,55.9Z"/><path class="cls-1" d="M480.7,155.2a7.49,7.49,0,0,1-2,1.1c-2.4.7-4.7-.6-5.1-2.5s1.3-3.8,3.7-4.3c1.5-.3,2.6-.3,3.4.3V136.4l-8.8,1.6h0l-5.6,1L465,155.8v.1h0c-.1,1.6-1.7,3.1-3.7,3.5-2.4.5-4.7-.6-5.1-2.5s1.3-3.8,3.7-4.3a4.62,4.62,0,0,1,3.9.8h0c.7-8.2.9-14.2.9-14.2h0c0-.4-.1-1.4-.2-2.5l7.6-1.4h0l8.6-1.5V83L515,188.9h26.8V23.5h-9.1a16.55,16.55,0,0,0,1.4,3.6s6.6,11.4,5.1,18.9c0,0-.2,1-.9,1,0,0,1.7-10.9-8.3-19.5,0,0-2.7,2.4,0,7.5a96.31,96.31,0,0,1,5.8,15.1s3.2,9.8-5,15.1l-.4-.3s13.5-10.3-4.1-26.7l-8.4,23.6c-.1.2-.1.4-.2.6h0a10,10,0,0,1-.8,1.4v70.8L483.8,23.5h-28V188.8h24.9V155.2Z"/><path class="cls-1" d="M39.9,98.7h0c.1-.4.2-.7.3-1.1L52.5,58.1c28.5,23,7.6,42.1,7.6,42.1l.7.4C73.6,90.6,68,75.4,68,75.4,65,65,58.1,52.3,58.1,52.3c-4.4-7.8-.3-12.1-.3-12.1A33.78,33.78,0,0,1,71.9,69.9c1.1-.1,1.3-1.7,1.3-1.7,2.1-12.4-8.9-29.5-8.9-29.5a20.11,20.11,0,0,1-2.8-13.6l-1.7-1.3L41,87.9c-1,3.4-2.2,2.9-2.2,2.9-2.8-3.6-8.5-5.8-14.9-5-8.4,1-14.7,6.6-14,12.6s8.1,10,16.5,9C33,106.7,38.2,103.1,39.9,98.7Z"/><path class="cls-1" d="M79.1,100.8s4.5,2.4,8.1-2.7c0,0,4.2-7-.9-10.3l2.5-5.1s5.2.1,11.2-6.3c0,0,4.6-5,3.9-9.1,0,0-6.2-3.1-13.7,11.4,0,0-12.2,0-15.5,9.6,0,0-2.7,8.1,3.4,11.8l.4.3s-1.7,3.4-3,5.8c0,0-2,3.8-5.4,1.9,0,0-2.2-1.5-1.6-3.4h0a1.5,1.5,0,0,0,1.1.4,2.66,2.66,0,0,0,2.6-2.7c.1-1.6-.8-3-2.1-3.1a2.3,2.3,0,0,0-2.3,1.7h0s-2.2,4.9,1.6,7.4c0,0,3.1,2.3,5.5-.4C74.8,107.9,76,106.4,79.1,100.8ZM99.6,70.4s1.8-.5,2.1,1c0,0,.6,5.5-10.8,7.2C91,78.7,93.4,72.7,99.6,70.4ZM86.2,95.6s-1.1,5.5-6.7,4.4l5.2-9.4A5,5,0,0,1,86.2,95.6ZM74.6,92.1c.8-9.4,13.6-9.4,13.6-9.4l-2.5,4.7c-4.6-1.4-7.1,2.7-7.1,2.7a5.38,5.38,0,0,0,0,5.6,4.42,4.42,0,0,1,.6-4.2,4,4,0,0,1,5-1.2l-5.3,9.5C74.5,98.9,74.6,92.1,74.6,92.1Z"/><path class="cls-1" d="M54.7,111l-2.5-3.7L39.3,121.9h0l-8.4,9.5c1.2,1.3,2.4,2.5,2.8,2.9h0s5.9,8,13.3,19.2h0a7.92,7.92,0,0,0-5.8,3c-2.6,3.1-2.8,7.2-.4,9.2s6.5,1.1,9.1-2c2.2-2.6,2.7-6.1,1.3-8.3h0c0-.1-.1-.1-.1-.2L35.7,132.4l6.2-7h0L53,112.9s2,1.5,13.3,18.8c-2.2-.4-3.8.8-5.7,3-2.6,3.1-2.8,7.2-.4,9.2s6.7,1.3,9.1-2a8.24,8.24,0,0,0,.4-9.2Z"/><path class="cls-1" d="M85.9,128.6a2.09,2.09,0,0,0-2.6,1.1,2,2,0,0,0,1.7,2.2,2.64,2.64,0,0,0,2.6-1.1l4.1-6.8.7-1.1-5.6-1.6h0l-3.6-1.1a8.2,8.2,0,0,0-.4,1.1h0s-1.4,2.6-3.5,6h0a2.55,2.55,0,0,0-1.6-1.2,2.09,2.09,0,0,0-2.6,1.1,2,2,0,0,0,1.7,2.2,2,2,0,0,0,2.4-.7h0l4.2-7.1,2.7.8h0l4.8,1.4s-.1.7-3.4,6C87.2,129.1,86.7,128.9,85.9,128.6Z"/><path class="cls-1" d="M96,16.3a3.27,3.27,0,0,0-3,2.2c-1,1.9-.8,4.2.4,5.1s3,.1,4-1.8a4.71,4.71,0,0,0,.2-4.3h0c0-.1-.1-.2-.2-.3L91.7,7.7c8.3-1.8,8.9,5.9,8.9,5.9l.2-.1a6.56,6.56,0,0,0-3.7-5.9,37.08,37.08,0,0,0-5.7-2.1,2.74,2.74,0,0,1-2.3-2.1c4.5-1.2,7.5,2.4,7.5,2.4.1-.2-.1-.6-.1-.6-2-2.6-6.7-3.4-6.7-3.4A5,5,0,0,1,86.9,0l-.5.1,9.3,15.1C96.3,16.2,96,16.3,96,16.3Z"/><path class="cls-1" d="M6,71.2a2,2,0,0,0,2.4-.7h0l4.2-7.1,2.8.7h0l4.8,1.4s-.1.7-3.4,6c-.2-.7-.7-.9-1.5-1.2a2.09,2.09,0,0,0-2.6,1.1,1.89,1.89,0,0,0,1.7,2.2A2.64,2.64,0,0,0,17,72.5l4.1-6.8.7-1.1L16.2,63h0l-3.6-1.1a8.2,8.2,0,0,0-.4,1.1h0s-1.4,2.6-3.5,6h0a2.55,2.55,0,0,0-1.6-1.2,2.09,2.09,0,0,0-2.6,1.1C4.1,69.9,4.9,70.8,6,71.2Z"/><path class="cls-1" d="M8.4,138.9,1.2,124.1l-1.2.3,1.7,2.5,5.2,10.8a4.1,4.1,0,0,0-3.8,1.7c-1.3,1.7-1.4,3.8-.2,4.8s3.3.4,4.6-1.3a3.74,3.74,0,0,0,.9-4Z"/><path class="cls-1" d="M227,67.8c2.5.3,4.8-.9,5.5-2.7h0a.1.1,0,0,1,.1-.1L240,46.1l6.8.8h0l1.9.2.5-3.1-1.2-.1h0l-9.2-1.1c-.2,1.3-.5,2.5-.6,2.9h0s-2.4,6.9-6.1,16.1h0a6.09,6.09,0,0,0-4.3-2.3c-3-.3-5.5,1.3-5.8,3.6S224,67.5,227,67.8Z"/><path class="cls-1" d="M248.2,30.4a10.74,10.74,0,0,0,3.2-.8l.7-4.6H241.2a4.1,4.1,0,0,0-.1,1.1C241.3,28.7,244.5,30.7,248.2,30.4Z"/><path class="cls-1" d="M227.7,45.7c1.7-1.1,2.7-2.8,2.5-4.2h0L228.5,25h-1.1l.2.8,1.4,14a4.49,4.49,0,0,0-4.8.4c-.2.1-.3.2-.5.3l-.8,5.7A5,5,0,0,0,227.7,45.7Z"/><path class="cls-1" d="M234.5,80.4c-2.4.8-3.8,2.9-3.2,4.6s3,2.4,5.4,1.6A4.71,4.71,0,0,0,240,83h0l2.1-19.1-1.4-.4.1,3.6-1.5,14A4.86,4.86,0,0,0,234.5,80.4Z"/><path class="cls-1" d="M186,115l.7-5.1c-.1.1-.1.2-.2.3A5.25,5.25,0,0,0,186,115Z"/><path class="cls-1" d="M238.8,109.9l1-6.3c-1.5-1.3-2.9-2.5-4.3-3.6,2.8-.8,4.9-2.6,5.5-4.6l5.9-38-.9,4.9a4.34,4.34,0,0,0-3,3.3,4.44,4.44,0,0,0,1.7,3.6L241,89.6c-.3,1.8-1,1.6-1,1.6-1.6-1.7-4.6-2.4-7.7-1.7-2.9.7-5.2,2.4-6,4.4a13.84,13.84,0,0,0-1.4-.7c-1.3-.8-2.7-1.6-4.1-2.3l7.9-13.3,3-5.1-9-2.6a9.9,9.9,0,0,0-1.5-3.5l-.9-1.2L219,74.8l6.1,1.8s-.4,1.9-6.8,13c-.4-.2-.8-.4-1.3-.7l-1.5,10.8,2.3-3.8A70.6,70.6,0,0,1,238.8,109.9Z"/><path class="cls-1" d="M173.1,98.8h0c0-.1.1-.1.1-.2l6.7-11.4A114.85,114.85,0,0,1,210.8,93l-1.2-8c-7.5-3.7-15.3-7-22.5-10l4.8-8.1,11.9,3.4h0l3.8,1.1-.9-6.3-15.2-4.4c3-.7,6.4-2.6,9.4-7.1,1.6,1.1,3.1,2.2,4.6,3.3L204.3,49l-1.1-.8q.3-1.05.6-2.4l-1.9-13a13.91,13.91,0,0,0-3.8-3.3l2.1-4.7h-1.8l-1.8,3.9c-9-2.3-14.2,4.2-15.6,6.3-2.3-1.1-4.6-2.2-6.8-3.2a21.3,21.3,0,0,1,6.3-7H175c-.1.2-.3.4-.4.6l-2,14.4c2.2.7,4.4,1.4,6.5,2.2a12.66,12.66,0,0,0,2,6.2,9.49,9.49,0,0,1-.6-5.6c2.7,1.1,5.3,2.2,7.7,3.4l-5.8,11.6c-7.4-1.2-9.6-9.7-10.3-14.3l-.5,3.5a18.32,18.32,0,0,0,9.1,11.7l.9.6s-2.8,6.1-5.3,11.4c-2.7-1-5.2-2-7.5-2.8l-2.6,19c3.6-.1,7,0,10.4.1-1.1,1.8-2.2,3.7-3.4,5.7h0a10.85,10.85,0,0,0-7-5.3h0l-2,15C168,102.8,171.5,101.4,173.1,98.8Zm26-53.4c-2.2-1.5-4.5-2.9-6.8-4.2l2.4-5A10.88,10.88,0,0,1,199.1,45.4Zm-15-8.7c4.2-3.5,9.4-1.1,9.4-1.1l-2.4,4.9C188.8,39.1,186.5,37.9,184.1,36.7Zm5.5,10.2c2.9,1.5,5.6,3,8.1,4.6-1.7,3.6-5.5,8-13.6,6.8Zm-6.4,13.2a14,14,0,0,0,7.3.9c-.8,2.1-1.5,3.9-1.7,4.6h0s-1.6,3.1-4.5,8.2c-2.3-.9-4.6-1.8-6.7-2.6C178.9,68.7,180.8,65.1,183.2,60.1Z"/><path class="cls-1" d="M203.3,98.1c-5.2-1.4-10.3.8-11.4,4.8-.8,3.1.9,6.6,4.1,8.5a16.65,16.65,0,0,0-2.8,1.8,5.36,5.36,0,0,0-.9-5.1l-3.2-3.6.4,2.6c.2.2.3.4.5.6h-.4l5,31.7c1.8.8,5.5,2,9.1.6.2,2.7.4,6.6.5,11.1h0a4.88,4.88,0,0,0-4.3-.3c-.1,0-.2.1-.3.1-1-1.4-2.1-2.9-3.4-4.5l-.6-.6.9,6c.1.4.2.7.3,1.1,0,.1-.1.1-.1.2l.6,4.1c.2.1.3.2.5.3a55.91,55.91,0,0,1,.6,6.4l4.1,26.2H209c-4.8-8.4-3.5-19.7-3.5-19.7l8.5,5.9c-3.1,7.1,1.5,12.3,3.1,13.8h3.7a1.2,1.2,0,0,1-.4-.4c-4.8-4.5-1.2-10-1.2-10l4.6,3.3-.3.3c-1.9,2.2-2.4,5.1-1.3,6.8h4.1l1.5-9.3a6.8,6.8,0,0,0-3,1.4l-4.8-3.4a9.66,9.66,0,0,1,7.8-2.4l.6,1.1.8-5.1a24.13,24.13,0,0,0-2.5-.8l-1.9-4.2a20.78,20.78,0,0,1,5.2.3l.2-1.3c-2.8-1.3-5.3-2.2-5.3-2.2-2.7-.9-3.2-2.6-3.3-3.2l.3-.3a13.61,13.61,0,0,1,8.8,2.3l.1-.8a23.1,23.1,0,0,0-6.9-3.3,35.24,35.24,0,0,0,9.2-15.6s5.5-21.5-18.8-31.8l-.3,1.8-.3-2a28.05,28.05,0,0,0-4.6-1.1A8.7,8.7,0,0,0,211,108l1.8-3-.7-4.5c-.6.9-1.1,1.8-1.7,2.8C209.4,100.4,207.1,99.2,203.3,98.1Zm21.9,73.4a10.38,10.38,0,0,0-10.4,3.7l-8.9-5.8a46.28,46.28,0,0,0,14.5-7.6Zm-10.5-21.2c.6,2,3.3,3.1,5.8,2.1a9.88,9.88,0,0,0,1.5-.9,30.52,30.52,0,0,1-2.8,5.1,6.42,6.42,0,0,1-.9-1.1l-.8.1,1,2.1a37,37,0,0,1-12.7,10.7,26.18,26.18,0,0,0-2.6-10.9,4.23,4.23,0,0,0,2.5-3.7h0v-.1l-.6-14.3a12.73,12.73,0,0,0,3.2-3,7.32,7.32,0,0,0,.9-2.2l1.6-.5h0l10.6-3.2s.6,1.5.9,15.2c-1.1-1-2.4-.9-4.3-.3C215.6,146.1,214,148.4,214.7,150.3Zm-1.5-35.6s16.5,6.6,10.6,30.9l-.6-15.7-.1-3-12.3,3.7h0l-1.3.4c-.3-2.1-1.7-4.6-5.5-6.7,0,0-5.2-3.6-11.3-1.7,0,0-2.3-4.3,2.9-8a11.17,11.17,0,0,1,4.5-1.8,11.92,11.92,0,0,0,4.7-.3A27.54,27.54,0,0,1,213.2,114.7Z"/><path class="cls-1" d="M172.7,165.9c.8-5.3-3.9-12.6-3.9-12.6a8.92,8.92,0,0,1-1.3-5.8l-.7-.6-7.9,27.5c-.4,1.5-1,1.2-1,1.2-1.2-1.6-3.7-2.4-6.4-2.1-3.6.5-6.3,2.9-6,5.4s3.5,4.3,7.1,3.8c2.8-.4,5-1.9,5.8-3.8h0a.9.9,0,0,0,.1-.5l5.2-17c12.3,9.8,3.4,18,3.4,18l.3.2c5.5-4.3,3-10.8,3-10.8a58.08,58.08,0,0,0-4.3-9.9c-1.9-3.3-.2-5.2-.2-5.2a14.52,14.52,0,0,1,6.1,12.7C172.6,166.6,172.7,165.9,172.7,165.9Z"/><path class="cls-1" d="M148.8,150.1s-1.7,8.3,4.8,11.3l.4.2s-1.3,3.5-2.3,6.1c0,0-1.5,4-5.1,2.5,0,0-2.4-1.3-2-3.2h0a2,2,0,0,0,1.1.3,2.66,2.66,0,0,0,2.2-3c-.1-1.6-1.2-2.9-2.5-2.8a2.32,2.32,0,0,0-2.1,1.9h0s-1.6,5.2,2.5,7.2c0,0,3.3,1.9,5.4-1.1,0,0,1.1-1.6,3.4-7.6,0,0,4.7,1.9,7.7-3.6,0,0,3.3-7.5-2.1-10.1l1.9-5.3s5.2-.5,10.3-7.6a19.36,19.36,0,0,0,2.6-5.4,2.7,2.7,0,0,0,1.4,2c1.7,1.1,4.3.2,5.7-2,1.2-1.9,1.2-4.2.1-5.5h0l-.1-.1-12-13.6,3.4-5.1h0l6.1-9.1s1.2.6,7.7,8.2l.3-1.8-7-7.9-2-2.2-7.2,10.6h0l-4.6,6.9c.9.7,1.8,1.4,2.1,1.7h0s4.5,4.7,10.3,11.4h0a5.49,5.49,0,0,0-3.6,2.5c-.2.3-.3.6-.5.9a4.4,4.4,0,0,0-.2-1s-6.5-2.3-12.2,12.9C163,138.7,150.9,140.2,148.8,150.1Zm22.6-20.7s1.7-.7,2.3.8c0,0,1.3,5.4-9.9,8.5A15.54,15.54,0,0,1,171.4,129.4ZM161.1,156s-.4,5.6-6.2,5.2l4-10A5,5,0,0,1,161.1,156Zm-1.6-8.1c-4.7-.8-6.7,3.5-6.7,3.5a5.41,5.41,0,0,0,.6,5.5,4.55,4.55,0,0,1,.1-4.2,4,4,0,0,1,4.9-1.8L154.3,161c-4.5-.4-5.2-7.1-5.2-7.1-.3-9.4,12.3-11,12.3-11Z"/><path class="cls-1" d="M144.3,146.6h0l-.1-.1L132.3,129l4.7-5.3h0l8.5-9.6s1.6,1.1,10.2,14.4c-1.7-.3-2.9.6-4.4,2.3-2,2.4-2.1,5.5-.3,7.1s5.2,1,7-1.5a6.4,6.4,0,0,0,.3-7.1l-11.4-16.9-1.9-2.8-9.9,11.2h0l-6.4,7.3c1,1,1.9,1.9,2.2,2.3h0s4.5,6.1,10.2,14.7h0a6.2,6.2,0,0,0-4.5,2.3c-2,2.4-2.1,5.5-.3,7.1s5,.9,7-1.5C145,150.9,145.4,148.3,144.3,146.6Z"/><path class="cls-1" d="M122.1,64.1l-.9.2,17.5,28.5c1,1.5.4,1.8.4,1.8-2-.2-4.2,1.4-5.6,4.1-1.8,3.6-1.5,7.8.8,9.5s5.6.2,7.5-3.4a9.72,9.72,0,0,0,.5-8.1h0c-.1-.2-.2-.3-.3-.5L131.4,78.4c15.5-3.3,16.7,11,16.7,11l.3-.1a12.5,12.5,0,0,0-6.9-11.1,59.3,59.3,0,0,0-10.7-3.9c-3.9-.9-4.3-3.9-4.3-3.9,8.4-2.3,14.1,4.5,14.1,4.5.3-.5-.2-1.1-.2-1.1-3.8-4.9-12.7-6.4-12.7-6.4A8.83,8.83,0,0,1,122.1,64.1Z"/><path class="cls-1" d="M147.3,63.8c-2.1.4-3.6,1.9-3.3,3.4s2.2,2.4,4.3,2a4,4,0,0,0,3.3-2.6h0L156,50.8l-1.1-.5-.4,3-3.2,11.6A4.25,4.25,0,0,0,147.3,63.8Z"/><path class="cls-1" d="M127.9,60a2.1,2.1,0,0,0-2.8,1.2c-.3,1,.6,2.1,1.9,2.5a2.38,2.38,0,0,0,2.7-.8h0v-.1l4.7-7.9,3,.9h0l5.3,1.6s-.2.8-3.8,6.7c-.2-.7-.8-1-1.7-1.3a2.1,2.1,0,0,0-2.8,1.2,2.17,2.17,0,0,0,1.9,2.5,2.63,2.63,0,0,0,2.8-1.2l4.5-7.6.8-1.3-6.2-1.8h0l-4-1.2a12.25,12.25,0,0,1-.5,1.3h0s-1.6,2.9-3.9,6.7h0A3.31,3.31,0,0,0,127.9,60Z"/><path class="cls-1" d="M126.7,117.5c1.7,1.7,4,1.6,5.1,0s.6-4.4-1.1-6.1c-1.4-1.3-3.1-1.6-4.2-.8l3.5-16,1.3-3.9H130l-4.7,21.8h0A5.12,5.12,0,0,0,126.7,117.5Z"/><path class="cls-1" d="M154,96.2s2.4-3,1.3-9.4c0,0-.9-5-3.6-6.5,0,0-4.6,2.3.5,13.2,0,0-5.5,7.3-1.3,13.6,0,0,3.5,5.3,8.5,3.4l.3-.1s1.2,2.5,2,4.4c0,0,1.3,2.9-1.3,4.1,0,0-1.9.6-2.7-.6h0a2,2,0,0,0,.8-.4,2,2,0,0,0-.4-2.8,1.94,1.94,0,0,0-2.8-.1,1.8,1.8,0,0,0-.1,2.1h0s1.9,3.5,5.1,2.4c0,0,2.8-.8,2.2-3.4a36.38,36.38,0,0,0-2.3-5.8s3.5-1.6,2.1-6c0,0-2.3-5.6-6.5-4.1Zm-2.4-12s.5-1.3,1.6-.8c0,0,3.6,2.1-.6,9.7A11.88,11.88,0,0,1,151.6,84.2Zm8.9,19.4s2.8,3.2-.5,6l-3.3-7.3A3.42,3.42,0,0,1,160.5,103.6Zm-.9,6.2c-2.5,2.2-6.5-.9-6.5-.9-5.2-4.7.6-12.3.6-12.3l1.7,3.6a4.68,4.68,0,0,0-1.6,5.4,4.08,4.08,0,0,0,3.3,2.6,3.44,3.44,0,0,1-2.2-2.3,3,3,0,0,1,1.6-3.5Z"/><path class="cls-1" d="M134.3,143.6a1,1,0,0,0-1.3.5.93.93,0,0,0,.9,1.1,1.18,1.18,0,0,0,1.3-.5l2.1-3.5.4-.6-2.9-.8h0l-1.9-.5a3.93,3.93,0,0,0-.2.6h0s-.7,1.3-1.8,3.1h0a1,1,0,0,0-.8-.6.87.87,0,1,0-.4,1.6,1,1,0,0,0,1.2-.4h0l2.2-3.6,1.4.4h0l2.5.7a22.24,22.24,0,0,1-1.7,3.1A1.52,1.52,0,0,0,134.3,143.6Z"/><path class="cls-1" d="M139.7,167c-1.1.8-1.5,2.1-.9,2.8s1.9.7,3-.1a2.41,2.41,0,0,0,1.1-2.4h0l-2-10h-.8l.6,1.8,1.5,7.4A2.42,2.42,0,0,0,139.7,167Z"/><path class="cls-1" d="M174,146.7h0l5.4-12.6-.9-.6-.7,2.5-4,9.2a3.23,3.23,0,0,0-3.1-1.4c-1.8.1-3.2,1.2-3.1,2.5s1.5,2.3,3.3,2.2C172.5,148.4,173.7,147.7,174,146.7Z"/><path class="cls-1" d="M140.4,50.5a8,8,0,0,0,1.1.5h0s2.5,1.6,5.7,4h0a2.33,2.33,0,0,0-.5,4c.9.3,1.9-.3,2.4-1.5a2.2,2.2,0,0,0-.5-2.5h0l-6.7-4.9,1-2.6h0l1.8-4.6s.7.2,5.7,3.9c-.7.1-1,.6-1.3,1.4a1.75,1.75,0,1,0,3.2,1.1,2.35,2.35,0,0,0-.8-2.6L145.1,42l-1.1-.8-2.1,5.4h0Z"/><path class="cls-1" d="M131.5,40.3a4.65,4.65,0,0,0,2.9-3.1h0v-.3L136.2,26c7.5,4,3.1,10.2,3.1,10.2h.2a6.77,6.77,0,0,0,1-6.9,28,28,0,0,0-3-5.2,2.73,2.73,0,0,1-.4-3.1c4.2,1.9,4.2,6.6,4.2,6.6.3-.1.3-.5.3-.5.1-3.3-3-6.9-3-6.9a5,5,0,0,1-1.1-3.3l-.4-.2-2.6,17.6c-.1.9-.5.9-.5.9a3.61,3.61,0,0,0-3.7-.3c-2,.8-3.3,2.7-3,4.2S129.5,41.2,131.5,40.3Z"/><path class="cls-1" d="M110.6,22.2h0s2.5,1.6,5.7,4h0a2,2,0,0,0-1.3,1.4,2,2,0,0,0,.8,2.6c.9.3,1.9-.3,2.4-1.5a2.2,2.2,0,0,0-.5-2.5h0L111,21.3l1-2.6h0l1.8-4.6s.7.2,5.7,3.9c-.7.1-1,.6-1.3,1.4A2,2,0,0,0,119,22a2,2,0,0,0,2.4-1.5,2.35,2.35,0,0,0-.8-2.6l-6.4-4.7-1.1-.8L111,17.8h0l-1.4,3.5A3.23,3.23,0,0,0,110.6,22.2Z"/><path class="cls-1" d="M80.8,45.5a3.72,3.72,0,0,0,2.5-3.3h0l.3-16.4-1.2-.2.4,3-.2,12a3.93,3.93,0,0,0-4.1-.2c-1.9.9-3,2.8-2.3,4.2S78.9,46.4,80.8,45.5Z"/><path class="cls-1" d="M101.1,50.9c-1.2.3-2,1.2-1.8,2.1a2,2,0,0,0,2.5,1.2,2.46,2.46,0,0,0,1.8-2.1l.5-7.9.1-1.3L98.5,44h0l-3.7.7a6.25,6.25,0,0,1,.1,1.2h0s-.1,3-.3,7h0a2.47,2.47,0,0,0-1.9-.4c-1.2.3-2,1.2-1.8,2.1a2,2,0,0,0,2.5,1.2,2.13,2.13,0,0,0,1.8-1.7h0V54l.5-8.2,2.7-.5h0l4.9-.9s.2.7-.3,6.9A1.77,1.77,0,0,0,101.1,50.9Z"/></g></g></svg>