<?xml version="1.0" encoding="utf-8"?>
<!-- Generator: Adobe Illustrator 21.0.2, SVG Export Plug-In . SVG Version: 6.00 Build 0)  -->
<svg version="1.1" id="Layer_1" xmlns="http://www.w3.org/2000/svg" xmlns:xlink="http://www.w3.org/1999/xlink" x="0px" y="0px"
	 viewBox="0 0 2000 2000" style="enable-background:new 0 0 2000 2000;" xml:space="preserve">
<style type="text/css">
	.st0{clip-path:url(#SVGID_2_);}
	.st1{clip-path:url(#SVGID_4_);fill:#FFFFFF;}
	.st2{clip-path:url(#SVGID_6_);}
	.st3{clip-path:url(#SVGID_8_);fill:#FFFFFF;}
	.st4{clip-path:url(#SVGID_10_);}
	.st5{clip-path:url(#SVGID_12_);fill:#FFFFFF;}
	.st6{clip-path:url(#SVGID_14_);}
	.st7{clip-path:url(#SVGID_16_);fill:#FFFFFF;}
	.st8{clip-path:url(#SVGID_18_);}
	.st9{clip-path:url(#SVGID_20_);fill:#FFFFFF;}
	.st10{clip-path:url(#SVGID_22_);}
	.st11{clip-path:url(#SVGID_24_);fill:#FFFFFF;}
	.st12{clip-path:url(#SVGID_26_);}
	.st13{clip-path:url(#SVGID_28_);fill:#FFFFFF;}
	.st14{clip-path:url(#SVGID_30_);}
	.st15{clip-path:url(#SVGID_32_);fill:#FFFFFF;}
	.st16{fill:#FFFFFF;}
	.st17{fill-rule:evenodd;clip-rule:evenodd;fill:#FFFFFF;}
	.st18{fill:none;}
	.st19{clip-path:url(#SVGID_34_);}
	.st20{clip-path:url(#SVGID_36_);fill:#FFFFFF;}
	.st21{clip-path:url(#SVGID_38_);}
	.st22{clip-path:url(#SVGID_40_);fill:#FFFFFF;}
</style>
<g>
	<defs>
		<path id="SVGID_1_" d="M981.5-144.6h27v-27h-27V-144.6z M1000.4-160.8c0,0.1,0,0.2,0,0.4c0,3.7-2.8,7.9-7.9,7.9
			c-1.6,0-3-0.5-4.2-1.2c0.2,0,0.4,0,0.7,0c1.3,0,2.5-0.4,3.4-1.2c-1.2,0-2.2-0.8-2.6-1.9c0.2,0,0.3,0,0.5,0c0.3,0,0.5,0,0.7-0.1
			c-1.3-0.3-2.2-1.4-2.2-2.7v0c0.4,0.2,0.8,0.3,1.3,0.3c-0.7-0.5-1.2-1.3-1.2-2.3c0-0.5,0.1-1,0.4-1.4c1.4,1.7,3.4,2.8,5.7,2.9
			c0-0.2-0.1-0.4-0.1-0.6c0-1.5,1.2-2.8,2.8-2.8c0.8,0,1.5,0.3,2,0.9c0.6-0.1,1.2-0.4,1.8-0.7c-0.2,0.6-0.6,1.2-1.2,1.5
			c0.6-0.1,1.1-0.2,1.6-0.4C1001.4-161.7,1000.9-161.2,1000.4-160.8z"/>
	</defs>
	<clipPath id="SVGID_2_">
		<use xlink:href="#SVGID_1_"  style="overflow:visible;"/>
	</clipPath>
	<g class="st0">
		<defs>
			<rect id="SVGID_3_" x="474.5" y="-868.6" width="1024" height="2819"/>
		</defs>
		<clipPath id="SVGID_4_">
			<use xlink:href="#SVGID_3_"  style="overflow:visible;"/>
		</clipPath>
	</g>
</g>
<g>
	<defs>
		<path id="SVGID_5_" d="M1061.5-144.6h27v-27h-27V-144.6z M1068.6-155.4c0,0-0.1,0.1-0.1,0.1c-0.1,0-0.1,0-0.1-0.1l-0.3-1.2
			l0.3-1.3c0,0,0.1-0.1,0.1-0.1c0.1,0,0.1,0,0.1,0.1l0.3,1.3L1068.6-155.4z M1070.9-155.1L1070.9-155.1c0,0.1-0.1,0.1-0.2,0.1
			c-0.1,0-0.2,0-0.2-0.1l-0.2-1.5l0.2-2.3c0-0.1,0.1-0.1,0.2-0.1c0.1,0,0.2,0,0.2,0.1l0.3,2.3L1070.9-155.1z M1073.4-155.2
			L1073.4-155.2c0,0.1-0.2,0.2-0.4,0.2c-0.2,0-0.4-0.1-0.4-0.2l-0.2-1.4l0.2-3.1c0-0.1,0.2-0.2,0.4-0.2c0.2,0,0.4,0.1,0.4,0.2
			l0.2,3.1L1073.4-155.2z M1080-155c0,0-4.8,0-4.8,0c-0.1,0-0.2-0.1-0.2-0.2v-5.5c0-0.1,0-0.2,0.2-0.2c0.3-0.1,0.7-0.2,1.1-0.2
			c1.6,0,2.9,1.2,3,2.8c0.2-0.1,0.4-0.1,0.7-0.1c1,0,1.7,0.8,1.7,1.7S1081-155,1080-155z"/>
	</defs>
	<clipPath id="SVGID_6_">
		<use xlink:href="#SVGID_5_"  style="overflow:visible;"/>
	</clipPath>
	<g class="st2">
		<defs>
			<rect id="SVGID_7_" x="474.5" y="-868.6" width="1024" height="2819"/>
		</defs>
		<clipPath id="SVGID_8_">
			<use xlink:href="#SVGID_7_"  style="overflow:visible;"/>
		</clipPath>
	</g>
</g>
<g>
	<defs>
		<path id="SVGID_9_" d="M1039.3-158c0,2.2-1.9,4-4.2,4c-2.3,0-4.2-1.8-4.2-4c0-0.4,0.1-0.7,0.1-1.1h-1.3v5.8c0,0.2,0.2,0.4,0.4,0.4
			h9.8c0.2,0,0.4-0.2,0.4-0.4v-5.8h-1.3C1039.3-158.7,1039.3-158.4,1039.3-158"/>
	</defs>
	<clipPath id="SVGID_10_">
		<use xlink:href="#SVGID_9_"  style="overflow:visible;"/>
	</clipPath>
	<g class="st4">
		<defs>
			<rect id="SVGID_11_" x="474.5" y="-868.6" width="1024" height="2819"/>
		</defs>
		<clipPath id="SVGID_12_">
			<use xlink:href="#SVGID_11_"  style="overflow:visible;"/>
		</clipPath>
	</g>
</g>
<g>
	<defs>
		<path id="SVGID_13_" d="M1037.9-160.7h1.9c0.2,0,0.4-0.2,0.4-0.4v-1.8c0-0.2-0.2-0.4-0.4-0.4h-1.9c-0.2,0-0.4,0.2-0.4,0.4v1.8
			C1037.6-160.9,1037.7-160.7,1037.9-160.7"/>
	</defs>
	<clipPath id="SVGID_14_">
		<use xlink:href="#SVGID_13_"  style="overflow:visible;"/>
	</clipPath>
	<g class="st6">
		<defs>
			<rect id="SVGID_15_" x="474.5" y="-868.6" width="1024" height="2819"/>
		</defs>
		<clipPath id="SVGID_16_">
			<use xlink:href="#SVGID_15_"  style="overflow:visible;"/>
		</clipPath>
	</g>
</g>
<g>
	<defs>
		<path id="SVGID_17_" d="M1035.1-155.6c1.5,0,2.6-1.1,2.6-2.6c0-1.4-1.2-2.6-2.6-2.6c-1.5,0-2.6,1.1-2.6,2.6
			C1032.4-156.8,1033.6-155.6,1035.1-155.6"/>
	</defs>
	<clipPath id="SVGID_18_">
		<use xlink:href="#SVGID_17_"  style="overflow:visible;"/>
	</clipPath>
	<g class="st8">
		<defs>
			<rect id="SVGID_19_" x="474.5" y="-868.6" width="1024" height="2819"/>
		</defs>
		<clipPath id="SVGID_20_">
			<use xlink:href="#SVGID_19_"  style="overflow:visible;"/>
		</clipPath>
	</g>
</g>
<g>
	<defs>
		<path id="SVGID_21_" d="M1021.5-144.6h27v-27h-27V-144.6z M1041.8-152.9c0,0.9-0.7,1.6-1.6,1.6h-10.3c-0.9,0-1.6-0.7-1.6-1.6
			v-10.3c0-0.9,0.7-1.6,1.6-1.6h10.3c0.9,0,1.6,0.7,1.6,1.6V-152.9z"/>
	</defs>
	<clipPath id="SVGID_22_">
		<use xlink:href="#SVGID_21_"  style="overflow:visible;"/>
	</clipPath>
	<g class="st10">
		<defs>
			<rect id="SVGID_23_" x="474.5" y="-868.6" width="1024" height="2819"/>
		</defs>
		<clipPath id="SVGID_24_">
			<use xlink:href="#SVGID_23_"  style="overflow:visible;"/>
		</clipPath>
	</g>
</g>
<g>
	<defs>
		<path id="SVGID_25_" d="M1000.4-100.4c0,0.1,0,0.2,0,0.4c0,3.7-2.8,7.9-7.9,7.9c-1.6,0-3-0.5-4.2-1.2c0.2,0,0.4,0,0.7,0
			c1.3,0,2.5-0.4,3.4-1.2c-1.2,0-2.2-0.8-2.6-1.9c0.2,0,0.3,0,0.5,0c0.3,0,0.5,0,0.7-0.1c-1.3-0.3-2.2-1.4-2.2-2.7v0
			c0.4,0.2,0.8,0.3,1.3,0.3c-0.7-0.5-1.2-1.3-1.2-2.3c0-0.5,0.1-1,0.4-1.4c1.4,1.7,3.4,2.8,5.7,2.9c0-0.2-0.1-0.4-0.1-0.6
			c0-1.5,1.2-2.8,2.8-2.8c0.8,0,1.5,0.3,2,0.9c0.6-0.1,1.2-0.4,1.8-0.7c-0.2,0.6-0.6,1.2-1.2,1.5c0.6-0.1,1.1-0.2,1.6-0.4
			C1001.4-101.3,1000.9-100.8,1000.4-100.4z"/>
	</defs>
	<clipPath id="SVGID_26_">
		<use xlink:href="#SVGID_25_"  style="overflow:visible;"/>
	</clipPath>
	<g class="st12">
		<defs>
			<rect id="SVGID_27_" x="474.5" y="-808.2" width="1024" height="2819"/>
		</defs>
		<clipPath id="SVGID_28_">
			<use xlink:href="#SVGID_27_"  style="overflow:visible;"/>
		</clipPath>
	</g>
</g>
<g>
	<defs>
		<path id="SVGID_29_" d="M1068.6-95c0,0-0.1,0.1-0.1,0.1c-0.1,0-0.1,0-0.1-0.1l-0.3-1.2l0.3-1.3c0,0,0.1-0.1,0.1-0.1
			c0.1,0,0.1,0,0.1,0.1l0.3,1.3L1068.6-95z M1070.9-94.8L1070.9-94.8c0,0.1-0.1,0.1-0.2,0.1c-0.1,0-0.2,0-0.2-0.1l-0.2-1.5l0.2-2.3
			c0-0.1,0.1-0.1,0.2-0.1c0.1,0,0.2,0,0.2,0.1l0.3,2.3L1070.9-94.8z M1073.4-94.8L1073.4-94.8c0,0.1-0.2,0.2-0.4,0.2
			c-0.2,0-0.4-0.1-0.4-0.2l-0.2-1.4l0.2-3.1c0-0.1,0.2-0.2,0.4-0.2c0.2,0,0.4,0.1,0.4,0.2l0.2,3.1L1073.4-94.8z M1080-94.7
			c0,0-4.8,0-4.8,0c-0.1,0-0.2-0.1-0.2-0.2v-5.5c0-0.1,0-0.2,0.2-0.2c0.3-0.1,0.7-0.2,1.1-0.2c1.6,0,2.9,1.2,3,2.8
			c0.2-0.1,0.4-0.1,0.7-0.1c1,0,1.7,0.8,1.7,1.7S1081-94.7,1080-94.7z"/>
	</defs>
	<use xlink:href="#SVGID_29_"  style="overflow:visible;fill-rule:evenodd;clip-rule:evenodd;fill:#FFFFFF;"/>
	<clipPath id="SVGID_30_">
		<use xlink:href="#SVGID_29_"  style="overflow:visible;"/>
	</clipPath>
	<g class="st14">
		<defs>
			<rect id="SVGID_31_" x="474.5" y="-808.2" width="1024" height="2819"/>
		</defs>
		<use xlink:href="#SVGID_31_"  style="overflow:visible;fill:#FFFFFF;"/>
		<clipPath id="SVGID_32_">
			<use xlink:href="#SVGID_31_"  style="overflow:visible;"/>
		</clipPath>
	</g>
</g>
<g>
	<defs>
		<path id="SVGID_33_" d="M-1512.7,795.1c0.4,8.8,0.6,17.6,0.6,26.6c0,271.3-206.5,584.1-584.2,584.1c-116,0-223.9-34-314.7-92.2
			c16.1,1.9,32.4,2.8,49,2.8c96.2,0,184.7-32.8,255-87.9c-89.9-1.6-165.7-61-191.8-142.6c12.6,2.4,25.4,3.6,38.7,3.6
			c18.7,0,36.8-2.5,54.1-7.2c-93.9-18.8-164.7-101.8-164.7-201.3v-2.6c27.6,15.4,59.4,24.6,93,25.7c-55.1-36.8-91.4-99.7-91.4-170.9
			c0-37.7,10.1-72.9,27.8-103.3c101.3,124.2,252.6,206,423.2,214.5c-3.5-15-5.3-30.7-5.3-46.8c0-113.4,91.9-205.3,205.3-205.3
			c59.1,0,112.5,25,149.9,64.9c46.8-9.2,90.8-26.3,130.4-49.8c-15.3,47.9-47.9,88.1-90.3,113.6c41.5-5,81.1-16,117.9-32.3
			C-1437.8,730-1472.7,766.2-1512.7,795.1z"/>
	</defs>
	<clipPath id="SVGID_34_">
		<use xlink:href="#SVGID_33_"  style="overflow:visible;"/>
	</clipPath>
	<g class="st19">
		<defs>
			<rect id="SVGID_35_" x="-40496.6" y="-51671.9" width="75911.6" height="208979.4"/>
		</defs>
		<clipPath id="SVGID_36_">
			<use xlink:href="#SVGID_35_"  style="overflow:visible;"/>
		</clipPath>
	</g>
</g>
<g>
	<defs>
		<path id="SVGID_37_" d="M3541.9,1196.1c-0.7,2.4-4.3,4.1-8.6,4.1c-4.4,0-8.1-1.8-8.6-4.2l-20.4-91l20.4-93.1
			c0.6-2.4,4.2-4.2,8.6-4.2c4.3,0,7.9,1.8,8.6,4.2l23.2,93.1L3541.9,1196.1z M3715.9,1215.8L3715.9,1215.8
			c-0.6,4.3-8.3,7.7-17.7,7.7c-9.4,0-17.1-3.4-17.6-7.7l-18.3-110.7l18.3-171.2c0.5-4.4,8.3-7.8,17.6-7.8c9.4,0,17.1,3.4,17.7,7.8
			l20.6,171.2L3715.9,1215.8z M3898.8,1212.3v-0.1c-0.5,6.4-13.8,11.4-30.3,11.4c-16.7,0-30-5-30.4-11.3l-16-107.1l16-229.7
			c0.4-6.3,13.7-11.3,30.3-11.3c16.6,0,29.9,5,30.3,11.3l18,229.7L3898.8,1212.3z M4392.8,1224.3c-2.3,0-353-0.2-353.3-0.2
			c-7.6-0.8-13.6-7.3-13.8-15.1V804.4c0.1-7.4,2.6-11.3,12.3-15c24.8-9.6,52.8-15.2,81.6-15.2c117.5,0,213.9,90.1,224,205
			c15.2-6.4,31.8-9.9,49.3-9.9c70.4,0,127.5,57,127.5,127.5C4520.3,1167.2,4463.2,1224.3,4392.8,1224.3z"/>
	</defs>
	<use xlink:href="#SVGID_37_"  style="overflow:visible;fill-rule:evenodd;clip-rule:evenodd;fill:#FFFFFF;"/>
	<clipPath id="SVGID_38_">
		<use xlink:href="#SVGID_37_"  style="overflow:visible;"/>
	</clipPath>
	<g class="st21">
		<defs>
			<rect id="SVGID_39_" x="-40496.6" y="-51671.9" width="75911.6" height="208979.4"/>
		</defs>
		<use xlink:href="#SVGID_39_"  style="overflow:visible;fill:#FFFFFF;"/>
		<clipPath id="SVGID_40_">
			<use xlink:href="#SVGID_39_"  style="overflow:visible;"/>
		</clipPath>
	</g>
</g>
<g>
	<path class="st17" d="M0.1,0v1999.9H2000V0H0.1z M1925.9,1925.7H74.3V74.1h1851.6V1925.7z"/>
	<path class="st17" d="M618.8,1499.6h762.9c65.7,0,119-53.2,119-118.7V617.5c0-65.5-53.2-118.7-119-118.7H618.8
		c-65.7,0-119,53.1-119,118.7v763.4C499.8,1446.4,553.1,1499.6,618.8,1499.6z M1190.2,642.3c0-15.2,12.8-27.5,28.4-27.5h137.2
		c15.7,0,28.4,12.3,28.4,27.5v133.1c0,15.2-12.8,27.5-28.4,27.5h-137.2c-15.7,0-28.4-12.3-28.4-27.5V642.3z M1004.7,799.8
		c107.8,0,195.2,84.7,195.2,189.2c0,104.5-87.4,189.2-195.2,189.2s-195.2-84.7-195.2-189.2C809.5,884.5,896.9,799.8,1004.7,799.8z
		 M619.2,923h95c-7.2,25.2-11,51.8-11,79.1c0,165,138.5,299.3,308.8,299.3c170.3,0,308.8-134.3,308.8-299.3c0-27.4-3.8-53.9-11-79.1
		h95v428.9c0,15.2-12.7,27.6-28.4,27.6H647.5c-15.7,0-28.4-12.3-28.4-27.6V923z"/>
</g>
</svg>
