<?xml version="1.0" encoding="utf-8"?>
<!-- Generator: Adobe Illustrator 21.0.2, SVG Export Plug-In . SVG Version: 6.00 Build 0)  -->
<svg version="1.1" id="Layer_1" xmlns="http://www.w3.org/2000/svg" xmlns:xlink="http://www.w3.org/1999/xlink" x="0px" y="0px"
	 viewBox="0 0 1440 1440" style="enable-background:new 0 0 1440 1440;" xml:space="preserve">
<style type="text/css">
	.st0{fill:#C6C6C6;}
	.st1{fill:none;stroke:#FFFFFF;stroke-width:6;stroke-miterlimit:10;}
	.st2{fill:#606060;}
	.st3{fill:#FFFFFF;}
	.st4{clip-path:url(#SVGID_2_);}
	.st5{fill:#EEEEEE;}
	.st6{fill:#919191;}
	.st7{clip-path:url(#SVGID_4_);}
	.st8{fill:#333333;}
</style>
<g>
	<polygon class="st8" points="863.2,935.6 996.7,935.6 762.7,530.2 695.9,645.8 725.6,697.2 762.7,633 907.7,884.2 833.6,884.2 	"/>
	<path class="st8" d="M616.9,611.7l-187,323.8h373.9L616.9,611.7z M616.9,714.5l98,169.7H519L616.9,714.5z"/>
	<path class="st8" d="M974.7,46.4C895.5,16.4,809.7,0,720,0c-89.7,0-175.5,16.4-254.7,46.4v390.4h509.4V46.4z"/>
	<path class="st8" d="M1026.1,68.1v368.6H1176v627.7H264V436.7h150V68.1C169.3,183.2,0,431.8,0,720c0,397.6,322.4,720,720,720
		s720-322.4,720-720C1440,431.8,1270.7,183.2,1026.1,68.1z"/>
</g>
</svg>
