<?xml version="1.0" encoding="utf-8"?>
<!-- Generator: Adobe Illustrator 23.0.1, SVG Export Plug-In . SVG Version: 6.00 Build 0)  -->
<svg version="1.1" id="Layer_1" xmlns="http://www.w3.org/2000/svg" xmlns:xlink="http://www.w3.org/1999/xlink" x="0px" y="0px"
	 viewBox="0 0 200 200" style="enable-background:new 0 0 200 200;" xml:space="preserve">
<style type="text/css">
	.st0{fill:none;stroke:#5A7497;stroke-width:7;stroke-linecap:round;stroke-linejoin:round;stroke-miterlimit:10;}
	.st1{fill:#296691;}
	.st2{fill:#FFFFFF;}
</style>
<g>
	<path class="st0" d="M60.8,60.2c0-6.2-5-11.2-11.2-11.2s-11.2,5-11.2,11.2s5,11.2,11.2,11.2"/>
	<path class="st0" d="M60.8,151.5c0,6.2,5,11.2,11.2,11.2s11.2-5,11.2-11.2c0-6.2-5-11.2-11.2-11.2"/>
	<path class="st0" d="M49.7,49H128c6.2,0,11.2,5,11.2,11.2v45.6"/>
	<line class="st0" x1="60.8" y1="105.9" x2="60.8" y2="60.2"/>
	<path class="st0" d="M150.3,162.7c6.2,0,11.2-5,11.2-11.2c0-6.2-5-11.2-11.2-11.2H72"/>
	<path class="st0" d="M150.3,162.7H72c-6.2,0-11.2-5-11.2-11.2v-45.6"/>
	<line class="st0" x1="139.2" y1="105.9" x2="139.2" y2="140.3"/>
	<line class="st0" x1="78.2" y1="79.2" x2="107.7" y2="79.2"/>
	<line class="st0" x1="78.2" y1="93.1" x2="116.8" y2="93.1"/>
	<line class="st0" x1="78.2" y1="106.7" x2="97.9" y2="106.7"/>
</g>
</svg>
