<?xml version="1.0" encoding="utf-8"?>
<!-- Generator: Adobe Illustrator 23.0.1, SVG Export Plug-In . SVG Version: 6.00 Build 0)  -->
<svg version="1.1" id="Layer_1" xmlns="http://www.w3.org/2000/svg" xmlns:xlink="http://www.w3.org/1999/xlink" x="0px" y="0px"
	 viewBox="0 0 200 200" style="enable-background:new 0 0 200 200;" xml:space="preserve">
<style type="text/css">
	.st0{fill:none;stroke:#5A7497;stroke-width:7;stroke-linecap:round;stroke-linejoin:round;stroke-miterlimit:10;}
	.st1{fill:#296691;}
	.st2{fill:#FFFFFF;}
</style>
<g>
	<polyline class="st0" points="38.8,136.3 49.8,163.8 150.2,163.8 161.2,136.3 	"/>
	<path class="st0" d="M161.3,121.4c-18.8-8-39.6-12.4-61.3-12.4c-21.7,0-42.4,4.4-61.2,12.3"/>
	<path class="st0" d="M144.1,138.4c5.5-0.6,11.2-1.3,17.1-2.1c1.4-0.2,2.2,0.8,3.7,0.8c4.6,0,8.3-3.7,8.3-8.3c0-4.6-3.7-8.3-8.3-8.3
		c-1.3,0-2.5,0.3-3.6,0.8"/>
	<path class="st0" d="M76.1,140.6c17.2,0.8,40.1,0.7,68-2.3"/>
	<path class="st0" d="M69.9,140.3c2,0.1,4.1,0.3,6.2,0.4"/>
	<path class="st0" d="M62,139.6c2.4,0.2,5,0.4,7.8,0.6"/>
	<path class="st0" d="M38.8,121.3c-1.1-0.5-2.4-0.8-3.7-0.8c-4.6,0-8.3,3.7-8.3,8.3c0,4.6,3.7,8.3,8.3,8.3c1.5,0,2.5-0.1,3.7-0.8
		c0,0,8,2,23.2,3.4"/>
	<line class="st0" x1="99.8" y1="123" x2="99.8" y2="129.1"/>
	<line class="st0" x1="110.9" y1="121.3" x2="114.6" y2="126.1"/>
	<line class="st0" x1="88.6" y1="121.3" x2="84.9" y2="126.1"/>
	<path class="st0" d="M100,95.2c0,0,5.1-16.2-0.2-27.6c-5.3-11.3,1.2-23.7,1.2-23.7"/>
	<path class="st0" d="M88.8,95.2c0,0,2.3-7.3,2.2-15.6"/>
	<path class="st0" d="M111.1,95.2c0,0,5.1-16.2-0.2-27.6"/>
</g>
</svg>
