<?xml version="1.0" encoding="utf-8"?>
<!-- Generator: Adobe Illustrator 21.0.2, SVG Export Plug-In . SVG Version: 6.00 Build 0)  -->
<svg version="1.1" id="Layer_1" xmlns="http://www.w3.org/2000/svg" xmlns:xlink="http://www.w3.org/1999/xlink" x="0px" y="0px"
	 viewBox="0 0 80 115" style="enable-background:new 0 0 80 115;" xml:space="preserve">
<style type="text/css">
	.st0{fill:#333333;}
</style>
<path class="st0" d="M66.9,0v102.6h-8.8c-24.9,0-45.1-20.2-45.1-45.1c0-20.5,13.8-37.9,32.6-43.3v9.3c-13.9,5.1-23.9,18.4-23.9,34.1
	c0,20,16.3,36.3,36.3,36.3V81.4c-13.2,0-23.9-10.7-23.9-23.9S45,33.6,58.1,33.6v-2.4v-10v-8.8V7.9V0C26.4,0,0.6,25.8,0.6,57.5
	S26.4,115,58.1,115h8.8H70h9.4V0H66.9z"/>
</svg>
