<?xml version="1.0" encoding="utf-8"?>
<!-- Generator: Adobe Illustrator 21.0.2, SVG Export Plug-In . SVG Version: 6.00 Build 0)  -->
<svg version="1.1" id="Layer_1" xmlns="http://www.w3.org/2000/svg" xmlns:xlink="http://www.w3.org/1999/xlink" x="0px" y="0px"
	 viewBox="0 0 1000 3000" style="enable-background:new 0 0 1000 3000;" xml:space="preserve">
<style type="text/css">
	.st0{fill:#919191;}
	.st1{fill:#C6C6C6;}
	.st2{fill:none;stroke:#FFFFFF;stroke-width:6;stroke-miterlimit:10;}
	.st3{fill:#606060;}
	.st4{fill:#FFFFFF;}
	.st5{clip-path:url(#SVGID_2_);}
	.st6{fill:#EEEEEE;}
	.st7{fill:#A8A8A8;}
</style>
<g>
	<path class="st6" d="M787.8,2406.9V0h-48.3v2406.9h-479V0h-48.3v2406.9h-141v590.3h857.6v-590.3H787.8z M196.6,2563.8
		c0-38.1,30.9-68.9,68.9-68.9c38.1,0,68.9,30.9,68.9,68.9c0,38.1-30.9,68.9-68.9,68.9C227.5,2632.8,196.6,2601.9,196.6,2563.8z
		 M312.4,2876l175.8-304.5L664,2876H312.4z M719.8,2876l-27.9-48.3h69.7l-136.4-236.2l-34.9,60.4l-27.9-48.3l62.8-108.7L845.3,2876
		H719.8z"/>
	<polygon class="st6" points="396.1,2827.7 580.4,2827.7 488.2,2668.2 	"/>
</g>
</svg>
