<?xml version="1.0" encoding="utf-8"?>
<!-- Generator: Adobe Illustrator 21.0.2, SVG Export Plug-In . SVG Version: 6.00 Build 0)  -->
<svg version="1.1" id="Layer_1" xmlns="http://www.w3.org/2000/svg" xmlns:xlink="http://www.w3.org/1999/xlink" x="0px" y="0px"
	 viewBox="0 0 1000 1440" style="enable-background:new 0 0 1000 1440;" xml:space="preserve">
<style type="text/css">
	.st0{fill:#919191;}
	.st1{fill:#C6C6C6;}
	.st2{fill:none;stroke:#FFFFFF;stroke-width:6;stroke-miterlimit:10;}
	.st3{fill:#606060;}
	.st4{fill:#FFFFFF;}
	.st5{clip-path:url(#SVGID_2_);}
	.st6{fill:#EEEEEE;}
</style>
<g>
	<polygon class="st6" points="336.6,1040.7 660.3,1040.7 498.4,760.3 	"/>
	<path class="st6" d="M57.1,76.4v1287.1h885.8V76.4H57.1z M158.9,780.1l132.4-229.3l101.3,175.4l-27,46.8l-74.3-128.6L158.9,873.8
		V780.1z M255.4,1087.6l243-420.9l243,420.9H255.4z M700.9,536.5c-49.6,0-89.9-40.2-89.9-89.9c0-49.6,40.2-89.9,89.9-89.9
		c49.6,0,89.9,40.2,89.9,89.9C790.8,496.2,750.5,536.5,700.9,536.5z"/>
</g>
</svg>
