<svg xmlns="http://www.w3.org/2000/svg" viewBox="0 0 339.65 339.65"><defs><style>.cls-1{fill:#efefef;}.cls-2{fill:#3f465e;}.cls-3{opacity:0.5;}</style></defs><title>abstract_1</title><g id="Layer_2" data-name="Layer 2"><g id="Layer_1-2" data-name="Layer 1"><rect class="cls-1" width="339.65" height="339.65"/><polygon class="cls-2" points="94.13 125.87 47.9 213.78 98.99 139.05 117 187.9 85.14 184.42 65.07 213.78 126.53 213.78 142.07 190.65 108 125.87 94.13 125.87"/><polygon class="cls-2" points="90.58 176.49 104.78 178.04 99.64 163.23 90.58 176.49"/><path class="cls-2" d="M166.12,166.72,158,148.52h-4.16l-8.11,18.2H150l1.62-3.9h8.45l1.61,3.9ZM153,159.62l2.88-7,2.89,7Z"/><path class="cls-2" d="M184.71,161.76a4.49,4.49,0,0,0-3.33-4.5,4.39,4.39,0,0,0,2.42-4c0-2.83-2.34-4.73-6.89-4.73H168v18.2h9.41C182.21,166.72,184.71,164.9,184.71,161.76ZM172.2,151.69h4.19c2.05,0,3.17.7,3.17,2.13s-1.12,2.16-3.17,2.16H172.2Zm0,11.86v-4.5h4.92c2.18,0,3.35.73,3.35,2.26s-1.17,2.24-3.35,2.24Z"/><path class="cls-2" d="M193.91,163.65a10.74,10.74,0,0,1-6-1.89l-1.43,3.17a12.94,12.94,0,0,0,7.41,2.1c5.2,0,7.72-2.6,7.72-5.64,0-6.68-10.58-4.37-10.58-7.72,0-1.14,1-2.08,3.45-2.08a10.3,10.3,0,0,1,5.05,1.43l1.3-3.2a12.17,12.17,0,0,0-6.32-1.61c-5.17,0-7.67,2.57-7.67,5.67,0,6.76,10.58,4.42,10.58,7.82C197.42,162.82,196.41,163.65,193.91,163.65Z"/><polygon class="cls-2" points="218.04 148.52 202.18 148.52 202.18 151.95 208 151.95 208 166.72 212.22 166.72 212.22 151.95 218.04 151.95 218.04 148.52"/><path class="cls-2" d="M232.34,160.87a5.9,5.9,0,0,0,3.74-5.75c0-4.08-3-6.6-7.9-6.6H220.3v18.2h4.21v-5.07h3.88l3.51,5.07h4.52ZM228,158.3h-3.44V152H228c2.57,0,3.87,1.17,3.87,3.17S230.52,158.3,228,158.3Z"/><path class="cls-2" d="M251.4,162.82l1.61,3.9h4.42l-8.14-18.2h-4.16L237,166.72h4.32l1.61-3.9Zm-4.21-10.16,2.88,7H244.3Z"/><path class="cls-2" d="M275.29,163.78l-2.7-2.49a5.81,5.81,0,0,1-4.58,2.16,5.83,5.83,0,0,1,0-11.65,5.87,5.87,0,0,1,4.58,2.13l2.7-2.5a9.38,9.38,0,0,0-7.49-3.22c-5.66,0-9.88,3.93-9.88,9.41s4.22,9.41,9.86,9.41A9.33,9.33,0,0,0,275.29,163.78Z"/><polygon class="cls-2" points="275.89 148.52 275.89 151.95 281.71 151.95 281.71 166.72 285.93 166.72 285.93 151.95 291.75 151.95 291.75 148.52 275.89 148.52"/><path class="cls-2" d="M163.45,180.3c0-1.81,1.48-3.3,4.81-3.3a9.41,9.41,0,0,1,5,1.51l.65-1.53a10.25,10.25,0,0,0-5.65-1.62c-4.62,0-6.71,2.32-6.71,5,0,6.73,11.21,3.66,11.21,8.66,0,1.79-1.48,3.22-4.89,3.22a8.94,8.94,0,0,1-6-2.21l-.76,1.48a9.86,9.86,0,0,0,6.76,2.37c4.66,0,6.79-2.29,6.79-5C174.66,182.28,163.45,185.3,163.45,180.3Z"/><polygon class="cls-2" points="175.72 177.19 182.12 177.19 182.12 193.72 184.04 193.72 184.04 177.19 190.44 177.19 190.44 175.52 175.72 175.52 175.72 177.19"/><path class="cls-2" d="M206.07,185.87c0,4.32-2,6.29-5.59,6.29s-5.57-2-5.57-6.29V175.52H193V186c0,5.22,2.83,7.93,7.49,7.93s7.46-2.71,7.46-7.93V175.52h-1.87Z"/><path class="cls-2" d="M221.15,175.52h-7.41v18.2h7.41c5.82,0,9.75-3.74,9.75-9.1S227,175.52,221.15,175.52ZM221,192.06h-5.38V177.18H221c4.84,0,8,3.07,8,7.44S225.88,192.06,221,192.06Z"/><rect class="cls-2" x="235.21" y="175.52" width="1.92" height="18.2"/><path class="cls-2" d="M251,175.36c-5.51,0-9.57,4-9.57,9.26s4.06,9.26,9.57,9.26a9.26,9.26,0,1,0,0-18.52Zm0,16.8a7.54,7.54,0,1,1,7.62-7.54A7.4,7.4,0,0,1,251,192.16Z"/><path class="cls-2" d="M265.48,180.3c0-1.81,1.48-3.3,4.81-3.3a9.41,9.41,0,0,1,5,1.51l.65-1.53a10.24,10.24,0,0,0-5.64-1.62c-4.63,0-6.71,2.32-6.71,5,0,6.73,11.2,3.66,11.2,8.66,0,1.79-1.48,3.22-4.88,3.22a9,9,0,0,1-6-2.21l-.75,1.48c1.35,1.41,4,2.37,6.76,2.37,4.65,0,6.78-2.29,6.78-5C276.68,182.28,265.48,185.3,265.48,180.3Z"/><polygon class="cls-3" points="117 187.9 118.1 213.78 126.53 213.78 117 187.9"/><polygon class="cls-3" points="103.25 150.61 108 125.87 98.99 139.05 103.25 150.61"/><polygon class="cls-3" points="117 187.9 118.1 213.78 126.53 213.78 117 187.9"/></g></g></svg>