<svg xmlns="http://www.w3.org/2000/svg" viewBox="0 0 854.07 439.81"><defs><style>.cls-1{fill:#f06da9;}.cls-2{fill:#f3eb40;}.cls-3{fill:#73cddc;}</style></defs><title>multiples</title><g id="Layer_2" data-name="Layer 2"><g id="Layer_1-2" data-name="Layer 1"><rect class="cls-1" x="27.27" y="349.47" width="46.03" height="46.03"/><polygon class="cls-2" points="27.27 349.47 0 322.2 46.03 322.2 73.3 349.47 27.27 349.47"/><polygon class="cls-3" points="0 322.2 0 368.23 27.27 395.5 27.27 349.47 0 322.2"/><rect class="cls-1" x="73.3" y="303.44" width="46.03" height="46.03"/><polygon class="cls-2" points="73.3 303.44 46.03 276.17 92.06 276.17 119.33 303.44 73.3 303.44"/><polygon class="cls-3" points="46.03 276.17 46.03 322.2 73.3 349.47 73.3 303.44 46.03 276.17"/><rect class="cls-1" x="100.58" y="376.75" width="46.03" height="46.03"/><polygon class="cls-2" points="100.58 376.75 73.3 349.47 119.33 349.47 146.6 376.75 100.58 376.75"/><polygon class="cls-3" points="73.3 349.47 73.3 395.5 100.58 422.78 100.58 376.75 73.3 349.47"/><rect class="cls-1" x="146.61" y="330.72" width="46.03" height="46.03"/><polygon class="cls-2" points="146.6 330.72 119.33 303.44 165.36 303.44 192.63 330.72 146.6 330.72"/><polygon class="cls-3" points="119.33 303.44 119.33 349.47 146.6 376.75 146.6 330.72 119.33 303.44"/><rect class="cls-1" x="119.33" y="257.42" width="46.03" height="46.03"/><polygon class="cls-2" points="119.33 257.42 92.06 230.14 138.09 230.14 165.36 257.42 119.33 257.42"/><polygon class="cls-3" points="92.06 230.14 92.06 276.17 119.33 303.44 119.33 257.42 92.06 230.14"/><rect class="cls-1" x="165.36" y="211.39" width="46.03" height="46.03"/><polygon class="cls-2" points="165.36 211.39 138.09 184.11 184.11 184.11 211.39 211.39 165.36 211.39"/><polygon class="cls-3" points="138.09 184.11 138.09 230.14 165.36 257.42 165.36 211.39 138.09 184.11"/><rect class="cls-1" x="92.06" y="138.09" width="46.03" height="46.03"/><polygon class="cls-2" points="92.06 138.09 64.78 110.81 110.81 110.81 138.09 138.09 92.06 138.09"/><polygon class="cls-3" points="64.78 110.81 64.78 156.84 92.06 184.11 92.06 138.09 64.78 110.81"/><rect class="cls-1" x="192.63" y="284.69" width="46.03" height="46.03"/><polygon class="cls-2" points="192.63 284.69 165.36 257.42 211.39 257.42 238.66 284.69 192.63 284.69"/><polygon class="cls-3" points="165.36 257.42 165.36 303.44 192.63 330.72 192.63 284.69 165.36 257.42"/><rect class="cls-1" x="238.66" y="238.66" width="46.03" height="46.03"/><polygon class="cls-2" points="238.66 238.66 211.39 211.39 257.42 211.39 284.69 238.66 238.66 238.66"/><polygon class="cls-3" points="211.39 211.39 211.39 257.42 238.66 284.69 238.66 238.66 211.39 211.39"/><rect class="cls-1" x="211.39" y="165.36" width="46.03" height="46.03"/><polygon class="cls-2" points="211.39 165.36 184.11 138.09 230.14 138.09 257.42 165.36 211.39 165.36"/><polygon class="cls-3" points="184.11 138.09 184.11 184.11 211.39 211.39 211.39 165.36 184.11 138.09"/><rect class="cls-1" x="257.42" y="119.33" width="46.03" height="46.03"/><polygon class="cls-2" points="257.42 119.33 230.14 92.06 276.17 92.06 303.44 119.33 257.42 119.33"/><polygon class="cls-3" points="230.14 92.06 230.14 138.09 257.42 165.36 257.42 119.33 230.14 92.06"/><rect class="cls-1" x="284.69" y="192.63" width="46.03" height="46.03"/><polygon class="cls-2" points="284.69 192.63 257.42 165.36 303.44 165.36 330.72 192.63 284.69 192.63"/><polygon class="cls-3" points="257.42 165.36 257.42 211.39 284.69 238.66 284.69 192.63 257.42 165.36"/><rect class="cls-1" x="330.72" y="146.61" width="46.03" height="46.03"/><polygon class="cls-2" points="330.72 146.6 303.44 119.33 349.47 119.33 376.75 146.6 330.72 146.6"/><polygon class="cls-3" points="303.44 119.33 303.44 165.36 330.72 192.63 330.72 146.6 303.44 119.33"/><rect class="cls-1" x="303.44" y="73.3" width="46.03" height="46.03"/><polygon class="cls-2" points="303.44 73.3 276.17 46.03 322.2 46.03 349.47 73.3 303.44 73.3"/><polygon class="cls-3" points="276.17 46.03 276.17 92.06 303.44 119.33 303.44 73.3 276.17 46.03"/><rect class="cls-1" x="349.47" y="27.27" width="46.03" height="46.03"/><polygon class="cls-2" points="349.47 27.27 322.2 0 368.23 0 395.5 27.27 349.47 27.27"/><polygon class="cls-3" points="322.2 0 322.2 46.03 349.47 73.3 349.47 27.27 322.2 0"/><rect class="cls-1" x="376.75" y="100.58" width="46.03" height="46.03"/><polygon class="cls-2" points="376.75 100.58 349.47 73.3 395.5 73.3 422.78 100.58 376.75 100.58"/><polygon class="cls-3" points="349.47 73.3 349.47 119.33 376.75 146.6 376.75 100.58 349.47 73.3"/><rect class="cls-1" x="422.78" y="54.55" width="46.03" height="46.03"/><polygon class="cls-2" points="422.78 54.55 395.5 27.27 441.53 27.27 468.8 54.55 422.78 54.55"/><polygon class="cls-3" points="395.5 27.27 395.5 73.3 422.78 100.58 422.78 54.55 395.5 27.27"/><rect class="cls-1" x="219.91" y="357.99" width="46.03" height="46.03"/><polygon class="cls-2" points="219.91 357.99 192.63 330.72 238.66 330.72 265.94 357.99 219.91 357.99"/><polygon class="cls-3" points="192.63 330.72 192.63 376.75 219.91 404.02 219.91 357.99 192.63 330.72"/><rect class="cls-1" x="265.94" y="311.96" width="46.03" height="46.03"/><polygon class="cls-2" points="265.94 311.96 238.66 284.69 284.69 284.69 311.96 311.96 265.94 311.96"/><polygon class="cls-3" points="238.66 284.69 238.66 330.72 265.94 357.99 265.94 311.96 238.66 284.69"/><rect class="cls-1" x="293.21" y="385.27" width="46.03" height="46.03"/><polygon class="cls-2" points="293.21 385.27 265.94 357.99 311.96 357.99 339.24 385.27 293.21 385.27"/><polygon class="cls-3" points="265.94 357.99 265.94 404.02 293.21 431.3 293.21 385.27 265.94 357.99"/><rect class="cls-1" x="339.24" y="339.24" width="46.03" height="46.03"/><polygon class="cls-2" points="339.24 339.24 311.96 311.96 357.99 311.96 385.27 339.24 339.24 339.24"/><polygon class="cls-3" points="311.96 311.96 311.96 357.99 339.24 385.27 339.24 339.24 311.96 311.96"/><rect class="cls-1" x="311.97" y="265.94" width="46.03" height="46.03"/><polygon class="cls-2" points="311.96 265.94 284.69 238.66 330.72 238.66 357.99 265.94 311.96 265.94"/><polygon class="cls-3" points="284.69 238.66 284.69 284.69 311.96 311.96 311.96 265.94 284.69 238.66"/><rect class="cls-1" x="357.99" y="219.91" width="46.03" height="46.03"/><polygon class="cls-2" points="357.99 219.91 330.72 192.63 376.75 192.63 404.02 219.91 357.99 219.91"/><polygon class="cls-3" points="330.72 192.63 330.72 238.66 357.99 265.94 357.99 219.91 330.72 192.63"/><rect class="cls-1" x="385.27" y="293.21" width="46.03" height="46.03"/><polygon class="cls-2" points="385.27 293.21 357.99 265.94 404.02 265.94 431.3 293.21 385.27 293.21"/><polygon class="cls-3" points="357.99 265.94 357.99 311.96 385.27 339.24 385.27 293.21 357.99 265.94"/><rect class="cls-1" x="431.3" y="247.18" width="46.03" height="46.03"/><polygon class="cls-2" points="431.3 247.18 404.02 219.91 450.05 219.91 477.32 247.18 431.3 247.18"/><polygon class="cls-3" points="404.02 219.91 404.02 265.94 431.3 293.21 431.3 247.18 404.02 219.91"/><rect class="cls-1" x="404.02" y="173.88" width="46.03" height="46.03"/><polygon class="cls-2" points="404.02 173.88 376.75 146.6 422.78 146.6 450.05 173.88 404.02 173.88"/><polygon class="cls-3" points="376.75 146.6 376.75 192.63 404.02 219.91 404.02 173.88 376.75 146.6"/><rect class="cls-1" x="450.05" y="127.85" width="46.03" height="46.03"/><polygon class="cls-2" points="450.05 127.85 422.78 100.58 468.81 100.58 496.08 127.85 450.05 127.85"/><polygon class="cls-3" points="422.78 100.58 422.78 146.6 450.05 173.88 450.05 127.85 422.78 100.58"/><rect class="cls-1" x="477.32" y="201.15" width="46.03" height="46.03"/><polygon class="cls-2" points="477.32 201.15 450.05 173.88 496.08 173.88 523.35 201.15 477.32 201.15"/><polygon class="cls-3" points="450.05 173.88 450.05 219.91 477.32 247.18 477.32 201.15 450.05 173.88"/><rect class="cls-1" x="523.35" y="155.12" width="46.03" height="46.03"/><polygon class="cls-2" points="523.35 155.12 496.08 127.85 542.11 127.85 569.38 155.12 523.35 155.12"/><polygon class="cls-3" points="496.08 127.85 496.08 173.88 523.35 201.15 523.35 155.12 496.08 127.85"/><rect class="cls-1" x="496.08" y="81.82" width="46.03" height="46.03"/><polygon class="cls-2" points="496.08 81.82 468.81 54.55 514.83 54.55 542.11 81.82 496.08 81.82"/><polygon class="cls-3" points="468.81 54.55 468.81 100.58 496.08 127.85 496.08 81.82 468.81 54.55"/><rect class="cls-1" x="542.11" y="35.79" width="46.03" height="46.03"/><polygon class="cls-2" points="542.11 35.79 514.83 8.52 560.86 8.52 588.14 35.79 542.11 35.79"/><polygon class="cls-3" points="514.83 8.52 514.83 54.55 542.11 81.82 542.11 35.79 514.83 8.52"/><rect class="cls-1" x="569.38" y="109.1" width="46.03" height="46.03"/><polygon class="cls-2" points="569.38 109.09 542.11 81.82 588.14 81.82 615.41 109.09 569.38 109.09"/><polygon class="cls-3" points="542.11 81.82 542.11 127.85 569.38 155.12 569.38 109.09 542.11 81.82"/><rect class="cls-1" x="615.41" y="63.07" width="46.03" height="46.03"/><polygon class="cls-2" points="615.41 63.07 588.14 35.79 634.16 35.79 661.44 63.07 615.41 63.07"/><polygon class="cls-3" points="588.14 35.79 588.14 81.82 615.41 109.09 615.41 63.07 588.14 35.79"/><rect class="cls-1" x="412.54" y="366.51" width="46.03" height="46.03"/><polygon class="cls-2" points="412.54 366.51 385.27 339.24 431.3 339.24 458.57 366.51 412.54 366.51"/><polygon class="cls-3" points="385.27 339.24 385.27 385.26 412.54 412.54 412.54 366.51 385.27 339.24"/><rect class="cls-1" x="458.57" y="320.48" width="46.03" height="46.03"/><polygon class="cls-2" points="458.57 320.48 431.3 293.21 477.32 293.21 504.6 320.48 458.57 320.48"/><polygon class="cls-3" points="431.3 293.21 431.3 339.24 458.57 366.51 458.57 320.48 431.3 293.21"/><rect class="cls-1" x="485.84" y="393.78" width="46.03" height="46.03"/><polygon class="cls-2" points="485.84 393.79 458.57 366.51 504.6 366.51 531.87 393.79 485.84 393.79"/><polygon class="cls-3" points="458.57 366.51 458.57 412.54 485.84 439.81 485.84 393.79 458.57 366.51"/><rect class="cls-1" x="531.87" y="347.76" width="46.03" height="46.03"/><polygon class="cls-2" points="531.87 347.76 504.6 320.48 550.63 320.48 577.9 347.76 531.87 347.76"/><polygon class="cls-3" points="504.6 320.48 504.6 366.51 531.87 393.79 531.87 347.76 504.6 320.48"/><rect class="cls-1" x="504.6" y="274.45" width="46.03" height="46.03"/><polygon class="cls-2" points="504.6 274.45 477.32 247.18 523.35 247.18 550.63 274.45 504.6 274.45"/><polygon class="cls-3" points="477.32 247.18 477.32 293.21 504.6 320.48 504.6 274.45 477.32 247.18"/><rect class="cls-1" x="550.63" y="228.43" width="46.03" height="46.03"/><polygon class="cls-2" points="550.63 228.43 523.35 201.15 569.38 201.15 596.66 228.43 550.63 228.43"/><polygon class="cls-3" points="523.35 201.15 523.35 247.18 550.63 274.45 550.63 228.43 523.35 201.15"/><rect class="cls-1" x="577.9" y="301.73" width="46.03" height="46.03"/><polygon class="cls-2" points="577.9 301.73 550.63 274.45 596.66 274.45 623.93 301.73 577.9 301.73"/><polygon class="cls-3" points="550.63 274.45 550.63 320.48 577.9 347.76 577.9 301.73 550.63 274.45"/><rect class="cls-1" x="623.93" y="255.7" width="46.03" height="46.03"/><polygon class="cls-2" points="623.93 255.7 596.66 228.43 642.68 228.43 669.96 255.7 623.93 255.7"/><polygon class="cls-3" points="596.66 228.43 596.66 274.45 623.93 301.73 623.93 255.7 596.66 228.43"/><rect class="cls-1" x="596.66" y="182.4" width="46.03" height="46.03"/><polygon class="cls-2" points="596.66 182.4 569.38 155.12 615.41 155.12 642.68 182.4 596.66 182.4"/><polygon class="cls-3" points="569.38 155.12 569.38 201.15 596.66 228.43 596.66 182.4 569.38 155.12"/><rect class="cls-1" x="642.68" y="136.37" width="46.03" height="46.03"/><polygon class="cls-2" points="642.68 136.37 615.41 109.09 661.44 109.09 688.71 136.37 642.68 136.37"/><polygon class="cls-3" points="615.41 109.09 615.41 155.12 642.68 182.4 642.68 136.37 615.41 109.09"/><rect class="cls-1" x="669.96" y="209.67" width="46.03" height="46.03"/><polygon class="cls-2" points="669.96 209.67 642.68 182.4 688.71 182.4 715.99 209.67 669.96 209.67"/><polygon class="cls-3" points="642.68 182.4 642.68 228.43 669.96 255.7 669.96 209.67 642.68 182.4"/><rect class="cls-1" x="715.99" y="163.64" width="46.03" height="46.03"/><polygon class="cls-2" points="715.99 163.64 688.71 136.37 734.74 136.37 762.01 163.64 715.99 163.64"/><polygon class="cls-3" points="688.71 136.37 688.71 182.4 715.99 209.67 715.99 163.64 688.71 136.37"/><rect class="cls-1" x="688.71" y="90.34" width="46.03" height="46.03"/><polygon class="cls-2" points="688.71 90.34 661.44 63.07 707.47 63.07 734.74 90.34 688.71 90.34"/><polygon class="cls-3" points="661.44 63.07 661.44 109.09 688.71 136.37 688.71 90.34 661.44 63.07"/><rect class="cls-1" x="734.74" y="44.31" width="46.03" height="46.03"/><polygon class="cls-2" points="734.74 44.31 707.47 17.04 753.5 17.04 780.77 44.31 734.74 44.31"/><polygon class="cls-3" points="707.47 17.04 707.47 63.07 734.74 90.34 734.74 44.31 707.47 17.04"/><rect class="cls-1" x="762.02" y="117.61" width="46.03" height="46.03"/><polygon class="cls-2" points="762.01 117.61 734.74 90.34 780.77 90.34 808.04 117.61 762.01 117.61"/><polygon class="cls-3" points="734.74 90.34 734.74 136.37 762.01 163.64 762.01 117.61 734.74 90.34"/><rect class="cls-1" x="808.04" y="71.59" width="46.03" height="46.03"/><polygon class="cls-2" points="808.04 71.59 780.77 44.31 826.8 44.31 854.07 71.59 808.04 71.59"/><polygon class="cls-3" points="780.77 44.31 780.77 90.34 808.04 117.61 808.04 71.59 780.77 44.31"/></g></g></svg>