<svg xmlns="http://www.w3.org/2000/svg" viewBox="0 0 265.94 165.36"><defs><style>.cls-1{fill:#f06da9;}.cls-2{fill:#f3eb40;}.cls-3{fill:#73cddc;}</style></defs><title>multiples2</title><g id="Layer_2" data-name="Layer 2"><g id="Layer_1-2" data-name="Layer 1"><rect class="cls-1" x="27.27" y="46.03" width="46.03" height="46.03"/><polygon class="cls-2" points="27.27 46.03 0 18.75 46.03 18.75 73.3 46.03 27.27 46.03"/><polygon class="cls-3" points="0 18.75 0 64.78 27.27 92.06 27.27 46.03 0 18.75"/><rect class="cls-1" x="54.55" y="119.33" width="46.03" height="46.03"/><polygon class="cls-2" points="54.55 119.33 27.27 92.06 73.3 92.06 100.58 119.33 54.55 119.33"/><polygon class="cls-3" points="27.27 92.06 27.27 138.09 54.55 165.36 54.55 119.33 27.27 92.06"/><rect class="cls-1" x="100.58" y="73.3" width="46.03" height="46.03"/><polygon class="cls-2" points="100.58 73.3 73.3 46.03 119.33 46.03 146.61 73.3 100.58 73.3"/><polygon class="cls-3" points="73.3 46.03 73.3 92.06 100.58 119.33 100.58 73.3 73.3 46.03"/><rect class="cls-1" x="146.61" y="27.27" width="46.03" height="46.03"/><polygon class="cls-2" points="146.61 27.27 119.33 0 165.36 0 192.63 27.27 146.61 27.27"/><polygon class="cls-3" points="119.33 0 119.33 46.03 146.61 73.3 146.61 27.27 119.33 0"/><rect class="cls-1" x="219.91" y="54.55" width="46.03" height="46.03"/><polygon class="cls-2" points="219.91 54.55 192.63 27.27 238.66 27.27 265.94 54.55 219.91 54.55"/><polygon class="cls-3" points="192.63 27.27 192.63 73.3 219.91 100.58 219.91 54.55 192.63 27.27"/></g></g></svg>