<svg xmlns="http://www.w3.org/2000/svg" viewBox="0 0 523.35 274.45"><defs><style>.cls-1{fill:#f06da9;}.cls-2{fill:#f3eb40;}.cls-3{fill:#73cddc;}</style></defs><title>multiples3</title><g id="Layer_2" data-name="Layer 2"><g id="Layer_1-2" data-name="Layer 1"><rect class="cls-1" x="27.27" y="211.39" width="46.03" height="46.03"/><polygon class="cls-2" points="27.27 211.39 0 184.11 46.03 184.11 73.3 211.39 27.27 211.39"/><polygon class="cls-3" points="0 184.11 0 230.14 27.27 257.42 27.27 211.39 0 184.11"/><rect class="cls-1" x="73.3" y="165.36" width="46.03" height="46.03"/><polygon class="cls-2" points="73.3 165.36 46.03 138.09 92.06 138.09 119.33 165.36 73.3 165.36"/><polygon class="cls-3" points="46.03 138.09 46.03 184.11 73.3 211.39 73.3 165.36 46.03 138.09"/><rect class="cls-1" x="119.33" y="119.33" width="46.03" height="46.03"/><polygon class="cls-2" points="119.33 119.33 92.06 92.06 138.09 92.06 165.36 119.33 119.33 119.33"/><polygon class="cls-3" points="92.06 92.06 92.06 138.09 119.33 165.36 119.33 119.33 92.06 92.06"/><rect class="cls-1" x="46.03" y="46.03" width="46.03" height="46.03"/><polygon class="cls-2" points="46.03 46.03 18.75 18.75 64.78 18.75 92.06 46.03 46.03 46.03"/><polygon class="cls-3" points="18.75 18.75 18.75 64.78 46.03 92.06 46.03 46.03 18.75 18.75"/><rect class="cls-1" x="146.61" y="192.63" width="46.03" height="46.03"/><polygon class="cls-2" points="146.6 192.63 119.33 165.36 165.36 165.36 192.63 192.63 146.6 192.63"/><polygon class="cls-3" points="119.33 165.36 119.33 211.39 146.6 238.66 146.6 192.63 119.33 165.36"/><rect class="cls-1" x="192.63" y="146.61" width="46.03" height="46.03"/><polygon class="cls-2" points="192.63 146.6 165.36 119.33 211.39 119.33 238.66 146.6 192.63 146.6"/><polygon class="cls-3" points="165.36 119.33 165.36 165.36 192.63 192.63 192.63 146.6 165.36 119.33"/><rect class="cls-1" x="165.36" y="73.3" width="46.03" height="46.03"/><polygon class="cls-2" points="165.36 73.3 138.09 46.03 184.11 46.03 211.39 73.3 165.36 73.3"/><polygon class="cls-3" points="138.09 46.03 138.09 92.06 165.36 119.33 165.36 73.3 138.09 46.03"/><rect class="cls-1" x="211.39" y="27.27" width="46.03" height="46.03"/><polygon class="cls-2" points="211.39 27.27 184.11 0 230.14 0 257.42 27.27 211.39 27.27"/><polygon class="cls-3" points="184.11 0 184.11 46.03 211.39 73.3 211.39 27.27 184.11 0"/><rect class="cls-1" x="238.66" y="100.58" width="46.03" height="46.03"/><polygon class="cls-2" points="238.66 100.58 211.39 73.3 257.42 73.3 284.69 100.58 238.66 100.58"/><polygon class="cls-3" points="211.39 73.3 211.39 119.33 238.66 146.6 238.66 100.58 211.39 73.3"/><rect class="cls-1" x="284.69" y="54.55" width="46.03" height="46.03"/><polygon class="cls-2" points="284.69 54.55 257.42 27.27 303.44 27.27 330.72 54.55 284.69 54.55"/><polygon class="cls-3" points="257.42 27.27 257.42 73.3 284.69 100.58 284.69 54.55 257.42 27.27"/><rect class="cls-1" x="219.91" y="219.91" width="46.03" height="46.03"/><polygon class="cls-2" points="219.91 219.91 192.63 192.63 238.66 192.63 265.94 219.91 219.91 219.91"/><polygon class="cls-3" points="192.63 192.63 192.63 238.66 219.91 265.94 219.91 219.91 192.63 192.63"/><rect class="cls-1" x="265.94" y="173.88" width="46.03" height="46.03"/><polygon class="cls-2" points="265.94 173.88 238.66 146.6 284.69 146.6 311.96 173.88 265.94 173.88"/><polygon class="cls-3" points="238.66 146.6 238.66 192.63 265.94 219.91 265.94 173.88 238.66 146.6"/><rect class="cls-1" x="311.97" y="127.85" width="46.03" height="46.03"/><polygon class="cls-2" points="311.96 127.85 284.69 100.58 330.72 100.58 357.99 127.85 311.96 127.85"/><polygon class="cls-3" points="284.69 100.58 284.69 146.6 311.96 173.88 311.96 127.85 284.69 100.58"/><rect class="cls-1" x="339.24" y="201.15" width="46.03" height="46.03"/><polygon class="cls-2" points="339.24 201.15 311.96 173.88 357.99 173.88 385.27 201.15 339.24 201.15"/><polygon class="cls-3" points="311.96 173.88 311.96 219.91 339.24 247.18 339.24 201.15 311.96 173.88"/><rect class="cls-1" x="385.27" y="155.12" width="46.03" height="46.03"/><polygon class="cls-2" points="385.27 155.12 357.99 127.85 404.02 127.85 431.3 155.12 385.27 155.12"/><polygon class="cls-3" points="357.99 127.85 357.99 173.88 385.27 201.15 385.27 155.12 357.99 127.85"/><rect class="cls-1" x="357.99" y="81.82" width="46.03" height="46.03"/><polygon class="cls-2" points="357.99 81.82 330.72 54.55 376.75 54.55 404.02 81.82 357.99 81.82"/><polygon class="cls-3" points="330.72 54.55 330.72 100.58 357.99 127.85 357.99 81.82 330.72 54.55"/><rect class="cls-1" x="404.02" y="35.79" width="46.03" height="46.03"/><polygon class="cls-2" points="404.02 35.79 376.75 8.52 422.78 8.52 450.05 35.79 404.02 35.79"/><polygon class="cls-3" points="376.75 8.52 376.75 54.55 404.02 81.82 404.02 35.79 376.75 8.52"/><rect class="cls-1" x="431.3" y="109.1" width="46.03" height="46.03"/><polygon class="cls-2" points="431.3 109.09 404.02 81.82 450.05 81.82 477.32 109.09 431.3 109.09"/><polygon class="cls-3" points="404.02 81.82 404.02 127.85 431.3 155.12 431.3 109.09 404.02 81.82"/><rect class="cls-1" x="477.32" y="63.07" width="46.03" height="46.03"/><polygon class="cls-2" points="477.32 63.07 450.05 35.79 496.08 35.79 523.35 63.07 477.32 63.07"/><polygon class="cls-3" points="450.05 35.79 450.05 81.82 477.32 109.09 477.32 63.07 450.05 35.79"/><rect class="cls-1" x="412.54" y="228.43" width="46.03" height="46.03"/><polygon class="cls-2" points="412.54 228.43 385.27 201.15 431.3 201.15 458.57 228.43 412.54 228.43"/><polygon class="cls-3" points="385.27 201.15 385.27 247.18 412.54 274.45 412.54 228.43 385.27 201.15"/><rect class="cls-1" x="458.57" y="182.4" width="46.03" height="46.03"/><polygon class="cls-2" points="458.57 182.4 431.3 155.12 477.32 155.12 504.6 182.4 458.57 182.4"/><polygon class="cls-3" points="431.3 155.12 431.3 201.15 458.57 228.43 458.57 182.4 431.3 155.12"/></g></g></svg>