<svg xmlns="http://www.w3.org/2000/svg" viewBox="0 0 43.99 29.49"><defs><style>.cls-1{fill:#f4f2f0;}.cls-2{fill:#5a7497;}.cls-3{fill:#edebe8;}</style></defs><title>simplesave</title><g id="Layer_2" data-name="Layer 2"><g id="Layer_1-2" data-name="Layer 1"><path class="cls-1" d="M12.25,8.61a6,6,0,0,0,0,.74,6.8,6.8,0,0,0,2.06,4.81h0v2.52a1.23,1.23,0,0,0,1.23,1.24h1a1.24,1.24,0,0,0,1.24-1.24v-.32a11.53,11.53,0,0,0,8,0v.32A1.24,1.24,0,0,0,27,17.92h1a1.24,1.24,0,0,0,1.24-1.24V14.16h0a7.43,7.43,0,0,0,1.55-2.32h.72a1.64,1.64,0,0,0,1.64-1.64V8.49a1.64,1.64,0,0,0-1.64-1.65h-.73A7.77,7.77,0,0,0,28,3.54s.28-.69,1-2.25-1.5-1.39-3.8.87a11.64,11.64,0,0,0-3.49-.53c-4.12,0-7.63,2.12-8.95,5.1,0,0-.4-.16-1.3-.6S10.67,7.19,12.25,8.61Z"/><path class="cls-2" d="M27.94,18.23H27a1.55,1.55,0,0,1-1.54-1.43,12,12,0,0,1-7.41,0,1.55,1.55,0,0,1-1.55,1.43h-1A1.54,1.54,0,0,1,14,16.68V14.29A7.19,7.19,0,0,1,11.9,9.35c0-.21,0-.42,0-.62-1.06-1-1.6-2.18-1.23-2.74a.65.65,0,0,1,.9-.14l1,.48c1.49-3,5.1-5,9.1-5a11.72,11.72,0,0,1,3.41.49C26.66.36,28.4-.36,29.15.18c.17.12.51.48.14,1.25-.5,1-.79,1.69-.93,2a8.2,8.2,0,0,1,2.56,3.1h.53a2,2,0,0,1,1.95,2V10.2a2,2,0,0,1-1.95,2h-.52a7.75,7.75,0,0,1-1.44,2.14v2.39A1.55,1.55,0,0,1,27.94,18.23ZM26,15.91v.77a.93.93,0,0,0,.93.93h1a.93.93,0,0,0,.93-.93V14L29,14a7,7,0,0,0,1.49-2.23l.08-.19h.93a1.34,1.34,0,0,0,1.34-1.33V8.49a1.34,1.34,0,0,0-1.34-1.34l-.93,0L30.44,7A7.62,7.62,0,0,0,27.8,3.79l-.2-.14.1-.23s.28-.72,1-2.26c.08-.19.14-.41.05-.48-.33-.23-1.78.14-3.36,1.7l-.13.13-.18,0a11,11,0,0,0-3.4-.52c-3.88,0-7.36,2-8.67,4.92l-.12.27L12.66,7s-.41-.17-1.33-.61a.55.55,0,0,0-.15,0,3.23,3.23,0,0,0,1.28,2l.12.1,0,.16a5.63,5.63,0,0,0,0,.71,6.6,6.6,0,0,0,2,4.6l.09.09v2.64a.92.92,0,0,0,.92.93h1a.93.93,0,0,0,.93-.93v-.77l.42.16a11.25,11.25,0,0,0,7.8,0Z"/><circle class="cls-3" cx="27.81" cy="6.63" r="0.86"/><path class="cls-2" d="M27.81,7.8A1.17,1.17,0,1,1,29,6.63,1.17,1.17,0,0,1,27.81,7.8Zm0-1.72a.55.55,0,0,0-.55.55.55.55,0,1,0,1.1,0A.55.55,0,0,0,27.81,6.08Z"/><path class="cls-2" d="M27.94,18.23H27a1.55,1.55,0,0,1-1.54-1.43,12,12,0,0,1-7.41,0,1.55,1.55,0,0,1-1.55,1.43h-1A1.54,1.54,0,0,1,14,16.68V14.29A7.19,7.19,0,0,1,11.9,9.35c0-.21,0-.42,0-.62-1.06-1-1.6-2.18-1.23-2.74a.65.65,0,0,1,.9-.14l1,.48c1.49-3,5.1-5,9.1-5a11.72,11.72,0,0,1,3.41.49C26.66.36,28.4-.36,29.15.18c.17.12.51.48.14,1.25-.5,1-.79,1.69-.93,2a8.2,8.2,0,0,1,2.56,3.1h.53a2,2,0,0,1,1.95,2V10.2a2,2,0,0,1-1.95,2h-.52a7.75,7.75,0,0,1-1.44,2.14v2.39A1.55,1.55,0,0,1,27.94,18.23Zm-2.21-2.18a.32.32,0,0,1,.31.31v.32a.93.93,0,0,0,.93.93h1a.93.93,0,0,0,.93-.93V14.16A.32.32,0,0,1,29,14a7,7,0,0,0,1.49-2.23.37.37,0,0,1,.3-.19h.71a1.34,1.34,0,0,0,1.34-1.33V8.49a1.34,1.34,0,0,0-1.34-1.34h-.71a.31.31,0,0,1-.3-.19A7.62,7.62,0,0,0,27.8,3.79a.31.31,0,0,1-.1-.37s.28-.72,1-2.26c.08-.19.14-.41.05-.48-.33-.23-1.78.14-3.36,1.7a.32.32,0,0,1-.31.08,11,11,0,0,0-3.4-.52c-3.88,0-7.36,2-8.67,4.92a.3.3,0,0,1-.39.16s-.41-.17-1.33-.61a.55.55,0,0,0-.15,0,3.23,3.23,0,0,0,1.28,2,.28.28,0,0,1,.1.26,5.63,5.63,0,0,0,0,.71,6.6,6.6,0,0,0,2,4.6.33.33,0,0,1,.09.21v2.52a.92.92,0,0,0,.92.93h1a.93.93,0,0,0,.93-.93v-.32a.3.3,0,0,1,.13-.25.31.31,0,0,1,.29,0,11.25,11.25,0,0,0,7.8,0Z"/><path class="cls-2" d="M15.05,6.3a.31.31,0,0,1-.2-.07.32.32,0,0,1,0-.44,8.4,8.4,0,0,1,4.6-2.67.31.31,0,0,1,.14.61,7.8,7.8,0,0,0-4.27,2.46A.31.31,0,0,1,15.05,6.3Z"/><path class="cls-2" d="M21.09,3.5a.31.31,0,0,1,0-.62l.65,0H22a.3.3,0,0,1,.3.31.31.31,0,0,1-.3.31h-.28l-.61,0Z"/><path class="cls-2" d="M22,12a1.84,1.84,0,0,1-1.46-.76A.31.31,0,1,1,21,10.9a1.23,1.23,0,0,0,1,.52.81.81,0,0,0,.89-.78c0-.64-.68-.69-.89-.69a1.35,1.35,0,0,1-1.52-1.32A1.42,1.42,0,0,1,22,7.23,1.82,1.82,0,0,1,23.45,8a.31.31,0,0,1-.49.37,1.22,1.22,0,0,0-1-.52.82.82,0,0,0-.9.78c0,.65.68.7.9.7a1.35,1.35,0,0,1,1.51,1.31A1.41,1.41,0,0,1,22,12Z"/><path class="cls-2" d="M22,7.85a.31.31,0,0,1-.31-.31V6.77a.31.31,0,1,1,.61,0v.77A.3.3,0,0,1,22,7.85Z"/><path class="cls-2" d="M22,12.82a.31.31,0,0,1-.31-.31v-.78a.31.31,0,1,1,.61,0v.78A.3.3,0,0,1,22,12.82Z"/><path class="cls-1" d="M21.91,23.35a1.63,1.63,0,0,0-1.61,1.17.17.17,0,0,1,0,.05v0a2.86,2.86,0,0,0-.14.56L20,25.9h0c-.16,1-.63,1-.85,1a.45.45,0,0,1-.27-.12s-.06-.07,0-.24h0l.76-4.83a.47.47,0,0,0-.92-.15L18,25.88h0c-.16,1-.63,1-.86,1a.36.36,0,0,1-.18-.06,3.08,3.08,0,0,0,.24-.82l.12-.74h0A1.79,1.79,0,0,0,17,23.83a1.43,1.43,0,0,0-1.13-.48,1.78,1.78,0,0,0-.74.15.55.55,0,0,0-.28-.15.46.46,0,0,0-.53.39l-.22,1.41h0l-.12.72h0c-.16,1-.63,1-.85,1,0,0,0,0,0,0a.52.52,0,0,1,0-.34l.2-1.26h0a1.78,1.78,0,0,0-.34-1.45,1.43,1.43,0,0,0-1.13-.48,1.61,1.61,0,0,0-1.19.48,1.43,1.43,0,0,0-1.13-.48,1.85,1.85,0,0,0-.75.15.52.52,0,0,0-.27-.15.46.46,0,0,0-.53.39L7.6,25.88c-.17,1-.63,1-.86,1a.45.45,0,0,1-.27-.12.28.28,0,0,1,0-.24h0l.42-2.67a.47.47,0,0,0-.92-.14L5.6,25.88h0c-.16,1-.63,1-.85,1h0a1.67,1.67,0,0,0-.08-1.14l-1-2.15a.47.47,0,0,0-.83,0L1.62,25.73h0l-.05.09c-.4.72-.62,1.09-1.11,1.09a.47.47,0,0,0,0,.93,1.69,1.69,0,0,0,1.34-.65.94.94,0,0,0,.09.12,1.57,1.57,0,0,0,1.28.53,2,2,0,0,0,.9-.19,1.5,1.5,0,0,0,.68.19,1.64,1.64,0,0,0,1.08-.38,1.41,1.41,0,0,0,.91.38c.56,0,1.52-.24,1.77-1.81l.12-.73h0c.16-1,.63-1,.86-1a.51.51,0,0,1,.42.17.85.85,0,0,1,.13.7h0L9.7,27.3a.46.46,0,0,0,.38.53h.08a.45.45,0,0,0,.45-.39L11,25.29c.17-1,.63-1,.86-1a.55.55,0,0,1,.43.17.9.9,0,0,1,.12.7h0l-.22,1.39v.11a1.22,1.22,0,0,0,.25.86,1,1,0,0,0,.74.34,1.71,1.71,0,0,0,.56-.09L13.5,29a.47.47,0,0,0,.39.53H14a.46.46,0,0,0,.46-.39l.23-1.47a1.53,1.53,0,0,0,.81.21,1.63,1.63,0,0,0,.93-.27,1.38,1.38,0,0,0,.78.27,1.68,1.68,0,0,0,1.09-.38,1.39,1.39,0,0,0,.91.38,1.62,1.62,0,0,0,1.19-.49,1.4,1.4,0,0,0,1.13.49,1.6,1.6,0,0,0,1.41-.75.48.48,0,0,0-.14-.64.47.47,0,0,0-.65.14.66.66,0,0,1-.62.32.54.54,0,0,1-.43-.16.92.92,0,0,1-.12-.71h0v0a1.85,1.85,0,0,0,.69.12,1.5,1.5,0,0,0,1.61-1.25,1.34,1.34,0,0,0-.31-1.08A1.32,1.32,0,0,0,21.91,23.35ZM2.61,26.72a.89.89,0,0,1-.14-.61l.7-1.27.61,1.31a.62.62,0,0,1,0,.55c-.11.17-.4.21-.62.21A.68.68,0,0,1,2.61,26.72Zm12.85.19a.52.52,0,0,1-.43-.16.9.9,0,0,1-.13-.7h0L15,25.3c.17-1,.63-1,.86-1a.55.55,0,0,1,.43.17.9.9,0,0,1,.12.7h0l-.12.74C16.15,26.91,15.68,26.91,15.46,26.91Zm6.87-2.18c0,.3-.28.46-.7.46a.65.65,0,0,1-.46-.13.26.26,0,0,1,0-.21h0c.21-.57.56-.57.74-.57a.42.42,0,0,1,.33.13A.39.39,0,0,1,22.33,24.73Z"/><path class="cls-1" d="M42.13,26.12h.23A1.51,1.51,0,0,0,44,24.87a1.38,1.38,0,0,0-.31-1.08,1.33,1.33,0,0,0-1-.44c-.54,0-1.48.22-1.76,1.7l0,0s-.08-.08-.06-.25a1.59,1.59,0,0,0-.29-1.13.89.89,0,0,0-.66-.28c-.38,0-1,.16-1.23,1.29l-.2,1.24h0c-.16,1-.63,1-.85,1a.45.45,0,0,1-.27-.12s-.06-.07,0-.24h0l.28-1.76h0a1.2,1.2,0,0,0-.24-1,1.37,1.37,0,0,0-1-.44c-.55,0-1.52.23-1.77,1.8h0l-.12.73c-.16,1-.63,1-.85,1a.43.43,0,0,1-.27-.12s-.07-.07,0-.24h0l.08-.5h0l.12-.74h0l.22-1.4a.46.46,0,0,0-.38-.53.45.45,0,0,0-.47.22,1.62,1.62,0,0,0-.84-.22c-.55,0-1.52.23-1.77,1.8l-.12.73h0c-.16,1-.63,1-.85,1h0a1.67,1.67,0,0,0-.08-1.14l-1-2.15a.47.47,0,0,0-.83,0l-1.18,2.14h0l-.05.09c-.39.72-.62,1.09-1.1,1.09a.47.47,0,1,0,0,.93,1.69,1.69,0,0,0,1.33-.65l.09.12a1.57,1.57,0,0,0,1.28.53,2.05,2.05,0,0,0,.91-.19,1.43,1.43,0,0,0,.67.19,1.63,1.63,0,0,0,1.19-.49,1.4,1.4,0,0,0,1.13.49,1.64,1.64,0,0,0,1.08-.38,1.43,1.43,0,0,0,.92.38c.55,0,1.52-.24,1.77-1.81l.11-.73h0c.17-1,.64-1,.86-1a.52.52,0,0,1,.27.12s.06.08,0,.25h0l-.28,1.76h0a1.19,1.19,0,0,0,.24,1,1.35,1.35,0,0,0,1,.45c.55,0,1.52-.24,1.77-1.81h0l.2-1.24c.07-.47.21-.51.29-.52a.82.82,0,0,1,0,.4,1.26,1.26,0,0,0,.31,1,1.45,1.45,0,0,0,.57.34,1.76,1.76,0,0,0,.35,1.36,1.44,1.44,0,0,0,1.14.49,1.58,1.58,0,0,0,1.4-.75.46.46,0,1,0-.78-.5.67.67,0,0,1-.62.32.52.52,0,0,1-.43-.16.88.88,0,0,1-.14-.62Zm.51-1.85a.45.45,0,0,1,.33.13.47.47,0,0,1,.09.33c-.05.3-.28.46-.7.46H41.8C42,24.27,42.42,24.27,42.64,24.27ZM27.1,26.72a.89.89,0,0,1-.14-.61l.7-1.27.62,1.31a.66.66,0,0,1,0,.55c-.11.17-.4.21-.62.21A.68.68,0,0,1,27.1,26.72Zm4.46.19a.54.54,0,0,1-.43-.16.9.9,0,0,1-.12-.7l.12-.75c.16-1,.63-1,.85-1a.52.52,0,0,1,.43.17.9.9,0,0,1,.12.7l-.12.76C32.25,26.91,31.78,26.91,31.56,26.91Z"/><path class="cls-1" d="M6.64,22.31h.07a.46.46,0,0,0,.46-.39l0-.2a.46.46,0,0,0-.91-.15l0,.2A.47.47,0,0,0,6.64,22.31Z"/></g></g></svg>