<svg xmlns="http://www.w3.org/2000/svg" viewBox="0 0 2611.89 1631.12"><defs><style>.cls-1{fill:#282828;}</style></defs><title>cowlick_2</title><g id="Layer_2" data-name="Layer 2"><g id="Layer_1-2" data-name="Layer 1"><path class="cls-1" d="M2284.07,858.45a16,16,0,0,0-1.39,4.69,32.94,32.94,0,0,0-.48,5.61,12.61,12.61,0,0,0,1.17,5.37,8,8,0,0,0,4.44,4,13.54,13.54,0,0,0,7.94.47,27.58,27.58,0,0,0,8.2-3.26,50.88,50.88,0,0,0,7.48-5.39,53.52,53.52,0,0,0,5.88-5.88c.92-.92,1.78-1.86,2.57-2.79a30.59,30.59,0,0,0,2.1-2.81,17.85,17.85,0,0,0,2.33-2.8c1.56-1.87,2.89-3.58,4-5.15s1.95-2.81,2.57-3.74a7,7,0,0,0,1.88-4,3.45,3.45,0,0,0-.95-2.57,6,6,0,0,0-2.32-1.4,36.79,36.79,0,0,0-11-2.11,84.29,84.29,0,0,0-11,.24c-4,.32-7,1.24-8.87,2.8a31.36,31.36,0,0,0-3.28,2.81,23.13,23.13,0,0,0-2.81,3.51,59.38,59.38,0,0,1-3.74,4.91,14.12,14.12,0,0,0-1.92,2.37A52.9,52.9,0,0,0,2284.07,858.45Z"/><path class="cls-1" d="M2090.44,1001.12a207.18,207.18,0,0,0,31.82-32.29q13.54-17.31,21.5-29.47,18.25-27.58,18-44.2t-14.28-21.74a16.39,16.39,0,0,0-5.14-.94,33,33,0,0,0-5.15.47,15.33,15.33,0,0,0-6.08,2.82,2.93,2.93,0,0,0-1.39,1.39,4.18,4.18,0,0,0,0,4.69,45.54,45.54,0,0,1,1.86,6.77,31.75,31.75,0,0,1,0,11,77.65,77.65,0,0,1-4.19,15.42,101.51,101.51,0,0,1-10.77,20.16,29.7,29.7,0,0,1-2.8,4,29.77,29.77,0,0,0-2.81,4,35.39,35.39,0,0,0-3.27,4.43,97.84,97.84,0,0,1-6.08,8q-3.75,4.44-8.19,9.36a68.3,68.3,0,0,1-8.65,8.18h-.47a7.32,7.32,0,0,1-1.87,1.4,7.5,7.5,0,0,0-1.87,1.4,38.81,38.81,0,0,1-11.69,4.9c-4.36,1.1-8.4,0-12.16-3.51a11.94,11.94,0,0,0,4.68,1,13.77,13.77,0,0,0,9.82-1.87c-2.81-2.17-3.45-6.72-1.87-13.57a147.15,147.15,0,0,1,7.25-22.44q4.9-12.17,10.76-23.62t9.11-17.07a8.42,8.42,0,0,0,.48-6.08,6.21,6.21,0,0,0-1.41-2.35,30.2,30.2,0,0,0-8.9-6.08,53.73,53.73,0,0,0-8.86-3.25c-2.83-.32-5,0-6.56.91a5.4,5.4,0,0,0-1.87,1.87q-4.68,6.55-13.8,22.46a260.79,260.79,0,0,0-16.6,35.08l-.47.94c-2.19,3.43-4.75,7.39-7.71,11.92a113.33,113.33,0,0,1-9.34,12.35,44.33,44.33,0,0,1-9.83,8.65c-3.26,2-6.16,2.11-8.65.24q-4.2-2.82-2.1-13.1a130.82,130.82,0,0,1,7-22.46q4.9-12.13,10.76-23.85t9.12-17.29a8.47,8.47,0,0,0,.46-6.08,6.06,6.06,0,0,0-1.4-2.35,30.33,30.33,0,0,0-8.9-6.08,47.53,47.53,0,0,0-9.35-3.26,9.43,9.43,0,0,0-6.08.92,5.29,5.29,0,0,0-1.86,1.87q-3.29,5.18-9.59,15.21a236.3,236.3,0,0,0-12.6,23.14l-.33.71a48,48,0,0,1-13.93,4,115.22,115.22,0,0,1-14.5.92,106.25,106.25,0,0,1-12.86-.7,84.43,84.43,0,0,0-9.12-.7h-.47a5.26,5.26,0,0,1-2.34-.46c-.31,0-.47.31-.47.94-.63-.63-1.1-.94-1.4-.94q-7-2.34-10.08-5.62c-2-2.17-3.2-3.74-3.5-4.68-1.57-2.16-1.09-4.35,1.4-6.54a36.67,36.67,0,0,1,8.9-5.62,23,23,0,0,1,6.08-1.4c3.41.32,5,2.28,4.66,5.88a43.07,43.07,0,0,1-2.79,11.46,12.66,12.66,0,0,0,7.47,4.2,24.38,24.38,0,0,0,8.89.25,19.82,19.82,0,0,0,7.49-2.82,9.71,9.71,0,0,0,4.2-4.91q3.24-13.56-1.18-21.28a31.22,31.22,0,0,0-10.52-11.46,26.08,26.08,0,0,0-9.58-4.67,41.06,41.06,0,0,0-5.39-.94q-11.68-2.33-29,2.34t-36.95,22.46a150.49,150.49,0,0,0-22,27.11,1.38,1.38,0,0,1-.47.94,11.34,11.34,0,0,0-1.87,2.82c-1,1.83-2.17,4.19-3.5,6.9q-.63,1-1.17,2-15,23.39-33,39.28a168.59,168.59,0,0,1-37,25.25,139.59,139.59,0,0,1-37.66,12.6,105.49,105.49,0,0,1-35.54.46,56.87,56.87,0,0,1-24.56-9.36q-11-7.47-13.09-22.21t7-38.35q9.12-23.61,35.78-58.71,23.83-30.83,48.18-47.43t44.91-24.57a167.69,167.69,0,0,1,45.78-10.74h3a55.79,55.79,0,0,1,6.33.45c2.52.31,5.21.7,8.18,1.18a28.08,28.08,0,0,1,8.19,2.56,86.13,86.13,0,0,0-9.36-.45,63.34,63.34,0,0,0-9.13.69,50.72,50.72,0,0,0-10.08,2.57q-7.95,16.38-17.54,27.13a130.72,130.72,0,0,1-17.53,16.8,13.88,13.88,0,0,0-4.2,5.16,3.2,3.2,0,0,0,.94,4c1.24,1.1,4.2,2,8.87,2.57q22.9,2.35,36.74-4.2t21.73-15.95A64.43,64.43,0,0,0,1873.83,827q2.34-17.76-5.37-28.55A48.31,48.31,0,0,0,1850,782.6q-12.16-6.09-29-8.4-23.85-1.86-50.51,7.48-22.9,8-51.68,28.3t-59.62,61.5q-29.48,41.63-39.29,76.23a124,124,0,0,0-4.68,29.71,57.49,57.49,0,0,0,5.63,27.36q6,12.6,20.1,22t38.8,13.56q23.87,4.2,44.69.7a157.41,157.41,0,0,0,38.1-11.23,149.15,149.15,0,0,0,31.57-18.94,203.09,203.09,0,0,0,25-23.14c2-2.19,3.82-4.34,5.62-6.48a46.09,46.09,0,0,0,1.61,10,34.42,34.42,0,0,0,8.19,14q5.14,6.07,14.5,10.76t24.36,6.55h.45a108.32,108.32,0,0,0,16.8.47,66.16,66.16,0,0,0,14-2.35,89,89,0,0,0,8.89-2.81,50,50,0,0,0,10.75-5.61,26.22,26.22,0,0,0,5.63-4.2,54,54,0,0,0,12.14-13.56,72.67,72.67,0,0,0,6.08-12.16l.94-1.86v-.94a1.4,1.4,0,0,1,.47-.94,20.77,20.77,0,0,0,.93-3.28v-1.39c.31-1.88.54-4.06.7-6.56s.24-5,.24-7.48a5.1,5.1,0,0,1-.48-2.34v-.48l-1.39-6.54c3.43,0,7.86-.14,13.34-.46,1.37-.08,2.75-.21,4.13-.4-.14.38-.28.74-.41,1.1a118.54,118.54,0,0,0-6.79,28.77,45.67,45.67,0,0,0-.46,6.07,34.13,34.13,0,0,0,0,11.23c.62,4.37,2.74,9,6.31,13.79s9.9,7.25,19,7.25a38.52,38.52,0,0,0,23.62-7,96,96,0,0,0,20-18.14,52.81,52.81,0,0,0,3.73,12.16c1.88,4.37,5.45,7.79,10.76,10.28a7.28,7.28,0,0,0,2.82,1.16,8,8,0,0,1,2.33.72,8.09,8.09,0,0,0,2.33.45,35.15,35.15,0,0,0,14.74-1.17,53.86,53.86,0,0,0,13.32-6.31,40.34,40.34,0,0,0,6.08-4.2C2086.25,1004.22,2088.26,1002.67,2090.44,1001.12Zm-161.81-30.41v0a27.16,27.16,0,0,1-1.4,4.66,10.18,10.18,0,0,1-1.88,4.2,16.13,16.13,0,0,1-3,4,53.78,53.78,0,0,1-4.44,4,26.66,26.66,0,0,1-9.83,5.15q-6.09,1.86-15,.46a35.35,35.35,0,0,1-12.6-4.67q-8.38-5.15-10.07-12.16a72,72,0,0,1-1.68-8q-.46-8.88,5.61-18.94A182.9,182.9,0,0,1,1888,930c1.56,2.19,2.65,3.28,3.29,3.28a43.76,43.76,0,0,0,11.68,11.22c4.38,2.8,10.59,4.68,18.71,5.62a14.72,14.72,0,0,1,4.2,5.61c.92,2.19,1.68,4,2.32,5.61a15.29,15.29,0,0,1,.95,4.68A24.54,24.54,0,0,1,1928.63,970.71Z"/><path class="cls-1" d="M2606.33,935.15a6,6,0,0,0-4.93.25,32.44,32.44,0,0,0-4,2.57,43.72,43.72,0,0,0-3.73,4.2q-2.84,4.19-6.79,10.07a94.75,94.75,0,0,1-8.67,11,33.94,33.94,0,0,1-4.9,4.91,64.41,64.41,0,0,1-8.4,6.09,44.68,44.68,0,0,1-11.46,4.9,41,41,0,0,1-14,1.42,50.91,50.91,0,0,1-14-2.81c-4.36-1.56-8.4-3.12-12.16-4.69a75.39,75.39,0,0,1-10.29-5.14l-3.74-2.8A80.2,80.2,0,0,0,2517,962.3a100.43,100.43,0,0,0,23.86-8.39,80.58,80.58,0,0,0,16.37-11,64.58,64.58,0,0,0,10.52-11.69,56.65,56.65,0,0,0,5.88-10.54q2.79-5.6,2.79-8.39,2.34-10.78,0-16.84a21.17,21.17,0,0,0-6.56-9.39,30.93,30.93,0,0,0-11.71-5.14,55.86,55.86,0,0,0-23.85,1.39,85.28,85.28,0,0,0-21,9.37,9.8,9.8,0,0,1-1.64,1.17c-.79.47-1.68,1-2.58,1.62a122.89,122.89,0,0,0-13.8,11,106.78,106.78,0,0,0-11.46,12.4,114.65,114.65,0,0,1,11.94-18c5.48-7,13.32-12.87,23.62-17.56q16.35-25.19,31.07-45.82t22.2-30.41c1.56-2.52,2.35-4.35,2.35-5.6a5.67,5.67,0,0,0-.94-3.27,12.78,12.78,0,0,0-3.27-2.34,53.7,53.7,0,0,0-15.44-2.57q-8.4-.24-15,.23c-5.61.63-10,1.86-13.09,3.74a51.3,51.3,0,0,0-4.19,3.74q-8.4,9.83-22.22,30.63t-28.06,45.84q-14.28,25-26.87,50.52-6,12-10.36,22.77c-1.53,2.46-3.22,4.93-5,7.38q-2.36,3.74-11,13.8a66.42,66.42,0,0,1-22.67,16.6,50.14,50.14,0,0,1-24.36,6.08,42.3,42.3,0,0,1-16.35-3.26c-4.68-1.57-8.28-3.74-10.77-6.55a19.16,19.16,0,0,1-5.37-15.2,54.08,54.08,0,0,1,4-16.61,64.68,64.68,0,0,1,7.24-13.33,142.4,142.4,0,0,1,9.11-11.68q4.69-5.38,8.9-9.37c2.81-2.64,5.13-4.74,7-6.3a23.64,23.64,0,0,1,3-2.6,19.56,19.56,0,0,0,2.52-2.11,42.92,42.92,0,0,1-4.68.7,12.54,12.54,0,0,0-4.19,1.17l-4.2,1.42q9.36-7,15.44-7.26c4-.15,6.54.08,7.48.71q4.68.93,3,8.17a57.39,57.39,0,0,1-4.43,12.86,8.06,8.06,0,0,1-.95,2.34l-1.86,2.81a1.36,1.36,0,0,0-.47.93c-.32.63-.63,1.35-.94,2.11a22.4,22.4,0,0,1-.94,2.11,4.2,4.2,0,0,0,0,2.8c.32,1,1.25,1.68,2.82,2.35a34.37,34.37,0,0,0,8.39.92,23.72,23.72,0,0,0,9.83-2.32,22.55,22.55,0,0,0,6.54-4.93,29.4,29.4,0,0,0,5.15-8.65,18.63,18.63,0,0,0,2.34-8q2.32-13.54-1.68-21.28a28.15,28.15,0,0,0-10.08-11.46,26.29,26.29,0,0,0-9.59-4.67c-3-.62-4.61-.94-4.92-.94q-12.16-2.33-29.46,2.34T2328,903.36a151.28,151.28,0,0,0-22,27.12,1.37,1.37,0,0,1-.46.94,10.57,10.57,0,0,0-1.86,2.81c-1.57,2.8-3.51,6.62-5.88,11.45-.38.78-.73,1.59-1.09,2.41l-4.51,6.95a112.88,112.88,0,0,1-9.38,12.39,44.23,44.23,0,0,1-9.81,8.65c-3.28,2-6.17,2.1-8.65.25q-4.2-2.82-1.4-13.11a132.89,132.89,0,0,1,8.65-22.46q5.86-12.13,12.59-23.85t9.59-17.29a8.22,8.22,0,0,0,.47-6.08,5.93,5.93,0,0,0-1.39-2.34,30.55,30.55,0,0,0-8.9-6.09,55,55,0,0,0-8.89-3.26c-2.79-.31-5,0-6.53.93a5.32,5.32,0,0,0-1.88,1.86q-3.26,5.18-10.28,15.21a269.75,269.75,0,0,0-26.34,48q-2.52,3-5.93,6.46a151.94,151.94,0,0,1-13.82,12.16,75.64,75.64,0,0,1-14.27,8.88q-7,3.27-11.23,1.87l-.47-.47c-2.18-1.25-2.8-3.65-1.86-7.24a47.34,47.34,0,0,1,3.27-9.13q11.2-22.44,25.95-46.07t29-44.9q14.28-21.27,26.2-38.11t18.47-25.26c1.55-2.52,2.34-4.35,2.34-5.6a5.68,5.68,0,0,0-.94-3.28,12.29,12.29,0,0,0-3.26-2.33,48.51,48.51,0,0,0-15-2.57c-5.63-.16-10.61-.09-15,.22-5.6.32-10,1.56-13.1,3.75a51.43,51.43,0,0,0-4.2,3.74q-4.7,5.6-11.24,14.72t-14.27,20.83q-7.72,11.67-15.9,25.47t-16.15,27.83q-4.2,7-9.59,17.07t-10.52,21.76q-5.15,11.69-9.35,24.08a119.1,119.1,0,0,0-5.62,24.09,125,125,0,0,0-.93,15,28.7,28.7,0,0,0,2.82,13.08v1h.45v.93a.42.42,0,0,1,.47.36.24.24,0,0,1,0,.12l.47.46v.46a.42.42,0,0,1,.47.38.14.14,0,0,1,0,.09l.46.46a.43.43,0,0,0,.36.48h.11a19.12,19.12,0,0,0,4.68,4.2,31.45,31.45,0,0,0,4.69,2.32,13.66,13.66,0,0,0,5.14.94q13.55,1.88,27.36-5.38a122.39,122.39,0,0,0,25.95-18.47c1.58-1.46,3.09-3,4.6-4.44,0,1.22,0,2.44-.15,3.73a12.06,12.06,0,0,0,.7,5.39q.93,6.54,6.07,13.78t18.71,7.25a39.37,39.37,0,0,0,24.35-7.25,96.52,96.52,0,0,0,20.34-18.94l.17-.21a38.75,38.75,0,0,0,2.87,6.77q4.69,8.4,15.21,14.5t28.77,8.4a7.85,7.85,0,0,1,1.87.23,7.37,7.37,0,0,0,1.87.23q6.06.48,13.08.48a124.11,124.11,0,0,0,14-.94,141.36,141.36,0,0,0,17.32-3.28q4.2-1.38,8.65-3a92,92,0,0,0,9.12-4,88.76,88.76,0,0,0,19.89-13.69,51.35,51.35,0,0,0,1.61,13.69,3.16,3.16,0,0,1,.7.93,4.69,4.69,0,0,0,.72.94c.94,1.24,2.8,2.52,5.61,4s7.17,2.1,13.09,2.1c2.52-.31,4.14-1.16,4.91-2.57s1.33-2.41,1.68-3a170.12,170.12,0,0,1,5.15-17.3q3.26-9.36,8-19.64,2.79-6.07,9.82-18.47A211.14,211.14,0,0,1,2491,933.47a123.84,123.84,0,0,1,19.65-20.57q10.51-8.65,20.82-7.26a57.22,57.22,0,0,1,6.53,1.88c2.82.92,4.2,3.42,4.2,7.48a7.8,7.8,0,0,0-1.4-1.88,17.74,17.74,0,0,0-4.2-3.26l.48.45a12.19,12.19,0,0,1-.95,9.37,28.55,28.55,0,0,1-8.65,8.65,101.26,101.26,0,0,1-13.08,7.47q-7.26,3.51-14.5,6.55a95.67,95.67,0,0,0-11.93,5.88q-6.57,3.78-8.18,10.08a34.73,34.73,0,0,0-1.17,11.92,45.2,45.2,0,0,0,3.27,14q5.6,14.5,15,21.29a62.53,62.53,0,0,0,18.71,9.56,66.83,66.83,0,0,0,22.44,2.82,43.38,43.38,0,0,0,23.86-8.4,108.11,108.11,0,0,0,20.58-19.16A204.21,204.21,0,0,0,2599,967.44q7.24-11.69,11.44-19.63,1.43-2.32,1.42-6.79T2606.33,935.15Z"/><path class="cls-1" d="M1796.43,1143.19c-19.76-5-24.65-7.52-24.65-15v-.32c0-5.56,5-10,14.69-10s19.6,4.24,29.72,11.26l13.06-18.94c-11.59-9.3-25.79-14.53-42.45-14.53-23.36,0-40,13.72-40,34.43v.34c0,22.67,14.86,29.06,37.88,34.94,19.1,4.9,23,8.17,23,14.54v.32c0,6.71-6.2,10.78-16.5,10.78-13.06,0-23.83-5.38-34.13-13.88L1742.21,1195a72.76,72.76,0,0,0,48.51,18.28c24.66,0,42-12.73,42-35.44v-.33C1832.69,1157.56,1819.63,1149.22,1796.43,1143.19Z"/><polygon class="cls-1" points="1844.02 1120.49 1878.8 1120.49 1878.8 1211.61 1903.95 1211.61 1903.95 1120.49 1938.73 1120.49 1938.73 1097.29 1844.02 1097.29 1844.02 1120.49"/><path class="cls-1" d="M2030.73,1162.79c0,18.13-9.32,27.43-24.66,27.43s-24.66-9.64-24.66-28.26V1097.3h-25.15v65.32c0,33.64,18.78,50.79,49.47,50.79s50.19-17,50.19-51.61v-64.5h-25.19Z"/><path class="cls-1" d="M2126.17,1097.29h-44.59v114.32h44.59c35.93,0,60.75-25,60.75-57.15v-.32C2186.92,1122,2162.1,1097.29,2126.17,1097.29Zm34.43,57.49c0,20.25-13.88,34.14-34.43,34.14h-19.44V1120h19.44c20.58,0,34.43,14.21,34.43,34.43Z"/><rect class="cls-1" x="2210.5" y="1097.3" width="25.15" height="114.32"/><path class="cls-1" d="M2320.11,1095.34c-35.27,0-60.91,26.63-60.91,59.12v.32c0,32.5,25.31,58.79,60.59,58.79s60.9-26.62,60.9-59.12v-.32C2380.69,1121.63,2355.38,1095.34,2320.11,1095.34Zm34.29,59.44c0,19.6-14.05,35.6-34.29,35.6s-34.62-16.32-34.62-35.92v-.32c0-19.61,14-35.62,34.3-35.62s34.61,16.34,34.61,35.94Z"/><path class="cls-1" d="M2448.7,1143.19c-19.76-5-24.65-7.52-24.65-15v-.32c0-5.56,5-10,14.69-10s19.6,4.24,29.73,11.26l13.06-18.94c-11.6-9.3-25.8-14.53-42.46-14.53-23.35,0-40,13.72-40,34.43v.34c0,22.67,14.86,29.06,37.88,34.94,19.11,4.9,23,8.17,23,14.54v.32c0,6.71-6.2,10.78-16.49,10.78-13.06,0-23.84-5.38-34.14-13.88L2394.49,1195a72.76,72.76,0,0,0,48.5,18.28c24.66,0,42-12.73,42-35.44v-.33C2485,1157.56,2471.9,1149.22,2448.7,1143.19Z"/><g id="Cow_moo" data-name="Cow moo"><path class="cls-1" d="M1279.26,945.85c22.93-1.2,42.7-12.44,54.67-28.87a13,13,0,0,0,2.27-8.47c-.5-8.1-8-14.3-16.66-13.84l-.78.06c-1.56.18-3.14.3-4.73.38-26.78,1.41-50.82-11.81-63.14-32.22a18.3,18.3,0,0,1-2.23-8.28,20.65,20.65,0,0,1,7.82-17.92l33.79-24.1a7,7,0,0,0,2.53-5.82,7.72,7.72,0,0,0-8.34-6.94,8.27,8.27,0,0,0-3.6,1h0l-42.37,22.73c-21.65,12.26-35.51,35-34,60.14C1206.73,920.1,1240.19,947.91,1279.26,945.85Z"/><path class="cls-1" d="M1396.88,632c69.17-57.26,105.57-114.22,108.17-169.28,2.42-51-25.37-80.36-28.55-83.53l-5.08-5.09-6.84-2.22c-52.34-17.06-101-25.71-144.51-25.71-28.55,0-55.24,3.71-79.33,11a202.14,202.14,0,0,0-54,25.25c-2.24,1.51-4.39,3-6.43,4.52a164.45,164.45,0,0,0-19-25.32,303.32,303.32,0,0,0,37.42-54,293.12,293.12,0,0,0,33-100.2c6-43.17,2.38-88.36-10.64-134.3a69.63,69.63,0,0,0-4.91-14.39,49.38,49.38,0,0,0-10.64-14.93,39.29,39.29,0,0,0-27-10.89c-11.12,0-21.73,4.58-31.52,13.59-11.78,10.85-15.22,26.51-20.43,50.2-5.35,24.36-12.69,57.72-30.77,89a172.74,172.74,0,0,1-60.89,62.42l-48.44-18.39,54.73-26.58L919.3,199.47c-1.18,0-2.37-.05-3.54-.05-43.87,0-78.89,24.29-82.74,27.06l-.6.43c-4.47.82-15.31,2.16-38.17,2.16-14.12,0-25.73-.53-25.84-.54h-9.17c-132.26,0-205.93,17.91-227.88,24.26-22.5-2.78-42.26-9.5-60.24-20.47-17-10.36-31.91-24.22-45.64-42.37-26.38-34.88-42-77.72-54.62-112.15C364.33,60,358.7,44.61,352.44,32.57c-4.34-8.33-8.67-14.52-13.64-19.48C328,2.28,316.42,0,308.67,0h-.37C290.21.15,275,9,266.66,24.19a51.54,51.54,0,0,0-6.09,20.06c-9,73.44-4.4,139.29,13.82,195.72,12.69,39.31,31.9,74.07,57.21,103.6q-8.6-3.57-17.6-7c-73.28-27.89-136.23-42-187.12-42-77.42,0-104,32.65-108.53,39.19l-.45.65-.42.68C15.26,338.64-3.87,371.23.7,420.94c2.63,28.53,12.56,57,29.5,84.52,20.08,32.65,50.21,64.18,89.55,93.73a547.81,547.81,0,0,0,70.16,45.24c56.5,30.76,108.26,46.36,153.84,46.36h2.31s5.31-.24,13.93-.24c16.41,0,48.68.88,80.5,6.82,33.35,6.22,58.12,16.65,69.77,29.37l.24.26c.9,1.18,6.75,9.28,12.83,29S537,811.8,538.21,870c2,96.18,40.78,161.63,66.82,195h0c-68.52,65.71-131.61,113.27-183.73,138.32l-.59.28-.57.31a36.11,36.11,0,0,0-8.34,6.13c-.53.53-1.05,1.07-1.56,1.64l-.71.71-.79,1.08-1.25,1.5-.85,1.54c-.43.7-.84,1.4-1.22,2.12h0c-.34.66-.66,1.33-1,2a18.25,18.25,0,0,0-1,2.57v.23c-.29.83-.5,1.55-.65,2.09s-.39,1.4-.59,2.36-.33,1.72-.41,2.31-.19,1.33-.27,2.23-.1,1.53-.11,2.08,0,1.09,0,1.82v.28c0,.82.06,1.49.08,1.82s.07,1.07.15,1.81.19,1.43.24,1.76c.07.48.14,1,.23,1.43v.19c.14.73.27,1.34.36,1.7s.2.9.32,1.35.29,1.08.46,1.65h0c.12.39.23.76.35,1.13.17.55.36,1.09.55,1.63v.08l.34,1,.59,1.5v.1l.05.14h0c.1.25.19.48.29.71h0c.22.52.47,1.06.71,1.6l.41.87c.23.5.48,1,.74,1.51v.06l.34.68c.29.56.58,1.11.88,1.66l.33.6c.3.55.63,1.12,1,1.69l.35.6,1,1.59.32.51h0c.33.53.68,1.08,1,1.63.11.18.23.36.35.54.37.57.76,1.15,1.15,1.73h0l.22.32h0l1.2,1.71.35.49c.4.57.81,1.14,1.23,1.72h0l.25.34h0l1.35,1.8.29.38c.47.62,1,1.25,1.45,1.88v.06l.23.29,1.53,1.93.05.06.05.06.09.11c.53.67,1.08,1.34,1.64,2h0l.1.13h0l1.71,2h0l.17.2,1.8,2.1h0l.09.09.37.44v.31l8,8.58v.05c21.69,23.28,52.64,50.84,88.29,78.7a59.95,59.95,0,0,0,81,57.93A691.45,691.45,0,0,0,669,1470.77c36,18.24,52.44,20.34,61.7,20.34,18,0,27.65-9.34,31.78-14.91a35.6,35.6,0,0,0,6.54-15.64v-.23c7.61-49.45,29-111.63,62.35-182.29a264.54,264.54,0,0,0,40.26,15.83c32.06,9.76,69.1,15.09,110.23,15.88-1.41,1.51-2.81,3-4.2,4.56-.43.48-.85,1-1.28,1.43q-1.85,2.05-3.66,4.14c-.38.42-.75.85-1.12,1.28q-4.73,5.43-9.23,11l-.83,1c-1.22,1.52-2.42,3-3.62,4.58l-1.08,1.39q-2.16,2.77-4.27,5.61c-1.07,1.4-2.1,2.83-3.11,4.29-.36.52-.69,1.06-1,1.59-.63.94-1.27,1.87-1.87,2.82-12,19.09-18.74,41.77-19.86,66.47-.1,2.4-.18,4.83-.18,7.27a136.54,136.54,0,0,0,5.47,38.27v.25h0c.54,1.79,1.11,3.56,1.69,5.33.17.52.35,1,.53,1.56.44,1.33.91,2.65,1.38,4l.53,1.5c.64,1.74,1.29,3.48,2,5.21.07.17.15.34.21.52q.93,2.31,1.89,4.61c.24.57.48,1.13.73,1.7.5,1.17,1,2.33,1.53,3.49l.81,1.78q1,2.2,2.07,4.38c.35.73.72,1.45,1.08,2.18l1.46,2.9c.44.85.89,1.7,1.34,2.55l1.1,2c.52,1,1,1.92,1.58,2.88l.39.67q3.25,5.73,6.82,11.27l.06.1a233.77,233.77,0,0,0,59.27,62.56l.46.34c1.07.77,2.14,1.53,3.22,2.28l1.26.87,3,2c1.32.88,2.64,1.74,4,2.59l1.86,1.16c1,.63,2,1.26,3.06,1.87l1.66,1q2,1.17,4,2.29l.78.44c1.72,1,3.45,1.9,5.2,2.82l.34.18c1.64.86,3.28,1.69,4.94,2.51l.72.35q4.35,2.13,8.78,4.08l.53.23,3,1.3,1.06.44c.93.39,1.87.76,2.81,1.14l1.32.52,2.7,1,1.44.53,2.7,1,1.42.5,1.4.49,1.35.45,1.45.47c1,.32,1.93.63,2.9.93l1.13.35,3.24,1,.45.12a232.17,232.17,0,0,0,48.5,8.55h.55l3,.17,1.56.08,2.48.11,2.38.07h6.21c57,0,99.85-11.62,143.22-38.85l.16-.1.16-.11c49.84-32.18,91.72-81.73,121.13-143.3,28.87-60.45,44.12-129.14,44.12-198.65,0-4.75-.08-9.57-.24-14.32v-.19c-.08-2.15-.19-4.29-.35-6.42l-.06-1c-3.29-47.15-19.66-91-47.59-127.1a220.76,220.76,0,0,0-15.3-17.75,235.91,235.91,0,0,0,21-34.65,227,227,0,0,0,23.75-101.48A232.12,232.12,0,0,0,1420,842.7l-30.12-58.55h0a121.94,121.94,0,0,0-39.19-44.73,129.11,129.11,0,0,0-57-21.85c-31.16-5-54.83-14.92-69.26-29,44.32-.6,87.45-10.09,125-27.54C1377.41,648.09,1393.51,634.86,1396.88,632ZM316.56,645.22c-24.62-.42-52.81-4.43-85-13.34C176.79,606.94,138,575.39,138,575.39,11.57,480.61,25.65,395.31,37.06,363.79h0c36.61,7.85,82,9.42,175,79.59,59.73,45.08,51.33,94.13,51.33,94.13,20.43-23.79,15.78-50.32,15.78-50.32C306.38,510.74,293,590.38,293,590.38c26.11-24.84,23.83-70.87,23.83-70.87C351.76,558.91,332.85,618.16,316.56,645.22ZM513.84,353.11h0c-.61,1.1-1.24,2.2-1.9,3.3.66-1.1,1.29-2.2,1.9-3.3-226.79-87-221.9-275.74-217.65-318.72,2.68-2.48,6.59-4.34,12.31-4.38,39.83-.33,42.13,236.31,225.7,253.27C534.2,283.28,534.32,316.64,513.84,353.11Zm653.8,140c4.44,27.77-8.35,56.24-28,74.82-2.83-4.51-5.9-8.87-9.14-13.08h0c5.83-4.54,10.66-12.41,12.77-22,3.69-16.73-2.32-32.28-13.43-34.73s-23.11,9.12-26.8,25.85c-.14.66-.27,1.31-.38,2-15.66-13.17-32.49-23.16-47.67-29,.28-.2,38.72-26.52,112.65-3.87Zm-.31-424.5h0c19.15-17.57,24.5,11.78,24.5,11.78C1245,266,1112.6,367.58,1112.6,367.58c-34.6-3.42-57.25-15.15-72-28.37C1168,270.89,1167.33,68.6,1167.33,68.6Zm-126.78,270.6h0l-.24-.23ZM767,258.55ZM557.44,353c3-29.73,26.48-44.5,27.22-54.89.84-11.79-16.6-23.13-16.86-23.3h0c24.89-5.1,63.92-11.2,118.1-14.29l2.86-.16,2.5-.13,3.5-.18,2-.1,3.4-.15,2.17-.1,3.29-.13q5.19-.21,10.5-.38l3.55-.11,1.93-.06q21.36-.58,45.3-.48c23.94.11,29.62,1.38,53.63-.17h.13l2.68-.19h0c13.93-1.05,25.42-3.19,27.17-7.31,0,0,25.89-18.64,58.16-21.14l1.19-.08,1.67-.09,1.39-.06h5.36a177.62,177.62,0,0,0-36.59,25l.25-.17h0l-.18.16A76.14,76.14,0,0,1,917.41,243l1.13-.07h.68c1.36-.06,2.74-.08,4.15-.06h1.4l1.48.06a4.54,4.54,0,0,1,.9.06c.94.06,1.9.13,2.86.23l.62.07a76.19,76.19,0,0,1,18.71,4.58h0a105,105,0,0,0-32.72,16.08h.07s.82-.11,2.21-.23l1.81-.13h.82l1-.05h.86c10.5-.34,31.09.75,45.42,12.69a65.47,65.47,0,0,0,8.69,6.09,25.69,25.69,0,0,0,1.61,2.26,136.68,136.68,0,0,0,12.62,36.71c9.49,18.45,21.33,33.64,35,45.11a2,2,0,0,0,.13.5h0c-14.72,10-28.89,28.79-32.76,63.89,0,0,8.33-19,35.8-23.81h0s-9.19,12.88-11.62,35.48c-2.76,25.62,3.16,63.72,41,109.71,0,0,28.79,33.62,24.56,77.3,0,0,12.15-6.19,12.91-16.83a13.35,13.35,0,0,0,0-2.19h0s26.45,37.34,84.26,61.64c3.74,14.68,14.25,36.71,43.44,53.84A500.2,500.2,0,0,1,1105.68,740c-42.28,0-79.4-4.28-116.76-13.45A182.47,182.47,0,0,0,939,720h-3.55a68.62,68.62,0,0,0,4.36-18.58,67.71,67.71,0,0,0-2.47-26.21h0c12.62,1.2,15.53,20.37,16.2,30a239.37,239.37,0,0,0-8.17-54.06C942.18,639,940.86,637,940.86,637c-5.57-15.85-18.18-25.56-23.37-29-.78-.46-1.55-.94-2.3-1.44,0,0,.87.48,2.3,1.44h0c21.64,12.81,54.12,12.2,54.28,12.2-.31-.13-67.56-28-117.61-65.31-31.67-23.61-79.46-66.77-79.46-66.77h0c18.75-4.41,51.26,7.77,51.32,7.79-12.15-23.65-61.8-36.48-61.8-36.48h0c19.83-3.3,58.21,9.9,58.32,9.94-.11-.11-23.08-23.18-54.46-26.49s-44.33-25.15-44.33-25.15c-39.86-49.19-74.63-52.58-114.49-51-27.41,1.09-30.36-14.1-29.53-23.7a33.7,33.7,0,0,1,1.54-7.57c-22,20.35-23.75,31.27-23.75,31.27A66.32,66.32,0,0,1,557.44,353Zm6.73,237.53s-3,4.39-7,4.62c-2.34.13-6,.28-6.83-5.6a9.72,9.72,0,0,1,.65-4.8c14.52-38.69,47-67.89,88.08-73.86,29.23-4.25,57.62,4,80.55,21h0l.16.12h0a13.75,13.75,0,0,1,5.13,9c1,7.14-3.43,13.7-10,14.66a12.32,12.32,0,0,1-1.61.1v0a87.58,87.58,0,0,0-37,7.47s-20.74,8.61-36.26,33.5c-3.86-26.28,14-44.11,32.36-53.5C635.68,533.74,590.19,552.92,564.17,590.53Zm17.57,713.59.08.05c.69.5,1.39,1,2.09,1.48h0l1.5,1.06h.06l1.11.79,1,.72.5.36.66.47.45.32.41.29,1.68,1.21h0l1.62,1.16,2.18,1.59h.06l.19.14.1.07,1.2.87h0l1.89,1.38.51.38.28.21-.34-.25-2.36-1.73h0l-1.21-.87-.3-.22-2.22-1.61h0l-.21-.15-1.38-1-2.14-1.54-.68-.48-.93-.67-1.5-1.07-.66-.46-1.53-1.09-1.36-1-.83-.59-.26-.18Zm-1.49-1h0l.84.59-.86-.61-1.1-.77Zm-6.79-4.73.31.22,2.79,1.93h0l1.22.85.09.06.33.23-.32-.22-.82-.57-.52-.36-1.54-1.07-1.43-1-.4-.28Zm-4.14-2.84h0l3.55,2.43h.06l-.08-.06-3.6-2.47-.4-.27Zm-1.54-1.06.27.19.1.07.59.4-.52-.36-.1-.06-.77-.53-1.6-1.09h0c.66.4,1.34.89,2,1.33Zm-3.51-2.38,1.19.8.26.18h0l-1.11-.75-.31-.2h-.07l-.78-.52Zm-5.75-3.86h0l1.65,1.1.39.27h0l.21.14,1.26.84h0l.32.21-.35-.23h0l-.34-.22-1.13-.76-2.1-1.4-.85-.57Zm-1.51-1h0l.11.07.36.24-.49-.33-.35-.23Zm-2-1.33,1.09.72.21.14c-.42-.29-.85-.57-1.27-.84h0l-.21-.14Zm-16.27-10.51.93.59h0l.57.36,2.82,1.79h0l.4.26.2.13.21.13.08.06c.77.49,1.53,1,2.29,1.47l.25.16,1.2.77h0l.09,0h0l2.13,1.38h0l1.37.89h.05l.92.61,1.11.73,1,.68-1-.68-2.09-1.37-.42-.27-1-.66-1.29-.84-.93-.6-1.24-.81-2.78-1.78-.67-.43-2.78-1.76-.35-.23-.25-.16h0l-.65-.41-.36-.23ZM533,1271.8l2,1.25,1,.64.28.18h0l2.18,1.38h.07l-2.28-1.43L535,1273l-1.63-1-.41-.26h0l-.15-.09Zm-3.37-2.08h0l1.12.69.78.48h0l.45.27-.35-.21a.57.57,0,0,0-.13-.08L530,1270l-.4-.25h0l-.57-.35Zm-1.38-.84.74.45-.73-.44-1.33-.82Zm-3.28-2,1.22.74.12.07h0l.36.22h0l-.33-.2-.52-.31-.84-.51h0l-.31-.19Zm-3.41-2,.17.09.8.49.51.3,1.29.78.26.15-1.51-.91h0l-.83-.5-.45-.26-.68-.41-.27-.16Zm-10-5.88.45.26.29.16h0l2.45,1.42.65.37.84.49,2,1.2.26.15,1.13.67h0l.1.06.58.34-.66-.39-1.14-.67-2.45-1.44h-.06l-.16-.1-.5-.28c-.71-.42-1.41-.83-2.12-1.23l-1-.57-.79-.46Zm-3.56-2H508l.56.32.55.31h0l2.1,1.2h0l-2.14-1.22H509c-.35-.21-.71-.4-1.06-.6l-.47-.27-.86-.48Zm-7.79-4.32,1.72.94h0l1.19.66h0l.67.37,1.08.6h0l.21.12,1,.54.24.14-.24-.14-1.23-.68-1.77-1-.28-.16-1-.53h-.06l-1.65-.91-.53-.28Zm-1.26-.68h0l.12.07-.13-.07-.4-.22Zm-7.72-4.09h.05l.59.31.34.17,1,.54h0l.32.17.74.39,1.31.69.45.24h0l1.14.61h0l.42.23-.44-.24-1.16-.62-1.79-.94h0l-.26-.13c-.26-.14-.52-.28-.79-.41h0l-1.26-.65-.77-.4h0Zm-.78-.4.69.36-.7-.36-1.31-.67Zm-2.73-1.39h0l.51.26-.52-.26Zm-24-10.87.75.29h0l1.77.71.45.18,2.27.94.71.31,1.63.7.94.41,1.06.46.4.18h0l.88.4h.13l1.46.66h0l.41.19.63.29h0l.7.32.77.37,1,.46h.09l.54.25,1,.48.78.37.27.13h0l1.64.81h0l.52.25.4.2h0l.23.11,1.78.9h0l.41.21-.49-.25-2-1h0l-.21-.1-.73-.36h0l-1.68-.82-.5-.24-.53-.26h0l-.22-.1-1.31-.63h-.1l-1-.45-1.44-.67h0l-1.06-.49-1.45-.66-.46-.21-.55-.24-1.49-.66-.91-.4-1.67-.72-.67-.28-2.28-1-.41-.16-1.81-.73-.78-.3h0Zm-24.81-5.9h0Zm-7.55,7.3v0a1.31,1.31,0,0,1,0,.28,1.83,1.83,0,0,0,0-.33Zm.19,1.53a3.81,3.81,0,0,0-.07-.47v0a1.08,1.08,0,0,0,.07.46,4.41,4.41,0,0,1,.14.62c-.07-.26-.12-.47-.16-.67Zm.17-4.72a1.7,1.7,0,0,1-.1.37h0a1.21,1.21,0,0,1,.1-.36c0-.12.08-.18.12-.28a.44.44,0,0,0-.14.22Zm.7,7.83c-.08-.22-.15-.43-.22-.64.07.21.14.42.22.64l.06.16ZM433,1243l-.12-.3.12.3c0,.07.07.14.1.22S433,1243.08,433,1243Zm1.32,2.78h0v0Zm1.42,2.59c-.07-.13-.13-.25-.21-.37.08.12.14.25.22.37Zm.24.4-.22-.38.21.38.15.23Zm.95,1.57-.1-.17.1.17.59.92c-.2-.26-.4-.6-.59-.91Zm2.16,3.3-.22-.33-.13-.2.13.2.22.33.35.5Zm-4.79-23.29h0a26.31,26.31,0,0,1,5.95.16,26.9,26.9,0,0,0-5.95-.15Zm6.07-1.15h0Zm3.83,31.39-.14-.19.14.19Zm3.14,3.91c-.5-.6-1-1.2-1.46-1.79l-.15-.19-.63-.8.63.8.15.19,1.46,1.79.06.08Zm-.76-34.59h0l-.27-.05-.34-.06-.91-.16-.62-.09-.84-.11-.6-.07h0l.59.07H444l.49.07h.6l.92.16.34.06.28,0h.2l.84.17Zm2.56,36.74-.12-.13-.3-.37c.1.13.2.25.31.37l.1.13.51.59c-.17-.18-.34-.38-.5-.58Zm3.47,4-1.74-2h0c.57.66,1.15,1.33,1.75,2h0Zm.78-39.08-.7-.2-.54-.16-.57-.16-1.74-.45-.21,0,.2,0h0l1.73.45.59.17.53.15.7.2h0Zm1.13,41.22-.68-.76.68.76Zm2,2.18-.45-.5.45.49h0Zm3.61-41.18-.85-.3-.94-.33-.25-.09h0l-.29-.1-.54-.18h-.06l-1.09-.35-.8-.26-1.16-.36h0l-.69-.2h.16l.54.17,1.16.36.79.25h.05l.62.2.49.16h.09l.75.26,1.19.42.85.3.92.34.35.12.41.16.43.16.29.11,1,.39-.44-.17-.88-.33-.83-.31h0l-.83-.3ZM570,1404.2a27.2,27.2,0,0,1-2.47-1.57c.79.55,1.61,1.08,2.47,1.57.69.39,1.39.74,2.1,1.08C571.39,1404.94,570.69,1404.59,570,1404.2Zm14.81,3.93h-.17c.71,0,1.42,0,2.12-.07C586.11,1408.11,585.46,1408.13,584.81,1408.13Zm8.32-58.81a30,30,0,0,0-34.34,14c-.17.31-.33.62-.49.93-40.58-30.65-74.92-60.75-97.64-84.74L462,1281l.77.81c30.64,4.78,79.61,17.53,139.73,51.08Zm146.73,107.19a5.76,5.76,0,0,1-1,2.58c-1.39,1.87-4,2.77-7.67,2.77-19.21,0-67.64-24.57-124.56-63.07-.52.55-1.06,1.07-1.62,1.57a21.73,21.73,0,0,0,1.62-1.57,30,30,0,0,0-1.11-42.41l0-.05,9.38-16.46,4.57-8q-5.1-4-10.37-7.91l-1-.74h0l-3.36-2.51-.32-.24-.07-.06h0l-.07-.06-.67-.49.46.34-.07,0-1.43-1.06-2-1.44-.29-.22.28.21h0l3.19,2.36.36.26.18.13h0l3.73,2.77h0l.49.37.6.45,1.12.85.15.1.94.71,1.42,1.07,1.21.92,1.07.8c.64.5,1.29,1,1.94,1.48l.49.38a1.09,1.09,0,0,1,.17.13l.84.64.94.72h.06l.11.08,1.62,1.25,1.41,1.09,1.36,1,.39.31.65.5.49.38c.39.3.78.6,1.16.91l2.32,1.81.81.63.33.26.06,0,.39.3.09.08,2.8,2.21,1,.75,1.56,1.25.33.26.84.67,1.71,1.37.15.12h0l.21.17,3.47,2.8.3.24.4.33h0l-.08-.06-1.77-1.43-3.75-3-2.15-1.71-.83-.66-2.92-2.32-2-1.54-5-3.94-1.32-1-.57-.43-3.59-2.76h0l-4.57,8a646.78,646.78,0,0,1,71.61,49.36c3.11,2.46,6.23,5,9.37,7.53-.15-.16-.31-.31-.47-.46q-1.77-1.71-3.6-3.44l-.5-.48-4.23-4-1.11-1-3.4-3.13-1.23-1.12q-2.24-2-4.54-4.1l-.18-.15c-1.51-1.35-3-2.72-4.6-4.08l-1-.9-3.63-3.16-1.73-1.5h-.06q-2.12-1.83-4.29-3.67l-1.4-1.2c-1.61-1.36-3.24-2.74-4.89-4.12h0l-.16-.13-.55-.46-4.5-3.74-1.55-1.28-4.62-3.77-.12-.09h0l.1.07.18.15a107.19,107.19,0,0,1-21.47-24,96.2,96.2,0,0,1-7.83-14.86h0c-21.46-51.14,2.94-117.07,39.8-180.73h0c2.6-4.51,5.29-9,8-13.48,14.56,11.35,32.57,25,51.28,38.15,26.64,18.75,34,35.62,35.18,38.66l.22,1.11v-.31c1,3.34,11.19,33.43,48.28,61.92q4,3.08,8.24,6C775.65,1325.11,748,1403.78,739.86,1456.51Zm668.24-312.78v.08c2,3.48,3.83,7,5.59,10.65l.08.16q2.64,5.43,5,11.06v.06q3.51,8.52,6.28,17.44h0c.42,1.37.83,2.75,1.23,4.13v.16l.07.24c.36,1.28.72,2.56,1.06,3.85a2.15,2.15,0,0,0,.14.54c.34,1.29.66,2.58,1,3.88a2.33,2.33,0,0,0,.1.44c.5,2.09,1,4.19,1.41,6.32a2.3,2.3,0,0,0,.1.51c.44,2.11.84,4.24,1.2,6.37a4.58,4.58,0,0,0,.14.81c.19,1.16.38,2.33.56,3.5a6.1,6.1,0,0,0,.14.94v.37q.22,1.5.42,3c.07.5.13,1,.19,1.52.12,1,.23,1.93.34,2.9.06.53.11,1.06.17,1.59.1,1,.19,1.94.27,2.92,0,.29.06.59.08.88l.06.67c.09,1.06.16,2.12.23,3.18l.09,1.29c.09,1.5.17,3,.23,4.51q.23,6.63.22,13.3c0,132.44-59.34,257.22-151.53,316.75a218.6,218.6,0,0,1-48.35,23c-.72.24-1.43.47-2.15.69-6,1.9-12,3.51-18.17,4.86-1.52.33-3,.64-4.58.94q-5.61,1.1-11.37,1.93c-2.7.39-5.42.73-8.18,1q-8.25.9-16.84,1.33c-5.74.29-11.6.42-17.62.42h-5.36l-2.36-.07-1.89-.08-1.79-.09-2.25-.14-1-.07h0c-2.13-.15-4.26-.33-6.38-.56h-.18c-2.09-.21-4.18-.46-6.25-.74h0q-3.78-.51-7.5-1.15h-.18q-5.5-1-10.89-2.2h-.14c-1.16-.27-2.33-.55-3.49-.84l-1.27-.33-2.32-.61c-1.19-.32-2.38-.65-3.56-1h-.08l-2.26-.68-.79-.24-.71-.22-2.7-.86-1-.34-1.72-.59-.78-.26-1.19-.42-2.36-.86-1.3-.48-2.25-.87-1.37-.54-1-.4-1.19-.48-1.38-.58-2.15-.92-1.28-.57-2.25-1c-20.86-20.39-46.33-61.39-54.54-127-11.93-95.28,146.31-239.06,146.32-239.06a26.85,26.85,0,0,0,3-2.2,24.91,24.91,0,0,0,2-1.84l.07-.06a26,26,0,0,0,7.33-18.14c0-14.42-11.83-24.89-26.26-24.89a22.2,22.2,0,0,0-9.63,2,16.42,16.42,0,0,0-4.83,3.47c-.54.48-1.08,1-1.63,1.43l-.45.39-1.29,1.11-.42.35-1.7,1.39-.28.23-1.46,1.16-.51.4-1.42,1.09-.39.3-1.78,1.32-.46.33-1.41,1-.57.4c-.54.38-1.09.75-1.64,1.12a2.2,2.2,0,0,1-.25.17c-.62.42-1.24.83-1.88,1.24l-.59.38-1.41.89-.61.37c-.64.4-1.29.79-1.94,1.17l-.34.2-1.68,1-.67.38-1.51.82-.59.32c-.67.35-1.35.71-2,1l-.56.28-1.59.78-.72.34-1.7.79-.48.22q-1,.48-2.13.93l-.69.29-1.6.65-.74.29c-.7.28-1.42.55-2.13.81l-.3.11-2.09.73-.75.26-1.7.55-.7.22-2.32.68-.53.15-1.91.51-.78.2-1.9.46-.58.13-2.44.52-.67.13-1.91.35-.78.13q-1.14.19-2.31.36h-.25c-.85.12-1.71.23-2.57.33l-.75.08-2,.2-.74.06c-.88.07-1.76.14-2.65.19h-.36l-2.35.1h-6.63l-2.2-.08h-.86l-1.86-.12-.89-.07-2.06-.19-.65-.07c-.9-.09-1.81-.2-2.72-.32l-.57-.08c-.72-.1-1.46-.2-2.19-.32l-.89-.14c-.66-.1-1.31-.22-2-.34l-.88-.16c-.78-.14-1.55-.3-2.33-.46l-.5-.1c-.94-.2-1.89-.41-2.85-.64l-.69-.17c-.73-.17-1.46-.36-2.19-.55l-.94-.25-2.06-.57-.9-.26c-.87-.25-1.73-.52-2.6-.79l-.33-.11c-1-.31-2-.64-3-1l-.84-.29-2.16-.77-1-.39c-.7-.26-1.41-.53-2.11-.81l-1-.37c-1-.4-2-.82-3-1.24h0c-15.52-6.61-22.93-13.26-25.83-19.24l.12-.1-.12.11c-3.77-8.12.39-14.91,4.17-19h0a19.61,19.61,0,0,1,1.52-1.51c.73-.68,1.4-1.23,1.93-1.64.73-.57,1.19-.87,1.19-.87l5.06-3.67,48.48-35.16,33.44-24.24A270.78,270.78,0,0,1,1228,1046.15c2.78,0,5.56,0,8.32.13,1.67,0,3.34.12,5,.2l1.46.07,3.87.24,1.31.09c1.65.12,3.31.25,5,.4l1,.09,4.08.42,1.49.16c1.35.16,2.7.32,4,.5l1,.12c1.63.22,3.25.45,4.87.7l1.27.2c1.25.19,2.5.4,3.75.61l1.41.25c1.61.28,3.22.58,4.82.89q5.89,1.15,11.7,2.56c1.79.47,3.57,1,5.33,1.49l1.16.35q2.61.78,5.16,1.63l.71.24c1.55.53,3.1,1.08,4.63,1.64l1,.36c1.67.63,3.33,1.27,5,1.94l1,.4c1.52.64,3,1.28,4.55,2l.58.26q2.46,1.11,4.86,2.28l1,.49q4.89,2.42,9.6,5.09l.91.51c1.55.9,3.1,1.81,4.62,2.75l.48.3c.83.51,1.65,1,2.47,1.57h0c.59.38,1.2.75,1.79,1.14l.67.44,1.58,1.09c.52.35,1,.7,1.55,1.06s.89.59,1.32.9l.65.47c.71.5,1.4,1,2.1,1.53.29.22.59.42.88.63-.29-.21-.59-.41-.88-.63.72.53,1.45,1,2.16,1.59l.21.16c1.46,1.11,2.91,2.24,4.33,3.39l.65.53q4.3,3.49,8.39,7.25l.52.48c1.37,1.27,2.72,2.55,4,3.86l.14.13c1.32,1.31,2.63,2.63,3.92,4l.26.27c1.31,1.37,2.59,2.76,3.86,4.17l.28.31q3.84,4.28,7.4,8.79l.28.36q3.6,4.53,6.89,9.31l.19.26Q1403.68,1135.88,1408.1,1143.73Zm-79.95-76.47q4.14,2.06,8.13,4.31Q1332.29,1069.32,1328.15,1067.26Zm-79.9-316.7a101.29,101.29,0,0,1,13.31-2.92c1.48-.22,3-.41,4.48-.57,2.24-.23,4.49-.39,6.77-.48,1.29-.05,2.59-.07,3.9-.07,38.31,0,71.34,21.15,86.61,51.69h0l-.13-.3L1375,820.8h0l18.32,35.63a202.26,202.26,0,0,1,22.45,91.77,199.89,199.89,0,0,1-37.1,115.8q-6.57-5.18-13.51-9.83a215.22,215.22,0,0,0-65.15-29.34l-.29-.07-.28-.07a302.85,302.85,0,0,0-238.9,42.25l-.48.32-.47.34L977.67,1127l-4.7,3.41a59.76,59.76,0,0,0-13.71,13.41,49,49,0,0,0-8.21,17.73,619.42,619.42,0,0,1-151.93-52.13c-34.64-17.29-58.24-51.52-58.24-90.92a97.19,97.19,0,0,1,3.44-25.67l42.13-132.71c9.75-34.58,32.48-64.2,63-84h0q2.28-1.47,4.62-2.88l.34-.21c1.51-.9,3-1.77,4.58-2.62l.48-.27c1.54-.85,3.08-1.66,4.65-2.46l.46-.23c1.6-.8,3.21-1.59,4.84-2.34l.25-.11q5.05-2.32,10.3-4.32l.34-.13c1.68-.62,3.34-1.22,5-1.8l.62-.21c1.66-.55,3.32-1.08,5-1.58l.7-.21q2.55-.75,5.1-1.42l.6-.15c1.77-.45,3.54-.88,5.33-1.28h.24q2.73-.6,5.48-1.11l.29,0c1.79-.33,3.6-.62,5.42-.89l.71-.11c1.75-.25,3.51-.48,5.28-.67l.88-.1c1.76-.19,3.53-.35,5.3-.48l.85-.06q2.73-.2,5.46-.3h.62c1.92-.06,3.85-.1,5.79-.1a153.17,153.17,0,0,1,42.37,5.63c40.52,10,80.43,14.41,124.29,14.41A529.13,529.13,0,0,0,1248.25,750.56Zm-50.94-250.85c-.2-20.36-2.08-64.87-6.35-82.34,31.61-26.65,104.34-63.1,245.31-22.16C1381,381.3,1220.06,354,1197.31,499.71Zm29.84,105.48c-5-68.54,22.14-77.17,22.14-77.17-5,20.22,22.25,46.56,22.25,46.56-8.48-36.6,22.35-79.17,22.35-79.17C1283,518,1298.2,533,1298.2,533c15.24-66,66.77-71.23,66.77-71.23,54.7-6.34,81.58-40.32,91.35-59.53,9,10.41,66.67,87.14-78.91,207.5,0,0-37.83,42.55-121.2,49.39C1229.38,637.26,1227.15,605.19,1227.15,605.19Z"/><path class="cls-1" d="M1165.3,1466.79s-40.14-7-38.23,20c1,14,25.15,12.62,25.15,12.62,164.12,0,141.67-275.66,141.67-275.66C1266.94,1488.62,1168.92,1467.08,1165.3,1466.79Z"/><path class="cls-1" d="M1091,830.8c-29.14,20.75.06,44.23,6.55,47.13,9.53,4.28,16.53,15.91,16.53,15.91,20.85,46.88,7.12,113.81,7.12,113.81s-16.79,46.27,5.88,9c14.5-23.86,2.84-125.28,2.05-137.71-.72-11.44-4.51-29.77-15.37-42.89C1103.2,823.29,1091,830.8,1091,830.8Z"/><path class="cls-1" d="M965,842.92l-48.46-22.7h0a9.37,9.37,0,0,0-4-.92c-4.85,0-8.78,3.66-8.78,8.18a8,8,0,0,0,3.19,6.3l39,24.71a23.09,23.09,0,0,1,9.88,19.4,19.91,19.91,0,0,1-1.92,9.3c-12.26,23.32-38,39.37-67.76,39.37-1.77,0-3.52,0-5.26-.15h-.87c-9.68,0-17.52,7.3-17.52,16.31a14.46,14.46,0,0,0,3.09,9.24c14.36,17.5,37,28.79,62.49,28.79,43.41,0,78.6-32.76,78.6-73.18C1006.67,879.55,989.78,855.23,965,842.92Z"/><path class="cls-1" d="M604.16,1320.32l-.21-.15.15.11Z"/></g></g></g></svg>