<?xml version="1.0" encoding="utf-8"?>
<!-- Generator: Adobe Illustrator 23.0.1, SVG Export Plug-In . SVG Version: 6.00 Build 0)  -->
<svg version="1.1" id="Layer_1" xmlns="http://www.w3.org/2000/svg" xmlns:xlink="http://www.w3.org/1999/xlink" x="0px" y="0px"
	 viewBox="0 0 801.9 579.9" style="enable-background:new 0 0 801.9 579.9;" xml:space="preserve">
<style type="text/css">
	.st0{fill:#282828;}
</style>
<title>gilliane-gignac_1</title>
<path class="st0" d="M217.5,512.6c-4.2-0.8-8.4-1.6-12.6-2.4c-6.3-1.3-12.5,2.8-13.9,9.1c-1.8,8.9-3.7,17.7-5.5,26.6
	c-1.3,6.3,3.1,12.5,9.8,13.8c4.4,0.9,8.8,1.7,13.2,2.5c6.7,1.2,13-3,14.1-9.3c0.8-4.8,1.6-9.6,2.5-14.4c-6.1-1-12.2-2.1-18.3-3.3
	l-1,5.1c4.4,0.8,8.8,1.6,13.1,2.4c-0.5,3.1-1.1,6.2-1.6,9.3c-0.7,3.6-4.2,5.9-7.8,5.2l0,0c-4.4-0.8-8.8-1.6-13.2-2.5
	c-3.6-0.6-6.1-4.1-5.4-7.7l0,0c1.8-8.9,3.6-17.8,5.4-26.6c0.8-3.5,4.2-5.8,7.8-5.1c4.2,0.8,8.5,1.6,12.7,2.4c3.6,0.6,6,4,5.4,7.6
	l-0.7,3.8l5.2,0.9c0.2-1.2,0.4-2.5,0.6-3.8C228.2,519.7,223.9,513.7,217.5,512.6z"/>
<path class="st0" d="M576.8,539.5c-6.1,1-12.2,2-18.4,2.9l0.8,5.1c4.4-0.7,8.8-1.3,13.2-2c0.5,3.1,1,6.2,1.5,9.4
	c0.5,3.6-2.1,7-5.7,7.5l0,0c-4.4,0.7-8.8,1.3-13.2,1.9c-3.6,0.6-7.1-1.9-7.6-5.5l0,0l-3.6-26.9c-0.4-3.6,2.1-6.9,5.7-7.3
	c4.3-0.6,8.5-1.2,12.8-1.9c3.6-0.6,6.9,1.8,7.5,5.4c0.2,1.2,0.4,2.5,0.6,3.8l5.2-0.8c-0.2-1.2-0.4-2.5-0.6-3.7
	c-1.1-6.4-7.1-10.7-13.5-9.7c-4.2,0.7-8.5,1.3-12.7,1.9c-6.4,0.9-10.9,6.7-10.2,13.1c1.2,9,2.3,18,3.5,27c0.8,6.4,7,10.9,13.7,9.9
	c4.4-0.6,8.9-1.3,13.3-2c6.7-1,11.3-7.1,10.3-13.4C578.4,549.2,577.6,544.4,576.8,539.5z"/>
<path class="st0" d="M265.2,520.1c-4.2-0.6-8.5-1.2-12.7-1.8c-6.4-1-12.4,3.4-13.4,9.7c-0.7,4.1-1.3,8.2-2,12.4l-0.8,5.1
	c-1.1,7-2.2,13.9-3.3,20.9l5.4,0.8c1.1-7,2.2-13.9,3.2-20.9c8.8,1.3,17.6,2.6,26.4,3.7l-2.7,21l5.4,0.7c0.9-7,1.7-14,2.6-21l0.6-5.1
	c0.5-4.2,1-8.3,1.5-12.4C276.2,526.8,271.6,521,265.2,520.1z M270.2,532.5c-0.5,4.1-1.1,8.3-1.6,12.4c-8.8-1.1-17.5-2.4-26.3-3.7
	c0.7-4.1,1.3-8.2,1.9-12.4c0.6-3.6,3.9-6,7.5-5.5c4.2,0.6,8.5,1.2,12.8,1.8C268.1,525.7,270.7,529,270.2,532.5L270.2,532.5z"/>
<path class="st0" d="M519.9,523c1.9,16.7,3.8,33.4,5.6,50.2l5.4-0.6l-5.9-50.1L519.9,523z"/>
<path class="st0" d="M330.4,538.7c-0.3,3.8-0.5,7.6-0.8,11.3c0,0.2,0,0.5,0,0.7c-0.1,1.4-0.2,2.8-0.3,4.3l-0.1,0.9
	c-0.2,3.2-0.5,6.4-0.7,9.6c-0.4,6.6,4.7,12.2,11.3,12.6c0.1,0,0.1,0,0.2,0c5.4,0.3,10.7,0.6,16.1,0.8c0.1-1.7,0.1-3.5,0.2-5.2
	c-5.3-0.2-10.7-0.5-16-0.8c-3.7-0.2-6.5-3.3-6.4-7l0,0c0.2-3.2,0.4-6.4,0.6-9.6c7.5,0.5,15,0.9,22.5,1.2c0.1-1.7,0.2-3.5,0.2-5.2
	c-7.5-0.3-14.9-0.7-22.4-1.2c0-0.2,0-0.5,0-0.7c0.3-3.8,0.5-7.6,0.7-11.4c0.3-3.6,3.4-6.4,7-6.2c5.1,0.3,10.3,0.6,15.5,0.8
	c0.1-1.7,0.1-3.5,0.2-5.2c-5.1-0.2-10.3-0.5-15.4-0.8C336.5,527.2,330.9,532.2,330.4,538.7z"/>
<path class="st0" d="M446.4,573.9c-3.7,0.2-6.8-2.7-7-6.3c-0.1-3.2-0.2-6.4-0.3-9.6c7.5-0.2,15-0.6,22.5-1c-0.1-1.7-0.2-3.5-0.3-5.2
	c-7.5,0.4-14.9,0.7-22.4,1c0-0.2,0-0.5,0-0.7c-0.1-3.8-0.2-7.6-0.4-11.4c-0.1-3.6,2.7-6.7,6.4-6.8c5.1-0.2,10.3-0.4,15.5-0.7
	c-0.1-1.7-0.2-3.5-0.3-5.2c-5.1,0.3-10.2,0.5-15.4,0.7c-6.5,0.3-11.5,5.7-11.4,12.2c0.1,3.8,0.2,7.6,0.3,11.4c0,0.2,0,0.5,0,0.7
	l0.1,4.3c0,0.3,0,0.6,0,0.9l0.3,9.6c0.3,6.6,5.9,11.7,12.5,11.4c0.1,0,0.1,0,0.2,0c5.4-0.2,10.8-0.5,16.1-0.8
	c-0.1-1.7-0.2-3.5-0.3-5.2C457.1,573.4,451.8,573.7,446.4,573.9z"/>
<path class="st0" d="M409.3,529.4c-5.1,0-10.3,0-15.4,0c-0.2,16.8-0.3,33.7-0.5,50.5c5.4,0.1,10.8,0.1,16.1,0
	c6.6,0.1,12-5.2,12.1-11.8c0-0.1,0-0.1,0-0.2c-0.2-9-0.3-17.9-0.4-26.9C421.1,534.6,415.8,529.4,409.3,529.4z M409.5,574.7
	c-3.5,0-7.1,0-10.6,0c0.1-13.3,0.1-26.7,0.2-40h10.3c3.6,0,6.6,2.9,6.6,6.5c0.1,9,0.2,17.9,0.3,26.9
	C416.3,571.8,413.3,574.7,409.5,574.7C409.6,574.7,409.5,574.7,409.5,574.7z"/>
<path class="st0" d="M609.9,508.9l7.5,37.3c-9.8-11-19.4-22-28.7-33.2l-4.1,0.7c2.9,16.6,5.8,33.1,8.8,49.7c1.8-0.3,3.6-0.6,5.4-1
	c-2.3-12.5-4.5-24.9-6.8-37.4c9.4,11.2,19.1,22.2,29,33.2l4.2-0.9c-3.4-16.5-6.8-33-10.2-49.5L609.9,508.9z"/>
<path class="st0" d="M302.1,544.5c-3.2-7-6.3-14-9.3-21l-4.1-0.5c-1.9,16.7-3.7,33.5-5.6,50.2l5.4,0.6c1.3-12.6,2.7-25.2,4-37.8
	c2.8,6.4,5.6,12.7,8.5,19c4.1-5.7,8.1-11.3,12-17c-1.1,12.7-2.2,25.3-3.3,37.9c1.8,0.2,3.6,0.3,5.4,0.5c1.4-16.8,2.7-33.5,4.1-50.3
	l-4.1-0.3C310.9,532,306.6,538.2,302.1,544.5z"/>
<path class="st0" d="M504.4,553.2c-7.6-3-15.1-6.1-22.6-9.3c-2.2-1-3.6-3-3.8-5.4c-0.2-3.6,2.5-6.7,6.1-7c4.3-0.3,8.6-0.7,12.9-1.1
	c3.6-0.3,6.8,2.3,7.2,5.9l0.2,2.6l5.2-0.5c-0.1-0.9-0.2-1.7-0.2-2.6c-0.7-6.4-6.4-11.1-12.8-10.5c-4.3,0.4-8.5,0.7-12.8,1.1
	c-6.4,0.5-11.3,6-10.9,12.5c0.3,4.3,2.9,8,6.9,9.8l0,0l0.2,0.1l0,0c7.5,3.2,15.1,6.3,22.8,9.4c2.2,0.9,3.8,2.9,4,5.3
	c0.3,3.6-2.5,6.8-6.1,7.1c0,0,0,0-0.1,0c-4.5,0.4-8.9,0.8-13.4,1.1c-3.6,0.4-6.9-2.3-7.2-5.9c0,0,0,0,0-0.1l-0.2-2.6l-5.4,0.4
	c0,0.8,0.1,1.7,0.2,2.6c0.4,6.4,6.2,11.3,13,10.8c4.5-0.3,8.9-0.7,13.4-1.1c6.8-0.6,11.7-6.4,11.1-12.8
	C511.4,558.4,508.5,554.7,504.4,553.2z"/>
<rect x="244.8" y="481" class="st0" width="319.7" height="3"/>
<path class="st0" d="M609,94.6c0-1.1-0.1-2.1-0.4-3.1C607,40.8,565.2,0,514.1,0c-9.5,0-18.9,1.4-27.9,4.2c-0.5,0.1-1,0.3-1.4,0.5
	c-27.1,8.2-55.2,12.4-83.7,12.4c-29.5,0-58.5-4.5-86.3-13.2c-0.5-0.2-1-0.3-1.5-0.4C304.9,1.2,296.4,0,287.7,0
	c-51.5,0-93.6,41.5-94.6,92.8c-0.1,0.6-0.1,1.2-0.1,1.8V250c0,0,0,0,0,0.1l0,0c0,30,24.4,54.5,54.5,54.5c20,0,38.3-10.9,47.8-28.3
	c0.1-0.1,0.1-0.2,0.2-0.3l18.6-33.7c17.6-31.7,50.6-51.4,86.4-51.4c36.3,0,69.8,19.7,87.4,51.6c0.2,0.3,0.3,0.5,0.5,0.8l17.3,31.3
	c0.2,0.4,0.4,0.8,0.6,1.2c9.5,17.8,28,28.8,48.1,28.8c29.5,0,53.6-23.5,54.5-52.7c0.1-0.6,0.1-1.3,0.1-1.9L609,94.6L609,94.6z
	 M221.8,250.1L221.8,250.1c0-0.1,0-0.1,0-0.1v-86.7c24.9,24.1,48.3,37.3,63,37.8c-12.5,25.9-24.4,55.1-31.9,74.1
	c-1.8,0.4-3.6,0.6-5.4,0.6C233.3,275.8,221.8,264.3,221.8,250.1z M400.5,162c-16.4,0-32.2,3.2-47,9.1l18-32.5c0.3-0.5,0.5-1,0.7-1.5
	c6.4-12.8,10.1-27.2,10.1-42.5c0-7.9-6.4-14.4-14.4-14.4h-71.1c-7.9,0-14.4,6.4-14.4,14.4c0,7.1,5.2,13.1,12,14.2h-0.2l36.9,7.8
	c-4.7,37.4-42.9,43.7-43.5,43.8c-36.3,0-65.7-29.5-65.7-65.8s29.5-65.8,65.8-65.8c6.3,0,12.4,0.9,18.3,2.6h0.1
	c0.5,0.2,1.1,0.3,1.6,0.5c0.2,0.1,0.5,0.1,0.7,0.2h0.1c29.9,9.1,60.9,13.8,92.5,13.8c32,0,63.6-4.8,94-14.2c0.4-0.1,0.7-0.3,1.1-0.4
	c5.9-1.6,12-2.5,18.1-2.5c0.7,0,1.4,0,2,0.1c25.8,13.3,43.4,40.2,43.4,71.2l-0.2,42.3c-11.8,11.2-27.7,18-45.2,18
	c-31.3,0-57.6-22-64.2-51.4h47.6c7.9,0,14.4-6.4,14.4-14.4c0-7.9-6.4-14.4-14.4-14.4H434c-7.7,0-14.1,6.1-14.4,13.8
	c-0.8,6.8-1.8,29.3,12.1,71.9C421.6,163.4,411.1,162,400.5,162z M532.3,263.3c-0.2-0.4-0.4-0.9-0.7-1.3l-42.1-76.1
	c7.9,2.1,16.2,3.3,24.7,3.3c16.3,0,31.6-4.1,44.9-11.4l-0.5,97.6c-1.4,0.2-2.8,0.4-4.3,0.4C545.3,275.8,537,271.1,532.3,263.3z"/>
<g>
	<path class="st0" d="M342.4,354.7c-0.3,0-0.4-0.1-0.6-0.1c-4.7,0-9.4,0-14.2,0c-0.4,0-0.7,0.2-1,0.4c-2.2,1.4-4.3,2.9-6.4,4.3
		c-0.5,0.3-0.7,0.7-0.7,1.3c0,6.2,0,12.5,0,18.7c0,0.3,0,0.6,0,0.9c-0.1,0-0.1,0-0.2,0c-5.1-8.6-10.1-17.2-15.2-25.8
		c-4,0-8.1,0-12.1,0c-0.2,0.2-0.4,0.4-0.7,0.6c-2,1.4-4,2.8-6.1,4.1c-0.6,0.4-0.8,0.8-0.8,1.4c0,24.3,0,48.5,0,72.8c0,0.3,0,0.6,0,1
		c5.1,0,10,0,14.9,0c0.3,0,0.7-0.2,1-0.4c2.1-1.4,4.2-2.9,6.4-4.3c0.5-0.3,0.7-0.7,0.7-1.4c0-6.1,0-12.2,0-18.4c0-0.3,0-0.6,0-1.1
		c0.3,0.5,0.5,0.7,0.6,1c4.7,7.9,9.3,15.9,14,23.8c0.3,0.5,0.6,0.7,1.2,0.7c3.6,0,7.1,0,10.7,0c0.4,0,0.9-0.2,1.3-0.4
		c2.1-1.4,4.2-2.8,6.3-4.2c0.6-0.4,0.8-0.7,0.8-1.4c0-24.2,0-48.4,0-72.6C342.4,355.3,342.4,355,342.4,354.7z M338.1,424.9
		c-1.8,0-3.5,0-5.3,0c-0.2,0-0.5-0.4-0.6-0.6c-5.6-9.5-11.2-19.1-16.8-28.6c-3.9-6.6-7.7-13.1-11.6-19.7c-0.1-0.2-0.2-0.4-0.5-0.8
		c0,16.6,0,33.1,0,49.6c-2.3,0-4.6,0-6.9,0c0-22,0-44,0-66.1c1.7,0,3.3,0,4.9,0c0.2,0,0.6,0.4,0.7,0.7c3.5,5.9,6.9,11.7,10.4,17.6
		c6.1,10.4,12.2,20.8,18.3,31.2c0.1,0.2,0.2,0.4,0.4,0.6c0.1,0,0.1,0,0.2,0c0-16.6,0-33.2,0-49.8c2.3,0,4.5,0,6.8,0
		C338.1,380.9,338.1,402.8,338.1,424.9z"/>
	<path class="st0" d="M660.5,354.7c-0.3,0-0.4-0.1-0.5-0.1c-4.8,0-9.6,0-14.3,0c-0.4,0-0.7,0.2-1,0.4c-2.1,1.4-4.2,2.9-6.4,4.3
		c-0.5,0.3-0.7,0.7-0.7,1.3c0,6.3,0,12.5,0,18.8c0,0.3,0,0.6,0,0.9c-0.3-0.2-0.5-0.5-0.6-0.7c-3.7-6.2-7.3-12.4-10.9-18.6
		c-1.3-2.1-2.5-4.3-3.7-6.5c-4,0-8.1,0-12.1,0c-2.2,1.5-4.5,3.1-6.8,4.6c-0.6,0.4-0.8,0.7-0.8,1.4c0,24.3,0,48.5,0,72.8
		c0,0.3,0,0.6,0,0.9c0.2,0,0.2,0.1,0.3,0.1c4.8,0,9.7,0,14.5,0c0.3,0,0.7-0.2,1-0.4c2.1-1.4,4.1-2.8,6.2-4.2
		c0.6-0.4,0.9-0.8,0.9-1.6c0-6,0-12.1,0-18.1c0-0.3,0-0.6,0-0.9c0.4,0.3,0.6,0.7,0.8,1c4.6,7.8,9.2,15.6,13.8,23.5
		c0.3,0.5,0.6,0.7,1.3,0.7c3.6,0,7.1,0,10.7,0c0.4,0,0.9-0.2,1.3-0.4c2.2-1.4,4.3-2.9,6.4-4.3c0.5-0.3,0.7-0.7,0.7-1.3
		c0-24.2,0-48.4,0-72.6C660.5,355.3,660.5,355,660.5,354.7z M656.2,424.9c-1,0-2-0.1-3,0c-2,0.3-3-0.6-4-2.3
		c-9-15.5-18.2-31-27.3-46.5c-0.1-0.2-0.3-0.4-0.6-0.6c0,16.4,0,32.8,0,49.3c-2.4,0-4.6,0-6.9,0c0-22,0-44,0-66.1c1.7,0,3.3,0,4.9,0
		c0.3,0,0.7,0.4,0.8,0.7c3.4,5.8,6.8,11.5,10.2,17.3c6.2,10.5,12.4,21.1,18.6,31.6c0.1,0.1,0.1,0.2,0.3,0.5c0-16.7,0-33.3,0-49.9
		c2.4,0,4.6,0,6.9,0C656.2,380.9,656.2,402.8,656.2,424.9z"/>
	<path class="st0" d="M41.3,384.2c4.8,0,9.5,0,14.3,0c0.3,0,0.7-0.2,1-0.3c2.2-1.5,4.4-3,6.6-4.5c0.3-0.2,0.5-0.7,0.5-1.1
		c0.1-1.3,0-2.6,0-3.9c-0.1-8.8-5.3-16.2-13.4-18.9c-1.3-0.4-2.7-0.7-4-1c-6.9,0-13.8,0-20.7,0c-1,0.2-2.1,0.3-3.1,0.7
		c-1.9,0.8-3.8,1.5-5.5,2.5c-2.7,1.6-5.2,3.5-7.8,5.3c-4.8,3.4-7.6,8-8.4,13.8c0,0.2-0.1,0.5-0.2,0.7c0,13,0,26,0,39
		c0.1,0.2,0.1,0.4,0.2,0.6c1.3,10,9.5,17.2,19.5,17.2c5.4,0,10.8,0,16.1,0c4,0,7.6-1.1,10.9-3.3c2.3-1.5,4.6-3.1,7-4.7
		c6.2-4.1,9.3-9.8,9.4-17.2c0-7.4,0-14.7,0-22.1c0-0.3,0-0.6,0-1c-0.2,0-0.4-0.1-0.6-0.1c-8.8,0-17.6,0-26.5,0
		c-0.4,0-0.8,0.2-1.1,0.4c-2.2,1.4-4.3,2.9-6.5,4.4c-0.5,0.3-0.7,0.7-0.7,1.3c0,4.5,0,9.1,0,13.6c0,0.3,0,0.6,0,1
		c4.1,0,8.2,0,12.3,0c0,2.3,0,4.6,0,7c-0.4,0-0.7,0-1,0c-3.8,0-7.7-0.1-11.5,0c-2.7,0.1-4.5-2.1-4.5-4.5c0.1-11,0-22,0-33.1
		c0-0.3,0-0.6,0-0.9c0.2-0.1,0.3-0.1,0.3-0.1c4.3,0,8.6,0,12.9,0c1.7,0,2.9,1,3.5,2.5c0.3,0.7,0.3,1.6,0.3,2.4c0.1,1.4,0,2.7,0,4.1
		C41.1,384.1,41.2,384.2,41.3,384.2z M27.8,365.7c-4.6,0-8.3,3.7-8.4,8.3c0,11.9-0.1,23.8,0,35.6c0,5.1,4.3,8.4,8.2,8.3
		c5.6-0.1,11.1-0.1,16.7,0c4.3,0.1,8.3-3.8,8.2-8.4c-0.1-3.8,0-7.5,0-11.3c0-0.3,0-0.6,0-0.9c-4.1,0-8.1,0-12.2,0c0-2.3,0-4.6,0-7
		c0.3,0,0.6,0,1,0c5.7,0,11.5,0,17.2,0c0.8,0,1.1,0.2,1.1,1c0,6,0,12,0,18c0,7.5-4.8,13.6-12.2,15.3c-0.8,0.2-1.6,0.3-2.5,0.3
		c-5.8,0-11.5,0-17.3,0c-6.9,0-13.1-4.9-14.6-11.7c-0.3-1.1-0.4-2.3-0.4-3.5c0-12.1,0-24.2,0-36.3c0-6.5,4.8-12.5,11.1-14.1
		c1.3-0.3,2.7-0.5,4.1-0.5c5.5-0.1,11,0,16.5,0c7.4,0,14,5.8,15,13.1c0.1,0.9,0.1,1.9,0.2,2.9c-2.4,0-4.6,0-6.8,0
		c-0.2-1-0.2-2-0.5-3c-1.1-3.7-4.2-6.1-8-6.1C38.8,365.7,33.3,365.7,27.8,365.7z"/>
	<path class="st0" d="M493.7,386.1c-0.2,0-0.2-0.1-0.3-0.1c-8.9,0-17.9,0-26.8,0c-0.3,0-0.6,0.1-0.9,0.3c-2.2,1.5-4.4,3-6.7,4.5
		c-0.5,0.3-0.6,0.6-0.6,1.2c0,4.6,0,9.3,0,13.9c0,0.3,0,0.5,0.1,0.9c4.1,0,8.2,0,12.2,0c0,2.3,0,4.6,0,6.9c-0.2,0-0.3,0-0.5,0
		c-4.2,0-8.4,0-12.7,0c-0.3,0-0.5,0-0.8-0.1c-2-0.5-3.1-2.1-3.1-4.3c0-11,0-22.1,0-33.1c0-0.3,0-0.6,0-0.8c0.1-0.1,0.2-0.1,0.2-0.1
		c4.4,0,8.7-0.1,13.1,0c1.9,0,3.5,1.8,3.6,3.8c0,0.7,0,1.4,0,2.1c0,1,0,2,0,3.1c0.3,0,0.4,0.1,0.5,0.1c4.8,0,9.6,0,14.3,0
		c0.3,0,0.6-0.1,0.8-0.3c2.3-1.5,4.6-3.1,6.9-4.6c0.2-0.1,0.4-0.5,0.4-0.7c0-2.3,0.1-4.7-0.2-7c-1-8-6.6-14.4-14.3-16.5
		c-0.9-0.3-1.9-0.4-2.8-0.6c-7,0-13.9,0-20.9,0c-0.1,0.1-0.3,0.2-0.4,0.2c-2.9,0.3-5.5,1.4-7.9,2.9c-2.7,1.8-5.5,3.6-8.2,5.6
		c-5.3,3.8-8.2,9.1-8.3,15.7c-0.1,12.1-0.1,24.1,0,36.2c0.1,10.8,8.8,19.3,19.6,19.3c5.3,0,10.6,0,16,0c4.2,0,8-1.1,11.4-3.5
		c2.3-1.5,4.5-3,6.8-4.6c6-4,9.2-9.7,9.2-17c0-7.4,0-14.9,0-22.3C493.7,386.7,493.7,386.4,493.7,386.1z M478.9,424.2
		c-1.4,0.4-2.9,0.7-4.3,0.7c-5.7,0.1-11.3,0-17,0c-7,0-13.4-5.4-14.6-12.3c-0.2-1.2-0.3-2.5-0.3-3.8c0-11.5,0-23,0-34.5
		c0-4.4,1.6-8.3,4.8-11.4c2.9-2.7,6.3-4.2,10.3-4.2c5.6,0,11.3,0,16.9,0c7.2,0,13.7,5.7,14.7,12.9c0.1,1,0.2,2,0.3,3.2
		c-2.4,0-4.6,0-6.8,0c-0.2-1-0.2-2-0.5-2.9c-0.9-3.6-4.2-6.1-8-6.1c-5.5,0-11,0-16.5,0c-4.6,0-8.3,3.6-8.3,8.3c0,11.9,0,23.9,0,35.8
		c0,4.4,3.6,8.1,8,8.1c5.7,0.1,11.3,0,17,0c4,0,7.4-3.1,7.9-7.1c0.1-0.8,0.2-1.5,0.2-2.3c0-3.7,0-7.4,0-11.2c-4.1,0-8.2,0-12.3,0
		c0-2.4,0-4.6,0-6.9c6.4,0,12.7,0,19,0c0,0.3,0.1,0.5,0.1,0.8c0,6.2,0,12.4,0,18.6C489.5,416.1,485.2,422.3,478.9,424.2z"/>
	<path class="st0" d="M594.8,386.1c-0.2,0-0.3,0-0.4,0c-8.9,0-17.8,0-26.6,0c-0.3,0-0.7,0.2-1,0.3c-2.2,1.5-4.4,3-6.6,4.4
		c-0.5,0.3-0.6,0.7-0.6,1.2c0,4.6,0,9.1,0,13.7c0,0.3,0,0.6,0,0.9c4.1,0,8.2,0,12.2,0c0,2.4,0,4.6,0,7c-0.4,0-0.7,0-0.9,0
		c-3.9,0-7.7-0.1-11.6,0c-2.5,0.1-4.5-2-4.5-4.5c0.1-11,0-22,0-33.1c0-0.3,0-0.6,0-1c0.4,0,0.6,0,0.9,0c3.9,0,7.8,0,11.8,0
		c2.6,0,4.3,1.7,4.4,4.3c0,1.3,0,2.6,0,3.8c0,0.7,0.1,0.9,0.9,0.9c4.6,0,9.2,0,13.8,0c0.3,0,0.7-0.1,1-0.3c2.3-1.5,4.5-3,6.8-4.6
		c0.2-0.2,0.5-0.5,0.5-0.8c0-2.5,0.1-5-0.2-7.4c-1.2-7.6-5.6-12.9-12.8-15.6c-1.4-0.5-2.8-0.7-4.3-1.1c-6.9,0-13.8,0-20.7,0
		c-0.2,0.1-0.3,0.2-0.5,0.2c-2.9,0.3-5.5,1.3-7.9,2.9c-2.8,1.8-5.6,3.7-8.3,5.7c-5.3,3.9-8.1,9.2-8.2,15.7c-0.1,12-0.1,24,0,36
		c0.1,10.7,8.8,19.3,19.5,19.3c5.5,0,11,0,16.5,0c3.7,0,7.2-1,10.4-3.1c2.8-1.8,5.5-3.6,8.2-5.5c5.2-3.7,8.2-8.8,8.4-15.2
		c0.2-8,0.1-16,0.1-24C594.8,386.4,594.8,386.3,594.8,386.1z M590.6,409.3c0,7.3-4.5,13.3-11.4,15.2c-1.1,0.3-2.3,0.5-3.4,0.5
		c-5.7,0-11.3,0-17,0c-7.2,0.1-13.7-5.4-14.8-12.6c-0.2-1-0.3-2.1-0.3-3.2c0-11.5,0-23,0-34.6c0-7.5,4.6-13.6,11.6-15.4
		c1.1-0.3,2.3-0.4,3.4-0.4c5.6,0,11.3,0,16.9,0c7.2,0,13.6,5.5,14.7,12.6c0.2,1.1,0.2,2.2,0.3,3.4c-2.4,0-4.6,0-6.9,0
		c0-2.1-0.4-4.1-1.7-5.7c-1.6-2.1-3.8-3.3-6.5-3.3c-5.6,0-11.2,0-16.8,0c-4.4,0-8.2,3.8-8.2,8.2c0,12,0,23.9,0,35.9
		c0,4.3,3.7,8.1,8,8.1c5.7,0.1,11.4,0.1,17.1,0c4.3,0,8-3.8,8-8.1c0-4.1,0-8.1,0-12.2c0-0.1,0-0.1-0.1-0.3c-4,0-8.1,0-12.2,0
		c0-2.4,0-4.6,0-6.9c6.3,0,12.7,0,19.1,0c0,0.3,0.1,0.6,0.1,1C590.6,397.3,590.7,403.3,590.6,409.3z"/>
	<path class="st0" d="M779.9,384.2c4.5,0,9,0,13.5,0c0.5,0,1-0.2,1.5-0.5c2.3-1.5,4.6-3.1,7-4.6c0-2.4,0-4.8,0-7.1
		c-0.2-1-0.4-2-0.7-3c-2.5-8.1-7.8-12.9-16.2-14.3c-0.1,0-0.3-0.1-0.4-0.2c-7,0-13.9,0-20.9,0c-0.1,0.1-0.3,0.2-0.4,0.2
		c-2.9,0.4-5.5,1.4-7.9,2.9c-2.8,1.8-5.6,3.7-8.2,5.6c-5.3,3.8-8.2,9.1-8.2,15.6c-0.1,12.1-0.1,24.2,0,36.2
		c0.1,10.7,8.8,19.2,19.5,19.2c5.4,0,10.7,0,16.1,0c4,0,7.7-1.1,11.1-3.3c2.5-1.7,5-3.3,7.5-5c3.7-2.5,6.3-5.9,7.7-10.2
		c0.4-1.3,0.7-2.7,1-4c0-2.6,0-5.1,0-7.7c-4.8,0-9.6,0-14.4,0c-0.5,0-1.1,0.2-1.5,0.4c-1.9,1.2-3.8,2.6-5.7,3.8
		c-1.1,0.7-1.5,1.4-1.4,2.6c0.1,0.8,0,1.7,0,2.7c-0.3,0-0.5,0.1-0.8,0.1c-4,0-8.1,0-12.1,0c-2.3,0-4.1-1.7-4.1-4c0-11.3,0-22.7,0-34
		c0-0.1,0-0.3,0-0.5c0.3,0,0.6,0,0.9,0c3.9,0,7.7,0,11.6,0c2.9,0,4.5,1.7,4.5,4.6c0,1.5,0,2.9,0,4.5
		C779.3,384.1,779.6,384.2,779.9,384.2z M765.9,365.7c-4.5,0-8.2,3.6-8.2,8.2c0,12,0,23.9,0,35.9c0,4.5,3.6,8.1,8.1,8.1
		c5.6,0.1,11.3,0,16.9,0c4.1,0,7.5-3.2,8-7.3c0.1-0.7,0.1-1.5,0.2-2.3c2.2,0,4.4,0,6.7,0c0.3,2.5-0.1,4.9-1.1,7.2
		c-2.4,5.4-6.5,8.8-12.4,9.2c-6.5,0.4-13.1,0.4-19.7,0c-7.1-0.4-12.7-6.4-13.5-13.4c-0.1-0.9-0.2-1.8-0.2-2.7c0-11.4,0-22.8,0-34.2
		c0-4.5,1.6-8.5,4.9-11.6c2.8-2.6,6.2-4,10-4.1c5.7-0.1,11.5,0,17.2,0c7.1,0,13.7,5.9,14.6,12.9c0.1,1,0.2,2,0.2,3.1
		c-2.4,0-4.6,0-6.8,0c-0.2-1-0.2-1.9-0.5-2.8c-0.9-3.7-4.2-6.2-8-6.2C777,365.7,771.5,365.7,765.9,365.7z"/>
	<path class="st0" d="M375,354.5c-0.1,0.1-0.3,0.2-0.4,0.2c-3.2,0.4-6,1.6-8.6,3.4c-2.1,1.5-4.3,2.9-6.4,4.4
		c-1.1,0.8-2.3,1.6-3.2,2.5c-4.4,4.2-6.3,9.4-6.3,15.4c0.1,10.3,0,20.6,0,30.8c0,1.7,0,3.4,0.1,5.1c0.6,9.9,9.1,18,19,18.1
		c8,0.1,15.9,0,23.9,0c0.4,0,0.9-0.2,1.2-0.4c2.2-1.4,4.3-2.9,6.4-4.3c0.5-0.3,0.7-0.6,0.7-1.2c0-4.6,0-9.2,0-13.8
		c0-0.3,0-0.6,0-0.9c-0.5,0-0.8,0-1.2,0c-7.6,0-15.3,0-22.9,0c-1.9,0-3.5-1.1-3.9-2.9c-0.3-1.3-0.2-2.7-0.3-4.1c0.5,0,0.9,0,1.2,0
		c4,0,8,0,12,0c0.5,0,1.2-0.2,1.6-0.5c2.1-1.4,4.2-2.8,6.3-4.2c0.5-0.3,0.7-0.6,0.7-1.2c0-4.6,0-9.1,0-13.7c0-0.3,0-0.6,0-1
		c-7.2,0-14.4,0-21.6,0c0-3.7,0-7.3,0-10.9c0.4,0,0.8,0,1.1,0c6.2,0,12.4,0,18.6,0c0.5,0,1.1-0.2,1.5-0.4c2.1-1.4,4.2-2.9,6.4-4.3
		c0.5-0.3,0.7-0.7,0.7-1.3c0-4.9,0-9.7,0-14.6C392.6,354.5,383.8,354.5,375,354.5z M397.1,365.7c-0.4,0-0.7,0-1,0
		c-6.2,0-12.4,0.1-18.5,0c-4.2-0.1-8.6,3-8.7,8.4c-0.1,5.3,0,10.5,0,15.8c0,0.1,0,0.2,0.1,0.4c0.3,0,0.7,0,1,0c6.5,0,13.1,0,19.6,0
		c0.8,0,1.1,0.2,1.1,1c-0.1,1.9,0,3.9,0,5.9c-7.2,0-14.4,0-21.6,0c0,0.3-0.1,0.6-0.1,0.9c0,3.7,0,7.5,0,11.2c0,4.3,2.6,7.6,6.8,8.5
		c0.7,0.2,1.5,0.1,2.2,0.1c6.1,0,12.2,0,18.4,0c0.8,0,1,0.2,1,1c-0.1,2,0,3.9,0,6c-0.4,0-0.8,0-1.1,0c-6.3,0-12.7,0-19,0
		c-6.8,0-13.2-4.9-14.7-11.9c-0.2-1.1-0.4-2.2-0.4-3.3c0-12,0-24,0-36c0-7.3,5.9-13.9,13.1-14.7c0.9-0.1,1.8-0.2,2.7-0.2
		c6.1,0,12.2,0,18.3,0c0.3,0,0.6,0,1,0C397.1,361.1,397.1,363.3,397.1,365.7z"/>
	<path class="st0" d="M276.6,371.3c-1-7.9-7-14.5-14.8-16.3c-0.8-0.2-1.5-0.4-2.3-0.5c-7,0-13.9,0-20.9,0c-0.1,0.1-0.3,0.2-0.4,0.2
		c-3.1,0.4-5.9,1.5-8.5,3.3c-2.3,1.6-4.6,3.1-6.9,4.7c-6,4.1-9,9.8-9,17c0,17.9,0,35.8,0,53.6c0,0.3,0,0.6,0,0.9
		c0.2,0,0.3,0.1,0.4,0.1c4.8,0,9.7,0,14.5,0c0.3,0,0.7-0.2,1-0.4c2.1-1.4,4.2-2.8,6.3-4.2c0.6-0.4,0.8-0.8,0.8-1.5
		c0-6.8,0-13.6,0-20.4c0-0.3,0-0.7,0-1.1c5.8,0,11.4,0,17.1,0c0,9.2,0,18.3,0,27.5c0.2,0,0.2,0.1,0.3,0.1c4.8,0,9.7,0,14.5,0
		c0.3,0,0.7-0.2,1-0.4c2.1-1.4,4.2-2.9,6.4-4.3c0.6-0.4,0.8-0.8,0.8-1.5c0-17.9,0-35.8,0-53.7C276.8,373.4,276.7,372.4,276.6,371.3z
		 M265.7,424.8c0-9.2,0-18.3,0-27.5c-11.1,0-22,0-33.1,0c0,9.1,0,18.3,0,27.5c-2.3,0-4.5,0-6.9,0c0-0.3,0-0.6,0-0.9
		c0-16.8,0-33.5,0-50.3c0-6.8,5.3-13.2,12-14.5c1.2-0.2,2.3-0.3,3.5-0.3c5.4,0,10.8,0,16.1,0c7.4,0,13.9,5.5,15,12.8
		c0.1,0.8,0.2,1.6,0.2,2.4c0,16.7,0,33.4,0,50.1c0,0.2,0,0.5,0,0.8C270.2,424.8,268,424.8,265.7,424.8z"/>
	<path class="st0" d="M731,371.2c-1.3-7.7-5.6-12.9-12.9-15.6c-1.3-0.5-2.8-0.7-4.2-1.1c-6.9,0-13.8,0-20.7,0
		c-0.2,0.1-0.3,0.2-0.5,0.2c-3.1,0.4-5.9,1.5-8.4,3.3c-2.4,1.6-4.8,3.2-7.1,4.9c-5.8,4-8.8,9.6-8.8,16.7c0,18,0,35.9,0,53.9
		c0,0.3,0,0.6,0,1c5.1,0,10,0,14.9,0c0.3,0,0.6-0.2,0.9-0.3c2.2-1.4,4.3-2.9,6.5-4.4c0.5-0.3,0.7-0.7,0.7-1.3c0-6.8,0-13.7,0-20.5
		c0-0.3,0-0.7,0-1.1c5.7,0,11.4,0,17.1,0c0,9.2,0,18.4,0,27.5c0.2,0,0.3,0.1,0.4,0.1c4.8,0,9.6,0,14.4,0c0.3,0,0.7-0.2,1-0.4
		c2.1-1.4,4.1-2.8,6.2-4.2c0.6-0.4,0.9-0.8,0.9-1.6c0-17.8,0-35.7,0-53.5C731.2,373.5,731.1,372.3,731,371.2z M727,423.7
		c0,0.3,0,0.7,0,1.1c-2.3,0-4.5,0-6.9,0c0-9.1,0-18.3,0-27.5c-11.1,0-22,0-33.1,0c0,9.1,0,18.3,0,27.5c-2.4,0-4.6,0-6.9,0
		c0-0.3,0-0.7,0-1c0-16.5,0-32.9,0-49.4c0-7.5,4.6-13.6,11.6-15.3c1.1-0.3,2.3-0.4,3.4-0.4c5.6,0,11.2,0,16.8,0
		c7.2,0,13.7,5.5,14.8,12.6c0.2,1.1,0.3,2.2,0.3,3.3C727,391,727,407.4,727,423.7z"/>
	<path class="st0" d="M134.9,414.6c0-0.3,0-0.6,0-0.9c-2.4,0-4.7,0-7.1,0c-2,0-2.7-0.7-2.7-2.7c0-18.5,0-37,0-55.5c0-0.3,0-0.7,0-1
		c-5.2,0-10.3,0-15.5,0c-2.2,1.5-4.4,3.1-6.7,4.6c-0.6,0.4-0.8,0.8-0.8,1.6c0,18.6,0,37.1,0,55.7c0,1,0.1,2.1,0.2,3.1
		c1,7.5,7.5,14,15,14.7c3.2,0.3,6.3,0.2,9.5,0.2c0.3,0,0.6-0.2,0.9-0.4c2.2-1.4,4.3-2.9,6.5-4.4c0.5-0.3,0.7-0.6,0.7-1.2
		C134.9,423.8,134.9,419.2,134.9,414.6z M130.6,424.8c-6.9,1-13.8-1.8-16.1-9.7c-0.4-1.2-0.5-2.6-0.5-3.9c0-17.2,0-34.3,0-51.5
		c0-0.3,0-0.6,0-1c2,0,4,0,5.9,0c0.3,0,0.6,0,1,0c0,0.4,0,0.8,0,1.2c0,17.2,0,34.3,0,51.5c0,3.2,1.9,5.6,5,6.4
		c0.6,0.1,1.2,0.1,1.9,0.1c0.9,0,1.9,0,2.9,0C130.6,420.3,130.6,422.5,130.6,424.8z"/>
	<path class="st0" d="M175.3,413.7c-2.2,0-4.4-0.1-6.6,0c-2.6,0.1-3.2-1-3.2-3.2c0-17.3,0-34.6,0-51.9c0-1.4,0-2.7,0-4.1
		c-5.2,0-10.3,0-15.5,0c-0.1,0.1-0.2,0.3-0.4,0.4c-2.1,1.4-4.2,2.9-6.4,4.3c-0.6,0.4-0.8,0.8-0.8,1.4c0,18.6,0,37.2,0,55.8
		c0,1.3,0.1,2.6,0.3,3.8c1.3,7.4,7.6,13.3,15,14c3.1,0.3,6.3,0.1,9.4,0.2c0.3,0,0.6-0.2,0.9-0.4c2.2-1.5,4.3-2.9,6.5-4.4
		c0.5-0.3,0.6-0.6,0.6-1.2c0-4.6,0-9.3,0-13.9C175.4,414.2,175.4,414,175.3,413.7z M171.1,424.8c-7.1,1.1-13.9-1.9-16.2-9.7
		c-0.4-1.3-0.5-2.6-0.5-3.9c0-17.1,0-34.2,0-51.3c0-0.3,0-0.6,0-1c2.3,0,4.5,0,6.9,0c0,0.4,0,0.8,0,1.1c0,17.2,0,34.3,0,51.5
		c0,3.2,2,5.7,5.1,6.4c0.6,0.1,1.2,0.1,1.9,0.1c0.9,0,1.8,0,2.8,0C171.1,420.3,171.1,422.5,171.1,424.8z"/>
	<path class="st0" d="M206.1,369.9c0-5.1,0-10.3,0-15.4c-5.2,0-10.3,0-15.5,0c-0.2,0.2-0.4,0.4-0.7,0.6c-2,1.4-4,2.8-6.1,4.1
		c-0.6,0.4-0.8,0.8-0.8,1.4c0,24.2,0,48.5,0,72.7c0,0.3,0,0.6,0,1c0.2,0,0.3,0.1,0.4,0.1c4.8,0,9.6,0,14.4,0c0.3,0,0.7-0.2,1-0.4
		c2.1-1.4,4.2-2.8,6.3-4.2c0.6-0.4,0.8-0.8,0.8-1.6C206.1,408.7,206.1,389.3,206.1,369.9z M201.7,424.8c-2.2,0-4.4,0-6.7,0
		c0-22,0-44,0-66.1c2.3,0,4.4,0,6.7,0C201.7,380.8,201.7,402.8,201.7,424.8z"/>
	<path class="st0" d="M94.5,354.5c-5.2,0-10.3,0-15.5,0c-2.2,1.5-4.5,3.1-6.7,4.6c-0.6,0.4-0.8,0.8-0.8,1.4c0,24.3,0,48.5,0,72.8
		c0,0.3,0,0.6,0,1c0.2,0,0.4,0,0.5,0c4.8,0,9.6,0,14.3,0c0.4,0,0.7-0.2,1-0.4c2.1-1.4,4.1-2.8,6.2-4.2c0.7-0.5,0.9-1,0.9-1.8
		c0-24.1,0-48.2,0-72.3C94.5,355.2,94.5,354.9,94.5,354.5z M90.2,424.8c-2.3,0-4.5,0-6.8,0c0-22,0-44,0-66.1c2.3,0,4.5,0,6.8,0
		C90.2,380.8,90.2,402.8,90.2,424.8z"/>
	<path class="st0" d="M524.4,354.5c-5.2,0-10.3,0-15.5,0c-2.3,1.5-4.5,3.1-6.8,4.6c-0.6,0.4-0.8,0.8-0.8,1.5c0,24.2,0,48.4,0,72.6
		c0,0.3,0,0.7,0,1.1c0.2,0,0.3,0.1,0.5,0.1c4.8,0,9.6,0,14.3,0c0.4,0,0.7-0.2,1-0.4c2.1-1.4,4.1-2.8,6.2-4.2
		c0.7-0.4,0.9-0.9,0.9-1.7c0-24.1,0-48.2,0-72.3C524.3,355.3,524.4,354.9,524.4,354.5z M520,424.8c-2.3,0-4.5,0-6.8,0
		c0-22,0-44,0-66.1c2.3,0,4.5,0,6.8,0C520,380.8,520,402.8,520,424.8z"/>
	<path class="st0" d="M257.6,365.7c-5.6,0-11.3,0-16.9,0c-0.7,0-1.4,0.1-2,0.3c-3.8,1.1-6.1,4.3-6.1,8.5c0,5,0,10,0,15
		c0,0.3,0,0.5,0.1,0.8c11,0,22,0,33,0c0-0.2,0-0.4,0-0.6c0-5.4,0-10.8,0-16.1C265.5,369.4,261.8,365.7,257.6,365.7z M253.8,386
		c-5.7,0-11.3,0-17.1,0c0-3.6,0-7.2,0-10.8c0.3,0,0.6-0.1,0.9-0.1c3.9,0,7.8,0,11.7,0c2.8,0,4.5,1.7,4.5,4.5
		C253.8,381.7,253.8,383.8,253.8,386z"/>
	<path class="st0" d="M720.1,374.1c0-4.7-3.7-8.4-8.4-8.4c-5.5,0-10.9,0-16.4,0c-3.9,0-7.2,2.6-8.1,6.3c-0.1,0.4-0.2,0.9-0.2,1.3
		c0,5.6,0,11.2,0,16.9c11.1,0,22.1,0,33.1,0c0-0.4,0-0.7,0-1C720.1,384.2,720.1,379.2,720.1,374.1z M708.3,385.2
		c0,0.3,0,0.5-0.1,0.8c-5.7,0-11.3,0-16.9,0c0-3.6,0-7.2,0-10.9c0.3,0,0.6,0,0.8,0c3.9,0,7.8,0,11.7,0c2.7,0,4.5,1.7,4.5,4.4
		C708.3,381.4,708.3,383.3,708.3,385.2z"/>
</g>
</svg>
