<svg xmlns="http://www.w3.org/2000/svg" viewBox="0 0 426.4 786.8"><defs><style>.cls-1{fill:#282828;}</style></defs><title>lightning_1</title><g id="Layer_2" data-name="Layer 2"><g id="Layer_1-2" data-name="Layer 1"><polygon class="cls-1" points="103.1 519.5 103.1 519.5 103.1 512.1 103.1 0 0.1 0 0.1 519.5 2.6 522 103.1 622.6 247.5 622.6 260.9 519.5 103.1 519.5"/><polygon class="cls-1" points="310.7 622.6 368.1 565.1 413.7 519.5 413.7 289.3 303.2 622.6 310.7 622.6"/><polygon class="cls-1" points="426.4 0 311 0 311 0 310.7 0 310.7 3.7 288.7 255.8 322.4 255.8 274.8 622.6 415.2 199.1 382.8 199.1 426.4 0"/><path class="cls-1" d="M36.4,785.7H0V697.3H13.3v75.2h23v13.2Z"/><path class="cls-1" d="M58.9,785.7H45.6V697.3H58.9Z"/><path class="cls-1" d="M91.9,786.8a21.17,21.17,0,0,1-21.2-21.1V717.4a21.17,21.17,0,0,1,21.2-21.2A21,21,0,0,1,113,717.4v10.1H99.2V717.1a7.64,7.64,0,0,0-13.1-5.4,7.32,7.32,0,0,0-2.2,5.4v48.5a7.64,7.64,0,0,0,13,5.4,7.41,7.41,0,0,0,2.3-5.4V748.2H91.8V734.8H113v30.9a21,21,0,0,1-21.1,21.1Z"/><path class="cls-1" d="M137.9,748.2v37.5H124.6V697.3h13.3v37.6H154V697.3h13.3v88.4H154V748.2Z"/><path class="cls-1" d="M192.3,710.7H178.1V697.3h41.6v13.4H205.6v75H192.3Z"/><path class="cls-1" d="M245.5,697.2l17.7,59.5V697.2h13.3v88.5H262.2L243.8,729v56.7H230.5V697.2Z"/><path class="cls-1" d="M301.8,785.7H288.5V697.3h13.3Z"/><path class="cls-1" d="M328.7,697.2l17.7,59.5V697.2h13.3v88.5H345.4L327,729v56.7H313.7V697.2Z"/><path class="cls-1" d="M392.6,786.8a21.17,21.17,0,0,1-21.2-21.1V717.4a21.15,21.15,0,1,1,42.3,0v10.1H399.9V717.1a7.64,7.64,0,0,0-13.1-5.4,7.32,7.32,0,0,0-2.2,5.4v48.5a7.64,7.64,0,0,0,13,5.4,7.41,7.41,0,0,0,2.3-5.4V748.2h-7.4V734.8h21.2v30.9a21,21,0,0,1-21.1,21.1Z"/></g></g></svg>