<svg xmlns="http://www.w3.org/2000/svg" viewBox="0 0 569.3 800.3"><defs><style>.cls-1{fill:#282828;}</style></defs><title>maple-tree_1</title><g id="Layer_2" data-name="Layer 2"><g id="Layer_1-2" data-name="Layer 1"><path class="cls-1" d="M67,306.9c6.8-2.5,20.5-7.7,28.2-11.8a392.07,392.07,0,0,0,77.6,15.4c10.4,31.9,36,77.1,98.3,83.9,20.06,143.24-77.71,165.15-107.63,169.49a29.73,29.73,0,0,1-5.57-17.29V347.3a30,30,0,0,1,11.6-23.5c-.8-2.1-1.6-4.1-2.4-6.3-6.9-.8-13.6-1.7-20.3-2.8a52.06,52.06,0,0,0-11.4,32.5V546.5a52.45,52.45,0,0,0,25.1,44.6l103,62.7a52.47,52.47,0,0,0,54.4,0l103-62.7A52.45,52.45,0,0,0,446,546.5V347.2a54.35,54.35,0,0,0-17.3-38.4,207.42,207.42,0,0,0-23.4-1.4c-6.2,0-12.5.3-19.1.8L408.9,322a29.62,29.62,0,0,1,14.2,25.3V546.6a29.6,29.6,0,0,1-1.23,8.35c-68.51-5.46-91.77-43.55-91.77-43.55-27.8-45.3-16.4-119.5-6.3-162.1.5-2.2,4.8-20.6,5.6-22.6,7.8-19.5,30.9-22.8,30.9-22.8,91.9-15.3,130.5,18.8,133.2,21.5-20.9-21.3-41.8-25.7-41.8-25.7,41.8-12.1,62.9-29.9,62.9-29.9C467.9,297,440,293.5,440,293.5c-14-1.3-24.7-2.3-33.3-3-5.5-1.5-9.1-5,6.2-13.3a407.92,407.92,0,0,0,60.9-44.8c10.5,1.3,31.6,2.9,48.9-2.9,0,0-35.7,5.4-45.1-.6,19.9-18.3,39.2-40.7,49.9-65,0,0-19.4,33.8-60.1,67.5h-.1a289.93,289.93,0,0,1-112.7,57.9c-2,.1-4.1.2-6.4.4h-1.9c13.7-8.9,96.7-65.5,98.4-125.9,0,0-10.3,63.3-110.9,123.9a161.85,161.85,0,0,1-17.8-6.1c.4-5.9.8-11.7,1.1-17.4C460.4,151.3,439.7,37.3,438.3,35.6c8.1,104.1-93.2,193.1-120.5,215.1,1-24,1.2-46.4.7-67,23.7-4.7,43.3-22.8,43.3-22.8-16.6,12.8-36.9,17.2-43.4,18.3-.4-12.6-1-24.5-1.7-35.6,28.9-3.2,32.8-21.7,32.8-21.7-10.3,18.6-33.2,16-33.2,16-4.2-57.7-12.2-92.3-12.2-92.3s-.8-.7-.5,1c12.2,65.1,4,193.5,1.2,230.2-3.7-1.7-6-2.9-6-2.9-43.3-28.1-60-110.6-74.4-168.2-7.1-28.6-6-60.1-6-60.1-4.4,16.1-4.2,57.4-2.2,77.7,1.1,11.56,2.59,23.23,4.38,34.79-.66-.22-44.16-15-67.58-40.39A293.69,293.69,0,0,0,182.5,146s-10.2,3.5-39.8-4.9c0,0,28,10.6,46.2,10.1,10.3,8.1,22,15.8,34.1,21.2v-.1a1229.87,1229.87,0,0,0,28,123.5c-27.3-1.8-52.1-23.1-52.1-23.1,11.8,17,41.2,27,54.3,30.7,5.4,20.8,9.6,39.9,12.8,57.3,0,0-77.4-7.4-91.3-84,0,0-12.9-79.6-57.7-108.5,0,0,39.6,29.6,48.9,110.5a138.74,138.74,0,0,0,4.7,24.8c-20.7-1.8-92.1-10-147.1-41.1,0,0,22.3,16.7,65.6,30.8C85.9,295.9,77.1,302.8,67,306.9Z"/><path class="cls-1" d="M153,117.7l-1.95-2.18C151.48,116,152.12,116.76,153,117.7Z"/><path class="cls-1" d="M151.05,115.52c-.26-.3-.44-.51-.55-.62Z"/><path class="cls-1" d="M150.4,114.8a.1.1,0,0,0-.1-.1Z"/><path class="cls-1" d="M229.2,224.5l-.3-.9c-.9-2.3-3.7-7.6-11.6-6.6,0,0-15.4,1.5-20,9.3,0,0,13.1,7.4,24.5,5.6,4.6-.7,8-4,7.4-7.2C229.3,224.7,229.3,224.6,229.2,224.5Z"/><path class="cls-1" d="M256.4,182.3c-3.5,3-4.4,7.8-1.8,10.8l.1.1.8.8c2.2,1.9,8,5.6,14.2.7,0,0,12.4-9.1,11.6-19.1C281.3,175.6,265.2,174.8,256.4,182.3Z"/><path class="cls-1" d="M224.3,327.4s8.2,13.7,19.3,16.8c4.5,1.2,8.9-.7,10-4.5v-.1a5.16,5.16,0,0,0,.2-1.1c.3-2.9.2-9.7-7.3-12.2C246.5,326.4,232.1,321.1,224.3,327.4Z"/><path class="cls-1" d="M390.9,203a3.13,3.13,0,0,0,.5,1c1.4,2.5,5.6,8,13.1,5.5,0,0,14.7-4.3,17.3-14,0,0-14.8-6.2-25.5-2.1-4.3,1.6-6.8,5.9-5.4,9.5C390.8,202.9,390.9,202.9,390.9,203Z"/><path class="cls-1" d="M365,159.1c8.5.3,10.2-8.8,10.2-8.8,2.4-14.9-6.2-26.6-6.2-26.6-10.6,5.7-16.9,18.2-16.9,18.2C345.6,157,365,159.1,365,159.1Z"/><path class="cls-1" d="M406.8,118.9h.2a6.75,6.75,0,0,0,1.4-.2c3.4-.5,11.3-2.6,11.7-11.3,0,0,1.4-16.8-8.3-23.2,0,0-13.2,12.7-13.2,25.4C398.4,114.7,402.2,118.9,406.8,118.9Z"/><path class="cls-1" d="M327.4,123.9a.31.31,0,0,1,.2.1,4.53,4.53,0,0,0,1.6.3c4.1.6,14,.6,17.5-11,0,0,7.5-22.3-1.4-34.6,0,0-19.7,12.4-24.2,29.6C319.3,115.2,322.1,122.2,327.4,123.9Z"/><path class="cls-1" d="M381.8,352.7c.3-14-14-32.2-14-32.2a13,13,0,0,0-21.2,14.9,16.32,16.32,0,0,0,1.7,2C357.3,346.9,381.8,352.7,381.8,352.7Z"/><path class="cls-1" d="M447.3,105s9.8,10.1,30.1-25.8c0,0-24.1-4.7-32.5,7.6C444.9,86.8,438.7,97.7,447.3,105Z"/><path class="cls-1" d="M441.7,230.1c-.6,4.6,2.1,8.7,5.9,9.2h1.3c2.9-.1,9.7-1.2,10.9-9,0,0,3-15-4.3-21.8C455.5,208.5,443.1,218.7,441.7,230.1Z"/><path class="cls-1" d="M460.7,64.6s15.9,2.7,12.3-35.2c0,0-26.2,8.8-26.4,22.5C446.6,51.9,447.6,63.4,460.7,64.6Z"/><path class="cls-1" d="M464.4,171.7a4.67,4.67,0,0,0,1-.5c13.3-6.5,16.6-20.7,16.6-20.7-7-.9-17.8.6-17.8.6-6.8,1-7.7,1.6-7.7,1.6-4.7,1.8-6.8,7.5-4.6,12.8S459.6,173.5,464.4,171.7Z"/><path class="cls-1" d="M477.8,240.2c-4.9,3.3-5.7,9.2-1.9,13.2a10.7,10.7,0,0,0,1.6,1.4c7.8,6.3,28.6,9.3,28.6,9.3-.5-10.1-13.3-22.5-13.3-22.5C489.1,237.7,482.4,237.1,477.8,240.2Z"/><path class="cls-1" d="M140.3,223.9c-.1-.4-.2-.7-.3-1.1-1-2.7-4.1-8.8-12-7.6,0,0-15.2,1.7-19.4,10.8,0,0,13.5,8.7,24.8,6.5,4.6-.9,7.7-4.6,7-8.4C140.3,224,140.3,224,140.3,223.9Z"/><path class="cls-1" d="M421.8,279.7a9.05,9.05,0,0,0,8.4,9.6,10.87,10.87,0,0,0,1.8-.1c8.9-.8,22.6-11.7,22.6-11.7-7.5-6.2-23.5-6.2-23.5-6.2A8.91,8.91,0,0,0,421.8,279.7Z"/><path class="cls-1" d="M306,150c1.9-5.5-.7-11.5-5.8-13.3a14.62,14.62,0,0,0-2-.5c-9.7-1.8-27.8,6.3-27.8,6.3,5.9,9.3,22.9,14.2,22.9,14.2A10.21,10.21,0,0,0,306,150Z"/><path class="cls-1" d="M323.9,196.1c-1.5,6.3,5,9,5,9,10.7,4.3,20.7-.1,20.7-.1-2.6-8.8-10.9-15.6-10.9-15.6C328.4,182.1,323.9,196.1,323.9,196.1Z"/><path class="cls-1" d="M141.9,293.8a9.66,9.66,0,0,0,13.4.5l.1-.1a10,10,0,0,0,1-1.1c2.5-3,7.8-10.6,2.3-17.4,0,0-10.2-13.7-22.8-11.1C135.9,264.6,133.3,284.3,141.9,293.8Z"/><path class="cls-1" d="M303.8,39.6a3.08,3.08,0,0,0,1,.1h.1c3.4.1,6.2-3.1,6.3-7.2.3-10-9.1-20.4-9.1-20.4-7.2,4.9-6.5,18.2-6.5,18.2C295.6,37.3,301.3,39.1,303.8,39.6Z"/><path class="cls-1" d="M101.1,308.1c-12.7,8.1-15.8,22.3-15.8,22.3,11.3,4.1,24.8.6,24.8.6,15.6-5.3,4.3-21.2,4.3-21.2C109,303.3,101.1,308.1,101.1,308.1Z"/><path class="cls-1" d="M19.9,296.1s18.9,16.8,33.7,11.2c0,0,12-5.6,8.5-16.3C62.1,291.1,59.2,277.6,19.9,296.1Z"/><path class="cls-1" d="M97.5,194.7s7.7,13,15.9,13.4c0,0,6.5.9,10.5-10.5,0,0,5.8-14.9-17.3-17.1,0,0-12.7-.9-23.3,1.5A33.75,33.75,0,0,1,97.5,194.7Z"/><path class="cls-1" d="M94,282.2l.1-.1a5.5,5.5,0,0,0,.9-.7c2.2-1.8,7.1-6.8,4.3-14,0,0-4.8-14.3-13.8-15.6,0,0-4.9,15.8-.6,26.2C86.7,282.2,90.8,284.1,94,282.2Z"/><path class="cls-1" d="M524.8,317.7c.1,0-8.7-20.2-22.9-26.2-5.7-2.4-12-.4-13.9,4.5a.31.31,0,0,1-.1.2,8.33,8.33,0,0,0-.4,1.5c-.9,3.9-1.8,13.4,7.8,17.9C495.3,315.6,513.6,325.1,524.8,317.7Z"/><path class="cls-1" d="M512.5,202.2a10.06,10.06,0,0,0-6.2,11.6.31.31,0,0,0,.1.2,5,5,0,0,0,.5,1.3c1.3,3.3,5.2,10.6,13.1,8.1,0,0,15.5-4.2,18.8-16.3C538.6,207.1,523.9,198,512.5,202.2Z"/><path class="cls-1" d="M168.1,198.1a5.26,5.26,0,0,0,1.2-1.4c5.5-7,7.1-24.4,7.1-24.4-9.6,1.2-20.7,12.8-20.7,12.8a8.84,8.84,0,0,0-.3,12.5A9.1,9.1,0,0,0,168.1,198.1Z"/><path class="cls-1" d="M195.3,137.8h.2a6.75,6.75,0,0,0,1.4-.2c3.5-.6,11.6-3,12-12.7,0,0,1.4-18.8-8.6-26,0,0-13.6,14.3-13.6,28.5C186.7,133.1,190.5,137.8,195.3,137.8Z"/><path class="cls-1" d="M227.7,36.9c8.6.3,10.2-9.2,10.2-9.2C240.3,12.2,231.7,0,231.7,0,221,5.9,214.6,18.9,214.6,18.9,208.2,34.7,227.7,36.9,227.7,36.9Z"/><path class="cls-1" d="M234,97s-5.3,3.9-.2,14.8c0,0,6.2,14.8,24.3.2,0,0,9.8-8.2,15.7-17.3a31.78,31.78,0,0,1-19.1.9S240.1,91.6,234,97Z"/><path class="cls-1" d="M224,61.4s-1.9,12.8,9.2,16.7c0,0,13.2,6.1,19.5-36.2C252.7,41.9,227.6,46.4,224,61.4Z"/><path class="cls-1" d="M212.6,174.4s-12.8-9.6-21.1,12.1c0,0-4.3,12-4.8,22.9a30.75,30.75,0,0,1,16-10.5s14.6-3.9,17.2-11.6C219.9,187.3,222.5,181.3,212.6,174.4Z"/><path class="cls-1" d="M283.8,71s4.4,10.3,10.3,11.6c0,0,4.6,1.5,8.4-6.1,0,0,5.4-9.9-11-14.4,0,0-9.1-2.3-16.9-2A28.25,28.25,0,0,1,283.8,71Z"/><path class="cls-1" d="M43.2,266.2s11.6,4.7,17.7-4.8c0,0,8.7-11-29.5-26.5C31.5,235,30,259.5,43.2,266.2Z"/><path class="cls-1" d="M17,256.5l.1-.1a5.55,5.55,0,0,0,.6-.8c1.5-2,4.4-7.3-.2-12.5-.1,0-8.8-10.3-17.5-8.9,0,0,.3,14.1,7.4,21.3C10.3,258.4,14.5,258.8,17,256.5Z"/><path class="cls-1" d="M128.2,139s15.1,2.7,20.8-3c0,0,5-4.1-1-14.2,0,0-7.5-13.6-24.6,1.8,0,0-9.2,8.6-14.4,17.8A34.14,34.14,0,0,1,128.2,139Z"/><path class="cls-1" d="M148.7,105.7c7.9-3,5.9-12.1,5.9-12.1C151,79,138.5,71.5,138.5,71.5,131,80.8,130,94.8,130,94.8,130.1,111.2,148.7,105.7,148.7,105.7Z"/><path class="cls-1" d="M194.4,308.5,214.9,296a74.26,74.26,0,0,1-19-14.9l-10.8,6.6A91,91,0,0,0,194.4,308.5Z"/><path class="cls-1" d="M324.5,268c-.1.9-.1,1.7-.2,2.6l11.6,7.1c7.4-4.6,14.3-9.3,20.7-13.9l-15.7-9.6C335.6,258.8,330.1,263.4,324.5,268Z"/><path class="cls-1" d="M233.9,284.4l5.2-3.2c-1.8-6.6-3.8-14.3-5.9-22.9l-22.6,13.9A112.73,112.73,0,0,0,233.9,284.4Z"/><path class="cls-1" d="M298.6,256.2c.4-6.8.9-14.5,1.3-22.9a51.79,51.79,0,0,0-25.6,1.7,124.09,124.09,0,0,0,14.3,20.1A30.46,30.46,0,0,1,298.6,256.2Z"/><path class="cls-1" d="M367.4,260.1c6.1-2.1,4.9-9.1,4.9-9.1A29,29,0,0,0,361,233.6c-6,7-7.2,17.7-7.2,17.7C353.2,263.9,367.4,260.1,367.4,260.1Z"/><path class="cls-1" d="M490.6,353.7a35.07,35.07,0,0,1-8.2-18.1s-2-15.5-9.4-19.6c0,0-5.6-3.7-13.6,5,0,0-11.1,11.2,9.3,23.6C468.7,344.6,480,351.2,490.6,353.7Z"/><path class="cls-1" d="M168.5,551.9c43.2-8.4,104.2-39.2,91.9-147.9-25.6-4.4-47.4-15.3-64.9-32.7a131.62,131.62,0,0,1-24.6-34.4,18.25,18.25,0,0,0-3.2,10.4V546.6A18.9,18.9,0,0,0,168.5,551.9Z"/><path class="cls-1" d="M222.7,303.9a8.34,8.34,0,0,1-2.1,1.6l-17.1,10.4a80.73,80.73,0,0,0,10.3,10.7,10.42,10.42,0,0,1,3.9-7.2c4.5-3.6,10.3-5.5,17.2-5.5a49.24,49.24,0,0,1,10.2,1.2c-.2-.9-.5-1.9-.7-2.8A174.63,174.63,0,0,1,222.7,303.9Z"/><path class="cls-1" d="M340.8,345.8l-.9-1.5c-.7,2.8-1.5,6.3-2.6,10.8l-.2.7c-21.6,91.6-6.1,135.8,5,154,.1.1,5.5,8.5,18.3,17.4,17.7,12.2,38.2,17.7,54.8,20V351.6a18.65,18.65,0,0,0-8.9-16.2l-22.7-13.8a10.39,10.39,0,0,1-4.3-5c-.3,0-.7.1-1,.1.3.4.6.7.9,1.1.1.1.1.2.2.3,1.7,2.2,16.6,21.7,16.2,39a10.92,10.92,0,0,1-4.2,8.3,10.5,10.5,0,0,1-6.6,2.2,10.68,10.68,0,0,1-2.5-.3c-4.6-1.1-28-7.1-38.6-18.1A22.75,22.75,0,0,1,340.8,345.8Z"/><polygon class="cls-1" points="561.1 719.2 561.1 704.9 512.6 704.9 512.6 709.9 519.8 709.9 519.8 737.8 512.6 737.8 512.6 742.8 562.1 742.8 562.1 727.4 554.3 727.4 554.3 737.8 530.2 737.8 530.2 724.7 539 724.7 539 729.5 544.2 729.5 544.2 718.1 539 718.1 539 722.8 530.2 722.8 530.2 709.9 553.5 709.9 553.5 719.2 561.1 719.2"/><polygon class="cls-1" points="453.5 737.8 453.5 742.8 503 742.8 503 727.4 495.2 727.4 495.2 737.8 471.1 737.8 471.1 724.7 479.9 724.7 479.9 729.5 485.1 729.5 485.1 718.1 479.9 718.1 479.9 722.8 471.1 722.8 471.1 709.9 494.4 709.9 494.4 719.2 502 719.2 502 704.9 453.5 704.9 453.5 709.9 460.7 709.9 460.7 737.8 453.5 737.8"/><polygon class="cls-1" points="496 769.7 501.1 769.7 501.1 783.5 497.1 783.5 481.6 765.7 464.6 765.7 464.6 769.7 471.1 769.7 471.1 795.3 464.6 795.3 464.6 799.3 483.9 799.3 483.9 795.3 477.5 795.3 477.5 776.7 481.4 776.7 501.5 799.3 507.6 799.3 507.6 769.7 514.1 769.7 514.1 765.7 496 765.7 496 769.7"/><polygon class="cls-1" points="316.4 795.4 294.2 795.4 294.2 783.1 302.6 783.1 302.6 787.4 306.8 787.4 306.8 777.6 302.7 777.6 302.7 781.9 294.3 781.9 294.3 769.7 315.8 769.7 315.8 778 322.1 778 322.1 765.7 278.9 765.7 278.9 769.7 285.4 769.7 285.4 795.3 278.9 795.3 278.9 799.3 278.9 799.4 322.9 799.4 322.9 786 316.4 786 316.4 795.4"/><polygon class="cls-1" points="333.4 719.2 341 719.2 341 709.9 352.8 709.9 352.8 737.8 345.4 737.8 345.4 742.8 370.8 742.8 370.8 737.8 363.3 737.8 363.3 709.9 374.9 709.9 374.9 719.2 382.6 719.2 382.6 704.9 333.4 704.9 333.4 719.2"/><polygon class="cls-1" points="369.6 795.4 347.5 795.4 347.5 783.1 355.9 783.1 355.9 787.4 360 787.4 360 777.6 355.9 777.6 355.9 781.9 347.5 781.9 347.5 769.7 369 769.7 369 778 375.3 778 375.3 765.7 332.1 765.7 332.1 769.7 338.6 769.7 338.6 795.3 332.1 795.3 332.1 799.3 332.1 799.4 376.1 799.4 376.1 786 369.6 786 369.6 795.4"/><path class="cls-1" d="M416.1,725.7c2.5,0,5.8,1.2,6.7,7,.8,4.9,3.6,10.8,12.6,10.8,6.7,0,10.4-3.1,10.7-8.9a34.21,34.21,0,0,0-.4-4.6l-2,.2c.1,1,.2,2,.2,3,0,3.9-2.5,5.7-4.8,5.7-4.5,0-5.2-3.9-6-8-.5-2.1-1.4-3-3.9-3.5l-2.1-.4v-4.6l2.2-.4c5.6-1,9.2-4.1,9.2-7.9,0-4.8-2.1-9.2-17.8-9.2H391v5h7.2v27.9H391v5h22.7v-5h-5.3V725.7Zm-7.7-15.8H418c2.6,0,8.6,0,8.6,5.8s-6.6,5.9-9.1,5.9h-9.1Z"/><path class="cls-1" d="M411.6,765.7H385.3v4h6.5v25.6h-6.5v3.9h22.2v-4h-6.9v-9.7h11.3c3.4,0,14.5-.7,14.5-10.2C426.4,771.2,424.9,765.7,411.6,765.7Zm-3.5,16h-7.5v-12h8.6c6.6,0,7.3,4,7.3,5.7C416.5,781.7,410.2,781.7,408.1,781.7Z"/><polygon class="cls-1" points="199.6 780.1 212.4 769.7 215.6 769.7 215.6 765.7 199.3 765.7 199.3 769.7 207.7 769.7 191.7 781.7 188 781.7 188 769.7 191.5 769.7 191.5 765.7 172.9 765.7 172.9 769.7 179.4 769.7 179.4 795.3 172.9 795.3 172.9 799.3 190.6 799.3 190.6 795.3 187.9 795.3 187.9 785.5 192.5 782.7 204.6 795.3 198.3 795.3 198.3 799.3 217.6 799.3 217.6 795.3 214.4 795.3 199.6 780.1"/><path class="cls-1" d="M549.7,784.3v3.4h6.1v3.8l-.5.7a12.45,12.45,0,0,1-9.8,4.4c-4.9,0-13.1-1.9-13.1-14.7,0-11.2,6.8-13.6,12.5-13.6,6.2,0,10.5,3.1,12.2,8.6h5.5V765.8h-3.7v7.9l-4.6-4.9c-.9-1-4.3-4-12.2-4-12,0-20.3,7.3-20.3,17.7,0,8.8,7,17.8,22.5,17.8,7.2,0,9.7-2,12.4-4.7l2.8-2.9,2.6,6.6h2.4V787.7h4.8v-3.4Z"/><polygon class="cls-1" points="434.2 769.7 440.7 769.7 440.7 795.3 434.2 795.3 434.2 799.3 456 799.3 456 795.3 449.5 795.3 449.5 769.7 456 769.7 456 765.7 434.2 765.7 434.2 769.7"/><polygon class="cls-1" points="252.6 780.1 265.4 769.7 268.6 769.7 268.6 765.7 252.3 765.7 252.3 769.7 260.7 769.7 244.7 781.7 241 781.7 241 769.7 244.5 769.7 244.5 765.7 225.9 765.7 225.9 769.7 232.4 769.7 232.4 795.3 225.9 795.3 225.9 799.3 243.6 799.3 243.6 795.3 240.9 795.3 240.9 785.5 245.5 782.7 257.6 795.3 251.3 795.3 251.3 799.3 270.6 799.3 270.6 795.3 267.4 795.3 252.6 780.1"/><path class="cls-1" d="M179.3,727.6c3.8,0,16.4-.9,16.4-11.7,0-4.7-1.8-11-16.8-11H149.4v5h7.2v27.9h-7.2v5h25.2v-5H167V727.6Zm-12.4-5h-.1V709.8H176c7.1,0,7.9,4.3,7.9,6.1,0,6.7-6.9,6.7-9.1,6.7h-7.9Z"/><polygon class="cls-1" points="203.7 737.8 203.7 742.8 203.7 742.9 246.8 742.9 246.8 727.4 239.1 727.4 239.1 737.9 221.2 737.9 221.2 710 228.9 710 228.9 704.9 203.7 704.9 203.7 709.9 210.9 709.9 210.9 737.8 203.7 737.8"/><polygon class="cls-1" points="255.1 737.8 255.1 742.8 304.5 742.8 304.5 727.4 296.7 727.4 296.7 737.8 272.6 737.8 272.6 724.7 281.4 724.7 281.4 729.5 286.6 729.5 286.6 718.1 281.4 718.1 281.4 722.8 272.6 722.8 272.6 709.9 296 709.9 296 719.2 303.6 719.2 303.6 704.9 255.1 704.9 255.1 709.9 262.3 709.9 262.3 737.8 255.1 737.8"/><path class="cls-1" d="M46.5,783.2l-2.1-.4v-4.1l1.7-.6c4.4-1.6,5-3.5,5-5.3,0-6.2-8.1-7.1-12.9-7.1h-26v4h6.5v25.6H12.2v3.8h25q16.5,0,16.5-9.6C53.7,788.3,53.7,784.7,46.5,783.2Zm-19-13.5h7.7c5.7,0,6.1,3.7,6.1,4.8,0,2-.8,5.3-6.1,5.3H27.5Zm9.2,25.7H27.5V783.7h8.8c6.5,0,7.5,3.7,7.5,5.9C43.8,792.4,41.9,795.4,36.7,795.4Z"/><path class="cls-1" d="M84.8,764.8c-13.1,0-23,7.6-23,17.7,0,11.7,11.6,17.8,23.1,17.8s23-6.1,23.1-17.7S96.3,764.8,84.8,764.8Zm0,31.8c-7.5,0-12.5-5.6-12.5-14.1,0-9.7,6.3-14.1,12.5-14.1,8.2,0,12.6,7.3,12.6,14.1C97.4,790.8,92.2,796.6,84.8,796.6Z"/><path class="cls-1" d="M116.9,742.8h24.5v-5h-6.1l-14.7-32.9h-11L95.1,737.8H89v5h19.4v-5H103l2.5-7.7h15l2.3,7.7h-5.9Zm-10.8-14.5,4.8-14.7h4l5.1,14.7Z"/><polygon class="cls-1" points="59.6 737.8 59.6 742.8 59.6 742.9 80.8 742.9 80.8 737.9 73.6 737.9 73.6 710 80.9 710 80.9 704.9 61.1 704.9 47.5 732.5 33.4 704.9 12.2 704.9 12.2 709.9 19.4 709.9 19.4 737.8 12.2 737.8 12.2 742.8 31.2 742.8 31.2 737.8 27.1 737.8 27.1 719.3 31.6 719.3 42.8 742.8 48.2 742.8 58.9 719.5 63.3 719.5 63.3 737.8 59.6 737.8"/><path class="cls-1" d="M140.7,764.8c-13.1,0-23,7.6-23,17.7,0,11.7,11.6,17.8,23.1,17.8s23-6.1,23.1-17.7S152.2,764.8,140.7,764.8Zm-.1,31.8c-7.5,0-12.5-5.6-12.5-14.1,0-9.7,6.3-14.1,12.5-14.1,8.2,0,12.6,7.3,12.6,14.1C153.2,790.8,148,796.6,140.6,796.6Z"/></g></g></svg>