<?xml version="1.0" encoding="utf-8"?>
<!-- Generator: Adobe Illustrator 23.0.1, SVG Export Plug-In . SVG Version: 6.00 Build 0)  -->
<svg version="1.1" id="Layer_1" xmlns="http://www.w3.org/2000/svg" xmlns:xlink="http://www.w3.org/1999/xlink" x="0px" y="0px"
	 viewBox="0 0 200 200" style="enable-background:new 0 0 200 200;" xml:space="preserve">
<style type="text/css">
	.st0{fill:none;stroke:#5A7497;stroke-width:7;stroke-linecap:round;stroke-linejoin:round;stroke-miterlimit:10;}
	.st1{fill:#296691;}
	.st2{fill:#FFFFFF;}
</style>
<path class="st1" d="M107.1,107.5c-1.2-1-2.5-2-3.8-2.7c-1.4-0.8-3.1-1.8-4.6-2.7c-1.4-0.9-2.8-1.9-4.2-2.9c-3.9,3.7-6.9,8.2-9,13.1
	c-5.3,12.5-3.8,26.9,0.1,40.3H75.2c-3-14.2-3.4-29.7,3.3-43.5c2.6-5.4,6.3-10.2,10.7-14.2c-5.1-4.6-9.9-10.1-11.8-17.2
	c-1.1-3.6-1.1-7.6,0-11.2l0.1-0.4c-2.5-1.9-7.2-6.7-3.8-14.4c4.2-9.4,12.7-8,11.8-20.8c0,0,14.8,13.4,9.4,27.8
	c-2.6,6.8-6.9,9.5-14.5,8.5l0,0c-0.7,3.1-0.6,6.3,0.6,9.3c2,6.1,7,10.9,12.1,15c0,0,0,0,0,0c0.4-0.3,0.9-0.6,1.4-0.9
	c1.8-1.1,3.5-2.1,5.5-3c2.3-0.8,3.5-1.2,5.4-2c3.3-1.4,6.6-3.1,9.5-5.2c6-4,10.6-9.9,11.8-16.8c0.8-6.1-0.8-12.1-3.9-17.9
	c-8.2,2.1-13.2,0.3-16.6-5.6c-7.2-12.6,8.3-27.7,8.3-27.7c0,12.1,9.4,9.4,14.8,17.5c4.9,7.4-1.8,13.2-4,14.8
	c3.3,5.5,5.8,12.4,5.1,19.4c-1,8.3-6.2,15.6-12.6,20.4c-3.1,2.5-6.6,4.5-10.2,6.3c-1.6,0.9-4,1.8-5.2,2.3c-1.2,0.6-2.5,1.4-3.7,2.3
	c0.9,0.6,1.8,1.1,2.8,1.6c1.5,0.9,2.8,1.5,4.5,2.3c1.8,0.9,3.3,1.9,4.8,3c6.1,4.4,11.2,10.7,13.4,18.4c2.3,7.6,1.6,15.8-0.7,22.9
	c-0.9,3.1-2.1,6-3.5,8.8H109c6.1-9.2,10.3-19.6,7.9-29.7C115.7,117,112,111.6,107.1,107.5z M2.5,156c-1.4,0-2.5,1.1-2.5,2.5V185
	c0,1.4,1.1,2.5,2.5,2.5c1.3,0,2.5-1.1,2.5-2.5v-26.5C5,157.1,3.8,156,2.5,156z M20.3,165c-1.8,0-3.4,0.5-4.8,1.4
	c-0.4-0.9-1.3-1.4-2.2-1.4c-1.3,0-2.4,1.1-2.4,2.4v7v10.7c0,1.3,1,2.4,2.4,2.4c1.2,0,2.2-0.9,2.4-1.9c0.1-0.2,0.1-0.3,0.1-0.4v-10.7
	c0-2.5,2-4.5,4.5-4.5c2.6,0,4.7,2,4.7,4.5v10.7c0,1.3,1.1,2.4,2.4,2.4c1.3,0,2.3-1.1,2.3-2.4v-10.7C29.7,169.3,25.6,165,20.3,165z
	 M44.2,165h-1.1v-6.5c0-1.4-1.1-2.5-2.5-2.5c-1.4,0-2.5,1.1-2.5,2.5v6.5h-1.3c-1.4,0-2.5,1.1-2.5,2.5c0,1.3,1.1,2.5,2.5,2.5h1.3
	v12.5c0,2.7,2.2,5,5,5c1.4,0,2.5-1.1,2.5-2.5c0-1.4-1.1-2.5-2.5-2.5V170h1.1c1.3,0,2.5-1.1,2.5-2.5C46.8,166.1,45.6,165,44.2,165z
	 M71.2,175.4c0,0,0,0.1,0,0.2s0,0.3,0,0.4c-0.1,1.1-1.1,1.8-2.3,1.8H54.5c0.2,1,0.7,2.2,1.5,3c0.9,1.1,2.7,1.9,4.3,2
	c1.6,0.1,3.5-0.3,4.7-1.1c0.9-1,2.8-0.9,3.4-0.1c0.6,0.6,1,2,0,2.9c-2.2,2-4.9,3-8,3c-6.1,0-10.9-5.1-11-11.2
	c0-6.1,4.8-11.2,11-11.2C66.2,165,70.8,169.4,71.2,175.4z M67,174c-0.4-1.8-2.7-4.4-6.6-4.8c-3.8,0.2-5.7,2.9-6.1,4.8H67z
	 M86.9,165.1c-2.2,0-4.2,0.8-5.7,1.8c-0.3,0.2-0.7,0.6-0.9,0.9v-0.3c0-1.3-1.1-2.3-2.5-2.3c-1.3,0-2.4,1-2.4,2.3v17.7
	c0,1.3,1.1,2.4,2.4,2.4c1.3,0,2.5-1.1,2.5-2.4v-8.5c0.2-0.6,0.8-2.3,1.8-3.8c0.5-0.9,1.2-1.6,2.1-2.2c0.8-0.6,1.7-0.9,2.7-0.9
	c1.3,0,2.4-1.1,2.4-2.4C89.3,166.1,88.3,165.1,86.9,165.1z M100.9,165h-1.1v-6.5c0-1.4-1.1-2.5-2.5-2.5c-1.4,0-2.5,1.1-2.5,2.5v6.5
	h-1.3c-1.4,0-2.5,1.1-2.5,2.5c0,1.3,1.1,2.5,2.5,2.5h1.3v12.5c0,2.7,2.2,5,5,5c1.4,0,2.5-1.1,2.5-2.5c0-1.4-1.1-2.5-2.5-2.5V170h1.1
	c1.3,0,2.5-1.1,2.5-2.5C103.4,166.1,102.2,165,100.9,165z M137,165.5c-1.1-0.5-2.6,0-3,1.3l-5.3,12.1l-3.2-7.5
	c-0.4-0.9-1.2-1.4-2.2-1.4c-0.9,0-1.8,0.5-2.2,1.4l-3.1,7.5l-5.3-12.1c-0.5-1.3-1.9-1.8-3-1.3c-1.3,0.5-1.8,1.9-1.3,3.1l7.4,17.4
	c0.1,0.1,0.1,0.2,0.2,0.4c0,0,0,0,0,0c0,0.1,0.1,0.2,0.2,0.3c0.1,0,0.1,0,0.1,0c0.1,0.1,0.2,0.2,0.3,0.2c0,0,0,0,0,0
	c0.1,0.1,0.3,0.2,0.4,0.3c0,0,0,0,0.1,0c0.1,0,0.2,0,0.3,0.1c0.1,0,0.1,0,0.1,0c0.1,0,0.3,0,0.4,0c0.1,0,0.3,0,0.4,0c0,0,0,0,0.1,0
	c0,0,0.2-0.1,0.3-0.1c0,0,0,0,0,0h0.1c0.1,0,0.2-0.1,0.4-0.3c0.1-0.1,0.2-0.2,0.3-0.3c0,0,0,0,0,0c0.1-0.1,0.2-0.2,0.3-0.3v0
	c0.1-0.1,0.2-0.3,0.2-0.4l3.2-7.8l3.3,7.8c0,0.1,0.1,0.2,0.2,0.4c0,0,0,0,0,0c0,0.1,0.1,0.2,0.2,0.3c0,0,0.1,0,0.1,0
	c0.1,0.1,0.1,0.2,0.3,0.2c0,0,0,0,0,0c0.1,0.1,0.3,0.2,0.4,0.3c0,0,0,0,0,0c0,0,0,0,0,0c0.1,0,0.2,0,0.3,0.1c0,0,0,0,0.1,0
	c0.1,0,0.3,0,0.4,0c0.2,0,0.3,0,0.4,0c0,0,0,0,0.1,0c0.1,0,0.3-0.1,0.4-0.1c0,0,0,0,0,0c0.2,0,0.3-0.1,0.4-0.2c0,0,0,0,0-0.1
	c0.1,0,0.2-0.1,0.3-0.2c0,0,0,0,0.1,0c0.1-0.1,0.2-0.2,0.2-0.3c0,0,0,0,0,0c0.1-0.1,0.1-0.3,0.2-0.4l7.4-17.4
	C138.8,167.4,138.2,166,137,165.5z M145.9,165.1c-1.3,0-2.4,1-2.4,2.5V185c0,1.3,1.1,2.4,2.4,2.4c1.4,0,2.4-1.1,2.4-2.4v-17.5
	C148.3,166.1,147.3,165.1,145.9,165.1z M145.9,156c-1.3,0-2.4,1.1-2.4,2.4v0.9c0,1.3,1.1,2.5,2.4,2.5c1.4,0,2.4-1.1,2.4-2.5v-0.9
	C148.3,157.1,147.3,156,145.9,156z M163.5,165c-1.8,0-3.4,0.5-4.8,1.4c-0.4-0.9-1.3-1.4-2.2-1.4c-1.3,0-2.4,1.1-2.4,2.4v7v10.7
	c0,1.3,1,2.4,2.4,2.4c1.2,0,2.2-0.9,2.4-1.9c0.1-0.2,0.1-0.3,0.1-0.4v-10.7c0-2.5,2-4.5,4.5-4.5c2.6,0,4.7,2,4.7,4.5v10.7
	c0,1.3,1.1,2.4,2.4,2.4c1.3,0,2.3-1.1,2.3-2.4v-10.7C172.9,169.3,168.7,165,163.5,165z M200,175.4c0,0,0,0.1,0,0.2s0,0.3,0,0.4
	c-0.1,1.1-1.1,1.8-2.3,1.8h-14.3c0.2,1,0.7,2.2,1.5,3c0.9,1.1,2.7,1.9,4.3,2c1.6,0.1,3.5-0.3,4.7-1.1c0.9-1,2.8-0.9,3.4-0.1
	c0.6,0.6,1,2,0,2.9c-2.2,2-4.8,3-8,3c-6.2,0-10.9-5.1-11-11.2c0-6.1,4.8-11.2,11-11.2C195,165,199.6,169.4,200,175.4z M195.8,174
	c-0.4-1.8-2.7-4.4-6.6-4.8c-3.8,0.2-5.7,2.9-6.1,4.8H195.8z"/>
</svg>
