<?xml version="1.0" encoding="utf-8"?>
<!-- Generator: Adobe Illustrator 23.0.1, SVG Export Plug-In . SVG Version: 6.00 Build 0)  -->
<svg version="1.1" id="Layer_1" xmlns="http://www.w3.org/2000/svg" xmlns:xlink="http://www.w3.org/1999/xlink" x="0px" y="0px"
	 viewBox="0 0 200 200" style="enable-background:new 0 0 200 200;" xml:space="preserve">
<style type="text/css">
	.st0{fill:none;stroke:#5A7497;stroke-width:7;stroke-linecap:round;stroke-linejoin:round;stroke-miterlimit:10;}
	.st1{fill:#296691;}
	.st2{fill:#FFFFFF;}
</style>
<path class="st1" d="M135.6,139.2l-15.3-5.1c-0.7-1-1.5-2.3-2.2-3.8c0.9,0.1,1.9,0.3,2.8,0.4h0c5.9,0.9,10,0,12.5-2.7
	c4.2-4.4,2.5-12,0.8-20.1l-0.4-2c-1.7-8.4-1.8-16.9-1.8-17c0-17.6-14.3-32-32-32s-32,14.3-32,32c0,15.2-2.3,26.4-2.3,26.4
	c-1,4.2-0.9,12.1,5.4,15c1.8,0.8,3.9,1.1,6.1,1.1c1.4,0,2.8-0.1,4.3-0.3c-0.6,1.1-1.2,2.1-1.8,2.9l-15.3,5.1
	c-20.3,6.6-19.9,14.5-19.9,30.7h0V200h110.8v-30.2C155.4,153.6,155.9,145.7,135.6,139.2z M119.7,107c-0.3,0.6-0.6,1.3-0.9,1.9
	c-0.1,0.2-0.2,0.4-0.3,0.6c-0.3,0.6-0.6,1.1-0.9,1.6c-0.1,0.2-0.3,0.4-0.4,0.6c-0.3,0.5-0.6,1-1,1.5c-0.2,0.2-0.3,0.4-0.5,0.6
	c-0.3,0.4-0.7,0.9-1,1.3c-0.2,0.2-0.3,0.3-0.5,0.5c-0.6,0.7-1.3,1.3-1.9,1.9c-0.3,0.3-0.6,0.5-0.9,0.8c-0.3,0.2-0.6,0.4-0.9,0.6
	c-0.3,0.2-0.7,0.5-1,0.7c-0.3,0.2-0.6,0.3-0.9,0.5c-0.4,0.2-0.8,0.4-1.1,0.6c-0.3,0.1-0.6,0.3-0.9,0.4c-0.4,0.2-0.8,0.3-1.3,0.5
	c-0.3,0.1-0.6,0.2-0.8,0.3c-0.5,0.1-1,0.2-1.4,0.3c-0.2,0-0.5,0.1-0.7,0.1c-0.7,0.1-1.5,0.2-2.2,0.2c-0.8,0-1.6-0.1-2.3-0.2
	c-0.3,0-0.5-0.1-0.8-0.2c-0.5-0.1-1-0.2-1.5-0.3c-0.3-0.1-0.6-0.2-1-0.3c-0.4-0.1-0.8-0.3-1.2-0.5c-0.4-0.2-0.7-0.3-1-0.5
	c-0.4-0.2-0.7-0.4-1.1-0.6c-0.4-0.2-0.7-0.5-1.1-0.7c-0.3-0.2-0.6-0.4-0.9-0.6c-0.4-0.3-0.7-0.6-1.1-0.9c-0.3-0.2-0.5-0.4-0.8-0.7
	c-0.4-0.4-0.8-0.8-1.1-1.1c-0.2-0.2-0.4-0.4-0.6-0.7c-0.4-0.4-0.8-0.9-1.1-1.4c-0.2-0.2-0.3-0.4-0.5-0.6c-0.4-0.5-0.7-1.1-1.1-1.6
	c-0.1-0.2-0.2-0.4-0.4-0.6c-0.4-0.6-0.7-1.2-1.1-1.9c-0.1-0.2-0.2-0.3-0.3-0.5c-0.3-0.7-0.7-1.4-1-2.1c-0.1-0.1-0.1-0.3-0.2-0.4
	c-0.3-0.8-0.6-1.6-0.9-2.4c0-0.1-0.1-0.2-0.1-0.3c-0.3-0.8-0.5-1.7-0.8-2.6c0-0.1,0-0.2-0.1-0.2c-0.2-0.9-0.4-1.9-0.6-2.8
	c0-0.1,0-0.1,0-0.2c-0.2-1-0.3-2-0.5-3c0,0,0,0,0-0.1c-0.1-1-0.2-2.1-0.3-3.2C81,84.8,85.7,79.1,89,76l0.2,0.4
	c4.4,7.4,12.6,21.3,32.9,20.2l0.2,0c0.2,0,0.3-0.1,0.5-0.1c-0.6,3.6-1.6,7-2.9,10.1C119.8,106.8,119.7,106.9,119.7,107z M100,144
	c-6.4,0-11.9-3.4-15-8.5c1.6-2.7,3.5-6.4,4.2-10.8c3.3,1.9,7,2.9,10.8,2.9c3.8,0,7.5-1,10.8-2.9c0.8,4.4,2.6,8.1,4.2,10.8
	C111.9,140.7,106.4,144,100,144z"/>
</svg>
