<?xml version="1.0" encoding="utf-8"?>
<!-- Generator: Adobe Illustrator 23.0.1, SVG Export Plug-In . SVG Version: 6.00 Build 0)  -->
<svg version="1.1" id="Layer_1" xmlns="http://www.w3.org/2000/svg" xmlns:xlink="http://www.w3.org/1999/xlink" x="0px" y="0px"
	 viewBox="0 0 200 200" style="enable-background:new 0 0 200 200;" xml:space="preserve">
<style type="text/css">
	.st0{fill:none;stroke:#5A7497;stroke-width:7;stroke-linecap:round;stroke-linejoin:round;stroke-miterlimit:10;}
	.st1{fill:#296691;}
	.st2{fill:#FFFFFF;}
</style>
<path class="st1" d="M142.4,139.2l-15.3-5.1c-1.8-2.6-4.4-7.4-4.6-12.8c6.6-5.9,11.3-15.4,12.5-26.5c3.8-2.3,3.8-5.7,3.8-5.9
	c0-17.6-14.3-32-32-32s-32,14.3-32,32c0,3.7,2.4,6,2.7,6.2l1.3,1.1c1.5,10.4,6,19.4,12.4,25c-0.1,5.3-2.8,10.1-4.6,12.8l-15.3,5.1
	c-20.3,6.6-19.9,14.5-19.9,30.7h0V200h110.8v-30.2C162.2,153.6,162.7,145.7,142.4,139.2z M83.5,91.3c4.3-6.5,8.9-12.3,12.2-15.3
	l0.2,0.4c4.4,7.4,12.6,21.3,32.9,20.2l0.2,0c0.2,0,0.3-0.1,0.5-0.1c-2.4,14.9-11.7,26-22.7,26C94.5,122.5,84.4,108.7,83.5,91.3z
	 M106.8,144c-6.4,0-11.9-3.4-15-8.5c1.6-2.7,3.5-6.4,4.2-10.8c3.3,1.9,7,2.9,10.8,2.9c3.8,0,7.5-1,10.8-2.9
	c0.8,4.4,2.6,8.1,4.2,10.8C118.7,140.6,113.2,144,106.8,144z"/>
</svg>
