<?xml version="1.0" encoding="utf-8"?>
<!-- Generator: Adobe Illustrator 23.0.1, SVG Export Plug-In . SVG Version: 6.00 Build 0)  -->
<svg version="1.1" id="Layer_1" xmlns="http://www.w3.org/2000/svg" xmlns:xlink="http://www.w3.org/1999/xlink" x="0px" y="0px"
	 viewBox="0 0 200 200" style="enable-background:new 0 0 200 200;" xml:space="preserve">
<style type="text/css">
	.st0{fill:none;stroke:#5A7497;stroke-width:7;stroke-linecap:round;stroke-linejoin:round;stroke-miterlimit:10;}
	.st1{fill:#296691;}
	.st2{fill:#FFFFFF;}
	.st3{fill:#83C781;}
</style>
<path class="st3" d="M116.3,200L116.3,200c19.2,0,35-14.3,35-31.9v-1.2c0-17.5-15.7-31.9-35-31.9h0l-3.8,0
	c-17.2,0-31.2-12.8-31.2-28.4V93.4c0-15.6,14-28.4,31.2-28.4l3.8,0h0c19.2,0,35-14.3,35-31.9v-1.2c0-17.5-15.7-31.9-35-31.9l0,0
	C79,0,48.7,44.8,48.7,100S79,200,116.3,200z"/>
</svg>
