<?xml version="1.0" encoding="utf-8"?>
<!-- Generator: Adobe Illustrator 21.0.2, SVG Export Plug-In . SVG Version: 6.00 Build 0)  -->
<svg version="1.1" id="Logo" xmlns="http://www.w3.org/2000/svg" xmlns:xlink="http://www.w3.org/1999/xlink" x="0px" y="0px"
	 viewBox="0 0 512 512" style="enable-background:new 0 0 512 512;" xml:space="preserve">
<style type="text/css">
	.st0{fill:#333333;}
</style>
<g>
	<path class="st0" d="M256,166.2c28.7,0,32.1,0.1,43.5,0.6c10.5,0.5,16.2,2.2,20,3.7c5,2,8.6,4.3,12.4,8c3.8,3.8,6.1,7.3,8,12.4
		c1.5,3.8,3.2,9.5,3.7,20c0.5,11.3,0.6,14.7,0.6,43.5s-0.1,32.1-0.6,43.5c-0.5,10.5-2.2,16.2-3.7,20c-2,5-4.3,8.6-8,12.4
		c-3.8,3.8-7.3,6.1-12.4,8c-3.8,1.5-9.5,3.2-20,3.7c-11.3,0.5-14.7,0.6-43.5,0.6c-28.7,0-32.1-0.1-43.5-0.6
		c-10.5-0.5-16.2-2.2-20-3.7c-5-2-8.6-4.3-12.4-8c-3.8-3.8-6.1-7.3-8-12.4c-1.5-3.8-3.2-9.5-3.7-20c-0.5-11.3-0.6-14.7-0.6-43.5
		s0.1-32.1,0.6-43.5c0.5-10.5,2.2-16.2,3.7-20c2-5,4.3-8.6,8-12.4c3.8-3.8,7.3-6.1,12.4-8c3.8-1.5,9.5-3.2,20-3.7
		C223.9,166.3,227.3,166.2,256,166.2 M256,146.9c-29.2,0-32.9,0.1-44.4,0.6c-11.5,0.5-19.3,2.3-26.1,5c-7.1,2.7-13.1,6.4-19.1,12.4
		c-6,6-9.7,12-12.4,19.1c-2.7,6.8-4.5,14.7-5,26.1c-0.5,11.5-0.6,15.1-0.6,44.4c0,29.2,0.1,32.9,0.6,44.4c0.5,11.5,2.3,19.3,5,26.1
		c2.7,7.1,6.4,13.1,12.4,19.1c6,6,12,9.7,19.1,12.4c6.8,2.7,14.7,4.5,26.1,5c11.5,0.5,15.1,0.6,44.4,0.6s32.9-0.1,44.4-0.6
		c11.5-0.5,19.3-2.3,26.1-5c7.1-2.7,13.1-6.4,19.1-12.4c6-6,9.7-12,12.4-19.1c2.7-6.8,4.5-14.7,5-26.1c0.5-11.5,0.6-15.1,0.6-44.4
		s-0.1-32.9-0.6-44.4c-0.5-11.5-2.3-19.3-5-26.1c-2.7-7.1-6.4-13.1-12.4-19.1c-6-6-12-9.7-19.1-12.4c-6.8-2.7-14.7-4.5-26.1-5
		C288.9,147,285.2,146.9,256,146.9L256,146.9z"/>
	<path class="st0" d="M256,199.2c-30.5,0-55.3,24.7-55.3,55.3c0,30.5,24.7,55.3,55.3,55.3s55.3-24.7,55.3-55.3
		C311.3,223.9,286.5,199.2,256,199.2z M256,290.3c-19.8,0-35.9-16.1-35.9-35.9c0-19.8,16.1-35.9,35.9-35.9
		c19.8,0,35.9,16.1,35.9,35.9C291.9,274.3,275.8,290.3,256,290.3z"/>
	<circle class="st0" cx="313.4" cy="197" r="12.9"/>
</g>
<path class="st0" d="M256,17.6c32.2,0,63.4,6.3,92.8,18.7c28.4,12,53.9,29.2,75.8,51.1c21.9,21.9,39.1,47.4,51.1,75.8
	c12.4,29.4,18.7,60.6,18.7,92.8s-6.3,63.4-18.7,92.8c-12,28.4-29.2,53.9-51.1,75.8c-21.9,21.9-47.4,39.1-75.8,51.1
	c-29.4,12.4-60.6,18.7-92.8,18.7s-63.4-6.3-92.8-18.7c-28.4-12-53.9-29.2-75.8-51.1c-21.9-21.9-39.1-47.4-51.1-75.8
	c-12.4-29.4-18.7-60.6-18.7-92.8s6.3-63.4,18.7-92.8c12-28.4,29.2-53.9,51.1-75.8c21.9-21.9,47.4-39.1,75.8-51.1
	C192.6,23.9,223.8,17.6,256,17.6 M256,0C114.6,0,0,114.6,0,256s114.6,256,256,256s256-114.6,256-256S397.4,0,256,0L256,0z"/>
</svg>
