<svg xmlns="http://www.w3.org/2000/svg" viewBox="0 0 17.17 20.63"><defs><style>.cls-1{fill:#fff;}</style></defs><title>noxo_1</title><g id="Layer_2" data-name="Layer 2"><g id="Layer_5" data-name="Layer 5"><polygon class="cls-1" points="0.94 1.68 6.04 8.38 6.98 8.38 6.98 0.14 6.04 0.14 6.04 6.85 0.94 0.14 0 0.14 0 8.38 0.94 8.38 0.94 1.68"/><path class="cls-1" d="M10.79,7.88A4.09,4.09,0,0,0,13,8.53a4.29,4.29,0,0,0,4.21-4.27,4.31,4.31,0,0,0-1.28-3L16.73.14H15.57l-.4.53A4,4,0,0,0,13,0,4.29,4.29,0,0,0,8.74,4.26a4.3,4.3,0,0,0,1.33,3.07L3.73,15.62,1.15,12.25H0l3.15,4.12L0,20.49H1.14l2.58-3.37L6.3,20.49H7.45L4.29,16.36Zm5.43-3.62A3.37,3.37,0,0,1,13,7.66a3.1,3.1,0,0,1-1.63-.48l4-5.21A3.41,3.41,0,0,1,16.22,4.26Zm-6.54,0A3.39,3.39,0,0,1,13,.86a3.13,3.13,0,0,1,1.67.51l-4,5.24A3.49,3.49,0,0,1,9.68,4.26Z"/><path class="cls-1" d="M13,12.1a4.27,4.27,0,0,0,0,8.53,4.27,4.27,0,0,0,0-8.53Zm0,7.67A3.4,3.4,0,0,1,13,13a3.4,3.4,0,0,1,0,6.8Z"/></g></g></svg>