<svg xmlns="http://www.w3.org/2000/svg" viewBox="0 0 78.95 57.44"><defs><style>.cls-1,.cls-2,.cls-3{fill:none;stroke:#db4c28;stroke-width:0.35px;}.cls-1,.cls-2{stroke-miterlimit:10;}.cls-2{stroke-linecap:square;}.cls-3{stroke-miterlimit:5;}</style></defs><title>Asset 7</title><g id="Layer_2" data-name="Layer 2"><g id="Layer_1-2" data-name="Layer 1"><rect class="cls-1" x="24.14" y="14.25" width="22.93" height="14.59"/><line class="cls-1" x1="24.14" y1="25.9" x2="47.07" y2="25.9"/><polyline class="cls-1" points="33.65 28.84 31.7 32.22 39.51 32.22 37.56 28.84"/><path class="cls-1" d="M41.49,32.22h3.95a2,2,0,1,0-3.95,0Z"/><rect class="cls-1" x="4.09" y="29.7" width="8.54" height="2.52"/><rect class="cls-1" x="14.58" y="21.54" width="7.6" height="10.68" transform="translate(36.77 53.76) rotate(180)"/><circle class="cls-1" cx="18.38" cy="26.03" r="2.39"/><circle class="cls-1" cx="20.38" cy="30.42" r="0.57"/><circle class="cls-1" cx="18.38" cy="26.03" r="1.38"/><rect class="cls-1" x="49.03" y="21.54" width="7.6" height="10.68" transform="translate(105.65 53.76) rotate(180)"/><circle class="cls-1" cx="52.83" cy="26.03" r="2.39"/><circle class="cls-1" cx="54.83" cy="30.42" r="0.57"/><circle class="cls-1" cx="52.83" cy="26.03" r="1.38"/><rect class="cls-1" x="58.58" y="26.07" width="9.84" height="6.15"/><line class="cls-1" x1="64.4" y1="27.93" x2="68.43" y2="27.93"/><line class="cls-1" x1="58.58" y1="27.93" x2="60.7" y2="27.93"/><circle class="cls-1" cx="62.55" cy="29.15" r="2.21"/><circle class="cls-1" cx="62.55" cy="29.15" r="1.31"/><rect class="cls-1" x="65.8" y="25.17" width="1.74" height="0.91"/><line class="cls-1" x1="66.67" y1="27.93" x2="66.67" y2="32.22"/><rect class="cls-1" x="71.07" y="31.33" width="3.11" height="0.89"/><rect class="cls-1" x="70.65" y="30.43" width="3.95" height="0.89"/><rect class="cls-1" x="70.38" y="26.06" width="4.48" height="1.79"/><rect class="cls-1" x="70.38" y="25.17" width="4.48" height="0.89"/><rect class="cls-1" x="70.65" y="27.85" width="3.95" height="2.59"/><rect class="cls-1" x="0.17" y="32.22" width="78.6" height="1.82"/><rect class="cls-1" x="64.17" y="44.74" width="23.22" height="1.82" transform="translate(30.12 121.43) rotate(-90)"/><rect class="cls-1" x="-8.43" y="44.74" width="23.22" height="1.82" transform="translate(-42.47 48.83) rotate(-90)"/><circle class="cls-1" cx="59.45" cy="11.72" r="6.62"/><line class="cls-1" x1="59.45" y1="16.94" x2="59.45" y2="18.34"/><line class="cls-1" x1="59.45" y1="5.1" x2="59.45" y2="6.5"/><line class="cls-1" x1="64.67" y1="11.72" x2="66.06" y2="11.72"/><line class="cls-1" x1="52.83" y1="11.72" x2="54.23" y2="11.72"/><line class="cls-1" x1="62.06" y1="16.24" x2="62.76" y2="17.45"/><line class="cls-1" x1="56.14" y1="5.99" x2="56.84" y2="7.2"/><line class="cls-1" x1="63.97" y1="9.11" x2="65.18" y2="8.41"/><line class="cls-1" x1="53.71" y1="15.03" x2="54.92" y2="14.33"/><line class="cls-1" x1="65.18" y1="15.03" x2="63.97" y2="14.33"/><line class="cls-1" x1="53.71" y1="8.41" x2="54.92" y2="9.11"/><line class="cls-1" x1="62.03" y1="7.24" x2="62.76" y2="5.99"/><line class="cls-1" x1="56.14" y1="17.45" x2="56.84" y2="16.24"/><polyline class="cls-1" points="61.23 12.75 59.45 11.72 59.45 8.05"/><rect class="cls-1" x="33.7" y="-2.52" width="10.68" height="16.06" transform="translate(44.55 -33.53) rotate(90)"/><rect class="cls-1" x="32.01" y="1.17" width="14.06" height="8.68"/><circle class="cls-1" cx="5.44" cy="30.96" r="0.44"/><circle class="cls-1" cx="7.14" cy="30.96" r="0.44"/><rect class="cls-1" x="5.05" y="28.81" width="6.62" height="0.89"/><rect class="cls-1" x="6.04" y="38.47" width="7.82" height="18.79"/><line class="cls-1" x1="6.04" y1="48.05" x2="13.87" y2="48.05"/><line class="cls-1" x1="13.87" y1="39.43" x2="6.04" y2="39.43"/><line class="cls-2" x1="7.26" y1="40.62" x2="10.56" y2="40.62"/><line class="cls-2" x1="7.26" y1="41.57" x2="10.56" y2="41.57"/><line class="cls-2" x1="7.26" y1="42.76" x2="12.66" y2="42.76"/><rect class="cls-1" x="7.26" y="43.94" width="5.4" height="0.98"/><rect class="cls-1" x="7.26" y="45.88" width="5.4" height="0.98"/><circle class="cls-1" cx="12.18" cy="41.09" r="0.47"/><rect class="cls-1" x="4.09" y="34.04" width="52.69" height="2.47"/><rect class="cls-1" x="56.78" y="34.04" width="18.08" height="11.02"/><line class="cls-1" x1="56.78" y1="39.55" x2="74.87" y2="39.55"/><line class="cls-1" x1="64.29" y1="36.8" x2="67.36" y2="36.8"/><line class="cls-1" x1="64.29" y1="42.31" x2="67.36" y2="42.31"/><path class="cls-3" d="M32,7.37s.56,0,1.21,1a1.2,1.2,0,0,1,.05,1.51"/><path class="cls-3" d="M35,9.85A3.43,3.43,0,0,0,34.43,7,5.72,5.72,0,0,0,32,4.74"/><path class="cls-3" d="M36.65,9.85S37.14,6,32,1.17"/><path class="cls-3" d="M38.13,9.85s1-1.28-.27-3.4a22,22,0,0,1-2.25-5.28"/><path class="cls-3" d="M39.61,9.85a3.65,3.65,0,0,0,0-4c-1.83-2.68-.42-3.3,1-4.68"/><path class="cls-3" d="M41.1,9.85s1.77-2.35.42-4.45c-2-3.12,4.55-4.23,4.55-4.23"/><path class="cls-3" d="M42.92,9.85A5,5,0,0,0,43.42,6c-.82-2.86,1.75-2.3,2.65-1.87"/><path class="cls-3" d="M44.5,9.85a2.27,2.27,0,0,0,.4-2.28c-.4-1.38.38-1.75,1.17-1.16"/></g></g></svg>