<svg xmlns="http://www.w3.org/2000/svg" viewBox="0 0 385.89 385.89"><defs><style>.cls-1{fill:#cb4543;}.cls-2{fill:#fff;}.cls-3{fill:#bd4f4f;}</style></defs><title>Asset 2</title><g id="Layer_2" data-name="Layer 2"><g id="Layer_1-2" data-name="Layer 1"><rect class="cls-1" width="385.89" height="385.89"/><path class="cls-2" d="M236.22,170.39a2,2,0,0,1-.82-3.83l35.88-15.91a2,2,0,1,1,1.62,3.66L237,170.22A1.89,1.89,0,0,1,236.22,170.39Z"/><path class="cls-2" d="M197.65,176.87a2,2,0,0,1-1.83-1.19,2,2,0,0,1,1-2.64l74.44-33a2,2,0,1,1,1.62,3.65l-74.44,33A2,2,0,0,1,197.65,176.87Z"/><path class="cls-2" d="M118.6,235.22a11.2,11.2,0,0,1-5.37-1.51c-2.87-1.47-7.63-6.58-4.82-15.21,2.17-6.68,11.29-11.5,19.72-15.18V138.9a2,2,0,0,1,1.19-1.83L143,131c.56-.25,14-6.24,21.32-.61a2,2,0,1,1-2.44,3.17c-4.49-3.46-14-.38-17.24,1.09l-12.51,5.55v61.42l1.28-.53c1.63-.68,3.15-1.32,4.49-1.91l35.87-15.91a2,2,0,0,1,1.62,3.66l-35.87,15.91c-1.36.6-2.91,1.25-4.58,1.94-.89.37-1.84.76-2.81,1.18v4.22c0,8.88-2.83,20.11-9,23.79A8.69,8.69,0,0,1,118.6,235.22Zm9.53-27.52c-7,3.19-14.37,7.28-15.92,12-2.46,7.59,2.84,10.42,2.89,10.45,2.31,1.26,4.25,1.37,6,.35,4.59-2.72,7.07-12.51,7.07-20.35Z"/><path class="cls-2" d="M148.58,187.34a6.72,6.72,0,0,1-3.82-1.12c-2.49-1.68-3.76-5-3.76-9.79V153.92l-10.06,4.46a2,2,0,1,1-1.62-3.65L142.19,149a2,2,0,0,1,1.9.16,2,2,0,0,1,.91,1.67v25.59c0,3.31.71,5.61,2,6.47s2.91.31,3.82-.05a.52.52,0,0,1,.16-.06c.07,0,3-1.2,3-7.47V145.11a2,2,0,0,1,4,0v30.21c0,8.66-4.7,10.88-5.63,11.24A10,10,0,0,1,148.58,187.34Z"/><path class="cls-2" d="M174.43,175.92a6.74,6.74,0,0,1-3.81-1.12c-2.5-1.68-3.76-5-3.76-9.8a2,2,0,0,1,4,0c0,3.32.7,5.62,2,6.48s2.91.31,3.81-.06l.17,0c.07,0,3-1.2,3-7.48a2,2,0,0,1,4,0c0,8.67-4.7,10.89-5.63,11.25A10,10,0,0,1,174.43,175.92Z"/><path class="cls-2" d="M161.21,181.66a7.11,7.11,0,0,1-4-1.16c-1.48-1-3.25-3.1-3.25-7.48a2,2,0,0,1,4,0c0,1.44.26,3.34,1.49,4.16,1,.66,2.58.63,4.32-.07a.52.52,0,0,1,.16-.06c.07,0,3-1.2,3-7.47V146.14a2,2,0,0,1,4,0v23.44c0,8.66-4.7,10.88-5.63,11.24A10.78,10.78,0,0,1,161.21,181.66Z"/><path class="cls-2" d="M228.56,228.48a7.1,7.1,0,0,1-4-1.15c-1.49-1-3.25-3.1-3.25-7.48a2,2,0,0,1,4,0c0,1.44.25,3.34,1.48,4.16,1,.66,2.59.63,4.32-.07a.58.58,0,0,1,.17-.06c.07,0,3-1.2,3-7.48V193a2,2,0,0,1,4,0V216.4c0,8.67-4.7,10.89-5.62,11.25A10.77,10.77,0,0,1,228.56,228.48Z"/><path class="cls-2" d="M215.63,234.13a7.1,7.1,0,0,1-4-1.15c-1.48-1-3.25-3.11-3.25-7.49a2,2,0,0,1,4,0c0,1.45.26,3.34,1.48,4.17,1,.66,2.59.63,4.33-.08l.16-.06c.07,0,3-1.19,3-7.47V191.26a2,2,0,0,1,4,0v30.79c0,8.66-4.7,10.89-5.63,11.24A10.79,10.79,0,0,1,215.63,234.13Z"/><path class="cls-2" d="M260.51,137.78a8.23,8.23,0,0,1-4.59-1.42c-3.19-2.11-5.18-6.18-5.18-10.63V111.07c0-8.13,4.47-10.34,5.37-10.7,2.62-1.11,6.48-1.32,9.21.7,1.65,1.22,3.51,3.71,3,8.64a2,2,0,1,1-4-.42c.25-2.45-.22-4.13-1.4-5-1.39-1-3.71-.89-5.28-.22l-.16.06c-.06,0-2.76,1.17-2.76,6.95v14.66c0,3.07,1.33,5.94,3.38,7.29a4.26,4.26,0,0,0,4.19.37l.12,0a9.67,9.67,0,0,0,6-9.56,2,2,0,1,1,4-.13,13.69,13.69,0,0,1-8.57,13.44A8.46,8.46,0,0,1,260.51,137.78Z"/><path class="cls-2" d="M222,154.72a7.1,7.1,0,0,1-4-1.16c-1.49-1-3.26-3.1-3.26-7.48V100.79a2,2,0,1,1,4,0v45.29c0,1.44.26,3.34,1.49,4.16,1,.66,2.59.63,4.32-.07a.49.49,0,0,1,.17-.06c.06,0,2.95-1.2,2.95-7.47V94.78a2,2,0,0,1,4,0v47.86c0,8.66-4.7,10.88-5.63,11.24A10.74,10.74,0,0,1,222,154.72Z"/><path class="cls-2" d="M168.86,148.86a2,2,0,0,1-2-2c0-8.66,4.7-10.89,5.63-11.24,2.83-1.15,5.51-1,7.54.33,2.49,1.68,3.76,5,3.76,9.8a2,2,0,0,1-4,0c0-3.32-.71-5.62-2-6.48s-2.91-.31-3.82.06l-.17.06c-.06,0-2.95,1.19-2.95,7.47A2,2,0,0,1,168.86,148.86Z"/><path class="cls-2" d="M247.8,143.24a7.1,7.1,0,0,1-4-1.16c-1.48-1-3.25-3.1-3.25-7.48V118.77c0-3.31-.71-5.61-2-6.47s-2.91-.32-3.82,0a.52.52,0,0,1-.16.06c-.07,0-3,1.2-3,7.47a2,2,0,1,1-4,0c0-8.66,4.7-10.88,5.63-11.24,2.83-1.15,5.51-1,7.54.34,2.49,1.68,3.76,5,3.76,9.79V134.6c0,1.44.26,3.34,1.48,4.16,1,.66,2.59.63,4.33-.07a.44.44,0,0,1,.16-.06s2.37-.95,2.86-5.63a2,2,0,1,1,4,.42c-.72,6.78-4.66,8.65-5.51,9A10.61,10.61,0,0,1,247.8,143.24Z"/><path class="cls-2" d="M205.46,161.91a9.34,9.34,0,0,1-4.24-1c-5.6-2.79-7.47-10.53-7.54-10.85a2,2,0,0,1,1.46-2.4c5.31-1.31,5.44-11.09,5.44-11.18,0-3.32-.71-5.62-2-6.48s-2.9-.32-3.81.05l-.17.06c-.06,0-2.95,1.2-2.95,7.47a2,2,0,0,1-4,0c0-8.66,4.7-10.88,5.63-11.24,2.83-1.15,5.51-1,7.54.34,2.49,1.67,3.76,5,3.76,9.79,0,.48-.06,10.94-6.49,14.32.73,2,2.28,5.23,4.93,6.55,1.68.83,3.6.75,5.86-.25a2,2,0,1,1,1.62,3.65A12.4,12.4,0,0,1,205.46,161.91Z"/><path class="cls-2" d="M189.65,169.8a2,2,0,0,1-2-2V112.5a2,2,0,1,1,4,0v55.3A2,2,0,0,1,189.65,169.8Z"/><path class="cls-2" d="M252,217.88a9.33,9.33,0,0,1-4.23-1c-5.61-2.79-7.47-10.53-7.55-10.85a2,2,0,0,1,1.47-2.4c5.3-1.31,5.43-11.09,5.43-11.18,0-3.32-.71-5.62-2-6.48s-2.91-.32-3.81.05l-.17.06c-.07,0-3,1.2-3,7.47a2,2,0,0,1-4,0c0-8.66,4.7-10.88,5.63-11.24,2.84-1.15,5.51-1,7.54.34,2.5,1.67,3.76,5,3.76,9.79,0,.48-.06,10.94-6.48,14.32.73,2,2.28,5.23,4.92,6.54,1.69.84,3.6.76,5.87-.24l.13-.06c.08,0,2.86-1.2,4.22-5.94a2,2,0,0,1,3.85,1.1c-1.81,6.33-5.88,8.26-6.61,8.56A12.42,12.42,0,0,1,252,217.88Z"/><path class="cls-2" d="M236.21,218.4a2,2,0,0,1-2-2v-48a2,2,0,0,1,4,0v48A2,2,0,0,1,236.21,218.4Z"/><path class="cls-2" d="M210.17,123.05a2,2,0,0,1-.81-3.83l13.46-6a2,2,0,0,1,1.62,3.66l-13.46,6A2.14,2.14,0,0,1,210.17,123.05Z"/><path class="cls-2" d="M188.17,246.76a7.13,7.13,0,0,1-4-1.15c-1.48-1-3.25-3.11-3.25-7.49V198.78a2,2,0,1,1,4,0v39.34c0,1.45.26,3.34,1.49,4.17,1,.66,2.59.63,4.32-.08l.16-.06c.07,0,3-1.19,3-7.47V196.59c-7.54-1.2-10.65-4.51-12.68-8.14s-1.88-8.35.41-11.1c1.91-2.29,5-2.93,8.45-1.76,7.21,2.45,7.87,13.31,7.85,17.39a69,69,0,0,0,12.26-.59,2,2,0,0,1,2.25,2v31.81a2,2,0,0,1-4,0V196.62a69.74,69.74,0,0,1-10.54.37v37.69c0,8.66-4.7,10.89-5.63,11.24A10.78,10.78,0,0,1,188.17,246.76ZM186.74,179a2.62,2.62,0,0,0-2.12.9c-1.21,1.45-1.2,4.41,0,6.59,1.05,1.9,2.69,4.84,9.21,6-.06-4.27-1-11.75-5.14-13.15A6.2,6.2,0,0,0,186.74,179Z"/><path class="cls-2" d="M176.39,214.4a2,2,0,0,1-.81-3.83l13.46-6a2,2,0,0,1,1.62,3.66l-13.46,6A2,2,0,0,1,176.39,214.4Z"/><path class="cls-2" d="M259.37,120.67c-.23,0-.42,0-.55,0a8.17,8.17,0,0,1-8-6,2,2,0,0,1,3.88-1,4.18,4.18,0,0,0,4.25,3l.29,0a3.65,3.65,0,0,0,2.52-.87c1.4-1.14,2.3-3.38,2.6-6.48a2,2,0,0,1,2.18-1.8,2,2,0,0,1,1.8,2.19c-.42,4.32-1.82,7.44-4.17,9.29A7.79,7.79,0,0,1,259.37,120.67Z"/><path class="cls-2" d="M266.46,211.73a8.35,8.35,0,0,1-4.6-1.42c-3.19-2.11-5.17-6.18-5.17-10.63V185c0-8.13,4.47-10.34,5.36-10.7,2.62-1.11,6.49-1.32,9.21.7,1.65,1.22,3.51,3.71,3,8.63a2,2,0,0,1-2.19,1.79,2,2,0,0,1-1.79-2.2c.26-2.45-.21-4.13-1.39-5-1.4-1-3.71-.89-5.29-.22l-.15.05c-.06,0-2.76,1.18-2.76,7v14.66c0,3.07,1.32,5.93,3.38,7.29a4.24,4.24,0,0,0,4.18.37l.12,0a9.68,9.68,0,0,0,6-9.56,2,2,0,1,1,4-.14,13.71,13.71,0,0,1-8.57,13.45A8.68,8.68,0,0,1,266.46,211.73Z"/><path class="cls-2" d="M265.31,194.62c-.23,0-.42,0-.55,0a8.17,8.17,0,0,1-8-6,2,2,0,0,1,3.89-1,4.16,4.16,0,0,0,4.25,3l.29,0a3.69,3.69,0,0,0,2.51-.87c1.41-1.14,2.3-3.38,2.6-6.48a2,2,0,1,1,4,.39c-.41,4.31-1.82,7.44-4.17,9.29A7.78,7.78,0,0,1,265.31,194.62Z"/><path class="cls-2" d="M152.52,261a10.18,10.18,0,0,1-4.22-.86c-2.19-1-5.83-3.78-5.58-11.36,0,0,0-.08,0-.12.38-3.83,3.4-11.11,12.16-11.27a2,2,0,0,1,2,2,2,2,0,0,1-2,2c-7.06.13-8.12,6.59-8.24,7.6-.08,2.75.42,6.24,3.22,7.51,3.34,1.51,8.9-.47,13.52-4.82,2.91-2.74,5.31-8,4-12.34-1.2-4-5.51-6.79-12.48-8-4.61-.81-8-2.8-10.08-5.91a14.54,14.54,0,0,1-2-10.23c1-9.12,9.43-12.84,13.76-13.54,5.8-.79,10,.28,12.42,3.18,3.82,4.49,1.74,11.49,1.65,11.78a2,2,0,1,1-3.83-1.17c0-.1,1.52-5.23-.88-8-1.52-1.79-4.47-2.39-8.77-1.8-.34,0-9.5,1.68-10.38,10.09l0,.22a10.61,10.61,0,0,0,1.37,7.31c1.45,2.15,4,3.55,7.44,4.16,10.81,1.92,14.46,6.95,15.62,10.83,1.77,5.94-1.23,12.74-5.11,16.39C161.8,258.72,156.81,261,152.52,261Z"/><circle class="cls-2" cx="223.29" cy="174.15" r="2.37"/><polygon class="cls-3" points="155.62 287.11 155.59 287.12 154.85 279.11 153.4 279.75 152.69 288.35 152.66 288.36 151.87 280.44 150.4 281.09 151.47 291.11 153.54 290.19 154.07 284.36 154.1 284.35 154.63 289.7 156.64 288.81 157.7 277.84 156.39 278.42 155.62 287.11"/><path class="cls-3" d="M161.06,276.34l-1.53,11.19,1.38-.62.26-2,1.85-.83.26,1.79,1.52-.67-1.53-9.82Zm.3,7,.72-5.63h0l.72,5Z"/><polygon class="cls-3" points="167.17 284.12 168.68 283.45 168.68 272.95 167.17 273.62 167.17 284.12"/><polygon class="cls-3" points="171.01 273.41 172.59 272.71 172.59 281.71 174.09 281.04 174.09 272.04 175.67 271.34 175.67 269.84 171.01 271.91 171.01 273.41"/><polygon class="cls-3" points="186.67 273.28 186.64 273.29 185.9 265.28 184.45 265.93 183.74 274.53 183.71 274.54 182.92 266.61 181.45 267.26 182.52 277.29 184.59 276.37 185.12 270.53 185.15 270.52 185.69 275.88 187.69 274.99 188.75 264.01 187.44 264.6 186.67 273.28"/><polygon class="cls-3" points="194.4 266 192.69 266.76 192.69 262.26 191.18 262.93 191.18 273.43 192.69 272.76 192.69 268.26 194.4 267.5 194.4 272 195.94 271.31 195.94 260.81 194.4 261.5 194.4 266"/><path class="cls-3" d="M199.84,259.08l-1.53,11.18,1.38-.62.26-2,1.85-.82.26,1.79,1.52-.68-1.53-9.82Zm.3,7,.71-5.62,0,0,.72,5Z"/><polygon class="cls-3" points="204.99 258.28 206.57 257.58 206.57 266.58 208.08 265.91 208.08 256.91 209.65 256.21 209.65 254.71 204.99 256.78 204.99 258.28"/><polygon class="cls-3" points="211.98 255.26 212.56 255.01 212.16 256.68 212.78 256.41 213.43 254.45 213.43 253.03 211.98 253.67 211.98 255.26"/><path class="cls-3" d="M218.74,255.36c-1-.51-1.29-.94-1.29-1.71a1.32,1.32,0,0,1,.75-1.37c.48-.21.75-.05.75.7v.44l1.43-.64v-.33c0-1.68-.75-2.3-2.22-1.65a3.7,3.7,0,0,0-2.22,3.63A2.53,2.53,0,0,0,217.6,257c1,.5,1.29.94,1.29,1.7a1.33,1.33,0,0,1-.78,1.37c-.48.21-.78.08-.78-.67v-.75l-1.43.63v.65c0,1.68.77,2.3,2.25,1.64a3.73,3.73,0,0,0,2.24-3.64A2.52,2.52,0,0,0,218.74,255.36Z"/><path class="cls-3" d="M229.33,250.64c-1-.5-1.29-.94-1.29-1.7a1.32,1.32,0,0,1,.76-1.37c.47-.22.75-.06.75.69v.44l1.42-.63v-.33c0-1.68-.75-2.31-2.21-1.66a3.72,3.72,0,0,0-2.23,3.63,2.53,2.53,0,0,0,1.66,2.55c1,.5,1.29.94,1.29,1.7a1.33,1.33,0,0,1-.78,1.37c-.48.22-.78.08-.78-.67v-.75l-1.43.63v.65c0,1.68.77,2.3,2.25,1.64a3.74,3.74,0,0,0,2.25-3.64A2.53,2.53,0,0,0,229.33,250.64Z"/><path class="cls-3" d="M235.65,243a3.73,3.73,0,0,0-2.25,3.64v5.46c0,1.68.77,2.29,2.25,1.63a3.72,3.72,0,0,0,2.24-3.64v-1.39l-1.42.63v1.5a1.33,1.33,0,0,1-.78,1.37c-.48.22-.78.08-.78-.67v-5.67a1.34,1.34,0,0,1,.78-1.38c.48-.22.78-.07.78.68v1.13l1.42-.64v-1C237.89,243,237.13,242.36,235.65,243Z"/><polygon class="cls-3" points="243.7 244.05 241.99 244.81 241.99 240.31 240.48 240.98 240.48 251.48 241.99 250.81 241.99 246.31 243.7 245.55 243.7 250.05 245.24 249.36 245.24 238.86 243.7 239.55 243.7 244.05"/><path class="cls-3" d="M250.17,236.55a3.8,3.8,0,0,0-2.29,3.66v5.46c0,1.68.81,2.28,2.29,1.62a3.8,3.8,0,0,0,2.29-3.66v-5.46C252.46,236.49,251.65,235.89,250.17,236.55Zm.78,7.85a1.36,1.36,0,0,1-.78,1.39c-.48.21-.78.06-.78-.69v-5.67a1.34,1.34,0,0,1,.78-1.38c.48-.22.78-.07.78.68Z"/><path class="cls-3" d="M257.27,233.39a3.8,3.8,0,0,0-2.29,3.66v5.46c0,1.68.81,2.28,2.29,1.62a3.8,3.8,0,0,0,2.29-3.66V235C259.56,233.33,258.75,232.73,257.27,233.39Zm.78,7.85a1.36,1.36,0,0,1-.78,1.39c-.48.21-.78.06-.78-.69v-5.67a1.34,1.34,0,0,1,.78-1.38c.48-.22.78-.07.78.68Z"/><polygon class="cls-3" points="263.71 230.64 262.2 231.31 262.2 241.81 266.19 240.04 266.19 238.54 263.71 239.64 263.71 230.64"/><path class="cls-3" d="M270.06,227.7a3.69,3.69,0,0,0-2.22,3.62v1l1.42-.64v-1.14a1.33,1.33,0,0,1,.75-1.37c.49-.21.76-.05.76.7a6.34,6.34,0,0,1-.86,3.13,5.66,5.66,0,0,0-.79,2.72,1.67,1.67,0,0,0,.09.61l1.34-.6a2.59,2.59,0,0,1-.05-.56,4.9,4.9,0,0,1,.76-2.4,7,7,0,0,0,1-3.46C272.28,227.67,271.52,227,270.06,227.7Z"/><polygon class="cls-3" points="269.14 238.72 270.59 238.08 270.59 236.49 269.14 237.13 269.14 238.72"/><polygon class="cls-2" points="155.62 287.11 155.59 287.12 154.85 279.11 153.4 279.75 152.69 288.35 152.66 288.36 151.87 280.44 150.4 281.09 151.47 291.11 153.54 290.19 154.07 284.36 154.1 284.35 154.63 289.7 156.64 288.81 157.7 277.84 156.39 278.42 155.62 287.11"/><path class="cls-2" d="M161.06,276.34l-1.53,11.19,1.38-.62.26-2,1.85-.83.26,1.79,1.52-.67-1.53-9.82Zm.3,7,.72-5.63h0l.72,5Z"/><polygon class="cls-2" points="167.17 284.12 168.68 283.45 168.68 272.95 167.17 273.62 167.17 284.12"/><polygon class="cls-2" points="171.01 273.41 172.59 272.71 172.59 281.71 174.09 281.04 174.09 272.04 175.67 271.34 175.67 269.84 171.01 271.91 171.01 273.41"/><polygon class="cls-2" points="186.67 273.28 186.64 273.29 185.9 265.28 184.45 265.93 183.74 274.53 183.71 274.54 182.92 266.61 181.45 267.26 182.52 277.29 184.59 276.37 185.12 270.53 185.15 270.52 185.69 275.88 187.69 274.99 188.75 264.01 187.44 264.6 186.67 273.28"/><polygon class="cls-2" points="194.4 266 192.69 266.76 192.69 262.26 191.18 262.93 191.18 273.43 192.69 272.76 192.69 268.26 194.4 267.5 194.4 272 195.94 271.31 195.94 260.81 194.4 261.5 194.4 266"/><path class="cls-2" d="M199.84,259.08l-1.53,11.18,1.38-.62.26-2,1.85-.82.26,1.79,1.52-.68-1.53-9.82Zm.3,7,.71-5.62,0,0,.72,5Z"/><polygon class="cls-2" points="204.99 258.28 206.57 257.58 206.57 266.58 208.08 265.91 208.08 256.91 209.65 256.21 209.65 254.71 204.99 256.78 204.99 258.28"/><polygon class="cls-2" points="211.98 255.26 212.56 255.01 212.16 256.68 212.78 256.41 213.43 254.45 213.43 253.03 211.98 253.67 211.98 255.26"/><path class="cls-2" d="M218.74,255.36c-1-.51-1.29-.94-1.29-1.71a1.32,1.32,0,0,1,.75-1.37c.48-.21.75-.05.75.7v.44l1.43-.64v-.33c0-1.68-.75-2.3-2.22-1.65a3.7,3.7,0,0,0-2.22,3.63A2.53,2.53,0,0,0,217.6,257c1,.5,1.29.94,1.29,1.7a1.33,1.33,0,0,1-.78,1.37c-.48.21-.78.08-.78-.67v-.75l-1.43.63v.65c0,1.68.77,2.3,2.25,1.64a3.73,3.73,0,0,0,2.24-3.64A2.52,2.52,0,0,0,218.74,255.36Z"/><path class="cls-2" d="M229.33,250.64c-1-.5-1.29-.94-1.29-1.7a1.32,1.32,0,0,1,.76-1.37c.47-.22.75-.06.75.69v.44l1.42-.63v-.33c0-1.68-.75-2.31-2.21-1.66a3.72,3.72,0,0,0-2.23,3.63,2.53,2.53,0,0,0,1.66,2.55c1,.5,1.29.94,1.29,1.7a1.33,1.33,0,0,1-.78,1.37c-.48.22-.78.08-.78-.67v-.75l-1.43.63v.65c0,1.68.77,2.3,2.25,1.64a3.74,3.74,0,0,0,2.25-3.64A2.53,2.53,0,0,0,229.33,250.64Z"/><path class="cls-2" d="M235.65,243a3.73,3.73,0,0,0-2.25,3.64v5.46c0,1.68.77,2.29,2.25,1.63a3.72,3.72,0,0,0,2.24-3.64v-1.39l-1.42.63v1.5a1.33,1.33,0,0,1-.78,1.37c-.48.22-.78.08-.78-.67v-5.67a1.34,1.34,0,0,1,.78-1.38c.48-.22.78-.07.78.68v1.13l1.42-.64v-1C237.89,243,237.13,242.36,235.65,243Z"/><polygon class="cls-2" points="243.7 244.05 241.99 244.81 241.99 240.31 240.48 240.98 240.48 251.48 241.99 250.81 241.99 246.31 243.7 245.55 243.7 250.05 245.24 249.36 245.24 238.86 243.7 239.55 243.7 244.05"/><path class="cls-2" d="M250.17,236.55a3.8,3.8,0,0,0-2.29,3.66v5.46c0,1.68.81,2.28,2.29,1.62a3.8,3.8,0,0,0,2.29-3.66v-5.46C252.46,236.49,251.65,235.89,250.17,236.55Zm.78,7.85a1.36,1.36,0,0,1-.78,1.39c-.48.21-.78.06-.78-.69v-5.67a1.34,1.34,0,0,1,.78-1.38c.48-.22.78-.07.78.68Z"/><path class="cls-2" d="M257.27,233.39a3.8,3.8,0,0,0-2.29,3.66v5.46c0,1.68.81,2.28,2.29,1.62a3.8,3.8,0,0,0,2.29-3.66V235C259.56,233.33,258.75,232.73,257.27,233.39Zm.78,7.85a1.36,1.36,0,0,1-.78,1.39c-.48.21-.78.06-.78-.69v-5.67a1.34,1.34,0,0,1,.78-1.38c.48-.22.78-.07.78.68Z"/><polygon class="cls-2" points="263.71 230.64 262.2 231.31 262.2 241.81 266.19 240.04 266.19 238.54 263.71 239.64 263.71 230.64"/><path class="cls-2" d="M270.06,227.7a3.69,3.69,0,0,0-2.22,3.62v1l1.42-.64v-1.14a1.33,1.33,0,0,1,.75-1.37c.49-.21.76-.05.76.7a6.34,6.34,0,0,1-.86,3.13,5.66,5.66,0,0,0-.79,2.72,1.67,1.67,0,0,0,.09.61l1.34-.6a2.59,2.59,0,0,1-.05-.56,4.9,4.9,0,0,1,.76-2.4,7,7,0,0,0,1-3.46C272.28,227.67,271.52,227,270.06,227.7Z"/><polygon class="cls-2" points="269.14 238.72 270.59 238.08 270.59 236.49 269.14 237.13 269.14 238.72"/></g></g></svg>