<?xml version="1.0" encoding="utf-8"?>
<!-- Generator: Adobe Illustrator 21.0.2, SVG Export Plug-In . SVG Version: 6.00 Build 0)  -->
<svg version="1.1" id="Layer_1" xmlns="http://www.w3.org/2000/svg" xmlns:xlink="http://www.w3.org/1999/xlink" x="0px" y="0px"
	 viewBox="0 0 684.4 511" style="enable-background:new 0 0 684.4 511;" xml:space="preserve">
<style type="text/css">
	.st0{fill:#333333;}
	.st1{clip-path:url(#SVGID_2_);}
	.st2{fill:#316687;}
</style>
<rect x="0" y="-0.1" class="st0" width="684.4" height="511.2"/>
<g>
	<g>
		<defs>
			<rect id="SVGID_1_" x="0" y="649.6" width="684.4" height="511.2"/>
		</defs>
		<clipPath id="SVGID_2_">
			<use xlink:href="#SVGID_1_"  style="overflow:visible;"/>
		</clipPath>
		<g class="st1">
			<path class="st2" d="M0,649.6v5.3c2-1.7,3.9-3.5,5.8-5.3C5.8,649.6,0,649.6,0,649.6z"/>
			<path class="st2" d="M25.9,649.6h-6.8c-5.9,6.8-12.2,13.1-19.1,19v8C9.6,668.5,18.2,659.5,25.9,649.6z"/>
			<path class="st2" d="M45.9,649.6H45c-12,20.6-26.7,38.3-45,53.2v1.2C18.7,688.9,33.6,670.8,45.9,649.6z"/>
			<path class="st2" d="M67.1,649.6h-2.8C49.3,684.7,29,713.4,0,736.1v5.4C30.8,717.5,51.7,687.1,67.1,649.6z"/>
			<path class="st2" d="M80.8,649.6H77c-16.1,46.9-39.5,83.9-77,112.7v8.2C40.2,739.9,64.4,700.1,80.8,649.6z"/>
			<path class="st2" d="M93.3,649.6h-1.4C75.5,712.5,49.3,760.7,0,797.5v3.5C50.6,763.4,76.9,714.1,93.3,649.6z"/>
			<path class="st2" d="M105.5,665.7c1.2-5.3,2.3-10.7,3.4-16.1H107c-0.9,4.4-1.8,8.7-2.9,13C88.9,734.9,62.7,790,7,833.3
				c-2.3,1.7-4.7,3.4-7,5v5c3.1-2.1,6-4.2,8.9-6.4C64.3,793.1,90.3,737.9,105.5,665.7z"/>
			<path class="st2" d="M111.8,681.6c2.2-10.4,4.2-21,6-32h-1.2c-1.8,10.3-3.7,20.3-5.7,30c-14.1,72.1-39.1,128-93.2,173.7
				c-5.6,4.5-11.5,8.9-17.7,13.1v3.3c6.7-4.6,13-9.3,19-14.1C72.9,809.6,97.9,753.6,111.8,681.6z"/>
			<path class="st2" d="M119.1,698.3c3-15.6,5.6-31.8,7.9-48.7h-3.2c-2.2,14.8-4.7,29.1-7.4,42.8c-13.1,71.9-37.2,128.4-90.1,175.8
				c-8.1,6.9-16.8,13.6-26.2,20v10.1c11.1-7.5,21.1-15.3,30.2-23.4C82.6,826.8,106.3,770.1,119.1,698.3z"/>
			<path class="st2" d="M124.6,710.2c3.5-19.2,6.3-39.4,8.8-60.5h-0.8c-2.5,20.6-5.4,40.3-8.8,59c-11.9,71.6-34.8,128.8-86,178.4
				C26.6,897.5,14.2,907.5,0,916.9v2.6c14.6-9.8,27.4-20.1,38.9-30.7C89.9,839,112.6,781.8,124.6,710.2z"/>
			<path class="st2" d="M133,727c4-24.3,6.8-50.1,9.4-77.4H141c-2.6,26.4-5.6,51.3-9.5,74.9c-10.7,71.4-32.2,129.2-81.7,180.9
				c-14,14.2-30.4,27.9-49.8,40.7v4.6c20.3-13.4,37.3-27.7,51.9-42.5C101.1,856.2,122.4,798.3,133,727z"/>
			<path class="st2" d="M139.9,739.8c4.2-28.2,6.9-58.2,9.4-90.2h-2.1c-2.5,30.5-5.5,59.3-9.6,86.3c-9.8,71.1-30.2,129.4-78.4,182.6
				C43,935.7,23.7,952.3,0,968v7.5c25.3-16.6,45.6-34.3,62.5-52.6C110.4,869.2,130.4,810.8,139.9,739.8z"/>
			<path class="st2" d="M78.3,942.5c45.6-55.8,64.1-114.8,72.1-185.3c4.2-33.4,6.5-69.2,8.6-107.5h-0.5c-2.2,38-4.6,73.5-8.8,106.5
				c-7.9,70.5-26.4,129.5-72.2,185.2c-19.8,23.3-44.6,46.1-77.4,67.5v2C33.3,989.2,58.3,966.1,78.3,942.5z"/>
			<path class="st2" d="M92.7,958.4c43.7-57.6,60.6-117,67.2-187c4-37.6,5.6-78.1,7.3-121.8h-2.4c-1.8,42.1-3.7,81.3-7.9,117.7
				c-6.9,70.2-24.2,129.5-68.5,186.6c-21.8,27.1-49.8,53.8-88.4,79v9.1C40.9,1015.2,70.2,987,92.7,958.4z"/>
			<path class="st2" d="M102,967.9c42.5-58.6,58.4-118.3,64.1-187.9c3.8-40.2,4.8-83.5,6.2-130.4h-1.1c-1.4,46.1-2.7,88.9-6.6,128.5
				c-5.8,69.7-21.9,129.3-64.7,187.7c-23.5,31.3-54.9,62.2-100,91.8v4.2C46.3,1031.4,78.2,999.8,102,967.9z"/>
			<path class="st2" d="M117.6,982.1c40.5-60.2,54.8-120.1,59.1-189.1c3.3-44.1,3.2-91.7,4-143.4h-1.6c-0.9,50.7-1.1,97.6-4.5,140.9
				c-4.5,69.1-19.1,129-60,188.9C89,1015.7,53.6,1052,0,1087.6v6.4C55.5,1057,91.7,1019.5,117.6,982.1z"/>
			<path class="st2" d="M133.5,994.8c38.5-61.6,51.3-121.6,54.1-189.9c2.5-47.6,1.2-99.2,1.2-155.2h-0.2
				c-0.1,55.9,1.2,107.3-1.4,154.9c-2.8,68.3-15.6,128.4-54.1,189.9c-27.6,42.8-67.8,86.4-133,130.5v0.9
				C65.5,1081.5,105.9,1037.8,133.5,994.8z"/>
			<path class="st2" d="M142.7,1001.3c37.4-62.3,49.2-122.4,51.3-190.3c2.1-49.5-0.1-103.1-0.5-161.4h-1c0.3,57.8,2.3,110.9-0.1,160
				c-2.2,68-14.2,128.1-51.7,190.2C112.4,1045.4,70.1,1092,0,1140v4C71.4,1095,114.2,1047.5,142.7,1001.3z"/>
			<path class="st2" d="M156.7,1010.1c35.7-63.2,46.1-123.4,46.9-190.6c1.2-52.1-2.2-108.5-3.2-169.9h-2.2
				c0.8,60.5,3.8,116,2.2,167.3c-1.2,67.4-12,127.6-48.2,190.5C123,1057,77.9,1108.4,0,1162.5v8.6
				C81,1114.5,127.2,1061.3,156.7,1010.1z"/>
			<path class="st2" d="M165.7,1015.1c34.6-63.8,44.2-123.9,44.3-190.7c0.7-53.6-3.6-111.5-5.1-174.8h-1
				c1.4,62.8,5.5,120.4,4.5,173.7c-0.2,66.9-10,127-44.8,190.7c-30,53.6-77.9,109.6-163.6,170.3v3.8
				C87.1,1126.2,135.5,1069.3,165.7,1015.1z"/>
			<path class="st2" d="M182.7,1023.2c32.6-64.7,40.7-124.7,39.4-190.6c-0.5-56.2-6.4-116.7-8.8-183h-2.6
				c2.1,65.3,7.5,125.1,7.5,180.6c0.9,66.2-7.6,126.3-40.8,190.7C146.6,1079.1,95.5,1141,0,1210.2v9.9
				C99.4,1147.4,151.7,1083.3,182.7,1023.2z"/>
			<path class="st2" d="M193.3,1027.4c31.3-65.2,38.5-125.1,36.3-190.4c-1.2-57.6-8.3-119.5-11.1-187.3H218
				c2.7,67.6,9.7,129.4,10.7,186.9c2.1,65.4-5.1,125.4-36.5,190.5c-31.1,63-85.1,130.8-190.5,209.3h2.7
				C108.7,1157.9,162.3,1090.2,193.3,1027.4z"/>
			<path class="st2" d="M204.2,1031.1c30.1-65.6,36.3-125.4,33.3-190.2c-2.1-59-10.3-122.1-13.6-191.3h-1
				c3.3,69,11.2,131.9,13,190.6c2.9,64.9-3.4,124.7-33.7,190.2c-29.2,61.5-79.6,128.1-176.8,205.9h4.4
				C125.6,1158.7,175.5,1092.4,204.2,1031.1z"/>
			<path class="st2" d="M212,1033.3c29.2-65.9,34.7-125.6,31.1-189.9c-2.7-59.8-11.6-123.7-15.4-193.8h-1.4
				c3.6,69.8,12.2,133.4,14.6,192.9c3.4,64.5-2.3,124.2-31.8,190c-27.9,60.7-76.2,126.5-168.7,203.8h6
				C137.1,1159.2,184.6,1093.7,212,1033.3z"/>
			<path class="st2" d="M222,1035.7c28.1-66.2,32.8-125.7,28.5-189.5c-3.5-60.8-13.5-125.5-17.7-196.6h-0.2
				c4.2,71,14.1,135.7,17.4,196.5c4.3,63.8-0.3,123.3-28.5,189.5c-25.9,59.4-70.8,124.1-156.2,200.8h0.8
				C151.4,1159.7,196.2,1095,222,1035.7z"/>
			<path class="st2" d="M235.7,1038.2c26.7-66.5,30.1-125.8,24.8-188.8c-4.5-62-15.9-127.7-20.7-199.8h-1
				c4.8,72,15.9,137.6,20.2,199.3c5.2,63.1,1.6,122.4-25.3,188.9c-24.2,58.4-66.2,122.3-146,198.5h3.4
				C170.1,1160.2,211.8,1096.4,235.7,1038.2z"/>
			<path class="st2" d="M246.4,1039.4c25.6-66.8,28.1-125.8,22.1-188.2c-5.3-62-17.6-127.6-23.1-199.5c-0.1-0.7-0.1-1.4-0.1-2.1
				h-1.6c0,0.3,0.1,0.6,0.1,0.8c5.3,72.2,17.3,138.1,22.3,200.3c5.9,62.5,3.1,121.7-22.8,188.4c-22.9,57.7-63.1,121.2-139.2,197.2
				h4.9C184.2,1160.3,223.9,1097,246.4,1039.4z"/>
			<path class="st2" d="M277.1,852.7c-6.2-61.4-19-126-25.2-196.5c-0.2-2.2-0.4-4.4-0.5-6.6h-0.7c0.1,2,0.3,4.1,0.5,6.1
				c6,70.7,18.9,135.4,24.8,196.9c6.8,61.8,5.1,120.6-19.5,187.5c-21.4,57.1-59.4,120.1-131.3,196.2h2
				c71.6-76.1,109.4-139.1,130.6-196.1C282.2,973.2,283.9,914.4,277.1,852.7z"/>
			<path class="st2" d="M289.3,854c-7.2-60.5-21-123.6-28.1-192.3c-0.4-4-0.8-8.1-1.2-12.1h-1c0.3,3.8,0.8,7.7,1.2,11.5
				c6.9,68.9,20.7,132.2,27.6,192.8c7.8,60.8,7.3,119.3-15.7,186.5c-19.8,56.6-55.6,119.4-123.8,195.9h2.7
				c67.8-76.6,103.3-139.4,123-196C296.7,973.2,297.1,914.7,289.3,854z"/>
			<path class="st2" d="M297.1,854.3c-7.8-59.9-22.1-122.1-29.7-189.6c-0.6-5-1.1-10-1.6-15.1H265c0.5,4.9,1,9.9,1.6,14.7
				c7.5,67.7,21.8,130,29.4,190c8.5,60.2,8.7,118.4-13.3,185.6c-18.9,56.5-53.4,119.3-119.5,196.4h1.7
				c65.9-77.1,100.3-140,119.1-196.5C305.9,972.6,305.6,914.4,297.1,854.3z"/>
			<path class="st2" d="M305.8,854.2c-8.5-59.2-23.4-120.4-31.5-186.7c-0.8-5.9-1.4-11.9-2.1-18h-2.3c0.6,5.7,1.2,11.4,1.9,17
				c7.9,66.7,22.7,128.2,30.8,187.7c9,59.7,9.9,117.6-11.4,185c-18.2,56.4-51.8,119.5-116.6,197h5.1c64.3-77.9,97.5-141,115.5-197.4
				C316,971.5,314.9,913.7,305.8,854.2z"/>
			<path class="st2" d="M312.2,853.9c-9-58.8-24.3-119.2-32.8-184.5c-0.9-6.6-1.7-13.2-2.5-19.8h-0.6c0.8,6.6,1.6,13.1,2.4,19.6
				c8.5,65.4,23.7,125.9,32.6,184.8c9.6,59,11.3,116.7-8.9,184c-17.3,56.5-49.9,119.8-113.3,198.3h1.3
				c63.3-78.6,95.8-141.9,113.1-198.5C323.6,970.5,321.9,912.8,312.2,853.9z"/>
			<path class="st2" d="M321.9,853c-9.6-58-25.5-117.4-34.6-181.2c-1.1-7.3-2.1-14.7-2.9-22.1h-1.1c0.9,7.3,1.8,14.6,2.9,21.8
				c9,64,24.8,123.6,34.2,181.7c10.3,58.3,12.7,115.6-6.5,183c-16.5,56.7-48.2,120.5-110.6,200.1h2.2
				c62.2-79.8,93.8-143.7,110.2-200.4C334.8,968.5,332.3,911.2,321.9,853z"/>
			<path class="st2" d="M329.9,851.9c-10.2-57.4-26.4-115.9-36-178.6c-1.2-7.8-2.3-15.7-3.4-23.7h-1.9c1,7.8,2.1,15.6,3.2,23.3
				c9.4,63,25.5,121.8,35.4,179.4c10.7,57.8,13.7,114.8-4.7,182.3c-15.9,56.9-47,121.1-108.8,201.8h3.6
				c61.6-81,92.5-145.4,108.3-202.4C343.8,966.5,340.7,909.5,329.9,851.9z"/>
			<path class="st2" d="M341.4,849.9c-10.9-56.6-27.7-113.8-37.8-174.8c-1.4-8.4-2.7-16.9-3.9-25.4h-0.5c1.2,8.5,2.5,17,3.8,25.3
				c10.1,61.1,26.8,118.4,37.6,175.1c11.5,56.8,15.5,113.3-1.6,180.8c-14.9,57.4-45.1,122.7-106.2,205.6h0.9
				c61.1-83,91.2-148.3,106.1-205.8C356.9,963.2,352.9,906.6,341.4,849.9z"/>
			<path class="st2" d="M351.8,847.6c-11.5-55.9-28.7-112-39.2-171.5c-1.6-8.8-3-17.6-4.3-26.5h-2.5c1.2,8.8,2.7,17.5,4.2,26.2
				c10.4,60,27.5,116.4,38.7,172.5c12,56.2,16.6,112.4,0.2,179.8c-14.4,57.8-44.1,123.8-105,208.2h4.1c61-85,90.5-151.2,104.7-209.2
				C368.6,959.7,363.9,903.5,351.8,847.6z"/>
			<path class="st2" d="M358.5,845.9c-11.8-55.4-29.3-110.7-40.1-169.3c-1.7-8.9-3.2-17.9-4.6-27h-1.2c1.4,9,2.9,18,4.5,26.9
				c10.7,58.8,28.1,114.3,39.8,169.8c12.4,55.6,17.5,111.5,2,178.9c-13.8,58.3-43.1,125.1-104.1,211.1h1.8
				c61-86.3,90.3-153.3,104-211.7C376.2,957.3,371,901.4,358.5,845.9z"/>
			<path class="st2" d="M369.8,842.8C357.4,788.2,339.5,734,328.4,677c-1.8-9.1-3.5-18.2-4.9-27.4h-1.9c1.4,9.2,3.1,18.3,4.9,27.4
				c11,57.3,28.9,111.7,41,166.5c12.9,54.8,18.7,110.4,4,177.7c-13.3,59-42.1,126.8-103.3,215.1h2.8c61.3-88.8,90.1-156.9,103.2-216
				C388.6,953,382.7,897.5,369.8,842.8z"/>
			<path class="st2" d="M381.2,839.4c-12.8-53.8-31-106.8-42.4-162.2c-1.9-9.1-3.7-18.3-5.2-27.5h-0.3c1.5,9.2,3.3,18.4,5.2,27.5
				c11.4,55.5,29.6,108.5,42.3,162.4c13.5,53.8,20,109,6.3,176.2c-12.5,59.9-40.9,129.2-102.8,220.6h0.4
				c61.9-91.5,90.3-160.9,102.9-220.8C401.1,948.3,394.6,893.2,381.2,839.4z"/>
			<path class="st2" d="M387.8,837.3c-13.1-53.3-31.4-105.7-42.9-160.2c-2-9.1-3.8-18.3-5.3-27.5h-1.3c1.6,9.2,3.4,18.4,5.3,27.5
				c11.5,54.7,29.8,107.2,42.7,160.7c13.6,53.5,20.5,108.4,7.2,175.6c-12.2,60.2-40.5,130.2-102.7,223h1.7
				c62.3-93.1,90.5-163.3,102.7-223.6C408.2,945.5,401.4,890.7,387.8,837.3z"/>
			<path class="st2" d="M397.9,833.9c-13.4-52.7-31.9-104-43.6-157.1c-2.1-9-3.9-18.1-5.5-27.2h-3c1.6,9.1,3.4,18.2,5.5,27.3
				c11.6,53.6,30.1,105.2,43.3,158.2c13.9,52.9,21.1,107.5,8.4,174.7c-11.9,60.8-40,131.8-102.8,226.6h3.6c63-95.6,91-167,102.9-228
				C419.2,941.2,411.8,886.6,397.9,833.9z"/>
			<path class="st2" d="M404.3,831.7c-13.6-52.2-32.2-102.9-44-155.2c-2.1-8.9-3.9-17.9-5.5-26.9h-1.4c1.6,9,3.5,18,5.5,27
				c11.8,52.5,30.4,103.3,43.8,155.7c14.2,52.3,21.7,106.7,9.5,173.8c-11.6,61.4-39.5,133.4-102.9,230.2h1.6
				c63.5-97.2,91.4-169.4,103-230.9C426,938.3,418.5,884,404.3,831.7z"/>
			<path class="st2" d="M416.7,827.4c-13.9-51.4-32.6-100.9-44.5-151.5c-2.1-8.7-4-17.5-5.7-26.2h-3.8c1.6,8.8,3.6,17.7,5.6,26.5
				c11.8,51.1,30.6,101,44.2,152.7c14.4,51.7,22.3,105.7,10.7,172.8c-11.2,62.1-39,135.3-103.3,234.7h4.1
				c64.6-100.4,92.4-174.1,103.5-236.5C439.1,932.8,431.1,878.9,416.7,827.4z"/>
			<path class="st2" d="M424.4,824.7c-14-50.9-32.8-99.7-44.7-149.3c-2.1-8.6-4-17.2-5.7-25.8h-0.8c1.6,8.6,3.6,17.2,5.7,25.8
				c11.8,49.7,30.7,98.5,44.6,149.6c14.6,51,22.9,104.7,11.8,171.7c-10.9,62.9-38.6,137.3-103.8,239.6h0.8
				c65.3-102.4,93-177,103.9-240C447.3,929.3,439,875.7,424.4,824.7z"/>
			<path class="st2" d="M431.6,822.2c-14.1-50.5-32.9-98.6-44.8-147.2c-2.1-8.4-4-16.9-5.7-25.3h-1.4c1.6,8.5,3.6,16.9,5.7,25.4
				c11.8,48.8,30.7,97.1,44.6,147.7c14.7,50.6,23.1,104.1,12.3,171.1c-10.7,63.3-38.3,138.6-104.2,242.5h1.5
				c66-104.3,93.7-179.7,104.3-243.1C454.8,926.2,446.3,872.7,431.6,822.2z"/>
			<path class="st2" d="M437.4,820.2c-14.2-50.2-33-97.7-44.8-145.6c-2.1-8.3-4-16.6-5.7-24.9h-2.1c1.6,8.4,3.6,16.7,5.7,25.1
				c11.8,48.2,30.7,95.9,44.7,146.3c14.8,50.3,23.3,103.6,12.7,170.6c-10.5,63.7-38.2,139.5-104.6,244.8h2.1
				c66.6-105.8,94.2-181.9,104.7-245.7C460.8,923.6,452.2,870.3,437.4,820.2z"/>
			<path class="st2" d="M444.9,817.6c-14.2-49.7-33.1-96.6-44.8-143.5c-2.1-8.2-4-16.3-5.6-24.5h-0.3c1.6,8.1,3.6,16.3,5.6,24.5
				c11.8,47,30.5,93.9,44.7,143.7c14.9,49.7,23.6,102.8,13.3,169.8c-10.3,64.2-38,141.1-105.3,248.8h0.3
				c67.3-107.8,94.9-184.7,105.3-249C468.4,920.4,459.7,867.3,444.9,817.6z"/>
			<path class="st2" d="M455.4,814.1c-14.3-49.1-33-95-44.6-140.6c-2.1-8-4-15.9-5.5-23.9h-1.5c1.6,8,3.5,15.9,5.6,23.9
				c11.6,45.8,30.4,91.8,44.6,141.1c14.9,49.1,23.8,102,13.8,169c-10.2,64.8-37.8,142.7-106,252.7h1.4
				c68.3-110.3,96-188.4,106.1-253.3C479.1,916,470.2,863.2,455.4,814.1z"/>
			<path class="st2" d="M463.6,811.4c-14.3-48.6-32.9-93.8-44.3-138.4c-2.1-7.8-3.9-15.7-5.5-23.4h-2.4c1.6,7.8,3.5,15.7,5.5,23.6
				c11.5,44.9,30.2,90.2,44.3,139.1c14.9,48.7,23.9,101.3,14,168.4c-10.1,65.2-37.8,143.9-106.6,255.7h2.2
				c69.1-112.4,96.8-191.3,106.8-256.7C487.5,912.6,478.4,860,463.6,811.4z"/>
			<path class="st2" d="M472.5,808.7c-14.2-48.1-32.7-92.5-44-136c-2.1-7.7-3.9-15.4-5.5-23.1H422c1.6,7.6,3.4,15.3,5.5,23.1
				c11.3,43.6,29.8,88.1,43.9,136.3c14.9,48.1,24,100.5,14.2,167.6c-10,65.8-37.7,145.5-107.6,259.7h1
				c69.9-114.4,97.7-194.2,107.7-260.1C496.4,909.1,487.3,856.8,472.5,808.7z"/>
			<path class="st2" d="M485.4,804.9c-14.1-47.4-32.4-90.7-43.3-132.6c-2.1-7.6-3.8-15.2-5.4-22.7h-1.6c1.5,7.5,3.4,15.1,5.4,22.7
				c10.9,42.1,29.2,85.5,43.3,133.1c14.7,47.4,23.8,99.5,14.3,166.7c-9.9,66.3-37.8,147.2-108.7,264.2h1.4
				c71-117.3,98.9-198.3,108.8-264.7C509.2,904.4,500.1,852.3,485.4,804.9z"/>
			<path class="st2" d="M493.7,802.7c-14-47-32-89.6-42.7-130.5c-2.1-7.6-3.8-15.1-5.3-22.6h-1.1c1.5,7.5,3.3,15,5.3,22.6
				c10.7,41,28.7,83.7,42.6,130.8c14.6,47,23.7,98.8,14.2,166.1c-9.9,66.7-37.8,148.3-109.5,267.2h0.9
				c71.9-119.1,99.8-200.8,109.7-267.5C517.3,901.5,508.3,849.6,493.7,802.7z"/>
			<path class="st2" d="M503,800.4c-13.8-46.5-31.6-88.3-42-128.1c-2.1-7.6-3.8-15.2-5.3-22.6h-3.6c1.5,7.4,3.3,15,5.3,22.6
				c10.5,40.2,28.3,82.3,42.2,129c14.5,46.6,23.5,98.3,14,165.7c-10,67-38,149.1-110.2,269.5h2.9c72.5-121,100.5-203.4,110.5-270.5
				C526.4,898.5,517.4,846.8,503,800.4z"/>
			<path class="st2" d="M510,798.7c-13.7-46.2-31.3-87.4-41.3-126.4c-2.1-7.7-3.8-15.3-5.2-22.7h-1c1.4,7.5,3.2,15,5.2,22.7
				c10.1,39.1,27.7,80.4,41.3,126.7c14.3,46.1,23.3,97.6,13.7,165.1c-10.1,67.3-38.1,150.1-111.1,272.3h0.8
				c73-122.3,101.1-205.2,111.1-272.5C533.2,896.4,524.3,844.8,510,798.7z"/>
			<path class="st2" d="M520.7,796.5c-13.5-45.6-30.7-86-40.3-123.7c-2.1-7.8-3.8-15.6-5.1-23.1h-1.8c1.4,7.6,3.1,15.2,5.2,23.1
				c9.7,38,27,78.4,40.4,124.2c14.1,45.6,22.9,97,13.2,164.5c-10.2,67.5-38.4,151-112,274.9h1.4c73.6-124.2,101.9-207.8,112.1-275.4
				C543.4,893.4,534.8,842.1,520.7,796.5z"/>
			<path class="st2" d="M529.6,794.9c-13.2-45.2-30.1-84.9-39.4-121.6c-2.1-8-3.8-15.9-5.1-23.6h-3c1.3,7.7,3.1,15.5,5.1,23.4
				c9.4,37.1,26.4,76.9,39.6,122.4c13.9,45.2,22.5,96.4,12.8,164.2c-10.3,67.7-38.6,151.6-112.6,276.8h2.3
				c74-125.7,102.4-209.8,112.8-277.5C551.9,891.2,543.3,840,529.6,794.9z"/>
			<path class="st2" d="M542.6,792.8c-12.8-44.6-29.2-83.2-37.8-118.6c-2.1-8.4-3.8-16.7-5-24.6H499c1.2,8,2.9,16.2,5,24.6
				c8.6,35.4,25,74.1,37.8,118.8c13.5,44.5,21.8,95.5,11.7,163.5c-10.6,67.9-39.1,152.6-113.9,279.9h0.6
				c74.7-127.4,103.3-212,113.9-280C564.2,888.3,556,837.4,542.6,792.8z"/>
			<path class="st2" d="M554.6,791.4c-12.4-44.1-28.3-81.8-36.3-115.8c-2.2-8.9-3.8-17.6-4.8-25.9h-4.1c1,8.2,2.7,16.7,4.9,25.5
				c8.1,34.4,24.2,72.4,36.7,116.7c13.1,44.1,21.2,94.9,10.9,163.1c-10.8,68-39.5,153-114.6,281.4h2.9
				c75.1-128.8,103.9-213.9,114.8-281.9C575.5,886.1,567.6,835.3,554.6,791.4z"/>
			<path class="st2" d="M562.6,790.6c-12.1-43.7-27.6-80.8-35.2-114c-2.2-9.3-3.8-18.3-4.6-26.9h-2c0.9,8.6,2.5,17.5,4.7,26.7
				c7.7,33.4,23.3,70.6,35.4,114.5c12.8,43.7,20.5,94.3,10,162.8c-11.1,68.1-39.9,153.4-115.2,282.8h1.4
				c75.4-129.6,104.2-214.9,115.4-283C582.9,884.9,575.3,834.2,562.6,790.6z"/>
			<path class="st2" d="M576,789.7c-11.6-43.1-26.6-79.3-33.3-111.1c-2.3-10.1-3.6-19.8-4.1-29h-3.3c0.5,9.1,2,18.6,4.2,28.5
				c6.9,32.1,22,68.4,33.6,111.8c12.3,43.1,19.6,93.6,8.7,162.4c-11.5,68-40.5,153.6-116.1,284.1h2.3
				c75.6-130.7,104.7-216.3,116.3-284.3C595.4,883.2,588.2,832.7,576,789.7z"/>
			<path class="st2" d="M590,789.2c-10.9-42.6-25.3-77.7-31.1-108.1c-2.3-11.2-3.4-21.6-3.2-31.4h-0.5c-0.2,9.8,1,20.2,3.2,31.4
				c6,30.5,20.2,65.6,31.1,108.3c11.6,42.5,18.3,92.7,6.7,162c-12,67.9-41.3,153.6-117,285.1h0.3c75.7-131.5,105-217.2,117-285.1
				C608.3,881.9,601.5,831.7,590,789.2z"/>
			<path class="st2" d="M598.2,789.2c-10.5-42.3-24.4-76.8-29.8-106.5c-2.3-11.9-3.1-22.9-2.4-33.1h-2.3c-0.6,10.1,0.3,21,2.6,32.7
				c5.5,29.8,19.4,64.5,30,106.9c11.4,42.2,17.8,92.3,5.8,161.8c-12.2,67.8-41.7,153.6-117.3,285.3h1.5
				c75.7-131.8,105-217.5,117.4-285.3C615.8,881.5,609.4,831.3,598.2,789.2z"/>
			<path class="st2" d="M611.1,789.4c-10-41.7-23.1-75.4-27.6-103.9c-2.2-13.2-2.6-25.1-0.6-35.9h-5.5c-1.6,10.6-1,22.2,1.2,35
				c4.8,28.8,18.1,62.8,28.2,104.8c10.8,41.8,16.8,91.8,4.4,161.7c-12.7,67.6-42.2,153.3-117.8,285.3h3.4
				c75.5-132,105-217.7,117.9-285.3C627.5,881.1,621.7,831,611.1,789.4z"/>
			<path class="st2" d="M619.4,789.7c-9.6-41.4-22.2-74.5-26.1-102.2c-2.1-14.1-2.1-26.7,1.1-37.9h-2.7c-2.9,11.1-2.8,23.5-0.7,37.4
				c4,27.9,16.8,61.1,26.4,102.7c10.3,41.4,15.8,91.3,2.9,161.5c-13.1,67.4-42.8,153-118.1,285.1h1.6
				c75.3-132.1,105-217.7,118.2-285C635,881,629.6,831.1,619.4,789.7z"/>
			<path class="st2" d="M635.8,790.9c-8.7-40.8-20.5-72.9-23.2-99.2c-1.8-16.4-0.3-30.3,6.2-42.1h-8.1c-5.3,11.6-6.3,25.1-4.3,40.7
				c3.1,26.7,15.2,59.1,24,100.2c9.6,40.9,14.6,90.7,0.9,161.4c-13.6,67-43.5,152.4-118.5,284.4h4.2
				c74.9-131.8,104.8-217.1,118.6-284C649.7,881.4,645.1,831.6,635.8,790.9z"/>
			<path class="st2" d="M646.2,791.9c-8.1-40.5-19.3-71.9-21.2-97.2c-1.6-18.2,1.4-33,11.6-45h-2c-9.6,12-12.5,26.7-10.9,44.7
				c2.1,25.5,13.2,56.9,21.4,97.5c8.9,40.4,13.1,90-1.4,161.4c-14.2,66.6-44.2,151.6-118.7,283.1h0.9
				c74.5-131.5,104.5-216.4,118.7-283C659.1,881.9,655.1,832.3,646.2,791.9z"/>
			<path class="st2" d="M657.4,793.2c-7.5-40.1-18-70.8-19.1-95.3c-1.1-20.6,4.2-36.3,20.1-48.3h-4.3c-14.6,12-19.4,27.5-18.2,47.7
				c1.2,24.6,11.8,55.4,19.4,95.7c8.3,40.1,12,89.6-3.1,161.4c-14.6,66.2-44.8,150.9-118.8,281.9h1.7
				c73.9-130.9,104.1-215.5,118.9-281.7C669.1,882.8,665.5,833.2,657.4,793.2z"/>
			<path class="st2" d="M665.5,794.2c-7-39.8-17-70.1-17.5-93.9c-0.6-22.8,7.2-39.2,29.6-50.7h-7.5c-19.6,11.7-26.5,27.9-25.7,49.8
				c0.7,24,10.8,54.4,17.9,94.5c7.9,39.8,11.2,89.3-4.4,161.5c-14.9,66-45.2,150.3-118.9,281h2.5
				c73.6-130.5,103.9-214.7,118.9-280.6C676.3,883.5,673.2,834,665.5,794.2z"/>
			<path class="st2" d="M660.1,703.5c-0.4,23,9,52.6,15.3,92.3c7.2,39.4,9.7,88.8-6.6,161.6c-15.5,65.4-45.9,149.2-118.8,278.9h0.4
				c72.9-129.6,103.3-213.4,118.8-278.8c16.4-72.8,14-122.2,6.8-161.7c-6.4-39.5-15.7-69.1-15.3-92.1c0.1-18.9,6.7-33,23.6-43.2
				v-0.7C667,670.1,660.3,684.4,660.1,703.5z"/>
			<path class="st2" d="M684.4,771v-12.2c-3.7-20-6.6-36.4-5.5-50.2c0.5-7.7,2.3-14.5,5.5-20.5v-5.4c-5.1,7.1-7.6,15.4-8.1,25.2
				C675.1,724.5,679.6,745.1,684.4,771z"/>
			<path class="st2" d="M561,1236.4h1.8c72-128.4,102.4-211.4,118.6-276.2c1-4.3,2-8.6,2.9-12.8v-9.2c-1.4,6.9-2.9,14.1-4.7,21.5
				C663.7,1024.6,633.2,1107.8,561,1236.4z"/>
			<path class="st2" d="M573,1236.4c62.2-111.3,93.4-188.2,111.3-248.7v-10.3c-17.4,62.1-48.5,141.4-114.3,258.9h2.9V1236.4z"/>
			<path class="st2" d="M584.1,1236.4c50.9-91.2,81-159.1,100.3-213.8v-3.7c-19.2,55.4-49.4,124.3-101.5,217.5H584.1z"/>
			<path class="st2" d="M600.5,1236.4c38.3-68.7,64.8-124.1,83.8-170.5v-4.9c-19.2,47.4-46.1,104.2-85.8,175.4H600.5z"/>
			<path class="st2" d="M611.4,1236.4c31.5-56.6,55-104,73-144.8v-3.1c-18.1,41.5-42,89.9-74.3,147.9H611.4z"/>
			<path class="st2" d="M623.9,1236.4c24.7-44.4,44.5-83.2,60.5-117.5v-9.6c-16.8,36.6-37.9,78.5-64.9,127.1H623.9z"/>
			<path class="st2" d="M633.4,1236.4c20.1-36.1,36.8-68.3,51-97.5v-2.5c-14.4,29.8-31.6,62.9-52.2,100H633.4z"/>
			<path class="st2" d="M648.1,1236.4c13.5-24.3,25.5-46.9,36.3-67.9v-4.4c-11.3,22.3-24,46.3-38.5,72.3L648.1,1236.4L648.1,1236.4z
				"/>
			<path class="st2" d="M660.5,1236.4c8.6-15.4,16.5-30.1,23.9-44.2v-7.3c-8.5,16.2-17.7,33.3-27.7,51.4L660.5,1236.4L660.5,1236.4z
				"/>
			<path class="st2" d="M679.2,1236.4c1.8-3.2,3.5-6.3,5.2-9.4v-1.9c-2.1,3.7-4.1,7.5-6.2,11.3L679.2,1236.4L679.2,1236.4z"/>
		</g>
	</g>
</g>
<g>
	
		<image style="overflow:visible;" width="758" height="660" xlink:href="E40ED65D9217C35E.png"  transform="matrix(1 0 0 1 -36.8236 -37)">
	</image>
</g>
</svg>
