<?xml version="1.0" encoding="utf-8"?>
<!-- Generator: Adobe Illustrator 21.0.2, SVG Export Plug-In . SVG Version: 6.00 Build 0)  -->
<svg version="1.1" id="Logo" xmlns="http://www.w3.org/2000/svg" xmlns:xlink="http://www.w3.org/1999/xlink" x="0px" y="0px"
	 viewBox="0 0 512 512" style="enable-background:new 0 0 512 512;" xml:space="preserve">
<style type="text/css">
	.st0{fill:#333333;}
</style>
<g>
	<path class="st0" d="M256,153.4c33.4,0,37.4,0.1,50.5,0.7c12.2,0.6,18.8,2.6,23.2,4.3c5.8,2.3,10,5,14.4,9.4
		c4.4,4.4,7.1,8.5,9.4,14.4c1.7,4.4,3.8,11,4.3,23.2c0.6,13.2,0.7,17.1,0.7,50.5s-0.1,37.4-0.7,50.5c-0.6,12.2-2.6,18.8-4.3,23.2
		c-2.3,5.8-5,10-9.4,14.4c-4.4,4.4-8.5,7.1-14.4,9.4c-4.4,1.7-11,3.8-23.2,4.3c-13.2,0.6-17.1,0.7-50.5,0.7s-37.4-0.1-50.5-0.7
		c-12.2-0.6-18.8-2.6-23.2-4.3c-5.8-2.3-10-5-14.4-9.4c-4.4-4.4-7.1-8.5-9.4-14.4c-1.7-4.4-3.8-11-4.3-23.2
		c-0.6-13.2-0.7-17.1-0.7-50.5s0.1-37.4,0.7-50.5c0.6-12.2,2.6-18.8,4.3-23.2c2.3-5.8,5-10,9.4-14.4c4.4-4.4,8.5-7.1,14.4-9.4
		c4.4-1.7,11-3.8,23.2-4.3C218.6,153.6,222.6,153.4,256,153.4 M256,130.9c-34,0-38.2,0.1-51.6,0.8c-13.3,0.6-22.4,2.7-30.4,5.8
		c-8.2,3.2-15.2,7.5-22.2,14.4c-7,7-11.2,13.9-14.4,22.2c-3.1,8-5.2,17.1-5.8,30.4c-0.6,13.3-0.8,17.6-0.8,51.6
		c0,34,0.1,38.2,0.8,51.6c0.6,13.3,2.7,22.4,5.8,30.4c3.2,8.2,7.5,15.2,14.4,22.2c7,7,13.9,11.2,22.2,14.4c8,3.1,17.1,5.2,30.4,5.8
		c13.3,0.6,17.6,0.8,51.6,0.8s38.2-0.1,51.6-0.8c13.3-0.6,22.4-2.7,30.4-5.8c8.2-3.2,15.2-7.5,22.2-14.4c7-7,11.2-13.9,14.4-22.2
		c3.1-8,5.2-17.1,5.8-30.4c0.6-13.3,0.8-17.6,0.8-51.6s-0.1-38.2-0.8-51.6c-0.6-13.3-2.7-22.4-5.8-30.4c-3.2-8.2-7.5-15.2-14.4-22.2
		c-7-7-13.9-11.2-22.2-14.4c-8-3.1-17.1-5.2-30.4-5.8C294.2,131.1,290,130.9,256,130.9L256,130.9z"/>
	<path class="st0" d="M256,191.8c-35.5,0-64.2,28.8-64.2,64.2s28.8,64.2,64.2,64.2s64.2-28.8,64.2-64.2S291.5,191.8,256,191.8z
		 M256,297.7c-23,0-41.7-18.7-41.7-41.7c0-23,18.7-41.7,41.7-41.7s41.7,18.7,41.7,41.7C297.7,279,279,297.7,256,297.7z"/>
	<circle class="st0" cx="322.8" cy="189.2" r="15"/>
</g>
</svg>
